<svg width="306" height="141" viewBox="0 0 306 141" fill="none" xmlns="http://www.w3.org/2000/svg">
<path d="M294.86 65.8C294.86 73.7109 291.288 81.3576 284.607 88.4365C277.918 95.5234 268.168 101.974 256.007 107.423C231.688 118.321 197.986 125.1 160.68 125.1C123.374 125.1 89.6723 118.321 65.3531 107.423C53.1919 101.974 43.4424 95.5234 36.7532 88.4365C30.0716 81.3576 26.5 73.7109 26.5 65.8C26.5 57.8891 30.0716 50.2424 36.7532 43.1635C43.4424 36.0766 53.1919 29.6264 65.3531 24.1768C89.6723 13.279 123.374 6.5 160.68 6.5C197.986 6.5 231.688 13.279 256.007 24.1768C268.168 29.6264 277.918 36.0766 284.607 43.1635C291.288 50.2424 294.86 57.8891 294.86 65.8Z" stroke="url(#paint0_linear_25_180)" stroke-width="3"/>
<path d="M141.143 12.2691C159.559 11.335 181.09 15.1579 199.06 18.4881C217.031 21.8182 235.649 26.0995 248.967 32.2499C262.286 38.4002 273.03 47.109 278.97 55.3902C284.91 63.6714 286.402 73.592 284.607 81.937C282.812 90.282 277.377 97.9775 268.198 105.46C259.019 112.943 245.21 121.377 229.532 126.834C213.854 132.292 193.018 136.433 174.13 138.206C155.242 139.98 134.88 139.457 116.204 137.475C97.5285 135.493 78.0047 131.233 62.0756 126.313C46.1464 121.394 30.6141 115.184 20.6293 107.958C10.6444 100.731 4.52787 91.3567 2.16647 82.9531C-0.194931 74.5494 0.928115 65.8598 6.46084 57.5361C11.9936 49.2125 22.4529 39.4287 35.3628 33.0112C48.2728 26.5937 65.8193 22.451 83.9205 19.0313C102.022 15.6115 133.443 13.4509 143.97 12.4928C154.497 11.5348 147.059 12.0677 147.084 13.2828M157.378 12.3549C175.645 12.2651 197.278 15.0073 214.076 19.4444C230.874 23.8815 246.494 31.619 258.165 38.9775C269.836 46.3359 279.645 55.2814 284.101 63.5951C288.556 71.9088 288.989 80.3306 284.895 88.8596C280.802 97.3887 271.217 107.551 259.539 114.769C247.862 121.988 231.976 127.999 214.831 132.172C197.687 136.345 176.02 139.093 156.672 139.806C137.324 140.52 116.852 139.23 98.7429 136.452C80.6343 133.674 62.6441 129.24 48.0204 123.138C33.3967 117.035 18.6635 108.033 11.0006 99.8378C3.33772 91.6422 1.59699 82.0456 2.04313 73.9645C2.48926 65.8833 5.83874 59.1006 13.6774 51.351C21.5161 43.6013 34.5832 33.1021 49.0751 27.4668C63.5671 21.8315 82.1198 19.9068 100.629 17.5392C119.139 15.1715 150.349 13.9157 160.132 13.261C169.915 12.6064 159.885 12.5143 159.329 13.6113" stroke="url(#paint1_linear_25_180)"/>
<path d="M163.857 2.2691C145.441 1.33496 123.91 5.15794 105.94 8.48807C87.969 11.8182 69.3511 16.0995 56.0328 22.2499C42.7145 28.4002 31.9697 37.109 26.0298 45.3902C20.0899 53.6714 18.5978 63.592 20.3931 71.937C22.1885 80.282 27.6226 87.9775 36.8017 95.4603C45.9808 102.943 59.7898 111.377 75.4678 116.834C91.1458 122.292 111.982 126.433 130.87 128.206C149.758 129.98 170.12 129.457 188.796 127.475C207.472 125.493 226.995 121.233 242.924 116.313C258.854 111.394 274.386 105.184 284.371 97.9578C294.356 90.7311 300.472 81.3567 302.834 72.9531C305.195 64.5494 304.072 55.8598 298.539 47.5361C293.006 39.2125 282.547 29.4287 269.637 23.0112C256.727 16.5937 239.181 12.451 221.08 9.03126C202.978 5.61153 171.557 3.45091 161.03 2.49284C150.503 1.53476 157.941 2.06765 157.916 3.28279M147.622 2.35485C129.355 2.26514 107.722 5.00734 90.9238 9.44444C74.1261 13.8815 58.5059 21.619 46.8351 28.9775C35.1644 36.3359 25.3545 45.2814 20.8995 53.5951C16.4444 61.9088 16.0114 70.3306 20.1049 78.8596C24.1984 87.3887 33.7833 97.5505 45.4606 104.769C57.1379 111.988 73.0244 117.999 90.1689 122.172C107.313 126.345 128.98 129.093 148.328 129.806C167.676 130.52 188.148 129.23 206.257 126.452C224.366 123.674 242.356 119.24 256.98 113.138C271.603 107.035 286.337 98.0333 293.999 89.8378C301.662 81.6422 303.403 72.0456 302.957 63.9645C302.511 55.8833 299.161 49.1006 291.323 41.351C283.484 33.6013 270.417 23.1021 255.925 17.4668C241.433 11.8315 222.88 9.90679 204.371 7.53916C185.861 5.17153 154.651 3.91565 144.868 3.26101C135.085 2.60637 145.115 2.51431 145.671 3.61129" stroke="url(#paint2_linear_25_180)" stroke-width="3"/>
<defs>
<linearGradient id="paint0_linear_25_180" x1="160.68" y1="5" x2="160.68" y2="126.6" gradientUnits="userSpaceOnUse">
<stop stop-color="#E46813"/>
<stop offset="1" stop-color="#FFB800"/>
</linearGradient>
<linearGradient id="paint1_linear_25_180" x1="144.36" y1="12" x2="144.36" y2="156.64" gradientUnits="userSpaceOnUse">
<stop stop-color="#FE6A00"/>
<stop offset="1" stop-color="#FFB800"/>
</linearGradient>
<linearGradient id="paint2_linear_25_180" x1="160.64" y1="2" x2="160.64" y2="146.64" gradientUnits="userSpaceOnUse">
<stop stop-color="#FE6A00"/>
<stop offset="1" stop-color="#FFB800"/>
</linearGradient>
</defs>
</svg>
