<svg width="385" height="204" viewBox="0 0 385 204" fill="none" xmlns="http://www.w3.org/2000/svg">
<g style="mix-blend-mode:hard-light">
<path d="M379.886 198.248C370.4 192.772 362.424 187.974 351.403 186.086C328.096 182.094 308.116 180.393 287.776 167.46C280.66 162.936 273.712 157.8 267.602 151.977C263.345 147.92 255.307 141.784 253.216 135.999C251.074 130.072 250.189 118.716 258.235 116.238C260.793 115.449 272.499 114.666 270.038 119.93C261.022 139.216 236.579 129.434 222.618 121.813C204.929 112.156 187.642 101.708 170.189 91.6316C163.976 88.0449 153.905 73.6178 157.355 66.2017C161.106 58.1378 166.25 55.9059 174.774 56.6325C180.545 57.1245 182.345 60.4575 178.593 65.0826C173.521 71.3365 151.202 66.5653 144.146 65.7122C130.006 64.0027 115.578 62.0217 105.198 51.076C93.2634 38.4913 88.6308 25.0404 97.4138 9.82783C103.562 -0.821873 128.42 7.84503 124.068 19.7751C114.585 45.7709 85.8094 36.8306 65.1405 30.982C48.2671 26.2074 29.7686 16.4311 12.0089 16.0071C9.02072 15.9358 7.04908 16.6034 5.61144 19.0935" stroke="#BCA28E" stroke-width="10" stroke-linecap="round"/>
</g>
</svg>
