<svg width="31" height="31" viewBox="0 0 31 31" fill="none" xmlns="http://www.w3.org/2000/svg">
<path d="M27.875 0.772705L11.5625 18.7258L6.82812 15.1165H4.20312L11.5625 27.0696L30.5 0.772705H27.875Z" fill="#05CD82"/>
<path d="M25.7656 27.0696C25.7656 27.3508 25.5312 27.5852 25.25 27.5852H4.20312C3.92188 27.5852 3.6875 27.3508 3.6875 27.0696V6.0227C3.6875 5.74145 3.92188 5.50708 4.20312 5.50708H18.5938L21.4531 2.36646H1.53125C0.96875 2.36646 0.5 2.8352 0.5 3.3977V29.6946C0.5 30.304 0.96875 30.7727 1.53125 30.7727H27.8281C28.3906 30.7727 28.8594 30.304 28.8594 29.7415V9.25708L25.7188 13.6633C25.7656 13.6633 25.7656 27.0696 25.7656 27.0696Z" fill="#131A15"/>
</svg>
