<svg width="109" height="13" viewBox="0 0 109 13" fill="none" xmlns="http://www.w3.org/2000/svg">
<path d="M1.58167 12.3278C5.28755 10.3993 9.1835 8.39359 13.355 8.01238C15.2589 7.82846 17.178 8.08358 18.9779 8.75985C20.667 9.40516 22.2586 10.2872 23.8835 11.0845C25.5084 11.8818 27.2282 12.6193 29.0218 12.8908C30.7864 13.1546 32.586 12.9384 34.248 12.263C37.5429 10.9424 40.1466 8.26152 43.4273 6.9086C45.1613 6.20455 47.0202 5.9032 48.876 6.02536C50.7318 6.14752 52.5402 6.69027 54.1767 7.6162C55.9109 8.61282 57.4645 9.92588 59.3365 10.6385C61.0986 11.3144 62.9821 11.5697 64.8502 11.3859C66.6815 11.2046 68.4509 10.5959 70.0289 9.60446C71.4803 8.69255 72.6824 7.43929 73.8868 6.20846C75.0128 5.05735 76.1792 3.82404 77.5998 3.07657C79.2152 2.22446 80.9256 2.18958 82.6479 2.68042C84.4913 3.20365 86.1969 4.23017 87.8907 5.12962C89.6961 6.10182 91.5863 6.89029 93.5351 7.48417C97.3991 8.63593 101.451 8.92117 105.427 8.32133C106.444 8.16287 107.453 7.94912 108.449 7.68098C109.045 7.52401 109.102 6.65695 108.881 6.18604C108.756 5.90347 108.539 5.6766 108.27 5.54569C108 5.41478 107.695 5.3883 107.408 5.47096C103.561 6.46863 99.5491 6.55375 95.666 5.72012C93.7341 5.31182 91.8532 4.67315 90.0597 3.81656C88.2733 2.96445 86.5771 1.91303 84.7621 1.12818C82.9472 0.343341 80.9613 -0.21728 78.9943 0.0817082C77.2863 0.343322 75.773 1.19295 74.4427 2.32412C73.1124 3.45529 72.0196 4.72351 70.7843 5.89205C69.5015 7.10794 68.1165 8.07216 66.456 8.6203C64.8013 9.15897 63.0456 9.26249 61.3438 8.92177C59.5288 8.558 58.018 7.5888 56.4763 6.57225C54.7398 5.42363 52.9676 4.49429 50.9531 4.02587C49.0445 3.58361 47.0714 3.54127 45.1472 3.9013C43.3337 4.26185 41.5944 4.95335 40.0088 5.94437C38.4813 6.87123 37.0465 7.95257 35.5214 8.87944C34.0771 9.75647 32.5139 10.5039 30.832 10.6534C29.1501 10.8029 27.4872 10.3146 25.936 9.6568C22.4938 8.17681 19.3105 5.98173 15.5048 5.68523C11.2716 5.35635 7.19035 6.85627 3.38944 8.67511C2.43921 9.13854 1.48899 9.6269 0.538761 10.1202C-0.698909 10.7631 0.429457 12.9332 1.57923 12.3327L1.58167 12.3278Z" fill="#FFCE31"/>
</svg>
