<svg width="192" height="34" viewBox="0 0 192 34" fill="none" xmlns="http://www.w3.org/2000/svg">
<path d="M189 16.3815C184.075 16.3815 179.892 16.4525 175.176 14.8065C165.204 11.3256 157.042 7.70815 146.215 8.14557C142.427 8.2986 138.568 8.7121 134.88 9.55651C132.31 10.1448 127.801 10.6947 125.687 12.3784C123.52 14.1036 120.623 18.0928 123.198 20.7128C124.018 21.5461 128.399 24.32 128.624 21.8612C129.449 12.8527 117.733 11.2603 110.584 11.0987C101.526 10.8939 92.4467 11.0659 83.3857 11.0659C80.1606 11.0659 72.9962 14.2337 72.6722 17.694C72.32 21.4567 73.8211 23.37 77.3032 24.9128C79.6612 25.9576 81.111 25.1137 80.6901 22.6159C80.1209 19.2384 70.3581 16.2536 67.4192 15.069C61.5293 12.695 55.4665 10.3598 48.9643 12.1815C41.4885 14.276 36.6611 18.2397 36.6611 25.7003C36.6611 30.9232 48.288 33.0141 49.2754 27.7019C51.4269 16.1264 38.213 13.3039 28.8506 11.0659C21.2075 9.23884 11.8073 8.90638 4.7971 5.29088C3.6176 4.68255 3 4.0183 3 2.79712" stroke="#FFCE31" stroke-width="5" stroke-linecap="round"/>
</svg>
