<svg width="1920" height="317" viewBox="0 0 1920 317" fill="none" xmlns="http://www.w3.org/2000/svg">
<g clip-path="url(#clip0_397_519)">
<path fill-rule="evenodd" clip-rule="evenodd" d="M-200.5 318.159C-200.5 318.159 -84.2743 180.29 43.4286 171.659C196.929 161.284 319.929 182.676 479.929 196.938C639.929 211.199 799.929 232.591 959.929 221.895C1119.93 211.199 1279.93 168.415 1439.93 161.284C1599.93 154.154 1759.93 182.676 1839.93 196.938L1919.93 211.199V318.159H1839.93C1759.93 318.159 1599.93 318.159 1439.93 318.159C1279.93 318.159 1119.93 318.159 959.929 318.159C799.929 318.159 639.929 318.159 479.929 318.159C319.929 318.159 159.928 318.159 79.9285 318.159H-0.0714569C-0.0714569 318.159 -142.021 318.159 -200.5 318.159Z" fill="#04A164"/>
</g>
<path d="M463.287 146.311L507.823 158.126H473.819L427.177 146.311H463.287Z" fill="#C94747"/>
<path d="M360.975 100.206H427.177V209.707H360.975V100.206Z" fill="#F9F3D9"/>
<path d="M427.177 100.206H463.287V146.311H427.177V100.206Z" fill="#DBB471"/>
<path d="M409.122 59.8628L349.239 100.205H427.177L409.122 59.8628Z" fill="#ED4C5C"/>
<path d="M433.195 65.626H442.223V88.6789H433.195V65.626Z" fill="#D0D0D0"/>
<path d="M442.223 65.626H448.241V91.5605H442.223V65.626Z" fill="#94989B"/>
<path d="M409.122 59.8628L475.324 100.205H427.177L409.122 59.8628Z" fill="#C94747"/>
<path d="M430.186 59.8628H445.232V65.626H430.186V59.8628Z" fill="#D0D0D0"/>
<path d="M445.232 59.8628H451.25V65.626H445.232V59.8628Z" fill="#94989B"/>
<path d="M384.446 116.918H403.705V135.36H384.446V116.918Z" fill="#D6EEF0"/>
<path d="M382.039 114.613V137.666H406.113V114.613H382.039ZM403.705 116.919V124.987H395.279V116.919H403.705ZM392.872 116.919V124.987H384.446V116.919H392.872ZM384.446 135.361V127.292H392.872V135.361H384.446ZM395.279 135.361V127.292H403.705V135.361H395.279Z" fill="#89664C"/>
<path d="M438.01 115.766H452.454V136.514H438.01V115.766Z" fill="#D6EEF0"/>
<path d="M436.807 114.613V137.666H453.658V114.613H436.807ZM439.214 116.919H444.029V124.987H439.214V116.919ZM439.214 135.361V127.292H444.029V135.361H439.214ZM451.251 135.361H446.436V127.292H451.251V135.361ZM451.251 124.987H446.436V116.919H451.251V124.987ZM387.155 178.297H405.812V209.707H387.155V178.297ZM403.706 173.686H408.521V178.297H403.706V173.686Z" fill="#89664C"/>
<path d="M382.34 178.297H387.155V209.706H382.34V178.297Z" fill="#594640"/>
<path d="M380.233 173.687H403.705V178.297H380.233V173.687Z" fill="#DBB471"/>
<path d="M401.9 193.57C402.897 193.57 403.705 192.796 403.705 191.841C403.705 190.886 402.897 190.112 401.9 190.112C400.902 190.112 400.094 190.886 400.094 191.841C400.094 192.796 400.902 193.57 401.9 193.57Z" fill="#F9F3D9"/>
<path d="M346.23 209.707H502.708V221.233H346.23V209.707Z" fill="#83BF4F"/>
<path d="M465.995 158.125H493.981V209.706H465.995V158.125Z" fill="#DBB471"/>
<path d="M427.177 158.125H465.995V209.706H427.177V158.125Z" fill="#F9F3D9"/>
<path d="M427.177 146.311H360.975L345.929 158.126H473.819L427.177 146.311Z" fill="#ED4C5C"/>
<path d="M431.088 174.551H450.347V192.993H431.088V174.551Z" fill="#D6EEF0"/>
<path d="M428.681 172.246V195.299H452.755V172.246H428.681ZM450.348 174.551V182.62H441.922V174.551H450.348ZM439.514 174.551V182.62H431.089V174.551H439.514ZM431.089 192.994V184.925H439.514V192.994H431.089ZM441.922 192.994V184.925H450.348V192.994H441.922Z" fill="#89664C"/>
<path d="M472.616 173.398H487.06V194.146H472.616V173.398Z" fill="#D6EEF0"/>
<path d="M471.412 172.246V195.299H488.264V172.246H471.412ZM473.82 174.551H478.634V182.62H473.82V174.551ZM473.82 192.994V184.925H478.634V192.994H473.82ZM485.856 192.994H481.042V184.925H485.856V192.994ZM485.856 182.62H481.042V174.551H485.856V182.62Z" fill="#89664C"/>
<path d="M502.105 209.707H538.215V221.233H502.105V209.707Z" fill="#699635"/>
<path d="M503.009 134.785H515.046V209.707H503.009V134.785Z" fill="#D3976E"/>
<path d="M515.045 134.785H510.531V136.225C510.531 142.853 508.124 142.853 508.124 149.481C508.124 156.109 510.531 156.109 510.531 162.448C510.531 169.076 508.124 169.076 508.124 175.704C508.124 182.331 510.531 182.331 510.531 188.671C510.531 195.299 508.124 195.299 508.124 201.638C508.124 205.672 508.725 207.401 509.327 209.418H514.744C515.045 209.707 515.045 134.785 515.045 134.785Z" fill="#89664C"/>
<path d="M506.018 45.1662C500.301 52.9465 493.38 38.8266 484.352 50.9294C475.324 63.0322 480.139 73.6942 482.847 81.4745C488.264 97.3234 477.13 102.222 484.653 115.478C491.875 128.733 481.343 135.073 495.185 142.277C509.027 149.481 502.106 133.92 516.249 143.141C530.393 152.362 532.198 136.801 530.694 131.038C527.684 120.376 535.809 117.783 538.217 108.85C542.128 93.001 528.888 84.3561 533.101 69.3717C536.712 54.6755 523.171 21.2488 506.018 45.1662Z" fill="#83BF4F"/>
<path d="M532.498 69.6605C535.808 58.4222 528.887 36.8101 518.054 36.8101C518.054 36.8101 525.276 46.0312 515.045 57.5577C504.814 69.0841 523.772 74.8474 515.045 85.5093C506.318 96.1713 523.17 106.545 516.55 114.902C508.425 125.276 495.485 123.835 503.008 143.718V144.006C506.017 142.277 506.318 137.378 515.647 143.43C529.79 152.651 531.595 137.09 530.091 131.327C527.082 120.665 535.206 118.072 537.614 109.139C541.827 93.2897 528.586 84.6448 532.498 69.6605Z" fill="#699635"/>
<path d="M519.859 69.0837C517.753 69.0837 521.063 67.3547 521.063 65.0494C521.063 62.7441 517.753 61.0152 519.859 61.0152C521.966 61.0152 524.072 62.7441 524.072 65.0494C524.072 67.3547 522.267 69.0837 519.859 69.0837ZM525.276 103.951C521.966 103.951 527.081 101.358 527.081 98.188C527.081 95.0182 521.966 92.4248 525.276 92.4248C528.586 92.4248 531.294 95.0182 531.294 98.188C531.294 101.358 528.586 103.951 525.276 103.951ZM519.859 133.344C517.452 133.344 519.859 131.327 519.859 129.021C519.859 126.716 517.452 124.699 519.859 124.699C522.267 124.699 524.373 126.716 524.373 129.021C524.373 131.327 522.267 133.344 519.859 133.344ZM494.281 71.6772C496.688 71.6772 493.679 73.6943 493.679 75.9996C493.679 78.3049 496.989 80.322 494.281 80.322C491.573 80.322 489.767 78.3049 489.767 75.9996C489.767 73.6943 491.874 71.6772 494.281 71.6772ZM504.211 55.252C507.522 55.252 502.707 57.8454 502.707 61.0152C502.707 64.185 507.822 66.7784 504.211 66.7784C500.901 66.7784 498.193 64.185 498.193 61.0152C498.193 57.8454 500.6 55.252 504.211 55.252Z" fill="#83BF4F"/>
<path d="M501.504 99.0525C506.62 99.0525 499.398 102.799 499.398 107.697C499.398 112.596 506.319 116.342 501.504 116.342C496.389 116.342 492.477 112.596 492.477 107.697C492.477 102.799 496.389 99.0525 501.504 99.0525ZM504.213 83.2036C506.62 83.2036 504.213 85.2207 504.213 87.526C504.213 89.8313 506.62 91.8485 504.213 91.8485C501.805 91.8485 499.699 89.8313 499.699 87.526C499.699 85.2207 501.805 83.2036 504.213 83.2036Z" fill="#699635"/>
<path d="M520.763 201.062H521.967V209.707H520.763V201.062Z" fill="#83BF4F"/>
<path d="M518.055 192.128V198.756C518.055 199.909 518.958 201.061 520.462 201.061H522.87V196.451C522.569 193.281 518.055 192.128 518.055 192.128Z" fill="#C94747"/>
<path d="M524.975 192.128V198.756C524.975 199.909 524.072 201.061 522.568 201.061H520.16V196.451C520.16 193.281 524.975 192.128 524.975 192.128Z" fill="#ED4C5C"/>
<path d="M534.003 194.434H535.207V209.707H534.003V194.434Z" fill="#83BF4F"/>
<path d="M531.295 185.213V191.841C531.295 192.993 532.198 194.146 533.702 194.146H536.11V189.535C535.809 186.654 531.295 185.213 531.295 185.213Z" fill="#C94747"/>
<path d="M538.215 185.213V191.841C538.215 192.993 537.313 194.146 535.808 194.146H533.401V189.535C533.401 186.654 538.215 185.213 538.215 185.213Z" fill="#ED4C5C"/>
<path d="M522.569 181.467V188.095C522.569 189.247 523.471 190.4 524.976 190.4H527.383V185.789C527.383 182.908 522.569 181.467 522.569 181.467Z" fill="#F2B200"/>
<path d="M529.79 181.467V188.095C529.79 189.247 528.887 190.4 527.383 190.4H524.975V185.789C524.975 182.908 529.79 181.467 529.79 181.467Z" fill="#FFCE31"/>
<path d="M525.578 190.688H526.782V209.707H525.578V190.688Z" fill="#83BF4F"/>
<path d="M512.939 184.924V191.552C512.939 192.705 514.142 193.857 515.346 193.857H517.453V189.535C517.453 186.077 512.939 184.924 512.939 184.924Z" fill="#F2B200"/>
<path d="M519.86 184.924V191.552C519.86 192.705 518.958 193.857 517.453 193.857H515.046V189.535C515.046 186.077 519.86 184.924 519.86 184.924Z" fill="#FFCE31"/>
<path d="M515.647 193.858H516.851V209.707H515.647V193.858ZM493.379 201.062H494.583V209.707H493.379V201.062Z" fill="#83BF4F"/>
<path d="M490.37 192.128V198.756C490.37 199.909 491.272 201.061 492.777 201.061H495.184V196.451C495.184 193.281 490.37 192.128 490.37 192.128Z" fill="#C94747"/>
<path d="M497.591 192.128V198.756C497.591 199.909 496.689 201.061 495.184 201.061H492.777V196.451C492.777 193.281 497.591 192.128 497.591 192.128Z" fill="#ED4C5C"/>
<path d="M506.619 194.434H507.823V209.707H506.619V194.434Z" fill="#83BF4F"/>
<path d="M503.61 185.213V191.841C503.61 192.993 504.513 194.146 506.017 194.146H508.425V189.535C508.425 186.654 503.61 185.213 503.61 185.213Z" fill="#C94747"/>
<path d="M510.833 185.213V191.841C510.833 192.993 509.93 194.146 508.425 194.146H506.018V189.535C506.018 186.654 510.833 185.213 510.833 185.213Z" fill="#ED4C5C"/>
<path d="M495.185 181.467V188.095C495.185 189.247 496.088 190.4 497.592 190.4H500V185.789C500 182.908 495.185 181.467 495.185 181.467Z" fill="#F2B200"/>
<path d="M502.105 181.467V188.095C502.105 189.247 501.202 190.4 499.697 190.4H497.29V185.789C497.591 182.908 502.105 181.467 502.105 181.467Z" fill="#FFCE31"/>
<path d="M498.194 190.688H499.398V209.707H498.194V190.688Z" fill="#83BF4F"/>
<path d="M485.253 184.924V191.552C485.253 192.705 486.156 193.857 487.661 193.857H490.068V189.535C490.068 186.077 485.253 184.924 485.253 184.924Z" fill="#C94747"/>
<path d="M492.477 184.924V191.552C492.477 192.705 491.574 193.857 490.069 193.857H487.662V189.535C487.662 186.077 492.477 184.924 492.477 184.924Z" fill="#ED4C5C"/>
<path d="M488.263 193.858H489.466V209.707H488.263V193.858Z" fill="#83BF4F"/>
<path d="M1589.3 173.606C1619.88 173.606 1644.67 150.768 1644.67 122.595C1644.67 94.4229 1619.88 71.5845 1589.3 71.5845C1558.72 71.5845 1533.93 94.4229 1533.93 122.595C1533.93 150.768 1558.72 173.606 1589.3 173.606Z" fill="#83BF4F"/>
<path d="M1589.3 114.205C1618.33 114.205 1641.87 92.5683 1641.87 65.8784C1641.87 39.1886 1618.33 17.5522 1589.3 17.5522C1560.27 17.5522 1536.73 39.1886 1536.73 65.8784C1536.73 92.5683 1560.27 114.205 1589.3 114.205Z" fill="#83BF4F"/>
<path d="M1646.78 100.781C1676.78 100.781 1701.1 78.3932 1701.1 50.7766C1701.1 23.1601 1676.78 0.772461 1646.78 0.772461C1616.78 0.772461 1592.46 23.1601 1592.46 50.7766C1592.46 78.3932 1616.78 100.781 1646.78 100.781Z" fill="#83BF4F"/>
<path d="M1698.64 131.656C1723.8 131.656 1744.2 112.874 1744.2 89.7062C1744.2 66.5379 1723.8 47.7563 1698.64 47.7563C1673.48 47.7563 1653.08 66.5379 1653.08 89.7062C1653.08 112.874 1673.48 131.656 1698.64 131.656Z" fill="#83BF4F"/>
<path d="M1665.35 170.921C1690.51 170.921 1710.91 152.139 1710.91 128.971C1710.91 105.803 1690.51 87.021 1665.35 87.021C1640.19 87.021 1619.79 105.803 1619.79 128.971C1619.79 152.139 1640.19 170.921 1665.35 170.921Z" fill="#83BF4F"/>
<path d="M1628.2 208.843C1629.25 195.419 1627.15 181.324 1625.05 166.558C1622.94 151.792 1620.14 136.69 1620.14 121.252C1619.79 105.815 1621.89 90.0415 1627.5 75.6107C1632.76 61.18 1640.82 48.0917 1650.28 36.3457C1642.22 49.0984 1636.26 62.858 1633.11 77.2887C1629.95 91.3839 1629.95 106.15 1632.06 120.245C1634.16 134.34 1638.36 148.436 1642.92 162.866C1647.13 177.297 1651.68 192.399 1652.73 208.843H1628.2Z" fill="#947151"/>
<path d="M1626.45 115.546C1633.46 116.218 1641.17 115.882 1648.53 115.211C1655.89 114.54 1663.25 112.862 1670.26 110.512C1677.27 108.163 1683.92 104.807 1689.88 100.444C1695.84 96.0817 1701.1 90.7121 1704.95 84.3358C1701.45 90.7121 1696.89 96.7529 1690.93 101.787C1685.33 106.821 1678.67 110.512 1671.31 113.533C1664.3 116.553 1656.59 118.567 1649.23 120.245C1641.52 121.587 1633.81 122.594 1625.75 122.258L1626.45 115.546ZM1624.35 110.848C1619.09 107.828 1614.53 104.472 1610.33 101.116C1606.12 97.4241 1601.92 93.3969 1598.41 89.3697C1591.4 80.6442 1586.15 70.2406 1585.45 59.5015C1587.2 70.2406 1593.51 79.6374 1601.22 87.0205C1605.07 90.7121 1609.28 94.0681 1613.83 97.0885C1618.39 100.109 1623.3 102.794 1627.85 104.807L1624.35 110.848ZM1629.95 149.106C1624 148.771 1618.39 147.764 1612.78 146.421C1607.17 145.079 1601.92 143.065 1596.66 140.381C1586.5 135.011 1577.74 127.292 1572.48 117.56C1578.79 126.621 1587.9 133.333 1598.06 137.025C1602.97 139.038 1608.58 140.381 1613.83 141.388C1619.09 142.394 1624.7 142.73 1629.95 142.394V149.106Z" fill="#947151"/>
<path d="M1561.27 134.677C1561.27 142.06 1554.96 148.101 1554.96 148.101C1554.96 148.101 1548.65 142.06 1548.65 134.677C1548.65 127.294 1554.96 121.253 1554.96 121.253C1554.96 121.253 1561.27 127.294 1561.27 134.677ZM1723.53 105.815C1723.53 113.198 1717.22 119.239 1717.22 119.239C1717.22 119.239 1710.91 113.198 1710.91 105.815C1710.91 98.432 1717.22 92.3913 1717.22 92.3913C1717.22 92.3913 1723.53 98.432 1723.53 105.815ZM1578.79 151.792C1578.79 159.175 1572.48 165.216 1572.48 165.216C1572.48 165.216 1566.17 159.175 1566.17 151.792C1566.17 144.409 1572.48 138.368 1572.48 138.368C1572.48 138.368 1578.79 144.409 1578.79 151.792ZM1561.27 64.201C1561.27 71.5842 1554.96 77.6249 1554.96 77.6249C1554.96 77.6249 1548.65 71.5842 1548.65 64.201C1548.65 56.8178 1554.96 50.777 1554.96 50.777C1554.96 50.777 1561.27 56.8178 1561.27 64.201ZM1578.79 44.7363C1578.79 52.1194 1572.48 58.1602 1572.48 58.1602C1572.48 58.1602 1566.17 52.1194 1566.17 44.7363C1566.17 37.3531 1572.48 31.3123 1572.48 31.3123C1572.48 31.3123 1578.79 37.3531 1578.79 44.7363ZM1668.86 54.4686C1668.86 61.8518 1662.55 67.8926 1662.55 67.8926C1662.55 67.8926 1656.59 61.8518 1656.59 54.4686C1656.59 47.0855 1662.9 41.0447 1662.9 41.0447C1662.9 41.0447 1668.86 47.0855 1668.86 54.4686ZM1686.38 36.3463C1686.38 43.7295 1680.07 49.7702 1680.07 49.7702C1680.07 49.7702 1673.76 43.7295 1673.76 36.3463C1673.76 28.9631 1680.07 22.9224 1680.07 22.9224C1680.07 22.9224 1686.38 28.9631 1686.38 36.3463ZM1604.72 114.205C1604.72 121.588 1598.41 127.629 1598.41 127.629C1598.41 127.629 1592.11 121.588 1592.11 114.205C1592.11 106.822 1598.41 100.781 1598.41 100.781C1598.41 100.781 1604.72 106.822 1604.72 114.205ZM1585.1 97.0896C1585.1 104.473 1578.79 110.514 1578.79 110.514C1578.79 110.514 1572.48 104.473 1572.48 97.0896C1572.48 89.7065 1578.79 83.6657 1578.79 83.6657C1578.79 83.6657 1585.1 89.7065 1585.1 97.0896ZM1618.39 64.201C1618.39 71.5842 1612.08 77.6249 1612.08 77.6249C1612.08 77.6249 1605.77 71.5842 1605.77 64.201C1605.77 56.8178 1612.08 50.777 1612.08 50.777C1612.08 50.777 1618.39 56.8178 1618.39 64.201ZM1632.06 41.0447C1632.06 48.4279 1625.75 54.4686 1625.75 54.4686C1625.75 54.4686 1619.44 48.4279 1619.44 41.0447C1619.44 33.6615 1625.75 27.6207 1625.75 27.6207C1625.75 27.6207 1632.06 33.6615 1632.06 41.0447ZM1650.98 97.0896C1650.98 104.473 1644.67 110.514 1644.67 110.514C1644.67 110.514 1638.37 104.473 1638.37 97.0896C1638.37 89.7065 1644.67 83.6657 1644.67 83.6657C1644.67 83.6657 1650.98 89.7065 1650.98 97.0896ZM1698.64 127.629C1698.64 135.012 1692.34 141.053 1692.34 141.053C1692.34 141.053 1686.03 135.012 1686.03 127.629C1686.03 120.246 1692.34 114.205 1692.34 114.205C1692.34 114.205 1698.64 120.246 1698.64 127.629ZM1686.38 71.5842C1686.38 78.9673 1680.07 85.0081 1680.07 85.0081C1680.07 85.0081 1673.76 78.9673 1673.76 71.5842C1673.76 64.201 1680.07 58.1602 1680.07 58.1602C1680.07 58.1602 1686.38 64.201 1686.38 71.5842ZM1665.35 138.368C1665.35 145.751 1659.04 151.792 1659.04 151.792C1659.04 151.792 1652.73 145.751 1652.73 138.368C1652.73 130.985 1659.04 124.944 1659.04 124.944C1659.04 124.944 1665.35 130.985 1665.35 138.368ZM1681.82 153.47C1681.82 160.853 1675.51 166.894 1675.51 166.894C1675.51 166.894 1669.21 160.853 1669.21 153.47C1669.21 146.087 1675.51 140.046 1675.51 140.046C1675.51 140.046 1681.82 146.087 1681.82 153.47Z" fill="#75A843"/>
<defs>
<clipPath id="clip0_397_519">
<rect width="1920" height="163.75" fill="white" transform="translate(0 153.25)"/>
</clipPath>
</defs>
</svg>
