<svg width="1126" height="570" viewBox="0 0 1126 570" fill="none" xmlns="http://www.w3.org/2000/svg">
<g style="mix-blend-mode:multiply" clip-path="url(#clip0_335_542)">
<path d="M0 549.15C0 245.86 252.06 0 563 0C873.94 0 1126 245.86 1126 549.15H0Z" fill="url(#paint0_linear_335_542)"/>
<path d="M229.05 553.45L236.03 561.2L240.34 565.52L244.56 567.13L247.19 569.73C247.71 569.75 248.24 569.77 248.76 569.79C249.29 569.81 249.81 569.83 250.34 569.85C250.87 569.87 251.39 569.89 251.92 569.91C252.45 569.93 252.98 569.95 253.5 569.97L258.28 569.93L266.47 567.93L259.5 563.96L255.26 558.01L253.68 555.05C253.36 555.04 253.04 555.03 252.72 555.01C252.4 555 252.08 554.99 251.76 554.98C251.44 554.97 251.12 554.96 250.81 554.94C250.49 554.93 250.17 554.92 249.86 554.9L247.77 556.69L247.48 558.54L247.2 560.18L241.56 562.03L236.75 559.36L231.42 553.96L229.04 553.45H229.05Z" fill="white"/>
<path d="M281.34 309.94L274.21 313.1L267.65 315.05L265.83 318.54L259.29 322.43L255.94 318.6L253.61 318.34C253.61 318.34 253.61 318.37 253.6 318.39C253.59 318.41 253.6 318.42 253.59 318.44C253.59 318.46 253.59 318.47 253.58 318.49C253.58 318.51 253.58 318.52 253.57 318.54C253.52 318.69 253.47 318.85 253.43 319C253.38 319.15 253.33 319.31 253.29 319.46C253.25 319.61 253.19 319.77 253.15 319.92C253.1 320.07 253.05 320.23 253.01 320.38C253.01 320.4 253 320.42 252.99 320.44C252.98 320.46 252.98 320.48 252.97 320.51C252.96 320.54 252.96 320.55 252.95 320.57C252.95 320.59 252.94 320.61 252.93 320.63L255.64 324.64L257.09 329.7L255.27 336.5L250.2 339.95L247.68 344.06L244.12 344.67L240.2 350.11L238.95 353.65L241.4 355.3L239.4 358.28L236.93 360.5C236.81 360.95 236.69 361.4 236.58 361.85C236.46 362.3 236.35 362.75 236.23 363.2C236.11 363.65 236 364.1 235.88 364.55C235.76 365 235.65 365.45 235.53 365.91L239.61 373.05L241.21 376.28L241.08 381.35L245.73 389.43L245.28 393.21L263.39 407.05C263.18 408.24 262.96 409.44 262.75 410.64C262.54 411.84 262.33 413.04 262.13 414.23C261.93 415.42 261.72 416.63 261.52 417.83C261.32 419.03 261.12 420.24 260.92 421.44L259.37 424L257.11 436.21L255.31 437.73L254.16 443.19L251.38 450.39C251.22 451.58 251.06 452.76 250.9 453.95C250.74 455.14 250.58 456.33 250.43 457.52C250.27 458.71 250.12 459.9 249.97 461.1C249.82 462.3 249.67 463.49 249.52 464.69L246.73 465.7L243.6 470.77L242.3 477.62L240.6 478.06L239.94 488.67L238.76 490.95C238.71 491.44 238.66 491.92 238.62 492.41C238.57 492.9 238.52 493.38 238.48 493.87C238.43 494.36 238.39 494.84 238.34 495.33C238.29 495.82 238.25 496.3 238.2 496.79L236.92 500.63L235.97 503.74L237.02 504.75L238.13 504.73L238.7 501.86L238.94 499.6L240.2 498.99L240.85 500.29L239.99 503.15L240.08 504.71L239.37 506.62L238.9 508.99C239.13 509.34 239.44 509.8 239.68 510.15C239.47 510.46 239.18 510.88 238.97 511.19C238.103 510.763 237.303 510.187 236.57 509.46L235.15 509.36L234.21 510.9L234.71 514.27L233.89 516.07L232.54 517.66C232.53 517.83 232.51 518.01 232.5 518.18C232.49 518.35 232.47 518.53 232.46 518.7C232.45 518.87 232.44 519.05 232.42 519.22C232.41 519.39 232.4 519.57 232.38 519.74L230.46 520.84L229.67 523.16L233.75 522.19L233.03 524.21L231.66 527.48L229.87 527.86L228.48 531.71L229.29 536.67L230.36 538.91L228.45 542.02L231.03 542.99L230.11 544.76L229.18 547.29L231.08 547.67L230.31 550.23L234.42 554.73L238.91 559.31L242.51 560.91L243.99 556.8L247.4 553.92L252.06 552.28L253.82 549.78L251.99 545.96L252.41 542.03L255.45 540.07L258.18 535.44L260.75 532.84L265.22 529.09C265.24 528.82 265.25 528.54 265.27 528.27C265.29 528 265.3 527.72 265.32 527.45C265.34 527.18 265.35 526.9 265.37 526.63C265.39 526.36 265.4 526.08 265.42 525.81L261.03 522.4L260.79 516.87L265.92 513.77L269.2 510.41L270.81 505.39L275.26 503.7L275.05 500.44L271.26 499.52L271.19 494.87L274.67 494.17L277.49 495.86L282.03 493.56L282.71 488.33L286.08 486.62L294 485.81L303.5 481.01L305.28 476.04L302.79 471.98C302.82 471.7 302.84 471.42 302.87 471.13C302.9 470.85 302.92 470.57 302.95 470.28C302.98 470 303 469.72 303.03 469.43C303.06 469.15 303.08 468.87 303.11 468.58L309.71 469.73L317.91 468.3L324.9 460.67L332.9 453.29L337.85 446.65L342.13 444.55C342.21 443.75 342.29 442.95 342.37 442.15C342.45 441.35 342.53 440.55 342.61 439.75C342.69 438.95 342.77 438.15 342.85 437.35C342.93 436.55 343.01 435.75 343.1 434.96L349.65 430.57L357.18 427.35L365.19 425.31L372.28 423.45L378.2 416.54L382.46 407.13L384.11 398.16L385.51 391.7L392.91 386.65L398.1 382.35L402.88 377.48L404.04 370.95L400.21 365.53L393.9 363.82L387.77 359.34L380.74 358.74L372.11 358.47L366.57 354.73L359.67 353L354.28 351.84L350.14 348.86L349.26 343.94L346.37 339.55L342.86 334.18L335.96 332.18C335.37 332.18 334.79 332.16 334.21 332.15C333.63 332.15 333.04 332.13 332.46 332.12C331.88 332.12 331.29 332.1 330.71 332.09C330.13 332.09 329.55 332.07 328.97 332.06L322.32 327.83L319.81 324.21L314.88 322.34L313.58 318.41L310.08 316.93L304.99 314.7L300.9 317.17L297.27 316.48C296.74 316.47 296.21 316.46 295.68 316.44C295.15 316.43 294.62 316.42 294.09 316.4C293.56 316.39 293.03 316.38 292.5 316.36C291.97 316.35 291.44 316.34 290.92 316.32L291.27 313.68L287.54 312.89L286.12 310.39L282.77 314.54L279.58 313.4L281.55 311.33L281.38 309.92L281.34 309.94Z" fill="white"/>
<path d="M289.23 288.12C288.74 288.11 288.24 288.1 287.75 288.08C287.26 288.07 286.77 288.06 286.28 288.04C285.79 288.03 285.3 288.02 284.81 288C284.32 287.99 283.83 287.98 283.34 287.96L281.82 289.97L278.31 290.4L279.75 291.99C280.4 292.01 281.05 292.02 281.71 292.04C282.36 292.06 283.02 292.07 283.68 292.09C284.34 292.11 284.99 292.12 285.65 292.14C286.31 292.16 286.97 292.17 287.63 292.19C288.01 292.19 288.39 292.21 288.76 292.22C289.14 292.22 289.52 292.24 289.9 292.25C290.28 292.25 290.66 292.27 291.04 292.28C291.42 292.28 291.8 292.3 292.18 292.31L297.77 291.91L294.29 289.26L289.23 288.12V288.12Z" fill="white"/>
<path d="M260.91 276.23L255.3 277.32L252.27 279C252.21 279.16 252.14 279.32 252.08 279.48C252.02 279.64 251.95 279.8 251.89 279.96C251.83 280.12 251.76 280.28 251.7 280.44C251.64 280.6 251.57 280.76 251.51 280.92L255.72 280.04C256.06 280.05 256.4 280.06 256.74 280.07C257.08 280.08 257.42 280.09 257.77 280.1C258.11 280.11 258.46 280.12 258.8 280.13C259.14 280.14 259.49 280.15 259.83 280.16L263.75 280.44L267.52 283.11L270.79 284.9L269.43 286.91L271.54 286.63C272 286.64 272.45 286.65 272.91 286.67C273.37 286.68 273.82 286.69 274.28 286.71C274.74 286.72 275.2 286.73 275.65 286.75C276.11 286.76 276.57 286.77 277.03 286.79L280.3 285.94L276.57 283.88L272.22 281.98L268.38 279.58L266.17 277.58L262.73 276.79L260.91 276.24V276.23Z" fill="white"/>
<path d="M512.72 19.08C512.54 19.08 512.36 19.08 512.19 19.08C512.01 19.08 511.83 19.08 511.66 19.08C511.48 19.08 511.31 19.08 511.13 19.08C510.95 19.08 510.78 19.08 510.6 19.08L508.12 19.67C508.03 19.73 507.95 19.8 507.86 19.86C507.77 19.92 507.69 19.99 507.6 20.05C507.51 20.11 507.43 20.18 507.34 20.24C507.26 20.3 507.17 20.37 507.08 20.43L506.91 20L505.73 20.77L505.84 20.08L504.21 20.34L502.12 20.86L500.11 21.39C500.06 21.43 500 21.46 499.95 21.5C499.9 21.54 499.84 21.57 499.79 21.61C499.74 21.65 499.68 21.68 499.63 21.72C499.58 21.76 499.52 21.79 499.47 21.83C499.89 21.83 500.31 21.83 500.73 21.83C501.15 21.83 501.57 21.83 501.99 21.83C502.41 21.83 502.84 21.83 503.26 21.83C503.68 21.83 504.11 21.83 504.54 21.83C504.39 21.95 504.23 22.07 504.08 22.19C503.93 22.31 503.77 22.43 503.62 22.55C503.47 22.67 503.31 22.79 503.16 22.92C503.01 23.04 502.85 23.17 502.7 23.29L502.63 22.37C502.46 22.37 502.28 22.37 502.11 22.37C501.94 22.37 501.76 22.37 501.59 22.37C501.42 22.37 501.24 22.37 501.07 22.37C500.9 22.37 500.72 22.37 500.55 22.37L498.94 22.74L497.31 23.29L496.96 24.99L495.53 23.56L494.54 23.47L493.03 24.99L491.44 24.13L485.76 25.27L483.68 27.36L484.37 25.66L482.27 26.25C481.89 26.49 481.52 26.73 481.14 26.98C480.76 27.23 480.39 27.47 480.02 27.72C479.65 27.97 479.27 28.22 478.9 28.47C478.53 28.72 478.15 28.97 477.78 29.23L477.24 28.8L472.25 30.7L469.46 31.78L469.43 33.13L465.95 35.3L461.66 36.82L457.47 37.88L454.37 38.71L452.45 41.08L454.46 41.35L456.83 41.5L454.67 42.13L450.44 42.87L449.48 44.31L451.77 44.46L448.51 45.37L450.87 46.73L455.96 45.82L458.58 48.83L454.68 55.84L450.56 59.74L454.55 59.15L453.16 62.7L449.83 61.59L449.59 63.47L446.85 63.78L445.79 66.17L447.86 65.86L449.76 64.9C449.81 64.83 449.87 64.77 449.92 64.7C449.97 64.63 450.03 64.57 450.08 64.5C450.13 64.43 450.19 64.37 450.24 64.3C450.29 64.23 450.35 64.17 450.4 64.1L450.38 65.86C450.22 66.06 450.07 66.26 449.91 66.46C449.75 66.66 449.6 66.86 449.44 67.07C449.28 67.27 449.13 67.47 448.97 67.68C448.81 67.88 448.66 68.09 448.5 68.29L446.93 67.47L443.12 71.08L442.9 72.59L440.4 74.27L439.97 77.89L441.36 78.07L440.15 80.53L440.9 84.1L442.09 86.11L444.67 88.69L450.47 84.12C450.59 83.91 450.72 83.7 450.84 83.49C450.96 83.28 451.09 83.07 451.21 82.86C451.33 82.65 451.46 82.44 451.58 82.23C451.7 82.02 451.83 81.81 451.95 81.61L455.58 79.31L457.51 76.87L460.42 74.98L465.95 73.78L471.59 70.92L474 69.26L479.73 68.26L489.48 64.36L486.73 63.11L482.82 63.76L486.42 62.33L485.81 61.24L487.71 59.85L488.86 60.76L489.67 62.15L491.53 62.45C491.62 62.27 491.7 62.09 491.79 61.9C491.88 61.71 491.96 61.54 492.05 61.36C492.14 61.18 492.22 61 492.31 60.82C492.4 60.64 492.48 60.46 492.57 60.28L492.06 58.76L491.2 56.37L492.82 57.55L494.1 55.91L492.72 54.3C492.87 54.3 493.01 54.3 493.16 54.3C493.31 54.3 493.45 54.3 493.6 54.3C493.75 54.3 493.89 54.3 494.04 54.3C494.19 54.3 494.33 54.3 494.48 54.3L497.35 53.85L496.41 52.7L499.23 52.26L500.65 50.7L499.3 48.07L500.45 48.61L501.77 49.29L502.06 47.1L500.99 45.36L502.59 43.57L503.76 44.28C503.89 44.28 504.02 44.28 504.15 44.28H504.54C504.67 44.28 504.8 44.28 504.93 44.28C505.06 44.28 505.19 44.28 505.32 44.28C505.4 44.13 505.48 43.97 505.56 43.82C505.64 43.67 505.72 43.52 505.8 43.36C505.88 43.2 505.96 43.06 506.04 42.91C506.12 42.76 506.2 42.61 506.28 42.46L504.37 41.96L505.29 40.94L506.9 41.06L504.18 39.95L505.63 38.46L507.52 37.12L508.73 36.28L509.32 34.76L509.88 34.41C510.01 34.41 510.13 34.41 510.26 34.41C510.39 34.41 510.51 34.41 510.64 34.41C510.77 34.41 510.9 34.41 511.02 34.41C511.15 34.41 511.28 34.41 511.4 34.41L512.73 33.04C512.52 33.04 512.31 33.04 512.11 33.04C511.91 33.04 511.69 33.04 511.49 33.04C511.29 33.04 511.07 33.04 510.87 33.04C510.67 33.04 510.45 33.04 510.25 33.04L511.08 32.03L512.83 32.35L514.61 31.57L513.15 31.09L513.96 30.81H514.2C514.28 30.81 514.36 30.81 514.44 30.81C514.52 30.81 514.6 30.81 514.68 30.81C514.76 30.81 514.84 30.81 514.92 30.81L517.37 29.88L517.66 28.88H517.81C517.86 28.88 517.91 28.88 517.96 28.88H518.11C518.16 28.88 518.21 28.88 518.26 28.88L521.16 27.52L519.14 26.04L517.08 26.75L514.84 27.88L514.17 27.38L508.43 30.22L513.41 27.23L514.35 25.3C514.23 25.3 514.12 25.3 514 25.3C513.88 25.3 513.77 25.3 513.65 25.3C513.53 25.3 513.42 25.3 513.3 25.3C513.18 25.3 513.07 25.3 512.95 25.3L511.91 26.38L508.06 27.71L507.86 27.1L511.2 26.18C511.26 26.11 511.33 26.03 511.39 25.96C511.45 25.89 511.52 25.81 511.58 25.74C511.64 25.67 511.71 25.59 511.77 25.52C511.83 25.45 511.9 25.37 511.96 25.3L508.17 25.61L504.56 26.71L504.96 26.01L508.22 24.93L511.7 24.53L514.92 23.76L516.8 22.1L515 21.66C515.06 21.59 515.13 21.53 515.19 21.46C515.25 21.39 515.32 21.33 515.38 21.26C515.44 21.19 515.51 21.13 515.57 21.06C515.63 20.99 515.7 20.93 515.76 20.86L513.95 21.04L511.64 21.14L509.71 21.77L507.71 21.69L510.25 21.28L512.22 20.7C512.34 20.7 512.46 20.7 512.58 20.7C512.7 20.7 512.82 20.7 512.94 20.7C513.06 20.7 513.18 20.7 513.3 20.7C513.42 20.7 513.54 20.7 513.66 20.7L515.79 20.26L514.99 19.38L512.7 19.02L512.72 19.08Z" fill="white"/>
<path d="M391.58 76.89C391.14 77.3 390.7 77.72 390.26 78.14C389.82 78.56 389.38 78.98 388.95 79.4C388.51 79.82 388.08 80.24 387.64 80.67C387.2 81.09 386.77 81.52 386.33 81.95L388.71 77.24L381.15 79.27L374.28 83.96L370.44 89.46L370.98 86.15C371.48 85.68 371.97 85.21 372.47 84.74C372.97 84.27 373.46 83.81 373.96 83.34C374.46 82.88 374.96 82.41 375.46 81.95C375.96 81.49 376.46 81.03 376.96 80.57L383.55 77.14L380.15 76.69L372.4 80.28L362.46 88.03L364.01 91.64L360.31 92.41L358.23 96.34L363.46 97.86C363.89 97.86 364.32 97.88 364.75 97.89C365.18 97.89 365.62 97.91 366.05 97.91C366.48 97.91 366.92 97.93 367.36 97.93C367.8 97.93 368.23 97.95 368.67 97.95C369 97.95 369.33 97.96 369.66 97.97C369.99 97.98 370.32 97.98 370.65 97.99C370.98 97.99 371.31 98 371.64 98.01C371.97 98.01 372.3 98.02 372.64 98.03L375.3 94.62L377.07 94.86L376.19 100.49L375.99 106.73L374.54 111.41L366.82 116.98L365.88 121L356.24 122.14L352.87 125.18L357.31 126.45L361.88 125.87L361.7 130.67C361.88 130.67 362.06 130.67 362.25 130.67C362.43 130.67 362.61 130.67 362.8 130.67C362.98 130.67 363.16 130.67 363.35 130.67C363.53 130.67 363.72 130.67 363.9 130.67C363.74 130.91 363.57 131.16 363.41 131.41C363.25 131.66 363.08 131.9 362.92 132.15C362.76 132.4 362.59 132.64 362.43 132.89C362.27 133.14 362.1 133.38 361.94 133.63L363.98 134.42L368.79 137.49C369.09 137.49 369.39 137.49 369.7 137.5C370 137.5 370.3 137.5 370.61 137.51C370.91 137.51 371.22 137.51 371.52 137.52C371.82 137.52 372.13 137.52 372.43 137.53L370.32 129.88L375.18 135.3L380.63 130L380.34 125.24L378.71 119.71L381.11 119.27L383.58 115.29L386.95 123.35L388.24 120.05C388.5 120.05 388.77 120.05 389.03 120.05C389.29 120.05 389.56 120.05 389.82 120.05C390.08 120.05 390.35 120.05 390.61 120.05C390.88 120.05 391.14 120.05 391.41 120.05L396.23 115.38C395.01 112.56 393.48 109.04 391.1 108.46C390.75 108.37 390.16 108.23 389.57 105.25C389.72 105.05 389.87 104.84 390.03 104.64C390.18 104.44 390.33 104.23 390.49 104.03C390.64 103.83 390.79 103.63 390.95 103.42C391.1 103.22 391.25 103.02 391.41 102.81L394.16 102.18L393.53 99.75L396.22 98.68L395.36 96.73L390.7 98.62L395.96 95.66L393.84 93.71L390.7 95.28L395.12 92.46C395.01 92.46 394.89 92.46 394.78 92.46C394.67 92.46 394.55 92.46 394.44 92.46H394.1C393.99 92.46 393.87 92.46 393.76 92.46L389.24 93.25L394.64 90.37L392.93 89.52L390.15 90.32L390.23 87C390.48 86.73 390.73 86.46 390.98 86.19C391.23 85.92 391.48 85.65 391.73 85.38C391.98 85.11 392.23 84.84 392.48 84.58C392.73 84.32 392.98 84.05 393.24 83.78L387.1 83.28L392.91 82.16L395.36 77.84L391.63 76.81L391.58 76.89Z" fill="white"/>
<path d="M371.2 106.43L367.79 107.97L364.41 112.73L368.57 112.1L372.94 107.82L371.2 106.43Z" fill="white"/>
<path d="M343.62 118.21L339.44 120.51C339.13 120.88 338.81 121.26 338.5 121.63C338.19 122.01 337.88 122.38 337.56 122.76C337.25 123.14 336.94 123.51 336.63 123.89C336.32 124.27 336.01 124.65 335.7 125.03L332 127.89L329.59 129.56L331.01 129.91L331.35 131.35L331.95 132.49L337.46 128.02C337.71 128.02 337.95 128.03 338.2 128.04C338.45 128.04 338.69 128.05 338.94 128.06C339.19 128.07 339.43 128.07 339.68 128.08C339.93 128.08 340.18 128.09 340.42 128.1L341.13 130.15L344.3 128.67L343.11 125.95L342.32 121.08L343.62 118.24V118.21Z" fill="white"/>
<path d="M393.79 57.15L388.23 59.7L389.06 61.63L388.79 63.04L383.17 67.82L379.88 71.11L385.6 71.79L390.45 72.26L396.26 71.98L400.5 68.87C401.32 68.44 402.69 68.19 403.24 67.45C403.26 67.43 404.36 64.91 403.68 64.6C403.25 64.4 398.91 65.28 398.42 65.38L392.84 66.73L389.72 65.94L391.01 63.44C391.14 63.34 391.28 63.24 391.41 63.14C391.54 63.04 391.68 62.94 391.81 62.84C391.94 62.74 392.08 62.64 392.21 62.54C392.34 62.44 392.48 62.34 392.61 62.24L394.24 62.2L394.94 59.65C394.66 59.65 394.39 59.64 394.11 59.63C393.83 59.63 393.56 59.62 393.28 59.61C393 59.61 392.73 59.6 392.46 59.59C392.19 59.59 391.91 59.58 391.64 59.57L393.66 57.72L393.79 57.14V57.15Z" fill="white"/>
<path d="M490.24 17.61L488.6 17.86L485.99 18.86L488.75 17.66L486.64 18.08L482.29 19.89L485.1 18.37L483.02 18.32L477.81 21.17L480.61 19.03L479.03 18.97L476.58 20.27L477.4 19.52L475.61 20L473.78 21.08L473.38 20.7L469.62 22.24L465.39 25.22L468.08 21.94L464.1 23.49L463.92 23.09L461.64 24.76L459.45 24.44L450.78 27.04L449.42 27.94L452.45 27.24L448.81 28.46L446.52 29.91L443.79 31.16L451.46 29.44L443.62 32.05L442.19 34.01L446.66 33.78L445.98 34.7L440.12 35.61L436.31 39.82L438.7 36.19L428.94 42.01L437.75 36.37L436.34 35.34C438.087 33.5467 441.247 31.2967 445.82 28.59C444.45 28.97 436.39 32.04 433.61 33.12L424.26 37.51L417.32 42.13L421.5 41.45L416.14 43.88L410.73 47.95L413.73 48.84L420.07 46.51L416.19 48.76L415.36 50.94L411.82 51.66L409.8 52.29L406.59 55.63L401.33 57.28L398.24 58.46L397.92 60.78L403.17 61.55L408.08 60.23L407.71 61.78C413.66 59.77 414.73 59.41 416.18 58.68C416.1 58.5733 415.757 58.2633 415.15 57.75C415.34 57.6 415.53 57.45 415.72 57.29C415.91 57.14 416.1 56.99 416.29 56.84C416.48 56.69 416.67 56.54 416.86 56.39C417.05 56.24 417.24 56.09 417.43 55.94C417.04 55.94 416.65 55.93 416.27 55.92C415.88 55.92 415.5 55.91 415.11 55.9C414.73 55.9 414.34 55.89 413.96 55.88C413.58 55.88 413.2 55.87 412.81 55.86L418.64 55.33L423.41 51.92L426.38 51.27L429.24 50.24L428.96 49.64L430.55 49.25L431.98 48.8L431.91 48.1L434.42 47.32L436.58 46.15L436.16 44.18L438.57 43.74L440.85 42.64C440.74 42.64 440.62 42.64 440.51 42.64C440.4 42.64 440.29 42.64 440.17 42.64C440.06 42.64 439.95 42.64 439.83 42.64C439.72 42.64 439.61 42.64 439.49 42.64L442.73 41.76L445.39 41.04L446.93 38.9L447.81 39.95L453.25 37.73L452.86 37.02L455.45 36.59L473.67 28.65L467.65 29.94C468.98 29.43 470.76 28.76 472.09 28.25C471.81 28.15 471.45 28.01 471.18 27.9C471.54 27.7733 473.4 27.4167 476.76 26.83L487.03 22.73L488.05 21.42L487.78 21.05L490.14 19.45L484.85 20.6L488.69 19.34L489.16 18.48L490.19 17.61H490.24Z" fill="white"/>
<path d="M404.98 53.02C404.35 53.41 403.42 53.82 402.87 54.34C402.87 54.34 401.94 55.62 401.87 55.94C401.87 55.94 401.88 55.95 401.88 55.96C402.34 55.84 402.75 55.59 403.19 55.43C403.54 55.3 403.89 55.17 404.24 55.05L405.83 53.35L404.98 53.02V53.02Z" fill="white"/>
<path d="M400.39 52.06L398.08 52.9C397.88 53.13 397.61 53.43 397.41 53.66C398.53 53.69 399.64 53.79 400.75 53.86L403.02 52.73L401.7 52.33L400.39 52.06V52.06Z" fill="white"/>
<path d="M409.17 44.87C408.86 45.05 408.55 45.23 408.24 45.41C407.93 45.59 407.62 45.77 407.31 45.95C407 46.13 406.69 46.31 406.38 46.49C406.07 46.67 405.76 46.85 405.45 47.04L402.95 49.11L402.45 49.82L400.67 50.44L399.96 51.12L402.13 51.09L404.45 50.02L406.11 48.76L407.95 47.86L408.9 46.25L409.17 44.88V44.87Z" fill="white"/>
<path d="M394.44 51.05C394.44 51.05 394.36 51.05 394.32 51.05C394.28 51.05 394.24 51.05 394.2 51.05C394.16 51.05 394.12 51.05 394.08 51.05C394.04 51.05 394 51.05 393.96 51.05L391.92 51.99L391.98 52.48C392.06 52.48 392.14 52.48 392.22 52.48C392.3 52.48 392.38 52.48 392.47 52.48C392.56 52.48 392.63 52.48 392.72 52.48C392.8 52.48 392.88 52.48 392.97 52.48L394.78 51.36L394.43 51.08L394.46 51.04L394.44 51.05Z" fill="white"/>
<path d="M408.62 41.62L406.47 42.01L402.92 43.74L403.25 44.4L401.48 45.1L402 45.49L400.43 46.41C398.883 46.6233 397.157 47.3833 395.25 48.69L396.98 48.78L395.45 49.63C395.55 49.63 395.65 49.63 395.75 49.63C395.85 49.63 395.95 49.63 396.05 49.63C396.15 49.63 396.25 49.63 396.35 49.63C396.45 49.63 396.55 49.63 396.65 49.63L398.49 48.77L399 49.05L397.1 50.22L395.6 51.63L397.77 51.24L400.4 49.45L401.61 48.07L404.03 46.98L405.99 45.37L406.59 44.27L407.66 43.33L405.58 44.24L409.07 42.05L408.63 41.56L408.62 41.62Z" fill="white"/>
<path d="M394.67 45.6C393.957 45.6266 392.72 46.11 390.96 47.05L390.28 46.87L386.3 48.37L390.38 48.23L393.71 46.51L394.68 45.6H394.67Z" fill="white"/>
<path d="M388.02 49.2L381.04 51.38L378.3 52.79L378.73 53.95L382.24 52.59L385.39 50.54L388.05 49.65L388.02 49.2Z" fill="white"/>
<path d="M375.17 52.47C373.97 53 372.43 53.93 371.14 54.18C368.48 54.7133 363.673 56.4933 356.72 59.52L353.04 60.95L351.11 62.61L352.2 63.08L360.54 59.35L359.39 60.53L365.19 58.48C365.57 58.25 365.95 58.03 366.33 57.81C366.71 57.59 367.09 57.36 367.47 57.14C367.85 56.92 368.23 56.69 368.61 56.47C368.99 56.25 369.37 56.03 369.76 55.81L373.26 54.39L375.15 52.47H375.17Z" fill="white"/>
<path d="M357.95 61.48C355.1 62.67 352.55 63.74 351.87 64.03L350.47 65.05L351.98 64.98L358.39 61.64L357.95 61.48V61.48Z" fill="white"/>
<path d="M374.54 57.87L370.07 59.87L368.07 61.78L366.63 61.94L364.56 64.22L361.92 65.62L361.23 64.49L363.73 61.29L364.58 59.44L359.34 61.71L350.87 66.33L349.3 67.44L349.14 68.43L351.3 68.23L354.08 66.88L352.58 68.24L355.01 67.45L356.03 67.84L353.83 68.47L348.32 70.02L348.48 71.87L357.64 68.85L360.59 69.12L369.13 64.5L371.36 62.26L369.02 63.1L368.15 62.94L368.41 62.23L371.68 60.65L374.54 57.87Z" fill="white"/>
<path d="M388.27 51.7L382.86 55.9L383.4 56.27C383.56 56.17 383.73 56.07 383.89 55.96C384.05 55.86 384.22 55.76 384.38 55.65C384.54 55.55 384.71 55.45 384.87 55.35C385.03 55.25 385.2 55.15 385.36 55.05L387.32 53.19L388.28 51.71L388.27 51.7Z" fill="white"/>
<path d="M385.56 58.52C385.41 58.53 385.1 58.56 383 58.84L381.19 60.64L378.39 63.1L380.79 60.36L379.06 60.84C378.77 61.03 378.49 61.22 378.2 61.42C377.91 61.62 377.63 61.81 377.34 62C377.05 62.19 376.77 62.39 376.48 62.58C376.19 62.77 375.91 62.97 375.62 63.16L378.02 60.59L378.52 59.07C378.22 59.26 377.93 59.45 377.63 59.65C377.33 59.84 377.04 60.04 376.74 60.23C376.44 60.42 376.15 60.62 375.85 60.81C375.55 61 375.26 61.2 374.96 61.39L372.81 63.59L370.31 66.02C370.66 66.03 371.01 66.04 371.36 66.05C371.71 66.06 372.06 66.07 372.42 66.08C372.77 66.08 373.13 66.1 373.48 66.11C373.83 66.12 374.19 66.13 374.55 66.14L371.49 67.09L370.28 69.15C371.23 69.01 372.63 69.17 373.46 68.67C378.09 65.88 382.21 62.37 386.63 59.29C386.54 59.05 385.53 58.5 385.52 58.5L385.56 58.52Z" fill="white"/>
<path d="M383.12 64.86L380.91 65.95L377.05 67.96L374.4 69.9L374.88 71.36L377.27 71.24C377.67 70.92 378.07 70.61 378.47 70.29C378.87 69.97 379.27 69.66 379.67 69.35C380.07 69.04 380.47 68.73 380.87 68.42C381.27 68.11 381.67 67.8 382.08 67.49L382.99 66.03L383.11 64.86H383.12Z" fill="white"/>
<path d="M374.05 73.5L369.03 75.39L364.84 78.21C364.4 78.57 363.96 78.93 363.53 79.3C363.09 79.66 362.66 80.03 362.22 80.39C361.78 80.76 361.35 81.12 360.91 81.49C360.47 81.86 360.04 82.23 359.61 82.6L356.56 85.6L348.44 90.84C348.02 91.22 347.6 91.6 347.18 91.98C346.76 92.36 346.34 92.74 345.92 93.12C345.5 93.5 345.08 93.89 344.66 94.27C344.24 94.65 343.82 95.04 343.41 95.43L341.63 99.12L342.77 100.59L338.9 104.19L331.31 109.46L332.69 106.28L327.68 107.06L324.98 109.28L315.52 106.67L318.18 103.78L311.74 107.45C311.28 107.88 310.82 108.31 310.35 108.73C309.89 109.16 309.43 109.59 308.97 110.02C308.51 110.45 308.05 110.88 307.59 111.32C307.13 111.76 306.67 112.19 306.21 112.63L307.6 107.76C306.85 107.73 306.1 107.7 305.36 107.67C304.62 107.64 303.88 107.61 303.15 107.58C302.42 107.55 301.69 107.52 300.97 107.49C300.25 107.46 299.53 107.43 298.82 107.4L303.89 104.6L304.76 101.2L300.52 97.15L295.02 100.05L296.46 95.13L288.95 98.33L290.61 95.69L282.11 98.35C281.56 98.76 281.02 99.17 280.48 99.58C279.94 99.99 279.39 100.4 278.85 100.81C278.31 101.22 277.77 101.64 277.22 102.05C276.67 102.46 276.14 102.88 275.6 103.3L277.32 94.96L271.92 91.86L276.39 86.91L265.62 91.07L252.95 98.57L250.94 98.76L247.12 101.56L239.66 109.17L235.16 112.24L235.69 110.69L229.73 113.08L224.06 118.4C224.29 118.44 224.52 118.49 224.76 118.53C225 118.57 225.25 118.62 225.5 118.66C225.75 118.7 226.01 118.75 226.27 118.79C226.53 118.83 226.8 118.88 227.07 118.92C226.63 119.27 226.19 119.61 225.75 119.96C225.31 120.31 224.87 120.65 224.43 121C223.99 121.35 223.55 121.7 223.12 122.05C222.68 122.4 222.25 122.75 221.81 123.1L214.64 126.72L200.91 138.77L197.54 143.39C197.88 143.45 198.24 143.51 198.6 143.56C198.96 143.62 199.33 143.68 199.71 143.73C200.09 143.79 200.47 143.84 200.87 143.9C201.26 143.96 201.66 144.01 202.07 144.07L189.28 152.78L179.83 158.8L166.54 166.2L160.7 168.6L164.5 167.69L171.53 164.1L183.44 158.19L193.84 151.97L205.5 143.95L212.32 138L219.48 134.39L210.26 141.13L208.12 143.69L217.43 139.69L221.05 135.39L221.54 138.72L222.84 144.18L216.44 156.3L214.78 163.82L213.41 168.59L210.17 178.53L208.86 180.53L207.15 179.86L206.79 183.27L206.32 187.47L208.37 188.95L210.72 182.98L210.55 188.08L207.17 193.03L207.37 190.68L205.32 190.32L191.27 209.05L182.96 224.41L181.46 235.52L184.78 238.9L183.05 253.93L182.82 257.28L180.12 259.61L183.28 263.95L182.13 269.44L186.2 273.99L186.84 272.25L185.71 259.58L185.58 253.58L186.68 246.97L189.61 246.77L189.89 253.59L188.84 257.63L191.28 262.65L191.73 269.22L193.72 278.7L191.6 283.5L192.18 287.28L209.82 298.26L215.83 296.7L221.03 302.27L231.41 306.62L235.52 312.71C235.43 312.96 235.35 313.21 235.26 313.46C235.17 313.71 235.09 313.96 235 314.21C234.91 314.46 234.83 314.71 234.74 314.96C234.65 315.21 234.57 315.46 234.48 315.71L239.78 318.83L241.85 322.37L248.18 325.26L251.06 321.87L252.95 320.33C253 320.18 253.05 320.02 253.09 319.87C253.14 319.72 253.19 319.56 253.23 319.41C253.27 319.26 253.33 319.1 253.37 318.95C253.42 318.8 253.47 318.64 253.51 318.49L248.79 320.2L241.27 313.96L245.29 304.48L247.57 300.24L240.83 297.66L237.89 299.12L230.79 298.72L237.67 289.64L243.38 283.04L240.75 280.91L234.83 281.32L229.88 286.27L222.01 290.08L215.02 286.56L216.16 274.55L222.39 262.9L229.95 257.25L241.46 254.98L242.89 256.88L249.01 254.26L256.99 254.16L260.56 256.37L263.2 255.83L266.02 258.5L263.53 262.27L264.35 269.53L267.5 270.25L270.3 266.19L270.55 253.59L282.18 244.17L293.28 239.04L295.56 231.48L297.32 228.11L297.96 230.36L300.67 227.71L302.2 223.18L302.92 224.95L306.05 222.22L310.51 219.88L318.18 218.07L320.35 217.19L319.01 214.76L322.32 210.49L335.77 205.52L341.28 204.26L341.61 205.27L335.73 207.66L335.19 210.71L343.05 208.56L349.72 206.17L355.87 203.44L356.72 198.22L350.71 202.82L346.76 201.86L344.67 198.5L344.87 195.51L347.11 193.02L347.14 190.5L340.71 191.39L335.68 192.95L326.13 198.86L335.62 191.31L341.14 188.67L351.41 186.33L363.23 186.7L370.56 182.7L376.66 180.94L377.94 173.88L376.95 171.16L369.02 173.47L376.78 169.91L373.78 168.33L369.29 162.02L371.55 153.41L370.49 148.37V144.86L362.92 151.82L357.8 154.43L356.28 150.04L360.69 142.21L356.08 141.19L356.27 135.38L351.72 136.25L346.84 134.75L343 138.94L339.32 146.42L332.29 151.6L334.39 155.73L329.24 163.34L321.7 167.3L315.01 180.09L310.11 182.12L308.37 175.69L313.92 167.44L307.32 164.69L303.96 160.5L296.64 158.36L299.83 150.8L297.46 150.03L311.81 137.94L315.81 136.9L321.2 130.62L326.07 127.39L330.18 126.38L334.99 123.11L334.25 120.37L335.92 121.67L342.64 117.43L342.47 115.47L344.96 115.97L344.52 117.65L348.91 116.5L355.42 112.67L357.51 111.14L359.53 105.35L363.6 103.58L362.42 99.4L359.89 99.27L354.72 103.91L350.6 108.24L349.52 108.39L350.53 106.45L348.44 108.54L346.57 110.82L344.29 111.73L345.19 108.29L348.57 105.46L350.56 101.71L347.3 103.39L344.05 106.71L346.65 102.46L350.01 99.87L347.62 99.06L350.69 96.58L355.77 89.39L356.17 87.28L362.8 82.66L365.16 82.48L366.81 81.61C367.717 80.8966 370.867 78.8033 376.26 75.33L374.02 73.4L374.05 73.5Z" fill="white"/>
<path d="M366.61 74.43C366.51 74.43 366.41 74.43 366.31 74.43C366.21 74.43 366.11 74.43 366.01 74.43C365.91 74.43 365.81 74.43 365.71 74.43C365.61 74.43 365.51 74.43 365.41 74.43L361.79 76.43L360.53 75.76C359.18 76.46 357.18 77.11 356.02 78.11C356.01 78.11 355.01 79.99 355.02 80.48C354.88 80.62 354.74 80.76 352.99 81.54L352.4 79.7L349.32 81.42L347.88 85.47L345.99 89.47L347.28 89.77L353.3 86.37L357.84 82.89L358.41 81.08L357.27 80.65L359.58 79.51L365.23 76.48L366.6 74.47L366.61 74.43Z" fill="white"/>
<path d="M352.84 76.03L350.69 76.16C349.97 76.62 348.91 77.11 348.3 77.71C347.96 78.04 347.81 78.48 347.57 78.87C347.46 79.04 347.36 79.21 347.25 79.38C347.17 79.5 347.09 79.63 347.01 79.74C346.9 79.89 347.29 80.74 347.31 80.77L350.03 79.3C350.28 79.1 350.54 78.91 350.79 78.71C351.04 78.51 351.3 78.32 351.55 78.12C351.8 77.93 352.06 77.73 352.31 77.54C352.56 77.35 352.82 77.15 353.07 76.96L352.84 76.03V76.03Z" fill="white"/>
<path d="M337.3 77.83L328.67 80.69L323.18 83.96L318.42 87L317.75 88.7L321.36 88.25L321.31 88.65L316.69 89.91L312.21 92.2L315.39 92.75L320 94.17L318.67 95.15L314.43 94.77L307.68 96.77L306.74 98.96L308.42 100.23L306.3 104.37L314.7 102.86L320.42 100.9C320.36 101.79 320.28 102.97 320.22 103.85C322.55 103.5 324.89 103.2 327.23 102.83C327.35 102.59 327.46 102.38 327.12 101.33L328.6 99.33L331.68 99.17L334.88 96.54L334.23 95.37L334.3 92.88L339.56 87.14L346.19 81.34L346.38 80.73L346.9 79.08L344.91 78.79L335.39 86.96L334.72 86.77L340.73 80.53L337.09 81.36L334.93 80.44L337.29 77.82L337.3 77.83Z" fill="white"/>
<path d="M339.39 70.17C338.34 70.43 337.46 71.1 336.41 71.35C335.57 71.55 334.7 71.07 333.88 71.48C333.7 71.57 331.34 73.24 328.05 75.79L324.24 77.81L320.13 80.4L313.53 84.09L311.79 86.57L308.88 90.08L313.21 88.5C313.3 88.5 313.38 88.5 313.47 88.51C313.56 88.51 313.64 88.51 313.73 88.52C313.82 88.52 313.9 88.52 313.99 88.53C314.08 88.53 314.16 88.53 314.25 88.54L320.14 84.81L325 82.35L326.96 81.27L333.72 78.71L338.2 76.85L341.17 72.21C340.34 72.55 339.23 73.01 338.39 73.35C338.92 71.37 339.35 70.37 339.43 70.19C339.43 70.19 339.43 70.17 339.42 70.17H339.39Z" fill="white"/>
<path d="M372.91 182.56L362.19 193.71L366.57 195.51L373.09 196.68L373.3 199.56L378.22 197.61L377.94 191.46L377.42 188.2L374.36 189.47L372.63 186.86L372.91 182.56Z" fill="white"/>
<path d="M760.45 382.2L753.78 386.19L741.26 396.14L739.5 403.41L739.78 411.5L738.21 417.09L744.03 427.4C745.1 427.36 746.17 427.31 747.24 427.27C748.31 427.23 749.38 427.18 750.45 427.14C751.52 427.09 752.59 427.05 753.65 427C754.71 426.95 755.78 426.91 756.85 426.86L760.03 414.59L764.44 399.48L761.53 393L764.63 387.43L760.44 382.2H760.45Z" fill="white"/>
<path d="M582.4 231.39L576.91 233.85L554.61 235.41L539.5 239.67L530.32 240.02L528.17 237.43L525.91 239.84L517.79 246.17L512.56 256.2L499.14 264.96L493.25 270.23L491.99 274.25L484.06 283.41L486.43 287.48L485.29 299.35L481.07 306.43L483.28 309.3L484.41 313.25L496.45 322.46L497.68 326.45L508.08 333.09L517.31 335.44L530.57 333.4L540.99 334.88L556.36 329.54L567.88 330.17L570.53 333.9L587.91 334.67L589.51 344.71L586.92 351.36L591.68 357.89L602.25 367.99L605.87 378.44L602.21 387.45L601.15 392.75L603.48 393.56L600.37 403.95L604.73 410.78L612.57 420.35L615.02 430.38L620.32 442.06L627.79 449.74L632.14 455L631.51 459.49C631.54 460.09 631.57 460.69 631.6 461.28C631.63 461.88 631.66 462.48 631.69 463.08C631.72 463.68 631.75 464.28 631.78 464.88C631.81 465.48 631.84 466.08 631.87 466.68L653.4 467.31L675.99 458.85L690.48 445.58L696.12 440.65C696.04 439.79 695.96 438.93 695.88 438.07C695.8 437.21 695.72 436.35 695.64 435.49C695.56 434.63 695.48 433.78 695.4 432.92C695.32 432.06 695.24 431.21 695.15 430.35L707.6 423.47L702.53 409.95L727.24 394.06L722.49 379.42L712.99 362.9L732.19 340.07L747.53 323.98L752.72 313.59L750.23 307.59L728.67 312.43L718.76 306.45L704.44 298.82C699.05 290.91 692.09 284.12 687.79 275.43L678.6 267.91L676.08 261.99L668.04 254.58L674.77 258.81L677.2 255.99L675.6 252.96L674.84 249.8L674.81 249.72L659.49 248.95L656.37 251.24L641.48 249.45L627.95 245.43L621.81 247.75L619.68 253.9L603.39 247.92L585.6 243.68L586.78 238.14L582.45 231.34L582.4 231.39Z" fill="white"/>
<path d="M1098.02 452.05L1098.65 462.56L1098.45 468.99L1097.9 473.93L1098.52 480.88C1098.59 480.85 1098.67 480.82 1098.74 480.79C1098.81 480.76 1098.89 480.73 1098.96 480.7C1099.03 480.67 1099.1 480.64 1099.18 480.61C1099.25 480.58 1099.32 480.55 1099.39 480.52L1100.76 483.07L1100.55 471.8L1100.4 467.74L1101.09 466.11C1101.05 465.89 1101.01 465.67 1100.97 465.45C1100.93 465.23 1100.89 465.01 1100.85 464.8C1100.81 464.58 1100.77 464.36 1100.73 464.15C1100.69 463.94 1100.65 463.71 1100.61 463.5L1100.51 458.41L1098.82 454.84L1098.04 452.05H1098.02Z" fill="white"/>
<path d="M1092.35 427.86L1093.44 431.15L1095.19 434.74L1096.44 439.22L1097.52 442.66L1097.61 445.04L1097.85 447.97L1098.66 448.15C1099.51 452.41 1100.12 454.933 1100.49 455.72C1100.56 454.6 1099.97 448.1 1099.96 448.03L1099.2 445.37L1099.44 444.05L1098.59 438.48L1098.05 439.68L1097.03 437.71L1095.91 434.3L1096.03 436.01L1094.49 431.37L1093.88 429.76C1093.88 429.76 1093.82 429.79 1093.79 429.81C1093.76 429.83 1093.73 429.84 1093.7 429.86C1093.67 429.88 1093.64 429.89 1093.61 429.91C1093.58 429.93 1093.55 429.94 1093.52 429.96L1092.34 427.85L1092.35 427.86Z" fill="white"/>
<path d="M1067.25 462.25L1068.52 467.27L1072.45 475.38L1073.8 473.66L1074.2 470.92L1073.84 465.7L1072.95 461.62L1071.67 463.33L1071.44 465.41L1069.29 463.44L1067.25 462.25Z" fill="white"/>
<path d="M1031.82 354.54L1031.32 355.98L1036.33 370.96L1037.42 377.39L1035.65 377.88L1029.36 373.28L1024.58 370.36L1024.76 364.55L1024.35 360.58L1017.69 360.25L1014.48 359.38L1016.06 362.02L1013.66 363.52L1012.21 367.16C1012.31 367.43 1012.41 367.71 1012.51 367.98C1012.61 368.25 1012.71 368.53 1012.81 368.8C1012.91 369.07 1013.01 369.35 1013.11 369.62C1013.21 369.89 1013.31 370.17 1013.4 370.44L1014.53 372.68L1010.55 372.22L1006.58 369.28L1004.52 375.27C1004.64 375.62 1004.76 375.98 1004.88 376.33C1005 376.68 1005.12 377.04 1005.24 377.39C1005.36 377.74 1005.48 378.1 1005.6 378.45C1005.72 378.8 1005.84 379.16 1005.96 379.51L1002.84 378.17L1001.38 381.24L1001.58 384.88L999.22 390.97L991.18 396.57L986.38 400.02L988.78 409.7L991.42 413.32L990.16 416.59L995.58 424.84L999.4 432.5L1002.24 442.29L1000.62 443.09L1002.53 445.7L1008.63 447.89L1012.51 443.21L1021.97 440.37L1024.31 435.06L1030.33 431.81L1036.7 429.85L1040.36 431.27L1044.72 436.34L1046.36 440.87L1047.63 440.05L1047.13 436.54L1048.34 432.93L1049.26 437.58L1051.02 439.46L1051.94 438.81L1052.59 443.41C1052.68 443.39 1052.78 443.38 1052.87 443.36C1052.96 443.34 1053.06 443.33 1053.15 443.31C1053.24 443.29 1053.34 443.28 1053.43 443.26C1053.52 443.24 1053.62 443.23 1053.71 443.21L1056.23 446.37L1057.64 451.35L1060.04 452.91L1063.55 453.43L1065.46 451.11L1067.6 454.01L1069.12 452.07L1070.12 449.21L1072.66 448.83L1070.81 439.73L1070.43 429.7L1070.45 423.83L1069.05 415.49C1068.87 414.86 1068.69 414.23 1068.51 413.6C1068.33 412.97 1068.15 412.34 1067.96 411.72C1067.78 411.09 1067.59 410.47 1067.41 409.84C1067.23 409.21 1067.04 408.59 1066.85 407.96L1063.35 398.97L1059.72 394.41L1057.51 390.54L1055.32 389.62L1051.17 382.57L1047.64 379.94L1044.36 373.33L1040.89 366.98L1038.47 366.07L1031.85 354.49L1031.82 354.54Z" fill="white"/>
<path d="M1076.04 365.26C1076.04 365.26 1075.97 365.3 1075.94 365.33C1075.91 365.36 1075.87 365.37 1075.84 365.4C1075.81 365.43 1075.77 365.44 1075.74 365.47C1075.71 365.49 1075.67 365.51 1075.64 365.54L1076.55 368.99C1076.62 368.95 1076.69 368.91 1076.75 368.86C1076.82 368.82 1076.88 368.78 1076.95 368.73C1077.02 368.69 1077.08 368.65 1077.14 368.6C1077.2 368.56 1077.26 368.52 1077.33 368.47L1076.04 365.26V365.26Z" fill="white"/>
<path d="M1069.96 379.7L1073.05 384.39L1075.03 386.78L1074.81 384.59L1069.96 379.7Z" fill="white"/>
<path d="M1036.23 331.81L1036.54 334.63L1034.57 337.14C1034.4 337.52 1034.18 338.02 1034.01 338.4C1034.49 338.64 1035.15 339.02 1035.58 339.44C1035.66 339.52 1035.77 339.52 1035.85 339.5C1036 339.47 1036.19 339.4 1036.59 339.15L1039.03 337.51C1039.4 337.06 1038.76 334.52 1038.33 333.1L1036.24 331.81H1036.23Z" fill="white"/>
<path d="M999.91 327.68L1002.38 332L1006.06 334.96L1008.63 338.06C1009.02 338 1009.41 337.95 1009.79 337.89C1010.17 337.83 1010.56 337.78 1010.94 337.72C1011.32 337.66 1011.7 337.61 1012.08 337.55C1012.46 337.49 1012.83 337.44 1013.2 337.38L1018.85 340.43L1020.59 343.81L1020.93 347.93L1022.57 350.15C1022.89 349.93 1023.31 349.64 1023.63 349.42C1023.33 347.79 1023.39 347.4 1023.44 347.08C1023.5 347.04 1023.58 347 1023.64 346.96C1023.97 347.06 1024.58 347.24 1026.63 348.35L1027.73 350.27L1031.62 349.98L1030.21 345.44L1034.3 346.99L1037.11 350.51L1040.44 351.98L1042.76 352.85L1043.24 351.88L1034.01 342.57L1034.61 341.14L1024.17 332.97L1018.28 330.93L1012.63 328.83L1010.42 333.47L1006.87 331.37L1004.68 327.2L999.91 327.69V327.68Z" fill="white"/>
<path d="M1001.26 351.32C1001.13 351.34 1000.82 351.4 998.32 352.08L996.5 354.77L997.23 358.09L999.36 355.54C999.82 354.86 1000.54 354.01 1000.88 353.26C1000.88 353.25 1001.49 351.66 1001.31 351.34C1001.29 351.34 1001.27 351.33 1001.26 351.33V351.32Z" fill="white"/>
<path d="M955.43 349.86C954.99 349.9 954.55 349.94 954.11 349.99C953.67 350.03 953.23 350.07 952.78 350.12C952.34 350.16 951.89 350.2 951.44 350.25C950.99 350.29 950.55 350.33 950.1 350.38L948.54 351.84L953.76 353.98L963.27 356.24L971.62 356.88L976.95 356.68C977.43 356.63 977.92 356.57 978.4 356.52C978.88 356.47 979.36 356.41 979.84 356.36C980.32 356.31 980.79 356.25 981.27 356.2C981.74 356.15 982.22 356.09 982.69 356.04L987.91 354.49C987.39 354.1 986.71 353.58 986.19 353.19C981.55 354.01 977.033 354.01 972.64 353.19L968.22 351.96L970.58 350.4L963.14 350.79L956.69 351.62L955.44 349.86H955.43Z" fill="white"/>
<path d="M961.19 308.32C960.95 308.82 960.83 309.08 960.17 312.64L957.87 316.97L957.46 320.84L952.06 322.2L953.5 326.18L949.82 325.98L948.71 328.56L945.36 327.36L942.71 328.3L940.1 328.81L942.65 336.3L940.57 337.46L933.9 331.7L932.74 329.32L924.52 326.19L917.81 321.14L914.71 318.06L906.82 317.78L914.54 323.64L919.22 326.5L923.27 331.5L929.06 336.25L932.81 340.63L938.05 344.48C942.63 348.1 944.17 349.32 946.26 349.88C946.54 349.96 949.41 348.44 948.91 347.41C947.78 345.11 946.06 343.18 944.87 340.93C944.92 340.01 944.98 338.79 945.02 337.87C951.25 335.2 954.97 337.6 959.28 340.39C962.78 340.56 966.15 341.83 969.69 341.69C969.86 341.69 970.9 341.07 972.4 339.87L971.44 335.38L970.54 332.14L974 335.24L975.64 334.22L978.01 335.76L978.23 338.81L980.19 340.12L981.48 344.75L983.99 345.53C983.75 344.92 983.51 344.31 983.27 343.69C983.03 343.08 982.79 342.47 982.54 341.86C982.29 341.25 982.05 340.64 981.81 340.03C981.56 339.42 981.32 338.81 981.07 338.2L985.67 341.59L989.38 344.88V341.56L983.73 335.23L982.07 331.53L980.15 327.74L984.59 325.69L983.9 323.69L978.98 325.25L974.84 323.24L974.5 326.87L967.57 321.43L964.89 315.82C965.59 315.66 966.52 315.46 967.22 315.3C967.71 313.94 967.67 313.68 967.6 313.2C965.04 312.13 963.33 309.93 961.19 308.32V308.32Z" fill="white"/>
<path d="M568.28 37.17L567.55 38.16L569.26 42.03L567.08 39.27L566.33 38.8L566.29 40.29L565.04 40.45L564.7 39.45L565.55 38.88L565.33 38.44C563.13 38.76 561.733 39.28 561.14 40C561.2 40.17 561.24 40.28 562.52 42.37L563.74 43.35L563.21 44.31L563.75 45.41L565.12 46.47L566.08 46.9L565.52 47.29L566.66 48.22L568.28 47.84L568.78 46.13L570.38 46.78L572.38 46.4L571.98 48.23L567.82 49.94L569.37 51.92L571.1 51.85L571.45 52.72L569.46 53.4L571.83 55.8L574.2 57.74L576.69 58.96L576.4 55.78L575.92 53.95L576.9 52.44L576.77 49.13L576.9 46.57L578.89 45.47L579.02 44.91L577.91 44.05L575.33 43.3L573.54 41.51L572.57 40.4L571.63 40.32L571.45 38.66L569.47 37.89L568.29 37.17H568.28Z" fill="white"/>
<path d="M579.31 46.14C578.77 46.15 578.7 46.16 578.03 47.14L579.67 48.48L580.78 48.84L580.43 49.16L580.21 50.06L581.51 50.23L582.58 51.16L581.94 51.81L581.45 52.86L581.76 53.54L582.65 53.26L584.98 54.38C585.51 53.86 586.38 53.3 586.73 52.65C586.73 52.65 586.76 51.65 586.64 51.29C586.63 51.25 586.56 51.21 586.52 51.19C585.83 50.84 583.74 49.6 583.33 49.35L582.94 48.34C582.79 48.34 582.64 48.34 582.48 48.35C582.33 48.35 582.18 48.35 582.02 48.36C581.87 48.36 581.72 48.36 581.56 48.37C581.41 48.37 581.26 48.37 581.1 48.37L581.41 47.64C581.03 47.19 580.52 46.6 580.14 46.15C579.82 46.14 579.52 46.13 579.28 46.13L579.31 46.14Z" fill="white"/>
<path d="M571.7 33.51L571.19 34.1L571.7 35.12L570.68 35.26L571.35 36.15C571.25 36.15 571.15 36.15 571.05 36.15C570.95 36.15 570.85 36.15 570.75 36.15C570.65 36.15 570.55 36.15 570.45 36.15C570.35 36.15 570.25 36.15 570.15 36.15L571.19 37.16L571.86 37.08L571.43 37.85L572.22 38.84L573.76 38.67L575.89 38.59L576.01 39.59L574.39 39.73L575.52 41.15L578.12 41.25L580.05 41.63L581.25 42.28C581.65 41.89 582.12 41.29 582.6 41.01C583.41 40.53 583.5 40.36 583.54 40.27C583.44 40.13 583.3 39.94 582.91 39L583.62 38.03V36.74L580.18 35.43L578.09 34.66L577.7 35.61L576.47 34.24L575.55 34.46C575.85 34.88 576.24 35.45 576.54 35.87C576.26 36.39 576.16 36.49 576.1 36.55C575.65 36.24 575.22 35.9 574.77 35.59L573.24 35.1L571.73 33.53L571.7 33.51Z" fill="white"/>
<path d="M605.5 30.53L604.64 31.58L606.05 32.73C605.59 32.61 604.98 32.46 604.52 32.35C604.75 32.49 605.9 33.17 606.06 33.17C606.11 33.17 606.19 33.1 606.31 32.99C606.51 32.79 606.71 32.6 606.93 32.61C607.09 32.61 607.29 32.61 607.66 32.45C607.73 32.42 607.8 32.38 607.87 32.34L607.83 31.72L605.5 30.53Z" fill="white"/>
<path d="M608.05 29.76V30.45L608.98 31.03L609.54 32.05L609.67 33.3C609.14 33.46 608.44 33.68 607.92 33.84C609.19 34.61 610.09 35.13 610.26 35.18C610.32 35.2 610.36 35.21 611.62 35.01L612.95 36.04C613.81 36.13 614.95 36.25 615.81 36.34C615.73 36.15 615.46 35.53 615.1 35.31C615.05 35.28 614.98 35.26 614.93 35.25C614.44 35.19 613.39 34.8 612.81 34.57L612.1 33.41L611.98 32.35L611.89 31.54L609.81 30.62L608.03 29.75L608.05 29.76Z" fill="white"/>
<path d="M622.37 27.86L622.93 28.56C623.03 28.62 623.13 28.68 623.23 28.74C623.33 28.8 623.43 28.86 623.53 28.92C623.63 28.98 623.73 29.04 623.83 29.1C623.93 29.16 624.03 29.22 624.13 29.29L623.2 29.69L624.87 30.61L626.61 30.99L627.1 30.06C626.84 29.9 626.58 29.74 626.32 29.59C626.06 29.44 625.8 29.28 625.54 29.12C625.28 28.96 625.02 28.81 624.76 28.65C624.5 28.49 624.24 28.34 623.98 28.19L622.37 27.84V27.86Z" fill="white"/>
<path d="M622.81 29.95L620.78 30.26L620.64 31.06L622.73 32L623.24 32.51L625.62 33.01L626.13 32.31L623.61 30.54L622.81 29.95Z" fill="white"/>
<path d="M619.8 31.71C619.86 32.16 619.95 32.93 619.77 33.08C619.77 33.15 619.79 33.27 620.56 34.42L621.85 35.33L623.14 35.44L624.49 35.04L624.16 33.66L622.19 32.5L619.8 31.71V31.71Z" fill="white"/>
<path d="M626.26 34.62C625.71 35.18 625.74 35.3 625.75 35.34L626.72 35.61L627.2 36.16L627.95 35.68L626.27 34.62H626.26Z" fill="white"/>
<path d="M616.55 33.42L615.59 33.55L615.6 34.29L617.17 34.83L618.49 34.54L616.55 33.42Z" fill="white"/>
<path d="M614.67 31.79L614.37 32.18L615.28 32.35L618.1 33.81L619.04 32.99L617.72 32.26L616.4 31.97L614.67 31.79Z" fill="white"/>
<path d="M611.8 28.63L612.81 29.46L614.27 30.15L613.77 30.73L615.29 31.39L615.79 31.13L615.83 30.75L616.77 31.47L618.27 31.57C617.96 31.41 617.55 31.2 617.24 31.03C618.33 31.29 618.95 31.41 619.08 31.39C619.11 31.34 619.17 31.25 618.64 30.79L616.41 30.17L614.05 29.37L611.79 28.62L611.8 28.63Z" fill="white"/>
<path d="M610.41 24.17C610.27 24.17 610.13 24.17 609.99 24.18C609.85 24.18 609.71 24.18 609.57 24.19C609.43 24.19 609.29 24.19 609.15 24.2C609.01 24.2 608.87 24.2 608.73 24.21L610.51 25.2L610.89 26L610.58 26.36L610.98 27.31L612.27 28.11L613.21 27.99L614.39 29.01L617.2 30.08L619.5 30.69L619.53 30.4L617.5 29.53C617.57 29.53 617.64 29.53 617.71 29.53C617.78 29.53 617.85 29.53 617.92 29.53C617.99 29.53 618.06 29.53 618.13 29.53C618.2 29.53 618.27 29.53 618.34 29.53L618.93 29.28L619.98 29.52L619.94 28.79C619.84 28.73 619.75 28.67 619.65 28.61C619.55 28.55 619.46 28.49 619.36 28.43C619.26 28.37 619.17 28.31 619.07 28.25C618.97 28.19 618.88 28.13 618.78 28.07L617.79 28.24C617.68 28.17 617.58 28.11 617.47 28.04C617.36 27.97 617.26 27.91 617.15 27.84C617.04 27.77 616.94 27.71 616.83 27.64C616.72 27.57 616.62 27.51 616.51 27.44L614.27 26.85L612.35 26.05L611.59 25.14L610.45 24.21L610.41 24.17Z" fill="white"/>
<path d="M614.6 24.4L614.67 24.9L615.1 25.7L616.54 25.3L617.44 25.4L614.6 24.4Z" fill="white"/>
<path d="M664.49 33.47L663.89 33.81L666.71 34.87L668.14 35.7L669.03 35.76L669.23 36.18L670.61 36.54C670.33 35.69 670.18 35.22 669.35 34.81C669.26 34.77 669.25 34.76 669.06 34.72C668.71 34.64 666.38 34 664.49 33.48V33.47Z" fill="white"/>
<path d="M651.09 25.74L651.5 26.27L653.47 27.14L653.77 27.93L656.68 29.41L658.15 29.64L660.19 31.06L661.41 32.2L664.08 32.78L667.9 34.08L666.18 32.51C666.51 32.49 666.85 32.49 667.18 32.45C667.18 32.35 667.18 32.23 666.94 31.76L662.47 29.89C662.56 29.89 662.64 29.89 662.73 29.88C662.82 29.88 662.9 29.88 662.99 29.87C663.08 29.87 663.16 29.87 663.25 29.86C663.34 29.86 663.42 29.86 663.51 29.85L655.29 27.21L651.1 25.76L651.09 25.74Z" fill="white"/>
<path d="M669.74 32.88L669.11 33.12L668.41 33.73L670.29 34.73L671.32 35.79L673.38 36.58L676.51 38.14C679.457 39.32 681.853 40.0133 683.7 40.22C683.82 40.23 684 40.25 686.06 41.01C686.23 41.01 686.39 40.99 686.56 40.98C686.73 40.97 686.89 40.96 687.06 40.95C687.23 40.94 687.39 40.93 687.56 40.92C687.73 40.92 687.89 40.9 688.06 40.89L686.17 39.71L684.69 39.14L682.61 38.3L681.8 37.62L678.86 35.98L674.67 34.12L671.85 33.39L673.16 34.31L669.75 32.88H669.74Z" fill="white"/>
<path d="M683.53 37.2L684.73 38.19C686.71 39.23 688.8 40.07 690.7 41.25C691.04 41.46 691.05 41.51 691.1 41.67C691.16 41.87 692.53 42.91 693.86 43.85L697.54 46.05C697.64 46.05 697.74 46.04 697.84 46.03C697.94 46.03 698.04 46.02 698.14 46.01C698.24 46.01 698.34 46 698.44 45.99C698.54 45.99 698.64 45.98 698.74 45.97L697.69 45.18L698.23 44.54C698.33 44.54 698.43 44.53 698.53 44.52C698.63 44.52 698.73 44.51 698.83 44.5C698.93 44.5 699.03 44.49 699.13 44.48C699.23 44.48 699.33 44.47 699.43 44.46V44.1L699.29 43.51C697.93 42.49 694.073 40.7433 687.72 38.27L689.4 39.7L685.37 37.51L683.53 37.17V37.2Z" fill="white"/>
<path d="M757.31 53.25L762.39 56.06L755.89 53.83L760.12 56.58C760.71 56.89 761.31 57.19 761.9 57.5C762.49 57.81 763.08 58.12 763.67 58.43C764.26 58.74 764.85 59.05 765.44 59.37C766.03 59.68 766.62 60 767.21 60.31L773.33 62.86C773.26 62.82 773.19 62.78 773.12 62.75C773.05 62.71 772.98 62.68 772.91 62.64C772.84 62.6 772.77 62.57 772.7 62.53C772.63 62.49 772.56 62.46 772.49 62.42L770 60.45L772.9 61.6L771.58 60.19L774.64 60.9L771.16 59.29C771.25 59.29 771.34 59.27 771.42 59.26C771.5 59.25 771.59 59.24 771.68 59.23C771.77 59.22 771.85 59.21 771.94 59.2C772.03 59.2 772.11 59.18 772.2 59.17L767.61 56.68C767.46 56.7 767.32 56.71 767.17 56.73C767.02 56.75 766.87 56.76 766.72 56.78C766.57 56.8 766.42 56.81 766.27 56.83C766.12 56.85 765.97 56.86 765.81 56.88L761.62 54.98L757.29 53.27L757.31 53.25Z" fill="white"/>
<path d="M768.46 56.52L773.67 59.14L776.72 60.06L779.05 61.12L780.22 61.18L779.18 60.21C777.227 59.1233 774.95 58.32 772.35 57.8L771.01 57.3L770.95 57.56L768.46 56.5V56.52Z" fill="white"/>
<path d="M782.08 65.85L783.83 67.87L786.04 69.22L786.71 68.94L786.82 68.96L789.28 69.56L790.73 70.1L788.32 68.66L785.31 67.23L782.08 65.85Z" fill="white"/>
<path d="M776.92 63.8C776.92 63.8 776.94 63.9 777.77 64.59L781.2 66.31L779.69 65.22L780.78 65.57C779.97 65.13 778.91 64.47 778.07 64.09C778.07 64.09 777.08 63.81 776.92 63.8V63.8Z" fill="white"/>
<path d="M662.89 53.78L661.75 56.45L661.65 58.87L657 58.78L655.58 61.29L655.84 65.33L656.97 68.8L658.01 72.55L657.23 74.11L658.92 75.31L659.84 77.44L658.02 79.29L660.41 81.51L660.94 83.83L659.87 83.76L661.87 87L666.24 88.94L670.65 91.06L674.96 91.5C675.04 91.5 675.12 91.5 675.21 91.5C675.3 91.5 675.37 91.5 675.46 91.5C675.54 91.5 675.62 91.5 675.71 91.5C675.79 91.5 675.87 91.5 675.96 91.5C676.16 91.5 676.36 91.49 676.56 91.48C676.76 91.48 676.96 91.47 677.16 91.46C677.36 91.46 677.56 91.45 677.76 91.44C677.96 91.44 678.16 91.43 678.36 91.42L669.22 84.47L665.18 76.5L663.76 68.6L664.6 64.24L668.04 60.43L669.09 57.76L667.04 55.26L662.91 53.82L662.89 53.78Z" fill="white"/>
<path d="M504.94 116.46L503.84 118.11L499.79 118.2L498.64 119.21L497.31 118.34L495.77 119.71L493.96 118.66L492.73 120.26L490.58 121.22L490.6 118.74L488.66 116.87L486.72 117.29L484.68 119.3C484.18 119.87 483.51 120.63 483.02 121.21C483.173 121.937 484.6 121.927 487.3 121.18L487.57 122.31L486.99 123.5L484.98 123.99L481.84 124.49L483.48 125.21L486.59 124.95L489.37 125.47L489.15 127.59L484.94 128.53L484.83 129.32L489.13 129.17L491.94 130.69L496.93 130.83L502.04 129.26L509.43 125.01L510.24 122.36L508.18 119.83L505.95 117.67L504.96 116.45L504.94 116.46Z" fill="white"/>
<path d="M858.14 309.8L857.55 313.05L859.87 317.2L862.9 318.36L865.02 316.19L862.55 312.47L858.14 309.8Z" fill="white"/>
<path d="M975.96 299.75L972.34 301.8L970.82 304.15C971.52 304.65 972.51 305.25 973.16 305.81C973.51 306.11 976.58 308.78 977.41 308.82C978.33 308.86 979.64 305.24 979.49 304.55C979.3 303.68 977.1 301.02 975.96 299.74V299.75Z" fill="white"/>
<path d="M951.7 274.27C951.41 274.51 951.71 276.24 952.59 279.43L956.52 285.08C957.1 285.41 957.86 285.86 958.44 286.19C959.06 285.86 958.6 282.94 958.37 281.7C957.57 279.58 956.5 276.75 955.7 274.63C953.63 274.52 952.3 274.4 951.74 274.27C951.73 274.27 951.71 274.27 951.7 274.27V274.27Z" fill="white"/>
<path d="M961.76 285.81C961.76 285.81 961.72 285.82 961.7 285.83C961.6 286 961.59 286.01 961.42 286.99C960.99 289.37 960.72 290.19 960.27 290.54L962.05 291.77L962.58 289.66L963.84 288.19L966.25 289.6C966.7 290.22 967.15 291.19 967.74 291.67C967.77 291.7 971.68 294.47 972.41 294.62C972.42 294.6 972.44 294.57 972.45 294.55C972.23 293.88 970.37 291.72 969.58 290.83L967.09 289.08C966.47 288.46 965.78 287.46 965.03 287C965.01 286.99 962.41 285.79 961.78 285.82L961.76 285.81Z" fill="white"/>
<path d="M965.03 292.41C964.95 292.46 964.81 292.56 964.42 293.47C965.36 294.62 966.92 296.54 967.02 297.93C967.07 298.65 968.62 299.72 968.94 299.93C969.09 300.03 969.33 300.18 969.39 300.17C969.5 300.15 970.07 300 970.66 299.85C971.09 299.73 971.54 299.69 971.96 299.52C972.06 299.48 972.13 298.86 972.15 298.65C972.25 297.67 972.33 295.71 972.29 295.57C972.21 295.62 972.21 295.62 972.03 295.93C971.85 296.23 971.64 296.6 971.54 296.61C971.36 296.63 970.82 296.38 969.95 295.85C969.94 295.85 968.92 295.22 968.54 294.94C967.4 294.07 965.2 292.42 965.04 292.42L965.03 292.41Z" fill="white"/>
<path d="M960.91 293.49L960.4 295.39L959.4 301.03L960.3 300.71L961.21 298.02L961.88 295.45C961.8 295.29 961.72 295.12 961.64 294.96C961.56 294.8 961.48 294.63 961.4 294.47C961.32 294.31 961.24 294.14 961.16 293.98C961.08 293.82 961 293.65 960.92 293.49H960.91Z" fill="white"/>
<path d="M938.91 200.54L940.08 204.25L944.41 209.63L945.85 214.6L941.54 218.84L941.39 223.66L941.98 226.31L941.95 227.68C942.25 228.12 942.56 228.56 942.86 229C943.16 229.44 943.46 229.88 943.77 230.32C944.07 230.76 944.37 231.2 944.67 231.65C944.97 232.09 945.27 232.54 945.57 232.98C946.6 233.05 946.82 232.92 947 232.81C947.13 231.75 945.71 227.91 945.7 227.88C945.57 227.55 945.44 227.23 945.88 224.14C946.46 224.4 946.97 224.78 947.57 225C947.7 224.92 947.96 224.75 948.85 222.61L952.78 218.99L948.44 212.41C945.94 207.103 942.77 203.147 938.93 200.54H938.91Z" fill="white"/>
<path d="M929.23 185.92L928.56 186.39L931.26 189.1L933.39 193.49L933.42 195.32L936.64 199.04L937.07 197.69C936.9 197.09 936.67 196.29 936.5 195.69C938.23 195.79 938.68 195.79 938.69 195.78C938.82 195.74 938.88 195.72 939.03 194.88C939.08 194.61 939.12 194.34 939.18 194.07C939.24 193.79 939.46 193.55 939.37 193.24C939.18 192.58 938.15 190.77 937.58 189.8C936.74 189.78 933.963 188.487 929.25 185.92H929.23Z" fill="white"/>
<path d="M935.95 181.2C936.24 182.28 936.85 183.68 936.93 184.8C936.94 184.98 936.8 188.7 936.5 188.93L937.1 189.08L937.21 183.48L935.95 181.21V181.2Z" fill="white"/>
<path d="M900.22 154.14C900.627 155.613 903.827 159.357 909.82 165.37L913.62 168.8L917.42 172.72L923.59 180.21L925.98 183.55C926.52 183.81 927.23 184.15 927.77 184.41C926.97 183.39 926.21 182.33 925.44 181.29L928.26 182.38L923.11 177.96L919.7 174.64L918.02 171.27L921.5 174.01L915.99 168.64L909.96 163.79L905.48 158.92L900.22 154.16V154.14Z" fill="white"/>
<path d="M523.72 166.66L519.85 168.5L520.5 169.99C519.44 170.38 518.05 171.54 516.96 171.25C515.98 170.99 515.78 171.08 515.71 171.11C515.68 171.2 515.6 171.4 514.95 174.79C515.96 174.75 517.3 174.69 518.3 174.65C518.13 175.24 517.54 177.18 517.29 177.51C517.27 177.54 517.22 177.56 517.18 177.58C516.77 177.82 515.74 178.55 514.95 179.12C514.93 179.35 514.92 179.57 514.9 179.8C514.88 180.03 514.87 180.25 514.85 180.48C514.83 180.71 514.82 180.93 514.8 181.16C514.78 181.39 514.77 181.61 514.75 181.84C514.9 181.84 515.04 181.84 515.19 181.84C515.34 181.84 515.48 181.84 515.63 181.84C515.78 181.84 515.92 181.84 516.07 181.84C516.22 181.84 516.36 181.84 516.51 181.84C518.03 181.373 520.58 180.387 524.16 178.88L526.6 173.86L528.99 171.51L528.62 167.57L523.7 166.7L523.72 166.66Z" fill="white"/>
<path d="M532.55 152.54L530.53 153.21L530.79 154.89L528.85 156.26L527.01 158.04L527.81 160.5L529.55 161.54L529.49 165L532.07 165.83V167.78C533.23 168 534.77 168.29 535.92 168.5C537.2 170.48 537.83 172.343 537.81 174.09L533.4 174.61L532.62 175.62C532.92 175.79 533.33 176.02 533.64 176.19C533.74 178.39 533.6 178.8 533.5 179.09C533.287 179.183 532.517 179.403 531.19 179.75C531.09 180.21 530.97 180.83 530.87 181.29C534.53 181.517 536.597 182.08 537.07 182.98L532.36 183.25C532.54 183.8 532.78 184.52 532.96 185.07C531.393 185.097 530.367 185.52 529.88 186.34L527.74 187.24L530.98 187.36L531.15 186.55L535.05 186.22L536.57 184.43L546.52 183.7L550.46 182.89L549.1 182L550.75 179.95L552.49 176.96L550.45 175.78L547.67 174.78C545.597 169.993 542.38 166.64 538.02 164.72L537.65 162.43L540.73 159.36L541.07 156.49C539.42 156.35 537.22 156.16 535.58 156.01C537.6 153.27 537.87 152.84 537.99 152.65C537.25 152.44 532.6 152.52 532.57 152.53L532.55 152.54Z" fill="white"/>
<path d="M579.33 219.42L576.62 219.99L576.08 223.36C576.36 224.05 576.58 225.06 577 225.67C577 225.67 578 226.48 578.33 226.58C578.38 226.6 578.53 226.64 581.13 224.91L581.06 221.82L579.33 219.42V219.42Z" fill="white"/>
<path d="M594.23 228.57C592.39 228.72 591.31 228.82 591.05 228.87L592.13 230.38C597.24 232.9 600.66 233.34 600.68 233.34C601.38 233.25 602.54 231.63 602.67 231.45C602.84 231.21 603.33 230.11 603.81 228.9L601.13 228.55L600.86 229.8L595.82 230.31L594.24 228.58L594.23 228.57Z" fill="white"/>
<path d="M634.1 236.43C633.76 236.46 632.2 236.68 631.3 236.82L633.22 238.42C634.38 238.34 635.95 237.95 637.1 238.19C638.49 238.48 641.15 239.01 641.29 239C641.52 238.97 642.48 237.57 642.59 237.41C642.31 237.41 642.03 237.42 641.74 237.43C641.46 237.43 641.18 237.44 640.89 237.45C640.61 237.45 640.33 237.46 640.04 237.47C639.76 237.47 639.47 237.48 639.19 237.49C637.38 237.1 634.32 236.44 634.1 236.43V236.43Z" fill="white"/>
<path d="M729.74 229.8L720.27 226.13L719.48 222.4L719.82 218.54L721.18 216.86L718.59 215.57L709.79 210.03C709.67 209.67 709.54 209.31 709.42 208.96C709.3 208.6 709.17 208.25 709.05 207.89C708.93 207.53 708.8 207.18 708.68 206.82C708.56 206.46 708.43 206.11 708.31 205.75L704.73 202.04L716.22 194.57L721.34 194.27C721.51 194.7 721.69 195.13 721.86 195.56C722.03 195.99 722.2 196.42 722.38 196.85C722.55 197.28 722.72 197.71 722.9 198.15C723.07 198.58 723.24 199.02 723.41 199.45L718.73 200.64L716.7 203.65L723.89 208.8L724.96 209.58L730.99 211.99L735.26 215.05L731.73 215.54L729.11 217.73L734.37 221.48L737.25 228.66L729.73 229.8H729.74ZM666.4 203.76C666.31 203.42 666.22 203.09 666.13 202.75C666.04 202.42 665.95 202.08 665.86 201.75C665.77 201.42 665.68 201.08 665.59 200.75C665.5 200.42 665.41 200.08 665.32 199.75L675.25 195.45L675.33 200.12L673.87 202.41L687.39 209.22L690.29 213.01L679.33 216.94L655.88 215.45C655.35 215.47 654.82 215.48 654.29 215.49C653.76 215.5 653.23 215.52 652.7 215.53C652.17 215.54 651.64 215.56 651.11 215.57C650.58 215.58 650.05 215.6 649.52 215.61L640.57 219.79L644.92 215.51L641.91 213.41L650.64 199.11L659.32 203.54L666.39 203.75L666.4 203.76ZM705.55 47.89L711.72 52.97L717.45 55.53L713.16 55.96L715.95 58.22L713.07 58.2L709.83 55.61L708.28 61.73L708.33 65.81C710.55 67.28 713.53 69.21 715.64 70.83C714.233 71.6167 711.563 72.26 707.63 72.76L714.9 79.82L720.24 81.31L720.81 83.15L714.5 80.87L709.9 78.73L709.27 78.96L709.42 80.68L714.68 82.7L711.04 82.46L710.2 83.43L716.98 86.05L715.52 87.49L710.65 85.5L708.07 81.66L702.91 77.22L700.39 76.93L706.02 81.54L704.79 82.73L710.14 87.51L715.7 93.72L719.63 97.52C720.02 97.5 720.41 97.48 720.8 97.47C721.19 97.45 721.58 97.43 721.96 97.42C722.35 97.4 722.73 97.38 723.12 97.37C723.5 97.35 723.89 97.33 724.27 97.32L730.02 99.96L731.62 102.26L725.9 98.69L722.1 99.31L726.78 104.09L726.87 109.65C725.73 110.19 724.21 110.92 723.07 111.46C723.403 106.813 719.29 100.433 710.73 92.32C701.137 82.3133 694.963 77.2367 692.21 77.09L694.04 87.58L706.24 96.56L711.82 102.7L695.61 96.12L682.09 92.62L683.49 95.05L690.17 96.99L691.8 101.03L685.54 100.38L680.35 103.71L675.58 100.08L671.22 104.38C669.52 105.08 667.24 106.02 665.54 106.73C665.72 107.42 665.97 108.35 666.15 109.04C665.72 109.52 665.14 110.17 664.7 110.66C663.3 110.51 661.45 110.28 660.06 110.07C660.66 108.75 661.383 107.37 662.23 105.93L652.52 101.75C652.8 102.27 653.08 102.79 653.35 103.32C653.63 103.84 653.9 104.37 654.18 104.9C654.46 105.43 654.73 105.96 655.01 106.49C655.29 107.02 655.56 107.55 655.84 108.09L660.49 111.74L659.36 114.7L655.69 113.76L651.27 118.02L653.86 121.77L649.75 122.02L642.98 119.94L645.05 122.76C646.1 123.72 647.49 124.99 648.54 125.94C645.88 125.787 641.673 122.903 635.92 117.29L629.46 112.31L637.49 113.6L646.7 115.68L650.76 110.77L639.45 102.6L622.77 98.54L614.26 95.73L617.99 93.28L611.7 91.11L611.44 94.08L609.75 90.95L609.39 94.13L607.71 90.16L606.2 93.24L603.94 90.97L603.76 94.58L599.59 94.04L598.9 94.48L594.25 97.26C592.17 96.95 589.39 96.53 587.3 96.22C586.86 99.06 586.8 99.42 587.86 101.86L584.61 102.82L580.62 103.01L579.43 106.15L585.53 105.25L579.62 107.28L585.73 106.25L583.2 110.04L576.24 123.54L571.17 130.69L562.96 135.3L562.25 142.02L563.01 148.86L566.41 153.13L577.69 149.64C578.61 149.98 579.84 150.43 580.76 150.76C582.193 156.513 581.89 161.55 579.85 165.87C581.943 165.683 585.527 165.137 590.6 164.23L597.45 156.39C597.27 154.37 597.04 151.68 596.86 149.66C598.06 149.11 599.64 148.32 600.79 147.68C599.623 146.12 597.867 144.193 595.52 141.9L595.31 133.44L601.55 126.16L602.82 121.43L606.53 118.25L612.38 119.29L609.82 124.87L606.74 132.68L608.22 139.95L612.2 144.87L621.19 143.49L628.71 142.53L629.98 145.86L624.81 147.56L615.99 147.25L616.29 150.79L619.43 153.1L617.91 158.75L612.39 156.07L610.67 159.87L611.64 165.7L606.14 169.55L601.36 168.21L596.52 171.29C595.94 171.3 595.36 171.31 594.78 171.33C594.2 171.34 593.62 171.35 593.04 171.37C592.46 171.38 591.88 171.39 591.3 171.41C590.72 171.42 590.14 171.43 589.56 171.44L587.15 169.69L582.63 171.86L576.56 167.83C576.65 163.93 577.94 160.11 577.38 156.16L574.32 157.15L571.07 160.43L571.75 164.49L574.53 169.39L567.89 173.8L557.08 180.45L550.89 188.71L542.31 190.28L541.16 193.07L531.95 193.04L536.88 197.66L541.54 201.75L543.12 206.94L541.93 210.73L535.11 212.03L520.41 210.7L516.28 213.62L516.44 218.5L516.54 229.51C516.36 230.78 516.11 232.48 515.93 233.75C521.243 233.337 525.093 234.403 527.48 236.95L528.53 236.46L531.29 234.85L541.53 234.55L545.46 229.62L546.65 224.93L555.46 223.25L556.71 216.92L559 212.46L564.35 210.71L567.87 212.62C571.21 211.15 575.66 209.2 578.99 207.73C585.73 212.53 592.417 216.207 599.05 218.76L603.57 222.21L603.16 227.67L605.71 229.34L607.46 226.17C607.43 225.92 607.4 225.68 607.37 225.43C607.34 225.18 607.31 224.94 607.28 224.69C607.25 224.44 607.22 224.2 607.19 223.95C607.16 223.71 607.13 223.46 607.1 223.22C607.08 223.06 607.06 222.91 607.04 222.75C607.02 222.59 607 222.44 606.98 222.28C606.96 222.12 606.94 221.97 606.92 221.82C606.9 221.67 606.88 221.51 606.86 221.36L608.1 221.02L610.18 222.14L611.33 221.26C606.02 217.44 599.72 215.43 594.25 211.9L593.9 209.7L589.38 207.83C589.48 206.46 589.62 204.62 589.72 203.25C599.77 203.17 606.17 211.04 614.53 214.66L615.63 219.4L618.21 223.05L622.72 226.83L623.7 229.24L626.92 232.55L630.83 231.99L631.63 229.22L634.25 228.68L631.91 227.18L628.23 223.68L626.9 220.69C629.01 220.48 632.07 220.16 633.72 218.83C635.347 219.01 637.457 219.833 640.05 221.3C640.37 223.033 640.64 225.387 640.86 228.36C650.68 234.05 654.03 233.77 663.99 232.92L674.38 232.21L676.86 239.62L675.22 246.43L674.66 249.29L674.82 249.94L675.58 253.1L677.18 256.13L677.41 256.57L681.02 261.74L686.65 266.55L697.86 274.91L702.01 282.58L716.2 292.3L717.47 299.54L722.46 305.13L738.85 300.13L755.53 292.13L766.48 285.27L773.01 275.66L762.16 270.13C760.88 268.43 759.18 266.16 757.91 264.45C750.88 271.57 740 266.39 735.91 264.43L733.61 261.27L724.89 254.09L730.61 250.83L742.11 258.94L754.62 261.15C755.78 260.8 757.32 260.34 758.48 259.99C764.2 263.35 773.87 265.02 787.49 265L797.97 265.82L808.99 271.33L808.34 274.08L814.17 276.67L816.48 272.89L818.58 272.01L821.84 279.5L828.44 290.17L834.77 297.84L841.7 305.73L845.9 311.87L848.63 313.76L850.51 313.2L851.64 309.39L854.34 304.26L853.16 297.98C852.93 297.38 852.71 296.78 852.48 296.18C852.25 295.58 852.02 294.98 851.8 294.38C851.57 293.78 851.34 293.18 851.11 292.59C850.88 291.99 850.65 291.4 850.42 290.8L852.32 288.34L856.1 287.83L855.86 284.39L860.27 281.68L861.97 277.27L864.69 275.98L863.83 272.27L870.61 270.96L874.36 269.51L875.09 268.19L877.12 269.49L881.76 275.15L888.64 279.21L890.19 284.3L892.46 287.7L895.56 287.91L897.61 284.96L897.13 282.3L901.26 286.52L906 294.56L910.14 303.18L910.78 309.29L917.22 311.46L921.91 317.93L926.63 323.35L934.3 327.76L936.28 326.71L931.46 321.7L929.94 316.89L924.23 313.57L917.3 308.34L912.96 303.6L911.02 296.04L911.57 293.21L916.8 296.37L920.73 297.49L926.45 301.67L928.1 304.33L929.84 305.66L936.24 296.52L931.22 287.57L924.29 281.75L918.19 275.97L917.18 268.36C917.59 268.32 918 268.29 918.41 268.25C918.82 268.21 919.22 268.18 919.63 268.14C920.04 268.1 920.44 268.07 920.84 268.03C921.24 267.99 921.64 267.96 922.04 267.92L924.47 268.61C924.56 268.78 924.65 268.96 924.75 269.13C924.84 269.3 924.93 269.48 925.02 269.65C925.11 269.82 925.2 270 925.29 270.17C925.38 270.34 925.47 270.52 925.56 270.69C924.72 271.81 924.04 273.73 924.1 275.14C925.07 275.94 926.75 276.57 928.01 276.67C928.703 275.257 929.16 273.75 929.38 272.15L926.36 269.84L926.2 267.15L929.09 265.4L935.67 261.05L937.01 251.34C936.16 247.54 935.5 242.19 933.5 238.86C932.64 238.78 931.39 238.58 930.61 238.96L930.77 235.95L922.17 227.13L918.64 223.94L919.4 217.97L918.95 215.97L914.55 214.54C914.64 215.25 914.75 216.2 914.83 216.92C913.397 216.513 911.863 215.463 910.23 213.77L907.48 213.31L906.61 211.42L909.31 210.75L908.49 205.07L910.97 205.36L911.66 207.99L913.3 212.09C913.47 212.07 913.63 212.06 913.8 212.04C913.97 212.02 914.13 212.01 914.3 211.99C914.46 211.97 914.63 211.96 914.79 211.94C914.95 211.92 915.12 211.91 915.28 211.89L915.63 208.15L917.57 207.66L918.9 208.3L920.79 211.39L921.73 213.09C924.89 213.723 927.737 216.29 930.27 220.79L931.64 224.38L932.97 225.34L935.24 223.74L935.81 221.16L931.23 214.29L925.42 210.05L922.62 207.9L922.77 204.41L921.61 199.91L921.38 196.51L924.56 196.37L922.29 187.3L917.83 177.3L912.13 169.67L907.15 163.94L903.63 159.8L897.29 155.25L895.98 157.05L890.23 153.63L888.42 152.48L886.97 149.09L884.91 145.21L880.37 133.73L884.59 133.29L883.99 131.12L887.49 132.29L888.4 133.57C888.56 133.71 888.73 133.85 888.89 134C889.05 134.14 889.22 134.28 889.38 134.43C889.54 134.58 889.71 134.72 889.87 134.86C890.03 135 890.2 135.15 890.36 135.29L890.92 133.33L887.13 129.78L882.62 124.4L881.22 121.37L886.09 124.78L887.66 125.35L879.8 117.47L880.96 117.52L885.11 121.33L888.7 124.41L897.59 134.65L899.16 138.08L902.49 141.65L903.63 142.94L905.9 145.38L914.1 152.87L923.78 161.64L928.33 167.87C929.01 168.98 929.92 170.46 930.6 171.57C928.38 165.15 923.63 160.31 920.14 154.67L914.64 149.55L916.13 149.4L910.86 144.44L910.93 143.19L906.37 139.38L902.35 135.81C902.25 135.83 902.14 135.85 902.04 135.88C901.93 135.9 901.83 135.92 901.72 135.95C901.61 135.98 901.51 135.99 901.4 136.02C901.29 136.04 901.18 136.06 901.07 136.09L895.04 129.81L894.57 128.1L893.39 125.95L894.57 125.5L897.77 127.79L887.43 116.74L889.18 117.11L886 114.37L875.87 107.75L875.04 106.71L872.79 104.54L866.52 100.45L866.36 99.99L870.16 102.52L870.81 102.38L875.12 105.21L879.39 107.65L877.23 105.87C876.74 105.53 876.25 105.18 875.76 104.84C875.27 104.5 874.78 104.16 874.29 103.82C873.8 103.48 873.31 103.14 872.82 102.8C872.33 102.46 871.84 102.12 871.34 101.79V101.5L867.83 98.96L861.6 95.27L860.88 95.17L864.67 97.66L856.76 92.9L843.95 86.23L837.07 83.49L835.15 83.3L836.95 84.78L843.05 88.13L843.18 88.8L839.56 87.03L837.33 85.24L833.35 83.32L836.35 85.72L832.64 85.92L821.68 80.18L818.63 80.41L817.86 81L808.73 77.22L806.48 75.69L800.11 73.56L792.44 72.78C795.68 75.15 798.98 77.42 802.23 79.77C800.96 79.98 799.24 80.15 797.95 80.12L792.18 77.81L798.97 83.26L790.84 79.91L778.24 71.45L771.81 68.96L767.1 68.84L772.53 73.03L765.83 71.6L761.76 70.07L756.57 70.05L751.23 68.92C750.42 68.87 749.34 68.81 748.54 68.76C749.61 69.54 750.98 70.67 751.95 71.57C751.46 72.09 750.85 72.85 750.29 73.3L747.09 69.79L743.92 64.52L740.85 60.92L727.87 54.18L721.38 52.57L723.13 54.85L719.97 54.43L718.31 52.17L711.95 50.75L710.52 48.8L705.6 48.01L705.55 47.89Z" fill="white"/>
</g>
<defs>
<linearGradient id="paint0_linear_335_542" x1="563" y1="554.12" x2="563" y2="-3.93002" gradientUnits="userSpaceOnUse">
<stop stop-color="white"/>
<stop offset="1" stop-color="#E7E6E6"/>
</linearGradient>
<clipPath id="clip0_335_542">
<rect width="1126" height="569.97" fill="white"/>
</clipPath>
</defs>
</svg>
