<svg width="30" height="35" viewBox="0 0 30 35" fill="none" xmlns="http://www.w3.org/2000/svg">
<path d="M3.81639 15.2018C4.97624 15.6356 6.47073 16.0695 7.33953 16.9372C9.24654 18.8853 9.32903 21.944 10.6539 24.1784C10.9841 24.7598 11.2752 25.4192 11.6487 25.9572C12.1874 26.7468 12.5609 26.248 13.0561 25.6275C13.8858 24.5515 14.1334 23.2282 14.3593 21.9049C14.5852 20.5816 14.772 19.3364 15.0196 18.0956C15.3106 16.6899 16.3447 16.2343 17.5914 15.7788C18.6644 15.3449 19.7415 14.9935 20.8189 14.6204C21.275 14.4555 22.4784 14.3731 22.6869 13.8784C22.9345 13.2537 21.9788 12.9674 21.5661 12.7591C20.3672 12.2211 19.0378 11.9738 17.878 11.4575C16.553 10.8371 16.0579 10.0127 15.5583 8.72848C14.607 6.16434 14.6896 3.43099 13.7382 0.91892C13.4863 0.341881 13.1561 -0.278518 12.6174 0.133653C12.0788 0.545824 11.7052 1.83002 11.3142 2.36801C10.2804 3.94294 9.98921 5.8867 9.24639 7.62216C8.8728 8.45084 8.53832 9.85655 7.83459 10.4379C7.04833 11.1017 5.51499 11.2232 4.56365 11.3881C3.03022 11.6788 0.167637 11.4488 0.00690875 12.7981C-0.153819 14.1474 2.53057 14.7462 3.81639 15.2018Z" fill="#FF7E36"/>
<path d="M17.8971 27.2327C18.6394 27.517 19.5959 27.8012 20.1519 28.3697C21.3724 29.6461 21.4252 31.65 22.2731 33.114C22.4844 33.4949 22.6707 33.9269 22.9098 34.2794C23.2545 34.7967 23.4935 34.4699 23.8105 34.0634C24.3415 33.3584 24.5 32.4914 24.6445 31.6245C24.7891 30.7575 24.9087 29.9417 25.0671 29.1287C25.2534 28.2077 25.9152 27.9092 26.7131 27.6108C27.3998 27.3265 28.0892 27.0963 28.7787 26.8518C29.0706 26.7438 29.8408 26.6898 29.9742 26.3657C30.1327 25.9564 29.521 25.7688 29.2569 25.6324C28.4896 25.2799 27.6388 25.1179 26.8965 24.7796C26.0485 24.3731 25.7316 23.833 25.4119 22.9916C24.8031 21.3117 24.8559 19.5208 24.2471 17.875C24.0858 17.4969 23.8745 17.0905 23.5298 17.3605C23.185 17.6306 22.9459 18.4719 22.6957 18.8244C22.034 19.8563 21.8477 21.1298 21.3723 22.2668C21.1332 22.8097 20.9191 23.7307 20.4687 24.1116C19.9655 24.5465 18.9842 24.6261 18.3753 24.7341C17.3939 24.9245 15.5619 24.7739 15.459 25.6579C15.3561 26.542 17.0742 26.9342 17.8971 27.2327Z" fill="#FF7E36"/>
</svg>
