<svg width="138" height="22" viewBox="0 0 138 22" fill="none" xmlns="http://www.w3.org/2000/svg">
<path d="M136.5 10.742C132.926 10.742 129.889 10.7861 126.467 9.76403C119.229 7.60254 113.305 5.35635 105.446 5.62796C102.697 5.72299 99.896 5.97974 97.2191 6.50407C95.3542 6.86934 92.0814 7.21083 90.5468 8.2563C88.9744 9.32755 86.8715 11.8046 88.7408 13.4315C89.3353 13.9489 92.5155 15.6713 92.6789 14.1446C93.2778 8.55082 84.774 7.56203 79.5853 7.46169C73.0108 7.33453 66.421 7.44131 59.8445 7.44131C57.5037 7.44131 52.3037 9.40835 52.0686 11.557C51.8129 13.8934 52.9024 15.0814 55.4298 16.0394C57.1412 16.6882 58.1935 16.1642 57.888 14.6132C57.4748 12.516 50.389 10.6626 48.2559 9.92702C43.981 8.45291 39.5805 7.00289 34.8612 8.13405C29.4352 9.43458 25.9314 11.8958 25.9314 16.5284C25.9314 19.7715 34.3703 21.0699 35.087 17.7713C36.6485 10.5836 27.0578 8.831 20.2625 7.44131C14.7151 6.30682 7.89239 6.10038 2.80435 3.85536C1.94826 3.47763 1.5 3.06517 1.5 2.30688" stroke="#05CD82" stroke-width="3" stroke-linecap="round"/>
</svg>
