<svg width="172" height="40" viewBox="0 0 172 40" fill="none" xmlns="http://www.w3.org/2000/svg">
<g opacity="0.5">
<path d="M171.215 24.2263C171.486 25.8437 171.694 27.1017 171.944 28.3417C172.057 28.7538 171.998 29.1871 171.777 29.5652C171.556 29.9433 171.187 30.2419 170.736 30.4084C168.742 31.5706 166.493 32.3666 164.127 32.7469C161.762 33.1272 159.331 33.0836 156.986 32.6188C154.985 32.186 153.039 31.584 151.174 30.8217C149.279 30.1208 147.404 29.402 145.55 28.6292C142.49 27.3648 139.141 26.7084 135.748 26.7084C132.356 26.7084 129.006 27.3648 125.947 28.6292C123.44 29.611 121.06 30.8156 118.843 32.2235C116.76 33.5174 114.51 34.8472 112.302 36.0872C109.672 37.5665 106.748 38.6144 103.677 39.1783C99.1241 39.89 94.4343 39.5617 90.0739 38.2258C86.7394 37.2441 83.5619 35.9037 80.6162 34.2362C77.8872 32.7446 75.1998 31.1991 72.4291 29.7614C69.9918 28.5034 67.5128 27.2994 64.9921 26.1672C63.0806 25.308 61.0299 24.7022 58.9091 24.3701C55.3122 23.82 51.6055 24.2931 48.3473 25.7179C46.0916 26.7337 43.9565 27.9375 41.9727 29.3121C39.4103 31.0194 36.8897 32.7626 34.2649 34.38C30.5677 36.7851 26.2991 38.4544 21.7656 39.2681C18.5821 39.8083 15.2953 39.6874 12.1766 38.9156C9.05785 38.1438 6.19663 36.7431 3.82919 34.8292C3.53593 34.6034 3.25774 34.3634 2.99592 34.1104C0.371084 31.8101 0.371074 31.8101 1.16269 28.3237C1.72516 28.162 2.05848 28.5573 2.41263 28.791C5.01699 30.4744 7.80822 31.9311 10.7454 33.1399C12.8362 34.0816 15.1441 34.609 17.5011 34.6836C19.858 34.7582 22.2045 34.3782 24.3696 33.5713C27.1685 32.5562 29.8073 31.2398 32.2233 29.6536C34.7231 28.0362 37.1813 26.3469 39.6603 24.7115C41.6732 23.3578 43.8446 22.1894 46.1391 21.2251C51.2919 19.0368 57.2255 18.6505 62.7006 20.1469C65.0378 20.7765 67.2983 21.6011 69.4502 22.6089C73.1999 24.2802 76.7206 26.2031 80.262 28.2159C82.8486 29.7446 85.5487 31.1254 88.3448 32.3493C91.6818 33.7841 95.3457 34.5635 99.0733 34.6316C101.827 34.6381 104.545 34.0904 107.01 33.0321C108.753 32.2633 110.424 31.3801 112.01 30.3904C114.093 29.0965 116.343 27.7666 118.572 26.5446C122.547 24.3632 126.988 22.8906 131.634 22.2135C136.086 21.5296 140.669 21.8896 144.904 23.2558C146.654 23.8129 148.32 24.5139 150.029 25.1428C152.112 25.8976 154.195 26.7423 156.278 27.4072C158.201 28.0567 160.281 28.285 162.331 28.0718C164.381 27.8585 166.338 27.2103 168.027 26.1851C168.965 25.6101 169.902 25.017 171.215 24.2263Z" fill="#C7D9D2"/>
<path d="M2.142 22.5176C3.7669 23.0028 4.97515 23.3442 6.16258 23.6857C8.20603 24.2669 10.2944 24.7234 12.4122 25.0515C16.3963 25.6754 20.5079 25.1181 24.0782 23.47C26.4947 22.3918 28.8279 21.1158 31.1402 19.8758C35.7467 17.3169 40.6304 15.1502 45.7227 13.4062C50.1828 11.8679 54.9046 10.9695 59.701 10.7465C64.0153 10.6664 68.3095 11.2757 72.3668 12.5436C76.7035 13.8543 80.9467 15.3845 85.0744 17.1262C88.095 18.3303 91.1157 19.5344 94.178 20.7205C96.5177 21.577 98.9543 22.2214 101.448 22.6434C105.509 23.3677 109.731 22.9651 113.51 21.4932C115.739 20.6306 117.885 19.6961 120.031 18.5999C123.364 17.0184 126.634 15.3291 129.967 13.7297C132.51 12.4547 135.244 11.4872 138.092 10.8543C142.496 9.96928 147.087 10.0496 151.445 11.0879C154.453 11.8307 157.506 12.4306 160.591 12.885C163.303 13.4009 166.128 13.2642 168.757 12.4897C169.419 13.8399 169.711 15.3034 169.611 16.7668C169.611 16.9356 169.548 17.1 169.432 17.2358C169.316 17.3716 169.152 17.4717 168.965 17.5216C167.951 17.8405 166.877 17.9929 165.799 17.9709C161.685 18.058 157.58 17.5912 153.633 16.5871C151.201 15.9505 148.714 15.4817 146.196 15.1854C142.772 14.883 139.315 15.3408 136.155 16.5152C133.216 17.6781 130.357 18.9862 127.593 20.4329C124.218 22.1222 120.885 23.9013 117.343 25.357C114.801 26.4415 112.083 27.1869 109.281 27.5675C105.196 28.0368 101.041 27.7488 97.0945 26.7228C94.0888 25.9526 91.1509 24.9977 88.3033 23.8654C84.4078 22.3199 80.5122 20.7384 76.575 19.2109C74.8876 18.5639 73.1376 18.0068 71.4086 17.4138C64.3773 15.105 56.6078 15.105 49.5766 17.4138C44.4136 19.0134 39.4736 21.105 34.8484 23.6498C32.3693 24.9976 29.8903 26.3454 27.3279 27.5854C24.1458 29.1542 20.5739 30.0417 16.9119 30.1733C12.5982 30.3343 8.29268 29.7224 4.26685 28.3762C3.64189 28.1605 3.05865 27.837 2.43368 27.5674C2.11199 27.4599 1.84308 27.26 1.67232 27.0014C1.50156 26.7427 1.43936 26.4413 1.49622 26.1477L2.142 22.5176Z" fill="#C7D9D2"/>
<path d="M161.548 9.8238C159.29 9.75184 157.054 9.41323 154.903 8.81742C152.57 8.17046 150.278 7.45166 147.945 6.78673C146.362 6.33745 144.779 5.9061 143.195 5.51074C140.527 4.88477 137.697 5.00431 135.113 5.8522C132.625 6.62578 130.243 7.6322 128.009 8.8534C125.032 10.4812 122.154 12.2387 119.384 14.1189C117.217 15.568 114.934 16.8832 112.551 18.0546C111.364 18.6448 110.14 19.1787 108.885 19.654C104.375 21.4115 99.2726 21.6738 94.5526 20.3908C91.3697 19.5241 88.3253 18.3166 85.4907 16.7966C83.4075 15.6464 81.3242 14.3885 79.0744 13.2024C76.8245 12.0163 74.0955 10.5247 71.554 9.26669C69.5008 8.2752 67.3283 7.47981 65.0752 6.89455C61.8791 6.0514 58.4735 5.99533 55.2425 6.73276C51.7321 7.52662 48.3464 8.68527 45.1598 10.1832C42.5766 11.3873 40.0559 12.6632 37.4727 13.8853C34.9929 15.0811 32.3656 16.0336 29.6399 16.7247C26.153 17.6121 22.4801 17.8147 18.8906 17.3178C14.62 16.791 10.4722 15.6872 6.59969 14.047C3.59987 12.7351 3.20405 11.7827 4.18316 8.96121C4.20351 8.85518 4.25336 8.75495 4.32843 8.66917C4.40349 8.58339 4.5015 8.5146 4.61413 8.46866C4.72677 8.42273 4.85063 8.40108 4.97511 8.40548C5.09959 8.40988 5.221 8.44022 5.3289 8.49395C6.97463 9.03308 8.6204 9.55427 10.2453 10.1473C12.764 11.0822 15.3892 11.7869 18.0781 12.2499C22.31 13.0826 26.7393 12.7301 30.7232 11.2435C32.8064 10.4528 34.7646 9.44645 36.7436 8.63775C39.0976 7.57745 41.3684 6.4093 43.7016 5.349C46.6606 4.0332 49.7665 2.9795 52.9718 2.20406C58.0842 0.886414 63.5599 1.07615 68.5333 2.74323C71.2819 3.63085 73.9315 4.73157 76.4496 6.03192C79.3661 7.57743 82.2409 9.19484 85.0949 10.8122C87.7632 12.3929 90.6027 13.747 93.5735 14.8557C95.1873 15.4666 96.8906 15.8838 98.6357 16.0958C101.563 16.4277 104.538 16.0155 107.198 14.9097C109.813 13.8202 112.303 12.5205 114.635 11.0279C116.843 9.62614 119.009 8.18846 121.238 6.82265C124.416 4.8416 127.831 3.16064 131.425 1.8087C136.139 0.0219739 141.452 -0.195687 146.341 1.19768C148.57 1.8087 150.757 2.56352 152.987 3.19251C154.841 3.6957 156.736 4.127 158.611 4.59425C160.996 5.1435 163.519 5.04939 165.84 4.32464C167.298 3.89333 167.444 4.00117 167.652 5.34901C167.652 5.76234 167.652 6.19367 167.798 6.60701C168.236 8.79948 168.652 8.85337 165.257 9.50033C164.03 9.67784 162.791 9.78589 161.548 9.8238Z" fill="#C7D9D2"/>
</g>
</svg>
