<svg width="230" height="230" viewBox="0 0 230 230" fill="none" xmlns="http://www.w3.org/2000/svg">
<g clip-path="url(#clip0_648_3551)">
<path fill-rule="evenodd" clip-rule="evenodd" d="M130.887 77.3445C113.462 60.837 92.3225 46.4768 68.782 41.8729C60.2168 40.1968 51.7818 40.5358 43.1431 40.8051C42.5373 40.8231 42.0585 41.3318 42.0757 41.9404C42.0957 42.5497 42.6044 43.0285 43.2137 43.0085C51.6855 42.7455 59.9588 42.3932 68.3584 44.0369C91.5649 48.5754 112.372 62.7984 129.524 79.0887L129.294 79.3728C126.796 82.4503 126.396 87.8118 127.513 93.85C129.112 102.505 133.708 112.577 138.613 118.774C140.818 121.558 143.108 123.566 145.21 124.421C146.849 125.088 148.406 125.097 149.802 124.383C152.777 122.861 153.682 119.146 152.931 114.356C151.363 104.339 142.872 89.4259 137.566 83.9508C135.908 82.2417 134.212 80.5433 132.477 78.8674C132.901 78.3141 133.32 77.7741 133.75 77.2674C134.98 75.8272 136.334 74.6426 138.464 74.1525C141.783 73.3924 145.339 74.0598 148.799 75.4134C154.196 77.5297 159.351 81.3358 163.072 84.4151C183.794 101.566 190.464 123.47 191.69 143.993C192.924 164.72 188.63 184.062 187.484 195.843C187.424 196.449 187.869 196.986 188.474 197.046C189.08 197.106 189.62 196.662 189.677 196.055C190.832 184.199 195.133 164.726 193.888 143.861C192.635 122.793 185.75 100.323 164.48 82.716C160.604 79.508 155.225 75.5637 149.604 73.3606C145.712 71.8371 141.705 71.148 137.97 72.0039C134.617 72.7734 132.801 74.8887 130.887 77.3445ZM131.12 80.6222L131.004 80.7625C128.82 83.4524 128.704 88.1688 129.681 93.4486C131.218 101.766 135.628 111.448 140.344 117.405C141.96 119.449 143.603 121.046 145.18 121.955C146.482 122.703 147.713 122.976 148.796 122.419C149.822 121.898 150.425 120.962 150.73 119.767C151.091 118.365 151.056 116.633 150.754 114.699C149.247 105.073 141.081 90.7461 135.983 85.4857C134.398 83.8532 132.778 82.2292 131.12 80.6222Z" fill="black"/>
<path fill-rule="evenodd" clip-rule="evenodd" d="M39.5573 43.377C39.7722 42.9448 40.2374 42.4534 40.7439 41.9311C41.9491 40.6856 43.5246 39.4371 44.2432 38.8184C44.7047 38.4192 44.753 37.723 44.3567 37.2623C43.9575 36.8008 43.2621 36.7496 42.8006 37.1488C41.9212 37.9077 39.8247 39.5755 38.5357 41.078C37.8448 41.8845 37.3858 42.6779 37.2718 43.3054C37.0757 44.3737 37.7277 45.2485 39.3782 45.6487C41.331 46.1208 45.1942 46.1133 47.8974 48.0907C48.387 48.4502 49.0802 48.3414 49.4369 47.8511C49.7972 47.3587 49.6906 46.6691 49.1982 46.3088C46.6201 44.4251 43.1236 44.0621 40.8067 43.6817C40.3665 43.6088 39.8578 43.4665 39.5573 43.377Z" fill="black"/>
</g>
<defs>
<clipPath id="clip0_648_3551">
<rect width="187" height="187" fill="white" transform="translate(180.628 229.888) rotate(-165)"/>
</clipPath>
</defs>
</svg>
