<svg width="64" height="47" viewBox="0 0 64 47" fill="none" xmlns="http://www.w3.org/2000/svg">
<path d="M13.9841 0.130318C6.27565 0.515918 -0.281268 6.3925 0.00930285 14.1051C0.253854 20.5961 4.83143 26.7978 10.7591 26.7978C14.4878 26.7978 17.0005 30.2256 14.4993 32.991C11.656 36.1346 9.44508 37.9083 5.49692 39.9443C3.99849 40.7171 2.81422 40.5592 1.53339 41.6555C-0.312119 43.2351 1.11668 46.7684 3.54573 46.7981C3.56132 46.7983 3.57694 46.7984 3.59257 46.7984C14.9245 46.7984 24.5271 31.1308 27.6256 25.4723C28.3521 24.1457 28.8659 22.7268 29.1111 21.2343C29.5819 18.3677 30.0901 13.3744 28.6755 10.1306C25.9011 3.76887 20.9158 -0.21643 13.9841 0.130318Z" fill="#19131A"/>
<path d="M48.383 0.130318C40.6746 0.515918 34.1177 6.3925 34.4082 14.1051C34.6528 20.5961 39.2304 26.7978 45.158 26.7978C48.8867 26.7978 51.3995 30.2256 48.8982 32.991C46.0549 36.1346 43.844 37.9083 39.8958 39.9443C38.3974 40.7171 37.2131 40.5592 35.9323 41.6555C34.0868 43.2351 35.5156 46.7684 37.9447 46.7981C37.9602 46.7983 37.9759 46.7984 37.9915 46.7984C49.3235 46.7984 58.926 31.1308 62.0246 25.4723C62.751 24.1457 63.2649 22.7268 63.51 21.2343C63.9809 18.3677 64.489 13.3744 63.0744 10.1306C60.3 3.76887 55.3147 -0.21643 48.383 0.130318Z" fill="#19131A"/>
</svg>
