<svg width="74" height="68" viewBox="0 0 74 68" fill="none" xmlns="http://www.w3.org/2000/svg">
<path fill-rule="evenodd" clip-rule="evenodd" d="M4.90584 23.3649C6.70184 16.9649 7.60783 10.2643 8.43784 3.7643C8.61184 2.3643 7.64084 1.0645 6.27284 0.964499C4.90384 0.764499 3.65184 1.76509 3.47784 3.06509C2.67884 9.36509 1.82385 15.8645 0.0948477 21.9645C-0.280152 23.2645 0.491838 24.6651 1.81984 25.0651C3.14684 25.4651 4.52984 24.6649 4.90584 23.3649Z" fill="#1B1C37"/>
<path fill-rule="evenodd" clip-rule="evenodd" d="M30.3687 42.7641C40.8797 32.4641 50.0377 20.8641 60.8307 10.7641C61.8387 9.86406 61.8927 8.26406 60.9517 7.26406C60.0097 6.26406 58.4257 6.16445 57.4177 7.16445C46.5937 17.2645 37.4057 28.8645 26.8637 39.1645C25.8797 40.1645 25.8657 41.7641 26.8337 42.7641C27.8007 43.6641 29.3847 43.7641 30.3687 42.7641Z" fill="#1B1C37"/>
<path fill-rule="evenodd" clip-rule="evenodd" d="M70.7978 62.0654C64.7818 62.3654 58.7658 62.6648 52.7488 62.9648C51.3708 62.9648 50.3068 64.1654 50.3738 65.5654C50.4418 66.9654 51.6148 67.9648 52.9938 67.9648C59.0198 67.6648 65.0448 67.3654 71.0698 67.0654C72.4478 66.9654 73.5048 65.7652 73.4298 64.3652C73.3548 63.0652 72.1748 61.9654 70.7978 62.0654Z" fill="#1B1C37"/>
</svg>
