<svg width="156" height="94" viewBox="0 0 156 94" fill="none" xmlns="http://www.w3.org/2000/svg">
<path fill-rule="evenodd" clip-rule="evenodd" d="M112.478 89.3527C126.406 89.6892 140.64 89.0161 153.957 93.7892C154.751 94.0707 155.624 93.6607 155.911 92.8652C156.192 92.0696 155.783 91.1946 154.989 90.907C141.36 86.0238 126.803 86.6357 112.552 86.293C111.709 86.2685 111.007 86.9417 110.988 87.7861C110.964 88.6306 111.636 89.3282 112.478 89.3527Z" fill="url(#paint0_linear_648_3488)"/>
<path fill-rule="evenodd" clip-rule="evenodd" d="M111.226 69.0873C115.568 65.084 120.306 62.085 126.034 60.5986C126.852 60.3869 127.341 59.5516 127.133 58.734C126.919 57.9165 126.083 57.4251 125.271 57.6368C119.042 59.2523 113.883 62.4846 109.163 66.8348C108.54 67.4063 108.497 68.375 109.071 68.9968C109.639 69.6179 110.61 69.6588 111.226 69.0873Z" fill="url(#paint1_linear_648_3488)"/>
<path fill-rule="evenodd" clip-rule="evenodd" d="M99.1487 25.3813C101.139 18.5429 105.059 13.1934 111.068 9.33031C111.776 8.87442 111.984 7.92716 111.526 7.21671C111.074 6.50626 110.128 6.29941 109.419 6.7553C102.77 11.0327 98.422 16.9525 96.2177 24.524C95.9796 25.3342 96.4498 26.1848 97.2558 26.421C98.0679 26.6578 98.9167 26.1915 99.1487 25.3813Z" fill="url(#paint2_linear_648_3488)"/>
<path fill-rule="evenodd" clip-rule="evenodd" d="M30.546 16.1007C29.3614 17.4978 28.2989 19.0031 27.3952 20.6058C26.9922 21.3193 26.2839 22.8356 26.174 24.136C26.0518 25.5214 26.522 26.6902 27.731 27.3058C29.3369 28.1221 30.6193 28.0371 31.6085 27.5433C32.561 27.069 33.3059 26.137 33.7761 24.8875C34.6737 22.4991 34.5394 18.8489 34.0692 16.7659C35.3332 15.4588 36.7193 14.2735 38.2031 13.2197C49.2552 5.37169 65.4671 8.26553 77.942 19.9999C82.3079 24.1085 84.4084 32.7367 85.5014 42.046C87.205 56.5409 86.2342 72.7302 86.0998 77.4733C86.0693 78.6445 86.1792 79.3396 86.2402 79.4786C86.5272 80.1615 87.034 80.3389 87.3882 80.4062C87.9011 80.498 88.3102 80.4001 88.6399 80.2288C89.0857 79.9938 89.4521 79.5801 89.6231 78.9419C89.7147 78.5894 89.7391 78.0987 89.7268 77.5755C89.7146 77.2126 89.6413 76.816 89.7146 76.556C90.1909 74.8903 90.7649 73.2638 91.3266 71.6256C93.2012 66.1188 95.6254 60.9584 98.3182 55.8041C106.873 39.4264 115.147 22.1215 129.173 9.6436C129.802 9.08368 129.863 8.11561 129.301 7.48409C128.745 6.85258 127.78 6.79504 127.145 7.35557C112.839 20.0801 104.339 37.6829 95.6132 54.385C93.3234 58.7695 91.2228 63.1602 89.4765 67.7527C89.6535 59.6287 89.5864 48.3832 88.1026 38.4332C86.7836 29.584 84.274 21.7635 80.0303 17.7694C66.3647 4.91458 48.5408 2.12602 36.4384 10.7237C35.1439 11.644 33.9105 12.6562 32.7625 13.754C26.4304 2.29554 12.8747 -2.29704 0.894452 3.18342C0.125076 3.53406 -0.210757 4.44217 0.137294 5.21015C0.491452 5.97813 1.39513 6.31715 2.16451 5.96651C12.9602 1.02822 25.2031 5.43534 30.546 16.1007ZM31.4314 19.9369C30.9368 20.637 30.4788 21.3627 30.0514 22.113C29.8254 22.5156 29.4346 23.2897 29.2698 24.0473C29.2331 24.2247 29.227 24.5025 29.227 24.631C29.6484 24.8391 29.9781 24.9395 30.2467 24.8042C30.5826 24.6378 30.7536 24.2461 30.9185 23.8086C31.3337 22.7108 31.468 21.2556 31.4314 19.9369Z" fill="url(#paint3_linear_648_3488)"/>
<defs>
<linearGradient id="paint0_linear_648_3488" x1="110.988" y1="90.0851" x2="156" y2="90.0851" gradientUnits="userSpaceOnUse">
<stop stop-color="#B224EF"/>
<stop offset="1" stop-color="#7579FF"/>
</linearGradient>
<linearGradient id="paint1_linear_648_3488" x1="108.667" y1="63.5391" x2="127.181" y2="63.5391" gradientUnits="userSpaceOnUse">
<stop stop-color="#B224EF"/>
<stop offset="1" stop-color="#7579FF"/>
</linearGradient>
<linearGradient id="paint2_linear_648_3488" x1="96.1558" y1="16.4979" x2="111.769" y2="16.4979" gradientUnits="userSpaceOnUse">
<stop stop-color="#B224EF"/>
<stop offset="1" stop-color="#7579FF"/>
</linearGradient>
<linearGradient id="paint3_linear_648_3488" x1="0" y1="40.6597" x2="129.686" y2="40.6597" gradientUnits="userSpaceOnUse">
<stop stop-color="#B224EF"/>
<stop offset="1" stop-color="#7579FF"/>
</linearGradient>
</defs>
</svg>
