<svg width="41" height="41" viewBox="0 0 41 41" fill="none" xmlns="http://www.w3.org/2000/svg">
<path d="M30.641 8.45752C27.601 8.55072 27.6018 12.9243 30.641 13.0167C33.681 12.9235 33.6802 8.54992 30.641 8.45752ZM20.5002 11.0967C15.1122 11.0967 10.7446 15.4759 10.7446 20.8779C11.2586 33.8527 29.7434 33.8491 30.2554 20.8779C30.2558 15.4759 25.8878 11.0967 20.5002 11.0967ZM20.5002 27.2271C17.003 27.2271 14.1678 24.3843 14.1678 20.8779C14.5014 12.4559 26.5006 12.4579 26.833 20.8779C26.8326 24.3847 23.9974 27.2271 20.5002 27.2271Z" fill="url(#paint0_linear_648_3765)"/>
<path d="M39.3834 13.0452C39.2426 6.37838 35.001 2.13438 28.3326 1.99478C26.7314 1.84038 14.2698 1.83758 12.6674 1.99478C6.0006 2.13558 1.7566 6.37718 1.617 13.0456C1.4626 14.6444 1.4594 27.11 1.617 28.7108C1.7414 35.356 6.0214 39.6372 12.6674 39.7612C14.2686 39.9172 26.7302 39.9172 28.3326 39.7612C30.3546 39.6688 31.7358 39.3476 32.9442 38.878C37.179 37.1864 39.2482 33.4236 39.3834 28.7104C39.5378 27.1092 39.5406 14.6476 39.3834 13.0452ZM28.1766 36.3416C26.601 36.492 14.4002 36.4944 12.8234 36.3416C10.9714 36.2572 9.9654 35.9476 9.2958 35.6876C3.5162 33.0068 5.3082 27.5856 5.0358 20.1444C5.0418 18.416 5.0322 14.93 5.0362 13.2016C5.267 8.04878 7.6938 5.66318 12.8234 5.41438C14.401 5.26398 26.5986 5.26158 28.1766 5.41438C33.331 5.64518 35.7142 8.07198 35.9638 13.2012C36.0658 14.4328 36.1398 21.156 35.9638 24.5584C36.1538 30.9488 35.8626 35.9668 28.1766 36.3416Z" fill="url(#paint1_linear_648_3765)"/>
<defs>
<linearGradient id="paint0_linear_648_3765" x1="10.7446" y1="19.5326" x2="32.9207" y2="19.5326" gradientUnits="userSpaceOnUse">
<stop stop-color="#B224EF"/>
<stop offset="1" stop-color="#7579FF"/>
</linearGradient>
<linearGradient id="paint1_linear_648_3765" x1="1.5" y1="20.8781" x2="39.5003" y2="20.8781" gradientUnits="userSpaceOnUse">
<stop stop-color="#B224EF"/>
<stop offset="1" stop-color="#7579FF"/>
</linearGradient>
</defs>
</svg>
