<svg width="26" height="34" viewBox="0 0 26 34" fill="none" xmlns="http://www.w3.org/2000/svg">
<path d="M14.543 32.9746C17.8828 28.7479 25.5 18.5039 25.5 12.7498C25.5 5.77125 19.901 0.109375 13 0.109375C6.09896 0.109375 0.5 5.77125 0.5 12.7498C0.5 18.5039 8.11719 28.7479 11.457 32.9746C12.2578 33.9819 13.7422 33.9819 14.543 32.9746ZM13 16.9633C10.7018 16.9633 8.83333 15.0738 8.83333 12.7498C8.83333 10.4258 10.7018 8.53636 13 8.53636C15.2982 8.53636 17.1667 10.4258 17.1667 12.7498C17.1667 15.0738 15.2982 16.9633 13 16.9633Z" fill="#FFC439"/>
</svg>
