<svg width="201" height="97" viewBox="0 0 201 97" fill="none" xmlns="http://www.w3.org/2000/svg">
<g clip-path="url(#clip0_648_3684)">
<ellipse cx="13.0087" cy="13.0916" rx="12.579" ry="12.2122" fill="#EDEEFF"/>
<ellipse cx="56.8554" cy="13.0916" rx="12.579" ry="12.2122" fill="#EDEEFF"/>
<ellipse cx="99.9838" cy="13.0916" rx="12.579" ry="12.2122" fill="#EDEEFF"/>
<ellipse cx="144.549" cy="13.0916" rx="12.579" ry="12.2122" fill="#EDEEFF"/>
<ellipse cx="187.677" cy="13.0916" rx="12.579" ry="12.2122" fill="#EDEEFF"/>
<ellipse cx="13.0087" cy="48.6816" rx="12.579" ry="12.2122" fill="#EDEEFF"/>
<ellipse cx="56.8554" cy="48.6815" rx="12.579" ry="12.2122" fill="#EDEEFF"/>
<ellipse cx="99.9838" cy="48.6815" rx="12.579" ry="12.2122" fill="#EDEEFF"/>
<ellipse cx="144.549" cy="48.6815" rx="12.579" ry="12.2122" fill="#EDEEFF"/>
<ellipse cx="187.677" cy="48.6815" rx="12.579" ry="12.2122" fill="#EDEEFF"/>
<ellipse cx="13.0087" cy="84.2715" rx="12.579" ry="12.2122" fill="#EDEEFF"/>
<ellipse cx="56.8554" cy="84.2715" rx="12.579" ry="12.2122" fill="#EDEEFF"/>
<ellipse cx="99.9838" cy="84.2715" rx="12.579" ry="12.2122" fill="#EDEEFF"/>
<ellipse cx="144.549" cy="84.2715" rx="12.579" ry="12.2122" fill="#EDEEFF"/>
<ellipse cx="187.677" cy="84.2715" rx="12.579" ry="12.2122" fill="#EDEEFF"/>
</g>
<defs>
<clipPath id="clip0_648_3684">
<rect width="201" height="97" fill="white"/>
</clipPath>
</defs>
</svg>
