<svg width="175" height="24" viewBox="0 0 175 24" fill="none" xmlns="http://www.w3.org/2000/svg">
<path fill-rule="evenodd" clip-rule="evenodd" d="M46.9035 14.4226C39.4169 16.501 30.7732 18.5695 22.458 19.086C15.3508 19.5268 8.48587 18.8421 2.86685 15.9289C2.07477 15.5187 1.08287 15.8007 0.654502 16.5598C0.225484 17.3183 0.520635 18.2681 1.31272 18.6789C7.44238 21.856 14.9165 22.6871 22.6689 22.2056C31.1337 21.6803 39.9334 19.5981 47.5702 17.4896C48.4563 19.2085 50.2913 20.8112 53.5236 21.9936C58.4883 23.8101 65.267 23.7876 72.4082 22.7639C82.7653 21.2801 93.9067 17.7416 101.07 15.2273C101.364 15.1248 101.801 14.9616 102.337 14.7465C102.5 15.0916 102.683 15.4318 102.885 15.7657C104.642 18.6758 107.75 21.0288 110.917 21.8692C131.003 27.1979 154.446 20.813 173.533 15.6168C174.395 15.3811 174.898 14.5157 174.656 13.686C174.408 12.8562 173.507 12.3741 172.638 12.6098C154.087 17.661 131.31 24.0339 111.786 18.8559C109.383 18.2181 107.045 16.4097 105.713 14.2012C105.563 13.9548 105.432 13.7028 105.308 13.4471C107.94 12.1984 111.035 10.4576 112.7 8.5942C114.411 6.68393 114.835 4.64485 113.346 2.71895C112.067 1.07255 110.127 0.932483 108.109 1.78601C105.935 2.70019 103.695 4.83741 102.97 5.84038C101.612 7.71376 101.181 9.74599 101.429 11.7275C100.789 11.9864 100.27 12.179 99.9489 12.2915C92.9423 14.7502 82.0523 18.2206 71.925 19.6719C65.4087 20.6061 59.219 20.7305 54.6885 19.0735C52.7563 18.3663 51.4797 17.5409 50.7869 16.583C52.1542 16.1915 53.4727 15.8063 54.7323 15.4387C57.2235 14.7114 62.4102 13.5078 66.1159 11.3624C69.0629 9.65658 71.0611 7.33611 70.9448 4.42725C70.8854 2.9328 69.9823 1.93544 68.5451 1.37642C66.3974 0.541656 62.6831 0.945587 61.3001 1.22697C57.1053 2.07862 51.5065 5.60404 48.7365 9.57653C47.631 11.1616 46.9734 12.8199 46.9035 14.4226ZM50.3494 13.4458C51.5345 13.1044 52.6799 12.7693 53.7802 12.4479C56.1055 11.7688 60.9664 10.6902 64.4266 8.68672C66.2589 7.62622 67.7549 6.35564 67.6825 4.54666C67.6766 4.40597 67.531 4.36597 67.4023 4.30844C67.2032 4.22027 66.9753 4.1596 66.7323 4.11208C65.0888 3.79068 62.881 4.10144 61.9772 4.28527C58.4576 4.99998 53.7756 7.97952 51.4516 11.313C50.9606 12.017 50.5694 12.7343 50.3494 13.4458ZM104.655 10.2881C106.19 9.53213 107.796 8.61794 109.063 7.6231C109.735 7.09473 110.303 6.55137 110.663 5.98735C110.963 5.52088 111.08 5.04313 110.721 4.58166C110.578 4.3947 110.362 4.39097 110.14 4.42599C109.905 4.46351 109.664 4.54352 109.422 4.6467C107.829 5.31826 106.183 6.88713 105.654 7.6231C105.034 8.47662 104.727 9.37956 104.655 10.2881Z" fill="url(#paint0_linear_674_4740)"/>
<defs>
<linearGradient id="paint0_linear_674_4740" x1="0.45752" y1="12.3779" x2="174.717" y2="12.3779" gradientUnits="userSpaceOnUse">
<stop stop-color="#B224EF"/>
<stop offset="1" stop-color="#7579FF"/>
</linearGradient>
</defs>
</svg>
