<svg width="100" height="99" viewBox="0 0 100 99" fill="none" xmlns="http://www.w3.org/2000/svg">
<mask id="path-1-outside-1_1099_753" maskUnits="userSpaceOnUse" x="-2.89898" y="-3.6331" width="105.587" height="106.294" fill="black">
<rect fill="white" x="-2.89898" y="-3.6331" width="105.587" height="106.294"/>
<path d="M25.8181 84.0736C31.5254 86.8694 37.4001 89.1452 43.3561 90.8748C45.1144 91.3859 47.0786 91.7659 48.8673 91.6519C51.5876 91.4785 50.7705 88.6014 48.1546 87.8353C44.6556 86.8105 45.3244 84.3869 48.8359 85.3682C49.1137 85.4458 49.3915 85.5203 49.6694 85.5905C50.9537 85.912 52.3068 86.1161 53.631 86.1274C57.1242 86.1572 56.2201 82.6052 52.8182 81.8116C49.0542 80.9334 45.3274 79.7126 41.6901 78.1684C41.0927 77.9147 40.8198 77.2242 41.0713 76.6259C41.3033 76.0743 41.9084 75.7802 42.4856 75.9384C46.5834 77.0617 50.6862 78.1766 54.7832 79.3014C58.7759 80.3891 62.9011 81.4908 66.8406 80.7915C68.7218 80.4576 70.5647 79.6103 72.0518 78.3273C74.4707 76.2403 71.8591 73.3957 68.6805 73.7157C67.7257 73.8118 66.7674 73.8833 65.8065 73.9302C60.8639 74.1717 61.1917 69.576 66.13 69.2579C68.8812 69.0806 71.6326 68.903 74.3846 68.7246C77.4096 68.5276 80.6329 68.2578 82.9302 66.1576C84.5598 64.659 85.4504 62.507 85.9554 60.1177C86.6307 56.9231 83.2409 54.5624 80.1432 55.5947C71.3294 58.5322 62.2359 60.5786 52.9958 61.6983C51.9677 61.8249 50.8777 61.9158 49.8142 61.8396C47.2529 61.6559 47.2118 58.5721 49.553 57.5171C53.3278 55.8162 57.6838 55.3674 61.8292 54.7391C69.9129 53.5134 77.8321 51.3419 85.4117 48.2718C86.3053 47.9136 87.2488 47.4826 87.7224 46.554C88.1826 45.6489 88.0863 44.4771 87.9662 43.4008C87.8677 42.4647 87.7695 41.5294 87.6714 40.5944C87.3264 37.3074 83.6834 35.4692 80.7237 36.9402C77.9613 38.3131 75.1394 39.5489 72.2682 40.6439C68.0138 42.2663 66.149 38.3657 70.109 36.1183C70.3043 36.0074 70.4997 35.8966 70.695 35.7859C74.5953 33.5763 78.5015 31.3652 82.4031 29.1503C84.1841 28.1393 85.0755 26.0557 84.4922 24.0924C83.3266 20.1693 81.9105 16.3219 80.2569 12.5983C79.8618 11.7144 79.429 10.8011 78.7054 10.2428C78.057 9.74353 77.2662 9.59914 76.5197 9.47255L68.2763 8.1247C66.0649 7.76312 63.9288 9.07404 63.1779 11.1853C61.7236 15.2745 60.0838 19.2651 58.2682 23.1364C56.4095 27.0995 51.6037 25.8517 52.4159 21.5504C52.7913 19.5626 53.2874 17.6147 53.9009 15.7254C54.9185 12.5913 52.8638 9.04826 49.5729 8.87974L49.1481 8.85799C46.9188 8.74382 44.9355 10.2686 44.4947 12.457C43.971 15.0565 43.4693 17.6638 42.9896 20.2782C42.0947 25.1558 37.2955 24.9339 37.9483 20.018C38.3937 16.6632 35.3724 13.7801 32.0825 14.5737C30.8046 14.882 29.5259 15.1905 28.2461 15.4993C27.6133 15.649 26.9577 15.8247 26.5069 16.3216C25.9744 16.9195 25.8462 17.8446 25.7518 18.7111C25.0012 25.6818 24.9032 32.7988 25.4482 39.9078C25.8086 44.6088 21.7442 46.1119 20.6496 41.526C20.1303 39.3503 19.7083 37.1335 19.3382 34.9206C18.8861 32.2169 16.2085 30.4689 13.5711 31.2161L12.1029 31.6321C11.2743 31.864 10.3793 32.1434 9.87286 32.9125C9.41618 33.6089 9.36746 34.5721 9.35007 35.4675C9.05142 53.2633 12.1472 77.3745 25.8273 84.0712M66.9895 14.1639C67.0912 13.7309 67.2096 13.3231 67.4887 12.9613C67.6228 12.7967 67.7827 12.6549 67.9167 12.4903C68.0372 12.3491 68.2003 12.256 68.3733 12.1997C68.8208 12.06 69.3634 12.2016 69.732 12.4691C69.8012 12.5188 69.8617 12.5758 69.9153 12.6383C70.1479 12.9092 70.3825 13.1911 70.5845 13.4856C70.671 13.6117 70.7416 13.7471 70.8107 13.8835C71.0135 14.2836 71.0095 14.7256 70.8301 15.1638C70.7165 15.4416 70.5795 15.706 70.4425 15.9703C70.3233 16.1903 70.1622 16.4017 69.9703 16.5719C69.637 16.8789 69.2234 17.1085 68.7753 17.2088C68.5537 17.2682 68.3129 17.2931 68.0808 17.2761C67.8277 17.2549 67.5755 17.0156 67.4103 16.8422C67.1007 16.4995 66.9358 16.0687 66.8263 15.623C66.6994 15.1126 66.8565 14.6647 66.9803 14.1664"/>
</mask>
<path d="M25.8181 84.0736C31.5254 86.8694 37.4001 89.1452 43.3561 90.8748C45.1144 91.3859 47.0786 91.7659 48.8673 91.6519C51.5876 91.4785 50.7705 88.6014 48.1546 87.8353C44.6556 86.8105 45.3244 84.3869 48.8359 85.3682C49.1137 85.4458 49.3915 85.5203 49.6694 85.5905C50.9537 85.912 52.3068 86.1161 53.631 86.1274C57.1242 86.1572 56.2201 82.6052 52.8182 81.8116C49.0542 80.9334 45.3274 79.7126 41.6901 78.1684C41.0927 77.9147 40.8198 77.2242 41.0713 76.6259C41.3033 76.0743 41.9084 75.7802 42.4856 75.9384C46.5834 77.0617 50.6862 78.1766 54.7832 79.3014C58.7759 80.3891 62.9011 81.4908 66.8406 80.7915C68.7218 80.4576 70.5647 79.6103 72.0518 78.3273C74.4707 76.2403 71.8591 73.3957 68.6805 73.7157C67.7257 73.8118 66.7674 73.8833 65.8065 73.9302C60.8639 74.1717 61.1917 69.576 66.13 69.2579C68.8812 69.0806 71.6326 68.903 74.3846 68.7246C77.4096 68.5276 80.6329 68.2578 82.9302 66.1576C84.5598 64.659 85.4504 62.507 85.9554 60.1177C86.6307 56.9231 83.2409 54.5624 80.1432 55.5947C71.3294 58.5322 62.2359 60.5786 52.9958 61.6983C51.9677 61.8249 50.8777 61.9158 49.8142 61.8396C47.2529 61.6559 47.2118 58.5721 49.553 57.5171C53.3278 55.8162 57.6838 55.3674 61.8292 54.7391C69.9129 53.5134 77.8321 51.3419 85.4117 48.2718C86.3053 47.9136 87.2488 47.4826 87.7224 46.554C88.1826 45.6489 88.0863 44.4771 87.9662 43.4008C87.8677 42.4647 87.7695 41.5294 87.6714 40.5944C87.3264 37.3074 83.6834 35.4692 80.7237 36.9402C77.9613 38.3131 75.1394 39.5489 72.2682 40.6439C68.0138 42.2663 66.149 38.3657 70.109 36.1183C70.3043 36.0074 70.4997 35.8966 70.695 35.7859C74.5953 33.5763 78.5015 31.3652 82.4031 29.1503C84.1841 28.1393 85.0755 26.0557 84.4922 24.0924C83.3266 20.1693 81.9105 16.3219 80.2569 12.5983C79.8618 11.7144 79.429 10.8011 78.7054 10.2428C78.057 9.74353 77.2662 9.59914 76.5197 9.47255L68.2763 8.1247C66.0649 7.76312 63.9288 9.07404 63.1779 11.1853C61.7236 15.2745 60.0838 19.2651 58.2682 23.1364C56.4095 27.0995 51.6037 25.8517 52.4159 21.5504C52.7913 19.5626 53.2874 17.6147 53.9009 15.7254C54.9185 12.5913 52.8638 9.04826 49.5729 8.87974L49.1481 8.85799C46.9188 8.74382 44.9355 10.2686 44.4947 12.457C43.971 15.0565 43.4693 17.6638 42.9896 20.2782C42.0947 25.1558 37.2955 24.9339 37.9483 20.018C38.3937 16.6632 35.3724 13.7801 32.0825 14.5737C30.8046 14.882 29.5259 15.1905 28.2461 15.4993C27.6133 15.649 26.9577 15.8247 26.5069 16.3216C25.9744 16.9195 25.8462 17.8446 25.7518 18.7111C25.0012 25.6818 24.9032 32.7988 25.4482 39.9078C25.8086 44.6088 21.7442 46.1119 20.6496 41.526C20.1303 39.3503 19.7083 37.1335 19.3382 34.9206C18.8861 32.2169 16.2085 30.4689 13.5711 31.2161L12.1029 31.6321C11.2743 31.864 10.3793 32.1434 9.87286 32.9125C9.41618 33.6089 9.36746 34.5721 9.35007 35.4675C9.05142 53.2633 12.1472 77.3745 25.8273 84.0712M66.9895 14.1639C67.0912 13.7309 67.2096 13.3231 67.4887 12.9613C67.6228 12.7967 67.7827 12.6549 67.9167 12.4903C68.0372 12.3491 68.2003 12.256 68.3733 12.1997C68.8208 12.06 69.3634 12.2016 69.732 12.4691C69.8012 12.5188 69.8617 12.5758 69.9153 12.6383C70.1479 12.9092 70.3825 13.1911 70.5845 13.4856C70.671 13.6117 70.7416 13.7471 70.8107 13.8835C71.0135 14.2836 71.0095 14.7256 70.8301 15.1638C70.7165 15.4416 70.5795 15.706 70.4425 15.9703C70.3233 16.1903 70.1622 16.4017 69.9703 16.5719C69.637 16.8789 69.2234 17.1085 68.7753 17.2088C68.5537 17.2682 68.3129 17.2931 68.0808 17.2761C67.8277 17.2549 67.5755 17.0156 67.4103 16.8422C67.1007 16.4995 66.9358 16.0687 66.8263 15.623C66.6994 15.1126 66.8565 14.6647 66.9803 14.1664" fill="#037547"/>
<path d="M43.3561 90.8748L44.1935 87.994L44.1927 87.9938L43.3561 90.8748ZM49.6694 85.5905L48.9348 88.4991L48.9408 88.5006L49.6694 85.5905ZM54.7832 79.3014L53.9889 82.1943L53.9946 82.1959L54.7832 79.3014ZM66.8406 80.7915L66.3162 77.8377L66.8406 80.7915ZM74.3846 68.7246L74.5787 71.7183L74.5795 71.7182L74.3846 68.7246ZM82.9302 66.1576L84.9544 68.3719L84.961 68.3658L82.9302 66.1576ZM52.9958 61.6983L52.6349 58.7201L52.6291 58.7208L52.9958 61.6983ZM61.8292 54.7391L62.2788 57.7053L62.279 57.7052L61.8292 54.7391ZM85.4117 48.2718L84.2955 45.4871L84.2854 45.4912L85.4117 48.2718ZM87.7224 46.554L90.3949 47.9172L90.3967 47.9135L87.7224 46.554ZM87.9662 43.4008L84.9826 43.7145C84.9833 43.7209 84.984 43.7273 84.9847 43.7337L87.9662 43.4008ZM70.695 35.7859L69.2163 33.1757L69.2154 33.1761L70.695 35.7859ZM80.2569 12.5983L82.9988 11.3807L82.9957 11.3738L80.2569 12.5983ZM78.7054 10.2428L80.538 7.86759L80.5357 7.8658L78.7054 10.2428ZM76.5197 9.47255L77.0213 6.51478C77.0155 6.51379 77.0096 6.51282 77.0038 6.51187L76.5197 9.47255ZM28.2461 15.4993L28.9371 18.4186L28.9497 18.4156L28.2461 15.4993ZM26.5069 16.3216L24.285 14.3059C24.2789 14.3127 24.2727 14.3195 24.2666 14.3263L26.5069 16.3216ZM25.7518 18.7111L22.7695 18.3863L22.7691 18.39L25.7518 18.7111ZM12.1029 31.6321L12.9115 34.521L12.9206 34.5185L12.1029 31.6321ZM9.87286 32.9125L7.36729 31.2626L7.36416 31.2674L9.87286 32.9125ZM9.35007 35.4675L6.35063 35.4092L6.35049 35.4171L9.35007 35.4675ZM67.4887 12.9613L65.1626 11.0668C65.1459 11.0872 65.1295 11.1079 65.1134 11.1288L67.4887 12.9613ZM67.9167 12.4903L65.6352 10.5424C65.6201 10.56 65.6052 10.5778 65.5906 10.5958L67.9167 12.4903ZM68.3733 12.1997L67.4793 9.33603C67.468 9.33954 67.4568 9.34312 67.4456 9.34677L68.3733 12.1997ZM69.732 12.4691L67.9701 14.8972L67.9809 14.905L69.732 12.4691ZM70.8301 15.1638L68.0538 14.0271L68.0531 14.0286L70.8301 15.1638ZM70.4425 15.9703L73.0802 17.3995C73.089 17.3833 73.0976 17.367 73.1061 17.3507L70.4425 15.9703ZM69.9703 16.5719L67.9799 14.3273C67.9658 14.3398 67.9518 14.3525 67.9379 14.3653L69.9703 16.5719ZM68.7753 17.2088L68.1201 14.2812C68.0795 14.2903 68.0391 14.3003 67.9988 14.311L68.7753 17.2088ZM68.0808 17.2761L67.8297 20.2656C67.8405 20.2665 67.8513 20.2674 67.8621 20.2682L68.0808 17.2761ZM67.4103 16.8422L65.1842 18.8532C65.2019 18.8728 65.2199 18.8922 65.2381 18.9114L67.4103 16.8422ZM66.8263 15.623L69.7396 14.907L69.7377 14.8993L66.8263 15.623ZM70.5845 13.4856L73.0585 11.7888L73.0585 11.7888L70.5845 13.4856ZM70.8107 13.8835L68.1346 15.2395L70.8107 13.8835ZM19.3382 34.9206L22.2971 34.4258L22.2971 34.4258L19.3382 34.9206ZM13.5711 31.2161L12.7534 28.3297L12.7534 28.3297L13.5711 31.2161ZM42.9896 20.2782L45.9403 20.8196L45.9403 20.8196L42.9896 20.2782ZM37.9483 20.018L34.9744 19.6232L37.9483 20.018ZM49.1481 8.85799L48.9947 11.8541L48.9947 11.8541L49.1481 8.85799ZM44.4947 12.457L41.5538 11.8645L44.4947 12.457ZM82.4031 29.1503L80.922 26.5414L82.4031 29.1503ZM84.4922 24.0924L87.368 23.238L84.4922 24.0924ZM72.2682 40.6439L73.3372 43.447L72.2682 40.6439ZM70.109 36.1183L71.5897 38.7274L71.5897 38.7274L70.109 36.1183ZM65.8065 73.9302L65.9528 76.9267L65.8065 73.9302ZM66.13 69.2579L65.9371 66.2641L66.13 69.2579ZM87.6714 40.5944L84.6878 40.9075L87.6714 40.5944ZM80.7237 36.9402L79.3885 34.2537L80.7237 36.9402ZM69.9153 12.6383L72.1912 10.6838L69.9153 12.6383ZM32.0825 14.5737L31.379 11.6574L32.0825 14.5737ZM72.0518 78.3273L70.0921 76.0558L70.0921 76.0558L72.0518 78.3273ZM68.6805 73.7157L68.9809 76.7006L68.6805 73.7157ZM58.2682 23.1364L60.9843 24.4102L58.2682 23.1364ZM52.4159 21.5504L49.468 20.9937L49.468 20.9937L52.4159 21.5504ZM41.6901 78.1684L40.5177 80.9298L40.5177 80.9298L41.6901 78.1684ZM41.0713 76.6259L43.8368 77.7889L41.0713 76.6259ZM49.8142 61.8396L49.5996 64.8319L49.8142 61.8396ZM49.553 57.5171L50.7854 60.2523L49.553 57.5171ZM68.2763 8.1247L67.7922 11.0854L67.7922 11.0854L68.2763 8.1247ZM63.1779 11.1853L60.3514 10.1801L60.3514 10.1801L63.1779 11.1853ZM53.631 86.1274L53.6566 83.1275L53.631 86.1274ZM52.8182 81.8116L52.1366 84.7331L52.1366 84.7331L52.8182 81.8116ZM25.4482 39.9078L22.457 40.1372L25.4482 39.9078ZM20.6496 41.526L17.7316 42.2224L20.6496 41.526ZM85.9554 60.1177L88.8906 60.7381L85.9554 60.1177ZM80.1432 55.5947L81.0918 58.4408L80.1432 55.5947ZM48.1546 87.8353L47.3114 90.7144L47.3114 90.7144L48.1546 87.8353ZM48.8359 85.3682L48.0284 88.2575L48.8359 85.3682ZM53.9009 15.7254L56.7542 16.6518L53.9009 15.7254ZM49.5729 8.87974L49.7264 5.88366L49.7263 5.88366L49.5729 8.87974ZM42.4856 75.9384L43.2787 73.0452L42.4856 75.9384ZM48.8673 91.6519L48.6765 88.658L48.8673 91.6519ZM24.4983 86.7678C30.3581 89.6382 36.3943 91.9771 42.5195 93.7557L44.1927 87.9938C38.4059 86.3134 32.6926 84.1006 27.1378 81.3795L24.4983 86.7678ZM42.5187 93.7555C44.4177 94.3075 46.7669 94.7919 49.0582 94.6458L48.6765 88.658C47.3902 88.74 45.8111 88.4642 44.1935 87.994L42.5187 93.7555ZM48.0284 88.2575C48.3267 88.3409 48.6291 88.4219 48.9348 88.4991L50.404 82.6818C50.1539 82.6186 49.9006 82.5508 49.6433 82.4789L48.0284 88.2575ZM48.9408 88.5006C50.4076 88.8679 51.9996 89.1136 53.6054 89.1273L53.6566 83.1275C52.6139 83.1186 51.4999 82.9562 50.398 82.6803L48.9408 88.5006ZM53.4998 78.89C49.9079 78.052 46.3451 76.8855 42.8625 75.4069L40.5177 80.9298C44.3097 82.5397 48.2005 83.8148 52.1366 84.7331L53.4998 78.89ZM41.6925 78.8317C45.8089 79.9601 49.8827 81.067 53.9889 82.1943L55.5774 76.4084C51.4896 75.2861 47.358 74.1634 43.2787 73.0452L41.6925 78.8317ZM53.9946 82.1959C57.8529 83.247 62.647 84.5828 67.3649 83.7453L66.3162 77.8377C63.1552 78.3988 59.6989 77.5312 55.5717 76.4069L53.9946 82.1959ZM67.3649 83.7453C69.7571 83.3207 72.1009 82.2472 74.0116 80.5987L70.0921 76.0558C69.0286 76.9734 67.6864 77.5945 66.3162 77.8377L67.3649 83.7453ZM68.38 70.7308C67.4768 70.8217 66.5698 70.8894 65.6601 70.9338L65.9528 76.9267C66.965 76.8772 67.9747 76.8019 68.9809 76.7006L68.38 70.7308ZM66.3228 72.2517C69.0743 72.0744 71.8262 71.8968 74.5787 71.7183L74.1904 65.7308C71.4391 65.9093 68.6881 66.0869 65.9371 66.2641L66.3228 72.2517ZM74.5795 71.7182C77.4188 71.5334 81.7586 71.2933 84.9544 68.3719L80.9061 63.9434C79.5071 65.2222 77.4004 65.5219 74.1897 65.7309L74.5795 71.7182ZM84.961 68.3658C87.2468 66.2636 88.3259 63.4097 88.8906 60.7381L83.0203 59.4972C82.5749 61.6044 81.8728 63.0543 80.8994 63.9495L84.961 68.3658ZM79.1947 52.7486C70.5716 55.6225 61.675 57.6246 52.6349 58.7201L53.3567 64.6765C62.7969 63.5325 72.0872 61.4418 81.0918 58.4408L79.1947 52.7486ZM52.6291 58.7208C51.6619 58.8399 50.8 58.9025 50.0287 58.8472L49.5996 64.8319C50.9553 64.9291 52.2735 64.8099 53.3625 64.6758L52.6291 58.7208ZM50.7854 60.2523C54.0825 58.7666 57.8922 58.37 62.2788 57.7053L61.3797 51.773C57.4754 52.3647 52.5732 52.8657 48.3205 54.782L50.7854 60.2523ZM62.279 57.7052C70.5945 56.4443 78.7409 54.2106 86.538 51.0523L84.2854 45.4912C76.9234 48.4732 69.2312 50.5824 61.3795 51.773L62.279 57.7052ZM86.5279 51.0564C87.3473 50.728 89.352 49.9617 90.3949 47.9172L85.05 45.1909C85.1086 45.076 85.1709 45.0577 85.0716 45.1233C85.0166 45.1596 84.9301 45.2093 84.7953 45.2733C84.6588 45.3382 84.5005 45.405 84.2955 45.4872L86.5279 51.0564ZM90.3967 47.9135C91.3297 46.0781 91.0493 43.9783 90.9476 43.068L84.9847 43.7337C85.0443 44.2681 85.0739 44.6379 85.0636 44.9394C85.0535 45.2374 85.007 45.2754 85.0481 45.1946L90.3967 47.9135ZM90.9497 43.0872C90.8513 42.1513 90.7531 41.2161 90.655 40.2812L84.6878 40.9075C84.7859 41.8426 84.8842 42.7782 84.9826 43.7145L90.9497 43.0872ZM79.3885 34.2537C76.7128 35.5836 73.9797 36.7804 71.1993 37.8408L73.3372 43.447C76.2991 42.3174 79.2098 41.0427 82.0589 39.6267L79.3885 34.2537ZM71.5897 38.7274C71.7844 38.6169 71.9792 38.5064 72.1745 38.3957L69.2154 33.1761C69.0202 33.2868 68.8243 33.3979 68.6282 33.5092L71.5897 38.7274ZM72.1737 38.3962C76.0729 36.1873 79.9811 33.975 83.8841 31.7593L80.922 26.5414C77.022 28.7554 73.1178 30.9654 69.2163 33.1757L72.1737 38.3962ZM87.368 23.238C86.166 19.1927 84.7054 15.2239 82.9987 11.3807L77.5151 13.8158C79.1156 17.4199 80.4871 21.1459 81.6165 24.9469L87.368 23.238ZM82.9957 11.3738C82.6514 10.6039 81.9542 8.96025 80.538 7.86759L76.8728 12.618C76.8424 12.5946 76.9046 12.6324 77.0399 12.8552C77.1798 13.0857 77.3198 13.3791 77.5182 13.8228L82.9957 11.3738ZM80.5357 7.8658C79.2122 6.84672 77.6835 6.62708 77.0213 6.51478L76.0181 12.4303C76.4038 12.4957 76.6072 12.5361 76.7682 12.5856C76.9058 12.6279 76.9134 12.6492 76.8751 12.6198L80.5357 7.8658ZM77.0038 6.51187L68.7604 5.16402L67.7922 11.0854L76.0356 12.4332L77.0038 6.51187ZM60.3514 10.1801C58.9291 14.1791 57.3261 18.0801 55.5521 21.8625L60.9843 24.4102C62.8416 20.4502 64.5181 16.3699 66.0045 12.1906L60.3514 10.1801ZM55.3638 22.107C55.7161 20.2415 56.181 18.4172 56.7542 16.6518L51.0475 14.7989C50.3938 16.8122 49.8665 18.8838 49.468 20.9937L55.3638 22.107ZM49.7263 5.88366L49.3015 5.86191L48.9947 11.8541L49.4195 11.8758L49.7263 5.88366ZM41.5538 11.8645C41.0267 14.4811 40.5217 17.1053 40.0389 19.7368L45.9403 20.8196C46.4169 18.2222 46.9154 15.6319 47.4356 13.0494L41.5538 11.8645ZM31.379 11.6574C30.101 11.9657 28.8223 12.2742 27.5425 12.5829L28.9497 18.4156C30.2295 18.1068 31.5081 17.7984 32.786 17.4901L31.379 11.6574ZM27.5552 12.5799C27.0201 12.7065 25.4445 13.0278 24.285 14.3059L28.7289 18.3373C28.5754 18.5064 28.4388 18.5592 28.4623 18.5494C28.4759 18.5437 28.5164 18.5282 28.5999 18.5042C28.6858 18.4795 28.7883 18.4538 28.9371 18.4186L27.5552 12.5799ZM24.2666 14.3263C23.5725 15.1057 23.2429 15.9803 23.0663 16.6431C22.8909 17.301 22.8167 17.9531 22.7695 18.3863L28.7342 19.036C28.7566 18.83 28.7766 18.6635 28.7997 18.5136C28.8226 18.3648 28.8446 18.2607 28.8639 18.1881C28.9081 18.0223 28.9089 18.1354 28.7473 18.3168L24.2666 14.3263ZM22.7691 18.39C21.9982 25.5482 21.8983 32.8496 22.457 40.1372L28.4395 39.6785C27.9081 32.7481 28.0042 25.8154 28.7346 19.0323L22.7691 18.39ZM23.5677 40.8295C23.0694 38.7418 22.6602 36.5967 22.2971 34.4258L16.3793 35.4154C16.7564 37.6704 17.1913 39.9588 17.7316 42.2224L23.5677 40.8295ZM12.7534 28.3297L11.2851 28.7457L12.9206 34.5185L14.3888 34.1025L12.7534 28.3297ZM11.2943 28.7431C10.61 28.9346 8.57547 29.4279 7.3673 31.2626L12.3784 34.5624C12.2599 34.7424 12.137 34.7899 12.2069 34.755C12.2459 34.7355 12.3179 34.7042 12.4417 34.6622C12.5681 34.6192 12.7134 34.5765 12.9115 34.521L11.2943 28.7431ZM7.36416 31.2674C6.35809 32.8015 6.3651 34.6645 6.35064 35.4092L12.3495 35.5257C12.3581 35.0852 12.3736 34.8073 12.4079 34.5964C12.4418 34.3876 12.4683 34.4254 12.3816 34.5576L7.36416 31.2674ZM6.35049 35.4171C6.19859 44.4687 6.90346 55.2516 9.44976 64.7113C11.9614 74.0423 16.4704 82.8309 24.5083 86.7656L27.1463 81.3767C21.5041 78.6147 17.6251 71.9994 15.2435 63.1517C12.8966 54.4327 12.2029 44.2621 12.3497 35.5178L6.35049 35.4171ZM69.9101 14.8498C69.9305 14.763 69.9451 14.706 69.9571 14.6638C69.9687 14.623 69.9744 14.6081 69.9737 14.61C69.9726 14.6129 69.9639 14.6352 69.9451 14.6698C69.9259 14.7054 69.8991 14.7483 69.864 14.7938L65.1134 11.1288C64.4136 12.036 64.1829 12.9933 64.069 13.4781L69.9101 14.8498ZM69.8148 14.8558C69.7921 14.8838 69.7799 14.8941 69.8675 14.8027C69.9269 14.7409 70.086 14.5774 70.2428 14.3848L65.5906 10.5958C65.6134 10.5678 65.6256 10.5575 65.5379 10.6489C65.4786 10.7107 65.3194 10.8742 65.1626 11.0668L69.8148 14.8558ZM70.1983 14.4383C69.8717 14.8208 69.5084 14.9852 69.301 15.0527L67.4456 9.34677C66.8922 9.52671 66.2028 9.87748 65.6352 10.5424L70.1983 14.4383ZM69.2673 15.0634C68.8967 15.1791 68.6047 15.1478 68.4485 15.114C68.2891 15.0796 68.1309 15.0139 67.9701 14.8972L71.4939 10.041C70.5497 9.35586 69.0352 8.8503 67.4793 9.33603L69.2673 15.0634ZM67.9809 14.905C67.8381 14.8024 67.7253 14.6929 67.6394 14.5928L72.1912 10.6838C71.998 10.4588 71.7643 10.2353 71.4831 10.0332L67.9809 14.905ZM68.1346 15.2395C68.0249 15.0228 67.966 14.7779 67.9638 14.5362C67.9617 14.3029 68.0124 14.1282 68.0538 14.0271L73.6064 16.3004C74.0619 15.1878 74.1432 13.823 73.4868 12.5275L68.1346 15.2395ZM68.0531 14.0286C67.9992 14.1607 67.926 14.3062 67.779 14.5899L73.1061 17.3507C73.233 17.1058 73.4339 16.7226 73.6071 16.2989L68.0531 14.0286ZM67.8048 14.5411C67.8222 14.509 67.8423 14.4779 67.867 14.4462C67.8915 14.4147 67.9276 14.3736 67.9799 14.3273L71.9608 18.8164C72.4414 18.3902 72.8126 17.8933 73.0802 17.3995L67.8048 14.5411ZM67.9379 14.3653C67.9505 14.3537 67.9677 14.3404 67.9931 14.3267C68.0188 14.3129 68.0606 14.2946 68.1201 14.2812L69.4304 20.1364C70.44 19.9105 71.3186 19.4087 72.0028 18.7785L67.9379 14.3653ZM67.9988 14.311C68.0474 14.298 68.093 14.29 68.1375 14.2856C68.182 14.2812 68.2356 14.2795 68.2994 14.2841L67.8621 20.2682C68.4444 20.3107 69.0214 20.2487 69.5517 20.1066L67.9988 14.311ZM68.3318 14.2867C68.6908 14.3168 68.9654 14.416 69.1351 14.4932C69.3054 14.5707 69.4218 14.6497 69.4809 14.6928C69.587 14.7702 69.6306 14.8235 69.5825 14.773L65.2381 18.9114C65.3552 19.0343 65.6075 19.294 65.9442 19.5397C66.2399 19.7554 66.9018 20.1877 67.8297 20.2656L68.3318 14.2867ZM69.6364 14.8311C69.7261 14.9304 69.766 15.0114 69.7751 15.0313C69.7793 15.0405 69.7768 15.0366 69.7697 15.015C69.7626 14.9933 69.7523 14.9587 69.7396 14.907L63.913 16.3389C64.0727 16.989 64.3922 17.9766 65.1842 18.8532L69.6364 14.8311ZM69.7377 14.8993C69.767 15.0172 69.7784 15.128 69.7793 15.2211C69.7801 15.3099 69.7713 15.3663 69.7701 15.3739C69.7695 15.3775 69.7703 15.3716 69.7745 15.3525C69.7788 15.333 69.7853 15.3052 69.7958 15.2633C69.8068 15.2194 69.8187 15.1738 69.8358 15.1083C69.8516 15.0479 69.8716 14.9709 69.8918 14.8896L64.0688 13.4432C64.0396 13.5605 63.562 14.9268 63.9149 16.3466L69.7377 14.8993ZM68.1105 15.1824C68.0868 15.148 68.0771 15.1294 68.0829 15.1399C68.0856 15.1447 68.0909 15.1544 68.0997 15.1713C68.1088 15.1887 68.1196 15.2098 68.1346 15.2395L73.4868 12.5275C73.4171 12.39 73.2687 12.0952 73.0585 11.7888L68.1105 15.1824ZM22.2971 34.4258C21.5589 30.0111 17.1614 27.0809 12.7534 28.3297L14.3888 34.1025C15.2557 33.8569 16.2133 34.4227 16.3793 35.4154L22.2971 34.4258ZM40.0389 19.7368C39.8994 20.4968 39.651 20.8231 39.5699 20.9075C39.4825 20.9983 39.6216 20.804 40.0353 20.8243C40.2376 20.8342 40.4442 20.8977 40.6218 21.0098C40.7974 21.1207 40.8886 21.2429 40.924 21.3033C40.986 21.4092 40.8177 21.1996 40.9222 20.4129L34.9744 19.6232C34.7524 21.2945 34.9393 22.956 35.7455 24.3337C36.5876 25.7728 38.0348 26.7335 39.7418 26.8171C43.1328 26.9832 45.3605 23.9798 45.9403 20.8196L40.0389 19.7368ZM49.3015 5.86191C45.6034 5.67253 42.2912 8.20368 41.5538 11.8645L47.4356 13.0494C47.5798 12.3336 48.2341 11.8151 48.9947 11.8541L49.3015 5.86191ZM83.8841 31.7593C86.8231 30.0908 88.367 26.6005 87.368 23.238L81.6165 24.9469C81.784 25.5108 81.5451 26.1877 80.922 26.5414L83.8841 31.7593ZM71.1993 37.8408C70.5592 38.0849 70.2745 38.0189 70.2868 38.0219C70.3201 38.03 70.6232 38.1371 70.8153 38.5395C70.9027 38.7224 70.9334 38.9049 70.9288 39.0557C70.9244 39.2035 70.888 39.2875 70.8812 39.3016C70.8708 39.3233 70.9935 39.0658 71.5897 38.7274L68.6282 33.5092C66.0118 34.9941 63.9083 37.9993 65.4011 41.1251C66.8843 44.2309 70.5269 44.5187 73.3372 43.447L71.1993 37.8408ZM65.6601 70.9338C64.8403 70.9738 64.6504 70.788 64.7718 70.8711C64.8437 70.9203 64.986 71.0432 65.1025 71.2696C65.2212 71.5005 65.2731 71.7633 65.2555 72.0142C65.2201 72.518 64.955 72.6628 65.067 72.5813C65.1645 72.5103 65.5326 72.3026 66.3228 72.2517L65.9371 66.2641C62.8491 66.463 59.5088 68.2002 59.2703 71.5936C59.147 73.3469 60.0137 74.8853 61.383 75.8224C62.6787 76.7093 64.3013 77.0073 65.9528 76.9267L65.6601 70.9338ZM90.655 40.2812C90.0742 34.7472 84.0691 31.9275 79.3885 34.2537L82.0589 39.6267C83.2977 39.011 84.5786 39.8675 84.6878 40.9075L90.655 40.2812ZM67.6394 14.5928C67.8616 14.8516 68.0061 15.0303 68.1105 15.1824L73.0585 11.7888C72.7589 11.3519 72.4342 10.9667 72.1912 10.6838L67.6394 14.5928ZM40.9222 20.4129C41.6264 15.1092 36.853 10.3369 31.379 11.6574L32.786 17.4901C33.8918 17.2233 35.161 18.2172 34.9744 19.6232L40.9222 20.4129ZM74.0116 80.5987C75.0864 79.6714 75.8599 78.4176 75.9824 76.9271C76.1029 75.4621 75.5598 74.1819 74.8051 73.2413C73.3482 71.4258 70.8581 70.4813 68.38 70.7308L68.9809 76.7006C69.2964 76.6688 69.5806 76.7181 69.8012 76.8039C69.9104 76.8463 69.9934 76.8936 70.0507 76.934C70.1089 76.9752 70.129 77.001 70.1254 76.9964C70.1185 76.9878 69.9734 76.7901 70.0026 76.4354C70.0339 76.0553 70.2267 75.9397 70.0921 76.0558L74.0116 80.5987ZM55.5521 21.8625C55.327 22.3424 55.1014 22.4875 55.043 22.5186C54.9778 22.5534 55.0058 22.5152 55.1113 22.5433C55.1602 22.5562 55.2133 22.5811 55.2619 22.6189C55.3117 22.6576 55.3396 22.6965 55.3509 22.717C55.3621 22.7373 55.3442 22.7156 55.3326 22.6268C55.3208 22.5363 55.3147 22.367 55.3638 22.107L49.468 20.9937C48.8293 24.3765 50.4294 27.5069 53.5696 28.3418C56.5674 29.1389 59.562 27.4427 60.9843 24.4102L55.5521 21.8625ZM42.8625 75.4069C43.816 75.8118 44.2134 76.8932 43.8368 77.7889L38.3059 75.463C37.4261 77.5552 38.3694 80.0177 40.5177 80.9298L42.8625 75.4069ZM50.0287 58.8472C50.0029 58.8454 50.2403 58.8661 50.4976 59.1265C50.7456 59.3775 50.8341 59.674 50.8426 59.8828C50.859 60.2833 50.6343 60.3204 50.7854 60.2523L48.3205 54.782C46.1305 55.7688 44.7557 57.8753 44.8476 60.1274C44.8939 61.262 45.3266 62.4298 46.2295 63.3436C47.1418 64.2669 48.3447 64.7419 49.5996 64.8319L50.0287 58.8472ZM68.7604 5.16402C65.0666 4.56005 61.5705 6.75205 60.3514 10.1801L66.0045 12.1906C66.2871 11.396 67.0632 10.9662 67.7922 11.0854L68.7604 5.16402ZM53.6054 89.1273C54.9199 89.1385 56.4137 88.823 57.5401 87.7352C58.7619 86.5552 59.0322 84.9719 58.7413 83.6387C58.209 81.1997 55.9638 79.4649 53.4998 78.89L52.1366 84.7331C52.5368 84.8265 52.7807 84.9819 52.8982 85.0846C53.0406 85.2089 52.9392 85.193 52.8792 84.9179C52.8463 84.7672 52.8257 84.5222 52.9038 84.224C52.9854 83.9125 53.153 83.6308 53.372 83.4193C53.7918 83.0139 54.0888 83.1312 53.6566 83.1275L53.6054 89.1273ZM22.457 40.1372C22.5143 40.8839 22.3808 41.3204 22.2954 41.4999C22.1988 41.7029 22.2182 41.5036 22.598 41.3698C22.7955 41.3003 23.0401 41.2723 23.2941 41.3197C23.5462 41.3667 23.7178 41.4707 23.8048 41.5415C23.9538 41.6627 23.7469 41.5806 23.5677 40.8295L17.7316 42.2224C18.0996 43.7643 18.8112 45.214 20.0189 46.1963C21.314 47.2497 22.9995 47.5896 24.5911 47.0291C27.5582 45.9842 28.6675 42.6536 28.4395 39.6785L22.457 40.1372ZM88.8906 60.7381C89.5012 57.8492 88.2192 55.3336 86.2612 53.8689C84.3522 52.4408 81.7094 51.9106 79.1947 52.7486L81.0918 58.4408C81.6747 58.2465 82.2756 58.3804 82.6671 58.6733C82.8522 58.8117 82.9504 58.9557 82.9964 59.0667C83.0358 59.1618 83.0637 59.2916 83.0203 59.4972L88.8906 60.7381ZM48.9978 84.9562C48.4126 84.7848 48.2783 84.6294 48.358 84.7052C48.3811 84.7271 49.092 85.4384 48.7581 86.6478C48.4197 87.8736 47.4228 88.121 47.3716 88.1317C47.2517 88.1569 47.4393 88.0929 48.0284 88.2575L49.6433 82.4789C48.4767 82.1529 47.2639 82.0238 46.1403 82.2594C45.0855 82.4806 43.4816 83.214 42.9744 85.0512C42.4718 86.8719 43.4521 88.3199 44.2241 89.0538C45.0528 89.8416 46.1472 90.3734 47.3114 90.7144L48.9978 84.9562ZM56.7542 16.6518C58.274 11.9714 55.3223 6.17023 49.7264 5.88366L49.4195 11.8758C49.9515 11.9031 50.4458 12.1901 50.7964 12.7609C51.1599 13.3525 51.2702 14.1129 51.0475 14.7989L56.7542 16.6518ZM43.8368 77.7889C43.4847 78.6261 42.567 79.0714 41.6925 78.8317L43.2787 73.0452C41.2499 72.489 39.1219 73.5225 38.3059 75.463L43.8368 77.7889ZM49.0582 94.6458C50.2298 94.5711 51.574 94.1687 52.5393 93.054C53.5503 91.8865 53.7007 90.453 53.4366 89.2975C52.9464 87.1523 51.0782 85.5655 48.9978 84.9562L47.3114 90.7144C47.5231 90.7764 47.6437 90.8657 47.6907 90.91C47.7566 90.9724 47.6503 90.9091 47.5874 90.6343C47.5146 90.3154 47.5227 89.6816 48.0036 89.1262C48.4388 88.6237 48.865 88.6459 48.6765 88.658L49.0582 94.6458Z" fill="white" mask="url(#path-1-outside-1_1099_753)"/>
<mask id="path-3-outside-2_1099_753" maskUnits="userSpaceOnUse" x="7.64601" y="4.419" width="85.9216" height="83.0932" fill="black">
<rect fill="white" x="7.64601" y="4.419" width="85.9216" height="83.0932"/>
<path d="M28.7347 73.3519C33.4551 69.7316 36.3698 64.3583 39.7476 59.4944C50.5417 43.9339 67.0657 32.509 76.0845 15.9C68.4057 26.9837 57.9471 35.8926 48.9882 46.0029C45.6387 49.7904 42.4913 53.7414 39.3532 57.69C35.4879 62.5493 31.6225 67.4086 27.7572 72.2679C26.9021 73.3429 27.6542 74.1797 28.7414 73.3402"/>
<path d="M45.5063 50.3306C58.5559 54.0094 72.8907 50.1486 84.524 43.1122C74.2114 48.9832 61.9611 51.4639 50.1901 50.0455C48.4731 49.8425 46.6667 49.5644 45.4946 50.3239"/>
<path d="M47.6041 49.7388C46.316 48.2926 45.8696 46.2942 45.6518 44.3732C44.4774 34.1177 48.4016 23.8323 47.9451 13.523C48.0439 16.7725 46.9215 19.9335 46.1704 23.1138C44.594 29.7516 44.6264 36.6313 44.6667 43.4297C44.6807 45.3229 44.7196 47.3084 45.3771 49.0397C45.6928 49.8708 46.7262 49.7935 47.6134 49.7363"/>
<path d="M38.0601 61.3223C38.6819 59.6909 37.6928 57.9567 36.9107 56.4046C34.6867 51.9827 34.0341 46.9616 33.6242 42.0338C32.9656 34.1837 32.8304 26.2923 32.6885 18.4127C31.6239 31.2079 30.6376 44.5165 35.3805 56.4187C35.9793 57.9179 36.6719 59.421 36.9774 60.9901C37.0788 61.5106 37.5572 61.457 38.0694 61.3198"/>
<path d="M29.1666 72.5632C29.6362 70.2897 28.5053 67.9898 27.0191 66.2106C25.5329 64.4315 23.674 62.9601 22.2955 61.1026C20.8578 59.1719 19.9868 56.8815 19.1903 54.6108C17.1759 48.8659 15.5327 42.9918 14.273 37.0348C15.0119 42.0823 15.8548 47.1118 16.8202 52.1184C17.2807 54.5385 17.788 56.9858 18.9009 59.1816C20.1767 61.6901 22.1915 63.7433 23.9516 65.9538C25.2791 67.6209 26.4898 69.4826 27.044 71.5051C27.3102 72.4765 28.279 73.0345 29.1641 72.554"/>
<path d="M27.6109 72.8514C28.2146 75.1045 29.821 76.9999 31.7383 78.3567C33.6556 79.7135 35.8802 80.5921 38.1189 81.3383C39.5566 81.8185 39.8949 80.3897 38.5222 79.7466C35.3784 78.2738 32.4786 76.4171 30.0248 73.9564C29.5129 73.4432 28.8734 72.8769 28.2154 72.6973C27.6942 72.5551 27.7298 73.3784 27.6109 72.8514Z"/>
<path d="M32.0125 68.3366C32.2236 70.2694 33.6609 71.9033 35.3678 72.881C37.0747 73.8587 39.0389 74.2825 40.9729 74.7045C44.9759 75.5718 48.9856 76.4273 52.9978 77.2921C53.9666 77.5004 54.9528 77.7068 55.9475 77.8909C57.7852 78.2312 57.6027 77.1388 55.7651 76.798C51.3386 75.975 46.9787 74.8471 42.6189 73.7191C38.9608 72.775 34.8454 71.4289 33.0193 68.3469C32.8223 68.0145 32.3712 68.4989 32.0217 68.3342"/>
<path d="M37.6801 60.2364C37.9506 62.3908 39.5372 64.2123 41.4474 65.284C43.3576 66.3557 45.5699 66.7823 47.7502 67.0889C57.4915 68.4672 67.5487 67.8112 77.0555 65.1748C77.6049 65.0217 78.1639 64.8526 78.7165 64.6597C80.782 63.9388 79.8642 62.7304 77.8256 63.5243C71.0188 66.1754 63.6757 67.462 56.381 67.2406C52.959 67.1381 49.4966 66.7001 46.3687 65.3312C43.8864 64.2513 41.6318 62.5299 40.1808 60.3001C39.5411 59.3171 37.9733 58.5856 37.7024 59.7267C37.6668 59.8768 37.6561 60.043 37.6777 60.2272"/>
</mask>
<path d="M28.7347 73.3519C33.4551 69.7316 36.3698 64.3583 39.7476 59.4944C50.5417 43.9339 67.0657 32.509 76.0845 15.9C68.4057 26.9837 57.9471 35.8926 48.9882 46.0029C45.6387 49.7904 42.4913 53.7414 39.3532 57.69C35.4879 62.5493 31.6225 67.4086 27.7572 72.2679C26.9021 73.3429 27.6542 74.1797 28.7414 73.3402" fill="white"/>
<path d="M45.5063 50.3306C58.5559 54.0094 72.8907 50.1486 84.524 43.1122C74.2114 48.9832 61.9611 51.4639 50.1901 50.0455C48.4731 49.8425 46.6667 49.5644 45.4946 50.3239" fill="white"/>
<path d="M47.6041 49.7388C46.316 48.2926 45.8696 46.2942 45.6518 44.3732C44.4774 34.1177 48.4016 23.8323 47.9451 13.523C48.0439 16.7725 46.9215 19.9335 46.1704 23.1138C44.594 29.7516 44.6264 36.6313 44.6667 43.4297C44.6807 45.3229 44.7196 47.3084 45.3771 49.0397C45.6928 49.8708 46.7262 49.7935 47.6134 49.7363" fill="white"/>
<path d="M38.0601 61.3223C38.6819 59.6909 37.6928 57.9567 36.9107 56.4046C34.6867 51.9827 34.0341 46.9616 33.6242 42.0338C32.9656 34.1837 32.8304 26.2923 32.6885 18.4127C31.6239 31.2079 30.6376 44.5165 35.3805 56.4187C35.9793 57.9179 36.6719 59.421 36.9774 60.9901C37.0788 61.5106 37.5572 61.457 38.0694 61.3198" fill="white"/>
<path d="M29.1666 72.5632C29.6362 70.2897 28.5053 67.9898 27.0191 66.2106C25.5329 64.4315 23.674 62.9601 22.2955 61.1026C20.8578 59.1719 19.9868 56.8815 19.1903 54.6108C17.1759 48.8659 15.5327 42.9918 14.273 37.0348C15.0119 42.0823 15.8548 47.1118 16.8202 52.1184C17.2807 54.5385 17.788 56.9858 18.9009 59.1816C20.1767 61.6901 22.1915 63.7433 23.9516 65.9538C25.2791 67.6209 26.4898 69.4826 27.044 71.5051C27.3102 72.4765 28.279 73.0345 29.1641 72.554" fill="white"/>
<path d="M27.6109 72.8514C28.2146 75.1045 29.821 76.9999 31.7383 78.3567C33.6556 79.7135 35.8802 80.5921 38.1189 81.3383C39.5566 81.8185 39.8949 80.3897 38.5222 79.7466C35.3784 78.2738 32.4786 76.4171 30.0248 73.9564C29.5129 73.4432 28.8734 72.8769 28.2154 72.6973C27.6942 72.5551 27.7298 73.3784 27.6109 72.8514Z" fill="white"/>
<path d="M32.0125 68.3366C32.2236 70.2694 33.6609 71.9033 35.3678 72.881C37.0747 73.8587 39.0389 74.2825 40.9729 74.7045C44.9759 75.5718 48.9856 76.4273 52.9978 77.2921C53.9666 77.5004 54.9528 77.7068 55.9475 77.8909C57.7852 78.2312 57.6027 77.1388 55.7651 76.798C51.3386 75.975 46.9787 74.8471 42.6189 73.7191C38.9608 72.775 34.8454 71.4289 33.0193 68.3469C32.8223 68.0145 32.3712 68.4989 32.0217 68.3342" fill="white"/>
<path d="M37.6801 60.2364C37.9506 62.3908 39.5372 64.2123 41.4474 65.284C43.3576 66.3557 45.5699 66.7823 47.7502 67.0889C57.4915 68.4672 67.5487 67.8112 77.0555 65.1748C77.6049 65.0217 78.1639 64.8526 78.7165 64.6597C80.782 63.9388 79.8642 62.7304 77.8256 63.5243C71.0188 66.1754 63.6757 67.462 56.381 67.2406C52.959 67.1381 49.4966 66.7001 46.3687 65.3312C43.8864 64.2513 41.6318 62.5299 40.1808 60.3001C39.5411 59.3171 37.9733 58.5856 37.7024 59.7267C37.6668 59.8768 37.6561 60.043 37.6777 60.2272" fill="white"/>
<path d="M39.7476 59.4944L40.569 60.0648L40.5693 60.0644L39.7476 59.4944ZM76.0845 15.9L76.9633 16.3772C77.2168 15.9103 77.061 15.3268 76.6086 15.0483C76.1562 14.7699 75.565 14.8938 75.2625 15.3305L76.0845 15.9ZM48.9882 46.0029L48.2397 45.3397L48.2391 45.3405L48.9882 46.0029ZM39.3532 57.69L40.1358 58.3125L40.136 58.3122L39.3532 57.69ZM84.524 43.1122L85.0415 43.9679C85.5097 43.6847 85.6634 43.0779 85.3864 42.606C85.1095 42.1342 84.5047 41.9725 84.0293 42.2432L84.524 43.1122ZM50.1901 50.0455L50.3098 49.0527L50.3076 49.0524L50.1901 50.0455ZM45.6518 44.3732L46.6454 44.2605L46.6453 44.2594L45.6518 44.3732ZM47.9451 13.523L48.9442 13.4788C48.9198 12.9298 48.457 12.5032 47.9078 12.5237C47.3586 12.5442 46.9289 13.0041 46.9456 13.5534L47.9451 13.523ZM46.1704 23.1138L47.1433 23.3449L47.1436 23.3436L46.1704 23.1138ZM44.6667 43.4297L43.6667 43.4356L43.6667 43.4371L44.6667 43.4297ZM36.9107 56.4046L36.0173 56.8539L36.0177 56.8546L36.9107 56.4046ZM33.6242 42.0338L34.6207 41.9509L34.6207 41.9502L33.6242 42.0338ZM32.6885 18.4127L33.6883 18.3947C33.6788 17.8621 33.2534 17.4305 32.721 17.4132C32.1886 17.3959 31.7361 17.799 31.692 18.3298L32.6885 18.4127ZM35.3805 56.4187L34.4516 56.7889L34.4518 56.7896L35.3805 56.4187ZM22.2955 61.1026L23.0985 60.5067L23.0975 60.5053L22.2955 61.1026ZM19.1903 54.6108L18.2466 54.9417L18.2466 54.9418L19.1903 54.6108ZM14.273 37.0348L15.2513 36.8279C15.1396 36.2996 14.6286 35.9554 14.097 36.0504C13.5654 36.1454 13.2053 36.6453 13.2835 37.1797L14.273 37.0348ZM16.8202 52.1184L17.8026 51.9315L17.8021 51.929L16.8202 52.1184ZM18.9009 59.1816L18.0089 59.6337L18.0095 59.635L18.9009 59.1816ZM23.9516 65.9538L24.7339 65.3309L23.9516 65.9538ZM27.6109 72.8514L28.5768 72.5926C28.4359 72.0666 27.9001 71.7501 27.3714 71.8805C26.8428 72.0109 26.5156 72.5402 26.6354 73.0714L27.6109 72.8514ZM38.1189 81.3383L38.4357 80.3898L38.4351 80.3896L38.1189 81.3383ZM30.0248 73.9564L30.7329 73.2502L30.7328 73.2501L30.0248 73.9564ZM40.9729 74.7045L40.7598 75.6815L40.7612 75.6819L40.9729 74.7045ZM52.9978 77.2921L52.7871 78.2696L52.7876 78.2697L52.9978 77.2921ZM55.7651 76.798L55.5823 77.7812L55.5828 77.7812L55.7651 76.798ZM42.6189 73.7191L42.8694 72.751L42.8689 72.7509L42.6189 73.7191ZM47.7502 67.0889L47.8903 66.0988L47.8894 66.0986L47.7502 67.0889ZM77.0555 65.1748L77.3228 66.1384L77.3239 66.1381L77.0555 65.1748ZM56.381 67.2406L56.4113 66.2411L56.4109 66.2411L56.381 67.2406ZM46.3687 65.3312L46.7696 64.4151L46.7676 64.4142L46.3687 65.3312ZM40.1808 60.3001L39.3427 60.8455L40.1808 60.3001ZM37.7024 59.7267L36.7294 59.4958L36.7294 59.4958L37.7024 59.7267ZM78.7165 64.6597L79.046 65.6038L78.7165 64.6597ZM77.8256 63.5243L77.4627 62.5925L77.8256 63.5243ZM33.0193 68.3469L33.8796 67.8371L33.0193 68.3469ZM28.2154 72.6973L27.9521 73.662L27.9521 73.662L28.2154 72.6973ZM27.7572 72.2679L28.5398 72.8904L27.7572 72.2679ZM45.3771 49.0397L44.4423 49.3948L45.3771 49.0397ZM38.5222 79.7466L38.9465 78.841L38.9465 78.841L38.5222 79.7466ZM27.044 71.5051L28.0084 71.2408L27.044 71.5051ZM55.9475 77.8909L55.7654 78.8742L55.9475 77.8909ZM36.9774 60.9901L37.959 60.799L36.9774 60.9901ZM29.3432 74.1454C31.8122 72.2518 33.7867 69.917 35.5545 67.4761C37.282 65.0908 38.9435 62.4054 40.569 60.0648L38.9262 58.924C37.1739 61.4473 35.6892 63.8805 33.9347 66.3029C32.2207 68.6697 30.3775 70.8317 28.1261 72.5584L29.3432 74.1454ZM40.5693 60.0644C45.9091 52.3666 52.6661 45.691 59.3029 38.7832C65.9117 31.9045 72.3834 24.8115 76.9633 16.3772L75.2057 15.4228C70.7668 23.5975 64.4671 30.5214 57.8607 37.3976C51.2822 44.2446 44.3802 51.0617 38.9259 58.9245L40.5693 60.0644ZM75.2625 15.3305C71.4699 20.8048 66.9805 25.7566 62.296 30.6229C57.6294 35.4706 52.737 40.2644 48.2397 45.3397L49.7366 46.6661C54.1983 41.6311 59.0147 36.9153 63.7368 32.01C68.441 27.1233 73.0203 22.0789 76.9065 16.4695L75.2625 15.3305ZM48.2391 45.3405C44.8695 49.1506 41.7064 53.1218 38.5703 57.0678L40.136 58.3122C43.2762 54.3611 46.4078 50.4302 49.7373 46.6654L48.2391 45.3405ZM38.5706 57.0674C34.7052 61.9268 30.8399 66.7861 26.9746 71.6454L28.5398 72.8904C32.4051 68.0311 36.2705 63.1718 40.1358 58.3125L38.5706 57.0674ZM45.235 51.2931C58.6411 55.0724 73.2656 51.0905 85.0415 43.9679L84.0065 42.2565C72.5158 49.2067 58.4707 52.9464 45.7776 49.3681L45.235 51.2931ZM84.0293 42.2432C73.9022 48.0085 61.8672 50.4454 50.3098 49.0527L50.0705 51.0383C62.0551 52.4825 74.5206 49.9578 85.0187 43.9812L84.0293 42.2432ZM50.3076 49.0524C49.4822 48.9548 48.5255 48.8237 47.638 48.8238C46.7512 48.8238 45.7759 48.95 44.9508 49.4846L46.0384 51.1631C46.3854 50.9382 46.8994 50.8238 47.6381 50.8238C48.3761 50.8237 49.1811 50.9332 50.0727 51.0386L50.3076 49.0524ZM48.3509 49.0737C47.2818 47.8733 46.8593 46.1468 46.6454 44.2605L44.6582 44.4858C44.8799 46.4416 45.3503 48.7118 46.8574 50.4039L48.3509 49.0737ZM46.6453 44.2594C46.0751 39.2798 46.7398 34.2665 47.518 29.1177C48.29 24.0103 49.1776 18.7524 48.9442 13.4788L46.9461 13.5673C47.1691 18.6029 46.3229 23.6423 45.5405 28.8188C44.7643 33.9539 44.0541 39.2111 44.6583 44.4869L46.6453 44.2594ZM46.9456 13.5534C46.9913 15.0567 46.7551 16.5656 46.4013 18.1228C46.2245 18.901 46.021 19.6806 45.8115 20.4757C45.6033 21.2658 45.3885 22.0736 45.1972 22.884L47.1436 23.3436C47.3278 22.5638 47.535 21.7839 47.7454 20.9853C47.9545 20.1918 48.1663 19.3817 48.3516 18.5659C48.7221 16.9351 48.9977 15.2388 48.9447 13.4926L46.9456 13.5534ZM45.1974 22.8827C43.5888 29.6566 43.6265 36.6572 43.6667 43.4356L45.6666 43.4238C45.6263 36.6054 45.5993 29.8465 47.1433 23.3449L45.1974 22.8827ZM43.6667 43.4371C43.6806 45.3032 43.7109 47.4691 44.4423 49.3948L46.312 48.6846C45.7282 47.1477 45.6809 45.3426 45.6666 43.4222L43.6667 43.4371ZM38.9946 61.6784C39.4175 60.5687 39.2682 59.4742 38.9639 58.5276C38.6661 57.6016 38.1739 56.6892 37.8037 55.9546L36.0177 56.8546C36.4296 57.6721 36.8229 58.4029 37.0599 59.1398C37.2902 59.8562 37.3246 60.4444 37.1257 60.9661L38.9946 61.6784ZM37.8041 55.9553C35.6742 51.7204 35.0299 46.8704 34.6207 41.9509L32.6276 42.1167C33.0382 47.0528 33.6993 52.2449 36.0173 56.8539L37.8041 55.9553ZM34.6207 41.9502C33.9654 34.1386 33.8304 26.2807 33.6883 18.3947L31.6887 18.4307C31.8305 26.3039 31.9659 34.2288 32.6277 42.1174L34.6207 41.9502ZM31.692 18.3298C30.6308 31.0845 29.6074 44.6328 34.4516 56.7889L36.3095 56.0485C31.6678 44.4003 32.6171 31.3313 33.6851 18.4956L31.692 18.3298ZM34.4518 56.7896C35.0788 58.3595 35.7137 59.7326 35.9958 61.1812L37.959 60.799C37.63 59.1094 36.8797 57.4764 36.3092 56.0478L34.4518 56.7896ZM30.1459 72.7655C30.7077 70.0455 29.3451 67.4354 27.7866 65.5696L26.2516 66.8517C27.6654 68.5442 28.5646 70.5339 28.1873 72.3609L30.1459 72.7655ZM27.7866 65.5696C27.0073 64.6367 26.1307 63.7852 25.3239 62.9787C24.5018 62.157 23.7395 61.3704 23.0985 60.5067L21.4925 61.6986C22.2299 62.6923 23.0864 63.5701 23.91 64.3933C24.7488 65.2317 25.5447 66.0054 26.2516 66.8517L27.7866 65.5696ZM23.0975 60.5053C21.7607 58.7101 20.9312 56.5529 20.1339 54.2798L18.2466 54.9418C19.0423 57.2102 19.9548 59.6337 21.4934 61.6999L23.0975 60.5053ZM20.134 54.2799C18.1338 48.5756 16.5022 42.7429 15.2513 36.8279L13.2946 37.2417C14.5632 43.2407 16.218 49.1562 18.2466 54.9417L20.134 54.2799ZM13.2835 37.1797C14.0244 42.2408 14.8698 47.2852 15.8383 52.3077L17.8021 51.929C16.8398 46.9384 15.9993 41.9238 15.2624 36.89L13.2835 37.1797ZM15.8379 52.3053C16.2965 54.7161 16.8238 57.2954 18.0089 59.6337L19.7928 58.7295C18.7521 56.6761 18.2648 54.361 17.8026 51.9315L15.8379 52.3053ZM18.0095 59.635C19.3466 62.2638 21.4978 64.4775 23.1693 66.5767L24.7339 65.3309C22.8852 63.0091 21.0068 61.1164 19.7922 58.7283L18.0095 59.635ZM23.1693 66.5767C24.4663 68.2056 25.5785 69.941 26.0795 71.7694L28.0084 71.2408C27.401 69.0242 26.0918 67.0363 24.7339 65.3309L23.1693 66.5767ZM26.645 73.1102C27.3264 75.6534 29.1157 77.7259 31.1607 79.173L32.316 77.5404C30.5263 76.2739 29.1028 74.5556 28.5768 72.5926L26.645 73.1102ZM31.1607 79.173C33.2017 80.6174 35.5407 81.533 37.8027 82.2869L38.4351 80.3896C36.2198 79.6512 34.1095 78.8096 32.316 77.5404L31.1607 79.173ZM38.9465 78.841C35.8802 77.4045 33.0851 75.6091 30.7329 73.2502L29.3167 74.6625C31.8721 77.2251 34.8767 79.143 38.098 80.6521L38.9465 78.841ZM30.7328 73.2501C30.2323 72.7483 29.4238 71.9906 28.4788 71.7326L27.9521 73.662C28.3229 73.7633 28.7935 74.138 29.3169 74.6626L30.7328 73.2501ZM31.0184 68.4452C31.2762 70.8056 32.9984 72.6762 34.8708 73.7487L35.8649 72.0133C34.3235 71.1304 33.171 69.7332 33.0066 68.2281L31.0184 68.4452ZM34.8708 73.7487C36.7347 74.8164 38.8566 75.2663 40.7598 75.6815L41.1861 73.7275C39.2212 73.2988 37.4146 72.901 35.8649 72.0133L34.8708 73.7487ZM40.7612 75.6819C44.7641 76.5491 48.7784 77.4056 52.7871 78.2696L53.2085 76.3145C49.1929 75.449 45.1877 74.5945 41.1847 73.7272L40.7612 75.6819ZM52.7876 78.2697C53.7592 78.4786 54.7565 78.6874 55.7654 78.8742L56.1295 76.9076C55.1492 76.7261 54.1741 76.5221 53.208 76.3144L52.7876 78.2697ZM55.9479 75.8149C51.5611 74.9992 47.2348 73.8804 42.8694 72.751L42.3685 74.6873C46.7227 75.8137 51.116 76.9507 55.5823 77.7812L55.9479 75.8149ZM42.8689 72.7509C41.0527 72.2821 39.191 71.7297 37.572 70.9367C35.9525 70.1433 34.656 69.1474 33.8796 67.8371L32.1589 68.8566C33.2087 70.6283 34.8829 71.8465 36.6922 72.7327C38.502 73.6193 40.5271 74.212 42.369 74.6874L42.8689 72.7509ZM36.6879 60.361C37.01 62.9265 38.8683 64.9837 40.9581 66.1562L41.9367 64.4119C40.206 63.4409 38.8912 61.8551 38.6723 60.1119L36.6879 60.361ZM40.9581 66.1562C43.0434 67.3261 45.4177 67.7708 47.6109 68.0792L47.8894 66.0986C45.7222 65.7939 43.6718 65.3854 41.9367 64.4119L40.9581 66.1562ZM47.6101 68.079C57.4879 69.4767 67.6838 68.8115 77.3228 66.1384L76.7883 64.2112C67.4137 66.8109 57.4951 67.4578 47.8903 66.0988L47.6101 68.079ZM77.3239 66.1381C77.8873 65.9811 78.4677 65.8057 79.046 65.6038L78.387 63.7156C77.8601 63.8994 77.3225 64.0623 76.7871 64.2115L77.3239 66.1381ZM77.4627 62.5925C70.7791 65.1956 63.5696 66.4584 56.4113 66.2411L56.3507 68.2402C63.7817 68.4657 71.2584 67.1552 78.1886 64.4562L77.4627 62.5925ZM56.4109 66.2411C53.0424 66.1402 49.7274 65.7095 46.7696 64.4151L45.9678 66.2473C49.2659 67.6907 52.8757 68.1361 56.3511 68.2402L56.4109 66.2411ZM46.7676 64.4142C44.4283 63.3965 42.3432 61.7896 41.019 59.7547L39.3427 60.8455C40.9204 63.2701 43.3446 65.1061 45.9698 66.2482L46.7676 64.4142ZM36.7294 59.4958C36.6652 59.7664 36.6502 60.0504 36.6844 60.3432L38.6709 60.1112C38.6621 60.0357 38.6684 59.9872 38.6754 59.9577L36.7294 59.4958ZM41.019 59.7547C40.5831 59.0849 39.85 58.5037 39.1102 58.2651C38.7394 58.1455 38.2408 58.0727 37.7487 58.2658C37.1964 58.4825 36.8589 58.9505 36.7294 59.4958L38.6754 59.9577C38.6815 59.9319 38.6793 59.9607 38.6404 60.0093C38.5982 60.0618 38.5397 60.1038 38.4792 60.1276C38.3773 60.1676 38.3615 60.1251 38.4964 60.1686C38.6158 60.2071 38.7772 60.2909 38.945 60.4224C39.1111 60.5526 39.2502 60.7035 39.3427 60.8455L41.019 59.7547ZM79.046 65.6038C79.6386 65.397 80.1588 65.1109 80.4961 64.7156C80.6701 64.5116 80.8309 64.2354 80.8724 63.8956C80.9166 63.5342 80.8137 63.1876 80.6018 62.913C80.2199 62.4181 79.6082 62.2834 79.1532 62.2661C78.6463 62.2469 78.069 62.3564 77.4627 62.5925L78.1886 64.4562C78.6015 64.2953 78.9035 64.2581 79.0774 64.2647C79.1643 64.268 79.1977 64.2813 79.191 64.2787C79.1881 64.2776 79.104 64.2458 79.0184 64.1349C78.9195 64.0068 78.8655 63.8304 78.8872 63.6531C78.9062 63.4973 78.9731 63.4192 78.9746 63.4175C78.9775 63.414 78.9454 63.4513 78.8429 63.5124C78.7433 63.5717 78.5953 63.6428 78.387 63.7156L79.046 65.6038ZM33.8796 67.8371C33.783 67.6741 33.6416 67.5145 33.4441 67.3974C33.2473 67.2808 33.048 67.2378 32.8811 67.2291C32.5951 67.2144 32.3415 67.3029 32.268 67.3268C32.1979 67.3496 32.1833 67.3553 32.144 67.3674C32.1155 67.3763 32.1109 67.3764 32.1197 67.3748C32.1356 67.372 32.276 67.3485 32.4481 67.4296L31.5954 69.2387C31.9422 69.4022 32.2701 69.38 32.475 69.343C32.5783 69.3244 32.6686 69.2986 32.734 69.2784C32.7886 69.2616 32.867 69.2351 32.8874 69.2285C32.9258 69.216 32.9315 69.2152 32.9236 69.217C32.9164 69.2185 32.8612 69.2308 32.7778 69.2265C32.6864 69.2217 32.5573 69.1967 32.4243 69.1179C32.2905 69.0386 32.2063 68.9365 32.1589 68.8566L33.8796 67.8371ZM28.4788 71.7326C28.2946 71.6824 28.0937 71.6641 27.8866 71.6973C27.678 71.7307 27.4996 71.8104 27.3546 71.9092C27.0865 72.0919 26.9454 72.3341 26.8981 72.4155C26.8855 72.4371 26.8711 72.4628 26.8681 72.4681C26.8607 72.4811 26.866 72.4713 26.8762 72.4554C26.8816 72.447 26.9226 72.3817 26.9957 72.3095C27.0525 72.2532 27.2742 72.045 27.6427 72.0304C28.065 72.0137 28.3295 72.256 28.431 72.3765C28.5263 72.4896 28.568 72.5938 28.5765 72.6149C28.5983 72.6686 28.6004 72.6934 28.5864 72.6314L26.6354 73.0714C26.6511 73.1412 26.6781 73.2555 26.7227 73.3656C26.7427 73.4149 26.7953 73.539 26.9013 73.6649C27.0135 73.7982 27.2886 74.046 27.7217 74.0289C28.101 74.0139 28.3336 73.7992 28.4019 73.7316C28.4865 73.648 28.5395 73.5665 28.5578 73.5381C28.5809 73.5022 28.5999 73.4686 28.6075 73.4552C28.6195 73.4341 28.6213 73.4307 28.6265 73.4218C28.6502 73.381 28.6055 73.477 28.481 73.5618C28.3023 73.6836 28.0941 73.7008 27.9521 73.662L28.4788 71.7326ZM26.9746 71.6454C26.6826 72.0124 26.474 72.425 26.4086 72.8575C26.3429 73.2918 26.4214 73.7993 26.7812 74.1948C27.1483 74.5985 27.6594 74.7218 28.1167 74.6721C28.5614 74.6239 28.9822 74.4177 29.3526 74.1317L28.1303 72.5487C27.9571 72.6824 27.8762 72.6865 27.9008 72.6838C27.938 72.6798 28.1107 72.6841 28.2607 72.8491C28.4034 73.006 28.3863 73.1552 28.3861 73.1566C28.3858 73.1588 28.3892 73.1354 28.4121 73.0872C28.4349 73.0395 28.4743 72.9728 28.5398 72.8904L26.9746 71.6454ZM44.4423 49.3948C44.7667 50.2489 45.4835 50.5879 46.0948 50.7037C46.6537 50.8095 47.2734 50.7603 47.6777 50.7343L47.549 48.7384C47.0662 48.7695 46.7255 48.7876 46.467 48.7386C46.3535 48.7171 46.3132 48.6913 46.3089 48.6884C46.3084 48.688 46.3123 48.6909 46.3165 48.6962C46.3206 48.7016 46.3178 48.7001 46.312 48.6846L44.4423 49.3948ZM37.802 82.2867C38.3019 82.4537 38.834 82.4985 39.3201 82.3235C39.8319 82.1393 40.2155 81.7323 40.3456 81.2021C40.5988 80.1709 39.8576 79.2679 38.9465 78.841L38.098 80.6521C38.3011 80.7473 38.3784 80.8422 38.3983 80.8733C38.4209 80.9086 38.3717 80.854 38.4033 80.7252C38.4192 80.6607 38.4529 80.5941 38.5046 80.5379C38.5561 80.482 38.6093 80.4538 38.6428 80.4417C38.7041 80.4196 38.6547 80.4629 38.4357 80.3898L37.802 82.2867ZM26.0795 71.7694C26.2804 72.5025 26.7584 73.122 27.4104 73.4611C28.08 73.8094 28.8955 73.8377 29.6412 73.4328L28.687 71.6751C28.5476 71.7508 28.4362 71.7403 28.3334 71.6869C28.2132 71.6243 28.0737 71.4791 28.0084 71.2408L26.0795 71.7694ZM55.7654 78.8742C56.288 78.971 56.797 78.9944 57.2238 78.8742C57.4396 78.8134 57.7158 78.6927 57.9343 78.4432C58.1799 78.1627 58.2813 77.797 58.2209 77.4352C58.1672 77.1133 58.0001 76.8698 57.8537 76.7093C57.7011 76.5421 57.5189 76.4069 57.3339 76.2982C56.963 76.0803 56.4904 75.9155 55.9474 75.8148L55.5828 77.7812C55.9586 77.8509 56.1979 77.9504 56.3207 78.0226C56.3824 78.0589 56.3925 78.0752 56.3761 78.0572C56.366 78.0461 56.2791 77.9499 56.2482 77.7645C56.2106 77.5393 56.2774 77.2996 56.4295 77.1258C56.5545 76.9831 56.6784 76.95 56.6815 76.9491C56.6832 76.9486 56.5258 76.981 56.1295 76.9076L55.7654 78.8742ZM35.9958 61.1812C36.0503 61.4611 36.1748 61.7546 36.4174 61.9933C36.6607 62.2327 36.9474 62.3428 37.1961 62.3865C37.6339 62.4635 38.0775 62.3529 38.3282 62.2857L37.8106 60.3539C37.7 60.3835 37.62 60.4006 37.5615 60.4086C37.4989 60.4172 37.5008 60.4094 37.5425 60.4167C37.595 60.4259 37.711 60.4604 37.8201 60.5677C37.9285 60.6744 37.9552 60.7794 37.959 60.799L35.9958 61.1812Z" fill="#438F43" mask="url(#path-3-outside-2_1099_753)"/>
</svg>
