<svg width="78" height="117" viewBox="0 0 78 117" fill="none" xmlns="http://www.w3.org/2000/svg">
<mask id="path-1-outside-1_1099_748" maskUnits="userSpaceOnUse" x="-4.72083e-06" y="0.230954" width="78" height="116" fill="black">
<rect fill="white" x="-4.72083e-06" y="0.230954" width="78" height="116"/>
<path d="M68.7187 40.8945C68.6031 40.8572 68.4873 40.8773 68.3703 40.8931C65.9325 41.217 63.4981 41.571 61.0406 41.7401C59.1521 41.8701 57.2736 42.1187 55.4091 42.4598C54.115 42.6978 52.8074 42.868 51.5532 43.2895C50.7822 43.5489 49.9895 43.7504 49.239 44.0572C47.7672 44.6581 46.3582 45.3775 45.2474 46.5606C44.9102 46.9198 44.543 47.2481 44.158 47.5563C43.7445 47.8862 43.3869 48.2679 43.0984 48.7103C42.7365 49.2671 42.3304 49.7923 41.9261 50.3185C41.4345 50.9598 41.0098 51.636 40.8015 52.4298C40.7269 52.7139 40.6205 52.9894 40.5024 53.3489C40.4293 53.1339 40.3746 52.9994 40.3369 52.8588C39.8255 50.9792 39.3305 49.0969 38.9307 47.1874C38.6316 45.7637 38.4512 44.3253 38.3064 42.8804C38.2884 42.6972 38.3216 42.5718 38.4507 42.4564C39.1319 41.8389 39.822 41.2252 40.624 40.7742C41.511 40.2755 42.3861 39.7784 43.1446 39.078C43.8145 38.4589 44.3972 37.7574 45.0613 37.1398C45.8341 36.4232 46.3494 35.5751 46.7599 34.6138C47.5059 32.8696 47.9776 31.0467 48.2309 29.186C48.5751 26.667 48.7785 24.1268 49.0406 21.5972C49.0607 21.4054 49.0793 21.214 49.079 21.0214C49.0782 20.8274 48.9708 20.6931 48.778 20.6578C48.4884 20.6033 48.2434 20.6456 48.0145 20.8872C47.4994 21.4291 46.9467 21.9408 46.3114 22.3409C45.7361 22.7048 45.2361 23.1464 44.773 23.6387C44.5166 23.9109 44.265 24.1896 43.9867 24.4382C42.4952 25.7715 41.2524 27.3257 40.0774 28.93C39.2757 30.0257 38.9745 31.3539 38.6497 32.6466C38.4555 33.4179 38.3897 34.2216 38.1603 35.0413C38.1324 34.9602 38.1125 34.9267 38.1076 34.8907C37.9841 33.827 37.8102 32.7721 37.6359 31.7157C37.265 29.4676 36.983 27.2035 36.032 25.0922C35.4199 23.7352 34.7756 22.3978 33.9521 21.1565C33.0218 19.7543 31.8463 18.539 30.8936 17.1521C30.6458 16.7897 30.3201 16.4902 29.984 16.2042C29.724 15.9818 29.4374 15.7759 29.2283 15.5119C28.3135 14.3588 27.2285 13.3709 26.1904 12.3378C25.2205 11.3735 24.2344 10.4243 23.2315 9.49367C22.6939 8.99455 22.1033 8.55311 21.4328 8.23095C21.3732 8.4318 21.4352 8.61094 21.4415 8.79103C21.5124 10.7311 21.8495 12.6387 22.1561 14.5483C22.4208 16.1971 22.8031 17.827 23.2307 19.44C23.5938 20.8124 23.7887 22.2299 24.3646 23.5499C24.7587 24.4526 25.153 25.3443 25.6439 26.2024C26.1214 27.0393 26.7153 27.8061 27.1195 28.6828C27.5793 29.6797 28.0958 30.6335 28.8639 31.4359C29.0388 31.619 29.1701 31.8479 29.3034 32.067C29.8816 33.0307 30.529 33.9509 31.0471 34.9509C31.2149 35.2757 31.4576 35.5493 31.6898 35.8305C32.5701 36.8949 33.3335 38.0451 34.0792 39.2047C34.5371 39.9163 34.9522 40.6424 35.5789 41.2358C36.0116 41.6449 36.429 42.1126 36.6585 42.6617C37.0256 43.539 37.077 44.4962 37.1897 45.5022C37.0353 45.3727 36.9319 45.2823 36.8249 45.196C35.7125 44.2916 34.6276 43.3503 33.4807 42.4909C32.0079 41.3894 30.3705 40.5604 28.6787 39.8532C26.7035 39.0277 24.6102 38.6083 22.5293 38.1592C21.4395 37.9245 20.3672 37.8017 19.2295 37.9682C17.618 38.2043 16.0087 38.3963 14.4735 38.9754C12.7916 39.6094 11.1183 40.2644 9.55695 41.169C9.14815 41.4059 8.79599 41.7209 8.48273 42.0767C8.34343 42.2352 8.30395 42.4416 8.51489 42.5388C9.32018 42.9119 9.91957 43.5312 10.5262 44.1485C11.6803 45.3245 12.6547 46.6652 13.8898 47.7667C15.2608 48.9871 16.7566 49.9892 18.522 50.5648C19.9007 51.0141 21.3462 51.0338 22.7535 51.2937C24.1264 51.5473 25.4962 51.6324 26.9006 51.545C28.5744 51.443 30.2475 51.4716 31.8855 50.9923C33.7713 50.4404 35.665 49.9299 37.4394 49.0319C37.7009 50.3383 37.9718 51.6857 38.2417 53.0349C38.2165 53.051 38.1927 53.0667 38.1679 53.0842C37.0206 52.374 35.6765 52.2339 34.4509 51.7591C33.7778 51.4967 33.0525 51.4627 32.3903 51.1833C32.1887 51.0975 32.0449 51.251 32.0643 51.5146C32.1131 52.1431 32.1398 52.7761 32.2303 53.3981C32.3929 54.5151 32.5391 55.6349 32.7767 56.7535C32.3546 56.674 31.9406 56.5612 31.5199 56.5217C30.0897 56.3906 28.6626 56.4918 27.2399 56.6555C26.2408 56.771 25.279 57.0893 24.2745 57.1906C23.1993 57.3001 22.1712 57.6843 21.0889 57.7677C20.9093 57.7816 20.7442 57.8554 20.5843 57.9542C20.2694 58.1473 20.253 58.2138 20.4036 58.5557C20.7803 59.4164 21.4406 59.9961 22.2645 60.375C23.3434 60.8705 24.4019 61.4056 25.4667 61.9297C26.2613 62.3211 27.0901 62.6366 27.8423 63.1248C28.9464 63.8419 30.1301 64.4445 31.3317 64.963C33.0686 65.711 34.9156 66.0752 36.8281 66.0754C38.2044 66.0749 39.5749 66.2032 40.926 66.4968C41.1485 66.5444 41.2369 66.6481 41.2908 66.8667C41.5212 67.7962 41.6026 68.7438 41.6593 69.6918C41.7362 70.9933 41.752 72.2988 41.9339 73.5923C42.0473 74.404 42.1828 75.2113 42.3859 76.0098C42.5995 76.8474 42.7304 77.7072 42.8918 78.5588C43.0088 79.1753 43.1157 79.7945 43.2422 80.4986C43.1479 80.4074 43.1291 80.3953 43.1183 80.378C43.0754 80.3165 43.035 80.2527 42.9921 80.1912C42.3282 79.2443 41.5836 78.3905 40.5191 77.8616C39.9046 77.5571 39.3542 77.1437 38.818 76.7141C38.6103 76.5476 38.391 76.3842 38.1531 76.2677C36.297 75.3591 34.4013 74.5403 32.4024 73.9915C30.8328 73.5607 29.2256 73.2969 27.6326 72.9702C26.234 72.6847 24.8251 72.5231 23.3939 72.5275C22.1039 72.5314 20.8316 72.5895 19.5902 72.9952C18.5132 73.3475 17.4389 73.7099 16.335 73.9793C15.7807 74.1138 15.6756 74.4232 15.8363 74.9767C16.1938 76.2123 16.7767 77.3441 17.448 78.4288C18.5129 80.1476 19.6015 81.8507 20.6967 83.549C21.1082 84.186 21.512 84.8406 22.0751 85.3593C23.4017 86.5823 24.6346 87.919 26.24 88.814C27.1807 89.3387 28.0058 90.07 29.0762 90.3596C29.6141 90.506 30.1333 90.7102 30.6372 90.9496C32.1717 91.6788 33.812 91.985 35.4847 92.0759C37.7299 92.1982 39.9346 91.8048 42.1311 91.398C43.1614 91.2074 44.1911 91.0092 45.2169 90.7902C45.5506 90.7195 45.6854 90.7936 45.7531 91.139C46.0083 92.4394 46.29 93.7342 46.5688 95.0297C46.7086 95.679 46.9777 96.2951 47.0649 96.9569C47.238 98.2637 47.4732 99.5647 47.8188 100.831C48.3087 102.619 48.4445 104.483 49.0448 106.242C49.0962 106.393 49.1058 106.556 49.1343 106.715C49.2101 107.148 49.3297 107.572 49.4677 107.988C49.5245 108.159 49.6443 108.247 49.8351 108.229C50.0469 108.207 50.0873 108.057 50.0965 107.888C50.102 107.804 50.0921 107.715 50.0693 107.636C49.8993 107.048 49.8163 106.442 49.6996 105.844C49.5164 104.912 49.127 104.026 49.0751 103.061C49.0477 102.559 48.9592 102.061 48.7892 101.583C48.3628 100.386 48.2146 99.1252 47.9333 97.8956C47.7619 97.1461 47.74 96.3627 47.4574 95.6383C47.3045 95.2474 47.1802 94.8473 47.1106 94.4371C46.9098 93.2527 46.5545 92.1066 46.2765 90.9413C46.2377 90.7793 46.1799 90.6503 46.4485 90.6902C46.586 90.7108 46.7219 90.6495 46.7498 90.4696C46.775 90.3028 46.7329 90.1805 46.5814 90.0906C46.3436 89.9508 46.0849 89.8958 45.8149 89.8796C45.4057 89.8541 45.0024 89.9202 44.6044 90.0004C42.6228 90.3978 40.6445 90.8129 38.6369 91.0666C35.9706 91.4019 33.3657 91.247 30.8763 90.1258C30.6129 90.0068 30.3494 89.8755 30.0733 89.8019C29.0236 89.5254 28.1167 88.9761 27.1848 88.4381C25.4668 87.4474 24.0422 86.114 22.6163 84.77C22.4147 84.5801 22.2298 84.3655 22.0727 84.1388C21.0744 82.6974 20.0677 81.2597 19.1817 79.7447C18.9812 79.4022 18.7534 79.0796 18.532 78.752C17.7368 77.57 17.0108 76.3507 16.5467 74.9899C16.4453 74.6923 16.5254 74.6087 16.7998 74.543C17.352 74.4121 17.9147 74.2971 18.4383 74.0884C20.7011 73.1869 23.0592 73.0351 25.4193 73.3722C28.8474 73.8627 32.2662 74.463 35.4791 75.8548C36.4196 76.263 37.4115 76.5845 38.2459 77.1937C38.966 77.7185 39.6987 78.215 40.4794 78.6413C40.8196 78.8267 41.1467 79.0326 41.4171 79.3113C42.6837 80.6234 43.6476 82.1564 44.4661 83.7672C44.9133 84.6479 45.182 85.6215 45.5097 86.5606C45.7664 87.2981 46.005 88.0436 46.1827 88.8054C46.2282 88.9983 46.3274 89.1193 46.5404 89.0793C46.7476 89.0409 46.7696 88.8796 46.7533 88.7085C46.7422 88.5918 46.7293 88.4741 46.699 88.361C46.3805 87.1724 46.0454 85.9914 45.5694 84.8527C45.274 84.1442 45.0891 83.3905 44.6841 82.7254C44.4841 82.3968 44.2421 82.0732 44.1691 81.6966C43.9965 80.803 43.7593 79.9235 43.5392 79.0441C43.0799 77.2081 42.8786 75.3262 42.4649 73.4811C42.2395 72.4773 42.2709 71.4233 42.2069 70.3902C42.1343 69.2088 42.1502 68.016 41.824 66.8621C41.7991 66.7693 41.7724 66.6755 41.8134 66.5791C41.8841 66.4141 41.8099 66.3283 41.6633 66.2511C41.0832 65.9529 40.4484 65.8045 39.835 65.6084C38.9427 65.3224 38.001 65.3215 37.073 65.2672C36.0279 65.2054 34.984 65.1651 33.9505 64.9433C31.8758 64.5003 30.0641 63.4617 28.2296 62.4773C27.7018 62.1946 27.1924 61.8821 26.6335 61.6574C25.2247 61.0904 23.898 60.3428 22.4902 59.7677C21.8762 59.5174 21.3626 59.1081 21.0918 58.4567C21.4708 58.3754 21.846 58.3028 22.2202 58.215C22.9478 58.0433 23.6619 57.8209 24.4075 57.7159C25.9211 57.5029 27.4432 57.3623 28.9612 57.1886C30.1521 57.0528 31.3287 56.8867 32.5225 57.1323C32.8052 57.1902 32.9973 57.2521 32.9828 57.5978C32.9753 57.7614 33.0351 57.938 33.0989 58.0949C33.5047 59.111 33.9665 60.0981 34.6692 60.9522C34.8164 61.1303 34.9434 61.3262 35.1287 61.5826C34.9477 61.5161 34.8468 61.4872 34.7535 61.4408C33.9941 61.0648 33.1923 60.7918 32.3903 60.5297C30.5122 59.9159 28.5645 59.616 26.6228 59.2926C25.4438 59.0959 24.2741 58.8298 23.0674 58.8548C22.9888 58.8573 22.8767 58.7925 22.8467 58.9124C22.8147 59.0422 22.947 59.0549 23.0278 59.0954C23.0744 59.1186 23.1302 59.1239 23.1832 59.1361C24.155 59.348 25.1262 59.5632 26.0994 59.7685C28.1086 60.1933 30.1318 60.5601 32.1034 61.1519C33.2807 61.5045 34.4806 61.7904 35.5955 62.3275C36.1841 62.611 36.7688 62.8971 37.298 63.2836C38.2957 64.0152 39.3268 64.6975 40.3206 65.4317C40.9638 65.9072 41.7953 66.0246 42.3717 66.5988C42.4543 66.6808 42.5649 66.6993 42.6545 66.593C42.7394 66.4925 42.7069 66.4002 42.6289 66.3062C42.4833 66.1339 42.3303 65.9745 42.1293 65.8621C41.5994 65.566 41.0202 65.3701 40.5258 64.9976C39.853 64.4928 39.1485 64.0321 38.4622 63.5464C37.9501 63.1834 37.479 62.7643 36.9376 62.4371C36.3761 62.0982 35.8958 61.6567 35.5161 61.1153C34.5912 59.7971 33.917 58.3884 33.6067 56.7781C33.3753 55.5724 33.158 54.3613 32.9142 53.1558C32.8102 52.6399 32.6291 52.1323 32.6313 51.5724C33.0947 51.7015 33.5342 51.8167 33.957 52.0033C34.8463 52.3942 35.6846 52.8904 36.598 53.2376C37.0925 53.4252 37.5549 53.713 38.001 54.0036C39.1516 54.7548 39.4087 55.9987 39.6596 57.2132C39.8692 58.2275 39.8316 59.2816 40.074 60.2964C40.0943 60.3779 40.0969 60.4689 40.0815 60.5507C39.9519 61.2208 40.1452 61.8262 40.3734 62.4517C40.7417 63.4608 41.3906 64.2998 41.9207 65.2111C41.9866 65.324 42.0829 65.4396 42.2247 65.3658C42.3474 65.3019 42.3305 65.1635 42.2812 65.0493C42.2017 64.8624 42.1285 64.6707 42.0263 64.4977C41.4069 63.4503 40.9077 62.3583 40.7561 61.1374C40.6485 60.2776 40.495 59.4207 40.512 58.5508C40.5356 57.3343 40.2903 56.1695 39.919 55.0215C39.8261 54.7326 39.716 54.4436 39.4884 54.2436C38.9759 53.7921 38.6512 53.2701 38.7237 52.5609C38.7243 52.5514 38.7197 52.5402 38.7184 52.5296C38.4553 51.2749 38.1931 50.0184 37.93 48.7637C37.9109 48.6694 37.8871 48.5748 37.855 48.484C37.7683 48.2415 37.5966 48.2036 37.3792 48.3318C36.8382 48.6492 36.3131 49.009 35.6943 49.1577C34.9953 49.3263 34.3289 49.5935 33.6395 49.7922C32.2927 50.181 30.9442 50.5579 29.5451 50.723C28.521 50.8436 27.491 50.7219 26.4678 50.8345C26.0209 50.8828 25.5701 50.9399 25.1218 50.8844C23.4449 50.6735 21.7646 50.479 20.0966 50.2144C18.7775 50.0054 17.5437 49.5406 16.4058 48.8015C15.5328 48.2337 14.6815 47.6602 13.9445 46.91C13.3064 46.2622 12.6735 45.6162 12.0704 44.931C11.2039 43.9468 10.326 42.9609 9.1541 42.2573C10.0071 41.7009 10.8334 41.2014 11.7378 40.8022C12.7618 40.3507 13.7474 39.8256 14.8369 39.5197C16.435 39.0713 18.027 38.6291 19.7093 38.6398C21.037 38.6491 22.3469 38.8295 23.6456 39.061C24.8592 39.2764 26.0281 39.6903 27.2016 40.075C28.2473 40.4178 29.2712 40.8239 30.2306 41.3545C31.1098 41.8413 31.9308 42.4292 32.7669 42.9929C34.2268 43.9766 35.551 45.1443 37.0379 46.0898C37.1446 46.1575 37.2283 46.2609 37.3158 46.3555C37.5578 46.6154 37.7409 46.9159 37.9164 47.2231C37.9843 47.3431 38.0769 47.4799 38.2452 47.4006C38.4272 47.3146 38.3743 47.1517 38.3151 47.0122C38.2522 46.8643 38.1896 46.7118 38.095 46.5849C37.8421 46.244 37.7737 45.8553 37.7311 45.4473C37.6299 44.5127 37.51 43.5785 37.2886 42.6653C37.2026 42.3093 37.0134 41.9917 36.7814 41.6826C36.2482 40.9741 35.5749 40.3746 35.1438 39.589C34.261 37.9815 33.2101 36.4889 32.0412 35.0776C31.8208 34.8119 31.6528 34.5152 31.4893 34.2125C31.2147 33.7035 30.9083 33.2154 30.6027 32.724C30.0486 31.8332 29.4031 31.0072 28.8106 30.1468C27.6487 28.4602 26.8368 26.5726 25.9668 24.7286C24.8174 22.2945 24.0782 19.7038 23.367 17.1135C22.8342 15.1713 22.4787 13.1894 22.2067 11.1945C22.1221 10.5771 22.0138 9.96444 21.9094 9.29641C22.3103 9.60381 22.7331 9.76706 23.0553 10.094C24.0915 11.1493 25.1267 12.2065 26.1848 13.2388C27.3894 14.4122 28.5228 15.6559 29.728 16.8259C30.4504 17.5272 30.9495 18.3925 31.5794 19.1605C32.6943 20.521 33.6982 21.9485 34.4677 23.5445C35.1293 24.9177 35.7444 26.3034 36.1221 27.7822C36.4553 29.0896 36.6137 30.4345 36.8718 31.7573C37.3057 33.9854 37.6295 36.226 37.691 38.4964C37.7319 40.0638 37.6586 41.634 37.8938 43.196C38.0548 44.2606 38.1932 45.3281 38.4021 46.386C38.5827 47.2978 38.6821 48.2251 38.8866 49.1335C39.3001 50.9724 39.7702 52.7962 40.2769 54.6118C40.3234 54.7795 40.3788 54.9169 40.5901 54.9054C40.7952 54.8939 40.8332 54.7284 40.8392 54.5885C40.8509 54.3073 40.9174 54.0393 40.9879 53.775C41.2201 52.908 41.4031 52.0138 41.9656 51.2836C43.0047 49.9316 43.8539 48.4162 45.2841 47.3991C45.3442 47.3566 45.3956 47.2993 45.4442 47.2428C46.4192 46.1038 47.6959 45.3779 49.0511 44.8579C50.674 44.235 52.3336 43.6971 54.065 43.4041C56.3017 43.0254 58.5355 42.6304 60.7985 42.4714C62.4633 42.3532 64.1213 42.1746 65.7771 41.9764C66.3144 41.9116 66.8494 41.8382 67.4472 41.7619C67.0325 42.3593 66.6635 42.9071 66.2389 43.4155C65.7589 43.99 65.2599 44.551 64.8648 45.1928C64.1919 46.2882 63.4672 47.3462 62.6319 48.3282C61.8698 49.2237 61.2081 50.2042 60.2423 50.9135C59.3804 51.5469 58.5536 52.2298 57.6865 52.8552C56.5475 53.6778 55.3111 54.2934 53.9039 54.515C52.3725 54.7545 50.8293 54.921 49.3255 55.327C48.4069 55.5747 47.4658 55.7383 46.5339 55.9305C45.031 56.2416 43.5171 56.1811 42.0023 56.0417C41.8255 56.0254 41.642 56.0016 41.4847 55.8899C41.3333 55.7829 41.1438 55.7311 41.0239 55.8922C40.8978 56.0596 40.9871 56.2361 41.1368 56.3715C41.2373 56.4627 41.356 56.5287 41.3918 56.6854C41.5304 57.2899 41.7105 57.8864 41.8284 58.4948C42.3117 61.0173 42.7503 63.5471 43.4291 66.0281C43.471 66.1846 43.4845 66.3395 43.4618 66.504C43.3178 67.5727 43.1818 68.6422 43.0415 69.713C42.8343 71.2879 43.0466 72.8514 43.1741 74.4174C43.1977 74.7141 43.2881 75.0052 43.3509 75.2976C43.3825 75.4444 43.4816 75.5127 43.6325 75.5018C43.7666 75.4922 43.8514 75.426 43.8702 75.2874C43.8841 75.1827 43.9085 75.0767 43.9035 74.9708C43.8655 74.2089 43.8152 73.4471 43.7802 72.6844C43.6972 70.8904 43.6967 69.1086 44.1976 67.354C44.6372 65.8116 45.2016 64.3522 46.3711 63.1968C46.5677 63.0028 46.7371 62.7771 46.9067 62.5577C48.2396 60.8412 49.964 59.6116 51.866 58.6157C52.5183 58.2731 53.2401 58.0735 53.8826 57.7056C54.8481 57.1517 55.8889 56.8092 56.9576 56.5244C58.1592 56.2024 59.3973 56.0804 60.6134 55.8353C62.8144 55.3931 65.0633 55.2395 67.2872 54.9233C67.5864 54.8804 67.4403 55.0656 67.409 55.175C67.0796 56.3057 66.7283 57.4298 66.4206 58.5656C65.7437 61.0665 65.0272 63.5469 63.8671 65.8852C63.0461 67.5407 61.7314 68.7801 60.5515 70.1402C60.4626 70.2433 60.3365 70.3175 60.222 70.3948C59.7085 70.7452 59.2347 71.1456 58.7569 71.5424C58.1121 72.0756 57.4457 72.5804 56.6592 72.8921C55.9671 73.1677 55.3487 73.5618 54.7575 74.0107C54.117 74.4962 53.4647 74.9956 52.6873 75.2195C51.4813 75.5659 50.3909 76.158 49.2837 76.711C48.5098 77.0985 47.7713 77.5543 46.922 77.771C46.154 77.9659 45.5415 78.4284 44.9384 78.9084C44.6079 79.171 44.6062 79.4837 44.9574 79.7159C45.0233 79.7588 45.0466 79.8054 45.0462 79.8676C45.0475 80.6146 45.3004 81.3205 45.3934 82.0506C45.5634 83.3924 45.8832 84.7018 46.1726 86.0194C46.2328 86.2907 46.3055 86.5618 46.4103 86.8195C46.6567 87.4262 46.8452 88.0484 47.0232 88.6781C47.5368 90.4902 47.877 92.3457 48.4522 94.1444C48.7543 95.092 49.148 96.0165 49.337 96.9943C49.5424 98.0564 49.8119 99.1027 50.0723 100.15C50.2737 100.96 50.5349 101.749 50.8084 102.538C51.175 103.599 51.1082 104.758 51.4293 105.841C51.4648 105.962 51.4587 106.095 51.4758 106.223C51.4834 106.286 51.4878 106.355 51.515 106.41C51.576 106.533 51.6326 106.675 51.8179 106.63C51.9741 106.593 52.0587 106.491 52.0601 106.334C52.0603 106.195 52.0535 106.054 52.0327 105.918C51.9069 105.107 51.7311 104.306 51.6823 103.48C51.6552 103.019 51.5648 102.537 51.3691 102.108C51.1502 101.628 50.9662 101.138 50.8712 100.621C50.6735 99.5585 50.3123 98.5352 50.1411 97.4671C49.9698 96.3929 49.5082 95.4011 49.2362 94.3569C48.9805 93.3737 48.5858 92.4339 48.3793 91.4312C48.0815 89.9838 47.6942 88.5558 47.1969 87.1634C46.9917 86.5892 46.7733 86.0231 46.6206 85.4302C46.1988 83.7923 45.9707 82.1119 45.5388 80.4767C45.4611 80.1868 45.4324 79.8884 45.431 79.5874C45.4301 79.4913 45.4204 79.3914 45.5147 79.3257C45.9324 79.0351 46.3122 78.6957 46.821 78.536C47.727 78.2529 48.6088 77.9203 49.4527 77.4518C50.3453 76.9563 51.2476 76.4271 52.24 76.1534C53.4788 75.8137 54.5241 75.1515 55.5258 74.3906C55.9377 74.0782 56.3814 73.821 56.8594 73.6277C57.4983 73.368 58.0779 73.0092 58.6324 72.6027C59.2541 72.1456 59.797 71.5915 60.4388 71.1632C61.0871 70.73 61.6235 70.1808 62.0855 69.5568C62.3856 69.1517 62.6882 68.7505 63.0592 68.4072C63.408 68.0854 63.6819 67.7044 63.9199 67.2942C64.885 65.6311 65.6006 63.8547 66.1592 62.0256C66.8671 59.7044 67.4385 57.3436 68.1409 55.0192C68.3082 54.4664 68.0952 54.205 67.5224 54.259C66.8199 54.3276 66.1217 54.4293 65.4203 54.5193C63.8301 54.7248 62.2364 54.9173 60.6487 55.1438C59.9726 55.2411 59.3268 55.498 58.6387 55.5566C57.9975 55.6103 57.3743 55.7664 56.7454 55.9007C54.7814 56.3229 53.0596 57.342 51.2942 58.2096C49.2035 59.2375 47.4788 60.7731 46.0133 62.6153C45.2055 63.6303 44.4303 64.6335 44.0191 65.8762C44.0157 65.8865 43.9843 65.8855 43.951 65.8945C43.0992 62.8431 42.6636 59.6926 41.7908 56.6266C42.8981 56.7525 44.0029 56.8169 45.1096 56.7845C46.4765 56.7429 47.7964 56.3924 49.123 56.1192C50.5584 55.8232 51.9914 55.5122 53.4512 55.365C55.4241 55.1673 57.1198 54.3525 58.6476 53.1259C59.273 52.6243 59.9209 52.1493 60.5592 51.6613C61.0106 51.3167 61.4694 50.9762 61.8211 50.5262C62.9614 49.071 64.198 47.6848 65.1437 46.0829C65.3004 45.8156 65.4678 45.5533 65.6434 45.298C66.2186 44.4588 66.9383 43.7299 67.5054 42.8835C67.847 42.3725 68.205 41.882 68.7634 41.5832C68.8179 41.5546 68.8603 41.4982 68.8999 41.4488C69.0816 41.2168 69.0109 40.9934 68.7291 40.9042L68.7187 40.8945ZM38.4437 41.1082C38.8204 40.2181 39.2092 39.3324 39.5943 38.4447C40.409 36.5625 41.4229 34.7745 42.2596 32.9051C42.9595 31.3426 43.8731 29.8876 44.5613 28.322C44.8576 27.6476 45.2825 27.0304 45.4552 26.3005C45.6628 26.0025 45.8417 25.6905 45.9526 25.3392C45.7057 25.612 45.421 25.8483 45.2798 26.1968C44.6893 27.2748 44.1058 28.3555 43.5061 29.4282C43.1403 30.0808 42.7598 30.725 42.3665 31.3617C42.1401 31.7284 41.9932 32.1313 41.8002 32.5124C41.1301 33.8385 40.4175 35.1449 39.7988 36.4945C39.2981 37.5888 38.7399 38.6596 38.3281 39.8016C38.286 39.2846 38.361 38.7705 38.2986 38.259C38.2859 38.1536 38.2986 38.0446 38.2786 37.9412C38.1756 37.4002 38.3389 36.8904 38.4771 36.3857C38.7654 35.3281 38.9169 34.2466 39.0942 33.1691C39.1899 32.581 39.3637 32.0296 39.6799 31.5223C40.075 30.8866 40.3308 30.1827 40.6687 29.5188C41.61 27.6804 42.8929 26.1077 44.4115 24.719C44.6636 24.4883 44.8982 24.239 45.125 23.984C45.5991 23.4515 46.1387 23.0071 46.7705 22.6747C47.4092 22.3389 47.9678 21.8956 48.4731 21.3811C48.5831 21.4728 48.5211 21.5717 48.5061 21.655C48.2416 23.1319 48.1484 24.6281 47.9958 26.1169C47.7639 28.365 47.428 30.5958 46.7622 32.7613C46.4892 33.65 46.084 34.4919 45.6824 35.3297C45.5759 35.5524 45.4374 35.7604 45.2616 35.9334C44.2178 36.9604 43.2806 38.0955 42.1409 39.0254C41.715 39.3726 41.2585 39.6751 40.7659 39.9065C39.9392 40.2943 39.299 40.9319 38.5908 41.4774C38.4995 41.5485 38.4157 41.63 38.2941 41.7387C38.2771 41.4838 38.3689 41.293 38.4455 41.1093L38.4437 41.1082Z"/>
<path d="M36.0708 36.5827C35.7105 35.6554 35.3267 34.7391 34.9859 33.8035C34.3772 32.1349 33.6861 30.5008 32.9874 28.8672C31.6816 25.8085 29.9872 22.9581 28.3985 20.0497C27.9159 19.1646 27.197 18.4359 26.705 17.5563C25.766 15.8784 24.8443 14.1896 23.923 12.5022C23.6421 11.9871 23.3799 11.4608 23.1137 10.9371C23.0682 10.8483 23.0361 10.7404 22.9127 10.7843C22.7767 10.8332 22.8525 10.9481 22.8747 11.0307C22.9104 11.164 22.9654 11.2938 23.0127 11.424C23.4983 12.7434 24.2095 13.9542 24.8302 15.2094C25.3981 16.3607 25.8716 17.5653 26.5989 18.6272C27.4001 19.7968 28.0462 21.0483 28.7313 22.2832C30.7914 25.9942 32.5409 29.8506 34.1579 33.769C34.7207 35.1329 35.3572 36.4647 35.9063 37.8355C36.2068 38.5861 36.6772 39.2633 36.9638 40.0254C36.9912 40.0988 37.0201 40.1719 37.1184 40.1502C37.2326 40.1243 37.2358 40.0318 37.2114 39.9466C37.1617 39.7611 37.1077 39.5767 37.0391 39.3962C36.7827 38.7176 36.4626 38.0623 36.2826 37.3555C36.2134 37.0975 36.1667 36.8304 36.0708 36.5827Z"/>
<path d="M43.8698 87.8642C41.3169 87.0568 38.8511 86.0179 36.4167 84.9224C33.4912 83.6058 30.6735 82.0599 27.7708 80.6891C25.8055 79.7615 23.9429 78.6371 22.0457 77.581C20.9338 76.9623 19.7851 76.4094 18.722 75.7062C18.5344 75.4815 18.2564 75.3773 18.0388 75.1917C18.0023 75.1595 17.9477 75.1182 17.9074 75.1881C17.8745 75.245 17.9123 75.2877 17.9508 75.3271C18.1657 75.5492 18.3842 75.7672 18.6508 75.9272C18.7298 75.9962 18.8082 76.0684 18.8898 76.1351C19.5096 76.651 20.2118 77.0392 20.8931 77.4657C22.5806 78.5221 24.2766 79.5637 26.0193 80.5245C28.0982 81.6733 30.2565 82.6719 32.365 83.7631C34.2569 84.7414 36.1425 85.7198 38.1343 86.4911C39.8992 87.1756 41.6342 87.9396 43.4749 88.4081C43.9919 88.5399 44.5101 88.6822 45.0509 88.6771C45.1765 88.6761 45.3299 88.663 45.3552 88.5024C45.3808 88.3371 45.2333 88.2911 45.114 88.2516C44.7004 88.117 44.2844 87.9908 43.8701 87.8594L43.8698 87.8642Z"/>
<path d="M45.8432 76.8684C46.134 76.4752 46.3839 76.0509 46.6861 75.6654C47.4668 74.6654 48.2825 73.6918 49.0729 72.6986C50.3889 71.0409 51.8825 69.5299 53.3234 67.9786C54.8461 66.3386 56.5134 64.8494 58.2025 63.3839C59.7456 62.046 61.1853 60.5945 62.7796 59.3144C63.8535 58.4518 64.9169 57.5734 65.8854 56.5899C66.016 56.457 66.155 56.3204 66.1968 56.059C66.1007 56.1003 66.0582 56.1101 66.0273 56.134C64.613 57.2742 63.1028 58.2941 61.711 59.4547C58.9695 61.7413 56.1591 63.9563 53.6485 66.5073C51.5408 68.6489 49.4421 70.8006 47.7726 73.3251C47.0364 74.439 46.1539 75.4538 45.5594 76.6617C45.4929 76.7961 45.2776 76.961 45.4969 77.1011C45.6897 77.2234 45.7643 76.9797 45.8461 76.8677L45.8432 76.8684Z"/>
<path d="M33.5878 46.6856C32.6723 46.6202 31.7501 46.6747 30.838 46.5291C30.4452 46.4666 30.0514 46.4696 29.6553 46.4871C27.8843 46.5686 26.1127 46.4452 24.413 45.9809C22.0766 45.3439 19.7475 44.6645 17.4933 43.7429C15.9561 43.1139 14.3479 42.6437 12.6936 42.3894C12.4491 42.3524 12.2167 42.2795 11.9834 42.1975C11.5671 42.0527 11.1357 41.985 10.6882 41.9961C10.626 42.019 10.5328 42.0191 10.5223 42.1136C10.5107 42.2208 10.6156 42.2067 10.6759 42.2402C10.9967 42.4169 11.3632 42.3528 11.7014 42.4378C14.3155 43.0967 16.8129 44.0852 19.3088 45.0912C21.0002 45.7737 22.6928 46.4667 24.5052 46.7889C26.272 47.1032 28.0402 47.313 29.8452 47.283C32.1324 47.2434 34.4277 47.211 36.6831 47.7314C36.7642 47.7501 36.8537 47.7417 36.9379 47.7486C37.0447 47.7588 37.1497 47.7276 37.1651 47.6225C37.1797 47.5207 37.0628 47.4961 36.9838 47.4737C35.8646 47.1584 34.7599 46.7693 33.5892 46.6852L33.5878 46.6856Z"/>
<path d="M42.2078 54.8876C42.3238 54.8161 42.412 54.693 42.5318 54.6299C43.7653 53.9746 44.8535 53.0958 46.0067 52.3207C46.8742 51.7372 47.7398 51.1526 48.6133 50.5798C49.6055 49.9287 50.6754 49.4338 51.7542 48.949C52.532 48.5992 53.2756 48.1561 54.0788 47.8896C55.4142 47.4463 56.7813 47.0924 58.0944 46.5774C58.5837 46.3857 59.1061 46.3063 59.5821 46.0825C60.7336 45.544 61.7796 44.821 62.8751 44.1841C63.6051 43.9745 64.1137 43.4203 64.7023 42.9845C64.0367 43.3011 63.3726 43.6173 62.7071 43.9339C62.6749 43.9472 62.6427 43.9605 62.6121 43.9796C62.4928 44.0271 62.3693 44.0648 62.2556 44.1217C61.3681 44.5724 60.4373 44.9196 59.5198 45.2991C59.0528 45.4926 58.5389 45.5402 58.0868 45.7607C57.0755 46.2539 56.0079 46.6005 54.957 46.9924C54.5262 47.1529 54.0683 47.2243 53.6437 47.408C52.9687 47.7007 52.2702 47.9407 51.6071 48.2551C50.7606 48.6559 49.8635 48.9491 49.0688 49.4619C46.9708 50.8164 44.8504 52.1334 42.8611 53.6499C42.5103 53.9178 42.1872 54.2079 41.8965 54.5375C41.795 54.6517 41.7388 54.7724 41.8615 54.9058C41.9798 55.0341 42.1055 54.9523 42.2081 54.889L42.2078 54.8876ZM63.338 43.8534C63.338 43.8534 63.3366 43.8538 63.3351 43.8542C63.3351 43.8542 63.3351 43.8542 63.3347 43.8527C63.3347 43.8527 63.3362 43.8524 63.3376 43.852L63.338 43.8534Z"/>
<path d="M40.7289 64.3017C40.6788 64.2483 40.6223 64.1998 40.5787 64.1415C40.0907 63.4971 39.6216 62.8366 39.1117 62.2089C38.5987 61.5758 38.1336 60.9127 37.7059 60.221C36.9459 58.9907 36.3385 57.6806 35.7174 56.3774C35.3276 55.5605 34.8765 54.7757 34.3796 54.017C34.2399 53.7624 34.0773 53.5263 33.8445 53.3417C33.8946 53.6794 34.0562 53.9639 34.219 54.2465C34.2303 54.2714 34.2435 54.2974 34.2602 54.3194C34.56 55.0034 34.8783 55.6809 35.1575 56.3751C35.9086 58.2448 36.7278 60.0729 37.9135 61.7205C38.262 62.2035 38.7301 62.5706 39.0811 63.0343C39.5089 63.5986 40.0661 64.0024 40.5901 64.4508C40.7625 64.636 40.9335 64.8217 41.1069 65.0052C41.1529 65.055 41.2139 65.0915 41.2739 65.0428C41.3374 64.99 41.3021 64.9218 41.2562 64.8782C41.0664 64.6975 40.9465 64.4531 40.726 64.3025L40.7289 64.3017Z"/>
</mask>
<path d="M68.7187 40.8945C68.6031 40.8572 68.4873 40.8773 68.3703 40.8931C65.9325 41.217 63.4981 41.571 61.0406 41.7401C59.1521 41.8701 57.2736 42.1187 55.4091 42.4598C54.115 42.6978 52.8074 42.868 51.5532 43.2895C50.7822 43.5489 49.9895 43.7504 49.239 44.0572C47.7672 44.6581 46.3582 45.3775 45.2474 46.5606C44.9102 46.9198 44.543 47.2481 44.158 47.5563C43.7445 47.8862 43.3869 48.2679 43.0984 48.7103C42.7365 49.2671 42.3304 49.7923 41.9261 50.3185C41.4345 50.9598 41.0098 51.636 40.8015 52.4298C40.7269 52.7139 40.6205 52.9894 40.5024 53.3489C40.4293 53.1339 40.3746 52.9994 40.3369 52.8588C39.8255 50.9792 39.3305 49.0969 38.9307 47.1874C38.6316 45.7637 38.4512 44.3253 38.3064 42.8804C38.2884 42.6972 38.3216 42.5718 38.4507 42.4564C39.1319 41.8389 39.822 41.2252 40.624 40.7742C41.511 40.2755 42.3861 39.7784 43.1446 39.078C43.8145 38.4589 44.3972 37.7574 45.0613 37.1398C45.8341 36.4232 46.3494 35.5751 46.7599 34.6138C47.5059 32.8696 47.9776 31.0467 48.2309 29.186C48.5751 26.667 48.7785 24.1268 49.0406 21.5972C49.0607 21.4054 49.0793 21.214 49.079 21.0214C49.0782 20.8274 48.9708 20.6931 48.778 20.6578C48.4884 20.6033 48.2434 20.6456 48.0145 20.8872C47.4994 21.4291 46.9467 21.9408 46.3114 22.3409C45.7361 22.7048 45.2361 23.1464 44.773 23.6387C44.5166 23.9109 44.265 24.1896 43.9867 24.4382C42.4952 25.7715 41.2524 27.3257 40.0774 28.93C39.2757 30.0257 38.9745 31.3539 38.6497 32.6466C38.4555 33.4179 38.3897 34.2216 38.1603 35.0413C38.1324 34.9602 38.1125 34.9267 38.1076 34.8907C37.9841 33.827 37.8102 32.7721 37.6359 31.7157C37.265 29.4676 36.983 27.2035 36.032 25.0922C35.4199 23.7352 34.7756 22.3978 33.9521 21.1565C33.0218 19.7543 31.8463 18.539 30.8936 17.1521C30.6458 16.7897 30.3201 16.4902 29.984 16.2042C29.724 15.9818 29.4374 15.7759 29.2283 15.5119C28.3135 14.3588 27.2285 13.3709 26.1904 12.3378C25.2205 11.3735 24.2344 10.4243 23.2315 9.49367C22.6939 8.99455 22.1033 8.55311 21.4328 8.23095C21.3732 8.4318 21.4352 8.61094 21.4415 8.79103C21.5124 10.7311 21.8495 12.6387 22.1561 14.5483C22.4208 16.1971 22.8031 17.827 23.2307 19.44C23.5938 20.8124 23.7887 22.2299 24.3646 23.5499C24.7587 24.4526 25.153 25.3443 25.6439 26.2024C26.1214 27.0393 26.7153 27.8061 27.1195 28.6828C27.5793 29.6797 28.0958 30.6335 28.8639 31.4359C29.0388 31.619 29.1701 31.8479 29.3034 32.067C29.8816 33.0307 30.529 33.9509 31.0471 34.9509C31.2149 35.2757 31.4576 35.5493 31.6898 35.8305C32.5701 36.8949 33.3335 38.0451 34.0792 39.2047C34.5371 39.9163 34.9522 40.6424 35.5789 41.2358C36.0116 41.6449 36.429 42.1126 36.6585 42.6617C37.0256 43.539 37.077 44.4962 37.1897 45.5022C37.0353 45.3727 36.9319 45.2823 36.8249 45.196C35.7125 44.2916 34.6276 43.3503 33.4807 42.4909C32.0079 41.3894 30.3705 40.5604 28.6787 39.8532C26.7035 39.0277 24.6102 38.6083 22.5293 38.1592C21.4395 37.9245 20.3672 37.8017 19.2295 37.9682C17.618 38.2043 16.0087 38.3963 14.4735 38.9754C12.7916 39.6094 11.1183 40.2644 9.55695 41.169C9.14815 41.4059 8.79599 41.7209 8.48273 42.0767C8.34343 42.2352 8.30395 42.4416 8.51489 42.5388C9.32018 42.9119 9.91957 43.5312 10.5262 44.1485C11.6803 45.3245 12.6547 46.6652 13.8898 47.7667C15.2608 48.9871 16.7566 49.9892 18.522 50.5648C19.9007 51.0141 21.3462 51.0338 22.7535 51.2937C24.1264 51.5473 25.4962 51.6324 26.9006 51.545C28.5744 51.443 30.2475 51.4716 31.8855 50.9923C33.7713 50.4404 35.665 49.9299 37.4394 49.0319C37.7009 50.3383 37.9718 51.6857 38.2417 53.0349C38.2165 53.051 38.1927 53.0667 38.1679 53.0842C37.0206 52.374 35.6765 52.2339 34.4509 51.7591C33.7778 51.4967 33.0525 51.4627 32.3903 51.1833C32.1887 51.0975 32.0449 51.251 32.0643 51.5146C32.1131 52.1431 32.1398 52.7761 32.2303 53.3981C32.3929 54.5151 32.5391 55.6349 32.7767 56.7535C32.3546 56.674 31.9406 56.5612 31.5199 56.5217C30.0897 56.3906 28.6626 56.4918 27.2399 56.6555C26.2408 56.771 25.279 57.0893 24.2745 57.1906C23.1993 57.3001 22.1712 57.6843 21.0889 57.7677C20.9093 57.7816 20.7442 57.8554 20.5843 57.9542C20.2694 58.1473 20.253 58.2138 20.4036 58.5557C20.7803 59.4164 21.4406 59.9961 22.2645 60.375C23.3434 60.8705 24.4019 61.4056 25.4667 61.9297C26.2613 62.3211 27.0901 62.6366 27.8423 63.1248C28.9464 63.8419 30.1301 64.4445 31.3317 64.963C33.0686 65.711 34.9156 66.0752 36.8281 66.0754C38.2044 66.0749 39.5749 66.2032 40.926 66.4968C41.1485 66.5444 41.2369 66.6481 41.2908 66.8667C41.5212 67.7962 41.6026 68.7438 41.6593 69.6918C41.7362 70.9933 41.752 72.2988 41.9339 73.5923C42.0473 74.404 42.1828 75.2113 42.3859 76.0098C42.5995 76.8474 42.7304 77.7072 42.8918 78.5588C43.0088 79.1753 43.1157 79.7945 43.2422 80.4986C43.1479 80.4074 43.1291 80.3953 43.1183 80.378C43.0754 80.3165 43.035 80.2527 42.9921 80.1912C42.3282 79.2443 41.5836 78.3905 40.5191 77.8616C39.9046 77.5571 39.3542 77.1437 38.818 76.7141C38.6103 76.5476 38.391 76.3842 38.1531 76.2677C36.297 75.3591 34.4013 74.5403 32.4024 73.9915C30.8328 73.5607 29.2256 73.2969 27.6326 72.9702C26.234 72.6847 24.8251 72.5231 23.3939 72.5275C22.1039 72.5314 20.8316 72.5895 19.5902 72.9952C18.5132 73.3475 17.4389 73.7099 16.335 73.9793C15.7807 74.1138 15.6756 74.4232 15.8363 74.9767C16.1938 76.2123 16.7767 77.3441 17.448 78.4288C18.5129 80.1476 19.6015 81.8507 20.6967 83.549C21.1082 84.186 21.512 84.8406 22.0751 85.3593C23.4017 86.5823 24.6346 87.919 26.24 88.814C27.1807 89.3387 28.0058 90.07 29.0762 90.3596C29.6141 90.506 30.1333 90.7102 30.6372 90.9496C32.1717 91.6788 33.812 91.985 35.4847 92.0759C37.7299 92.1982 39.9346 91.8048 42.1311 91.398C43.1614 91.2074 44.1911 91.0092 45.2169 90.7902C45.5506 90.7195 45.6854 90.7936 45.7531 91.139C46.0083 92.4394 46.29 93.7342 46.5688 95.0297C46.7086 95.679 46.9777 96.2951 47.0649 96.9569C47.238 98.2637 47.4732 99.5647 47.8188 100.831C48.3087 102.619 48.4445 104.483 49.0448 106.242C49.0962 106.393 49.1058 106.556 49.1343 106.715C49.2101 107.148 49.3297 107.572 49.4677 107.988C49.5245 108.159 49.6443 108.247 49.8351 108.229C50.0469 108.207 50.0873 108.057 50.0965 107.888C50.102 107.804 50.0921 107.715 50.0693 107.636C49.8993 107.048 49.8163 106.442 49.6996 105.844C49.5164 104.912 49.127 104.026 49.0751 103.061C49.0477 102.559 48.9592 102.061 48.7892 101.583C48.3628 100.386 48.2146 99.1252 47.9333 97.8956C47.7619 97.1461 47.74 96.3627 47.4574 95.6383C47.3045 95.2474 47.1802 94.8473 47.1106 94.4371C46.9098 93.2527 46.5545 92.1066 46.2765 90.9413C46.2377 90.7793 46.1799 90.6503 46.4485 90.6902C46.586 90.7108 46.7219 90.6495 46.7498 90.4696C46.775 90.3028 46.7329 90.1805 46.5814 90.0906C46.3436 89.9508 46.0849 89.8958 45.8149 89.8796C45.4057 89.8541 45.0024 89.9202 44.6044 90.0004C42.6228 90.3978 40.6445 90.8129 38.6369 91.0666C35.9706 91.4019 33.3657 91.247 30.8763 90.1258C30.6129 90.0068 30.3494 89.8755 30.0733 89.8019C29.0236 89.5254 28.1167 88.9761 27.1848 88.4381C25.4668 87.4474 24.0422 86.114 22.6163 84.77C22.4147 84.5801 22.2298 84.3655 22.0727 84.1388C21.0744 82.6974 20.0677 81.2597 19.1817 79.7447C18.9812 79.4022 18.7534 79.0796 18.532 78.752C17.7368 77.57 17.0108 76.3507 16.5467 74.9899C16.4453 74.6923 16.5254 74.6087 16.7998 74.543C17.352 74.4121 17.9147 74.2971 18.4383 74.0884C20.7011 73.1869 23.0592 73.0351 25.4193 73.3722C28.8474 73.8627 32.2662 74.463 35.4791 75.8548C36.4196 76.263 37.4115 76.5845 38.2459 77.1937C38.966 77.7185 39.6987 78.215 40.4794 78.6413C40.8196 78.8267 41.1467 79.0326 41.4171 79.3113C42.6837 80.6234 43.6476 82.1564 44.4661 83.7672C44.9133 84.6479 45.182 85.6215 45.5097 86.5606C45.7664 87.2981 46.005 88.0436 46.1827 88.8054C46.2282 88.9983 46.3274 89.1193 46.5404 89.0793C46.7476 89.0409 46.7696 88.8796 46.7533 88.7085C46.7422 88.5918 46.7293 88.4741 46.699 88.361C46.3805 87.1724 46.0454 85.9914 45.5694 84.8527C45.274 84.1442 45.0891 83.3905 44.6841 82.7254C44.4841 82.3968 44.2421 82.0732 44.1691 81.6966C43.9965 80.803 43.7593 79.9235 43.5392 79.0441C43.0799 77.2081 42.8786 75.3262 42.4649 73.4811C42.2395 72.4773 42.2709 71.4233 42.2069 70.3902C42.1343 69.2088 42.1502 68.016 41.824 66.8621C41.7991 66.7693 41.7724 66.6755 41.8134 66.5791C41.8841 66.4141 41.8099 66.3283 41.6633 66.2511C41.0832 65.9529 40.4484 65.8045 39.835 65.6084C38.9427 65.3224 38.001 65.3215 37.073 65.2672C36.0279 65.2054 34.984 65.1651 33.9505 64.9433C31.8758 64.5003 30.0641 63.4617 28.2296 62.4773C27.7018 62.1946 27.1924 61.8821 26.6335 61.6574C25.2247 61.0904 23.898 60.3428 22.4902 59.7677C21.8762 59.5174 21.3626 59.1081 21.0918 58.4567C21.4708 58.3754 21.846 58.3028 22.2202 58.215C22.9478 58.0433 23.6619 57.8209 24.4075 57.7159C25.9211 57.5029 27.4432 57.3623 28.9612 57.1886C30.1521 57.0528 31.3287 56.8867 32.5225 57.1323C32.8052 57.1902 32.9973 57.2521 32.9828 57.5978C32.9753 57.7614 33.0351 57.938 33.0989 58.0949C33.5047 59.111 33.9665 60.0981 34.6692 60.9522C34.8164 61.1303 34.9434 61.3262 35.1287 61.5826C34.9477 61.5161 34.8468 61.4872 34.7535 61.4408C33.9941 61.0648 33.1923 60.7918 32.3903 60.5297C30.5122 59.9159 28.5645 59.616 26.6228 59.2926C25.4438 59.0959 24.2741 58.8298 23.0674 58.8548C22.9888 58.8573 22.8767 58.7925 22.8467 58.9124C22.8147 59.0422 22.947 59.0549 23.0278 59.0954C23.0744 59.1186 23.1302 59.1239 23.1832 59.1361C24.155 59.348 25.1262 59.5632 26.0994 59.7685C28.1086 60.1933 30.1318 60.5601 32.1034 61.1519C33.2807 61.5045 34.4806 61.7904 35.5955 62.3275C36.1841 62.611 36.7688 62.8971 37.298 63.2836C38.2957 64.0152 39.3268 64.6975 40.3206 65.4317C40.9638 65.9072 41.7953 66.0246 42.3717 66.5988C42.4543 66.6808 42.5649 66.6993 42.6545 66.593C42.7394 66.4925 42.7069 66.4002 42.6289 66.3062C42.4833 66.1339 42.3303 65.9745 42.1293 65.8621C41.5994 65.566 41.0202 65.3701 40.5258 64.9976C39.853 64.4928 39.1485 64.0321 38.4622 63.5464C37.9501 63.1834 37.479 62.7643 36.9376 62.4371C36.3761 62.0982 35.8958 61.6567 35.5161 61.1153C34.5912 59.7971 33.917 58.3884 33.6067 56.7781C33.3753 55.5724 33.158 54.3613 32.9142 53.1558C32.8102 52.6399 32.6291 52.1323 32.6313 51.5724C33.0947 51.7015 33.5342 51.8167 33.957 52.0033C34.8463 52.3942 35.6846 52.8904 36.598 53.2376C37.0925 53.4252 37.5549 53.713 38.001 54.0036C39.1516 54.7548 39.4087 55.9987 39.6596 57.2132C39.8692 58.2275 39.8316 59.2816 40.074 60.2964C40.0943 60.3779 40.0969 60.4689 40.0815 60.5507C39.9519 61.2208 40.1452 61.8262 40.3734 62.4517C40.7417 63.4608 41.3906 64.2998 41.9207 65.2111C41.9866 65.324 42.0829 65.4396 42.2247 65.3658C42.3474 65.3019 42.3305 65.1635 42.2812 65.0493C42.2017 64.8624 42.1285 64.6707 42.0263 64.4977C41.4069 63.4503 40.9077 62.3583 40.7561 61.1374C40.6485 60.2776 40.495 59.4207 40.512 58.5508C40.5356 57.3343 40.2903 56.1695 39.919 55.0215C39.8261 54.7326 39.716 54.4436 39.4884 54.2436C38.9759 53.7921 38.6512 53.2701 38.7237 52.5609C38.7243 52.5514 38.7197 52.5402 38.7184 52.5296C38.4553 51.2749 38.1931 50.0184 37.93 48.7637C37.9109 48.6694 37.8871 48.5748 37.855 48.484C37.7683 48.2415 37.5966 48.2036 37.3792 48.3318C36.8382 48.6492 36.3131 49.009 35.6943 49.1577C34.9953 49.3263 34.3289 49.5935 33.6395 49.7922C32.2927 50.181 30.9442 50.5579 29.5451 50.723C28.521 50.8436 27.491 50.7219 26.4678 50.8345C26.0209 50.8828 25.5701 50.9399 25.1218 50.8844C23.4449 50.6735 21.7646 50.479 20.0966 50.2144C18.7775 50.0054 17.5437 49.5406 16.4058 48.8015C15.5328 48.2337 14.6815 47.6602 13.9445 46.91C13.3064 46.2622 12.6735 45.6162 12.0704 44.931C11.2039 43.9468 10.326 42.9609 9.1541 42.2573C10.0071 41.7009 10.8334 41.2014 11.7378 40.8022C12.7618 40.3507 13.7474 39.8256 14.8369 39.5197C16.435 39.0713 18.027 38.6291 19.7093 38.6398C21.037 38.6491 22.3469 38.8295 23.6456 39.061C24.8592 39.2764 26.0281 39.6903 27.2016 40.075C28.2473 40.4178 29.2712 40.8239 30.2306 41.3545C31.1098 41.8413 31.9308 42.4292 32.7669 42.9929C34.2268 43.9766 35.551 45.1443 37.0379 46.0898C37.1446 46.1575 37.2283 46.2609 37.3158 46.3555C37.5578 46.6154 37.7409 46.9159 37.9164 47.2231C37.9843 47.3431 38.0769 47.4799 38.2452 47.4006C38.4272 47.3146 38.3743 47.1517 38.3151 47.0122C38.2522 46.8643 38.1896 46.7118 38.095 46.5849C37.8421 46.244 37.7737 45.8553 37.7311 45.4473C37.6299 44.5127 37.51 43.5785 37.2886 42.6653C37.2026 42.3093 37.0134 41.9917 36.7814 41.6826C36.2482 40.9741 35.5749 40.3746 35.1438 39.589C34.261 37.9815 33.2101 36.4889 32.0412 35.0776C31.8208 34.8119 31.6528 34.5152 31.4893 34.2125C31.2147 33.7035 30.9083 33.2154 30.6027 32.724C30.0486 31.8332 29.4031 31.0072 28.8106 30.1468C27.6487 28.4602 26.8368 26.5726 25.9668 24.7286C24.8174 22.2945 24.0782 19.7038 23.367 17.1135C22.8342 15.1713 22.4787 13.1894 22.2067 11.1945C22.1221 10.5771 22.0138 9.96444 21.9094 9.29641C22.3103 9.60381 22.7331 9.76706 23.0553 10.094C24.0915 11.1493 25.1267 12.2065 26.1848 13.2388C27.3894 14.4122 28.5228 15.6559 29.728 16.8259C30.4504 17.5272 30.9495 18.3925 31.5794 19.1605C32.6943 20.521 33.6982 21.9485 34.4677 23.5445C35.1293 24.9177 35.7444 26.3034 36.1221 27.7822C36.4553 29.0896 36.6137 30.4345 36.8718 31.7573C37.3057 33.9854 37.6295 36.226 37.691 38.4964C37.7319 40.0638 37.6586 41.634 37.8938 43.196C38.0548 44.2606 38.1932 45.3281 38.4021 46.386C38.5827 47.2978 38.6821 48.2251 38.8866 49.1335C39.3001 50.9724 39.7702 52.7962 40.2769 54.6118C40.3234 54.7795 40.3788 54.9169 40.5901 54.9054C40.7952 54.8939 40.8332 54.7284 40.8392 54.5885C40.8509 54.3073 40.9174 54.0393 40.9879 53.775C41.2201 52.908 41.4031 52.0138 41.9656 51.2836C43.0047 49.9316 43.8539 48.4162 45.2841 47.3991C45.3442 47.3566 45.3956 47.2993 45.4442 47.2428C46.4192 46.1038 47.6959 45.3779 49.0511 44.8579C50.674 44.235 52.3336 43.6971 54.065 43.4041C56.3017 43.0254 58.5355 42.6304 60.7985 42.4714C62.4633 42.3532 64.1213 42.1746 65.7771 41.9764C66.3144 41.9116 66.8494 41.8382 67.4472 41.7619C67.0325 42.3593 66.6635 42.9071 66.2389 43.4155C65.7589 43.99 65.2599 44.551 64.8648 45.1928C64.1919 46.2882 63.4672 47.3462 62.6319 48.3282C61.8698 49.2237 61.2081 50.2042 60.2423 50.9135C59.3804 51.5469 58.5536 52.2298 57.6865 52.8552C56.5475 53.6778 55.3111 54.2934 53.9039 54.515C52.3725 54.7545 50.8293 54.921 49.3255 55.327C48.4069 55.5747 47.4658 55.7383 46.5339 55.9305C45.031 56.2416 43.5171 56.1811 42.0023 56.0417C41.8255 56.0254 41.642 56.0016 41.4847 55.8899C41.3333 55.7829 41.1438 55.7311 41.0239 55.8922C40.8978 56.0596 40.9871 56.2361 41.1368 56.3715C41.2373 56.4627 41.356 56.5287 41.3918 56.6854C41.5304 57.2899 41.7105 57.8864 41.8284 58.4948C42.3117 61.0173 42.7503 63.5471 43.4291 66.0281C43.471 66.1846 43.4845 66.3395 43.4618 66.504C43.3178 67.5727 43.1818 68.6422 43.0415 69.713C42.8343 71.2879 43.0466 72.8514 43.1741 74.4174C43.1977 74.7141 43.2881 75.0052 43.3509 75.2976C43.3825 75.4444 43.4816 75.5127 43.6325 75.5018C43.7666 75.4922 43.8514 75.426 43.8702 75.2874C43.8841 75.1827 43.9085 75.0767 43.9035 74.9708C43.8655 74.2089 43.8152 73.4471 43.7802 72.6844C43.6972 70.8904 43.6967 69.1086 44.1976 67.354C44.6372 65.8116 45.2016 64.3522 46.3711 63.1968C46.5677 63.0028 46.7371 62.7771 46.9067 62.5577C48.2396 60.8412 49.964 59.6116 51.866 58.6157C52.5183 58.2731 53.2401 58.0735 53.8826 57.7056C54.8481 57.1517 55.8889 56.8092 56.9576 56.5244C58.1592 56.2024 59.3973 56.0804 60.6134 55.8353C62.8144 55.3931 65.0633 55.2395 67.2872 54.9233C67.5864 54.8804 67.4403 55.0656 67.409 55.175C67.0796 56.3057 66.7283 57.4298 66.4206 58.5656C65.7437 61.0665 65.0272 63.5469 63.8671 65.8852C63.0461 67.5407 61.7314 68.7801 60.5515 70.1402C60.4626 70.2433 60.3365 70.3175 60.222 70.3948C59.7085 70.7452 59.2347 71.1456 58.7569 71.5424C58.1121 72.0756 57.4457 72.5804 56.6592 72.8921C55.9671 73.1677 55.3487 73.5618 54.7575 74.0107C54.117 74.4962 53.4647 74.9956 52.6873 75.2195C51.4813 75.5659 50.3909 76.158 49.2837 76.711C48.5098 77.0985 47.7713 77.5543 46.922 77.771C46.154 77.9659 45.5415 78.4284 44.9384 78.9084C44.6079 79.171 44.6062 79.4837 44.9574 79.7159C45.0233 79.7588 45.0466 79.8054 45.0462 79.8676C45.0475 80.6146 45.3004 81.3205 45.3934 82.0506C45.5634 83.3924 45.8832 84.7018 46.1726 86.0194C46.2328 86.2907 46.3055 86.5618 46.4103 86.8195C46.6567 87.4262 46.8452 88.0484 47.0232 88.6781C47.5368 90.4902 47.877 92.3457 48.4522 94.1444C48.7543 95.092 49.148 96.0165 49.337 96.9943C49.5424 98.0564 49.8119 99.1027 50.0723 100.15C50.2737 100.96 50.5349 101.749 50.8084 102.538C51.175 103.599 51.1082 104.758 51.4293 105.841C51.4648 105.962 51.4587 106.095 51.4758 106.223C51.4834 106.286 51.4878 106.355 51.515 106.41C51.576 106.533 51.6326 106.675 51.8179 106.63C51.9741 106.593 52.0587 106.491 52.0601 106.334C52.0603 106.195 52.0535 106.054 52.0327 105.918C51.9069 105.107 51.7311 104.306 51.6823 103.48C51.6552 103.019 51.5648 102.537 51.3691 102.108C51.1502 101.628 50.9662 101.138 50.8712 100.621C50.6735 99.5585 50.3123 98.5352 50.1411 97.4671C49.9698 96.3929 49.5082 95.4011 49.2362 94.3569C48.9805 93.3737 48.5858 92.4339 48.3793 91.4312C48.0815 89.9838 47.6942 88.5558 47.1969 87.1634C46.9917 86.5892 46.7733 86.0231 46.6206 85.4302C46.1988 83.7923 45.9707 82.1119 45.5388 80.4767C45.4611 80.1868 45.4324 79.8884 45.431 79.5874C45.4301 79.4913 45.4204 79.3914 45.5147 79.3257C45.9324 79.0351 46.3122 78.6957 46.821 78.536C47.727 78.2529 48.6088 77.9203 49.4527 77.4518C50.3453 76.9563 51.2476 76.4271 52.24 76.1534C53.4788 75.8137 54.5241 75.1515 55.5258 74.3906C55.9377 74.0782 56.3814 73.821 56.8594 73.6277C57.4983 73.368 58.0779 73.0092 58.6324 72.6027C59.2541 72.1456 59.797 71.5915 60.4388 71.1632C61.0871 70.73 61.6235 70.1808 62.0855 69.5568C62.3856 69.1517 62.6882 68.7505 63.0592 68.4072C63.408 68.0854 63.6819 67.7044 63.9199 67.2942C64.885 65.6311 65.6006 63.8547 66.1592 62.0256C66.8671 59.7044 67.4385 57.3436 68.1409 55.0192C68.3082 54.4664 68.0952 54.205 67.5224 54.259C66.8199 54.3276 66.1217 54.4293 65.4203 54.5193C63.8301 54.7248 62.2364 54.9173 60.6487 55.1438C59.9726 55.2411 59.3268 55.498 58.6387 55.5566C57.9975 55.6103 57.3743 55.7664 56.7454 55.9007C54.7814 56.3229 53.0596 57.342 51.2942 58.2096C49.2035 59.2375 47.4788 60.7731 46.0133 62.6153C45.2055 63.6303 44.4303 64.6335 44.0191 65.8762C44.0157 65.8865 43.9843 65.8855 43.951 65.8945C43.0992 62.8431 42.6636 59.6926 41.7908 56.6266C42.8981 56.7525 44.0029 56.8169 45.1096 56.7845C46.4765 56.7429 47.7964 56.3924 49.123 56.1192C50.5584 55.8232 51.9914 55.5122 53.4512 55.365C55.4241 55.1673 57.1198 54.3525 58.6476 53.1259C59.273 52.6243 59.9209 52.1493 60.5592 51.6613C61.0106 51.3167 61.4694 50.9762 61.8211 50.5262C62.9614 49.071 64.198 47.6848 65.1437 46.0829C65.3004 45.8156 65.4678 45.5533 65.6434 45.298C66.2186 44.4588 66.9383 43.7299 67.5054 42.8835C67.847 42.3725 68.205 41.882 68.7634 41.5832C68.8179 41.5546 68.8603 41.4982 68.8999 41.4488C69.0816 41.2168 69.0109 40.9934 68.7291 40.9042L68.7187 40.8945ZM38.4437 41.1082C38.8204 40.2181 39.2092 39.3324 39.5943 38.4447C40.409 36.5625 41.4229 34.7745 42.2596 32.9051C42.9595 31.3426 43.8731 29.8876 44.5613 28.322C44.8576 27.6476 45.2825 27.0304 45.4552 26.3005C45.6628 26.0025 45.8417 25.6905 45.9526 25.3392C45.7057 25.612 45.421 25.8483 45.2798 26.1968C44.6893 27.2748 44.1058 28.3555 43.5061 29.4282C43.1403 30.0808 42.7598 30.725 42.3665 31.3617C42.1401 31.7284 41.9932 32.1313 41.8002 32.5124C41.1301 33.8385 40.4175 35.1449 39.7988 36.4945C39.2981 37.5888 38.7399 38.6596 38.3281 39.8016C38.286 39.2846 38.361 38.7705 38.2986 38.259C38.2859 38.1536 38.2986 38.0446 38.2786 37.9412C38.1756 37.4002 38.3389 36.8904 38.4771 36.3857C38.7654 35.3281 38.9169 34.2466 39.0942 33.1691C39.1899 32.581 39.3637 32.0296 39.6799 31.5223C40.075 30.8866 40.3308 30.1827 40.6687 29.5188C41.61 27.6804 42.8929 26.1077 44.4115 24.719C44.6636 24.4883 44.8982 24.239 45.125 23.984C45.5991 23.4515 46.1387 23.0071 46.7705 22.6747C47.4092 22.3389 47.9678 21.8956 48.4731 21.3811C48.5831 21.4728 48.5211 21.5717 48.5061 21.655C48.2416 23.1319 48.1484 24.6281 47.9958 26.1169C47.7639 28.365 47.428 30.5958 46.7622 32.7613C46.4892 33.65 46.084 34.4919 45.6824 35.3297C45.5759 35.5524 45.4374 35.7604 45.2616 35.9334C44.2178 36.9604 43.2806 38.0955 42.1409 39.0254C41.715 39.3726 41.2585 39.6751 40.7659 39.9065C39.9392 40.2943 39.299 40.9319 38.5908 41.4774C38.4995 41.5485 38.4157 41.63 38.2941 41.7387C38.2771 41.4838 38.3689 41.293 38.4455 41.1093L38.4437 41.1082Z" fill="black"/>
<path d="M36.0708 36.5827C35.7105 35.6554 35.3267 34.7391 34.9859 33.8035C34.3772 32.1349 33.6861 30.5008 32.9874 28.8672C31.6816 25.8085 29.9872 22.9581 28.3985 20.0497C27.9159 19.1646 27.197 18.4359 26.705 17.5563C25.766 15.8784 24.8443 14.1896 23.923 12.5022C23.6421 11.9871 23.3799 11.4608 23.1137 10.9371C23.0682 10.8483 23.0361 10.7404 22.9127 10.7843C22.7767 10.8332 22.8525 10.9481 22.8747 11.0307C22.9104 11.164 22.9654 11.2938 23.0127 11.424C23.4983 12.7434 24.2095 13.9542 24.8302 15.2094C25.3981 16.3607 25.8716 17.5653 26.5989 18.6272C27.4001 19.7968 28.0462 21.0483 28.7313 22.2832C30.7914 25.9942 32.5409 29.8506 34.1579 33.769C34.7207 35.1329 35.3572 36.4647 35.9063 37.8355C36.2068 38.5861 36.6772 39.2633 36.9638 40.0254C36.9912 40.0988 37.0201 40.1719 37.1184 40.1502C37.2326 40.1243 37.2358 40.0318 37.2114 39.9466C37.1617 39.7611 37.1077 39.5767 37.0391 39.3962C36.7827 38.7176 36.4626 38.0623 36.2826 37.3555C36.2134 37.0975 36.1667 36.8304 36.0708 36.5827Z" fill="black"/>
<path d="M43.8698 87.8642C41.3169 87.0568 38.8511 86.0179 36.4167 84.9224C33.4912 83.6058 30.6735 82.0599 27.7708 80.6891C25.8055 79.7615 23.9429 78.6371 22.0457 77.581C20.9338 76.9623 19.7851 76.4094 18.722 75.7062C18.5344 75.4815 18.2564 75.3773 18.0388 75.1917C18.0023 75.1595 17.9477 75.1182 17.9074 75.1881C17.8745 75.245 17.9123 75.2877 17.9508 75.3271C18.1657 75.5492 18.3842 75.7672 18.6508 75.9272C18.7298 75.9962 18.8082 76.0684 18.8898 76.1351C19.5096 76.651 20.2118 77.0392 20.8931 77.4657C22.5806 78.5221 24.2766 79.5637 26.0193 80.5245C28.0982 81.6733 30.2565 82.6719 32.365 83.7631C34.2569 84.7414 36.1425 85.7198 38.1343 86.4911C39.8992 87.1756 41.6342 87.9396 43.4749 88.4081C43.9919 88.5399 44.5101 88.6822 45.0509 88.6771C45.1765 88.6761 45.3299 88.663 45.3552 88.5024C45.3808 88.3371 45.2333 88.2911 45.114 88.2516C44.7004 88.117 44.2844 87.9908 43.8701 87.8594L43.8698 87.8642Z" fill="black"/>
<path d="M45.8432 76.8684C46.134 76.4752 46.3839 76.0509 46.6861 75.6654C47.4668 74.6654 48.2825 73.6918 49.0729 72.6986C50.3889 71.0409 51.8825 69.5299 53.3234 67.9786C54.8461 66.3386 56.5134 64.8494 58.2025 63.3839C59.7456 62.046 61.1853 60.5945 62.7796 59.3144C63.8535 58.4518 64.9169 57.5734 65.8854 56.5899C66.016 56.457 66.155 56.3204 66.1968 56.059C66.1007 56.1003 66.0582 56.1101 66.0273 56.134C64.613 57.2742 63.1028 58.2941 61.711 59.4547C58.9695 61.7413 56.1591 63.9563 53.6485 66.5073C51.5408 68.6489 49.4421 70.8006 47.7726 73.3251C47.0364 74.439 46.1539 75.4538 45.5594 76.6617C45.4929 76.7961 45.2776 76.961 45.4969 77.1011C45.6897 77.2234 45.7643 76.9797 45.8461 76.8677L45.8432 76.8684Z" fill="black"/>
<path d="M33.5878 46.6856C32.6723 46.6202 31.7501 46.6747 30.838 46.5291C30.4452 46.4666 30.0514 46.4696 29.6553 46.4871C27.8843 46.5686 26.1127 46.4452 24.413 45.9809C22.0766 45.3439 19.7475 44.6645 17.4933 43.7429C15.9561 43.1139 14.3479 42.6437 12.6936 42.3894C12.4491 42.3524 12.2167 42.2795 11.9834 42.1975C11.5671 42.0527 11.1357 41.985 10.6882 41.9961C10.626 42.019 10.5328 42.0191 10.5223 42.1136C10.5107 42.2208 10.6156 42.2067 10.6759 42.2402C10.9967 42.4169 11.3632 42.3528 11.7014 42.4378C14.3155 43.0967 16.8129 44.0852 19.3088 45.0912C21.0002 45.7737 22.6928 46.4667 24.5052 46.7889C26.272 47.1032 28.0402 47.313 29.8452 47.283C32.1324 47.2434 34.4277 47.211 36.6831 47.7314C36.7642 47.7501 36.8537 47.7417 36.9379 47.7486C37.0447 47.7588 37.1497 47.7276 37.1651 47.6225C37.1797 47.5207 37.0628 47.4961 36.9838 47.4737C35.8646 47.1584 34.7599 46.7693 33.5892 46.6852L33.5878 46.6856Z" fill="black"/>
<path d="M42.2078 54.8876C42.3238 54.8161 42.412 54.693 42.5318 54.6299C43.7653 53.9746 44.8535 53.0958 46.0067 52.3207C46.8742 51.7372 47.7398 51.1526 48.6133 50.5798C49.6055 49.9287 50.6754 49.4338 51.7542 48.949C52.532 48.5992 53.2756 48.1561 54.0788 47.8896C55.4142 47.4463 56.7813 47.0924 58.0944 46.5774C58.5837 46.3857 59.1061 46.3063 59.5821 46.0825C60.7336 45.544 61.7796 44.821 62.8751 44.1841C63.6051 43.9745 64.1137 43.4203 64.7023 42.9845C64.0367 43.3011 63.3726 43.6173 62.7071 43.9339C62.6749 43.9472 62.6427 43.9605 62.6121 43.9796C62.4928 44.0271 62.3693 44.0648 62.2556 44.1217C61.3681 44.5724 60.4373 44.9196 59.5198 45.2991C59.0528 45.4926 58.5389 45.5402 58.0868 45.7607C57.0755 46.2539 56.0079 46.6005 54.957 46.9924C54.5262 47.1529 54.0683 47.2243 53.6437 47.408C52.9687 47.7007 52.2702 47.9407 51.6071 48.2551C50.7606 48.6559 49.8635 48.9491 49.0688 49.4619C46.9708 50.8164 44.8504 52.1334 42.8611 53.6499C42.5103 53.9178 42.1872 54.2079 41.8965 54.5375C41.795 54.6517 41.7388 54.7724 41.8615 54.9058C41.9798 55.0341 42.1055 54.9523 42.2081 54.889L42.2078 54.8876ZM63.338 43.8534C63.338 43.8534 63.3366 43.8538 63.3351 43.8542C63.3351 43.8542 63.3351 43.8542 63.3347 43.8527C63.3347 43.8527 63.3362 43.8524 63.3376 43.852L63.338 43.8534Z" fill="black"/>
<path d="M40.7289 64.3017C40.6788 64.2483 40.6223 64.1998 40.5787 64.1415C40.0907 63.4971 39.6216 62.8366 39.1117 62.2089C38.5987 61.5758 38.1336 60.9127 37.7059 60.221C36.9459 58.9907 36.3385 57.6806 35.7174 56.3774C35.3276 55.5605 34.8765 54.7757 34.3796 54.017C34.2399 53.7624 34.0773 53.5263 33.8445 53.3417C33.8946 53.6794 34.0562 53.9639 34.219 54.2465C34.2303 54.2714 34.2435 54.2974 34.2602 54.3194C34.56 55.0034 34.8783 55.6809 35.1575 56.3751C35.9086 58.2448 36.7278 60.0729 37.9135 61.7205C38.262 62.2035 38.7301 62.5706 39.0811 63.0343C39.5089 63.5986 40.0661 64.0024 40.5901 64.4508C40.7625 64.636 40.9335 64.8217 41.1069 65.0052C41.1529 65.055 41.2139 65.0915 41.2739 65.0428C41.3374 64.99 41.3021 64.9218 41.2562 64.8782C41.0664 64.6975 40.9465 64.4531 40.726 64.3025L40.7289 64.3017Z" fill="black"/>
<path d="M68.7187 40.8945C68.6031 40.8572 68.4873 40.8773 68.3703 40.8931C65.9325 41.217 63.4981 41.571 61.0406 41.7401C59.1521 41.8701 57.2736 42.1187 55.4091 42.4598C54.115 42.6978 52.8074 42.868 51.5532 43.2895C50.7822 43.5489 49.9895 43.7504 49.239 44.0572C47.7672 44.6581 46.3582 45.3775 45.2474 46.5606C44.9102 46.9198 44.543 47.2481 44.158 47.5563C43.7445 47.8862 43.3869 48.2679 43.0984 48.7103C42.7365 49.2671 42.3304 49.7923 41.9261 50.3185C41.4345 50.9598 41.0098 51.636 40.8015 52.4298C40.7269 52.7139 40.6205 52.9894 40.5024 53.3489C40.4293 53.1339 40.3746 52.9994 40.3369 52.8588C39.8255 50.9792 39.3305 49.0969 38.9307 47.1874C38.6316 45.7637 38.4512 44.3253 38.3064 42.8804C38.2884 42.6972 38.3216 42.5718 38.4507 42.4564C39.1319 41.8389 39.822 41.2252 40.624 40.7742C41.511 40.2755 42.3861 39.7784 43.1446 39.078C43.8145 38.4589 44.3972 37.7574 45.0613 37.1398C45.8341 36.4232 46.3494 35.5751 46.7599 34.6138C47.5059 32.8696 47.9776 31.0467 48.2309 29.186C48.5751 26.667 48.7785 24.1268 49.0406 21.5972C49.0607 21.4054 49.0793 21.214 49.079 21.0214C49.0782 20.8274 48.9708 20.6931 48.778 20.6578C48.4884 20.6033 48.2434 20.6456 48.0145 20.8872C47.4994 21.4291 46.9467 21.9408 46.3114 22.3409C45.7361 22.7048 45.2361 23.1464 44.773 23.6387C44.5166 23.9109 44.265 24.1896 43.9867 24.4382C42.4952 25.7715 41.2524 27.3257 40.0774 28.93C39.2757 30.0257 38.9745 31.3539 38.6497 32.6466C38.4555 33.4179 38.3897 34.2216 38.1603 35.0413C38.1324 34.9602 38.1125 34.9267 38.1076 34.8907C37.9841 33.827 37.8102 32.7721 37.6359 31.7157C37.265 29.4676 36.983 27.2035 36.032 25.0922C35.4199 23.7352 34.7756 22.3978 33.9521 21.1565C33.0218 19.7543 31.8463 18.539 30.8936 17.1521C30.6458 16.7897 30.3201 16.4902 29.984 16.2042C29.724 15.9818 29.4374 15.7759 29.2283 15.5119C28.3135 14.3588 27.2285 13.3709 26.1904 12.3378C25.2205 11.3735 24.2344 10.4243 23.2315 9.49367C22.6939 8.99455 22.1033 8.55311 21.4328 8.23095C21.3732 8.4318 21.4352 8.61094 21.4415 8.79103C21.5124 10.7311 21.8495 12.6387 22.1561 14.5483C22.4208 16.1971 22.8031 17.827 23.2307 19.44C23.5938 20.8124 23.7887 22.2299 24.3646 23.5499C24.7587 24.4526 25.153 25.3443 25.6439 26.2024C26.1214 27.0393 26.7153 27.8061 27.1195 28.6828C27.5793 29.6797 28.0958 30.6335 28.8639 31.4359C29.0388 31.619 29.1701 31.8479 29.3034 32.067C29.8816 33.0307 30.529 33.9509 31.0471 34.9509C31.2149 35.2757 31.4576 35.5493 31.6898 35.8305C32.5701 36.8949 33.3335 38.0451 34.0792 39.2047C34.5371 39.9163 34.9522 40.6424 35.5789 41.2358C36.0116 41.6449 36.429 42.1126 36.6585 42.6617C37.0256 43.539 37.077 44.4962 37.1897 45.5022C37.0353 45.3727 36.9319 45.2823 36.8249 45.196C35.7125 44.2916 34.6276 43.3503 33.4807 42.4909C32.0079 41.3894 30.3705 40.5604 28.6787 39.8532C26.7035 39.0277 24.6102 38.6083 22.5293 38.1592C21.4395 37.9245 20.3672 37.8017 19.2295 37.9682C17.618 38.2043 16.0087 38.3963 14.4735 38.9754C12.7916 39.6094 11.1183 40.2644 9.55695 41.169C9.14815 41.4059 8.79599 41.7209 8.48273 42.0767C8.34343 42.2352 8.30395 42.4416 8.51489 42.5388C9.32018 42.9119 9.91957 43.5312 10.5262 44.1485C11.6803 45.3245 12.6547 46.6652 13.8898 47.7667C15.2608 48.9871 16.7566 49.9892 18.522 50.5648C19.9007 51.0141 21.3462 51.0338 22.7535 51.2937C24.1264 51.5473 25.4962 51.6324 26.9006 51.545C28.5744 51.443 30.2475 51.4716 31.8855 50.9923C33.7713 50.4404 35.665 49.9299 37.4394 49.0319C37.7009 50.3383 37.9718 51.6857 38.2417 53.0349C38.2165 53.051 38.1927 53.0667 38.1679 53.0842C37.0206 52.374 35.6765 52.2339 34.4509 51.7591C33.7778 51.4967 33.0525 51.4627 32.3903 51.1833C32.1887 51.0975 32.0449 51.251 32.0643 51.5146C32.1131 52.1431 32.1398 52.7761 32.2303 53.3981C32.3929 54.5151 32.5391 55.6349 32.7767 56.7535C32.3546 56.674 31.9406 56.5612 31.5199 56.5217C30.0897 56.3906 28.6626 56.4918 27.2399 56.6555C26.2408 56.771 25.279 57.0893 24.2745 57.1906C23.1993 57.3001 22.1712 57.6843 21.0889 57.7677C20.9093 57.7816 20.7442 57.8554 20.5843 57.9542C20.2694 58.1473 20.253 58.2138 20.4036 58.5557C20.7803 59.4164 21.4406 59.9961 22.2645 60.375C23.3434 60.8705 24.4019 61.4056 25.4667 61.9297C26.2613 62.3211 27.0901 62.6366 27.8423 63.1248C28.9464 63.8419 30.1301 64.4445 31.3317 64.963C33.0686 65.711 34.9156 66.0752 36.8281 66.0754C38.2044 66.0749 39.5749 66.2032 40.926 66.4968C41.1485 66.5444 41.2369 66.6481 41.2908 66.8667C41.5212 67.7962 41.6026 68.7438 41.6593 69.6918C41.7362 70.9933 41.752 72.2988 41.9339 73.5923C42.0473 74.404 42.1828 75.2113 42.3859 76.0098C42.5995 76.8474 42.7304 77.7072 42.8918 78.5588C43.0088 79.1753 43.1157 79.7945 43.2422 80.4986C43.1479 80.4074 43.1291 80.3953 43.1183 80.378C43.0754 80.3165 43.035 80.2527 42.9921 80.1912C42.3282 79.2443 41.5836 78.3905 40.5191 77.8616C39.9046 77.5571 39.3542 77.1437 38.818 76.7141C38.6103 76.5476 38.391 76.3842 38.1531 76.2677C36.297 75.3591 34.4013 74.5403 32.4024 73.9915C30.8328 73.5607 29.2256 73.2969 27.6326 72.9702C26.234 72.6847 24.8251 72.5231 23.3939 72.5275C22.1039 72.5314 20.8316 72.5895 19.5902 72.9952C18.5132 73.3475 17.4389 73.7099 16.335 73.9793C15.7807 74.1138 15.6756 74.4232 15.8363 74.9767C16.1938 76.2123 16.7767 77.3441 17.448 78.4288C18.5129 80.1476 19.6015 81.8507 20.6967 83.549C21.1082 84.186 21.512 84.8406 22.0751 85.3593C23.4017 86.5823 24.6346 87.919 26.24 88.814C27.1807 89.3387 28.0058 90.07 29.0762 90.3596C29.6141 90.506 30.1333 90.7102 30.6372 90.9496C32.1717 91.6788 33.812 91.985 35.4847 92.0759C37.7299 92.1982 39.9346 91.8048 42.1311 91.398C43.1614 91.2074 44.1911 91.0092 45.2169 90.7902C45.5506 90.7195 45.6854 90.7936 45.7531 91.139C46.0083 92.4394 46.29 93.7342 46.5688 95.0297C46.7086 95.679 46.9777 96.2951 47.0649 96.9569C47.238 98.2637 47.4732 99.5647 47.8188 100.831C48.3087 102.619 48.4445 104.483 49.0448 106.242C49.0962 106.393 49.1058 106.556 49.1343 106.715C49.2101 107.148 49.3297 107.572 49.4677 107.988C49.5245 108.159 49.6443 108.247 49.8351 108.229C50.0469 108.207 50.0873 108.057 50.0965 107.888C50.102 107.804 50.0921 107.715 50.0693 107.636C49.8993 107.048 49.8163 106.442 49.6996 105.844C49.5164 104.912 49.127 104.026 49.0751 103.061C49.0477 102.559 48.9592 102.061 48.7892 101.583C48.3628 100.386 48.2146 99.1252 47.9333 97.8956C47.7619 97.1461 47.74 96.3627 47.4574 95.6383C47.3045 95.2474 47.1802 94.8473 47.1106 94.4371C46.9098 93.2527 46.5545 92.1066 46.2765 90.9413C46.2377 90.7793 46.1799 90.6503 46.4485 90.6902C46.586 90.7108 46.7219 90.6495 46.7498 90.4696C46.775 90.3028 46.7329 90.1805 46.5814 90.0906C46.3436 89.9508 46.0849 89.8958 45.8149 89.8796C45.4057 89.8541 45.0024 89.9202 44.6044 90.0004C42.6228 90.3978 40.6445 90.8129 38.6369 91.0666C35.9706 91.4019 33.3657 91.247 30.8763 90.1258C30.6129 90.0068 30.3494 89.8755 30.0733 89.8019C29.0236 89.5254 28.1167 88.9761 27.1848 88.4381C25.4668 87.4474 24.0422 86.114 22.6163 84.77C22.4147 84.5801 22.2298 84.3655 22.0727 84.1388C21.0744 82.6974 20.0677 81.2597 19.1817 79.7447C18.9812 79.4022 18.7534 79.0796 18.532 78.752C17.7368 77.57 17.0108 76.3507 16.5467 74.9899C16.4453 74.6923 16.5254 74.6087 16.7998 74.543C17.352 74.4121 17.9147 74.2971 18.4383 74.0884C20.7011 73.1869 23.0592 73.0351 25.4193 73.3722C28.8474 73.8627 32.2662 74.463 35.4791 75.8548C36.4196 76.263 37.4115 76.5845 38.2459 77.1937C38.966 77.7185 39.6987 78.215 40.4794 78.6413C40.8196 78.8267 41.1467 79.0326 41.4171 79.3113C42.6837 80.6234 43.6476 82.1564 44.4661 83.7672C44.9133 84.6479 45.182 85.6215 45.5097 86.5606C45.7664 87.2981 46.005 88.0436 46.1827 88.8054C46.2282 88.9983 46.3274 89.1193 46.5404 89.0793C46.7476 89.0409 46.7696 88.8796 46.7533 88.7085C46.7422 88.5918 46.7293 88.4741 46.699 88.361C46.3805 87.1724 46.0454 85.9914 45.5694 84.8527C45.274 84.1442 45.0891 83.3905 44.6841 82.7254C44.4841 82.3968 44.2421 82.0732 44.1691 81.6966C43.9965 80.803 43.7593 79.9235 43.5392 79.0441C43.0799 77.2081 42.8786 75.3262 42.4649 73.4811C42.2395 72.4773 42.2709 71.4233 42.2069 70.3902C42.1343 69.2088 42.1502 68.016 41.824 66.8621C41.7991 66.7693 41.7724 66.6755 41.8134 66.5791C41.8841 66.4141 41.8099 66.3283 41.6633 66.2511C41.0832 65.9529 40.4484 65.8045 39.835 65.6084C38.9427 65.3224 38.001 65.3215 37.073 65.2672C36.0279 65.2054 34.984 65.1651 33.9505 64.9433C31.8758 64.5003 30.0641 63.4617 28.2296 62.4773C27.7018 62.1946 27.1924 61.8821 26.6335 61.6574C25.2247 61.0904 23.898 60.3428 22.4902 59.7677C21.8762 59.5174 21.3626 59.1081 21.0918 58.4567C21.4708 58.3754 21.846 58.3028 22.2202 58.215C22.9478 58.0433 23.6619 57.8209 24.4075 57.7159C25.9211 57.5029 27.4432 57.3623 28.9612 57.1886C30.1521 57.0528 31.3287 56.8867 32.5225 57.1323C32.8052 57.1902 32.9973 57.2521 32.9828 57.5978C32.9753 57.7614 33.0351 57.938 33.0989 58.0949C33.5047 59.111 33.9665 60.0981 34.6692 60.9522C34.8164 61.1303 34.9434 61.3262 35.1287 61.5826C34.9477 61.5161 34.8468 61.4872 34.7535 61.4408C33.9941 61.0648 33.1923 60.7918 32.3903 60.5297C30.5122 59.9159 28.5645 59.616 26.6228 59.2926C25.4438 59.0959 24.2741 58.8298 23.0674 58.8548C22.9888 58.8573 22.8767 58.7925 22.8467 58.9124C22.8147 59.0422 22.947 59.0549 23.0278 59.0954C23.0744 59.1186 23.1302 59.1239 23.1832 59.1361C24.155 59.348 25.1262 59.5632 26.0994 59.7685C28.1086 60.1933 30.1318 60.5601 32.1034 61.1519C33.2807 61.5045 34.4806 61.7904 35.5955 62.3275C36.1841 62.611 36.7688 62.8971 37.298 63.2836C38.2957 64.0152 39.3268 64.6975 40.3206 65.4317C40.9638 65.9072 41.7953 66.0246 42.3717 66.5988C42.4543 66.6808 42.5649 66.6993 42.6545 66.593C42.7394 66.4925 42.7069 66.4002 42.6289 66.3062C42.4833 66.1339 42.3303 65.9745 42.1293 65.8621C41.5994 65.566 41.0202 65.3701 40.5258 64.9976C39.853 64.4928 39.1485 64.0321 38.4622 63.5464C37.9501 63.1834 37.479 62.7643 36.9376 62.4371C36.3761 62.0982 35.8958 61.6567 35.5161 61.1153C34.5912 59.7971 33.917 58.3884 33.6067 56.7781C33.3753 55.5724 33.158 54.3613 32.9142 53.1558C32.8102 52.6399 32.6291 52.1323 32.6313 51.5724C33.0947 51.7015 33.5342 51.8167 33.957 52.0033C34.8463 52.3942 35.6846 52.8904 36.598 53.2376C37.0925 53.4252 37.5549 53.713 38.001 54.0036C39.1516 54.7548 39.4087 55.9987 39.6596 57.2132C39.8692 58.2275 39.8316 59.2816 40.074 60.2964C40.0943 60.3779 40.0969 60.4689 40.0815 60.5507C39.9519 61.2208 40.1452 61.8262 40.3734 62.4517C40.7417 63.4608 41.3906 64.2998 41.9207 65.2111C41.9866 65.324 42.0829 65.4396 42.2247 65.3658C42.3474 65.3019 42.3305 65.1635 42.2812 65.0493C42.2017 64.8624 42.1285 64.6707 42.0263 64.4977C41.4069 63.4503 40.9077 62.3583 40.7561 61.1374C40.6485 60.2776 40.495 59.4207 40.512 58.5508C40.5356 57.3343 40.2903 56.1695 39.919 55.0215C39.8261 54.7326 39.716 54.4436 39.4884 54.2436C38.9759 53.7921 38.6512 53.2701 38.7237 52.5609C38.7243 52.5514 38.7197 52.5402 38.7184 52.5296C38.4553 51.2749 38.1931 50.0184 37.93 48.7637C37.9109 48.6694 37.8871 48.5748 37.855 48.484C37.7683 48.2415 37.5966 48.2036 37.3792 48.3318C36.8382 48.6492 36.3131 49.009 35.6943 49.1577C34.9953 49.3263 34.3289 49.5935 33.6395 49.7922C32.2927 50.181 30.9442 50.5579 29.5451 50.723C28.521 50.8436 27.491 50.7219 26.4678 50.8345C26.0209 50.8828 25.5701 50.9399 25.1218 50.8844C23.4449 50.6735 21.7646 50.479 20.0966 50.2144C18.7775 50.0054 17.5437 49.5406 16.4058 48.8015C15.5328 48.2337 14.6815 47.6602 13.9445 46.91C13.3064 46.2622 12.6735 45.6162 12.0704 44.931C11.2039 43.9468 10.326 42.9609 9.1541 42.2573C10.0071 41.7009 10.8334 41.2014 11.7378 40.8022C12.7618 40.3507 13.7474 39.8256 14.8369 39.5197C16.435 39.0713 18.027 38.6291 19.7093 38.6398C21.037 38.6491 22.3469 38.8295 23.6456 39.061C24.8592 39.2764 26.0281 39.6903 27.2016 40.075C28.2473 40.4178 29.2712 40.8239 30.2306 41.3545C31.1098 41.8413 31.9308 42.4292 32.7669 42.9929C34.2268 43.9766 35.551 45.1443 37.0379 46.0898C37.1446 46.1575 37.2283 46.2609 37.3158 46.3555C37.5578 46.6154 37.7409 46.9159 37.9164 47.2231C37.9843 47.3431 38.0769 47.4799 38.2452 47.4006C38.4272 47.3146 38.3743 47.1517 38.3151 47.0122C38.2522 46.8643 38.1896 46.7118 38.095 46.5849C37.8421 46.244 37.7737 45.8553 37.7311 45.4473C37.6299 44.5127 37.51 43.5785 37.2886 42.6653C37.2026 42.3093 37.0134 41.9917 36.7814 41.6826C36.2482 40.9741 35.5749 40.3746 35.1438 39.589C34.261 37.9815 33.2101 36.4889 32.0412 35.0776C31.8208 34.8119 31.6528 34.5152 31.4893 34.2125C31.2147 33.7035 30.9083 33.2154 30.6027 32.724C30.0486 31.8332 29.4031 31.0072 28.8106 30.1468C27.6487 28.4602 26.8368 26.5726 25.9668 24.7286C24.8174 22.2945 24.0782 19.7038 23.367 17.1135C22.8342 15.1713 22.4787 13.1894 22.2067 11.1945C22.1221 10.5771 22.0138 9.96444 21.9094 9.29641C22.3103 9.60381 22.7331 9.76706 23.0553 10.094C24.0915 11.1493 25.1267 12.2065 26.1848 13.2388C27.3894 14.4122 28.5228 15.6559 29.728 16.8259C30.4504 17.5272 30.9495 18.3925 31.5794 19.1605C32.6943 20.521 33.6982 21.9485 34.4677 23.5445C35.1293 24.9177 35.7444 26.3034 36.1221 27.7822C36.4553 29.0896 36.6137 30.4345 36.8718 31.7573C37.3057 33.9854 37.6295 36.226 37.691 38.4964C37.7319 40.0638 37.6586 41.634 37.8938 43.196C38.0548 44.2606 38.1932 45.3281 38.4021 46.386C38.5827 47.2978 38.6821 48.2251 38.8866 49.1335C39.3001 50.9724 39.7702 52.7962 40.2769 54.6118C40.3234 54.7795 40.3788 54.9169 40.5901 54.9054C40.7952 54.8939 40.8332 54.7284 40.8392 54.5885C40.8509 54.3073 40.9174 54.0393 40.9879 53.775C41.2201 52.908 41.4031 52.0138 41.9656 51.2836C43.0047 49.9316 43.8539 48.4162 45.2841 47.3991C45.3442 47.3566 45.3956 47.2993 45.4442 47.2428C46.4192 46.1038 47.6959 45.3779 49.0511 44.8579C50.674 44.235 52.3336 43.6971 54.065 43.4041C56.3017 43.0254 58.5355 42.6304 60.7985 42.4714C62.4633 42.3532 64.1213 42.1746 65.7771 41.9764C66.3144 41.9116 66.8494 41.8382 67.4472 41.7619C67.0325 42.3593 66.6635 42.9071 66.2389 43.4155C65.7589 43.99 65.2599 44.551 64.8648 45.1928C64.1919 46.2882 63.4672 47.3462 62.6319 48.3282C61.8698 49.2237 61.2081 50.2042 60.2423 50.9135C59.3804 51.5469 58.5536 52.2298 57.6865 52.8552C56.5475 53.6778 55.3111 54.2934 53.9039 54.515C52.3725 54.7545 50.8293 54.921 49.3255 55.327C48.4069 55.5747 47.4658 55.7383 46.5339 55.9305C45.031 56.2416 43.5171 56.1811 42.0023 56.0417C41.8255 56.0254 41.642 56.0016 41.4847 55.8899C41.3333 55.7829 41.1438 55.7311 41.0239 55.8922C40.8978 56.0596 40.9871 56.2361 41.1368 56.3715C41.2373 56.4627 41.356 56.5287 41.3918 56.6854C41.5304 57.2899 41.7105 57.8864 41.8284 58.4948C42.3117 61.0173 42.7503 63.5471 43.4291 66.0281C43.471 66.1846 43.4845 66.3395 43.4618 66.504C43.3178 67.5727 43.1818 68.6422 43.0415 69.713C42.8343 71.2879 43.0466 72.8514 43.1741 74.4174C43.1977 74.7141 43.2881 75.0052 43.3509 75.2976C43.3825 75.4444 43.4816 75.5127 43.6325 75.5018C43.7666 75.4922 43.8514 75.426 43.8702 75.2874C43.8841 75.1827 43.9085 75.0767 43.9035 74.9708C43.8655 74.2089 43.8152 73.4471 43.7802 72.6844C43.6972 70.8904 43.6967 69.1086 44.1976 67.354C44.6372 65.8116 45.2016 64.3522 46.3711 63.1968C46.5677 63.0028 46.7371 62.7771 46.9067 62.5577C48.2396 60.8412 49.964 59.6116 51.866 58.6157C52.5183 58.2731 53.2401 58.0735 53.8826 57.7056C54.8481 57.1517 55.8889 56.8092 56.9576 56.5244C58.1592 56.2024 59.3973 56.0804 60.6134 55.8353C62.8144 55.3931 65.0633 55.2395 67.2872 54.9233C67.5864 54.8804 67.4403 55.0656 67.409 55.175C67.0796 56.3057 66.7283 57.4298 66.4206 58.5656C65.7437 61.0665 65.0272 63.5469 63.8671 65.8852C63.0461 67.5407 61.7314 68.7801 60.5515 70.1402C60.4626 70.2433 60.3365 70.3175 60.222 70.3948C59.7085 70.7452 59.2347 71.1456 58.7569 71.5424C58.1121 72.0756 57.4457 72.5804 56.6592 72.8921C55.9671 73.1677 55.3487 73.5618 54.7575 74.0107C54.117 74.4962 53.4647 74.9956 52.6873 75.2195C51.4813 75.5659 50.3909 76.158 49.2837 76.711C48.5098 77.0985 47.7713 77.5543 46.922 77.771C46.154 77.9659 45.5415 78.4284 44.9384 78.9084C44.6079 79.171 44.6062 79.4837 44.9574 79.7159C45.0233 79.7588 45.0466 79.8054 45.0462 79.8676C45.0475 80.6146 45.3004 81.3205 45.3934 82.0506C45.5634 83.3924 45.8832 84.7018 46.1726 86.0194C46.2328 86.2907 46.3055 86.5618 46.4103 86.8195C46.6567 87.4262 46.8452 88.0484 47.0232 88.6781C47.5368 90.4902 47.877 92.3457 48.4522 94.1444C48.7543 95.092 49.148 96.0165 49.337 96.9943C49.5424 98.0564 49.8119 99.1027 50.0723 100.15C50.2737 100.96 50.5349 101.749 50.8084 102.538C51.175 103.599 51.1082 104.758 51.4293 105.841C51.4648 105.962 51.4587 106.095 51.4758 106.223C51.4834 106.286 51.4878 106.355 51.515 106.41C51.576 106.533 51.6326 106.675 51.8179 106.63C51.9741 106.593 52.0587 106.491 52.0601 106.334C52.0603 106.195 52.0535 106.054 52.0327 105.918C51.9069 105.107 51.7311 104.306 51.6823 103.48C51.6552 103.019 51.5648 102.537 51.3691 102.108C51.1502 101.628 50.9662 101.138 50.8712 100.621C50.6735 99.5585 50.3123 98.5352 50.1411 97.4671C49.9698 96.3929 49.5082 95.4011 49.2362 94.3569C48.9805 93.3737 48.5858 92.4339 48.3793 91.4312C48.0815 89.9838 47.6942 88.5558 47.1969 87.1634C46.9917 86.5892 46.7733 86.0231 46.6206 85.4302C46.1988 83.7923 45.9707 82.1119 45.5388 80.4767C45.4611 80.1868 45.4324 79.8884 45.431 79.5874C45.4301 79.4913 45.4204 79.3914 45.5147 79.3257C45.9324 79.0351 46.3122 78.6957 46.821 78.536C47.727 78.2529 48.6088 77.9203 49.4527 77.4518C50.3453 76.9563 51.2476 76.4271 52.24 76.1534C53.4788 75.8137 54.5241 75.1515 55.5258 74.3906C55.9377 74.0782 56.3814 73.821 56.8594 73.6277C57.4983 73.368 58.0779 73.0092 58.6324 72.6027C59.2541 72.1456 59.797 71.5915 60.4388 71.1632C61.0871 70.73 61.6235 70.1808 62.0855 69.5568C62.3856 69.1517 62.6882 68.7505 63.0592 68.4072C63.408 68.0854 63.6819 67.7044 63.9199 67.2942C64.885 65.6311 65.6006 63.8547 66.1592 62.0256C66.8671 59.7044 67.4385 57.3436 68.1409 55.0192C68.3082 54.4664 68.0952 54.205 67.5224 54.259C66.8199 54.3276 66.1217 54.4293 65.4203 54.5193C63.8301 54.7248 62.2364 54.9173 60.6487 55.1438C59.9726 55.2411 59.3268 55.498 58.6387 55.5566C57.9975 55.6103 57.3743 55.7664 56.7454 55.9007C54.7814 56.3229 53.0596 57.342 51.2942 58.2096C49.2035 59.2375 47.4788 60.7731 46.0133 62.6153C45.2055 63.6303 44.4303 64.6335 44.0191 65.8762C44.0157 65.8865 43.9843 65.8855 43.951 65.8945C43.0992 62.8431 42.6636 59.6926 41.7908 56.6266C42.8981 56.7525 44.0029 56.8169 45.1096 56.7845C46.4765 56.7429 47.7964 56.3924 49.123 56.1192C50.5584 55.8232 51.9914 55.5122 53.4512 55.365C55.4241 55.1673 57.1198 54.3525 58.6476 53.1259C59.273 52.6243 59.9209 52.1493 60.5592 51.6613C61.0106 51.3167 61.4694 50.9762 61.8211 50.5262C62.9614 49.071 64.198 47.6848 65.1437 46.0829C65.3004 45.8156 65.4678 45.5533 65.6434 45.298C66.2186 44.4588 66.9383 43.7299 67.5054 42.8835C67.847 42.3725 68.205 41.882 68.7634 41.5832C68.8179 41.5546 68.8603 41.4982 68.8999 41.4488C69.0816 41.2168 69.0109 40.9934 68.7291 40.9042L68.7187 40.8945ZM38.4437 41.1082C38.8204 40.2181 39.2092 39.3324 39.5943 38.4447C40.409 36.5625 41.4229 34.7745 42.2596 32.9051C42.9595 31.3426 43.8731 29.8876 44.5613 28.322C44.8576 27.6476 45.2825 27.0304 45.4552 26.3005C45.6628 26.0025 45.8417 25.6905 45.9526 25.3392C45.7057 25.612 45.421 25.8483 45.2798 26.1968C44.6893 27.2748 44.1058 28.3555 43.5061 29.4282C43.1403 30.0808 42.7598 30.725 42.3665 31.3617C42.1401 31.7284 41.9932 32.1313 41.8002 32.5124C41.1301 33.8385 40.4175 35.1449 39.7988 36.4945C39.2981 37.5888 38.7399 38.6596 38.3281 39.8016C38.286 39.2846 38.361 38.7705 38.2986 38.259C38.2859 38.1536 38.2986 38.0446 38.2786 37.9412C38.1756 37.4002 38.3389 36.8904 38.4771 36.3857C38.7654 35.3281 38.9169 34.2466 39.0942 33.1691C39.1899 32.581 39.3637 32.0296 39.6799 31.5223C40.075 30.8866 40.3308 30.1827 40.6687 29.5188C41.61 27.6804 42.8929 26.1077 44.4115 24.719C44.6636 24.4883 44.8982 24.239 45.125 23.984C45.5991 23.4515 46.1387 23.0071 46.7705 22.6747C47.4092 22.3389 47.9678 21.8956 48.4731 21.3811C48.5831 21.4728 48.5211 21.5717 48.5061 21.655C48.2416 23.1319 48.1484 24.6281 47.9958 26.1169C47.7639 28.365 47.428 30.5958 46.7622 32.7613C46.4892 33.65 46.084 34.4919 45.6824 35.3297C45.5759 35.5524 45.4374 35.7604 45.2616 35.9334C44.2178 36.9604 43.2806 38.0955 42.1409 39.0254C41.715 39.3726 41.2585 39.6751 40.7659 39.9065C39.9392 40.2943 39.299 40.9319 38.5908 41.4774C38.4995 41.5485 38.4157 41.63 38.2941 41.7387C38.2771 41.4838 38.3689 41.293 38.4455 41.1093L38.4437 41.1082Z" stroke="white" stroke-width="16" stroke-linejoin="round" mask="url(#path-1-outside-1_1099_748)"/>
<path d="M36.0708 36.5827C35.7105 35.6554 35.3267 34.7391 34.9859 33.8035C34.3772 32.1349 33.6861 30.5008 32.9874 28.8672C31.6816 25.8085 29.9872 22.9581 28.3985 20.0497C27.9159 19.1646 27.197 18.4359 26.705 17.5563C25.766 15.8784 24.8443 14.1896 23.923 12.5022C23.6421 11.9871 23.3799 11.4608 23.1137 10.9371C23.0682 10.8483 23.0361 10.7404 22.9127 10.7843C22.7767 10.8332 22.8525 10.9481 22.8747 11.0307C22.9104 11.164 22.9654 11.2938 23.0127 11.424C23.4983 12.7434 24.2095 13.9542 24.8302 15.2094C25.3981 16.3607 25.8716 17.5653 26.5989 18.6272C27.4001 19.7968 28.0462 21.0483 28.7313 22.2832C30.7914 25.9942 32.5409 29.8506 34.1579 33.769C34.7207 35.1329 35.3572 36.4647 35.9063 37.8355C36.2068 38.5861 36.6772 39.2633 36.9638 40.0254C36.9912 40.0988 37.0201 40.1719 37.1184 40.1502C37.2326 40.1243 37.2358 40.0318 37.2114 39.9466C37.1617 39.7611 37.1077 39.5767 37.0391 39.3962C36.7827 38.7176 36.4626 38.0623 36.2826 37.3555C36.2134 37.0975 36.1667 36.8304 36.0708 36.5827Z" stroke="white" stroke-width="16" stroke-linejoin="round" mask="url(#path-1-outside-1_1099_748)"/>
<path d="M43.8698 87.8642C41.3169 87.0568 38.8511 86.0179 36.4167 84.9224C33.4912 83.6058 30.6735 82.0599 27.7708 80.6891C25.8055 79.7615 23.9429 78.6371 22.0457 77.581C20.9338 76.9623 19.7851 76.4094 18.722 75.7062C18.5344 75.4815 18.2564 75.3773 18.0388 75.1917C18.0023 75.1595 17.9477 75.1182 17.9074 75.1881C17.8745 75.245 17.9123 75.2877 17.9508 75.3271C18.1657 75.5492 18.3842 75.7672 18.6508 75.9272C18.7298 75.9962 18.8082 76.0684 18.8898 76.1351C19.5096 76.651 20.2118 77.0392 20.8931 77.4657C22.5806 78.5221 24.2766 79.5637 26.0193 80.5245C28.0982 81.6733 30.2565 82.6719 32.365 83.7631C34.2569 84.7414 36.1425 85.7198 38.1343 86.4911C39.8992 87.1756 41.6342 87.9396 43.4749 88.4081C43.9919 88.5399 44.5101 88.6822 45.0509 88.6771C45.1765 88.6761 45.3299 88.663 45.3552 88.5024C45.3808 88.3371 45.2333 88.2911 45.114 88.2516C44.7004 88.117 44.2844 87.9908 43.8701 87.8594L43.8698 87.8642Z" stroke="white" stroke-width="16" stroke-linejoin="round" mask="url(#path-1-outside-1_1099_748)"/>
<path d="M45.8432 76.8684C46.134 76.4752 46.3839 76.0509 46.6861 75.6654C47.4668 74.6654 48.2825 73.6918 49.0729 72.6986C50.3889 71.0409 51.8825 69.5299 53.3234 67.9786C54.8461 66.3386 56.5134 64.8494 58.2025 63.3839C59.7456 62.046 61.1853 60.5945 62.7796 59.3144C63.8535 58.4518 64.9169 57.5734 65.8854 56.5899C66.016 56.457 66.155 56.3204 66.1968 56.059C66.1007 56.1003 66.0582 56.1101 66.0273 56.134C64.613 57.2742 63.1028 58.2941 61.711 59.4547C58.9695 61.7413 56.1591 63.9563 53.6485 66.5073C51.5408 68.6489 49.4421 70.8006 47.7726 73.3251C47.0364 74.439 46.1539 75.4538 45.5594 76.6617C45.4929 76.7961 45.2776 76.961 45.4969 77.1011C45.6897 77.2234 45.7643 76.9797 45.8461 76.8677L45.8432 76.8684Z" stroke="white" stroke-width="16" stroke-linejoin="round" mask="url(#path-1-outside-1_1099_748)"/>
<path d="M33.5878 46.6856C32.6723 46.6202 31.7501 46.6747 30.838 46.5291C30.4452 46.4666 30.0514 46.4696 29.6553 46.4871C27.8843 46.5686 26.1127 46.4452 24.413 45.9809C22.0766 45.3439 19.7475 44.6645 17.4933 43.7429C15.9561 43.1139 14.3479 42.6437 12.6936 42.3894C12.4491 42.3524 12.2167 42.2795 11.9834 42.1975C11.5671 42.0527 11.1357 41.985 10.6882 41.9961C10.626 42.019 10.5328 42.0191 10.5223 42.1136C10.5107 42.2208 10.6156 42.2067 10.6759 42.2402C10.9967 42.4169 11.3632 42.3528 11.7014 42.4378C14.3155 43.0967 16.8129 44.0852 19.3088 45.0912C21.0002 45.7737 22.6928 46.4667 24.5052 46.7889C26.272 47.1032 28.0402 47.313 29.8452 47.283C32.1324 47.2434 34.4277 47.211 36.6831 47.7314C36.7642 47.7501 36.8537 47.7417 36.9379 47.7486C37.0447 47.7588 37.1497 47.7276 37.1651 47.6225C37.1797 47.5207 37.0628 47.4961 36.9838 47.4737C35.8646 47.1584 34.7599 46.7693 33.5892 46.6852L33.5878 46.6856Z" stroke="white" stroke-width="16" stroke-linejoin="round" mask="url(#path-1-outside-1_1099_748)"/>
<path d="M42.2078 54.8876C42.3238 54.8161 42.412 54.693 42.5318 54.6299C43.7653 53.9746 44.8535 53.0958 46.0067 52.3207C46.8742 51.7372 47.7398 51.1526 48.6133 50.5798C49.6055 49.9287 50.6754 49.4338 51.7542 48.949C52.532 48.5992 53.2756 48.1561 54.0788 47.8896C55.4142 47.4463 56.7813 47.0924 58.0944 46.5774C58.5837 46.3857 59.1061 46.3063 59.5821 46.0825C60.7336 45.544 61.7796 44.821 62.8751 44.1841C63.6051 43.9745 64.1137 43.4203 64.7023 42.9845C64.0367 43.3011 63.3726 43.6173 62.7071 43.9339C62.6749 43.9472 62.6427 43.9605 62.6121 43.9796C62.4928 44.0271 62.3693 44.0648 62.2556 44.1217C61.3681 44.5724 60.4373 44.9196 59.5198 45.2991C59.0528 45.4926 58.5389 45.5402 58.0868 45.7607C57.0755 46.2539 56.0079 46.6005 54.957 46.9924C54.5262 47.1529 54.0683 47.2243 53.6437 47.408C52.9687 47.7007 52.2702 47.9407 51.6071 48.2551C50.7606 48.6559 49.8635 48.9491 49.0688 49.4619C46.9708 50.8164 44.8504 52.1334 42.8611 53.6499C42.5103 53.9178 42.1872 54.2079 41.8965 54.5375C41.795 54.6517 41.7388 54.7724 41.8615 54.9058C41.9798 55.0341 42.1055 54.9523 42.2081 54.889L42.2078 54.8876ZM63.338 43.8534C63.338 43.8534 63.3366 43.8538 63.3351 43.8542C63.3351 43.8542 63.3351 43.8542 63.3347 43.8527C63.3347 43.8527 63.3362 43.8524 63.3376 43.852L63.338 43.8534Z" stroke="white" stroke-width="16" stroke-linejoin="round" mask="url(#path-1-outside-1_1099_748)"/>
<path d="M40.7289 64.3017C40.6788 64.2483 40.6223 64.1998 40.5787 64.1415C40.0907 63.4971 39.6216 62.8366 39.1117 62.2089C38.5987 61.5758 38.1336 60.9127 37.7059 60.221C36.9459 58.9907 36.3385 57.6806 35.7174 56.3774C35.3276 55.5605 34.8765 54.7757 34.3796 54.017C34.2399 53.7624 34.0773 53.5263 33.8445 53.3417C33.8946 53.6794 34.0562 53.9639 34.219 54.2465C34.2303 54.2714 34.2435 54.2974 34.2602 54.3194C34.56 55.0034 34.8783 55.6809 35.1575 56.3751C35.9086 58.2448 36.7278 60.0729 37.9135 61.7205C38.262 62.2035 38.7301 62.5706 39.0811 63.0343C39.5089 63.5986 40.0661 64.0024 40.5901 64.4508C40.7625 64.636 40.9335 64.8217 41.1069 65.0052C41.1529 65.055 41.2139 65.0915 41.2739 65.0428C41.3374 64.99 41.3021 64.9218 41.2562 64.8782C41.0664 64.6975 40.9465 64.4531 40.726 64.3025L40.7289 64.3017Z" stroke="white" stroke-width="16" stroke-linejoin="round" mask="url(#path-1-outside-1_1099_748)"/>
</svg>
