<svg width="1920" height="316" viewBox="0 0 1920 316" fill="none" xmlns="http://www.w3.org/2000/svg">
<path opacity="0.8" d="M0 316V112.066C0 112.066 113.762 93.4459 282.258 102.978C449.681 112.509 569.883 74.1608 666.473 68.1758C761.99 62.1908 930.486 32.709 1092.54 30.9357C1254.6 29.1623 1422.02 21.404 1560.47 10.0989C1697.84 -1.20611 1896.39 -1.20612 1920 1.45389V316H0Z" fill="#04A164"/>
<path d="M1920 170.127C1824.94 161.309 1809.5 128.022 1663.8 114.781C1565.65 105.861 1455.37 95.7141 1319.84 97.1338C1246.91 97.8977 1212.9 96.7001 1134.29 105.229C1055.69 113.758 1020.04 120.553 972.512 122.432C924.983 124.311 810.731 139.346 741.266 137.467C671.801 135.587 610.562 148.887 555.721 149.61C500.88 150.332 472.546 145.562 400.338 149.61C329.045 153.657 270.705 152.162 205.2 156.683C113.456 163.015 82.2613 176.932 -7.62939e-05 180.401V316H1920V170.127Z" fill="#05CD82"/>
</svg>
