<svg width="1920" height="419" viewBox="0 0 1920 419" fill="none" xmlns="http://www.w3.org/2000/svg">
<g clip-path="url(#clip0_1159_808)">
<path opacity="0.8" d="M0 419V165.373C0 165.373 113.762 142.216 282.258 154.071C449.681 165.924 569.883 118.232 666.473 110.788C761.99 103.345 930.486 66.6792 1092.54 64.4738C1254.6 62.2683 1422.02 52.6195 1560.47 38.5597C1697.84 24.5 1896.39 24.5 1920 27.8082V419H0Z" fill="#04A164"/>
<path d="M1920 419V148.594C1920 148.594 1806.24 123.905 1637.74 136.544C1470.32 149.181 1350.12 98.3335 1253.53 90.3977C1158.01 82.4618 989.514 43.3705 827.46 41.0192C665.4 38.6677 497.98 28.3806 359.53 13.3906C222.16 -1.59924 23.61 -1.59925 0 1.92779V419H1920Z" fill="#03594E"/>
<path opacity="0.8" d="M0 419V203.45C0 203.45 113.762 183.769 282.258 193.844C449.681 203.918 569.883 163.385 666.473 157.059C761.99 150.733 930.486 119.572 1092.54 117.698C1254.6 115.823 1422.02 107.623 1560.47 95.6742C1697.84 83.7252 1896.39 83.7252 1920 86.5367V419H0Z" fill="#03594E"/>
<path d="M1920 273.127C1824.94 264.309 1809.5 231.022 1663.8 217.781C1565.65 208.861 1455.37 198.714 1319.84 200.134C1246.91 200.898 1212.9 199.7 1134.29 208.229C1055.69 216.758 1020.04 223.553 972.512 225.432C924.983 227.311 810.731 242.346 741.266 240.467C671.801 238.587 610.562 251.887 555.721 252.61C500.88 253.332 472.546 248.562 400.338 252.61C329.045 256.657 270.705 255.162 205.2 259.683C113.456 266.015 82.2613 279.932 -6.10352e-05 283.401V419H1920V273.127Z" fill="#05CD82"/>
</g>
<defs>
<clipPath id="clip0_1159_808">
<rect width="1920" height="419" fill="white"/>
</clipPath>
</defs>
</svg>
