<svg width="65" height="47" viewBox="0 0 65 47" fill="none" xmlns="http://www.w3.org/2000/svg">
<path d="M14.4841 0.020943C6.77565 0.406543 0.218732 6.28313 0.509303 13.9957C0.753854 20.4868 5.33143 26.6884 11.2591 26.6884C14.9878 26.6884 17.5005 30.1163 14.9993 32.8816C12.156 36.0252 9.94508 37.7989 5.99692 39.835C4.4985 40.6077 3.31422 40.4498 2.03339 41.5461C0.187881 43.1258 1.61668 46.6591 4.04573 46.6887C4.06132 46.6889 4.07694 46.689 4.09257 46.689C15.4245 46.689 25.0271 31.0215 28.1256 25.3629C28.8521 24.0363 29.3659 22.6174 29.6111 21.1249C30.0819 18.2584 30.5901 13.2651 29.1755 10.0212C26.4011 3.6595 21.4158 -0.325805 14.4841 0.020943Z" fill="#19131A"/>
<path d="M48.883 0.020943C41.1746 0.406543 34.6177 6.28313 34.9082 13.9957C35.1528 20.4868 39.7304 26.6884 45.658 26.6884C49.3867 26.6884 51.8995 30.1163 49.3982 32.8816C46.5549 36.0252 44.344 37.7989 40.3958 39.835C38.8974 40.6077 37.7131 40.4498 36.4323 41.5461C34.5868 43.1258 36.0156 46.6591 38.4447 46.6887C38.4602 46.6889 38.4759 46.689 38.4915 46.689C49.8235 46.689 59.426 31.0215 62.5246 25.3629C63.251 24.0363 63.7649 22.6174 64.01 21.1249C64.4809 18.2584 64.989 13.2651 63.5744 10.0212C60.8 3.6595 55.8147 -0.325805 48.883 0.020943Z" fill="#19131A"/>
</svg>
