<svg width="393" height="306" viewBox="0 0 393 306" fill="none" xmlns="http://www.w3.org/2000/svg">
<path d="M220.433 0.915865C220.485 1.07627 220.457 1.23685 220.435 1.39905C219.985 4.78007 219.493 8.15636 219.258 11.5647C219.077 14.1839 218.732 16.7892 218.257 19.3752C217.927 21.17 217.69 22.9835 217.104 24.7229C216.744 25.7922 216.463 26.8916 216.037 27.9326C215.201 29.9738 214.201 31.928 212.557 33.4685C212.057 33.9361 211.601 34.4455 211.173 34.9795C210.714 35.5529 210.183 36.0488 209.568 36.4489C208.794 36.9509 208.064 37.5142 207.333 38.0749C206.441 38.7567 205.501 39.3457 204.398 39.6346C204.003 39.7381 203.62 39.8856 203.12 40.0494C203.419 40.1508 203.606 40.2267 203.801 40.2789C206.414 40.9882 209.031 41.6748 211.685 42.2292C213.665 42.6441 215.664 42.8942 217.673 43.0951C217.927 43.12 218.102 43.074 218.262 42.8949C219.121 41.9501 219.974 40.9931 220.601 39.8808C221.294 38.6505 221.985 37.4368 222.959 36.3849C223.819 35.4558 224.794 34.6477 225.653 33.7266C226.649 32.6549 227.828 31.9401 229.165 31.3708C231.589 30.3362 234.123 29.682 236.71 29.3306C240.212 28.8533 243.743 28.5712 247.26 28.2077C247.526 28.1798 247.792 28.154 248.06 28.1545C248.33 28.1555 248.516 28.3045 248.566 28.5719C248.641 28.9735 248.582 29.3133 248.247 29.6308C247.493 30.3451 246.782 31.1117 246.226 31.9929C245.72 32.7907 245.106 33.4841 244.422 34.1264C244.043 34.4821 243.656 34.831 243.31 35.2169C241.457 37.2855 239.296 39.0092 237.066 40.6388C235.543 41.7507 233.696 42.1685 231.899 42.6189C230.827 42.8882 229.71 42.9795 228.57 43.2976C228.683 43.3364 228.73 43.3639 228.78 43.3708C230.258 43.542 231.725 43.7832 233.193 44.025C236.319 44.5394 239.466 44.9304 242.401 46.2494C244.287 47.0984 246.147 47.9919 247.872 49.1341C249.821 50.4244 251.511 52.0547 253.439 53.3759C253.943 53.7196 254.359 54.1713 254.757 54.6374C255.066 54.998 255.352 55.3956 255.719 55.6855C257.322 56.9544 258.695 58.4592 260.131 59.8989C261.472 61.2441 262.791 62.6117 264.085 64.0025C264.779 64.7483 265.393 65.5673 265.841 66.4972C265.561 66.5799 265.312 66.4939 265.062 66.4852C262.365 66.3869 259.713 65.9193 257.059 65.4941C254.766 65.127 252.501 64.5967 250.258 64.0037C248.351 63.5002 246.38 63.2298 244.545 62.4311C243.29 61.8845 242.05 61.3377 240.858 60.6568C239.694 59.9946 238.628 59.171 237.41 58.6103C236.024 57.9726 234.698 57.2562 233.582 56.1909C233.328 55.9484 233.01 55.7663 232.705 55.5815C231.365 54.7795 230.086 53.8816 228.696 53.1631C228.244 52.9303 227.864 52.5938 227.473 52.2717C225.993 51.0509 224.395 49.9921 222.783 48.9579C221.793 48.3228 220.784 47.747 219.959 46.8779C219.39 46.2777 218.74 45.6988 217.977 45.3806C216.757 44.8714 215.427 44.8001 214.028 44.6439C214.208 44.8579 214.334 45.0014 214.454 45.1498C215.711 46.6925 217.02 48.1973 218.214 49.7879C219.745 51.8305 220.898 54.1015 221.881 56.4479C223.029 59.1873 223.612 62.0904 224.236 64.9765C224.562 66.488 224.733 67.9751 224.501 69.553C224.173 71.788 223.906 74.02 223.101 76.1491C222.22 78.4819 221.309 80.8026 220.052 82.968C219.723 83.535 219.285 84.0234 218.79 84.4578C218.57 84.651 218.283 84.7058 218.148 84.4132C217.629 83.2964 216.768 82.4651 215.91 81.6237C214.275 80.0232 212.411 78.6717 210.88 76.9588C209.184 75.0573 207.791 72.9827 206.99 70.5343C206.366 68.6221 206.338 66.6173 205.977 64.6656C205.625 62.7614 205.506 60.8617 205.628 58.9139C205.77 56.5925 205.73 54.272 206.396 52.0002C207.163 49.3848 207.873 46.7584 209.121 44.2975C207.305 43.9348 205.432 43.5591 203.557 43.1848C203.534 43.2197 203.512 43.2527 203.488 43.2871C204.475 44.8783 204.67 46.7425 205.33 48.4423C205.695 49.3759 205.742 50.3818 206.131 51.3001C206.25 51.5798 206.036 51.7791 205.67 51.7523C204.796 51.6846 203.916 51.6476 203.052 51.5221C201.499 51.2966 199.942 51.0938 198.387 50.7642C198.498 51.3497 198.655 51.9238 198.709 52.5074C198.892 54.491 198.751 56.4701 198.523 58.4433C198.363 59.829 197.92 61.163 197.779 62.556C197.627 64.0473 197.093 65.4732 196.977 66.9742C196.958 67.2232 196.855 67.4522 196.718 67.6741C196.45 68.1108 196.357 68.1335 195.882 67.9246C194.685 67.4022 193.88 66.4865 193.353 65.3437C192.664 63.8474 191.92 62.3794 191.191 60.9026C190.647 59.8005 190.209 58.6511 189.53 57.6078C188.533 56.0765 187.696 54.4348 186.975 52.7683C185.935 50.3594 185.429 47.7978 185.428 45.1453C185.429 43.2365 185.251 41.3357 184.843 39.4619C184.776 39.1534 184.632 39.0308 184.328 38.956C183.036 38.6365 181.719 38.5235 180.401 38.4448C178.592 38.3382 176.777 38.3163 174.979 38.064C173.85 37.9068 172.728 37.7188 171.618 37.4371C170.454 37.1409 169.258 36.9593 168.075 36.7355C167.218 36.5732 166.357 36.425 165.378 36.2495C165.505 36.3804 165.522 36.4064 165.546 36.4214C165.631 36.4809 165.72 36.5369 165.805 36.5964C167.122 37.5172 168.309 38.5498 169.044 40.0263C169.467 40.8785 170.042 41.6419 170.639 42.3854C170.87 42.6736 171.098 42.9778 171.26 43.3076C172.523 45.8819 173.661 48.5111 174.424 51.2834C175.023 53.4603 175.39 55.6893 175.844 57.8986C176.241 59.8384 176.465 61.7924 176.459 63.7774C176.454 65.5665 176.373 67.3311 175.809 69.0528C175.319 70.5465 174.815 72.0365 174.441 73.5675C174.254 74.3363 173.824 74.482 173.054 74.2591C171.337 73.7633 169.763 72.9548 168.255 72.0238C165.866 70.5469 163.498 69.037 161.138 67.5182C160.252 66.9475 159.342 66.3875 158.621 65.6065C156.921 63.7665 155.063 62.0567 153.818 59.8301C153.089 58.5254 152.072 57.381 151.67 55.8966C151.466 55.1505 151.182 54.4304 150.85 53.7316C149.836 51.6033 149.41 49.3284 149.284 47.0084C149.114 43.8947 149.661 40.8369 150.226 37.7905C150.491 36.3616 150.767 34.9335 151.071 33.5109C151.17 33.0481 151.066 32.861 150.586 32.7672C148.779 32.4132 146.979 32.0225 145.178 31.6359C144.275 31.442 143.419 31.0687 142.499 30.9477C140.682 30.7077 138.873 30.3815 137.112 29.9021C134.628 29.2228 132.037 29.0344 129.591 28.2018C129.381 28.1306 129.154 28.1172 128.933 28.0777C128.331 27.9726 127.743 27.8068 127.163 27.6153C126.925 27.5366 126.804 27.3705 126.829 27.1058C126.859 26.812 127.068 26.7559 127.303 26.7432C127.419 26.7356 127.543 26.7493 127.653 26.7809C128.471 27.0168 129.313 27.1319 130.144 27.2937C131.441 27.5477 132.671 28.0879 134.012 28.1599C134.711 28.1978 135.403 28.3205 136.068 28.5563C137.732 29.1477 139.484 29.3533 141.194 29.7435C142.236 29.9811 143.325 30.0115 144.332 30.4035C144.875 30.6155 145.431 30.7879 146.001 30.8843C147.648 31.1629 149.241 31.6556 150.861 32.0412C151.086 32.095 151.266 32.1753 151.21 31.8028C151.182 31.6119 151.267 31.4235 151.517 31.3848C151.749 31.3498 151.919 31.4082 152.044 31.6183C152.238 31.9482 152.315 32.307 152.337 32.6814C152.373 33.249 152.281 33.8083 152.169 34.3603C151.617 37.1085 151.04 39.8523 150.687 42.6367C150.221 46.3345 150.436 49.9474 151.995 53.4C152.16 53.7652 152.343 54.1308 152.445 54.5137C152.829 55.9695 153.593 57.2273 154.341 58.5197C155.718 60.9025 157.572 62.8783 159.44 64.8559C159.704 65.1354 160.002 65.3919 160.318 65.6097C162.321 66.9943 164.32 68.3905 166.426 69.6193C166.902 69.8974 167.351 70.2134 167.806 70.5204C169.449 71.6233 171.144 72.6302 173.036 73.2738C173.45 73.4145 173.566 73.3034 173.657 72.9227C173.839 72.1569 173.999 71.3766 174.289 70.6504C175.542 67.5121 175.753 64.2416 175.285 60.9684C174.603 56.2138 173.768 51.4723 171.834 47.0163C171.266 45.7119 170.819 44.3362 169.972 43.179C169.243 42.1803 168.553 41.164 167.96 40.0813C167.702 39.6094 167.416 39.1558 167.029 38.7808C165.205 37.0241 163.073 35.6873 160.834 34.5522C159.61 33.9318 158.256 33.5593 156.951 33.1047C155.926 32.7487 154.889 32.4178 153.83 32.1714C153.562 32.1083 153.394 31.9707 153.45 31.6752C153.503 31.3879 153.727 31.3573 153.965 31.38C154.127 31.3953 154.291 31.4132 154.448 31.4552C156.1 31.8969 157.742 32.3617 159.325 33.0219C160.31 33.4317 161.358 33.688 162.282 34.2498C162.739 34.5271 163.189 34.8628 163.713 34.964C164.955 35.2034 166.178 35.5324 167.4 35.8377C169.952 36.4747 172.568 36.7539 175.133 37.3275C176.529 37.6402 177.994 37.5967 179.43 37.6854C181.073 37.7862 182.731 37.764 184.335 38.2165C184.464 38.251 184.594 38.288 184.728 38.2312C184.958 38.1331 185.077 38.236 185.184 38.4393C185.599 39.2439 185.805 40.1243 186.078 40.975C186.475 42.2125 186.476 43.5186 186.552 44.8057C186.638 46.2551 186.694 47.7029 187.002 49.1363C187.618 52.0138 189.062 54.5264 190.43 57.0706C190.823 57.8027 191.258 58.5092 191.57 59.2844C192.358 61.2382 193.398 63.0782 194.197 65.0308C194.545 65.8822 195.114 66.5946 196.019 66.9702C196.133 66.4445 196.233 65.9242 196.356 65.4053C196.594 64.396 196.903 63.4056 197.049 62.3716C197.345 60.2723 197.541 58.1613 197.782 56.0561C197.971 54.4043 198.202 52.7725 197.861 51.1169C197.78 50.7248 197.694 50.4583 197.213 50.4785C196.986 50.4888 196.741 50.4059 196.522 50.3175C195.11 49.7546 193.738 49.1141 192.55 48.1395C192.303 47.9354 192.03 47.7592 191.674 47.5023C191.766 47.7532 191.807 47.8933 191.871 48.0226C192.394 49.0759 192.773 50.1879 193.138 51.3001C193.991 53.9049 194.408 56.6063 194.857 59.2991C195.131 60.9344 195.501 62.5567 195.466 64.2302C195.463 64.3392 195.553 64.4946 195.386 64.5363C195.206 64.5807 195.188 64.3972 195.132 64.2851C195.099 64.2205 195.092 64.1431 195.075 64.0696C194.78 62.7218 194.481 61.3748 194.196 60.0251C193.605 57.2385 193.095 54.4326 192.273 51.6981C191.783 50.0652 191.385 48.4011 190.638 46.8549C190.244 46.0384 189.847 45.2275 189.309 44.4936C188.292 43.1098 187.344 41.6798 186.323 40.3016C185.662 39.4095 185.499 38.2562 184.701 37.4568C184.587 37.3423 184.561 37.1889 184.709 37.0647C184.849 36.9468 184.977 36.9919 185.108 37.1001C185.347 37.302 185.569 37.5143 185.725 37.793C186.137 38.528 186.409 39.3312 186.927 40.0169C187.628 40.95 188.269 41.9271 188.944 42.879C189.449 43.5892 190.031 44.2426 190.486 44.9934C190.957 45.7722 191.571 46.4383 192.324 46.9649C194.156 48.2477 196.114 49.1828 198.353 49.6131C200.029 49.934 201.713 50.2354 203.388 50.5735C204.106 50.7178 204.811 50.969 205.59 50.9659C205.41 50.3232 205.25 49.7137 204.991 49.1273C204.447 47.8939 203.757 46.7312 203.275 45.4645C203.014 44.7786 202.614 44.1373 202.21 43.5186C201.166 41.9229 199.436 41.5662 197.748 41.2183C196.338 40.9276 194.873 40.9797 193.462 40.6436C193.349 40.6154 193.222 40.6118 193.109 40.6331C192.177 40.8128 191.335 40.5448 190.466 40.2283C189.063 39.7175 187.897 38.8175 186.63 38.0824C186.473 37.9909 186.312 37.8574 186.415 37.6607C186.504 37.4906 186.696 37.514 186.855 37.5823C187.115 37.6927 187.381 37.7941 187.622 37.9359C189.078 38.7949 190.596 39.4873 192.293 39.6975C193.488 39.8468 194.679 40.0597 195.889 40.0361C197.58 40.0033 199.199 40.3435 200.795 40.8585C201.197 40.9874 201.598 41.1401 201.876 41.4557C202.504 42.1665 203.23 42.6169 204.216 42.5163C204.229 42.5155 204.244 42.5218 204.259 42.5236C206.003 42.8886 207.75 43.2521 209.494 43.6171C209.625 43.6436 209.757 43.6766 209.883 43.7211C210.22 43.8414 210.273 44.0795 210.095 44.381C209.653 45.1313 209.153 45.8595 208.946 46.7178C208.712 47.6873 208.341 48.6115 208.064 49.5676C207.524 51.4356 207 53.3058 206.77 55.2462C206.603 56.6665 206.772 58.0951 206.615 59.5141C206.548 60.134 206.469 60.7592 206.546 61.3809C206.839 63.7067 207.11 66.0371 207.478 68.3504C207.768 70.1799 208.414 71.8911 209.442 73.4693C210.231 74.6801 211.028 75.8607 212.071 76.8828C212.972 77.7678 213.87 78.6457 214.822 79.4821C216.19 80.6839 217.561 81.9013 218.539 83.5267C219.312 82.3437 220.007 81.1977 220.562 79.9434C221.189 78.5232 221.919 77.1562 222.345 75.6452C222.968 73.4287 223.583 71.2207 223.568 68.8876C223.555 67.0461 223.304 65.2295 222.982 63.4283C222.683 61.7452 222.107 60.124 221.573 58.4965C221.096 57.0461 220.532 55.6261 219.794 54.2955C219.117 53.076 218.3 51.9375 217.516 50.7778C216.149 48.7531 214.526 46.9165 213.211 44.8543C213.117 44.7063 212.973 44.5903 212.842 44.469C212.481 44.1332 212.063 43.8794 211.636 43.6359C211.469 43.5417 211.279 43.4133 211.389 43.1799C211.509 42.9275 211.735 43.001 211.929 43.083C212.135 43.1702 212.347 43.2571 212.523 43.3883C212.997 43.739 213.537 43.8339 214.104 43.8929C215.404 44.0334 216.702 44.1995 217.972 44.5066C218.467 44.626 218.908 44.8883 219.338 45.2101C220.323 45.9496 221.156 46.8834 222.248 47.4813C224.483 48.7057 226.558 50.1632 228.52 51.7844C228.889 52.09 229.302 52.3231 229.722 52.5498C230.43 52.9307 231.109 53.3555 231.792 53.7795C233.03 54.5479 234.178 55.4431 235.374 56.2649C237.719 57.8764 240.343 59.0023 242.906 60.209C246.29 61.8031 249.892 62.8283 253.493 63.8147C256.192 64.5537 258.948 65.0467 261.721 65.4239C262.579 65.5413 263.431 65.6914 264.359 65.8362C263.932 65.2803 263.705 64.6939 263.251 64.247C261.784 62.8098 260.314 61.3741 258.879 59.9066C257.248 58.2359 255.519 56.6641 253.892 54.9925C252.917 53.9907 251.715 53.2985 250.647 52.4249C248.756 50.8785 246.771 49.4862 244.553 48.419C242.644 47.5015 240.717 46.6483 238.662 46.1246C236.844 45.6624 234.974 45.4427 233.135 45.0847C230.038 44.4829 226.923 44.0338 223.767 43.9486C221.588 43.8918 219.406 43.9935 217.234 43.6673C215.754 43.444 214.27 43.252 212.799 42.9623C211.532 42.7118 210.243 42.5741 208.98 42.2903C206.424 41.7168 203.888 41.0649 201.364 40.3622C201.131 40.2977 200.94 40.2208 200.956 39.9277C200.972 39.6433 201.202 39.5906 201.397 39.5822C201.788 39.5661 202.16 39.4739 202.528 39.3761C203.733 39.054 204.976 38.8002 205.991 38.0201C207.871 36.579 209.977 35.4012 211.391 33.4176C211.45 33.3343 211.53 33.2629 211.608 33.1956C213.192 31.8434 214.201 30.0726 214.924 28.1931C215.79 25.9423 216.537 23.6406 216.945 21.2393C217.471 18.1372 218.02 15.0391 218.241 11.9006C218.406 9.59158 218.654 7.2921 218.93 4.9956C219.02 4.25043 219.122 3.50849 219.228 2.67928C218.397 3.25451 217.636 3.76627 216.929 4.35518C216.13 5.02081 215.35 5.713 214.458 6.26094C212.935 7.1941 211.465 8.19932 210.1 9.35777C208.855 10.4147 207.492 11.3324 206.506 12.6719C205.625 13.8673 204.676 15.014 203.806 16.2166C202.663 17.7963 201.807 19.5111 201.499 21.4627C201.166 23.5866 200.935 25.7268 200.37 27.8125C200.026 29.0865 199.798 30.3918 199.531 31.6843C199.099 33.7686 199.183 35.8682 199.377 37.9692C199.399 38.2144 199.432 38.4689 199.588 38.6871C199.736 38.8971 199.808 39.1598 199.585 39.3262C199.352 39.501 199.106 39.3772 198.918 39.1696C198.791 39.0301 198.7 38.8655 198.482 38.8159C197.642 38.6236 196.812 38.3739 195.966 38.2103C192.46 37.5401 188.943 36.9318 185.494 35.9904C185.277 35.9322 185.061 35.9134 184.833 35.9449C183.347 36.1447 181.86 36.3333 180.372 36.5279C178.182 36.8153 176.009 36.5208 173.832 36.3439C173.419 36.3113 173.015 36.1858 172.608 36.0987C172.404 36.0549 172.309 35.9175 172.324 35.7083C172.338 35.5222 172.43 35.4046 172.622 35.3785C172.768 35.3593 172.915 35.3254 173.062 35.3324C174.122 35.385 175.181 35.4548 176.241 35.5034C178.735 35.6184 181.212 35.6191 183.651 34.9245C185.795 34.3148 187.824 33.532 189.43 31.9101C189.7 31.6374 190.013 31.4024 190.319 31.1672C192.705 29.3186 194.414 26.927 195.798 24.2891C196.275 23.3844 196.552 22.3833 197.064 21.4923C197.834 20.1532 198.31 18.7097 198.706 17.2276C199.153 15.561 199.323 13.8438 199.664 12.1572C200.278 9.10459 200.492 5.98565 200.931 2.9013C200.991 2.4863 200.734 2.68897 200.582 2.73236C199.01 3.18912 197.447 3.67634 195.868 4.1032C192.391 5.04194 188.943 6.03568 185.693 7.64462C183.391 8.78331 181.668 10.6067 179.778 12.243C179.634 12.3663 179.531 12.5413 179.424 12.7C178.937 13.4123 178.38 14.0693 177.828 14.732C177.087 15.6263 176.385 16.5505 175.952 17.6413C175.569 18.6012 175.021 19.4588 174.397 20.2789C173.722 21.1672 173.028 22.0718 172.717 23.15C172.235 24.8226 171.412 26.335 170.643 27.8705C170.105 28.9438 169.471 29.9681 169.17 31.146C168.899 32.2112 168.256 33.0607 167.589 33.8971C167.224 34.3555 166.789 34.3578 166.466 33.8707C166.406 33.7793 166.342 33.747 166.255 33.7475C165.217 33.7458 164.235 33.3951 163.221 33.266C161.355 33.0302 159.535 32.5867 157.703 32.1854C157.326 32.1018 156.949 32.0011 156.591 31.8557C155.748 31.5139 154.883 31.2525 154.007 31.0056C151.488 30.2934 148.909 29.8214 146.408 29.0237C145.091 28.6048 143.806 28.0587 142.447 27.7966C140.97 27.5118 139.516 27.138 138.06 26.7768C136.934 26.4974 135.837 26.1352 134.74 25.7558C133.266 25.2474 131.653 25.34 130.149 24.8948C129.981 24.8455 129.795 24.854 129.618 24.8303C129.53 24.8197 129.434 24.8136 129.358 24.776C129.186 24.6913 128.989 24.6128 129.052 24.3558C129.103 24.1391 129.245 24.0218 129.464 24.02C129.656 24.0196 129.852 24.029 130.041 24.0579C131.169 24.2323 132.283 24.4762 133.431 24.5439C134.071 24.5814 134.741 24.7068 135.338 24.9783C136.006 25.2818 136.687 25.5371 137.405 25.6688C138.882 25.943 140.305 26.444 141.789 26.6814C143.283 26.919 144.661 27.5591 146.113 27.9363C147.48 28.291 148.786 28.8385 150.18 29.1249C152.192 29.5378 154.177 30.075 156.113 30.7648C156.911 31.0493 157.698 31.3523 158.522 31.564C160.799 32.149 163.135 32.4653 165.408 33.0644C165.811 33.1721 166.226 33.2119 166.645 33.2139C166.778 33.2151 166.917 33.2285 167.008 33.0978C167.412 32.5184 167.884 31.9917 168.106 31.2861C168.5 30.0296 168.962 28.8065 169.614 27.6361C170.302 26.3981 171.038 25.1468 171.418 23.7704C171.891 22.0522 172.811 20.6026 173.869 19.2133C174.303 18.642 174.661 18.0266 174.93 17.3637C175.291 16.4776 175.789 15.6737 176.354 14.9047C176.99 14.0425 177.76 13.2895 178.356 12.3994C178.958 11.5002 179.721 10.7563 180.589 10.1155C181.152 9.6994 181.71 9.27963 182.187 8.76511C182.634 8.2814 183.164 7.90155 183.734 7.57136C186.046 6.23291 188.515 5.24042 191.058 4.46573C194.285 3.48393 197.567 2.69136 200.798 1.7172C201.567 1.48524 201.93 1.78062 201.855 2.57501C201.759 3.54929 201.618 4.51776 201.493 5.49053C201.207 7.69599 200.94 9.9063 200.625 12.1082C200.49 13.046 200.132 13.9417 200.051 14.896C199.976 15.7853 199.759 16.6495 199.573 17.5218C198.986 20.2457 197.569 22.6337 196.363 25.0821C194.934 27.9818 192.799 30.3738 190.238 32.4063C188.827 33.5266 187.433 34.6017 185.705 35.172C185.691 35.1768 185.692 35.2203 185.68 35.2665C189.922 36.4479 194.301 37.052 198.564 38.2625C198.389 36.7268 198.299 35.1946 198.344 33.6596C198.402 31.7638 198.889 29.9333 199.269 28.0934C199.68 26.1026 200.113 24.1152 200.317 22.0906C200.592 19.3544 201.725 17.0026 203.43 14.8835C204.127 14.0163 204.788 13.1176 205.466 12.2324C205.945 11.6063 206.418 10.9701 207.044 10.4823C209.067 8.90071 210.994 7.18576 213.221 5.87416C213.592 5.65674 213.957 5.42457 214.312 5.18113C215.479 4.38335 216.492 3.38509 217.668 2.59859C218.379 2.12484 219.061 1.6284 219.476 0.85386C219.516 0.778294 219.594 0.719529 219.663 0.664644C219.986 0.412581 220.296 0.510687 220.42 0.901506L220.433 0.915865ZM220.136 42.9047C221.374 42.3822 222.605 41.843 223.839 41.3089C226.456 40.179 228.941 38.7728 231.54 37.6123C233.712 36.6416 235.735 35.3745 237.911 34.42C238.849 34.0092 239.707 33.4198 240.721 33.1803C241.135 32.8924 241.569 32.6443 242.058 32.4904C241.678 32.8329 241.35 33.2277 240.865 33.4236C239.367 34.2425 237.865 35.0518 236.373 35.8835C235.466 36.3908 234.571 36.9185 233.686 37.4641C233.176 37.7781 232.616 37.9818 232.086 38.2495C230.242 39.1788 228.426 40.1671 226.55 41.0252C225.029 41.7196 223.54 42.4938 221.953 43.0649C222.671 43.1234 223.386 43.0193 224.097 43.1059C224.244 43.1236 224.395 43.1059 224.539 43.1336C225.291 43.2764 226 43.05 226.701 42.8583C228.172 42.4584 229.675 42.2484 231.173 42.0024C231.99 41.8698 232.757 41.6287 233.462 41.1902C234.346 40.6421 235.324 40.2875 236.247 39.8188C238.803 38.5132 240.989 36.7339 242.92 34.6278C243.24 34.2783 243.587 33.9529 243.941 33.6383C244.682 32.9807 245.3 32.2323 245.762 31.3561C246.229 30.4703 246.845 29.6956 247.56 28.9947C247.433 28.8422 247.295 28.9282 247.179 28.949C245.126 29.3159 243.046 29.4451 240.976 29.6567C237.851 29.9783 234.75 30.4443 231.74 31.3676C230.504 31.7462 229.334 32.3082 228.169 32.8652C227.86 33.0129 227.571 33.205 227.33 33.4488C225.903 34.8965 224.325 36.1963 223.032 37.777C222.549 38.3677 222.129 39.0008 221.807 39.684C221.268 40.8305 220.382 41.7183 219.623 42.7007C219.524 42.8273 219.411 42.9435 219.26 43.1121C219.614 43.1357 219.88 43.0084 220.135 42.9021L220.136 42.9047Z" fill="#00BF96"/>
<path d="M226.428 46.1956C227.717 46.6953 228.99 47.2276 230.291 47.7003C232.611 48.5445 234.882 49.5029 237.153 50.472C241.405 52.2831 245.368 54.6331 249.411 56.8364C250.641 57.5058 251.654 58.5028 252.877 59.1851C255.21 60.4874 257.557 61.7658 259.903 63.0435C260.619 63.4332 261.351 63.7968 262.079 64.166C262.202 64.2291 262.352 64.2736 262.291 64.4447C262.223 64.6334 262.063 64.5282 261.949 64.4975C261.763 64.448 261.583 64.3717 261.402 64.3061C259.568 63.6326 257.884 62.6462 256.139 61.7854C254.539 60.9977 252.865 60.3411 251.388 59.3323C249.762 58.2211 248.023 57.3251 246.306 56.3749C241.147 53.5177 235.786 51.0912 230.339 48.8486C228.443 48.0681 226.592 47.1854 224.686 46.4239C223.643 46.007 222.701 45.3546 221.642 44.9571C221.54 44.9191 221.438 44.879 221.468 44.7427C221.504 44.5843 221.633 44.5799 221.751 44.6137C222.009 44.6826 222.265 44.7576 222.516 44.8527C223.46 45.2083 224.371 45.6522 225.353 45.9019C225.712 45.9978 226.083 46.0626 226.428 46.1956Z" fill="#00BF96"/>
<path d="M155.139 35.3791C156.261 38.9198 157.705 42.3397 159.228 45.7159C161.059 49.7734 163.208 53.6812 165.113 57.707C166.403 60.4327 167.966 63.016 169.434 65.6472C170.294 67.1893 171.063 68.7824 172.04 70.2569C172.353 70.5171 172.497 70.9027 172.755 71.2044C172.8 71.2551 172.858 71.3308 172.76 71.3867C172.681 71.4323 172.622 71.3798 172.567 71.3264C172.258 71.0284 171.955 70.7255 171.733 70.3557C171.637 70.2461 171.537 70.1373 171.444 70.0242C170.727 69.1645 170.187 68.1907 169.594 67.2458C168.126 64.9053 166.678 62.5532 165.342 60.1362C163.745 57.2529 162.357 54.2596 160.84 51.3353C159.48 48.7114 158.12 46.0962 157.048 43.3338C156.096 40.8859 155.034 38.4796 154.383 35.9268C154.199 35.2098 154.002 34.4911 154.009 33.741C154.01 33.5669 154.028 33.3541 154.252 33.319C154.481 33.2835 154.545 33.488 154.6 33.6535C154.787 34.2271 154.963 34.8041 155.145 35.3787L155.139 35.3791Z" fill="#00BF96"/>
<path d="M170.424 32.6422C170.971 32.2389 171.561 31.8923 172.097 31.4732C173.487 30.3904 174.84 29.259 176.221 28.1629C178.526 26.3377 180.626 24.2662 182.783 22.2678C185.062 20.1559 187.133 17.8436 189.17 15.5009C191.03 13.3608 193.048 11.3641 194.827 9.15291C196.026 7.66352 197.247 6.18864 198.615 4.84545C198.799 4.66427 198.989 4.47158 199.353 4.41356C199.295 4.54689 199.282 4.60573 199.248 4.64859C197.663 6.61011 196.246 8.70468 194.632 10.6349C191.453 14.4372 188.374 18.3349 184.828 21.817C181.851 24.7401 178.86 27.6509 175.35 29.9663C173.802 30.9874 172.391 32.2112 170.712 33.0357C170.525 33.128 170.296 33.4266 170.101 33.1224C169.931 32.855 170.27 32.7516 170.426 32.6381L170.424 32.6422Z" fill="#00BF96"/>
<path d="M212.383 49.6393C212.474 50.9091 212.398 52.1881 212.601 53.4531C212.687 53.9978 212.683 54.544 212.659 55.0934C212.546 57.5496 212.717 60.0066 213.363 62.364C214.248 65.6044 215.193 68.8346 216.474 71.961C217.348 74.093 218.002 76.3233 218.355 78.6178C218.407 78.9569 218.508 79.2792 218.622 79.6027C218.823 80.1801 218.918 80.7784 218.902 81.3991C218.87 81.4854 218.87 81.6146 218.739 81.6291C218.59 81.6453 218.609 81.4997 218.563 81.4161C218.317 80.9713 218.406 80.4628 218.288 79.9939C217.372 76.3683 215.998 72.9046 214.599 69.4431C213.651 67.0973 212.687 64.7497 212.239 62.2361C211.803 59.7858 211.511 57.3333 211.553 54.83C211.608 51.6579 211.653 48.4745 210.929 45.3464C210.903 45.2339 210.915 45.1099 210.905 44.9931C210.891 44.845 210.935 44.6993 211.081 44.678C211.222 44.6576 211.256 44.8198 211.287 44.9293C211.726 46.4816 212.267 48.0138 212.384 49.6373L212.383 49.6393Z" fill="#00BF96"/>
<path d="M200.981 37.6842C201.08 37.5233 201.252 37.401 201.339 37.2349C202.25 35.5241 203.472 34.0148 204.549 32.4154C205.361 31.2123 206.173 30.0118 206.969 28.8003C207.875 27.4242 208.563 25.9403 209.237 24.4441C209.723 23.3654 210.339 22.3342 210.709 21.2201C211.326 19.3681 211.818 17.472 212.533 15.6509C212.8 14.9723 212.91 14.2477 213.221 13.5875C213.97 11.9906 214.975 10.5398 215.86 9.02043C216.152 8.00804 216.922 7.30257 217.528 6.48629C217.088 7.40935 216.648 8.33039 216.208 9.25345C216.19 9.29808 216.171 9.3427 216.145 9.38517C216.079 9.55066 216.026 9.72194 215.947 9.87964C215.321 11.1106 214.838 12.4014 214.31 13.6739C214.041 14.3217 213.975 15.0344 213.669 15.6614C212.983 17.064 212.501 18.5447 211.957 20.0021C211.733 20.5997 211.634 21.2346 211.379 21.8235C210.972 22.7598 210.638 23.7286 210.201 24.6481C209.644 25.8222 209.236 27.0663 208.524 28.1686C206.641 31.0783 204.81 34.0191 202.702 36.7781C202.329 37.2646 201.926 37.7127 201.468 38.116C201.309 38.2567 201.141 38.3346 200.956 38.1644C200.777 38.0004 200.891 37.8261 200.979 37.6837L200.981 37.6842ZM216.32 8.3784C216.32 8.3784 216.32 8.38041 216.319 8.38242C216.319 8.38242 216.319 8.38242 216.321 8.38296C216.321 8.38296 216.322 8.38095 216.322 8.37894L216.32 8.3784Z" fill="#00BF96"/>
<path d="M187.894 39.7353C187.968 39.8047 188.036 39.8831 188.117 39.9435C189.013 40.6204 189.931 41.2709 190.803 41.9782C191.683 42.6897 192.605 43.3347 193.567 43.9279C195.277 44.982 197.098 45.8244 198.91 46.6858C200.046 47.2263 201.137 47.852 202.191 48.5411C202.545 48.7349 202.873 48.9605 203.13 49.2834C202.661 49.2139 202.265 48.9897 201.872 48.764C201.838 48.7482 201.801 48.73 201.771 48.7067C200.82 48.2909 199.878 47.8495 198.913 47.4623C196.314 46.4206 193.773 45.2844 191.482 43.64C190.811 43.1567 190.301 42.5075 189.656 42.0206C188.872 41.4273 188.31 40.6546 187.687 39.9277C187.429 39.6886 187.171 39.4516 186.916 39.211C186.847 39.1473 186.796 39.0626 186.864 38.9794C186.937 38.8913 187.032 38.9403 187.093 39.004C187.344 39.2672 187.684 39.4334 187.893 39.7393L187.894 39.7353Z" fill="#00BF96"/>
<path fill-rule="evenodd" clip-rule="evenodd" d="M142.208 27.9192C140.681 29.665 139.46 31.6268 138.499 33.878L136.56 51.9374C136.949 53.5626 137.524 55.116 138.335 56.4873C140.722 60.5528 144.58 62.5506 149.429 62.5506C154.308 62.5506 158.46 60.6169 161.725 56.8936C163.193 55.2455 164.392 53.3641 165.338 51.2682L164.255 58.9241C164.149 59.6777 164.374 60.4406 164.873 61.0152C165.372 61.5899 166.096 61.9199 166.857 61.9199H170.996C172.47 61.9199 173.992 61.5877 175.23 60.5866C176.498 59.5616 177.108 58.1281 177.305 56.6533L177.505 55.2388C177.638 55.6226 177.783 55.9974 177.943 56.3273C178.053 56.5554 178.34 57.1382 178.876 57.5923C179.517 58.1351 180.247 58.2914 180.591 58.352C181.024 58.4285 181.482 58.4512 181.915 58.4512H183.689C184.39 58.4512 185.503 58.3872 186.45 57.7837C187.292 57.2802 187.879 56.469 188.261 55.8693L187.827 58.9223C187.72 59.6762 187.945 60.4395 188.445 61.0146C188.944 61.5896 189.668 61.9199 190.429 61.9199H194.568C196.042 61.9199 197.564 61.5877 198.802 60.5866C199.747 59.8228 200.327 58.832 200.642 57.7664L200.478 58.9241C200.372 59.6777 200.597 60.4406 201.096 61.0152C201.595 61.5899 202.319 61.9199 203.08 61.9199H207.219C208.693 61.9199 210.215 61.5877 211.453 60.5866C212.721 59.5616 213.331 58.1281 213.528 56.6533L213.728 55.2388C213.861 55.6226 214.006 55.9974 214.166 56.3273C214.276 56.5554 214.563 57.1382 215.1 57.5923C215.74 58.1351 216.47 58.2914 216.814 58.352C217.248 58.4285 217.705 58.4512 218.138 58.4512H219.912C220.613 58.4512 221.726 58.3872 222.673 57.7837C223.515 57.2802 224.102 56.469 224.484 55.8693L224.05 58.9223C223.943 59.6762 224.168 60.4395 224.668 61.0146C225.167 61.5896 225.891 61.9199 226.652 61.9199H230.791C232.265 61.9199 233.787 61.5877 235.025 60.5866C235.076 60.5452 235.126 60.5032 235.176 60.4605C235.21 60.5296 235.247 60.5976 235.288 60.6642C235.766 61.4443 236.615 61.9199 237.529 61.9199H242.93C244.088 61.9199 245.435 61.807 246.521 61.2222C247.767 60.578 248.479 59.413 248.911 58.407L250.452 55.2189H257.779L258.637 59.7782C258.871 61.0203 259.956 61.9199 261.22 61.9199H266.659C267.276 61.9199 267.902 61.8782 268.485 61.7525C269.017 61.6378 269.764 61.4015 270.405 60.8325C271.662 59.7405 271.725 58.2151 271.603 57.1974C271.693 57.3615 271.8 57.5168 271.924 57.6606C272.268 58.0578 272.718 58.3388 273.215 58.4753C272.868 58.9911 272.541 59.375 272.242 59.6526C271.58 60.2669 271.28 61.1777 271.448 62.0648C271.615 62.952 272.225 63.6912 273.065 64.0227L276.061 65.2052C276.867 65.5233 277.778 65.4237 278.496 64.939C280.015 63.9134 281.516 62.0376 283.012 59.7406C283.017 59.7331 283.022 59.7255 283.027 59.718L283.034 59.7058C284.302 57.6904 285.069 55.3043 285.423 52.6372L285.426 52.6192L285.972 48.8708C286.083 48.1156 285.859 47.3499 285.36 46.7727C284.861 46.1954 284.135 45.8637 283.372 45.8637H276.277C275.874 45.8637 275.413 45.8953 274.95 46.0111C274.502 46.123 273.864 46.3604 273.315 46.9093C272.797 47.4273 272.556 48.03 272.436 48.4042C272.305 48.8104 272.226 49.2354 272.175 49.6355L271.311 55.5627C271.306 55.6014 271.301 55.6402 271.297 55.6789L265.321 29.0351L265.319 29.0247C265.191 28.4638 265.235 28.1278 265.298 27.9311C265.367 27.7183 265.429 27.597 265.464 27.5391L265.467 27.5344L265.471 27.5283C265.473 27.5249 265.475 27.5218 265.477 27.5192C266.312 26.8147 266.625 25.6645 266.258 24.6315C265.886 23.5833 264.894 22.8829 263.782 22.8829H256.568C255.545 22.8829 254.35 23.075 253.331 23.8165C252.39 24.4956 251.751 25.6204 251.3 26.5456L237.543 53.4861L240.725 30.763L240.727 30.748C240.96 29.0172 241.522 28.0404 242.16 27.4703C242.973 26.7441 243.253 25.5918 242.864 24.5736C242.476 23.5555 241.499 22.8829 240.409 22.8829H234.457C233.551 22.8829 232.457 23.0439 231.503 23.7049C231.475 23.7238 231.448 23.7433 231.422 23.7632C230.73 24.2821 230.208 24.9763 229.806 25.6457L229.799 25.6566L221.143 39.7994L216.679 26.2653C216.465 25.4675 216.052 24.5579 215.235 23.8687C214.24 23.0055 212.993 22.8829 212.186 22.8829H210.018C208.97 22.8829 207.637 23.0766 206.573 23.9886C206.52 24.0337 206.469 24.0797 206.42 24.1265C205.947 23.3633 205.107 22.8829 204.186 22.8829H198.234C197.328 22.8829 196.234 23.0439 195.28 23.7049C195.252 23.7238 195.225 23.7433 195.199 23.7632C194.507 24.2821 193.985 24.9763 193.583 25.6457L193.576 25.6566L184.92 39.7994L180.456 26.2653C180.241 25.4675 179.829 24.5579 179.012 23.8687C178.016 23.0055 176.769 22.8829 175.963 22.8829H173.795C172.747 22.8829 171.414 23.0766 170.35 23.9886C169.316 24.8746 168.906 26.0929 168.751 27.136L168.749 27.1531L167.738 34.3029C167.378 32.0927 166.678 30.0789 165.595 28.2948C163.177 24.2401 159.299 22.2522 154.435 22.2522C149.593 22.2522 145.469 24.1976 142.209 27.918L142.208 27.9192ZM159.756 55.1532C162.568 51.9998 164.342 47.7557 165.078 42.4212C165.84 37.0603 165.262 32.8031 163.343 29.6497C161.451 26.4699 158.482 24.8801 154.435 24.8801C150.388 24.8801 146.972 26.4699 144.186 29.6497C141.427 32.8031 139.666 37.0603 138.904 42.4212C138.168 47.7557 138.733 51.9998 140.599 55.1532C142.465 58.3329 145.408 59.9228 149.429 59.9228C153.528 59.9228 156.971 58.3329 159.756 55.1532ZM180.575 55.5868C180.417 55.4554 180.22 55.0481 179.983 54.3648L176.475 43.7614L174.701 56.2963C174.439 58.2935 173.203 59.2921 170.996 59.2921H166.857L171.351 27.5211C171.456 26.8116 171.692 26.2991 172.06 25.9838C172.428 25.6684 173.006 25.5108 173.795 25.5108H175.963C176.593 25.5108 177.04 25.629 177.303 25.8655C177.592 26.102 177.802 26.4831 177.934 27.0087L184.201 46.0082L195.829 27.0087C196.145 26.4831 196.46 26.102 196.775 25.8655C197.117 25.629 197.603 25.5108 198.234 25.5108H204.186C203.428 26.1885 202.848 27.0645 202.446 28.1386C202.193 28.8137 202.011 29.567 201.9 30.3986L198.273 56.2963C198.011 58.2935 196.775 59.2921 194.568 59.2921H190.429L192.637 43.7614L186.054 54.4437C185.686 55.0218 185.357 55.3897 185.068 55.5474C184.805 55.7313 184.346 55.8233 183.689 55.8233H181.915C181.205 55.8233 180.759 55.7445 180.575 55.5868ZM216.206 54.3648C216.443 55.0481 216.64 55.4554 216.798 55.5868C216.982 55.7445 217.428 55.8233 218.138 55.8233H219.912C220.569 55.8233 221.029 55.7313 221.291 55.5474C221.58 55.3897 221.909 55.0218 222.277 54.4437L228.86 43.7614L226.652 59.2921H230.791C232.999 59.2921 234.234 58.2935 234.496 56.2963L238.123 30.3986C238.234 29.567 238.416 28.8137 238.669 28.1386C239.071 27.0645 239.651 26.1885 240.409 25.5108H234.457C233.826 25.5108 233.34 25.629 232.999 25.8655C232.683 26.102 232.368 26.4831 232.052 27.0087L220.424 46.0082L214.157 27.0087C214.025 26.4831 213.815 26.102 213.526 25.8655C213.263 25.629 212.816 25.5108 212.186 25.5108H210.018C209.229 25.5108 208.651 25.6684 208.283 25.9838C207.915 26.2991 207.679 26.8116 207.574 27.5211L203.08 59.2921H207.219C209.426 59.2921 210.662 58.2935 210.924 56.2963L212.698 43.7614L216.206 54.3648ZM246.517 57.3212C246.175 58.1358 245.768 58.6614 245.295 58.8979C244.822 59.1607 244.033 59.2921 242.93 59.2921H237.529L253.651 27.7182C254.098 26.7984 254.506 26.2072 254.873 25.9444C255.268 25.6553 255.833 25.5108 256.568 25.5108H263.782C263.361 25.8524 263.033 26.3911 262.796 27.1269C262.694 27.4468 262.633 27.784 262.615 28.1386C262.591 28.5998 262.638 29.0903 262.757 29.6103L268.946 57.2029C269.103 58.0176 269.011 58.5694 268.67 58.8585C268.354 59.1475 267.684 59.2921 266.659 59.2921H261.22L259.958 52.591H248.803L246.517 57.3212ZM277.223 55.9415C277.148 56.5672 276.811 57.4432 276.211 58.5694C276.181 58.6257 276.15 58.6827 276.119 58.7402C275.99 58.978 275.859 59.2056 275.727 59.423C275.187 60.311 274.621 61.0295 274.03 61.5783L277.026 62.7609C278.077 62.0513 279.338 60.5666 280.81 58.3066C281.835 56.6773 282.505 54.6671 282.82 52.2757L283.372 48.4915H276.277C275.725 48.4915 275.357 48.5835 275.173 48.7675C274.989 48.9514 274.858 49.3587 274.779 49.9894L273.912 55.9415H277.223Z" fill="#AACBC5"/>
<path fill-rule="evenodd" clip-rule="evenodd" d="M130.924 58.9733C133.417 57.1906 135.283 54.8155 136.56 51.9374L138.499 33.878C138.168 30.6731 137.022 27.892 134.862 25.7604C132.268 23.2008 128.899 22.0816 125.048 22.2057L125.048 22.2072L125.048 22.2057C120.249 22.3596 116.08 24.2344 112.654 27.7207C109.207 31.2293 107.172 36.069 106.33 41.9622L106.329 41.9727C105.52 47.8031 106.157 52.8416 108.773 56.6674L108.775 56.6714C111.454 60.5741 115.47 62.4634 120.402 62.4634C124.216 62.4634 127.744 61.2732 130.924 58.9733ZM135.105 48.2071C134.054 51.9913 132.149 54.8688 129.39 56.8397C126.63 58.8369 123.634 59.8355 120.402 59.8355C116.224 59.8355 113.07 58.285 110.942 55.1842C108.84 52.1095 108.169 47.8261 108.932 42.3339C109.72 36.8153 111.586 32.5582 114.529 29.5624C117.498 26.5403 121.033 24.9636 125.132 24.8322C125.449 24.822 125.76 24.8216 126.064 24.831C126.89 24.8564 127.672 24.9538 128.41 25.1231C130.203 25.5344 131.739 26.3704 133.016 27.6309C133.046 27.6606 133.076 27.6906 133.106 27.7207L133.106 27.7213C133.351 27.97 133.581 28.2318 133.794 28.5067C134.365 29.241 134.823 30.0685 135.17 30.9892C135.719 32.4478 135.986 34.1402 135.972 36.0664C135.972 36.5919 135.618 36.8547 134.908 36.8547H130.72H129.547C128.838 36.8547 128.417 36.5788 128.286 36.027C128.023 34.3188 127.524 33.0575 126.788 32.2428C126.078 31.4282 125.211 31.0471 124.186 31.0997C122.452 31.1522 120.888 32.1903 119.496 34.2137C118.103 36.2109 117.17 38.9176 116.697 42.3339C116.198 45.9603 116.382 48.759 117.249 50.7299C118.142 52.7008 119.548 53.6468 121.466 53.568C122.649 53.5155 123.792 53.0293 124.896 52.1095C126 51.1635 126.84 49.8364 127.419 48.1283C127.655 47.4976 128.154 47.1823 128.917 47.1823H134.159C134.396 47.1823 134.588 47.197 134.736 47.2265C134.9 47.2593 135.01 47.3102 135.066 47.3794C135.195 47.509 135.21 47.7794 135.109 48.1906L135.105 48.2071Z" fill="#AACBC5"/>
<path d="M134.894 36.9027H129.533C128.823 36.9027 128.403 36.6268 128.271 36.0749C128.009 34.3668 127.509 33.1054 126.773 32.2908C126.064 31.4761 125.197 31.0951 124.172 31.1477C122.437 31.2002 120.874 32.2382 119.481 34.2617C118.088 36.2589 117.155 38.9656 116.682 42.3818C116.183 46.0083 116.367 48.807 117.234 50.7779C118.128 52.7488 119.534 53.6948 121.452 53.616C122.635 53.5634 123.778 53.0773 124.881 52.1575C125.985 51.2115 126.826 49.8844 127.404 48.1763C127.641 47.5456 128.14 47.2302 128.902 47.2302H134.145C134.644 47.2302 134.946 47.2959 135.051 47.4273C135.183 47.5587 135.196 47.8347 135.091 48.2551C134.04 52.0393 132.134 54.9168 129.375 56.8877C126.616 58.8849 123.62 59.8835 120.388 59.8835C116.209 59.8835 113.056 58.333 110.927 55.2321C108.825 52.1575 108.155 47.8741 108.917 42.3818C109.705 36.8633 111.571 32.6061 114.514 29.6103C117.484 26.5883 121.018 25.0116 125.118 24.8802C128.376 24.7751 131.004 25.708 133.002 27.6789C134.999 29.6498 135.984 32.4616 135.958 36.1143C135.958 36.6399 135.603 36.9027 134.894 36.9027Z" fill="#03594E"/>
<path d="M165.078 42.4212C164.342 47.7558 162.568 51.9998 159.756 55.1533C156.971 58.333 153.528 59.9229 149.429 59.9229C145.408 59.9229 142.465 58.333 140.599 55.1533C138.733 51.9998 138.168 47.7558 138.904 42.4212C139.666 37.0604 141.427 32.8032 144.186 29.6498C146.972 26.47 150.388 24.8802 154.435 24.8802C158.482 24.8802 161.451 26.47 163.343 29.6498C165.262 32.8032 165.84 37.0604 165.078 42.4212ZM149.074 34.3405C147.813 36.4954 146.959 39.1889 146.512 42.4212C146.065 45.6535 146.157 48.3471 146.788 50.5019C147.445 52.6568 148.627 53.7342 150.335 53.7342C152.149 53.7342 153.673 52.6699 154.908 50.5414C156.143 48.3865 156.984 45.6798 157.431 42.4212C157.904 39.1627 157.825 36.456 157.194 34.3011C156.563 32.1462 155.368 31.0688 153.607 31.0688C151.846 31.0688 150.335 32.1594 149.074 34.3405Z" fill="#03594E"/>
<path d="M171.351 27.5212C171.456 26.8117 171.692 26.2992 172.06 25.9839C172.428 25.6685 173.006 25.5109 173.795 25.5109H175.963C176.593 25.5109 177.04 25.6291 177.303 25.8656C177.592 26.1021 177.802 26.4832 177.934 27.0088L184.201 46.0083L195.829 27.0088C196.145 26.4832 196.46 26.1021 196.775 25.8656C197.117 25.6291 197.603 25.5109 198.234 25.5109H204.186C202.951 26.6146 202.189 28.2439 201.9 30.3987L198.273 56.2964C198.01 58.2936 196.775 59.2922 194.568 59.2922H190.429L192.636 43.7615L186.054 54.4438C185.686 55.0219 185.357 55.3898 185.068 55.5475C184.805 55.7314 184.346 55.8234 183.689 55.8234H181.915C181.205 55.8234 180.759 55.7446 180.575 55.5869C180.417 55.4555 180.22 55.0482 179.983 54.3649L176.475 43.7615L174.701 56.2964C174.438 58.2936 173.203 59.2922 170.996 59.2922H166.857L171.351 27.5212Z" fill="#03594E"/>
<path d="M207.574 27.5212C207.679 26.8117 207.915 26.2992 208.283 25.9839C208.651 25.6685 209.229 25.5109 210.018 25.5109H212.186C212.816 25.5109 213.263 25.6291 213.526 25.8656C213.815 26.1021 214.025 26.4832 214.157 27.0088L220.424 46.0083L232.052 27.0088C232.368 26.4832 232.683 26.1021 232.998 25.8656C233.34 25.6291 233.826 25.5109 234.457 25.5109H240.409C239.174 26.6146 238.412 28.2439 238.123 30.3987L234.496 56.2964C234.234 58.2936 232.998 59.2922 230.791 59.2922H226.652L228.86 43.7615L222.277 54.4438C221.909 55.0219 221.58 55.3898 221.291 55.5475C221.029 55.7314 220.569 55.8234 219.912 55.8234H218.138C217.428 55.8234 216.982 55.7446 216.798 55.5869C216.64 55.4555 216.443 55.0482 216.206 54.3649L212.698 43.7615L210.924 56.2964C210.662 58.2936 209.426 59.2922 207.219 59.2922H203.08L207.574 27.5212Z" fill="#03594E"/>
<path d="M261.22 59.2922L259.958 52.5911H248.803L246.517 57.3213C246.175 58.1359 245.768 58.6615 245.295 58.898C244.822 59.1608 244.033 59.2922 242.93 59.2922H237.529L253.651 27.7183C254.098 26.7985 254.505 26.2073 254.873 25.9445C255.268 25.6554 255.833 25.5109 256.568 25.5109H263.782C263.361 25.8525 263.033 26.3912 262.796 27.127C262.56 27.8628 262.547 28.6906 262.757 29.6103L268.946 57.203C269.103 58.0177 269.011 58.5695 268.67 58.8586C268.354 59.1477 267.684 59.2922 266.659 59.2922H261.22ZM256.844 35.9172L251.759 46.4025H258.815L256.844 35.9172Z" fill="#03594E"/>
<path d="M273.912 55.9416L274.779 49.9895C274.858 49.3588 274.989 48.9515 275.173 48.7676C275.357 48.5836 275.725 48.4916 276.277 48.4916H283.372L282.82 52.2758C282.505 54.6671 281.835 56.6775 280.81 58.3067C279.338 60.5667 278.077 62.0515 277.026 62.761L274.03 61.5784C274.766 60.8952 275.462 59.9492 276.119 58.7403C276.776 57.5315 277.144 56.5986 277.223 55.9416H273.912Z" fill="#03594E"/>
<path d="M149.074 34.3405C147.813 36.4954 146.959 39.1889 146.512 42.4212C146.065 45.6535 146.157 48.3471 146.788 50.5019C147.445 52.6568 148.627 53.7342 150.335 53.7342C152.149 53.7342 153.673 52.6699 154.908 50.5414C156.143 48.3865 156.984 45.6798 157.431 42.4212C157.904 39.1627 157.825 36.456 157.194 34.3011C156.563 32.1462 155.368 31.0688 153.607 31.0688C151.846 31.0688 150.335 32.1594 149.074 34.3405Z" fill="#AACBC5"/>
<path d="M256.844 35.9172L251.759 46.4025H258.815L256.844 35.9172Z" fill="#AACBC5"/>
<path d="M43.8882 95.8718C46.1029 95.8718 47.6356 96.7151 48.4862 98.4018C49.3369 100.088 49.5422 102.501 49.1022 105.64C48.6622 108.764 47.7749 111.184 46.4402 112.9C45.1056 114.616 43.3382 115.474 41.1382 115.474C38.9382 115.474 37.4056 114.616 36.5402 112.9C35.6749 111.198 35.4696 108.778 35.9242 105.64C36.3642 102.501 37.2516 100.088 38.5862 98.4018C39.9209 96.7151 41.6882 95.8718 43.8882 95.8718ZM48.8382 116.09L51.3902 97.9398C51.5076 97.1478 51.7422 96.6051 52.0942 96.3118C52.4609 96.0184 53.1062 95.8718 54.0302 95.8718H56.8022C56.1276 96.5024 55.7096 97.4118 55.5482 98.5998L54.8662 103.418H57.1762L56.6702 107.048H54.3602L53.3702 114.022C53.2529 114.814 53.0109 115.356 52.6442 115.65C52.2922 115.943 51.6542 116.09 50.7302 116.09H48.8382ZM43.4262 99.1718C41.8129 99.1718 40.7129 101.328 40.1262 105.64C39.5102 109.996 40.0016 112.174 41.6002 112.174C43.2136 112.174 44.3282 109.996 44.9442 105.64C45.5309 101.328 45.0249 99.1718 43.4262 99.1718Z" fill="#FFC439"/>
<path d="M58.5402 106.96L59.7722 98.2698C59.8749 97.4778 60.1022 96.9351 60.4542 96.6418C60.8209 96.3484 61.4736 96.2018 62.4122 96.2018H78.8242C78.1642 96.7591 77.7389 97.6758 77.5482 98.9518L76.7122 104.892C76.5949 105.684 76.3529 106.226 75.9862 106.52C75.6342 106.813 74.9962 106.96 74.0722 106.96H58.5402ZM77.1962 108.016L76.9542 109.776C76.8076 110.876 76.1989 111.426 75.1282 111.426H69.1882L68.8142 114.11C68.7116 114.872 68.4622 115.43 68.0662 115.782C67.6849 116.134 67.0469 116.31 66.1522 116.31H63.8202L64.5022 111.426H56.8682L57.1322 109.666C57.2789 108.566 57.8802 108.016 58.9362 108.016H77.1962ZM63.9962 99.5018L63.4022 103.66H72.4882L73.0822 99.5018H63.9962Z" fill="#FFC439"/>
<path d="M92.5845 98.4018L92.4085 99.6338C92.4085 99.6631 92.4012 99.7071 92.3865 99.7658C92.3865 99.8098 92.3792 99.8464 92.3645 99.8758H95.2025L95.4885 97.9398C95.5912 97.1478 95.8259 96.6051 96.1925 96.3118C96.5592 96.0184 97.2045 95.8718 98.1285 95.8718H100.945C100.255 96.5171 99.8299 97.4264 99.6685 98.5998L98.4805 107.092C98.4072 107.605 98.2605 107.957 98.0405 108.148C97.8205 108.338 97.4465 108.434 96.9185 108.434H93.9925L94.7185 103.33H90.9565C90.1499 104.43 88.9692 105.273 87.4145 105.86C85.1705 106.74 82.3839 107.055 79.0545 106.806L79.5385 103.418C82.2519 103.535 84.3052 103.337 85.6985 102.824C86.4025 102.574 86.9305 102.23 87.2825 101.79C87.6345 101.35 87.8619 100.756 87.9645 100.008L88.0525 99.3918H80.4625L80.7265 97.5658C80.7999 97.0084 80.9759 96.6271 81.2545 96.4218C81.5332 96.2018 81.9512 96.0918 82.5085 96.0918H93.7505C93.4425 96.3704 93.1785 96.7298 92.9585 97.1698C92.7532 97.6098 92.6285 98.0204 92.5845 98.4018ZM88.0745 106.938H92.9365C92.5845 107.172 92.3352 107.4 92.1885 107.62C92.0419 107.825 91.9539 108.111 91.9245 108.478C91.8659 109.284 92.4159 110.164 93.5745 111.118C94.7479 112.071 96.2365 112.621 98.0405 112.768L97.5785 116.068C96.6105 116.141 95.5545 116.024 94.4105 115.716C93.2812 115.408 92.2179 114.909 91.2205 114.22C90.2232 113.53 89.5412 112.738 89.1745 111.844C88.2065 113.12 86.8205 114.154 85.0165 114.946C83.2125 115.752 81.3645 116.126 79.4725 116.068L79.9345 112.768C81.8852 112.562 83.5425 111.983 84.9065 111.03C86.2705 110.076 87.0185 109.086 87.1505 108.06C87.2092 107.561 87.2899 107.253 87.3925 107.136C87.4952 107.004 87.7225 106.938 88.0745 106.938Z" fill="#FFC439"/>
<path d="M120.178 111.778L119.936 113.582C119.76 114.682 119.151 115.232 118.11 115.232H99.5417L99.8057 113.428C99.9524 112.328 100.546 111.778 101.588 111.778H107.748L108.298 107.818H101.698L103.04 98.2918C103.128 97.6318 103.34 97.1404 103.678 96.8178C104.015 96.4804 104.536 96.3118 105.24 96.3118H121.19L120.926 98.1378C120.779 99.2378 120.178 99.7878 119.122 99.7878H107.418L106.78 104.342H120.332L120.068 106.168C119.921 107.268 119.312 107.818 118.242 107.818H112.984L112.434 111.778H120.178Z" fill="#FFC439"/>
<path d="M137.3 95.5418C139.456 95.5418 141.025 96.0991 142.008 97.2138C142.99 98.3138 143.364 99.7144 143.13 101.416C142.895 103.117 142.125 104.532 140.82 105.662C139.529 106.791 137.806 107.356 135.65 107.356C133.508 107.356 131.939 106.791 130.942 105.662C129.944 104.532 129.57 103.117 129.82 101.416C130.054 99.7291 130.824 98.3284 132.13 97.2138C133.435 96.0991 135.158 95.5418 137.3 95.5418ZM129.424 115.87L130.216 110.194C130.304 109.563 130.509 109.116 130.832 108.852C131.169 108.573 131.668 108.434 132.328 108.434H135.496C134.997 108.947 134.689 109.629 134.572 110.48L134.286 112.57H147.442L147.244 113.846C147.068 115.195 146.32 115.87 145 115.87H129.424ZM143.196 110.37L144.934 97.9398C145.051 97.1478 145.286 96.6051 145.638 96.3118C146.004 96.0184 146.65 95.8718 147.574 95.8718H150.39C149.715 96.5171 149.297 97.4264 149.136 98.5998L148.828 100.8H151.028L150.566 104.1H148.366L147.772 108.302C147.654 109.094 147.412 109.636 147.046 109.93C146.694 110.223 146.056 110.37 145.132 110.37H143.196ZM136.882 98.6218C136.075 98.6218 135.415 98.8711 134.902 99.3698C134.388 99.8684 134.073 100.55 133.956 101.416C133.838 102.31 133.963 103.014 134.33 103.528C134.696 104.026 135.283 104.276 136.09 104.276C136.896 104.276 137.556 104.026 138.07 103.528C138.598 103.014 138.92 102.31 139.038 101.416C139.155 100.565 139.023 99.8904 138.642 99.3918C138.26 98.8784 137.674 98.6218 136.882 98.6218Z" fill="#FFC439"/>
<path d="M167.413 116.09L169.965 97.9398C170.083 97.1331 170.288 96.5904 170.581 96.3118C170.889 96.0184 171.498 95.8718 172.407 95.8718H174.915C174.49 96.3264 174.197 97.0818 174.035 98.1378L173.265 103.638H173.903L174.717 97.9398C174.835 97.1331 175.04 96.5904 175.333 96.3118C175.641 96.0184 176.25 95.8718 177.159 95.8718H179.887C179.301 96.3704 178.934 97.1331 178.787 98.1598L176.543 114.044C176.441 114.821 176.228 115.356 175.905 115.65C175.597 115.943 175.084 116.09 174.365 116.09H172.165L173.397 107.268H172.737L171.791 114.044C171.689 114.821 171.476 115.356 171.153 115.65C170.845 115.943 170.332 116.09 169.613 116.09H167.413ZM163.431 101.966C165.03 101.966 166.211 102.56 166.973 103.748C167.736 104.921 167.963 106.6 167.655 108.786C167.347 110.971 166.643 112.658 165.543 113.846C164.443 115.034 163.094 115.628 161.495 115.628C159.867 115.628 158.679 115.034 157.931 113.846C157.198 112.672 156.978 110.986 157.271 108.786C157.579 106.6 158.276 104.921 159.361 103.748C160.447 102.56 161.803 101.966 163.431 101.966ZM169.261 98.0718L169.019 99.8318C168.873 100.932 168.271 101.482 167.215 101.482H158.019L158.261 99.7218C158.408 98.6218 159.009 98.0718 160.065 98.0718H161.825L161.935 97.3678C162.053 96.5611 162.243 96.0331 162.507 95.7838C162.771 95.5198 163.336 95.3878 164.201 95.3878H167.105C166.563 95.9158 166.218 96.6784 166.071 97.6758L166.005 98.0718H169.261ZM162.947 105.134C161.979 105.134 161.327 106.358 160.989 108.808C160.652 111.242 160.967 112.46 161.935 112.46C162.918 112.46 163.578 111.235 163.915 108.786C164.253 106.351 163.93 105.134 162.947 105.134Z" fill="#FFC439"/>
<path d="M198.939 111.778L198.697 113.582C198.521 114.682 197.913 115.232 196.871 115.232H178.303L178.567 113.428C178.714 112.328 179.308 111.778 180.349 111.778H186.509L187.059 107.818H180.459L181.801 98.2918C181.889 97.6318 182.102 97.1404 182.439 96.8178C182.777 96.4804 183.297 96.3118 184.001 96.3118H199.951L199.687 98.1378C199.541 99.2378 198.939 99.7878 197.883 99.7878H186.179L185.541 104.342H199.093L198.829 106.168C198.683 107.268 198.074 107.818 197.003 107.818H191.745L191.195 111.778H198.939Z" fill="#FFC439"/>
<path d="M208.295 116.09L208.867 111.91C208.941 111.411 209.095 111.059 209.329 110.854C209.564 110.648 209.931 110.546 210.429 110.546H221.737L221.825 109.974H209.153L209.329 108.654C209.388 108.287 209.505 108.001 209.681 107.796C209.857 107.59 210.187 107.488 210.671 107.488H227.853C227.281 108.133 226.929 108.91 226.797 109.82L226.555 111.426C226.497 111.866 226.299 112.232 225.961 112.526C225.624 112.834 225.213 112.988 224.729 112.988H213.663L213.575 113.604H226.753L226.621 114.594C226.548 115.122 226.409 115.503 226.203 115.738C225.998 115.972 225.675 116.09 225.235 116.09H208.295ZM214.961 95.7618H220.021C219.743 95.9524 219.552 96.1284 219.449 96.2898C219.347 96.4511 219.273 96.6931 219.229 97.0158C219.171 97.5878 219.471 98.1598 220.131 98.7318C220.791 99.2891 221.789 99.6411 223.123 99.7878L222.749 102.34C221.356 102.442 220.036 102.259 218.789 101.79C217.557 101.306 216.78 100.558 216.457 99.5458C215.724 100.631 214.675 101.386 213.311 101.812C211.962 102.237 210.532 102.406 209.021 102.318L209.373 99.7218C210.899 99.6044 212.072 99.2231 212.893 98.5778C213.715 97.9324 214.169 97.2138 214.257 96.4218C214.287 96.1138 214.338 95.9304 214.411 95.8718C214.499 95.7984 214.683 95.7618 214.961 95.7618ZM223.079 107.158L224.377 97.9398C224.48 97.1478 224.715 96.6051 225.081 96.3118C225.448 96.0184 226.093 95.8718 227.017 95.8718H229.855C229.181 96.5024 228.763 97.3898 228.601 98.5338L227.567 105.816C227.494 106.329 227.347 106.681 227.127 106.872C226.922 107.062 226.555 107.158 226.027 107.158H223.079ZM223.189 102.78L223.035 103.836C222.962 104.408 222.793 104.811 222.529 105.046C222.28 105.266 221.884 105.376 221.341 105.376H216.963L216.875 106.014C216.817 106.454 216.663 106.754 216.413 106.916C216.164 107.077 215.797 107.158 215.313 107.158H212.145L212.387 105.376H207.547L207.701 104.32C207.775 103.748 207.936 103.352 208.185 103.132C208.449 102.897 208.853 102.78 209.395 102.78H223.189Z" fill="#FFC439"/>
<path d="M246.818 95.7618H250.866C250.236 96.2751 249.862 96.9131 249.744 97.6758L249.7 97.9838C249.612 98.6291 249.642 99.2231 249.788 99.7658C249.935 100.308 250.228 100.829 250.668 101.328C251.123 101.826 251.798 102.259 252.692 102.626C253.602 102.992 254.709 103.264 256.014 103.44L255.552 106.74C253.572 106.798 251.761 106.483 250.118 105.794C248.49 105.104 247.361 104.107 246.73 102.802C245.85 104.166 244.45 105.192 242.528 105.882C240.607 106.571 238.671 106.894 236.72 106.85L237.182 103.55C238.561 103.374 239.756 103.08 240.768 102.67C241.78 102.259 242.565 101.775 243.122 101.218C243.68 100.646 244.098 100.081 244.376 99.5238C244.67 98.9518 244.86 98.3504 244.948 97.7198L244.992 97.3018C245.066 96.7151 245.227 96.3118 245.476 96.0918C245.726 95.8718 246.173 95.7618 246.818 95.7618ZM255.882 107.752L255.596 109.666C255.45 110.766 254.848 111.316 253.792 111.316H247.83L247.456 114.11C247.354 114.872 247.104 115.43 246.708 115.782C246.327 116.134 245.689 116.31 244.794 116.31H242.462L243.144 111.316H235.532L235.796 109.402C235.943 108.302 236.552 107.752 237.622 107.752H255.882Z" fill="#FFC439"/>
<path d="M267.548 97.0818C268.854 96.0551 270.577 95.5418 272.718 95.5418C274.86 95.5418 276.429 96.0478 277.426 97.0598C278.424 98.0718 278.812 99.3698 278.592 100.954C278.372 102.538 277.617 103.85 276.326 104.892C275.036 105.918 273.32 106.432 271.178 106.432C269.052 106.432 267.482 105.918 266.47 104.892C265.458 103.85 265.062 102.538 265.282 100.954C265.502 99.3844 266.258 98.0938 267.548 97.0818ZM272.3 98.3798C271.494 98.3798 270.834 98.6144 270.32 99.0838C269.807 99.5531 269.492 100.176 269.374 100.954C269.257 101.76 269.389 102.406 269.77 102.89C270.166 103.359 270.768 103.594 271.574 103.594C272.381 103.594 273.048 103.359 273.576 102.89C274.104 102.406 274.427 101.76 274.544 100.954C274.647 100.191 274.493 99.5751 274.082 99.1058C273.672 98.6218 273.078 98.3798 272.3 98.3798ZM279.494 106.564L280.704 97.9398C280.822 97.1478 281.064 96.6051 281.43 96.3118C281.797 96.0184 282.442 95.8718 283.366 95.8718H286.182C285.493 96.5171 285.068 97.4264 284.906 98.5998L283.982 105.222C283.909 105.735 283.762 106.087 283.542 106.278C283.322 106.468 282.948 106.564 282.42 106.564H279.494ZM269.726 107.246H273.686C273.422 107.554 273.232 107.818 273.114 108.038C273.012 108.243 272.931 108.529 272.872 108.896C272.652 110.494 273.092 111.675 274.192 112.438C274.838 112.042 275.38 111.462 275.82 110.7C276.26 109.937 276.517 109.167 276.59 108.39C276.634 107.891 276.715 107.576 276.832 107.444C276.964 107.312 277.243 107.246 277.668 107.246H281.628C281.232 107.7 280.961 108.309 280.814 109.072C280.697 109.82 280.873 110.538 281.342 111.228C281.826 111.917 282.677 112.43 283.894 112.768L283.41 116.068C282.134 116.112 281.02 115.84 280.066 115.254C279.113 114.682 278.431 113.912 278.02 112.944C277.067 114.542 275.608 115.642 273.642 116.244C272.88 116.024 272.176 115.62 271.53 115.034C270.9 114.462 270.46 113.78 270.21 112.988C269.521 113.97 268.634 114.733 267.548 115.276C266.478 115.833 265.275 116.097 263.94 116.068L264.424 112.768C265.803 112.445 266.822 111.858 267.482 111.008C268.157 110.142 268.553 109.218 268.67 108.236C268.714 107.81 268.795 107.539 268.912 107.422C269.044 107.304 269.316 107.246 269.726 107.246Z" fill="#FFC439"/>
<path d="M285.967 115.87L286.605 111.316C286.693 110.67 286.891 110.216 287.199 109.952C287.507 109.688 287.991 109.556 288.651 109.556H292.237C291.724 110.04 291.409 110.744 291.291 111.668L291.159 112.614H304.865L304.689 113.846C304.499 115.195 303.743 115.87 302.423 115.87H285.967ZM287.507 104.298L288.431 97.7638C288.593 96.5758 289.333 95.9818 290.653 95.9818H294.173C293.499 96.6271 293.095 97.4338 292.963 98.4018L292.589 100.998H306.185L306.009 102.274C305.819 103.623 305.063 104.298 303.743 104.298H287.507ZM306.361 105.398L306.097 107.202C305.951 108.302 305.349 108.852 304.293 108.852H285.703L285.945 107.048C286.121 105.948 286.73 105.398 287.771 105.398H306.361Z" fill="#FFC439"/>
<path d="M332.657 112.108C332.54 112.988 332.21 113.728 331.667 114.33C331.125 114.931 330.391 115.378 329.467 115.672C328.543 115.98 327.568 116.192 326.541 116.31C325.515 116.442 324.312 116.508 322.933 116.508C321.584 116.508 320.403 116.442 319.391 116.31C318.379 116.178 317.455 115.958 316.619 115.65C315.798 115.342 315.197 114.887 314.815 114.286C314.434 113.699 314.302 112.973 314.419 112.108C314.537 111.242 314.867 110.509 315.409 109.908C315.967 109.306 316.7 108.852 317.609 108.544C318.533 108.221 319.516 107.994 320.557 107.862C321.613 107.73 322.816 107.664 324.165 107.664C325.251 107.664 326.211 107.7 327.047 107.774C327.883 107.847 328.69 107.986 329.467 108.192C330.245 108.382 330.875 108.639 331.359 108.962C331.843 109.284 332.203 109.71 332.437 110.238C332.687 110.766 332.76 111.389 332.657 112.108ZM334.769 103.924L334.549 105.552C334.403 106.652 333.794 107.202 332.723 107.202H314.133L314.375 105.574C314.522 104.474 315.123 103.924 316.179 103.924H320.843L321.173 101.614C321.261 101.012 321.386 100.638 321.547 100.492C321.723 100.33 322.083 100.25 322.625 100.25H326.057L325.529 103.924H334.769ZM329.159 103.418L329.731 99.3038H316.289L316.531 97.6318C316.678 96.5318 317.279 95.9818 318.335 95.9818H335.495C334.923 96.6124 334.564 97.4191 334.417 98.4018L333.955 101.658C333.882 102.171 333.706 102.596 333.427 102.934C333.149 103.256 332.767 103.418 332.283 103.418H329.159ZM327.003 113.098C327.722 112.892 328.118 112.555 328.191 112.086C328.265 111.616 327.971 111.279 327.311 111.074C326.651 110.868 325.463 110.766 323.747 110.766C322.017 110.766 320.792 110.868 320.073 111.074C319.355 111.279 318.959 111.616 318.885 112.086C318.812 112.555 319.105 112.892 319.765 113.098C320.44 113.303 321.643 113.406 323.373 113.406C325.089 113.406 326.299 113.303 327.003 113.098Z" fill="#FFC439"/>
<path d="M349.652 98.4018L349.432 99.9858C349.021 102.992 347.305 105.082 344.284 106.256C342.01 107.136 339.165 107.451 335.748 107.202L336.232 103.704C339.062 103.821 341.182 103.623 342.59 103.11C343.308 102.846 343.866 102.508 344.262 102.098C344.658 101.672 344.907 101.1 345.01 100.382L345.12 99.5238H337.2L337.486 97.5658C337.559 97.0084 337.735 96.6271 338.014 96.4218C338.292 96.2018 338.71 96.0918 339.268 96.0918H350.84C350.209 96.6491 349.813 97.4191 349.652 98.4018ZM336.276 115.87L337.068 110.106C337.17 109.475 337.383 109.028 337.706 108.764C338.043 108.485 338.542 108.346 339.202 108.346H342.37C341.856 108.888 341.548 109.57 341.446 110.392L341.138 112.57H354.294L354.118 113.846C353.927 115.195 353.172 115.87 351.852 115.87H336.276ZM350.048 110.37L351.786 97.9398C351.903 97.1478 352.138 96.6051 352.49 96.3118C352.856 96.0184 353.502 95.8718 354.426 95.8718H357.242C356.567 96.5171 356.149 97.4264 355.988 98.5998L355.68 100.8H357.88L357.418 104.1H355.218L354.624 108.302C354.506 109.094 354.264 109.636 353.898 109.93C353.546 110.223 352.908 110.37 351.984 110.37H350.048Z" fill="#FFC439"/>
<g clip-path="url(#clip0_1154_1536)">
<path d="M74.2176 181.194C81.926 180.808 88.4829 174.932 88.1923 167.219C87.9478 160.728 83.3702 154.526 77.4425 154.526C73.7138 154.526 71.2011 151.099 73.7023 148.333C76.5456 145.19 78.7565 143.416 82.7047 141.38C84.2031 140.607 85.3874 140.765 86.6682 139.669C88.5137 138.089 87.0849 134.556 84.6559 134.526C84.6403 134.526 84.6247 134.526 84.609 134.526C73.2771 134.526 63.6745 150.193 60.576 155.852C59.8495 157.178 59.3357 158.597 59.0905 160.09C58.6197 162.956 58.1115 167.95 59.5261 171.194C62.3005 177.555 67.2858 181.541 74.2176 181.194Z" fill="#03594E"/>
<path fill-rule="evenodd" clip-rule="evenodd" d="M92.1895 167.068C92.5791 177.41 83.8451 184.717 74.4174 185.189C65.4342 185.638 59.1281 180.287 55.8596 172.793C54.8243 170.418 54.5913 167.706 54.6013 165.482C54.6117 163.184 54.8886 160.993 55.1434 159.442C55.4685 157.462 56.1448 155.616 57.0675 153.931C58.6802 150.986 62.0324 145.34 66.5454 140.376C70.9086 135.577 77.1587 130.526 84.609 130.526C84.6411 130.526 84.6731 130.526 84.7047 130.526C87.9997 130.567 90.1444 132.926 90.9832 135.041C91.8242 137.162 91.8912 140.463 89.2693 142.707C88.0191 143.778 86.7951 144.212 85.9235 144.475C85.6828 144.548 85.4952 144.602 85.3436 144.647C84.9219 144.769 84.7775 144.811 84.5381 144.935C81.2625 146.624 79.447 148.021 77.1396 150.503C77.2303 150.517 77.3313 150.526 77.4425 150.526C81.8908 150.526 85.5746 152.861 88.055 155.919C90.528 158.967 92.0353 162.976 92.1895 167.068ZM88.1923 167.219C88.4829 174.932 81.926 180.808 74.2176 181.194C67.2858 181.541 62.3005 177.555 59.5261 171.194C58.1115 167.95 58.6197 162.956 59.0905 160.09C59.3357 158.597 59.8495 157.178 60.576 155.852C63.6745 150.193 73.2771 134.526 84.609 134.526L84.6559 134.526C87.0849 134.556 88.5137 138.089 86.6682 139.669C85.9081 140.319 85.1821 140.528 84.4042 140.752C83.8712 140.905 83.3139 141.066 82.7047 141.38C78.7565 143.416 76.5456 145.19 73.7023 148.333C71.2011 151.099 73.7138 154.526 77.4425 154.526C83.3702 154.526 87.9478 160.728 88.1923 167.219Z" fill="#03594E" fill-opacity="0.3"/>
<path d="M33.6165 181.194C41.3249 180.808 47.8819 174.932 47.5913 167.219C47.3467 160.728 42.7692 154.526 36.8415 154.526C33.1128 154.526 30.6001 151.099 33.1013 148.333C35.9446 145.19 38.1555 143.416 42.1037 141.38C43.6021 140.607 44.7864 140.765 46.0672 139.669C47.9127 138.089 46.4839 134.556 44.0549 134.526C44.0393 134.526 44.0237 134.526 44.008 134.526C32.6761 134.526 23.0735 150.193 19.975 155.852C19.2485 157.178 18.7347 158.597 18.4895 160.09C18.0187 162.956 17.5105 167.95 18.9251 171.194C21.6995 177.555 26.6848 181.541 33.6165 181.194Z" fill="#03594E"/>
<path fill-rule="evenodd" clip-rule="evenodd" d="M51.5885 167.068C51.9781 177.41 43.2441 184.717 33.8164 185.189C24.8332 185.638 18.5271 180.287 15.2586 172.793C14.2233 170.418 13.9903 167.706 14.0003 165.482C14.0107 163.184 14.2876 160.993 14.5424 159.442C14.8675 157.462 15.5438 155.616 16.4665 153.931C18.0792 150.986 21.4314 145.34 25.9444 140.376C30.3076 135.577 36.5577 130.526 44.008 130.526C44.0401 130.526 44.072 130.526 44.1037 130.526C47.3987 130.567 49.5433 132.926 50.3822 135.041C51.2232 137.162 51.2902 140.463 48.6683 142.707C47.4181 143.778 46.1941 144.212 45.3225 144.475C45.0818 144.548 44.8942 144.602 44.7425 144.647C44.3209 144.769 44.1765 144.811 43.9371 144.935C40.6615 146.624 38.8459 148.021 36.5386 150.503C36.6293 150.517 36.7303 150.526 36.8415 150.526C41.2898 150.526 44.9736 152.861 47.454 155.919C49.927 158.967 51.4343 162.976 51.5885 167.068ZM47.5913 167.219C47.8819 174.932 41.3249 180.808 33.6165 181.194C26.6848 181.541 21.6995 177.555 18.9251 171.194C17.5105 167.95 18.0187 162.956 18.4895 160.09C18.7347 158.597 19.2485 157.178 19.975 155.852C23.0735 150.193 32.6761 134.526 44.008 134.526L44.0549 134.526C46.4839 134.556 47.9127 138.089 46.0672 139.669C45.3071 140.319 44.5811 140.528 43.8031 140.752C43.2702 140.905 42.7129 141.066 42.1037 141.38C38.1555 143.416 35.9446 145.19 33.1013 148.333C30.6001 151.099 33.1128 154.526 36.8415 154.526C42.7692 154.526 47.3467 160.728 47.5913 167.219Z" fill="#03594E" fill-opacity="0.3"/>
<path d="M128.96 206.694L131.408 189.414C131.792 186.774 132.584 184.95 133.784 183.942C134.984 182.886 137.096 182.358 140.12 182.358H192.536C190.664 184.23 189.416 187.158 188.792 191.142L187.568 199.926C187.232 202.47 186.536 204.222 185.48 205.182C184.424 206.19 182.432 206.694 179.504 206.694H128.96ZM150.776 140.526H167.336C165.752 141.63 164.864 143.166 164.672 145.134C164.432 147.102 165.368 149.022 167.48 150.894C169.592 152.718 172.88 153.966 177.344 154.638L175.976 163.926C171.848 164.406 167.744 163.854 163.664 162.27C159.584 160.686 156.92 158.214 155.672 154.854C153.416 158.406 149.936 160.926 145.232 162.414C140.576 163.854 135.824 164.382 130.976 163.998L132.344 154.566C137.624 153.894 141.536 152.526 144.08 150.462C146.624 148.35 148.064 145.878 148.4 143.046C148.496 141.99 148.688 141.318 148.976 141.03C149.312 140.694 149.912 140.526 150.776 140.526ZM177.416 165.078L176.768 169.686C176.528 171.558 175.976 172.878 175.112 173.646C174.296 174.366 173 174.726 171.224 174.726H156.896L156.536 177.39C156.344 178.83 155.84 179.814 155.024 180.342C154.208 180.87 153.008 181.134 151.424 181.134H141.056L141.92 174.726H126.08L126.728 170.118C127.016 168.246 127.568 166.95 128.384 166.23C129.2 165.462 130.496 165.078 132.272 165.078H177.416ZM176.84 181.206L181.52 147.654C181.904 145.062 182.672 143.286 183.824 142.326C185.024 141.366 187.136 140.886 190.16 140.886H199.448C197.288 142.95 195.92 145.854 195.344 149.598L191.528 176.814C191.288 178.494 190.808 179.646 190.088 180.27C189.416 180.894 188.216 181.206 186.488 181.206H176.84ZM146.6 191.286L145.664 197.766H172.376L173.312 191.286H146.6Z" fill="#03594E"/>
<path d="M261.816 192.942L261.024 198.846C260.448 202.446 258.456 204.246 255.048 204.246H194.28L195.144 198.342C195.624 194.742 197.568 192.942 200.976 192.942H209.472L211.2 180.414H199.824L200.544 174.87C201.12 171.27 203.112 169.47 206.52 169.47H212.064L214.296 153.27H204.432L205.152 147.726C205.728 144.126 207.72 142.326 211.128 142.326H265.92L265.128 147.87C264.648 151.47 262.68 153.27 259.224 153.27H254.472L252.24 169.47H262.896L262.104 175.014C261.624 178.614 259.656 180.414 256.2 180.414H249.864L248.136 192.942H261.816ZM229.056 153.27L226.824 169.47H237.48L239.712 153.27H229.056ZM226.104 180.414L224.376 192.942H233.232L234.96 180.414H226.104Z" fill="#03594E"/>
<path fill-rule="evenodd" clip-rule="evenodd" d="M121.409 213.25C119.51 211.063 118.652 208.159 119.058 205.291L121.506 188.011L121.512 187.974C121.686 186.776 121.955 185.421 122.396 184.023C120.924 183.439 119.595 182.508 118.532 181.286C116.633 179.101 115.774 176.2 116.177 173.333L116.825 168.725C116.831 168.682 116.837 168.64 116.844 168.597C117.243 166 118.269 161.914 121.615 158.868L122.447 153.13C123.092 148.684 126.624 145.213 131.081 144.646C135.453 144.089 137.241 143.112 137.746 142.722C138.214 142.325 138.382 142.067 138.427 141.99C138.449 141.953 138.457 141.934 138.463 141.91C138.547 141.081 138.697 140.063 139 139.003C139.271 138.054 139.982 135.881 141.904 133.959C145.158 130.705 149.232 130.526 150.776 130.526H167.336C171.08 130.526 174.453 132.609 176.164 135.828C176.55 135.417 176.969 135.021 177.422 134.644C177.473 134.601 177.525 134.559 177.577 134.517C181.6 131.298 186.732 130.886 190.16 130.886H199.448C201.806 130.886 204.027 131.714 205.777 133.143C207.585 132.557 209.415 132.326 211.128 132.326H265.92C268.819 132.326 271.576 133.584 273.475 135.774C275.374 137.964 276.23 140.87 275.82 143.74L275.034 149.245C274.588 152.519 273.278 156.338 270.042 159.299C269.383 159.901 268.697 160.42 267.993 160.866C268.908 161.408 269.739 162.097 270.451 162.918C272.35 165.108 273.206 168.014 272.796 170.884L272.01 176.389C271.623 179.234 270.583 182.491 268.193 185.238C268.603 185.578 268.988 185.951 269.343 186.358C271.242 188.528 272.111 191.413 271.728 194.271L270.936 200.175C270.924 200.259 270.912 200.342 270.899 200.426C270.379 203.675 269.008 207.419 265.803 210.315C262.514 213.287 258.539 214.246 255.048 214.246H194.28C193.11 214.246 191.962 214.041 190.885 213.652C187.038 216.386 182.39 216.694 179.504 216.694H128.96C126.063 216.694 123.308 215.438 121.409 213.25ZM184.416 205.889C184.839 205.69 185.194 205.455 185.48 205.182C186.007 204.702 186.445 204.025 186.793 203.15C187.141 202.274 187.399 201.199 187.568 199.926L188.792 191.142C188.794 191.123 188.797 191.105 188.8 191.086C189.01 189.765 189.288 188.561 189.635 187.473C189.962 186.451 190.349 185.532 190.797 184.716C191.213 183.958 191.681 183.29 192.202 182.71C192.227 182.682 192.252 182.655 192.277 182.627C192.362 182.535 192.448 182.445 192.536 182.358H140.12C137.096 182.358 134.984 182.886 133.784 183.942C133.519 184.164 133.275 184.425 133.051 184.726C132.777 185.092 132.534 185.516 132.319 185.999C131.908 186.923 131.604 188.061 131.408 189.414L128.96 206.694H179.504C181.639 206.694 183.277 206.426 184.416 205.889ZM146.6 191.286L145.664 197.766H172.376L173.312 191.286H146.6ZM141.056 181.134L141.92 174.726H126.08L126.728 170.118C127.016 168.246 127.568 166.95 128.384 166.23C128.969 165.678 129.802 165.325 130.883 165.169C131.307 165.108 131.77 165.078 132.272 165.078H177.416L176.768 169.686C176.747 169.845 176.724 170 176.7 170.152C176.557 171.018 176.34 171.753 176.049 172.358C175.793 172.888 175.481 173.317 175.112 173.646C174.934 173.802 174.734 173.942 174.511 174.065C173.709 174.505 172.613 174.726 171.224 174.726H156.896L156.536 177.39C156.344 178.83 155.84 179.814 155.024 180.342C154.208 180.87 153.008 181.134 151.424 181.134H141.056ZM176.84 181.206L181.52 147.654C181.623 146.957 181.754 146.319 181.913 145.74C182.344 144.166 182.981 143.028 183.824 142.326C184.624 141.686 185.83 141.259 187.441 141.046C188.246 140.939 189.152 140.886 190.16 140.886H199.448C197.974 142.294 196.869 144.093 196.133 146.283C196.104 146.369 196.075 146.456 196.047 146.543C195.746 147.49 195.511 148.508 195.344 149.598L191.528 176.814C191.385 177.811 191.158 178.623 190.846 179.248C190.679 179.583 190.487 179.865 190.271 180.094C190.212 180.156 190.151 180.215 190.088 180.27C190.007 180.344 189.92 180.414 189.825 180.48C189.193 180.915 188.231 181.154 186.937 181.198C186.792 181.203 186.642 181.206 186.488 181.206H176.84ZM198.585 193.318C197.985 193.534 197.461 193.843 197.013 194.246C196.011 195.145 195.389 196.511 195.144 198.342L194.28 204.246H255.048C256.723 204.246 258.056 203.811 259.047 202.942C260.072 202.042 260.731 200.677 261.024 198.846L261.816 192.942H248.136L249.864 180.414H256.2C257.645 180.414 258.83 180.099 259.755 179.47C261.042 178.594 261.825 177.109 262.104 175.014L262.896 169.47H252.24L254.472 153.27H259.224C260.669 153.27 261.854 152.955 262.779 152.326C264.066 151.45 264.849 149.965 265.128 147.87L265.92 142.326H211.128C210.47 142.326 209.865 142.393 209.312 142.527C208.668 142.684 208.097 142.931 207.596 143.27C206.456 144.041 205.689 145.286 205.293 147.003C205.239 147.235 205.192 147.476 205.152 147.726L204.432 153.27H214.296L212.064 169.47H206.52C205.096 169.47 203.918 169.784 202.988 170.414C202.804 170.538 202.63 170.675 202.465 170.825C201.472 171.725 200.832 173.073 200.544 174.87L199.824 180.414H211.2L209.472 192.942H200.976C200.077 192.942 199.28 193.067 198.585 193.318ZM237.48 169.47L239.712 153.27H229.056L226.824 169.47H237.48ZM224.376 192.942L226.104 180.414H234.96L233.232 192.942H224.376ZM167.48 150.894C167.341 150.771 167.208 150.649 167.08 150.526C165.25 148.77 164.447 146.973 164.672 145.134C164.864 143.166 165.752 141.63 167.336 140.526H150.776C149.912 140.526 149.312 140.694 148.976 141.03C148.688 141.318 148.496 141.99 148.4 143.046C148.064 145.878 146.624 148.35 144.08 150.462C142.034 152.121 139.105 153.331 135.292 154.09C134.362 154.275 133.379 154.434 132.344 154.566L130.976 163.998C131.408 164.032 131.84 164.059 132.272 164.079C132.701 164.098 133.131 164.111 133.559 164.116C134.549 164.128 135.536 164.102 136.518 164.037C138.076 163.933 139.624 163.733 141.162 163.435C142.526 163.171 143.883 162.831 145.232 162.414C146.115 162.134 146.956 161.818 147.753 161.466C151.11 159.982 153.701 157.853 155.527 155.078C155.576 155.004 155.624 154.929 155.672 154.854C155.699 154.929 155.728 155.004 155.757 155.078C156.956 158.114 159.339 160.407 162.906 161.958C163.153 162.066 163.405 162.17 163.664 162.27C165.495 162.981 167.332 163.484 169.174 163.779C170.579 164.004 171.987 164.109 173.398 164.091C174.246 164.081 175.095 164.027 175.945 163.929C175.955 163.928 175.965 163.927 175.976 163.926L177.343 154.638C176.464 154.506 175.63 154.351 174.842 154.173C174.656 154.132 174.473 154.089 174.293 154.045C172.955 153.717 171.757 153.322 170.697 152.858C169.424 152.302 168.352 151.647 167.48 150.894Z" fill="#02352F" fill-opacity="0.2"/>
<path d="M317.782 134.547C310.074 134.933 303.517 140.809 303.808 148.522C304.052 155.013 308.63 161.215 314.557 161.215C318.286 161.215 320.799 164.642 318.298 167.408C315.454 170.551 313.243 172.325 309.295 174.361C307.797 175.134 306.613 174.976 305.332 176.072C303.486 177.652 304.915 181.185 307.344 181.215C307.36 181.215 307.375 181.215 307.391 181.215C318.723 181.215 328.325 165.548 331.424 159.889C332.15 158.562 332.664 157.144 332.909 155.651C333.38 152.785 333.888 147.791 332.474 144.547C329.699 138.186 324.714 134.2 317.782 134.547Z" fill="#03594E"/>
<path fill-rule="evenodd" clip-rule="evenodd" d="M299.811 148.672C299.421 138.331 308.155 131.024 317.583 130.552C326.566 130.103 332.872 135.454 336.14 142.948C337.176 145.322 337.409 148.035 337.399 150.259C337.388 152.557 337.111 154.748 336.857 156.299C336.531 158.279 335.855 160.125 334.932 161.81C333.32 164.755 329.968 170.401 325.455 175.365C321.091 180.164 314.841 185.215 307.391 185.215C307.359 185.215 307.327 185.215 307.295 185.215C304 185.174 301.856 182.815 301.017 180.7C300.176 178.579 300.109 175.278 302.731 173.033C303.981 171.963 305.205 171.529 306.076 171.266C306.317 171.193 306.505 171.139 306.656 171.094C307.078 170.972 307.222 170.929 307.462 170.806C310.737 169.117 312.553 167.72 314.86 165.238C314.77 165.223 314.669 165.215 314.557 165.215C310.109 165.215 306.425 162.88 303.945 159.822C301.472 156.774 299.965 152.765 299.811 148.672ZM303.808 148.522C303.517 140.809 310.074 134.933 317.782 134.547C324.714 134.2 329.699 138.186 332.474 144.547C333.888 147.791 333.38 152.785 332.909 155.651C332.664 157.144 332.15 158.562 331.424 159.889C328.325 165.548 318.723 181.215 307.391 181.215L307.344 181.215C304.915 181.185 303.486 177.652 305.332 176.072C306.092 175.422 306.818 175.213 307.596 174.989C308.129 174.836 308.686 174.675 309.295 174.361C313.243 172.325 315.454 170.551 318.298 167.408C320.799 164.642 318.286 161.215 314.557 161.215C308.63 161.215 304.052 155.013 303.808 148.522Z" fill="#03594E" fill-opacity="0.3"/>
<path d="M358.383 134.547C350.675 134.933 344.118 140.809 344.409 148.522C344.653 155.013 349.231 161.215 355.158 161.215C358.887 161.215 361.4 164.642 358.899 167.408C356.055 170.551 353.844 172.325 349.896 174.361C348.398 175.134 347.214 174.976 345.933 176.072C344.087 177.652 345.516 181.185 347.945 181.215C347.961 181.215 347.976 181.215 347.992 181.215C359.324 181.215 368.926 165.548 372.025 159.889C372.751 158.562 373.265 157.144 373.51 155.651C373.981 152.785 374.489 147.791 373.075 144.547C370.3 138.186 365.315 134.2 358.383 134.547Z" fill="#03594E"/>
<path fill-rule="evenodd" clip-rule="evenodd" d="M340.412 148.672C340.022 138.331 348.756 131.024 358.184 130.552C367.167 130.103 373.473 135.454 376.741 142.948C377.777 145.322 378.01 148.035 378 150.259C377.989 152.557 377.712 154.748 377.458 156.299C377.132 158.279 376.456 160.125 375.533 161.81C373.921 164.755 370.569 170.401 366.056 175.365C361.692 180.164 355.442 185.215 347.992 185.215C347.96 185.215 347.928 185.215 347.896 185.215C344.601 185.174 342.457 182.815 341.618 180.7C340.777 178.579 340.71 175.278 343.332 173.033C344.582 171.963 345.806 171.529 346.677 171.266C346.918 171.193 347.106 171.139 347.257 171.094C347.679 170.972 347.824 170.929 348.063 170.806C351.338 169.117 353.154 167.72 355.461 165.238C355.371 165.223 355.27 165.215 355.158 165.215C350.71 165.215 347.026 162.88 344.546 159.822C342.073 156.774 340.566 152.765 340.412 148.672ZM344.409 148.522C344.118 140.809 350.675 134.933 358.383 134.547C365.315 134.2 370.3 138.186 373.075 144.547C374.489 147.791 373.981 152.785 373.51 155.651C373.265 157.144 372.751 158.562 372.025 159.889C368.926 165.548 359.324 181.215 347.992 181.215L347.945 181.215C345.516 181.185 344.087 177.652 345.933 176.072C346.693 175.422 347.419 175.213 348.197 174.989C348.73 174.836 349.287 174.675 349.896 174.361C353.844 172.325 356.055 170.551 358.899 167.408C361.4 164.642 358.887 161.215 355.158 161.215C349.231 161.215 344.653 155.013 344.409 148.522Z" fill="#03594E" fill-opacity="0.3"/>
</g>
<path d="M156.453 255.784C155.793 256.464 155.343 257.444 155.103 258.724H166.953L166.983 258.664C167.123 257.584 167.443 256.834 167.943 256.414C168.443 255.994 169.323 255.784 170.583 255.784H174.273C173.453 256.624 172.933 257.864 172.713 259.504L171.813 265.744C171.673 266.804 171.383 267.534 170.943 267.934C170.503 268.354 169.673 268.564 168.453 268.564H147.843L149.253 258.604C149.413 257.524 149.733 256.784 150.213 256.384C150.713 255.984 151.593 255.784 152.853 255.784H156.453ZM158.433 240.694C161.373 240.694 163.523 241.354 164.883 242.674C166.243 243.994 166.773 245.724 166.473 247.864C166.173 250.004 165.143 251.754 163.383 253.114C161.643 254.454 159.313 255.124 156.393 255.124C153.473 255.124 151.323 254.454 149.943 253.114C148.563 251.754 148.023 250.004 148.323 247.864C148.623 245.744 149.653 244.024 151.413 242.704C153.173 241.364 155.513 240.694 158.433 240.694ZM167.823 254.824L169.323 243.964C169.483 242.884 169.813 242.144 170.313 241.744C170.813 241.344 171.693 241.144 172.953 241.144H176.793C175.853 242.024 175.273 243.264 175.053 244.864L173.913 252.994C173.813 253.694 173.613 254.174 173.313 254.434C173.033 254.694 172.533 254.824 171.813 254.824H167.823ZM157.893 244.564C156.773 244.564 155.863 244.854 155.163 245.434C154.463 246.014 154.043 246.824 153.903 247.864C153.763 248.964 153.953 249.804 154.473 250.384C154.993 250.964 155.813 251.254 156.933 251.254C158.033 251.254 158.943 250.964 159.663 250.384C160.383 249.784 160.813 248.944 160.953 247.864C161.093 246.824 160.883 246.014 160.323 245.434C159.783 244.854 158.973 244.564 157.893 244.564ZM154.233 264.664H166.113L166.383 262.684H154.503L154.233 264.664Z" fill="#03594E"/>
<path d="M179.56 244.564C179.72 243.484 180.04 242.744 180.52 242.344C181.02 241.944 181.9 241.744 183.16 241.744H187.06C186.14 242.604 185.57 243.844 185.35 245.464L182.95 262.564H194.92L194.62 264.604C194.36 266.444 193.33 267.364 191.53 267.364H176.35L179.56 244.564ZM195.46 268.714L198.94 243.964C199.1 242.884 199.42 242.144 199.9 241.744C200.4 241.344 201.28 241.144 202.54 241.144H206.38C205.46 242.004 204.89 243.244 204.67 244.864L201.7 265.894C201.54 266.974 201.21 267.714 200.71 268.114C200.23 268.514 199.36 268.714 198.1 268.714H195.46Z" fill="#03594E"/>
<path d="M206.057 267.514L209.297 244.444C209.417 243.544 209.697 242.874 210.137 242.434C210.597 241.974 211.307 241.744 212.267 241.744H226.937C226.357 242.344 225.997 243.114 225.857 244.054L225.737 244.984C225.617 245.904 225.087 246.364 224.147 246.364H214.817L212.477 262.894H224.177L223.907 264.754C223.667 266.594 222.647 267.514 220.847 267.514H206.057ZM224.627 268.714L228.107 243.964C228.267 242.884 228.587 242.144 229.067 241.744C229.567 241.344 230.447 241.144 231.707 241.144H235.487C234.567 242.004 233.997 243.244 233.777 244.864L232.847 251.434H235.997L235.307 256.384H232.157L230.807 265.894C230.647 266.974 230.317 267.714 229.817 268.114C229.337 268.514 228.467 268.714 227.207 268.714H224.627Z" fill="#03594E"/>
<path d="M236.957 264.964L237.617 260.434C237.677 259.954 237.777 259.644 237.917 259.504C238.057 259.364 238.337 259.294 238.757 259.294H244.157L243.737 262.174C243.497 263.994 242.987 265.524 242.207 266.764C241.087 268.484 240.127 269.614 239.327 270.154L237.047 269.254C237.607 268.734 238.137 268.014 238.637 267.094C239.137 266.174 239.417 265.464 239.477 264.964H236.957Z" fill="#03594E"/>
<path d="M94.5099 304.966L95.2139 299.95H92.4419C91.0632 302.883 88.9732 304.35 86.1719 304.35C84.0159 304.35 82.5272 303.499 81.7059 301.798C80.8845 300.096 80.7012 297.669 81.1559 294.516C81.5959 291.377 82.4612 288.964 83.7519 287.278C85.0425 285.591 86.7659 284.748 88.9219 284.748C91.6352 284.748 93.2999 286.104 93.9159 288.818H96.7759L97.0619 286.816C97.1792 286.024 97.4139 285.481 97.7659 285.188C98.1325 284.894 98.7779 284.748 99.7019 284.748H102.474C101.799 285.378 101.381 286.288 101.22 287.476L99.0419 302.898C98.9245 303.69 98.6825 304.232 98.3159 304.526C97.9639 304.819 97.3259 304.966 96.4019 304.966H94.5099ZM88.4599 288.048C87.7119 288.048 87.0812 288.561 86.5679 289.588C86.0692 290.6 85.6659 292.242 85.3579 294.516C85.0352 296.848 84.9765 298.52 85.1819 299.532C85.4019 300.544 85.8859 301.05 86.6339 301.05C87.3819 301.05 88.0125 300.536 88.5259 299.51C89.0392 298.468 89.4572 296.804 89.7799 294.516C90.3665 290.204 89.9265 288.048 88.4599 288.048ZM93.9379 294.516C93.8645 295.014 93.7619 295.579 93.6299 296.21H95.7419L96.2479 292.558H94.1359C94.0919 293.159 94.0259 293.812 93.9379 294.516Z" fill="#03594E"/>
<path d="M115.943 304.966L118.495 286.816C118.612 286.024 118.847 285.481 119.199 285.188C119.566 284.894 120.211 284.748 121.135 284.748H124.039C123.364 285.378 122.946 286.288 122.785 287.476L120.607 302.898C120.49 303.69 120.248 304.232 119.881 304.526C119.529 304.819 118.891 304.966 117.967 304.966H115.943ZM116.053 287.608L115.437 291.986C115.261 293.188 114.968 294.347 114.557 295.462C114.146 296.562 113.56 297.64 112.797 298.696C112.034 299.737 111.132 300.646 110.091 301.424C109.064 302.201 107.81 302.839 106.329 303.338C104.848 303.851 103.22 304.137 101.445 304.196L101.907 300.786C103.374 300.668 104.672 300.36 105.801 299.862C106.945 299.363 107.862 298.725 108.551 297.948C109.24 297.17 109.776 296.349 110.157 295.484C110.553 294.618 110.824 293.68 110.971 292.668L111.543 288.598H103.733L103.997 286.838C104.144 285.738 104.745 285.188 105.801 285.188H117.153C116.552 285.716 116.185 286.522 116.053 287.608Z" fill="#03594E"/>
<path d="M123.939 304.746L124.577 300.192C124.665 299.546 124.863 299.092 125.171 298.828C125.479 298.564 125.963 298.432 126.623 298.432H130.209C129.696 298.916 129.381 299.62 129.263 300.544L129.131 301.49H142.837L142.661 302.722C142.471 304.071 141.715 304.746 140.395 304.746H123.939ZM125.479 293.174L126.403 286.64C126.565 285.452 127.305 284.858 128.625 284.858H132.145C131.471 285.503 131.067 286.31 130.935 287.278L130.561 289.874H144.157L143.981 291.15C143.791 292.499 143.035 293.174 141.715 293.174H125.479ZM144.333 294.274L144.069 296.078C143.923 297.178 143.321 297.728 142.265 297.728H123.675L123.917 295.924C124.093 294.824 124.702 294.274 125.743 294.274H144.333Z" fill="#03594E"/>
<path d="M153.711 288.708L153.975 286.728C154.049 286.17 154.21 285.774 154.459 285.54C154.723 285.305 155.127 285.188 155.669 285.188H167.703C167.293 285.613 167.029 286.214 166.911 286.992L166.801 287.696C166.713 288.37 166.325 288.708 165.635 288.708H162.379L161.961 291.634C161.829 292.25 161.8 292.961 161.873 293.768C161.947 294.574 162.086 295.352 162.291 296.1C162.497 296.848 162.885 297.581 163.457 298.3C164.029 299.018 164.741 299.59 165.591 300.016L165.019 303.998C163.538 303.69 162.233 303 161.103 301.93C159.989 300.859 159.27 299.656 158.947 298.322C158.507 299.29 157.774 300.221 156.747 301.116C155.735 302.01 154.701 302.722 153.645 303.25C152.589 303.792 151.636 304.144 150.785 304.306L151.357 300.302C152.237 299.906 153.029 299.407 153.733 298.806C154.437 298.204 155.002 297.603 155.427 297.002C155.867 296.386 156.241 295.726 156.549 295.022C156.872 294.318 157.099 293.702 157.231 293.174C157.378 292.646 157.488 292.125 157.561 291.612L157.979 288.708H153.711ZM165.987 304.966L168.539 286.816C168.657 286.024 168.891 285.481 169.243 285.188C169.61 284.894 170.255 284.748 171.179 284.748H173.995C173.321 285.378 172.903 286.288 172.741 287.476L170.563 302.898C170.446 303.69 170.204 304.232 169.837 304.526C169.485 304.819 168.847 304.966 167.923 304.966H165.987Z" fill="#03594E"/>
<path d="M183.505 284.418H188.961C188.682 284.638 188.498 284.843 188.41 285.034C188.323 285.224 188.257 285.474 188.213 285.782C188.11 286.632 188.653 287.432 189.84 288.18C191.029 288.913 192.612 289.324 194.592 289.412L194.109 292.844C192.774 292.917 191.476 292.814 190.215 292.536C188.968 292.257 187.897 291.832 187.003 291.26L186.651 293.724H194.351L194.087 295.572C193.94 296.672 193.339 297.222 192.283 297.222H173.693L173.935 295.374C174.111 294.274 174.719 293.724 175.76 293.724H181.877L182.229 291.238C179.984 292.411 177.469 292.932 174.683 292.8L175.167 289.412C177.264 289.309 179.009 288.884 180.403 288.136C181.796 287.388 182.573 286.42 182.735 285.232C182.793 284.88 182.867 284.66 182.954 284.572C183.042 284.469 183.226 284.418 183.505 284.418ZM173.979 301.226L174.176 299.862C174.279 299.158 174.492 298.666 174.814 298.388C175.137 298.109 175.68 297.97 176.443 297.97H193.295C193.075 298.234 192.862 298.593 192.657 299.048C192.466 299.488 192.349 299.862 192.305 300.17L191.887 303.162C191.784 303.822 191.549 304.306 191.183 304.614C190.831 304.922 190.317 305.076 189.643 305.076H186.915L187.443 301.226H173.979ZM184.979 289.082C184.333 289.83 183.585 290.453 182.735 290.952H186.562C185.814 290.394 185.286 289.771 184.979 289.082Z" fill="#03594E"/>
<path d="M209.035 287.608L208.419 291.986C208.243 293.188 207.949 294.347 207.539 295.462C207.143 296.562 206.563 297.64 205.801 298.696C205.053 299.737 204.165 300.646 203.139 301.424C202.127 302.201 200.88 302.839 199.399 303.338C197.932 303.851 196.311 304.137 194.537 304.196L194.999 300.786C196.465 300.668 197.763 300.36 198.893 299.862C200.022 299.363 200.924 298.725 201.599 297.948C202.273 297.17 202.794 296.349 203.161 295.484C203.542 294.618 203.806 293.68 203.953 292.668L204.525 288.598H196.825L197.089 286.838C197.235 285.738 197.837 285.188 198.893 285.188H210.135C209.533 285.716 209.167 286.522 209.035 287.608ZM208.639 304.966L211.191 286.816C211.308 286.024 211.543 285.481 211.895 285.188C212.261 284.894 212.907 284.748 213.831 284.748H216.691C216.016 285.378 215.598 286.288 215.437 287.476L214.755 292.294H217.065L216.559 295.924H214.249L213.259 302.898C213.141 303.69 212.899 304.232 212.533 304.526C212.181 304.819 211.543 304.966 210.619 304.966H208.639Z" fill="#03594E"/>
<path d="M235.77 301.182C235.653 302.032 235.323 302.744 234.78 303.316C234.237 303.902 233.497 304.335 232.558 304.614C231.634 304.907 230.659 305.105 229.632 305.208C228.62 305.325 227.425 305.384 226.046 305.384C224.682 305.384 223.494 305.325 222.482 305.208C221.485 305.09 220.568 304.885 219.732 304.592C218.896 304.298 218.28 303.866 217.884 303.294C217.503 302.722 217.371 302.018 217.488 301.182C217.605 300.346 217.935 299.642 218.478 299.07C219.021 298.483 219.754 298.043 220.678 297.75C221.617 297.456 222.599 297.251 223.626 297.134C224.667 297.002 225.87 296.936 227.234 296.936C228.319 296.936 229.28 296.972 230.116 297.046C230.952 297.104 231.759 297.229 232.536 297.42C233.328 297.596 233.966 297.838 234.45 298.146C234.934 298.454 235.301 298.864 235.55 299.378C235.799 299.891 235.873 300.492 235.77 301.182ZM230.138 302.084C230.842 301.908 231.231 301.6 231.304 301.16C231.377 300.72 231.084 300.412 230.424 300.236C229.764 300.06 228.561 299.972 226.816 299.972C225.056 299.972 223.824 300.06 223.12 300.236C222.416 300.412 222.027 300.72 221.954 301.16C221.895 301.614 222.189 301.922 222.834 302.084C223.479 302.26 224.689 302.348 226.464 302.348C228.209 302.348 229.434 302.26 230.138 302.084ZM218.918 292.514L219.754 286.64C219.915 285.452 220.656 284.858 221.976 284.858H225.496C224.821 285.503 224.418 286.31 224.286 287.278L224 289.324H237.596L237.42 290.49C237.229 291.839 236.474 292.514 235.154 292.514H218.918ZM237.838 293.218L237.596 294.846C237.449 295.946 236.848 296.496 235.792 296.496H217.202L217.422 294.868C217.569 293.768 218.177 293.218 219.248 293.218H237.838Z" fill="#03594E"/>
<path d="M254.238 286.354L253.996 288.18C253.908 288.752 253.74 289.155 253.49 289.39C253.241 289.61 252.845 289.72 252.302 289.72H251.884C252.295 290.512 252.434 291.37 252.302 292.294C252.097 293.804 251.356 295.022 250.08 295.946C248.819 296.87 247.294 297.332 245.504 297.332C243.686 297.332 242.278 296.87 241.28 295.946C240.283 295.022 239.887 293.804 240.092 292.294C240.224 291.384 240.598 290.526 241.214 289.72H239.234L239.476 287.894C239.564 287.322 239.74 286.926 240.004 286.706C240.268 286.471 240.672 286.354 241.214 286.354H244.47L244.602 285.452C244.676 284.924 244.837 284.579 245.086 284.418C245.35 284.242 245.783 284.154 246.384 284.154H250.19C249.56 284.652 249.186 285.334 249.068 286.2L249.046 286.354H254.238ZM239.344 304.746L240.048 299.62C240.151 298.989 240.364 298.542 240.686 298.278C241.024 297.999 241.522 297.86 242.182 297.86H245.35C244.837 298.402 244.529 299.084 244.426 299.906L244.206 301.446H257.362L257.186 302.722C256.996 304.071 256.24 304.746 254.92 304.746H239.344ZM253.072 299.466L254.854 286.816C254.972 286.024 255.206 285.481 255.558 285.188C255.925 284.894 256.57 284.748 257.494 284.748H260.31C259.636 285.393 259.218 286.302 259.056 287.476L258.682 290.182H260.882L260.42 293.482H258.22L257.67 297.398C257.553 298.19 257.311 298.732 256.944 299.026C256.578 299.319 255.932 299.466 255.008 299.466H253.072ZM246.538 289.896C245.834 289.896 245.255 290.108 244.8 290.534C244.36 290.944 244.096 291.472 244.008 292.118C243.92 292.719 244.038 293.232 244.36 293.658C244.698 294.068 245.218 294.274 245.922 294.274C246.626 294.274 247.198 294.068 247.638 293.658C248.093 293.232 248.364 292.712 248.452 292.096C248.54 291.465 248.423 290.944 248.1 290.534C247.778 290.108 247.257 289.896 246.538 289.896Z" fill="#03594E"/>
<path d="M268.072 304.856L268.82 299.576C268.937 298.769 269.179 298.212 269.546 297.904C269.913 297.581 270.558 297.42 271.482 297.42H287.498C286.926 297.992 286.545 298.886 286.354 300.104L285.98 302.788C285.877 303.565 285.665 304.1 285.342 304.394C285.019 304.702 284.411 304.856 283.516 304.856H268.072ZM274.738 284.638H279.798C279.314 284.975 279.043 285.444 278.984 286.046C278.911 286.647 279.197 287.234 279.842 287.806C280.487 288.363 281.492 288.744 282.856 288.95L282.438 291.788C281.177 291.934 279.923 291.766 278.676 291.282C277.429 290.798 276.615 290.042 276.234 289.016C275.545 290.101 274.481 290.871 273.044 291.326C271.621 291.766 270.169 291.927 268.688 291.81L269.106 288.928C270.719 288.722 271.915 288.304 272.692 287.674C273.469 287.028 273.909 286.273 274.012 285.408C274.041 285.085 274.1 284.88 274.188 284.792C274.291 284.689 274.474 284.638 274.738 284.638ZM282.878 292.14L282.68 293.548C282.607 294.12 282.438 294.523 282.174 294.758C281.925 294.978 281.529 295.088 280.986 295.088H276.608L276.498 295.902C276.439 296.342 276.285 296.642 276.036 296.804C275.787 296.965 275.42 297.046 274.936 297.046H271.768L272.032 295.088H267.192L267.39 293.68C267.478 293.108 267.647 292.712 267.896 292.492C268.145 292.257 268.541 292.14 269.084 292.14H282.878ZM282.702 297.068L284.132 286.816C284.249 286.024 284.484 285.481 284.836 285.188C285.203 284.894 285.848 284.748 286.772 284.748H289.61C288.95 285.378 288.532 286.266 288.356 287.41L287.19 295.726C287.117 296.239 286.97 296.591 286.75 296.782C286.545 296.972 286.178 297.068 285.65 297.068H282.702ZM273.462 300.148L273.176 302.128H281.338L281.624 300.148H273.462Z" fill="#03594E"/>
<path d="M288.933 304.196L291.331 287.168C291.419 286.508 291.624 286.016 291.947 285.694C292.284 285.356 292.805 285.188 293.509 285.188H304.047C303.622 285.628 303.358 286.192 303.255 286.882L303.167 287.564C303.079 288.238 302.69 288.576 302.001 288.576H295.379L294.807 292.558H300.879L300.659 294.12C300.556 294.794 300.344 295.271 300.021 295.55C299.713 295.814 299.236 295.946 298.591 295.946H294.323L293.641 300.808H302.111L301.935 302.172C301.744 303.521 300.989 304.196 299.669 304.196H288.933ZM303.123 304.966L304.399 295.88H300.879L301.209 293.548C301.282 292.976 301.407 292.616 301.583 292.47C301.759 292.323 302.133 292.25 302.705 292.25H304.905L305.675 286.816C305.792 286.024 306.027 285.481 306.379 285.188C306.746 284.894 307.391 284.748 308.315 284.748H311.087C310.412 285.378 309.994 286.288 309.833 287.476L307.655 302.898C307.538 303.69 307.296 304.232 306.929 304.526C306.577 304.819 305.939 304.966 305.015 304.966H303.123Z" fill="#03594E"/>
<defs>
<clipPath id="clip0_1154_1536">
<rect width="396" height="86.168" fill="white" transform="translate(-2 130.526)"/>
</clipPath>
</defs>
</svg>
