<svg width="286" height="231" viewBox="0 0 286 231" fill="none" xmlns="http://www.w3.org/2000/svg">
<path d="M67.5001 66.2383C35.5087 66.2383 9.57456 92.1725 9.57456 124.164C9.57456 156.155 35.5087 182.089 67.5001 182.089C99.4915 182.089 125.426 156.155 125.426 124.164C125.426 107.69 118.549 92.8228 107.509 82.2756C100.497 74.9285 76.8516 57.754 67.5001 53.7915V66.2383Z" fill="#F5C451"/>
<path fill-rule="evenodd" clip-rule="evenodd" d="M77.0745 59.1096C73.2846 56.7201 69.9155 54.8152 67.5 53.7916V66.2385C35.5086 66.2385 9.57447 92.1726 9.57447 124.164C9.57447 156.155 35.5086 182.09 67.5 182.09C99.4914 182.09 125.426 156.155 125.426 124.164C125.426 107.69 118.549 92.823 107.509 82.2757C102.308 76.8263 87.957 65.9707 77.0745 59.1096ZM114.277 75.5005C127.039 87.7703 135 105.045 135 124.164C135 161.443 104.779 191.664 67.5 191.664C30.2208 191.664 0 161.443 0 124.164C0 90.135 25.1808 61.9874 57.9255 57.3378V39.3361L71.2355 44.9759C77.0097 47.4226 86.0444 53.305 93.9624 58.9844C101.856 64.6465 110.054 71.1273 114.277 75.5005Z" fill="white"/>
<path fill-rule="evenodd" clip-rule="evenodd" d="M67.5002 181.371C35.9054 181.371 10.2928 155.759 10.2928 124.164C10.2928 92.569 35.9054 66.9564 67.5002 66.9564H68.2183V54.9004C72.9397 57.1224 80.5516 62.0313 87.9636 67.3478C95.9177 73.0531 103.534 79.1503 106.99 82.7713L107.002 82.7833L107.014 82.7947C117.917 93.2121 124.708 107.894 124.708 124.164C124.708 155.759 99.095 181.371 67.5002 181.371ZM8.85661 124.164C8.85661 156.552 35.1122 182.807 67.5002 182.807C99.8882 182.807 126.144 156.552 126.144 124.164C126.144 107.492 119.186 92.4441 108.018 81.7677C104.456 78.0404 96.7517 71.8839 88.8006 66.1808C80.8467 60.4756 72.5385 55.1465 67.7804 53.1303L66.7821 52.7073V65.5245C34.7251 65.9092 8.85661 92.0155 8.85661 124.164Z" fill="black"/>
<path fill-rule="evenodd" clip-rule="evenodd" d="M97.6296 117.704C97.3799 123.825 94.8985 133.618 88.1488 133.846C81.0284 134.089 79.3 124.59 78.6641 116.778C77.993 108.538 79.2922 98.4929 86.8301 98.4262C95.0117 98.3555 97.9612 109.699 97.6335 117.704H97.6296Z" fill="white"/>
<path fill-rule="evenodd" clip-rule="evenodd" d="M96.2136 117.181L96.1946 117.645C96.0749 120.581 95.4164 124.361 94.0226 127.383C92.6121 130.441 90.6605 132.324 88.1004 132.411L88.0997 132.411C86.6758 132.459 85.5768 132.032 84.6721 131.277C83.7354 130.496 82.9464 129.311 82.2979 127.774C80.9922 124.68 80.4122 120.552 80.0955 116.661C79.7665 112.622 79.9369 108.274 81.0312 104.991C81.5752 103.359 82.3177 102.081 83.2532 101.219C84.1592 100.384 85.3101 99.8759 86.8425 99.8623C90.1108 99.8341 92.5023 102.04 94.1127 105.625C95.6549 109.059 96.3032 113.44 96.2136 117.181ZM97.6335 117.704C97.9612 109.699 95.0117 98.3555 86.8301 98.4262C79.2922 98.4929 77.993 108.538 78.6641 116.778C79.3 124.59 81.0284 134.089 88.1488 133.846C94.8985 133.618 97.3799 123.825 97.6296 117.704H97.6335Z" fill="black"/>
<path fill-rule="evenodd" clip-rule="evenodd" d="M91.4192 112.197C91.2818 115.506 89.917 120.8 86.2047 120.923C82.2885 121.054 81.3379 115.919 80.9881 111.696C80.619 107.242 81.3336 101.813 85.4794 101.777C89.9793 101.739 91.6015 107.87 91.4213 112.197H91.4192Z" fill="black"/>
<path fill-rule="evenodd" clip-rule="evenodd" d="M56.4607 117.704C56.211 123.825 53.7296 133.618 46.9799 133.846C39.8595 134.089 38.1311 124.59 37.4951 116.778C36.8241 108.538 38.1233 98.4929 45.6611 98.4262C53.8427 98.3555 56.7923 109.699 56.4646 117.704H56.4607Z" fill="white"/>
<path fill-rule="evenodd" clip-rule="evenodd" d="M55.0446 117.181L55.0257 117.645C54.906 120.581 54.2475 124.361 52.8536 127.383C51.4432 130.441 49.4916 132.324 46.9315 132.411L46.9308 132.411C45.5069 132.459 44.4079 132.032 43.5032 131.277C42.5665 130.496 41.7775 129.311 41.129 127.774C39.8233 124.68 39.2433 120.552 38.9266 116.661C38.5976 112.622 38.768 108.274 39.8623 104.991C40.4063 103.359 41.1488 102.081 42.0843 101.219C42.9903 100.384 44.1411 99.8759 45.6735 99.8623C48.9419 99.8341 51.3334 102.04 52.9438 105.625C54.486 109.059 55.1343 113.44 55.0446 117.181ZM56.4646 117.704C56.7923 109.699 53.8427 98.3555 45.6611 98.4262C38.1233 98.4929 36.8241 108.538 37.4951 116.778C38.1311 124.59 39.8595 134.089 46.9799 133.846C53.7296 133.618 56.211 123.825 56.4607 117.704H56.4646Z" fill="black"/>
<path fill-rule="evenodd" clip-rule="evenodd" d="M50.2502 112.197C50.1129 115.506 48.7481 120.8 45.0358 120.923C41.1196 121.054 40.169 115.919 39.8192 111.696C39.4501 107.242 40.1647 101.813 44.3105 101.777C48.8104 101.739 50.4326 107.87 50.2524 112.197H50.2502Z" fill="black"/>
<path fill-rule="evenodd" clip-rule="evenodd" d="M28.3394 100.596C28.3394 100.597 28.3386 100.599 28.3395 100.599C28.3843 100.575 38.6802 95.1098 46.9824 101.054C49.9108 103.151 55.1578 103.508 53.0715 100.572C52.3113 99.5026 51.3194 98.4574 50.0476 97.4622C38.7209 88.5999 28.1675 100.652 28.3375 100.595C28.3385 100.594 28.3394 100.595 28.3394 100.596Z" fill="black"/>
<path fill-rule="evenodd" clip-rule="evenodd" d="M106.373 75.0042L106.373 75.0063C106.325 74.9952 95.2052 72.4363 88.861 80.1605C86.6232 82.8847 81.7524 84.5519 82.9814 81.2475C83.4291 80.0435 84.1022 78.804 85.0526 77.5407C93.5174 66.2912 106.374 75.0022 106.374 75.0022L106.373 75.0042Z" fill="black"/>
<path d="M62.4664 129.063C62.3922 129.063 62.318 129.053 62.2437 129.034C61.87 128.935 61.6677 128.609 61.7906 128.307C61.998 127.797 63.9154 123.329 67.3842 123.319H67.3995C70.8811 123.319 73.0904 127.398 73.1851 127.572C73.3412 127.864 73.1748 128.201 72.8139 128.328C72.4529 128.454 72.0331 128.319 71.8795 128.027C71.3496 127.037 69.5141 124.47 67.4021 124.47H67.3918C65.308 124.477 63.6184 127.503 63.1423 128.667C63.0424 128.91 62.766 129.063 62.4664 129.063Z" fill="black"/>
<path fill-rule="evenodd" clip-rule="evenodd" d="M94.8814 141.851C95.1053 142.178 95.0214 142.625 94.6941 142.849L94.2887 142.256C94.6941 142.849 94.6938 142.849 94.6934 142.849L94.6927 142.85L94.691 142.851L94.6869 142.854L94.6757 142.861C94.6669 142.867 94.6554 142.875 94.6413 142.883C94.6132 142.901 94.5748 142.925 94.5266 142.952C94.4304 143.008 94.2947 143.08 94.1248 143.156C93.7869 143.308 93.3039 143.48 92.7229 143.558C91.5318 143.717 89.9844 143.469 88.5127 141.997C86.9381 140.423 86.4933 138.913 86.4954 137.743C86.4964 137.169 86.6048 136.699 86.716 136.367C86.7717 136.201 86.8284 136.069 86.8736 135.973C86.8962 135.926 86.9161 135.887 86.9315 135.859C86.9393 135.844 86.946 135.832 86.9514 135.823L86.9585 135.811L86.9614 135.806L86.9626 135.804L86.9631 135.803C86.9634 135.802 86.9637 135.802 87.5791 136.172L86.9637 135.802C87.168 135.462 87.6092 135.352 87.9491 135.556C88.2869 135.76 88.3975 136.197 88.1982 136.536C88.1982 136.536 88.1982 136.536 88.1982 136.536C88.1977 136.537 88.1967 136.538 88.1954 136.541C88.191 136.549 88.1823 136.565 88.1708 136.59C88.1477 136.638 88.1134 136.717 88.0779 136.823C88.0067 137.036 87.9323 137.352 87.9316 137.746C87.9302 138.51 88.206 139.66 89.5282 140.982C90.6515 142.105 91.7382 142.24 92.5326 142.134C92.9442 142.079 93.2918 141.956 93.5361 141.846C93.6574 141.792 93.7508 141.742 93.8109 141.707C93.8409 141.69 93.8624 141.677 93.8748 141.669C93.8809 141.665 93.8848 141.662 93.8863 141.662L93.8854 141.662L93.8845 141.663L93.8839 141.663C93.8848 141.663 93.8857 141.662 93.8865 141.661C94.2136 141.44 94.6583 141.525 94.8814 141.851Z" fill="black"/>
<g style="mix-blend-mode:multiply">
<g filter="url(#filter0_f_1154_1564)">
<path fill-rule="evenodd" clip-rule="evenodd" d="M27.8015 142.902C27.5533 139.112 28.4054 133.139 36.7528 132.474C45.9371 131.742 48.8594 145.463 42.5464 149.138C36.433 152.698 28.2698 150.013 27.8041 142.902H27.8015Z" fill="#FE7D7B"/>
</g>
<path d="M37.5141 143.119C37.5141 143.384 37.2997 143.598 37.0354 143.598C36.771 143.598 36.5566 143.384 36.5566 143.119C36.5566 142.855 36.771 142.641 37.0354 142.641C37.2997 142.641 37.5141 142.855 37.5141 143.119Z" fill="#CC6563"/>
<path d="M34.9465 140.073C34.9465 140.337 34.7321 140.552 34.4678 140.552C34.2034 140.552 33.989 140.337 33.989 140.073C33.989 139.809 34.2034 139.594 34.4678 139.594C34.7321 139.594 34.9465 139.809 34.9465 140.073Z" fill="#CC6563"/>
<path d="M40.0816 140.073C40.0816 140.337 39.8673 140.552 39.6029 140.552C39.3385 140.552 39.1242 140.337 39.1242 140.073C39.1242 139.809 39.3385 139.594 39.6029 139.594C39.8673 139.594 40.0816 139.809 40.0816 140.073Z" fill="#CC6563"/>
</g>
<g style="mix-blend-mode:multiply">
<g filter="url(#filter1_f_1154_1564)">
<path fill-rule="evenodd" clip-rule="evenodd" d="M88.8262 142.902C88.578 139.112 89.4301 133.139 97.7776 132.474C106.962 131.742 109.884 145.463 103.571 149.138C97.4577 152.698 89.2945 150.013 88.8288 142.902H88.8262Z" fill="#FE7D7B"/>
</g>
<path d="M98.311 143.12C98.311 143.384 98.0967 143.598 97.8323 143.598C97.5679 143.598 97.3536 143.384 97.3536 143.12C97.3536 142.855 97.5679 142.641 97.8323 142.641C98.0967 142.641 98.311 142.855 98.311 143.12Z" fill="#CC6563"/>
<path d="M95.7432 140.073C95.7432 140.338 95.5289 140.552 95.2645 140.552C95.0001 140.552 94.7858 140.338 94.7858 140.073C94.7858 139.809 95.0001 139.595 95.2645 139.595C95.5289 139.595 95.7432 139.809 95.7432 140.073Z" fill="#CC6563"/>
<path d="M100.879 140.073C100.879 140.338 100.665 140.552 100.4 140.552C100.136 140.552 99.9214 140.338 99.9214 140.073C99.9214 139.809 100.136 139.595 100.4 139.595C100.665 139.595 100.879 139.809 100.879 140.073Z" fill="#CC6563"/>
</g>
<path fill-rule="evenodd" clip-rule="evenodd" d="M88.906 140.552C89.435 140.742 89.71 141.324 89.5201 141.853L88.5621 141.51C89.5201 141.853 89.5195 141.855 89.5195 141.855L89.5189 141.857L89.5174 141.861L89.5132 141.872C89.51 141.881 89.5057 141.892 89.5004 141.906C89.4899 141.933 89.4751 141.97 89.456 142.017C89.4176 142.11 89.3614 142.239 89.2849 142.4C89.1319 142.721 88.8974 143.168 88.5616 143.699C87.89 144.761 86.812 146.159 85.1699 147.552C81.8688 150.351 76.3655 164.095 67.4989 164.095C57.6596 164.095 52.0163 150.369 48.8184 147.537C47.2272 146.129 46.2693 144.709 45.7063 143.624C45.4252 143.082 45.2428 142.624 45.1289 142.294C45.0719 142.128 45.032 141.994 45.0054 141.897C44.9921 141.849 44.9821 141.81 44.9749 141.78C44.9714 141.765 44.9685 141.753 44.9663 141.744L44.9634 141.731L44.9624 141.726L44.9619 141.724C44.9619 141.724 44.9615 141.722 45.9569 141.51L44.9615 141.722C44.8441 141.172 45.1946 140.632 45.7443 140.514C46.2921 140.397 46.831 140.745 46.9509 141.291L46.9529 141.299C46.9554 141.31 46.9604 141.33 46.9682 141.358C46.984 141.416 47.0113 141.508 47.0535 141.631C47.1379 141.876 47.282 142.241 47.5131 142.686C47.9747 143.576 48.7849 144.789 50.1677 146.013C52.9175 148.448 58.0452 151.023 67.4989 151.023C75.9154 151.023 80.9438 148.466 83.8535 145.999C85.3169 144.758 86.264 143.524 86.8413 142.611C87.1299 142.155 87.3258 141.779 87.447 141.525C87.5076 141.397 87.5495 141.3 87.575 141.239C87.5877 141.208 87.5963 141.186 87.6011 141.174L87.6047 141.164C87.795 140.636 88.3773 140.362 88.906 140.552Z" fill="black"/>
<path fill-rule="evenodd" clip-rule="evenodd" d="M78.9823 156.125C75.9922 160.193 72.2229 164.095 67.4989 164.095C62.5322 164.095 58.6347 160.597 55.5811 156.769C56.1348 155.841 56.9258 155.018 57.9759 154.381C59.8514 153.244 61.475 154.112 63.2348 155.053C64.5309 155.746 65.901 156.478 67.5 156.478C69.099 156.478 70.4691 155.746 71.7652 155.053C73.525 154.112 75.1486 153.244 77.0241 154.381C77.8239 154.866 78.4735 155.459 78.9823 156.125Z" fill="#FE7D7B"/>
<path fill-rule="evenodd" clip-rule="evenodd" d="M77.1128 156.218C75.846 157.852 74.4822 159.355 73.0087 160.502C71.2637 161.86 69.4429 162.659 67.4989 162.659C63.5597 162.659 60.2505 160.086 57.3925 156.712C57.7542 156.301 58.194 155.928 58.7205 155.609C59.3075 155.253 59.7964 155.219 60.3351 155.339C60.9682 155.481 61.635 155.826 62.5577 156.319C62.5903 156.337 62.6233 156.355 62.6565 156.372C63.8916 157.033 65.5377 157.914 67.5 157.914C69.4623 157.914 71.1084 157.033 72.3435 156.372C72.3767 156.355 72.4097 156.337 72.4423 156.319C73.365 155.826 74.0318 155.481 74.6649 155.339C75.2036 155.219 75.6925 155.253 76.2795 155.609C76.5866 155.795 76.8637 155.999 77.1128 156.218ZM55.5811 156.769C58.6347 160.597 62.5322 164.095 67.4989 164.095C72.2229 164.095 75.9922 160.193 78.9823 156.125C78.4735 155.459 77.8239 154.866 77.0241 154.381C75.1486 153.244 73.525 154.112 71.7652 155.053C70.4691 155.746 69.099 156.478 67.5 156.478C65.901 156.478 64.5309 155.746 63.2348 155.053C61.475 154.112 59.8514 153.244 57.9759 154.381C56.9258 155.018 56.1348 155.841 55.5811 156.769Z" fill="black"/>
<path fill-rule="evenodd" clip-rule="evenodd" d="M39.3868 141.851C39.1629 142.178 39.2468 142.625 39.5741 142.849L39.9795 142.256C39.5741 142.849 39.5745 142.849 39.5748 142.849L39.5756 142.85L39.5772 142.851L39.5813 142.854L39.5926 142.861C39.6014 142.867 39.6129 142.875 39.6269 142.883C39.655 142.901 39.6935 142.925 39.7416 142.952C39.8378 143.008 39.9736 143.08 40.1434 143.156C40.4814 143.308 40.9643 143.48 41.5454 143.558C42.7364 143.717 44.2838 143.469 45.7555 141.997C47.3301 140.423 47.7749 138.913 47.7728 137.743C47.7718 137.169 47.6634 136.699 47.5522 136.367C47.4965 136.201 47.4398 136.069 47.3946 135.973C47.372 135.926 47.3522 135.887 47.3367 135.859C47.3289 135.844 47.3223 135.832 47.3169 135.823L47.3097 135.811L47.3069 135.806L47.3057 135.804L47.3051 135.803C47.3048 135.802 47.3046 135.802 46.6891 136.172L47.3046 135.802C47.1002 135.462 46.6591 135.352 46.3192 135.556C45.9813 135.76 45.8707 136.197 46.07 136.536C46.07 136.536 46.07 136.536 46.07 136.536C46.0706 136.537 46.0715 136.538 46.0729 136.541C46.0773 136.549 46.0859 136.565 46.0974 136.59C46.1205 136.638 46.1549 136.717 46.1904 136.823C46.2615 137.036 46.3359 137.352 46.3367 137.746C46.338 138.51 46.0622 139.66 44.74 140.982C43.6167 142.105 42.53 142.24 41.7357 142.134C41.324 142.079 40.9765 141.956 40.7321 141.846C40.6108 141.792 40.5174 141.742 40.4573 141.707C40.4273 141.69 40.4058 141.677 40.3935 141.669C40.3873 141.665 40.3834 141.662 40.382 141.662L40.3828 141.662L40.3837 141.663L40.3843 141.663C40.3834 141.663 40.3826 141.662 40.3817 141.661C40.0547 141.44 39.61 141.525 39.3868 141.851Z" fill="black"/>
<path d="M243.363 68.6919C239.445 54.9602 225.137 47.0045 211.406 50.9225C200.656 53.9897 193.446 63.4246 192.701 73.9658C188.447 72.8998 183.865 72.9029 179.345 74.1926C165.613 78.1106 157.657 92.4184 161.575 106.15C162.565 109.617 164.216 112.716 166.354 115.349C161.234 121.674 159.173 130.309 161.575 138.728C165.412 152.177 179.215 160.085 192.683 156.725C192.793 158.579 193.106 160.449 193.636 162.309C197.554 176.04 211.862 183.996 225.594 180.078C236.275 177.03 243.461 167.697 244.283 157.238C248.541 158.308 253.129 158.306 257.655 157.015C271.387 153.097 279.342 138.789 275.424 125.057C274.435 121.59 272.783 118.491 270.646 115.859C275.765 109.534 277.826 100.898 275.424 92.4791C271.588 79.0343 257.792 71.1268 244.328 74.4796C244.229 72.5592 243.913 70.6199 243.363 68.6919Z" fill="#00BF96"/>
<path fill-rule="evenodd" clip-rule="evenodd" d="M253.887 73.9254C250.775 73.5204 247.542 73.6791 244.328 74.4794C244.23 72.5591 243.914 70.6197 243.363 68.6917C243.015 67.4717 242.585 66.2973 242.081 65.1727C236.908 53.6401 223.918 47.3525 211.406 50.9223C203.751 53.1064 197.891 58.5191 194.883 65.261C193.666 67.9871 192.916 70.9305 192.701 73.9656C189.832 73.2466 186.813 73.014 183.765 73.3345C182.294 73.4892 180.816 73.7726 179.345 74.1924C165.613 78.1104 157.658 92.4183 161.575 106.15C162.565 109.617 164.216 112.716 166.354 115.349C161.235 121.673 159.173 130.309 161.575 138.728C164.502 148.986 173.226 156.02 183.177 157.29C186.273 157.685 189.487 157.522 192.683 156.725C192.793 158.578 193.106 160.449 193.637 162.308C194.002 163.59 194.459 164.822 194.997 165.999C200.221 177.422 213.144 183.63 225.594 180.078C233.309 177.877 239.2 172.396 242.188 165.58C243.336 162.96 244.055 160.142 244.283 157.238C247.035 157.929 249.923 158.173 252.844 157.911C254.444 157.767 256.054 157.472 257.655 157.015C271.387 153.097 279.342 138.789 275.425 125.057L284.631 122.43C290 141.247 279.098 160.853 260.282 166.221C257.429 167.035 254.552 167.475 251.706 167.569C247.909 177.752 239.491 186.069 228.221 189.284C210.12 194.449 191.289 184.557 185.103 167.047C170.194 166.488 156.684 156.479 152.369 141.355C149.788 132.309 150.973 123.081 154.973 115.351C153.906 113.286 153.028 111.089 152.369 108.777C147 89.9604 157.902 70.3545 176.718 64.9857C179.545 64.1791 182.396 63.74 185.216 63.6411C188.976 53.3616 197.432 44.9532 208.779 41.7156C226.952 36.5305 245.861 46.5218 251.97 64.1625C266.85 64.7519 280.323 74.753 284.631 89.8521C287.212 98.898 286.027 108.126 282.027 115.856C283.094 117.921 283.972 120.118 284.631 122.43L275.425 125.057C274.435 121.59 272.784 118.491 270.646 115.859C275.765 109.534 277.827 100.898 275.425 92.4789C272.504 82.2434 263.811 75.2172 253.887 73.9254Z" fill="white"/>
<path fill-rule="evenodd" clip-rule="evenodd" d="M168.202 115.347L167.47 116.252C162.632 122.229 160.688 130.384 162.956 138.334C166.58 151.036 179.617 158.505 192.335 155.332L194.014 154.913L194.116 156.64C194.22 158.389 194.516 160.156 195.017 161.914C198.718 174.883 212.231 182.397 225.2 178.697C235.285 175.819 242.075 167.006 242.852 157.125L242.985 155.431L244.633 155.845C248.653 156.855 252.985 156.854 257.261 155.634C270.23 151.933 277.744 138.42 274.043 125.451C273.108 122.174 271.548 119.249 269.531 116.764L268.797 115.86L269.53 114.955C274.367 108.978 276.312 100.823 274.043 92.8731C270.42 80.1754 257.39 72.7068 244.675 75.8732L242.984 76.2944L242.894 74.5534C242.801 72.7407 242.502 70.9088 241.982 69.0859C238.282 56.1169 224.769 48.6032 211.8 52.3035C201.649 55.1997 194.837 64.1091 194.134 74.067L194.013 75.7751L192.352 75.3588C188.336 74.3525 184.01 74.3549 179.739 75.5736C166.77 79.2739 159.256 92.7871 162.956 105.756C163.891 109.033 165.451 111.959 167.469 114.443L168.202 115.347ZM244.212 73.0295C244.056 71.5858 243.775 70.1356 243.363 68.6919C239.445 54.9602 225.137 47.0045 211.406 50.9225C201.149 53.8489 194.115 62.572 192.844 72.522C192.783 73.0006 192.735 73.482 192.701 73.9658C192.233 73.8484 191.76 73.744 191.284 73.6528C187.439 72.9161 183.367 73.0449 179.345 74.1926C165.613 78.1106 157.657 92.4184 161.575 106.15C162.565 109.617 164.216 112.716 166.354 115.349C161.234 121.674 159.173 130.309 161.575 138.728C165.278 151.705 178.259 159.523 191.264 157.037C191.737 156.947 192.21 156.843 192.683 156.725C192.711 157.206 192.754 157.689 192.81 158.172C192.97 159.55 193.244 160.932 193.636 162.309C197.554 176.04 211.862 183.996 225.594 180.078C235.782 177.171 242.79 168.545 244.129 158.679C244.194 158.201 244.245 157.721 244.283 157.238C244.751 157.355 245.223 157.46 245.698 157.551C249.549 158.292 253.627 158.164 257.655 157.015C271.387 153.097 279.342 138.789 275.424 125.057C274.435 121.59 272.783 118.491 270.646 115.859C275.765 109.534 277.826 100.898 275.424 92.4791C271.723 79.507 258.75 71.6897 245.749 74.1675C245.275 74.2578 244.802 74.3617 244.328 74.4796C244.303 73.9973 244.265 73.5138 244.212 73.0295Z" fill="#131A15"/>
<path fill-rule="evenodd" clip-rule="evenodd" d="M248.628 108.567C248.378 114.687 245.897 124.481 239.148 124.708C232.027 124.952 230.299 115.453 229.663 107.641C228.992 99.4011 230.291 89.3566 237.829 89.2899C246.01 89.2193 248.96 100.562 248.632 108.567H248.628Z" fill="white"/>
<path fill-rule="evenodd" clip-rule="evenodd" d="M247.212 108.044L247.193 108.508C247.073 111.444 246.415 115.224 245.021 118.246C243.611 121.304 241.659 123.187 239.099 123.273L239.098 123.273C237.675 123.322 236.576 122.894 235.671 122.14C234.734 121.359 233.945 120.173 233.297 118.637C231.991 115.543 231.411 111.414 231.095 107.524C230.766 103.485 230.936 99.1373 232.03 95.8546C232.574 94.2225 233.317 92.9449 234.252 92.0826C235.158 91.2473 236.309 90.7396 237.841 90.726C241.109 90.6978 243.501 92.9033 245.111 96.4886C246.653 99.9222 247.302 104.303 247.212 108.044ZM248.632 108.567C248.96 100.562 246.01 89.2193 237.829 89.2899C230.291 89.3566 228.992 99.4011 229.663 107.641C230.299 115.453 232.027 124.952 239.148 124.708C245.897 124.481 248.378 114.687 248.628 108.567H248.632Z" fill="black"/>
<path fill-rule="evenodd" clip-rule="evenodd" d="M242.418 103.06C242.28 106.369 240.916 111.662 237.204 111.785C233.287 111.917 232.337 106.782 231.987 102.56C231.618 98.1059 232.333 92.6765 236.478 92.6404C240.978 92.6022 242.6 98.7337 242.42 103.06H242.418Z" fill="black"/>
<path fill-rule="evenodd" clip-rule="evenodd" d="M207.46 108.567C207.21 114.687 204.729 124.481 197.98 124.708C190.86 124.952 189.131 115.453 188.495 107.641C187.824 99.4011 189.123 89.3566 196.661 89.2899C204.842 89.2193 207.792 100.562 207.464 108.567H207.46Z" fill="white"/>
<path fill-rule="evenodd" clip-rule="evenodd" d="M206.044 108.044L206.025 108.508C205.905 111.444 205.247 115.224 203.853 118.246C202.443 121.304 200.491 123.187 197.931 123.273L197.931 123.273C196.507 123.322 195.408 122.894 194.503 122.14C193.566 121.359 192.778 120.173 192.129 118.637C190.823 115.543 190.243 111.414 189.927 107.524C189.598 103.485 189.768 99.1373 190.862 95.8546C191.406 94.2225 192.149 92.9449 193.084 92.0826C193.99 91.2473 195.141 90.7396 196.673 90.726C199.942 90.6978 202.333 92.9033 203.943 96.4886C205.486 99.9222 206.134 104.303 206.044 108.044ZM207.464 108.567C207.792 100.562 204.842 89.2193 196.661 89.2899C189.123 89.3566 187.824 99.4011 188.495 107.641C189.131 115.453 190.86 124.952 197.98 124.708C204.729 124.481 207.21 114.687 207.46 108.567H207.464Z" fill="black"/>
<path fill-rule="evenodd" clip-rule="evenodd" d="M201.25 103.06C201.113 106.369 199.748 111.662 196.036 111.785C192.12 111.917 191.169 106.782 190.819 102.56C190.45 98.1059 191.165 92.6765 195.31 92.6404C199.81 92.6022 201.432 98.7337 201.252 103.06H201.25Z" fill="black"/>
<path fill-rule="evenodd" clip-rule="evenodd" d="M184.994 96.2898C184.994 96.2906 184.994 96.292 184.994 96.2914C185.023 96.2651 191.529 90.2068 198.818 92.9471C201.389 93.9134 205.325 93.1409 203.209 91.3901C202.437 90.7522 201.5 90.178 200.367 89.6959C190.274 85.4031 184.878 96.3647 184.992 96.289C184.993 96.2886 184.993 96.289 184.994 96.2898Z" fill="black"/>
<path fill-rule="evenodd" clip-rule="evenodd" d="M254.619 68.998L254.619 68.9997C254.582 68.991 245.918 66.9974 240.975 73.0153C239.232 75.1377 235.437 76.4367 236.394 73.8622C236.743 72.9242 237.268 71.9585 238.008 70.9743C244.603 62.2098 254.62 68.9965 254.62 68.9965L254.619 68.998Z" fill="black"/>
<path d="M213.466 119.925C213.392 119.925 213.318 119.915 213.244 119.896C212.87 119.797 212.668 119.471 212.79 119.169C212.998 118.659 214.915 114.191 218.384 114.181H218.399C221.881 114.181 224.09 118.259 224.185 118.433C224.341 118.726 224.174 119.063 223.813 119.19C223.452 119.316 223.033 119.181 222.879 118.889C222.349 117.899 220.514 115.332 218.402 115.332H218.391C216.308 115.339 214.618 118.365 214.142 119.529C214.042 119.772 213.766 119.925 213.466 119.925Z" fill="black"/>
<path fill-rule="evenodd" clip-rule="evenodd" d="M245.88 132.712C246.104 133.039 246.02 133.486 245.693 133.71L245.287 133.117C245.693 133.71 245.692 133.71 245.692 133.71L245.691 133.711L245.69 133.712L245.686 133.715L245.674 133.722C245.665 133.728 245.654 133.736 245.64 133.744C245.612 133.762 245.573 133.786 245.525 133.813C245.429 133.869 245.293 133.941 245.124 134.017C244.786 134.169 244.303 134.341 243.722 134.419C242.531 134.578 240.983 134.33 239.512 132.858C237.937 131.284 237.492 129.775 237.494 128.604C237.495 128.031 237.604 127.561 237.715 127.229C237.771 127.062 237.827 126.93 237.873 126.835C237.895 126.787 237.915 126.749 237.93 126.72C237.938 126.706 237.945 126.694 237.95 126.684L237.957 126.672L237.96 126.667L237.961 126.665L237.962 126.664C237.962 126.664 237.963 126.663 238.578 127.033L237.963 126.663C238.167 126.323 238.608 126.213 238.948 126.418C239.286 126.621 239.396 127.058 239.197 127.397C239.197 127.397 239.197 127.397 239.197 127.397C239.197 127.398 239.196 127.4 239.194 127.402C239.19 127.41 239.181 127.427 239.17 127.451C239.147 127.5 239.112 127.579 239.077 127.685C239.006 127.897 238.931 128.213 238.93 128.607C238.929 129.371 239.205 130.521 240.527 131.843C241.65 132.966 242.737 133.102 243.531 132.995C243.943 132.94 244.29 132.817 244.535 132.707C244.656 132.653 244.749 132.603 244.81 132.568C244.84 132.551 244.861 132.538 244.873 132.53C244.88 132.526 244.883 132.524 244.885 132.523L244.884 132.523L244.883 132.524L244.883 132.524C244.883 132.524 244.884 132.523 244.885 132.522C245.212 132.301 245.657 132.386 245.88 132.712Z" fill="black"/>
<g style="mix-blend-mode:color-burn">
<g filter="url(#filter2_f_1154_1564)">
<path fill-rule="evenodd" clip-rule="evenodd" d="M178.803 133.763C178.555 129.974 179.407 124.001 187.754 123.336C196.938 122.604 199.86 136.325 193.547 139.999C187.434 143.559 179.271 140.875 178.805 133.763H178.803Z" fill="#FE7D7B"/>
</g>
<path d="M188.516 133.981C188.516 134.245 188.301 134.459 188.037 134.459C187.772 134.459 187.558 134.245 187.558 133.981C187.558 133.716 187.772 133.502 188.037 133.502C188.301 133.502 188.516 133.716 188.516 133.981Z" fill="#CC6563"/>
<path d="M185.947 130.935C185.947 131.199 185.733 131.413 185.469 131.413C185.204 131.413 184.99 131.199 184.99 130.935C184.99 130.67 185.204 130.456 185.469 130.456C185.733 130.456 185.947 130.67 185.947 130.935Z" fill="#CC6563"/>
<path d="M191.083 130.935C191.083 131.199 190.869 131.413 190.604 131.413C190.34 131.413 190.126 131.199 190.126 130.935C190.126 130.67 190.34 130.456 190.604 130.456C190.869 130.456 191.083 130.67 191.083 130.935Z" fill="#CC6563"/>
</g>
<g style="mix-blend-mode:color-burn">
<g filter="url(#filter3_f_1154_1564)">
<path fill-rule="evenodd" clip-rule="evenodd" d="M239.825 133.763C239.577 129.974 240.429 124.001 248.776 123.336C257.96 122.604 260.882 136.325 254.569 139.999C248.456 143.559 240.293 140.875 239.828 133.763H239.825Z" fill="#FE7D7B"/>
</g>
<path d="M249.31 133.981C249.31 134.245 249.095 134.46 248.831 134.46C248.566 134.46 248.352 134.245 248.352 133.981C248.352 133.717 248.566 133.502 248.831 133.502C249.095 133.502 249.31 133.717 249.31 133.981Z" fill="#CC6563"/>
<path d="M246.742 130.935C246.742 131.199 246.527 131.414 246.263 131.414C245.999 131.414 245.784 131.199 245.784 130.935C245.784 130.67 245.999 130.456 246.263 130.456C246.527 130.456 246.742 130.67 246.742 130.935Z" fill="#CC6563"/>
<path d="M251.877 130.935C251.877 131.199 251.663 131.414 251.399 131.414C251.134 131.414 250.92 131.199 250.92 130.935C250.92 130.67 251.134 130.456 251.399 130.456C251.663 130.456 251.877 130.67 251.877 130.935Z" fill="#CC6563"/>
</g>
<path fill-rule="evenodd" clip-rule="evenodd" d="M239.905 131.413C240.434 131.603 240.709 132.185 240.519 132.714L239.561 132.371C240.519 132.714 240.518 132.716 240.518 132.716L240.518 132.718L240.516 132.722L240.512 132.733C240.509 132.742 240.505 132.753 240.499 132.767C240.489 132.794 240.474 132.832 240.455 132.878C240.416 132.971 240.36 133.1 240.284 133.261C240.131 133.582 239.896 134.029 239.561 134.56C238.889 135.622 237.811 137.02 236.169 138.413C232.868 141.211 227.365 154.955 218.499 154.955C208.66 154.955 203.016 141.229 199.819 138.398C198.228 136.99 197.27 135.57 196.707 134.485C196.426 133.943 196.243 133.485 196.129 133.155C196.072 132.989 196.033 132.855 196.006 132.758C195.993 132.71 195.983 132.671 195.975 132.641C195.972 132.627 195.969 132.614 195.967 132.605L195.964 132.592L195.963 132.587L195.962 132.585C195.962 132.585 195.962 132.583 196.957 132.371L195.962 132.583C195.845 132.034 196.195 131.493 196.745 131.375C197.293 131.258 197.831 131.606 197.951 132.152L197.953 132.16C197.956 132.171 197.961 132.191 197.969 132.219C197.984 132.277 198.012 132.369 198.054 132.492C198.138 132.737 198.282 133.102 198.514 133.547C198.975 134.437 199.785 135.65 201.168 136.874C203.918 139.309 209.045 141.884 218.499 141.884C226.915 141.884 231.943 139.327 234.853 136.86C236.316 135.619 237.263 134.385 237.84 133.472C238.129 133.016 238.325 132.64 238.446 132.386C238.507 132.258 238.548 132.161 238.574 132.1C238.587 132.069 238.595 132.047 238.6 132.035L238.604 132.026C238.794 131.497 239.376 131.223 239.905 131.413Z" fill="black"/>
<path fill-rule="evenodd" clip-rule="evenodd" d="M229.982 146.985C226.992 151.054 223.222 154.955 218.499 154.955C213.532 154.955 209.635 151.458 206.581 147.63C207.135 146.702 207.926 145.878 208.976 145.242C210.851 144.105 212.475 144.973 214.235 145.913C215.531 146.606 216.901 147.339 218.5 147.339C220.099 147.339 221.469 146.606 222.765 145.913C224.524 144.973 226.148 144.105 228.023 145.242C228.823 145.727 229.473 146.32 229.982 146.985Z" fill="#FE7D7B"/>
<path fill-rule="evenodd" clip-rule="evenodd" d="M228.112 147.079C226.845 148.712 225.482 150.216 224.008 151.363C222.263 152.721 220.442 153.519 218.499 153.519C214.56 153.519 211.25 150.946 208.393 147.573C208.754 147.162 209.194 146.789 209.72 146.47C210.307 146.114 210.796 146.079 211.335 146.2C211.968 146.342 212.635 146.687 213.558 147.18C213.59 147.197 213.623 147.215 213.656 147.233C214.891 147.894 216.537 148.775 218.5 148.775C220.462 148.775 222.108 147.894 223.343 147.233C223.376 147.215 223.409 147.197 223.442 147.18C224.364 146.687 225.031 146.342 225.664 146.2C226.203 146.079 226.692 146.114 227.279 146.47C227.586 146.656 227.863 146.86 228.112 147.079ZM206.581 147.63C209.635 151.458 213.532 154.955 218.499 154.955C223.222 154.955 226.992 151.054 229.982 146.985C229.473 146.32 228.823 145.727 228.023 145.242C226.148 144.105 224.524 144.973 222.765 145.913C221.469 146.606 220.099 147.339 218.5 147.339C216.901 147.339 215.531 146.606 214.235 145.913C212.475 144.973 210.851 144.105 208.976 145.242C207.926 145.878 207.135 146.702 206.581 147.63Z" fill="black"/>
<path fill-rule="evenodd" clip-rule="evenodd" d="M190.387 132.712C190.164 133.039 190.247 133.486 190.575 133.71L190.98 133.117C190.575 133.71 190.575 133.71 190.575 133.71L190.576 133.711L190.578 133.712L190.582 133.715L190.593 133.722C190.602 133.728 190.614 133.736 190.628 133.744C190.656 133.762 190.694 133.786 190.742 133.813C190.838 133.869 190.974 133.941 191.144 134.017C191.482 134.169 191.965 134.341 192.546 134.419C193.737 134.578 195.284 134.33 196.756 132.858C198.33 131.284 198.775 129.775 198.773 128.604C198.772 128.031 198.664 127.561 198.553 127.229C198.497 127.062 198.44 126.93 198.395 126.835C198.372 126.787 198.353 126.749 198.337 126.72C198.329 126.706 198.323 126.694 198.317 126.684L198.31 126.672L198.307 126.667L198.306 126.665L198.305 126.664C198.305 126.664 198.305 126.663 197.69 127.033L198.305 126.663C198.101 126.323 197.659 126.213 197.32 126.418C196.982 126.621 196.871 127.058 197.07 127.397C197.07 127.397 197.07 127.397 197.07 127.397C197.071 127.398 197.072 127.4 197.073 127.402C197.078 127.41 197.086 127.427 197.098 127.451C197.121 127.5 197.155 127.579 197.191 127.685C197.262 127.897 197.336 128.213 197.337 128.607C197.338 129.371 197.063 130.521 195.74 131.843C194.617 132.966 193.531 133.102 192.736 132.995C192.325 132.94 191.977 132.817 191.733 132.707C191.611 132.653 191.518 132.603 191.458 132.568C191.428 132.551 191.406 132.538 191.394 132.53C191.388 132.526 191.384 132.524 191.383 132.523L191.383 132.523L191.384 132.524L191.385 132.524C191.384 132.524 191.383 132.523 191.382 132.522C191.055 132.301 190.611 132.386 190.387 132.712Z" fill="black"/>
<defs>
<filter id="filter0_f_1154_1564" x="17.7659" y="122.446" width="38.1468" height="38.2592" filterUnits="userSpaceOnUse" color-interpolation-filters="sRGB">
<feFlood flood-opacity="0" result="BackgroundImageFix"/>
<feBlend mode="normal" in="SourceGraphic" in2="BackgroundImageFix" result="shape"/>
<feGaussianBlur stdDeviation="5" result="effect1_foregroundBlur_1154_1564"/>
</filter>
<filter id="filter1_f_1154_1564" x="78.7906" y="122.446" width="38.1468" height="38.2592" filterUnits="userSpaceOnUse" color-interpolation-filters="sRGB">
<feFlood flood-opacity="0" result="BackgroundImageFix"/>
<feBlend mode="normal" in="SourceGraphic" in2="BackgroundImageFix" result="shape"/>
<feGaussianBlur stdDeviation="5" result="effect1_foregroundBlur_1154_1564"/>
</filter>
<filter id="filter2_f_1154_1564" x="168.767" y="113.308" width="38.1462" height="38.2586" filterUnits="userSpaceOnUse" color-interpolation-filters="sRGB">
<feFlood flood-opacity="0" result="BackgroundImageFix"/>
<feBlend mode="normal" in="SourceGraphic" in2="BackgroundImageFix" result="shape"/>
<feGaussianBlur stdDeviation="5" result="effect1_foregroundBlur_1154_1564"/>
</filter>
<filter id="filter3_f_1154_1564" x="229.789" y="113.308" width="38.1462" height="38.2586" filterUnits="userSpaceOnUse" color-interpolation-filters="sRGB">
<feFlood flood-opacity="0" result="BackgroundImageFix"/>
<feBlend mode="normal" in="SourceGraphic" in2="BackgroundImageFix" result="shape"/>
<feGaussianBlur stdDeviation="5" result="effect1_foregroundBlur_1154_1564"/>
</filter>
</defs>
</svg>
