<svg width="267" height="101" viewBox="0 0 267 101" fill="none" xmlns="http://www.w3.org/2000/svg">
<path d="M135.03 32.8652C138.37 28.6386 145.987 18.3945 145.987 12.6405C145.987 5.66188 140.388 0 133.487 0C126.586 0 120.987 5.66188 120.987 12.6405C120.987 18.3945 128.604 28.6386 131.944 32.8652C132.745 33.8725 134.229 33.8725 135.03 32.8652ZM133.487 16.854C131.189 16.854 129.321 14.9645 129.321 12.6405C129.321 10.3165 131.189 8.42698 133.487 8.42698C135.785 8.42698 137.654 10.3165 137.654 12.6405C137.654 14.9645 135.785 16.854 133.487 16.854Z" fill="#FFC439"/>
<path d="M40.4539 84.5742L41.1899 79.3532C41.2972 78.4945 41.5349 77.8812 41.9029 77.5132C42.2709 77.1452 42.9225 76.9612 43.8579 76.9612H61.0389C60.4715 77.6512 60.1189 78.4792 59.9809 79.4452L59.5899 82.1822C59.4672 83.0255 59.2065 83.6312 58.8079 83.9992C58.4245 84.3825 57.7575 84.5742 56.8069 84.5742H40.4539ZM56.2549 72.8212L56.5079 70.9812H42.3629L42.5929 69.2792C42.6695 68.6812 42.8305 68.2672 43.0759 68.0372C43.3212 67.7919 43.7275 67.6692 44.2949 67.6692H56.9909L57.0829 66.9792H42.9149L43.1449 65.3922C43.2982 64.2422 43.9269 63.6672 45.0309 63.6672H63.0859C62.4879 64.3265 62.1122 65.1699 61.9589 66.1972L61.2919 70.9812C61.2152 71.5179 61.0235 71.9625 60.7169 72.3152C60.4255 72.6525 60.0269 72.8212 59.5209 72.8212H56.2549ZM62.0509 73.1662L61.8669 74.5922C61.6829 75.7422 61.0465 76.3172 59.9579 76.3172H40.5229L40.7299 74.8912C40.8832 73.7412 41.5119 73.1662 42.6159 73.1662H47.7679L47.8829 72.3842C47.9442 71.9089 48.0362 71.6099 48.1589 71.4872C48.2969 71.3645 48.5729 71.3032 48.9869 71.3032H53.1729L52.8969 73.1662H62.0509ZM46.0199 79.8822L45.7669 81.6532H54.7369L54.9899 79.8822H46.0199Z" fill="#F5C451"/>
<path d="M74.3391 83.8842L76.8231 66.1742C76.9458 65.3462 77.1911 64.7789 77.5591 64.4722C77.9425 64.1655 78.6171 64.0122 79.5831 64.0122H90.8761C90.2935 64.4875 89.8948 65.4075 89.6801 66.7722L87.5871 81.7222C87.4645 82.5502 87.2115 83.1175 86.8281 83.4242C86.4601 83.7309 85.7931 83.8842 84.8271 83.8842H74.3391ZM88.8291 84.6892L91.4971 65.7142C91.6198 64.8862 91.8651 64.3189 92.2331 64.0122C92.6165 63.7055 93.2911 63.5522 94.2571 63.5522H97.1551C96.4498 64.2115 96.0128 65.1622 95.8441 66.4042L95.1311 71.4412H97.5461L97.0171 75.2362H94.6021L93.5671 82.5272C93.4445 83.3552 93.1915 83.9225 92.8081 84.2292C92.4401 84.5359 91.7731 84.6892 90.8071 84.6892H88.8291ZM81.0091 67.4622L79.1921 80.4342H83.4011L85.2181 67.4622H81.0091Z" fill="#F5C451"/>
<path d="M137.271 73.0537H139.686C139.977 73.0537 140.154 73.115 140.215 73.2377C140.276 73.3604 140.269 73.575 140.192 73.8817C140.023 74.6637 139.694 75.507 139.203 76.4117C138.728 77.3164 138.199 78.1137 137.616 78.8037L139.939 82.1617C140.138 82.4684 140.169 82.7137 140.031 82.8977C139.893 83.097 139.663 83.1967 139.341 83.1967H135.891L134.994 81.7937C134.427 82.3304 133.652 82.775 132.671 83.1277C131.69 83.4804 130.639 83.7104 129.52 83.8177C127.849 83.9557 126.538 83.5954 125.587 82.7367C124.652 81.8934 124.299 80.6514 124.529 79.0107C124.851 76.7107 126.338 74.564 128.991 72.5707C127.749 71.2674 127.251 69.7647 127.496 68.0627C127.68 66.744 128.301 65.6707 129.359 64.8427C130.417 63.9994 131.72 63.57 133.269 63.5547C134.879 63.5394 136.067 63.984 136.834 64.8887C137.601 65.778 137.9 66.8667 137.731 68.1547C137.608 69.1667 137.164 70.1097 136.397 70.9837C135.63 71.8424 134.741 72.5707 133.729 73.1687L135.592 75.8367C135.975 75.438 136.29 74.6714 136.535 73.5367C136.566 73.414 136.596 73.322 136.627 73.2607C136.673 73.1994 136.742 73.1534 136.834 73.1227C136.941 73.0767 137.087 73.0537 137.271 73.0537ZM128.347 78.1367C128.117 78.9954 128.171 79.647 128.508 80.0917C128.861 80.5364 129.482 80.682 130.371 80.5287C130.862 80.452 131.391 80.291 131.958 80.0457C132.541 79.785 133.008 79.486 133.361 79.1487L130.716 75.2157C129.397 76.2737 128.608 77.2474 128.347 78.1367ZM131.199 68.1317C131.046 69.205 131.352 70.0867 132.119 70.7767C133.238 70.056 133.859 69.2127 133.982 68.2467C134.151 67.0967 133.775 66.5217 132.855 66.5217C132.426 66.5217 132.058 66.6674 131.751 66.9587C131.46 67.25 131.276 67.641 131.199 68.1317Z" fill="#03594E"/>
<path d="M174.574 80.1812L174.321 82.0672C174.137 83.2172 173.501 83.7922 172.412 83.7922H153L153.276 81.9062C153.429 80.7562 154.05 80.1812 155.139 80.1812H161.579L162.062 76.7082H154.679L154.932 74.9372C155.085 73.7872 155.722 73.2122 156.841 73.2122H158.566L159.371 67.5082H156.243L156.473 65.7372C156.657 64.5872 157.293 64.0122 158.382 64.0122H175.885L175.632 65.7832C175.479 66.9332 174.85 67.5082 173.746 67.5082H172.251L171.446 73.2122H174.85L174.597 74.9832C174.444 76.1332 173.807 76.7082 172.688 76.7082H166.961L166.478 80.1812H174.574ZM164.086 67.5082L163.281 73.2122H166.731L167.536 67.5082H164.086Z" fill="#00BF96"/>
<path d="M187.074 80.4112L186.844 82.0442C186.69 83.1942 186.062 83.7692 184.958 83.7692H175.965L177.299 74.1092C177.391 73.4192 177.59 72.9209 177.897 72.6142C178.219 72.3075 178.732 72.1542 179.438 72.1542H182.796L183.463 67.3702H178.242L178.472 65.7372C178.625 64.5872 179.254 64.0122 180.358 64.0122H188.799C188.247 64.5029 187.886 65.3385 187.718 66.5192L186.706 73.7412C186.614 74.3699 186.407 74.8222 186.085 75.0982C185.778 75.3742 185.326 75.5122 184.728 75.5122H181.347L180.657 80.4112H187.074ZM187.35 84.6892L188.684 75.1672H186.683L187.074 72.3842C187.15 71.7709 187.258 71.3952 187.396 71.2572C187.549 71.1192 187.917 71.0502 188.5 71.0502H189.259L190.018 65.7142C190.14 64.8555 190.355 64.2805 190.662 63.9892C190.968 63.6979 191.597 63.5522 192.548 63.5522H195.17C194.694 64.0429 194.395 64.8325 194.273 65.9212L191.927 82.5502C191.804 83.3629 191.582 83.9225 191.26 84.2292C190.938 84.5359 190.401 84.6892 189.65 84.6892H187.35ZM192.18 84.6892L194.848 65.7142C194.97 64.8555 195.185 64.2805 195.492 63.9892C195.798 63.6979 196.427 63.5522 197.378 63.5522H200.23C199.616 64.0735 199.233 64.8709 199.08 65.9442L196.757 82.5502C196.634 83.3629 196.412 83.9225 196.09 84.2292C195.768 84.5359 195.231 84.6892 194.48 84.6892H192.18Z" fill="#00BF96"/>
<path d="M211.362 63.6672H215.088C214.382 64.4032 213.968 65.1775 213.846 65.9902L213.754 66.7262C213.646 67.4775 213.662 68.1982 213.8 68.8882C213.953 69.5782 214.244 70.2605 214.674 70.9352C215.103 71.6099 215.778 72.1925 216.698 72.6832C217.618 73.1739 218.737 73.5189 220.056 73.7182L219.527 77.4442C217.426 77.4749 215.563 77.0915 213.938 76.2942C212.328 75.4969 211.224 74.3315 210.626 72.7982C209.69 74.3315 208.234 75.5199 206.256 76.3632C204.278 77.1912 202.3 77.5899 200.322 77.5592L200.851 73.8332C202.001 73.6645 203.028 73.3962 203.933 73.0282C204.853 72.6449 205.596 72.2232 206.164 71.7632C206.746 71.2879 207.245 70.7435 207.659 70.1302C208.073 69.5169 208.372 68.9265 208.556 68.3592C208.755 67.7919 208.901 67.1939 208.993 66.5652L209.154 65.3462C209.246 64.7482 209.46 64.3189 209.798 64.0582C210.15 63.7975 210.672 63.6672 211.362 63.6672ZM220.125 79.9512L219.849 81.9522C219.695 83.1022 219.059 83.6772 217.94 83.6772H198.528L198.827 81.6762C198.98 80.5262 199.601 79.9512 200.69 79.9512H220.125Z" fill="#00BF96"/>
<path d="M242.009 74.4082L241.756 76.1792C241.602 77.3292 240.974 77.9042 239.87 77.9042H223.563L225.219 66.0822C225.311 65.3922 225.533 64.8785 225.886 64.5412C226.238 64.1885 226.783 64.0122 227.519 64.0122H242.975L242.722 65.7832C242.538 66.9332 241.901 67.5082 240.813 67.5082H229.957L229.727 69.1412H242.239L241.986 70.9122C241.832 72.0622 241.204 72.6372 240.1 72.6372H229.244L228.991 74.4082H242.009ZM242.699 79.9512L242.423 81.9522C242.269 83.1022 241.633 83.6772 240.514 83.6772H221.102L221.401 81.6762C221.554 80.5262 222.175 79.9512 223.264 79.9512H242.699Z" fill="#00BF96"/>
<rect x="2" y="49.6207" width="262.975" height="49" rx="24.5" stroke="#03594E" stroke-width="4"/>
</svg>
