<svg width="380" height="378" viewBox="0 0 380 378" fill="none" xmlns="http://www.w3.org/2000/svg">
<path d="M190 21.868C138.386 21.868 96.5444 63.7093 96.5444 115.323C96.5444 166.937 138.386 208.778 190 208.778C241.613 208.778 283.455 166.937 283.455 115.323C283.455 88.7452 272.36 64.7585 254.549 47.7419C243.236 35.8883 205.087 8.17967 190 1.78668V21.868Z" fill="#F5C451"/>
<path fill-rule="evenodd" clip-rule="evenodd" d="M190 208.006C138.812 208.006 97.3167 166.511 97.3167 115.323C97.3167 64.1359 138.812 22.6404 190 22.6404H190.772V2.97115C198.381 6.44455 210.994 14.5611 223.24 23.3443C236.074 32.5502 248.388 42.405 253.991 48.2753L254.003 48.2882L254.016 48.3005C271.68 65.1774 282.682 88.9648 282.682 115.323C282.682 166.511 241.187 208.006 190 208.006ZM95.772 115.323C95.772 167.364 137.959 209.551 190 209.551C242.04 209.551 284.227 167.364 284.227 115.323C284.227 88.5321 273.045 64.3514 255.096 47.1958C249.38 41.2112 236.971 31.2926 224.14 22.0891C211.306 12.8833 197.933 4.30968 190.301 1.07564L189.227 0.620682V21.0988C137.542 21.5137 95.772 63.5405 95.772 115.323Z" fill="black"/>
<path fill-rule="evenodd" clip-rule="evenodd" d="M238.612 107.808C238.21 117.684 234.206 133.485 223.316 133.852C211.828 134.244 209.039 118.918 208.013 106.314C206.93 93.0195 209.027 76.8131 221.188 76.7055C234.389 76.5915 239.147 94.8934 238.619 107.808H238.612Z" fill="white"/>
<path fill-rule="evenodd" clip-rule="evenodd" d="M236.328 106.964L236.297 107.713C236.104 112.45 235.042 118.549 232.793 123.425C230.517 128.359 227.368 131.397 223.238 131.536L223.237 131.536C220.939 131.615 219.166 130.925 217.707 129.708C216.195 128.447 214.922 126.535 213.876 124.056C211.769 119.064 210.834 112.403 210.323 106.126C209.792 99.6087 210.067 92.5939 211.832 87.2974C212.71 84.6641 213.908 82.6027 215.417 81.2113C216.879 79.8636 218.736 79.0445 221.208 79.0225C226.481 78.977 230.34 82.5354 232.938 88.3203C235.426 93.8604 236.472 100.928 236.328 106.964ZM238.619 107.808C239.147 94.8934 234.389 76.5915 221.188 76.7055C209.027 76.8131 206.93 93.0195 208.013 106.314C209.039 118.918 211.828 134.244 223.316 133.852C234.206 133.485 238.21 117.684 238.612 107.808H238.619Z" fill="black"/>
<path fill-rule="evenodd" clip-rule="evenodd" d="M228.592 98.9239C228.371 104.262 226.169 112.803 220.179 113.002C213.861 113.214 212.327 104.929 211.763 98.1164C211.167 90.9302 212.32 82.17 219.009 82.1119C226.269 82.0503 228.887 91.9431 228.596 98.9239H228.592Z" fill="black"/>
<path fill-rule="evenodd" clip-rule="evenodd" d="M172.19 107.808C171.787 117.684 167.784 133.485 156.894 133.852C145.405 134.244 142.617 118.918 141.591 106.314C140.508 93.0195 142.604 76.8131 154.766 76.7055C167.966 76.5915 172.725 94.8934 172.196 107.808H172.19Z" fill="white"/>
<path fill-rule="evenodd" clip-rule="evenodd" d="M169.905 106.964L169.875 107.713C169.682 112.45 168.619 118.549 166.37 123.425C164.095 128.359 160.946 131.397 156.815 131.536L156.814 131.536C154.517 131.615 152.744 130.925 151.284 129.708C149.773 128.447 148.5 126.535 147.454 124.056C145.347 119.064 144.411 112.403 143.9 106.126C143.37 99.6087 143.644 92.5939 145.41 87.2974C146.288 84.6641 147.486 82.6027 148.995 81.2113C150.457 79.8636 152.314 79.0445 154.786 79.0225C160.059 78.977 163.918 82.5354 166.516 88.3203C169.004 93.8604 170.05 100.928 169.905 106.964ZM172.196 107.808C172.725 94.8934 167.966 76.5915 154.766 76.7055C142.604 76.8131 140.508 93.0195 141.591 106.314C142.617 118.918 145.405 134.244 156.894 133.852C167.784 133.485 171.787 117.684 172.19 107.808H172.196Z" fill="black"/>
<path fill-rule="evenodd" clip-rule="evenodd" d="M162.17 98.9239C161.948 104.262 159.746 112.803 153.757 113.002C147.438 113.214 145.905 104.929 145.34 98.1164C144.745 90.9302 145.898 82.17 152.587 82.1119C159.847 82.0503 162.464 91.9431 162.173 98.9239H162.17Z" fill="black"/>
<path fill-rule="evenodd" clip-rule="evenodd" d="M126.575 68.9154C126.575 68.9167 126.575 68.9189 126.576 68.9181C126.621 68.8755 137.119 59.1007 148.88 63.5221C153.028 65.0812 159.379 63.8348 155.964 61.0099C154.72 59.9806 153.208 59.0543 151.379 58.2764C135.094 51.3501 126.388 69.0363 126.572 68.9142C126.573 68.9135 126.575 68.9141 126.575 68.9154Z" fill="black"/>
<path fill-rule="evenodd" clip-rule="evenodd" d="M248.124 63.5425L248.124 63.5453C248.069 63.516 235.399 56.7912 225.183 64.106C221.579 66.6856 215.123 67.1253 217.69 63.5129C218.625 62.1967 219.846 60.9106 221.411 59.6859C235.349 48.7806 248.126 63.5407 248.126 63.5407L248.124 63.5425Z" fill="black"/>
<path d="M181.88 126.136C181.76 126.136 181.64 126.119 181.52 126.089C180.917 125.929 180.591 125.404 180.789 124.916C181.124 124.094 184.218 116.884 189.814 116.868H189.839C195.456 116.868 199.021 123.449 199.173 123.729C199.425 124.201 199.157 124.746 198.574 124.949C197.992 125.153 197.315 124.936 197.067 124.465C196.212 122.867 193.251 118.726 189.843 118.726H189.827C186.464 118.736 183.738 123.619 182.97 125.498C182.809 125.889 182.363 126.136 181.88 126.136Z" fill="black"/>
<path fill-rule="evenodd" clip-rule="evenodd" d="M224.375 145.127C224.977 145.343 225.29 146.007 225.074 146.609L223.983 146.217C225.074 146.609 225.074 146.61 225.073 146.611L225.073 146.613L225.071 146.618L225.065 146.634C225.06 146.646 225.054 146.662 225.046 146.683C225.03 146.724 225.008 146.78 224.979 146.851C224.92 146.993 224.833 147.194 224.713 147.446C224.474 147.948 224.105 148.653 223.574 149.492C222.513 151.17 220.805 153.387 218.198 155.597C212.965 160.034 204.198 164.368 190 164.368C174.217 164.368 165.234 160.055 160.181 155.581C157.663 153.352 156.153 151.11 155.269 149.406C154.827 148.555 154.542 147.838 154.365 147.325C154.277 147.068 154.215 146.862 154.175 146.715C154.155 146.642 154.14 146.583 154.129 146.54C154.124 146.518 154.12 146.501 154.117 146.487L154.113 146.47L154.112 146.464L154.111 146.462C154.111 146.46 154.111 146.459 155.244 146.217L154.111 146.459C153.977 145.834 154.376 145.218 155.002 145.084C155.626 144.951 156.24 145.348 156.376 145.971C156.376 145.971 156.376 145.97 156.376 145.971M156.376 145.971C156.376 145.971 156.376 145.972 156.376 145.972L156.381 145.993C156.386 146.014 156.395 146.051 156.409 146.101C156.437 146.203 156.484 146.362 156.556 146.57C156.699 146.986 156.941 147.597 157.325 148.339C158.094 149.821 159.437 151.827 161.717 153.846C166.26 157.868 174.656 162.051 190 162.051C203.686 162.051 211.912 157.889 216.699 153.83C219.103 151.792 220.662 149.761 221.616 148.253C222.093 147.499 222.418 146.876 222.621 146.45C222.723 146.236 222.793 146.072 222.838 145.965C222.86 145.912 222.875 145.873 222.884 145.85L222.893 145.826L222.893 145.826L222.894 145.825C223.11 145.223 223.773 144.911 224.375 145.127" fill="black"/>
<path fill-rule="evenodd" clip-rule="evenodd" d="M234.179 146.768C234.54 147.296 234.405 148.017 233.877 148.378L233.223 147.422C233.877 148.378 233.876 148.378 233.876 148.379L233.875 148.379L233.872 148.381L233.865 148.386L233.847 148.398C233.833 148.407 233.815 148.419 233.792 148.433C233.747 148.462 233.684 148.5 233.607 148.545C233.452 148.634 233.233 148.751 232.959 148.874C232.413 149.119 231.634 149.396 230.697 149.522C228.775 149.778 226.278 149.378 223.904 147.004C221.363 144.463 220.646 142.028 220.649 140.14C220.651 139.215 220.826 138.456 221.005 137.92C221.095 137.652 221.186 137.438 221.259 137.285C221.296 137.208 221.328 137.146 221.353 137.1C221.365 137.077 221.376 137.057 221.385 137.042L221.396 137.022L221.401 137.014L221.403 137.011L221.404 137.009C221.404 137.009 221.405 137.008 222.398 137.605L221.405 137.008C221.734 136.46 222.446 136.282 222.994 136.612C223.54 136.94 223.718 137.645 223.396 138.192C223.396 138.192 223.396 138.192 223.396 138.192C223.396 138.193 223.394 138.196 223.392 138.2C223.385 138.213 223.371 138.24 223.352 138.279C223.315 138.358 223.26 138.485 223.202 138.656C223.087 138.999 222.967 139.509 222.966 140.144C222.964 141.378 223.409 143.232 225.542 145.365C227.355 147.178 229.108 147.396 230.39 147.225C231.054 147.136 231.614 146.938 232.009 146.76C232.204 146.672 232.355 146.592 232.452 146.536C232.501 146.508 232.535 146.487 232.555 146.474C232.565 146.468 232.571 146.464 232.574 146.462L232.572 146.463L232.571 146.464L232.57 146.465M232.574 146.462C232.574 146.462 232.574 146.462 232.574 146.462L232.574 146.462L232.575 146.461C232.574 146.462 232.574 146.462 232.574 146.462Z" fill="black"/>
<g style="mix-blend-mode:multiply">
<g filter="url(#filter0_f_1350_3607)">
<path fill-rule="evenodd" clip-rule="evenodd" d="M125.952 148.464C125.551 142.349 126.926 132.713 140.394 131.639C155.212 130.458 159.927 152.597 149.741 158.525C139.878 164.268 126.707 159.937 125.956 148.464H125.952Z" fill="#FE7D7B"/>
</g>
<path d="M141.622 148.815C141.622 149.241 141.277 149.587 140.85 149.587C140.423 149.587 140.078 149.241 140.078 148.815C140.078 148.388 140.423 148.042 140.85 148.042C141.277 148.042 141.622 148.388 141.622 148.815Z" fill="#CC6563"/>
<path d="M137.479 143.9C137.479 144.326 137.133 144.672 136.707 144.672C136.28 144.672 135.935 144.326 135.935 143.9C135.935 143.473 136.28 143.127 136.707 143.127C137.133 143.127 137.479 143.473 137.479 143.9Z" fill="#CC6563"/>
<path d="M145.765 143.9C145.765 144.326 145.419 144.672 144.993 144.672C144.566 144.672 144.22 144.326 144.22 143.9C144.22 143.473 144.566 143.127 144.993 143.127C145.419 143.127 145.765 143.473 145.765 143.9Z" fill="#CC6563"/>
</g>
<g style="mix-blend-mode:multiply">
<g filter="url(#filter1_f_1350_3607)">
<path fill-rule="evenodd" clip-rule="evenodd" d="M224.409 148.464C224.009 142.349 225.383 132.713 238.851 131.639C253.669 130.458 258.384 152.597 248.199 158.525C238.335 164.268 225.165 159.937 224.413 148.464H224.409Z" fill="#FE7D7B"/>
</g>
<path d="M239.712 148.815C239.712 149.241 239.366 149.587 238.94 149.587C238.513 149.587 238.167 149.241 238.167 148.815C238.167 148.388 238.513 148.042 238.94 148.042C239.366 148.042 239.712 148.388 239.712 148.815Z" fill="#CC6563"/>
<path d="M235.569 143.9C235.569 144.326 235.223 144.672 234.797 144.672C234.37 144.672 234.024 144.326 234.024 143.9C234.024 143.473 234.37 143.127 234.797 143.127C235.223 143.127 235.569 143.473 235.569 143.9Z" fill="#CC6563"/>
<path d="M243.855 143.9C243.855 144.326 243.509 144.672 243.082 144.672C242.656 144.672 242.31 144.326 242.31 143.9C242.31 143.473 242.656 143.127 243.082 143.127C243.509 143.127 243.855 143.473 243.855 143.9Z" fill="#CC6563"/>
</g>
<path d="M269.015 137.554C267.378 132.636 271.445 127.593 276.623 127.826C284.514 128.18 295.023 128.08 302.724 125.876C312.392 123.109 323.437 115.367 330.829 109.52C334.884 106.312 341.118 107.96 342.751 112.867C343.63 115.506 342.885 118.414 340.77 120.221C334.313 125.737 319.884 137.194 307.657 140.694C297.425 143.622 282.235 142.837 274.816 142.204C272.116 141.974 269.871 140.125 269.015 137.554Z" fill="black"/>
<path d="M321.3 85.9738C322.77 88.3109 326.06 89.5106 327.478 90.9939C328.523 92.0863 328.646 93.9868 328.549 95.4628C328.457 96.865 328.28 98.2755 328.514 99.6611C328.579 100.045 328.658 100.461 328.754 100.893C327.196 100.419 325.387 100.97 324.548 102.524C323.967 103.599 324.016 104.902 324.725 105.898C326.622 108.564 329.786 113.274 334.521 116.139C340.109 119.52 347.076 119.751 350.799 119.981C352.056 120.059 353.22 119.376 353.82 118.267C354.527 116.958 354.273 115.46 353.434 114.385C362.617 111.771 364.184 101.235 368.027 92.1526C368.681 90.6079 382.612 83.3798 378.454 77.8639C374.376 72.4541 366.482 79.2799 361.848 82.8843C357.998 85.8792 368.417 68.9009 368.789 68.2957C368.801 68.2765 368.805 68.2708 368.817 68.2516C368.948 68.0392 369.775 66.6199 369.688 64.7337C369.592 62.6858 368.919 59.8821 366.096 58.9412C361.462 57.3965 359.145 60.4859 358.373 61.2583C353.352 66.2786 352.58 75.9328 351.035 75.9328C349.104 75.9328 353.023 57.9262 345.629 57.7826C338.491 57.644 338.888 68.3177 339.728 75.0955C339.795 75.6382 339.676 76.1854 339.372 76.6403C338.627 77.757 337.115 79.9401 335.816 81.2919C335.121 82.0155 334.05 81.8608 333.41 81.0876C331.452 78.7194 329.798 76.26 325.547 75.9328C323.453 75.7717 322.66 76.0797 320.527 77.8639C318.394 79.648 319.489 83.0953 321.3 85.9738Z" fill="white"/>
<path fill-rule="evenodd" clip-rule="evenodd" d="M340.445 63.9943C339.782 67.3638 340.076 71.6221 340.495 75.0004C340.583 75.7164 340.427 76.4514 340.015 77.0689C339.272 78.1829 337.725 80.4196 336.373 81.8269C335.29 82.9545 333.682 82.6279 332.815 81.5796C332.658 81.3896 332.504 81.2012 332.353 81.0151C330.575 78.8364 329.058 76.9775 325.488 76.7028C324.483 76.6254 323.897 76.6709 323.329 76.8895C322.733 77.1191 322.087 77.5657 321.023 78.4561C320.241 79.1102 319.989 80.0953 320.197 81.3851C320.407 82.6867 321.076 84.1675 321.954 85.5624C322.593 86.5777 323.655 87.3848 324.833 88.1584C325.068 88.3129 325.32 88.474 325.573 88.6352C325.913 88.8522 326.253 89.0694 326.553 89.2717C327.095 89.6367 327.623 90.0272 328.037 90.46C328.701 91.1549 329.037 92.0656 329.201 92.9421C329.367 93.8244 329.371 94.7387 329.32 95.5135C329.303 95.7692 329.284 96.0192 329.266 96.2644C329.178 97.4273 329.099 98.4835 329.276 99.5326C329.338 99.9047 329.415 100.307 329.508 100.724C329.847 102.235 330.38 103.812 331.171 104.799C331.438 105.132 331.384 105.618 331.051 105.885C330.718 106.152 330.232 106.098 329.965 105.765C329.044 104.616 328.472 102.984 328.113 101.536C326.971 101.357 325.797 101.837 325.227 102.891C324.779 103.721 324.825 104.707 325.354 105.45C325.464 105.604 325.577 105.764 325.695 105.93C327.63 108.663 330.61 112.869 334.921 115.478C340.027 118.567 346.354 118.943 350.214 119.172C350.433 119.185 350.644 119.198 350.846 119.21C351.788 119.268 352.676 118.758 353.14 117.9C353.6 117.048 353.54 116.077 353.098 115.273C352.232 115.485 351.308 115.631 350.322 115.707C349.897 115.74 349.526 115.422 349.493 114.996C349.46 114.571 349.778 114.2 350.204 114.167C351.306 114.082 352.308 113.903 353.223 113.642C357.517 112.42 360.068 109.354 362.041 105.353C363.03 103.348 363.86 101.134 364.691 98.8287C364.819 98.4722 364.948 98.1134 365.077 97.753C365.778 95.7953 366.496 93.7901 367.316 91.8515C367.417 91.6127 367.599 91.4072 367.747 91.2563C367.912 91.0886 368.117 90.9091 368.344 90.7235C368.798 90.3522 369.397 89.9093 370.059 89.4218C370.113 89.3823 370.167 89.3424 370.222 89.3021C371.53 88.3397 373.102 87.1834 374.534 85.9185C376.037 84.5908 377.316 83.2027 377.979 81.8634C378.621 80.5659 378.652 79.4094 377.837 78.3287C376.957 77.1606 375.912 76.6845 374.755 76.6306C373.553 76.5747 372.175 76.9736 370.696 77.689C368.122 78.9333 365.489 81.0051 363.298 82.7288C362.962 82.9934 362.636 83.2498 362.323 83.4938C362.068 83.6919 361.788 83.8779 361.507 83.9611C361.362 84.0041 361.138 84.0435 360.893 83.9675C360.614 83.8811 360.425 83.6828 360.325 83.4668C360.237 83.2776 360.223 83.09 360.223 82.9589C360.224 82.8193 360.244 82.6795 360.27 82.5499C360.322 82.2908 360.416 81.9948 360.533 81.6828C360.996 80.4433 361.976 78.537 363.059 76.5678C365.238 72.6042 367.945 68.1946 368.131 67.8911C368.14 67.8776 368.145 67.8683 368.15 67.861L368.16 67.8456C368.259 67.6852 368.993 66.4271 368.916 64.7695C368.824 62.7765 368.182 60.4503 365.852 59.6738C363.747 58.9721 362.23 59.3308 361.153 59.9108C360.235 60.4049 359.628 61.0533 359.191 61.5197C359.092 61.6252 359.002 61.7213 358.919 61.8043C356.549 64.1746 355.146 67.6856 354.133 70.7223C353.944 71.2917 353.765 71.8534 353.595 72.3859C353.326 73.2322 353.08 74.0047 352.851 74.6165C352.663 75.1185 352.462 75.5818 352.235 75.9303C352.038 76.2321 351.655 76.7051 351.035 76.7051C350.547 76.7051 350.236 76.396 350.075 76.1279C349.925 75.8778 349.844 75.5769 349.793 75.3006C349.687 74.735 349.653 73.9704 349.644 73.1259C349.636 72.5005 349.642 71.8202 349.647 71.1012C349.658 69.8089 349.669 68.3917 349.609 66.9432C349.517 64.6984 349.256 62.5489 348.607 60.9728C348.286 60.1924 347.888 59.5967 347.409 59.1957C346.943 58.8056 346.367 58.5693 345.614 58.5547C344.051 58.5243 342.958 59.0738 342.158 59.9853C341.332 60.9281 340.776 62.3106 340.445 63.9943ZM354.598 114.821C355.13 115.981 355.181 117.372 354.499 118.634C353.765 119.993 352.325 120.849 350.751 120.752C350.539 120.739 350.314 120.726 350.08 120.712C346.252 120.487 339.569 120.095 334.122 116.799C329.523 114.017 326.374 109.565 324.454 106.851C324.329 106.675 324.21 106.506 324.096 106.346C323.207 105.097 323.155 103.476 323.868 102.156C324.691 100.635 326.249 99.9145 327.782 99.9586C327.772 99.9016 327.762 99.8451 327.752 99.7894C327.541 98.5368 327.639 97.2567 327.729 96.0907C327.747 95.8596 327.764 95.6329 327.779 95.4119C327.825 94.7107 327.816 93.9367 327.683 93.2267C327.549 92.5108 327.301 91.925 326.92 91.5276C326.625 91.2187 326.21 90.903 325.69 90.5529C325.39 90.3507 325.091 90.16 324.776 89.959C324.525 89.7993 324.264 89.6331 323.985 89.4494C322.795 88.668 321.478 87.7068 320.646 86.385C319.713 84.9014 318.929 83.2192 318.672 81.6315C318.414 80.032 318.681 78.4014 320.032 77.2714C321.1 76.3776 321.917 75.7782 322.774 75.448C323.66 75.1068 324.518 75.0788 325.607 75.1627C329.856 75.4897 331.765 77.8394 333.535 80.0196C333.693 80.2133 333.849 80.4057 334.006 80.5953C334.418 81.0934 334.952 81.0763 335.259 80.7568C336.505 79.4603 337.983 77.3309 338.73 76.2114C338.925 75.9192 339.007 75.5598 338.962 75.1904C338.54 71.7909 338.216 67.3234 338.929 63.6962C339.286 61.8816 339.917 60.1981 340.997 58.9667C342.104 57.7041 343.638 56.9713 345.644 57.0103C346.74 57.0316 347.658 57.3894 348.401 58.0115C349.131 58.6227 349.654 59.4574 350.036 60.3853C350.793 62.2258 351.059 64.6049 351.153 66.8797C351.213 68.3571 351.202 69.8628 351.192 71.184C351.187 71.8886 351.182 72.5407 351.188 73.108C351.194 73.652 351.211 74.1123 351.243 74.4831C351.294 74.3615 351.348 74.2257 351.404 74.0751C351.622 73.4922 351.846 72.7886 352.103 71.98C352.274 71.4428 352.459 70.8593 352.668 70.2338C353.683 67.1884 355.177 63.3621 357.827 60.712C357.877 60.662 357.94 60.5933 358.017 60.5102C358.436 60.0584 359.25 59.1807 360.42 58.5507C361.853 57.779 363.811 57.3653 366.341 58.2084C369.657 59.3137 370.361 62.5948 370.459 64.6978C370.557 66.8126 369.637 68.3929 369.474 68.6574C369.466 68.6701 369.46 68.679 369.456 68.6853L369.447 68.7001C369.262 69.0019 366.572 73.384 364.412 77.3121C363.508 78.9559 362.715 80.4877 362.233 81.6014C362.263 81.5774 362.294 81.5534 362.324 81.5293C364.501 79.8152 367.284 77.6227 370.023 76.2983C371.606 75.5329 373.256 75.0145 374.826 75.0876C376.441 75.1627 377.912 75.8621 379.071 77.3988C380.335 79.0761 380.184 80.8916 379.363 82.5489C378.563 84.1645 377.098 85.7142 375.556 87.0762C374.071 88.3881 372.45 89.5808 371.151 90.5365C371.091 90.5801 371.033 90.6233 370.975 90.6659C370.304 91.1595 369.74 91.5777 369.323 91.919C369.114 92.0896 368.957 92.2291 368.848 92.3398C368.764 92.4257 368.734 92.4682 368.73 92.4727C367.932 94.3616 367.233 96.3127 366.534 98.2645C366.404 98.6272 366.274 98.9899 366.144 99.3523C365.313 101.659 364.457 103.945 363.426 106.036C361.497 109.948 358.908 113.265 354.598 114.821ZM361.768 82.9673C361.768 82.9679 361.768 82.9683 361.768 82.9687C361.768 82.9703 361.768 82.9711 361.768 82.9712C361.768 82.9712 361.768 82.9699 361.768 82.9673ZM350.837 75.2184C350.837 75.2181 350.84 75.2152 350.846 75.2109C350.84 75.2166 350.837 75.2188 350.837 75.2184Z" fill="black"/>
<path fill-rule="evenodd" clip-rule="evenodd" d="M340.41 105.229C340.684 105.557 341.171 105.6 341.498 105.326C341.703 105.155 341.876 104.898 342.015 104.663C342.166 104.406 342.323 104.089 342.479 103.732C342.792 103.016 343.118 102.095 343.391 101.073C343.933 99.0486 344.3 96.5198 343.877 94.3492C343.157 90.6518 341.144 88.6345 338.911 86.3957C338.505 85.9885 338.091 85.5739 337.677 85.1405C337.382 84.8323 336.893 84.8213 336.585 85.1162C336.277 85.411 336.266 85.8999 336.56 86.2082C337.016 86.6841 337.454 87.1256 337.872 87.5469C340.085 89.7761 341.737 91.4403 342.361 94.6445C342.718 96.4808 342.416 98.7447 341.899 100.674C341.644 101.629 341.343 102.475 341.064 103.114C340.924 103.433 340.794 103.691 340.683 103.88C340.584 104.049 340.523 104.121 340.509 104.138C340.506 104.142 340.505 104.143 340.507 104.141C340.18 104.415 340.136 104.902 340.41 105.229Z" fill="black"/>
<path d="M110.985 137.554C112.622 132.636 108.555 127.593 103.377 127.826C95.4857 128.18 84.9766 128.08 77.2756 125.876C67.6079 123.109 56.5633 115.367 49.1715 109.52C45.1156 106.312 38.8824 107.96 37.2491 112.867C36.3705 115.506 37.1148 118.414 39.2297 120.221C45.6869 125.737 60.116 137.194 72.3428 140.694C82.5749 143.622 97.7646 142.837 105.184 142.204C107.884 141.974 110.129 140.125 110.985 137.554Z" fill="black"/>
<path d="M58.7001 85.9738C57.2296 88.3109 53.9401 89.5106 52.5216 90.9939C51.4769 92.0863 51.3536 93.9868 51.4508 95.4628C51.5433 96.865 51.7197 98.2755 51.4861 99.6611C51.4215 100.045 51.3422 100.461 51.2455 100.893C52.8038 100.419 54.6125 100.97 55.4522 102.524C56.0333 103.599 55.9841 104.902 55.2753 105.898C53.3777 108.564 50.2138 113.274 45.4787 116.139C39.8906 119.52 32.9244 119.751 29.2015 119.981C27.9436 120.059 26.7797 119.376 26.1805 118.267C25.4729 116.958 25.7267 115.46 26.5657 114.385C17.383 111.771 15.8156 101.235 11.9729 92.1526C11.3194 90.6079 -2.6123 83.3798 1.54613 77.8639C5.6245 72.4541 13.5177 79.2799 18.1518 82.8843C22.0024 85.8792 11.583 68.9009 11.211 68.2957C11.1992 68.2765 11.1953 68.2708 11.1834 68.2516C11.0522 68.0392 10.2248 66.6199 10.3125 64.7337C10.4076 62.6858 11.081 59.8821 13.9038 58.9412C18.538 57.3965 20.8551 60.4859 21.6274 61.2583C26.6478 66.2786 27.4201 75.9328 28.9648 75.9328C30.8957 75.9328 26.9768 57.9262 34.3713 57.7826C41.5086 57.644 41.112 68.3177 40.2722 75.0955C40.2049 75.6382 40.324 76.1854 40.6276 76.6403C41.3729 77.757 42.8854 79.9401 44.1838 81.2919C44.8788 82.0155 45.9503 81.8608 46.5897 81.0876C48.5479 78.7194 50.2016 76.26 54.4525 75.9328C56.5469 75.7717 57.3402 76.0797 59.4729 77.8639C61.6055 79.648 60.5113 83.0953 58.7001 85.9738Z" fill="white"/>
<path fill-rule="evenodd" clip-rule="evenodd" d="M39.5551 63.9943C40.2178 67.3638 39.9241 71.6221 39.5055 75.0004C39.4168 75.7164 39.5728 76.4514 39.985 77.0689C40.7285 78.1829 42.2749 80.4196 43.6266 81.8269C44.7098 82.9545 46.318 82.6279 47.1847 81.5796C47.3418 81.3896 47.4956 81.2012 47.6474 81.0151C49.4251 78.8364 50.9418 76.9775 54.5116 76.7028C55.5169 76.6254 56.1029 76.6709 56.6706 76.8895C57.2667 77.1191 57.9128 77.5657 58.9771 78.4561C59.759 79.1102 60.0111 80.0953 59.8028 81.3851C59.5925 82.6867 58.9238 84.1675 58.0462 85.5624C57.4073 86.5777 56.3446 87.3848 55.1671 88.1584C54.9318 88.3129 54.6796 88.474 54.4272 88.6352C54.0874 88.8522 53.7472 89.0694 53.4469 89.2717C52.9051 89.6367 52.3771 90.0272 51.9632 90.46C51.2986 91.1549 50.963 92.0656 50.7987 92.9421C50.6333 93.8244 50.6289 94.7387 50.68 95.5135C50.6968 95.7692 50.7157 96.0192 50.7341 96.2644C50.8217 97.4273 50.9012 98.4835 50.7243 99.5326C50.6616 99.9047 50.5849 100.307 50.4917 100.724C50.1532 102.235 49.6202 103.812 48.8292 104.799C48.5625 105.132 48.6161 105.618 48.949 105.885C49.2819 106.152 49.768 106.098 50.0347 105.765C50.9557 104.616 51.528 102.984 51.8871 101.536C53.0287 101.357 54.2032 101.837 54.7726 102.891C55.2214 103.721 55.1747 104.707 54.6459 105.45C54.5362 105.604 54.4227 105.764 54.3054 105.93C52.3698 108.663 49.3905 112.869 45.0787 115.478C39.9731 118.567 33.6459 118.943 29.7856 119.172C29.5668 119.185 29.3559 119.198 29.1536 119.21C28.2124 119.268 27.3238 118.758 26.8598 117.9C26.3997 117.048 26.4595 116.077 26.9021 115.273C27.7682 115.485 28.6916 115.631 29.6778 115.707C30.1031 115.74 30.4744 115.422 30.5071 114.996C30.5398 114.571 30.2215 114.2 29.7962 114.167C28.6941 114.082 27.6921 113.903 26.777 113.642C22.4831 112.42 19.9322 109.354 17.9594 105.353C16.9705 103.348 16.14 101.134 15.3094 98.8287C15.1809 98.4722 15.0524 98.1134 14.9234 97.753C14.2223 95.7953 13.5043 93.7901 12.6841 91.8515C12.5831 91.6127 12.4013 91.4072 12.2528 91.2563C12.0878 91.0886 11.8825 90.9091 11.6557 90.7235C11.202 90.3522 10.6033 89.9093 9.94093 89.4218C9.8872 89.3823 9.83298 89.3424 9.77831 89.3021C8.47 88.3397 6.8982 87.1834 5.46624 85.9185C3.96325 84.5908 2.68419 83.2027 2.0211 81.8634C1.37862 80.5659 1.348 79.4094 2.16272 78.3287C3.04337 77.1606 4.08811 76.6845 5.24541 76.6306C6.44683 76.5747 7.82473 76.9736 9.30418 77.689C11.8776 78.9333 14.5107 81.0051 16.7015 82.7288C17.0379 82.9934 17.3638 83.2498 17.6775 83.4938C17.9322 83.6919 18.2121 83.8779 18.493 83.9611C18.6383 84.0041 18.862 84.0435 19.1071 83.9675C19.3859 83.8811 19.5748 83.6828 19.6749 83.4668C19.7627 83.2776 19.7774 83.09 19.7765 82.9589C19.7757 82.8193 19.7561 82.6795 19.7301 82.5499C19.6781 82.2908 19.584 81.9948 19.4674 81.6828C19.004 80.4433 18.0245 78.537 16.9415 76.5678C14.7617 72.6042 12.0554 68.1946 11.8688 67.8911C11.8605 67.8776 11.8546 67.8683 11.85 67.861L11.8403 67.8456C11.7413 67.6852 11.0068 66.4271 11.0839 64.7695C11.1764 62.7765 11.8183 60.4503 14.1479 59.6738C16.253 58.9721 17.7704 59.3308 18.8475 59.9108C19.7651 60.4049 20.3724 61.0533 20.8093 61.5197C20.9081 61.6252 20.9982 61.7213 21.0811 61.8043C23.4514 64.1746 24.8543 67.6856 25.8666 70.7223C26.0564 71.2917 26.2352 71.8534 26.4048 72.3859C26.6742 73.2322 26.9201 74.0047 27.1491 74.6165C27.337 75.1185 27.5375 75.5818 27.7651 75.9303C27.9621 76.2321 28.3447 76.7051 28.9646 76.7051C29.4528 76.7051 29.7637 76.396 29.9246 76.1279C30.0747 75.8778 30.1556 75.5769 30.2073 75.3006C30.313 74.735 30.3466 73.9704 30.3565 73.1259C30.3637 72.5005 30.3584 71.8202 30.3526 71.1012C30.3424 69.8089 30.3312 68.3917 30.3908 66.9432C30.4831 64.6984 30.7444 62.5489 31.3927 60.9728C31.7137 60.1924 32.1121 59.5967 32.5909 59.1957C33.0567 58.8056 33.6335 58.5693 34.3861 58.5547C35.9488 58.5243 37.0422 59.0738 37.8416 59.9853C38.6685 60.9281 39.224 62.3106 39.5551 63.9943ZM25.402 114.821C24.8697 115.981 24.8187 117.372 25.5009 118.634C26.2352 119.993 27.6746 120.849 29.249 120.752C29.4614 120.739 29.6855 120.726 29.9203 120.712C33.7484 120.487 40.4314 120.095 45.8784 116.799C50.4771 114.017 53.6263 109.565 55.5461 106.851C55.6707 106.675 55.7901 106.506 55.9043 106.346C56.7932 105.097 56.8449 103.476 56.1315 102.156C55.309 100.635 53.7514 99.9145 52.2185 99.9586C52.2285 99.9016 52.2382 99.8451 52.2476 99.7894C52.4587 98.5368 52.3605 97.2567 52.271 96.0907C52.2533 95.8596 52.2359 95.6329 52.2214 95.4119C52.1751 94.7107 52.1838 93.9367 52.3169 93.2267C52.4511 92.5108 52.6995 91.925 53.0796 91.5276C53.3749 91.2187 53.7901 90.903 54.3099 90.5529C54.61 90.3507 54.9091 90.16 55.2245 89.959C55.4749 89.7993 55.7357 89.6331 56.0152 89.4494C57.2047 88.668 58.522 87.7068 59.3536 86.385C60.2871 84.9014 61.0712 83.2192 61.3277 81.6315C61.5861 80.032 61.3191 78.4014 59.9683 77.2714C58.9 76.3776 58.0831 75.7782 57.2258 75.448C56.34 75.1068 55.4822 75.0788 54.3931 75.1627C50.1436 75.4897 48.2353 77.8394 46.4646 80.0196C46.3073 80.2133 46.151 80.4057 45.9943 80.5953C45.5824 81.0934 45.0476 81.0763 44.7407 80.7568C43.4955 79.4603 42.017 77.3309 41.2698 76.2114C41.0748 75.9192 40.9927 75.5598 41.0385 75.1904C41.4597 71.7909 41.7842 67.3234 41.0708 63.6962C40.7139 61.8816 40.0829 60.1981 39.003 58.9667C37.8956 57.7041 36.3621 56.9713 34.3561 57.0103C33.2602 57.0316 32.3419 57.3894 31.5991 58.0115C30.8693 58.6227 30.3457 59.4574 29.9641 60.3853C29.2071 62.2258 28.9409 64.6049 28.8473 66.8797C28.7866 68.3571 28.798 69.8628 28.8081 71.184C28.8135 71.8886 28.8185 72.5407 28.8119 73.108C28.8055 73.652 28.7889 74.1123 28.757 74.4831C28.7059 74.3615 28.6522 74.2257 28.5959 74.0751C28.3777 73.4922 28.154 72.7886 27.8969 71.98C27.7261 71.4428 27.5405 70.8593 27.332 70.2338C26.3169 67.1884 24.8234 63.3621 22.1734 60.712C22.1233 60.662 22.0596 60.5933 21.9826 60.5102C21.5637 60.0584 20.7498 59.1807 19.5798 58.5507C18.1467 57.779 16.1886 57.3653 13.6594 58.2084C10.3434 59.3137 9.63851 62.5948 9.5408 64.6978C9.44254 66.8126 10.3628 68.3929 10.5262 68.6574C10.534 68.6701 10.5396 68.679 10.5436 68.6853L10.5529 68.7001C10.7384 69.0019 13.4277 73.384 15.588 77.3121C16.492 78.9559 17.285 80.4877 17.7674 81.6014C17.737 81.5774 17.7065 81.5534 17.6758 81.5293C15.4994 79.8152 12.7156 77.6227 9.97662 76.2983C8.39372 75.5329 6.744 75.0145 5.17359 75.0876C3.55907 75.1627 2.08778 75.8621 0.929253 77.3988C-0.335258 79.0761 -0.183804 80.8916 0.636776 82.5489C1.43674 84.1645 2.90175 85.7142 4.44358 87.0762C5.92877 88.3881 7.55023 89.5808 8.84943 90.5365C8.90875 90.5801 8.96739 90.6233 9.02532 90.6659C9.69599 91.1595 10.2604 91.5777 10.6775 91.919C10.886 92.0896 11.043 92.2291 11.1518 92.3398C11.2364 92.4257 11.2656 92.4682 11.2697 92.4727C12.0679 94.3616 12.7667 96.3127 13.4657 98.2645C13.5956 98.6272 13.7255 98.9899 13.8561 99.3523C14.6871 101.659 15.5428 103.945 16.574 106.036C18.5031 109.948 21.0915 113.265 25.402 114.821ZM18.2318 82.9673C18.2319 82.9679 18.2319 82.9683 18.2319 82.9687C18.2319 82.9703 18.2318 82.9711 18.2318 82.9712C18.2318 82.9712 18.2317 82.9699 18.2318 82.9673ZM29.1626 75.2184C29.1626 75.2181 29.1597 75.2152 29.1537 75.2109C29.1596 75.2166 29.1625 75.2188 29.1626 75.2184Z" fill="black"/>
<path fill-rule="evenodd" clip-rule="evenodd" d="M39.59 105.229C39.3163 105.557 38.8292 105.6 38.5021 105.326C38.297 105.155 38.1235 104.898 37.9852 104.663C37.8342 104.406 37.677 104.089 37.5208 103.732C37.2079 103.016 36.8822 102.095 36.6086 101.073C36.0666 99.0486 35.7004 96.5198 36.1232 94.3492C36.8433 90.6518 38.8557 88.6345 41.089 86.3957C41.4952 85.9885 41.9087 85.5739 42.3232 85.1405C42.618 84.8323 43.1069 84.8213 43.4152 85.1162C43.7235 85.411 43.7344 85.8999 43.4396 86.2082C42.9844 86.6841 42.5462 87.1256 42.128 87.5469C39.9153 89.7761 38.2635 91.4403 37.6394 94.6445C37.2818 96.4808 37.5843 98.7447 38.1008 100.674C38.3564 101.629 38.6575 102.475 38.9363 103.114C39.076 103.433 39.206 103.691 39.3169 103.88C39.4163 104.049 39.4767 104.121 39.491 104.138C39.4945 104.142 39.4952 104.143 39.4932 104.141C39.8204 104.415 39.8638 104.902 39.59 105.229Z" fill="black"/>
<path d="M240.203 261.298C240.203 266.844 230.52 271.339 218.577 271.339C206.633 271.339 196.951 266.844 196.951 261.298C196.951 255.753 206.633 251.258 218.577 251.258C230.52 251.258 240.203 255.753 240.203 261.298Z" fill="white"/>
<path d="M240.203 261.298C240.203 266.844 230.52 271.339 218.577 271.339C206.633 271.339 196.951 266.844 196.951 261.298V286.139C196.951 288.048 197.648 289.883 199.036 291.192C206.329 298.07 231.876 318.662 261.818 302.359C264.044 301.147 265.379 298.79 265.297 296.257C265.21 293.583 264.934 290.114 264.146 287.559C260.738 276.511 254.358 268.314 243.202 266.373C241.261 266.035 240.589 263.23 240.203 261.298Z" fill="white"/>
<mask id="mask0_1350_3607" style="mask-type:alpha" maskUnits="userSpaceOnUse" x="196" y="251" width="70" height="58">
<path d="M240.203 261.298C240.203 266.844 230.52 271.339 218.577 271.339C206.633 271.339 196.951 266.844 196.951 261.298C196.951 255.753 206.633 251.258 218.577 251.258C230.52 251.258 240.203 255.753 240.203 261.298Z" fill="white"/>
<path d="M240.203 261.298C240.203 266.844 230.52 271.339 218.577 271.339C206.633 271.339 196.951 266.844 196.951 261.298V286.139C196.951 288.048 197.648 289.883 199.036 291.192C206.329 298.07 231.876 318.662 261.818 302.359C264.044 301.147 265.379 298.79 265.297 296.257C265.21 293.583 264.934 290.114 264.146 287.559C260.738 276.511 254.358 268.314 243.202 266.373C241.261 266.035 240.589 263.23 240.203 261.298Z" fill="white"/>
</mask>
<g mask="url(#mask0_1350_3607)">
<path d="M267.235 300.56C227.882 327.59 194.678 287.71 194.678 287.71C194.678 287.71 193.873 275.455 193.972 275.544C250.351 326.314 265.304 284.855 265.304 284.855L267.235 300.56Z" fill="#F5C451"/>
<path d="M267.235 300.56C227.882 327.59 194.678 287.71 194.678 287.71C194.678 287.71 193.873 275.455 193.972 275.544C250.351 326.314 265.304 284.855 265.304 284.855L267.235 300.56Z" fill="white" fill-opacity="0.1"/>
<path fill-rule="evenodd" clip-rule="evenodd" d="M194.678 287.71C194.678 287.71 227.882 327.59 267.235 300.56L265.304 284.855C265.304 284.855 264.927 285.9 264.068 287.455C259.563 295.602 241.807 317.747 195.564 276.963C195.417 276.833 195.27 276.703 195.123 276.572C194.741 276.234 194.358 275.891 193.972 275.544C193.971 275.543 193.97 275.544 193.968 275.548C193.968 275.548 193.968 275.548 193.968 275.548C193.953 275.606 193.977 276.196 194.024 277.087C194.034 277.276 194.045 277.478 194.056 277.691C194.249 281.184 194.678 287.71 194.678 287.71ZM195.686 279.122C195.73 279.873 195.779 280.685 195.83 281.498C195.924 283.023 196.021 284.55 196.095 285.697C196.132 286.271 196.163 286.749 196.185 287.083L196.185 287.092C196.195 287.103 196.206 287.115 196.217 287.127C196.458 287.4 196.822 287.802 197.302 288.307C198.261 289.318 199.68 290.739 201.507 292.365C205.166 295.62 210.434 299.671 216.888 302.889C229.573 309.213 246.79 312.319 265.587 299.81L264.374 289.947C264.061 290.431 263.713 290.937 263.33 291.457C260.927 294.712 257.073 298.542 251.32 300.686C240.084 304.872 222.46 302.373 195.686 279.122Z" fill="black"/>
</g>
<path fill-rule="evenodd" clip-rule="evenodd" d="M203.61 254.899C199.755 256.689 197.723 259.006 197.723 261.298C197.723 263.591 199.755 265.908 203.61 267.698C207.4 269.457 212.691 270.567 218.577 270.567C224.462 270.567 229.753 269.457 233.543 267.698C237.398 265.908 239.43 263.591 239.43 261.298C239.43 259.006 237.398 256.689 233.543 254.899C229.753 253.139 224.462 252.03 218.577 252.03C212.691 252.03 207.4 253.139 203.61 254.899ZM197.723 265.313C198.93 266.802 200.767 268.081 202.959 269.099C206.996 270.973 212.518 272.111 218.577 272.111C224.635 272.111 230.157 270.973 234.194 269.099C236.911 267.837 239.084 266.173 240.186 264.207C240.258 264.395 240.335 264.58 240.419 264.759C240.913 265.82 241.72 266.899 243.069 267.133C253.831 269.006 260.048 276.892 263.408 287.786C264.163 290.236 264.438 293.617 264.525 296.282C264.598 298.526 263.415 300.609 261.448 301.68C246.708 309.706 233.072 308.652 222.195 304.742C211.295 300.822 203.175 294.034 199.566 290.63C198.351 289.485 197.723 287.862 197.723 286.139V265.313ZM240.974 261.219C240.929 258.001 238.134 255.327 234.194 253.498C230.157 251.624 224.635 250.485 218.577 250.485C212.518 250.485 206.996 251.624 202.959 253.498C198.987 255.342 196.178 258.045 196.178 261.298V286.139C196.178 288.233 196.945 290.282 198.506 291.754C202.191 295.229 210.491 302.175 221.672 306.195C232.878 310.224 246.986 311.314 262.187 303.037C264.672 301.684 266.16 299.054 266.069 296.232C265.982 293.549 265.704 289.992 264.884 287.331C261.429 276.13 254.885 267.622 243.334 265.612C242.742 265.509 242.243 265.016 241.819 264.107C241.414 263.237 241.166 262.168 240.974 261.219Z" fill="black"/>
<path d="M217.479 267.404C212.752 267.5 209.365 262.536 210.886 258.037C213.202 251.181 213.468 241.894 213.494 234.505C213.526 225.229 211.863 213.378 208.617 205.265C206.836 200.813 209.865 195.772 214.581 195.676C217.118 195.624 219.477 197.076 220.524 199.434C223.718 206.634 227.776 222.484 227.736 234.215C227.702 244.032 225.47 257.201 223.03 263.566C222.142 265.881 219.95 267.353 217.479 267.404Z" fill="black"/>
<path d="M233.251 261.298C233.251 265.137 226.681 268.25 218.577 268.25C210.472 268.25 203.902 265.137 203.902 261.298C203.902 257.459 210.472 254.347 218.577 254.347C226.681 254.347 233.251 257.459 233.251 261.298Z" fill="black"/>
<path d="M140.21 261.298C140.21 266.844 149.893 271.339 161.836 271.339C173.78 271.339 183.462 266.844 183.462 261.298C183.462 255.753 173.78 251.258 161.836 251.258C149.893 251.258 140.21 255.753 140.21 261.298Z" fill="white"/>
<path d="M140.21 261.298C140.21 266.844 149.893 271.339 161.836 271.339C173.78 271.339 183.462 266.844 183.462 261.298V286.139C183.462 288.048 182.765 289.883 181.377 291.192C174.084 298.07 148.537 318.662 118.596 302.359C116.37 301.147 115.034 298.79 115.116 296.257C115.203 293.583 115.479 290.114 116.267 287.559C119.675 276.511 126.055 268.314 137.211 266.373C139.152 266.035 139.824 263.23 140.21 261.298Z" fill="white"/>
<mask id="mask1_1350_3607" style="mask-type:alpha" maskUnits="userSpaceOnUse" x="115" y="251" width="69" height="58">
<path d="M140.21 261.298C140.21 266.844 149.893 271.339 161.836 271.339C173.78 271.339 183.462 266.844 183.462 261.298C183.462 255.753 173.78 251.258 161.836 251.258C149.893 251.258 140.21 255.753 140.21 261.298Z" fill="white"/>
<path d="M140.21 261.298C140.21 266.844 149.893 271.339 161.836 271.339C173.78 271.339 183.462 266.844 183.462 261.298V286.139C183.462 288.048 182.765 289.883 181.377 291.192C174.084 298.07 148.537 318.662 118.596 302.359C116.37 301.147 115.034 298.79 115.116 296.257C115.203 293.583 115.479 290.114 116.267 287.559C119.675 276.511 126.055 268.314 137.211 266.373C139.152 266.035 139.824 263.23 140.21 261.298Z" fill="white"/>
</mask>
<g mask="url(#mask1_1350_3607)">
<path d="M113.178 300.56C152.531 327.59 185.736 287.71 185.736 287.71C185.736 287.71 186.54 275.455 186.441 275.544C130.062 326.314 115.109 284.855 115.109 284.855L113.178 300.56Z" fill="#F5C451"/>
<path d="M113.178 300.56C152.531 327.59 185.736 287.71 185.736 287.71C185.736 287.71 186.54 275.455 186.441 275.544C130.062 326.314 115.109 284.855 115.109 284.855L113.178 300.56Z" fill="white" fill-opacity="0.1"/>
<path fill-rule="evenodd" clip-rule="evenodd" d="M185.736 287.71C185.736 287.71 152.531 327.59 113.178 300.56L115.109 284.855C115.109 284.855 115.486 285.9 116.346 287.455C120.85 295.602 138.607 317.747 184.849 276.963C184.996 276.833 185.143 276.703 185.29 276.572C185.672 276.234 186.055 275.891 186.441 275.544C186.442 275.543 186.444 275.544 186.445 275.548C186.445 275.548 186.445 275.548 186.445 275.548C186.46 275.606 186.436 276.196 186.389 277.087C186.379 277.276 186.369 277.478 186.357 277.691C186.164 281.184 185.736 287.71 185.736 287.71ZM184.727 279.122C184.683 279.873 184.634 280.685 184.583 281.498C184.489 283.023 184.392 284.55 184.318 285.697C184.281 286.271 184.25 286.749 184.228 287.083L184.228 287.092C184.218 287.103 184.207 287.115 184.197 287.127C183.955 287.4 183.591 287.802 183.111 288.307C182.152 289.318 180.733 290.739 178.906 292.365C175.247 295.62 169.979 299.671 163.525 302.889C150.84 309.213 133.623 312.319 114.826 299.81L116.039 289.947C116.352 290.431 116.7 290.937 117.083 291.457C119.486 294.712 123.34 298.542 129.093 300.686C140.329 304.872 157.953 302.373 184.727 279.122Z" fill="black"/>
</g>
<path fill-rule="evenodd" clip-rule="evenodd" d="M176.803 254.899C180.658 256.689 182.69 259.006 182.69 261.298C182.69 263.591 180.658 265.908 176.803 267.698C173.013 269.457 167.722 270.567 161.837 270.567C155.951 270.567 150.66 269.457 146.87 267.698C143.015 265.908 140.983 263.591 140.983 261.298C140.983 259.006 143.015 256.689 146.87 254.899C150.66 253.139 155.951 252.03 161.837 252.03C167.722 252.03 173.013 253.139 176.803 254.899ZM182.69 265.313C181.483 266.802 179.646 268.081 177.454 269.099C173.417 270.973 167.895 272.111 161.837 272.111C155.778 272.111 150.256 270.973 146.219 269.099C143.502 267.837 141.329 266.173 140.227 264.207C140.155 264.395 140.078 264.58 139.994 264.759C139.5 265.82 138.693 266.899 137.344 267.133C126.582 269.006 120.365 276.892 117.006 287.786C116.25 290.236 115.975 293.617 115.888 296.282C115.815 298.526 116.998 300.609 118.965 301.68C133.705 309.706 147.341 308.652 158.218 304.742C169.118 300.822 177.238 294.034 180.847 290.63C182.062 289.485 182.69 287.862 182.69 286.139V265.313ZM139.439 261.219C139.484 258.001 142.279 255.327 146.219 253.498C150.256 251.624 155.778 250.485 161.837 250.485C167.895 250.485 173.417 251.624 177.454 253.498C181.426 255.342 184.235 258.045 184.235 261.298V286.139C184.235 288.233 183.468 290.282 181.907 291.754C178.222 295.229 169.922 302.175 158.741 306.195C147.535 310.224 133.427 311.314 118.226 303.037C115.741 301.684 114.253 299.054 114.344 296.232C114.431 293.549 114.709 289.992 115.529 287.331C118.984 276.13 125.528 267.622 137.079 265.612C137.671 265.509 138.17 265.016 138.594 264.107C138.999 263.237 139.247 262.168 139.439 261.219Z" fill="black"/>
<path d="M162.934 267.404C167.661 267.5 171.048 262.536 169.528 258.037C167.211 251.181 166.945 241.894 166.919 234.505C166.887 225.229 168.55 213.378 171.796 205.265C173.577 200.813 170.548 195.772 165.832 195.676C163.295 195.624 160.936 197.076 159.889 199.434C156.695 206.634 152.637 222.484 152.677 234.215C152.711 244.032 154.943 257.201 157.383 263.566C158.271 265.881 160.463 267.353 162.934 267.404Z" fill="black"/>
<path d="M147.162 261.298C147.162 265.137 153.732 268.25 161.836 268.25C169.941 268.25 176.511 265.137 176.511 261.298C176.511 257.459 169.941 254.347 161.836 254.347C153.732 254.347 147.162 257.459 147.162 261.298Z" fill="black"/>
<path d="M30.3748 349.05C30.181 349.439 30.1652 349.892 30.3313 350.294C30.4974 350.695 30.8291 351.004 31.2409 351.142L33.567 351.921C34.7453 352.316 36.0308 352.562 37.1081 352.149C38.2067 351.74 38.9501 350.761 39.4778 349.723L39.4778 349.723L39.4823 349.714L48.5097 331.649L48.5097 331.65L48.5132 331.642C49.0941 330.464 49.7646 329.822 50.4562 329.506C51.0164 329.25 51.3632 328.677 51.3307 328.062C51.2983 327.447 50.8932 326.914 50.3091 326.719L46.901 325.578C45.7076 325.178 44.4275 324.939 43.3467 325.336L43.3187 325.346C42.2437 325.765 41.5139 326.746 40.9903 327.776L40.9903 327.776L40.9868 327.783L40.3943 328.964L39.1876 328.56C39.1802 327.006 38.83 325.585 38.0569 324.363C37.0841 322.824 35.5546 321.778 33.6474 321.139C30.5617 320.106 27.6079 320.492 24.9329 322.301C22.3582 324.042 20.1558 326.9 18.2602 330.702C16.352 334.493 15.4265 337.876 15.7914 340.743C15.9803 342.226 16.5398 343.54 17.5021 344.618C18.4553 345.687 19.733 346.446 21.2432 346.952C23.2279 347.616 25.1988 347.693 27.1098 347.125C28.7355 346.642 30.2425 345.716 31.6377 344.416L32.5357 344.717L30.3748 349.05ZM26.1112 333.77L26.1131 333.767C27.4127 331.129 28.4968 329.461 29.3465 328.602C30.2336 327.719 30.6452 327.81 30.768 327.851C30.7978 327.861 30.8047 327.862 30.807 327.866C30.8088 327.869 30.8081 327.874 30.8126 327.885C30.8517 327.977 30.9181 328.249 30.8479 328.823C30.7066 329.977 30.0915 331.762 28.8607 334.257C27.5395 336.902 26.428 338.596 25.5442 339.489C24.657 340.373 24.2453 340.281 24.1225 340.24C24.0878 340.228 24.0661 340.218 24.054 340.211C24.0422 340.205 24.0377 340.201 24.0373 340.2C24.0371 340.2 24.0371 340.2 24.0362 340.199C24.0352 340.198 24.0305 340.191 24.0235 340.176C23.9915 340.108 23.9215 339.881 23.9759 339.372C24.109 338.317 24.7625 336.488 26.1112 333.77Z" fill="#F5C451" stroke="#765E27" stroke-width="3" stroke-linejoin="round"/>
<path d="M61.1104 358.085C60.9415 358.485 60.9544 358.939 61.1456 359.329C61.3368 359.719 61.6876 360.007 62.1073 360.118L64.6436 360.792C65.8445 361.111 67.1431 361.275 68.192 360.794C69.2624 360.317 69.9422 359.293 70.4029 358.223L70.403 358.223L70.4069 358.213L78.2698 339.613L78.2698 339.613L78.2729 339.606C78.7778 338.393 79.4061 337.709 80.0763 337.35C80.6191 337.059 80.9289 336.466 80.8575 335.854C80.7861 335.242 80.348 334.736 79.7527 334.578L76.1137 333.611C74.8972 333.288 73.6045 333.131 72.5512 333.595L72.5238 333.608C72.352 333.688 72.1905 333.782 72.0384 333.889C71.8986 333.381 71.4986 332.976 70.9773 332.837L56.7519 329.058C55.8384 328.816 54.867 328.817 53.9776 329.282C53.1042 329.738 52.537 330.522 52.1759 331.39L51.2637 333.497C51.0902 333.898 51.1 334.354 51.2904 334.747C51.4809 335.14 51.8331 335.431 52.2552 335.543L60.3743 337.699L58.976 341.013C58.9756 341.014 58.9752 341.015 58.9748 341.016C58.5063 342.113 57.9265 343.073 57.2401 343.907L57.2268 343.923C56.5671 344.748 55.7419 345.496 54.7363 346.163C53.8282 346.766 52.6827 347.196 51.256 347.414L51.256 347.414L51.2489 347.415C49.8625 347.633 48.3055 347.599 46.5633 347.282C45.8693 347.156 45.1811 347.531 44.9101 348.182L43.1961 352.301C43.0264 352.709 43.0451 353.171 43.247 353.563C43.4489 353.956 43.8137 354.24 44.244 354.339C46.6125 354.885 48.8973 355.086 51.0909 354.924C53.2369 354.784 55.181 354.375 56.9014 353.672C58.6006 352.99 60.1614 352.076 61.5792 350.931L61.5792 350.931L61.587 350.925C62.9869 349.78 64.1762 348.528 65.1426 347.165L65.1464 347.16C66.0051 345.938 66.7461 344.635 67.3696 343.253L61.1104 358.085Z" fill="#F5C451" stroke="#765E27" stroke-width="3" stroke-linejoin="round"/>
<path d="M75.5917 361.56C75.4488 361.97 75.4905 362.421 75.7061 362.798C75.9217 363.175 76.29 363.44 76.7158 363.525L97.6431 367.683C98.7317 367.899 99.8353 367.825 100.805 367.253C101.767 366.686 102.376 365.759 102.744 364.707C102.744 364.706 102.744 364.706 102.744 364.706L103.279 363.185C103.423 362.775 103.382 362.323 103.167 361.945C102.951 361.567 102.583 361.301 102.156 361.217L86.4305 358.092C86.7105 357.45 87.0446 357.085 87.3738 356.879C87.5529 356.767 87.7023 356.621 87.8166 356.453L101.795 359.23C102.722 359.415 103.691 359.352 104.549 358.832C105.393 358.321 105.909 357.501 106.214 356.611L107.003 354.392C107.149 353.981 107.109 353.527 106.894 353.148C106.698 352.803 106.374 352.551 105.994 352.445C106.627 351.887 107.06 351.143 107.347 350.323L107.349 350.318L107.895 348.74C108.037 348.33 107.994 347.879 107.779 347.503C107.563 347.127 107.195 346.862 106.77 346.778L91.178 343.68L91.7334 342.106L91.7335 342.106L91.7372 342.095C92.0447 341.202 92.554 340.559 93.2749 340.1C93.7917 339.771 94.0564 339.161 93.9435 338.558C93.8305 337.956 93.3625 337.483 92.7615 337.364L88.2851 336.474C87.2399 336.267 86.17 336.298 85.2223 336.791C84.2532 337.295 83.6433 338.161 83.2996 339.158L80.4748 347.231C80.4164 347.398 80.3886 347.572 80.3907 347.744C80.0858 347.823 79.7874 347.945 79.5009 348.116C78.6611 348.618 78.1301 349.424 77.8027 350.308C77.7983 350.32 77.7941 350.331 77.79 350.343L77.0264 352.576C76.8864 352.986 76.93 353.436 77.1459 353.81C77.3618 354.185 77.7291 354.449 78.1534 354.533L78.2356 354.549C77.9384 354.972 77.7189 355.451 77.5529 355.932C77.5526 355.933 77.5523 355.934 77.5519 355.935L75.5917 361.56Z" fill="#F5C451" stroke="#765E27" stroke-width="3" stroke-linejoin="round"/>
<path d="M123.93 349.217C123.827 349.637 123.91 350.081 124.158 350.435C124.406 350.789 124.794 351.019 125.224 351.066L129.004 351.479L128.488 353.486L128.488 353.488C128.338 354.073 128.144 354.667 127.903 355.271C127.898 355.283 127.893 355.295 127.889 355.307C127.687 355.854 127.355 356.53 126.869 357.343L126.856 357.366C126.411 358.141 125.897 358.854 125.314 359.508L125.314 359.508L125.309 359.513C124.777 360.115 124.065 360.731 123.151 361.354C122.281 361.947 121.32 362.417 120.259 362.761C119.77 362.92 119.397 363.318 119.27 363.816L117.969 368.897C117.849 369.366 117.963 369.864 118.275 370.234C118.586 370.605 119.058 370.802 119.541 370.764C120.843 370.661 122.264 370.296 123.786 369.713C125.356 369.13 126.899 368.295 128.417 367.223C129.044 366.786 129.619 366.326 130.137 365.841C130.577 366.814 131.17 367.74 131.905 368.619L131.905 368.619L131.912 368.627C133.392 370.372 135.211 371.606 137.35 372.3C137.375 372.308 137.4 372.315 137.425 372.322C137.438 372.602 137.529 372.877 137.692 373.112C137.94 373.469 138.33 373.701 138.761 373.748L141.257 374.02C142.492 374.155 143.8 374.122 144.765 373.489C145.752 372.855 146.27 371.741 146.564 370.614L146.564 370.614L146.567 370.604L151.542 351.032L151.542 351.032L151.544 351.025C151.861 349.75 152.379 348.979 152.988 348.523C153.481 348.154 153.698 347.521 153.535 346.927C153.373 346.333 152.863 345.899 152.251 345.832L148.621 345.436C147.37 345.299 146.069 345.338 145.097 345.956L145.072 345.972C145.058 345.982 145.044 345.991 145.03 346C144.788 345.733 144.453 345.555 144.079 345.514L128.568 343.822C127.692 343.727 126.725 343.807 125.927 344.374C125.916 344.383 125.904 344.391 125.893 344.4C125.134 344.972 124.755 345.859 124.549 346.703C124.549 346.703 124.549 346.704 124.548 346.704L123.93 349.217ZM139.418 364.205C138.792 363.722 138.279 363.157 137.868 362.507C137.321 361.641 137.01 360.831 136.888 360.071C136.743 359.17 136.678 358.237 136.696 357.272C136.712 356.332 136.835 355.576 137.033 354.978C137.044 354.945 137.054 354.912 137.062 354.878L137.69 352.426L140.594 352.743C141.176 352.806 141.815 352.751 142.4 352.446L139.418 364.205Z" fill="#F5C451" stroke="#765E27" stroke-width="3" stroke-linejoin="round"/>
<path d="M174.971 349.147C175.49 348.774 175.716 348.114 175.534 347.501C175.352 346.889 174.802 346.459 174.163 346.43L167.097 346.111C166.837 346.099 166.538 346.108 166.239 346.178C165.954 346.244 165.574 346.387 165.251 346.711C164.958 346.998 164.811 347.339 164.737 347.531C164.644 347.772 164.574 348.039 164.517 348.306C164.514 348.32 164.511 348.335 164.508 348.35C164.342 349.263 163.711 350.139 162.144 350.891C160.551 351.656 158.501 352.08 155.931 352.09C155.212 352.093 154.597 352.605 154.463 353.311L153.638 357.671C153.577 357.991 153.623 358.32 153.764 358.608C153.078 359.223 152.704 360.059 152.523 360.937C152.52 360.95 152.518 360.964 152.515 360.978L152.093 363.358C152.018 363.783 152.13 364.22 152.4 364.557C152.596 364.802 152.862 364.977 153.158 365.062C152.865 365.591 152.684 366.19 152.57 366.784L152.57 366.785L152.233 368.54C152.151 368.968 152.259 369.41 152.529 369.752C152.799 370.094 153.204 370.301 153.639 370.321L169.36 371.031L168.761 374.296C168.683 374.722 168.793 375.161 169.063 375.5C169.333 375.839 169.736 376.045 170.169 376.065L173.702 376.224C174.776 376.273 175.857 376.079 176.716 375.399C177.585 374.728 178.045 373.735 178.259 372.675L178.263 372.653L178.979 368.806C178.979 368.806 178.979 368.805 178.979 368.804C179.02 368.591 179.132 368.252 179.37 367.763C179.624 367.263 179.847 366.941 180.024 366.747C180.382 366.355 180.504 365.805 180.353 365.303C181.04 364.678 181.398 363.83 181.557 362.948L182.006 360.577C182.083 360.17 181.988 359.749 181.746 359.416L182.573 355.003C182.651 354.588 182.549 354.159 182.294 353.821C182.039 353.484 181.654 353.271 181.233 353.233C178.831 353.017 177.08 352.443 175.866 351.617C174.547 350.7 174.493 350.132 174.525 349.911C174.578 349.637 174.634 349.48 174.669 349.405C174.675 349.398 174.685 349.386 174.701 349.37C174.75 349.319 174.836 349.244 174.971 349.147Z" fill="#F5C451" stroke="#765E27" stroke-width="3" stroke-linejoin="round"/>
<path d="M205.717 347.795C205.653 347.85 205.591 347.908 205.532 347.968C205.247 347.651 204.833 347.463 204.389 347.471L189.815 347.739C188.87 347.756 187.937 348.024 187.209 348.714C186.494 349.393 186.164 350.303 186.055 351.236L185.756 353.513C185.699 353.946 185.834 354.382 186.125 354.708C186.416 355.033 186.834 355.216 187.271 355.208L195.527 355.056L195.092 358.627C195.092 358.628 195.092 358.629 195.092 358.63C194.941 359.82 194.654 360.909 194.237 361.904L194.229 361.924C193.838 362.896 193.268 363.839 192.504 364.753C191.815 365.577 190.852 366.302 189.561 366.9C188.288 367.491 186.781 367.885 185.019 368.059C184.317 368.128 183.758 368.677 183.676 369.377L183.158 373.809C183.107 374.248 183.252 374.686 183.554 375.009C183.856 375.331 184.284 375.504 184.725 375.481C187.152 375.356 189.395 374.923 191.444 374.165C193.469 373.441 195.219 372.513 196.665 371.361C198.093 370.237 199.323 368.929 200.352 367.439C201.385 365.952 202.177 364.419 202.714 362.839C202.805 362.578 202.891 362.315 202.972 362.051L201.459 374.464C201.406 374.895 201.543 375.328 201.834 375.651C202.125 375.973 202.541 376.154 202.975 376.146L205.542 376.099C206.784 376.076 208.078 375.878 208.955 375.127C209.853 374.374 210.226 373.203 210.375 372.048L210.375 372.048L210.376 372.039L211.335 364.267L213.027 364.236C213.776 364.222 214.399 363.659 214.489 362.916L215.059 358.198C215.111 357.767 214.973 357.335 214.683 357.013C214.392 356.691 213.976 356.51 213.542 356.518L212.274 356.542L212.833 351.994L212.833 351.994L212.834 351.985C212.987 350.681 213.403 349.851 213.949 349.321C214.391 348.893 214.527 348.237 214.29 347.668C214.053 347.1 213.493 346.734 212.878 346.745L209.17 346.813C207.912 346.836 206.625 347.04 205.74 347.775L205.717 347.795Z" fill="#F5C451" stroke="#765E27" stroke-width="3" stroke-linejoin="round"/>
<path d="M225.111 375.449L225.113 375.449C226.507 375.496 228.108 375.443 229.91 375.295C231.726 375.146 233.32 374.938 234.686 374.666C236.088 374.407 237.42 374.022 238.678 373.508C240.047 372.974 241.194 372.198 242.03 371.134C242.879 370.075 243.327 368.819 243.405 367.43C243.479 366.297 243.284 365.215 242.724 364.268C242.382 363.689 241.951 363.193 241.438 362.787L241.562 362.776C242.504 362.699 243.419 362.372 244.102 361.637C244.772 360.915 245.044 359.985 245.094 359.046L245.233 356.927C245.262 356.492 245.099 356.065 244.788 355.759C244.561 355.535 244.27 355.392 243.959 355.345C244.228 354.759 244.364 354.111 244.404 353.443L244.507 351.924C244.537 351.488 244.375 351.061 244.064 350.754C243.753 350.448 243.324 350.292 242.888 350.327L227.037 351.628L227.092 350.675L227.092 350.675L227.092 350.67C227.143 349.727 227.456 348.969 228.023 348.329C228.43 347.871 228.517 347.211 228.243 346.663C227.969 346.115 227.389 345.789 226.779 345.839L222.23 346.212C221.168 346.299 220.148 346.623 219.372 347.357C218.578 348.108 218.23 349.107 218.173 350.16L217.715 357.835C217.714 357.852 217.714 357.868 217.713 357.885C217.47 358.036 217.243 358.219 217.037 358.439C216.355 359.164 216.079 360.1 216.031 361.047C216.031 361.048 216.031 361.048 216.031 361.049L215.919 363.173C215.897 363.606 216.062 364.027 216.372 364.328C216.683 364.63 217.108 364.782 217.54 364.747L218.995 364.628C218.692 364.898 218.414 365.192 218.164 365.51C217.317 366.566 216.865 367.813 216.786 369.191C216.707 370.563 217.012 371.847 217.843 372.896L217.86 372.916C218.682 373.917 219.832 374.548 221.165 374.897C222.397 375.219 223.714 375.4 225.111 375.449ZM228.061 368.456C228.694 368.372 229.448 368.292 230.332 368.22C231.01 368.164 231.609 368.126 232.133 368.102C231.506 368.186 230.759 368.266 229.884 368.337C229.195 368.394 228.589 368.433 228.061 368.456Z" fill="#F5C451" stroke="#765E27" stroke-width="3" stroke-linejoin="round"/>
<path d="M267.412 341.846C267.078 342.219 266.85 342.657 266.698 343.128L262.367 343.761C262.421 343.691 262.478 343.624 262.54 343.559C262.978 343.094 263.074 342.403 262.779 341.837C262.484 341.27 261.863 340.952 261.231 341.045L256.349 341.76C255.51 341.882 254.601 342.126 253.954 342.705C253.201 343.371 253.034 344.347 253.024 345.129L250.129 345.553C249.264 345.679 248.356 345.996 247.727 346.733C247.079 347.468 246.912 348.451 246.906 349.328C246.906 349.339 246.906 349.349 246.906 349.359L246.938 351.747C246.944 352.18 247.136 352.588 247.465 352.869C247.794 353.149 248.228 353.274 248.656 353.211L248.692 353.206C248.579 353.752 248.522 354.307 248.522 354.87L248.522 354.87L248.522 354.884C248.547 357.28 249.473 359.255 251.383 360.567C251.471 360.627 251.561 360.686 251.651 360.742C251.337 360.923 251.049 361.148 250.798 361.425C250.086 362.206 249.858 363.245 249.842 364.251C249.842 364.263 249.842 364.276 249.842 364.288L249.901 370.997C249.905 371.43 250.096 371.841 250.425 372.123C250.754 372.405 251.189 372.53 251.618 372.468L271.601 369.543C272.699 369.382 273.714 368.943 274.436 368.079C275.153 367.222 275.416 366.144 275.411 365.029L275.41 365.024L275.397 363.354C275.393 362.92 275.202 362.51 274.873 362.227C274.544 361.945 274.108 361.819 273.679 361.882L273.286 361.94C273.552 361.778 273.794 361.587 274.003 361.363C274.807 360.502 275.03 359.287 275.032 358.118L275.032 358.118L275.032 358.107L275.009 354.283L276.542 354.059C277.282 353.951 277.829 353.314 277.824 352.566L277.797 348.245C277.795 347.811 277.604 347.4 277.275 347.117C276.945 346.834 276.51 346.708 276.08 346.77L274.961 346.934L274.947 345.114L274.947 345.113C274.935 343.823 275.24 342.936 275.726 342.313C276.103 341.83 276.148 341.166 275.84 340.636C275.532 340.107 274.932 339.818 274.326 339.907L270.713 340.435C269.468 340.618 268.218 340.983 267.433 341.824L267.412 341.846ZM267.133 362.84L258.513 364.102L258.512 363.815L258.512 363.788C258.495 362.998 258.687 362.387 259.041 361.884C259.103 361.794 259.155 361.7 259.196 361.602C261.299 361.127 263.11 360.187 264.571 358.75C265.41 357.932 266.053 357.024 266.491 356.035L266.521 361.64C266.524 362.074 266.714 362.486 267.043 362.769C267.072 362.794 267.102 362.818 267.133 362.84ZM256.903 352.663L256.904 352.662C257.139 352.367 257.479 352.15 258.059 352.065C258.69 351.973 258.863 352.126 258.914 352.177L258.933 352.194C259.065 352.32 259.206 352.54 259.21 353.052C259.211 353.515 259.077 353.902 258.787 354.265C258.577 354.528 258.251 354.742 257.656 354.829C257.088 354.913 256.872 354.797 256.782 354.723C256.627 354.561 256.513 354.332 256.513 353.907L256.513 353.892C256.508 353.363 256.65 352.98 256.903 352.663Z" fill="#F5C451" stroke="#765E27" stroke-width="3" stroke-linejoin="round"/>
<path d="M294.274 363.916C294.314 364.349 294.54 364.743 294.893 364.997C295.246 365.25 295.691 365.338 296.114 365.238L315.598 360.618C316.771 360.339 318.008 359.859 318.665 358.861C319.282 357.949 319.347 356.771 319.235 355.665L318.905 352.186C318.796 350.761 319.012 349.886 319.328 349.373C319.646 348.856 319.622 348.199 319.267 347.707C319.11 347.49 318.902 347.324 318.668 347.218C318.684 346.937 318.673 346.662 318.65 346.404L318.649 346.4L317.633 335.571C317.534 334.32 317.764 333.43 318.183 332.783C318.517 332.269 318.504 331.603 318.151 331.102C317.797 330.602 317.175 330.366 316.579 330.507L312.998 331.356C311.773 331.647 310.56 332.12 309.851 333.027L309.833 333.05C309.141 333.974 309.039 335.192 309.138 336.343L309.138 336.343L309.139 336.356L309.277 337.813C307.775 337.911 306.803 337.723 306.216 337.42C305.476 337.021 305.409 336.719 305.398 336.616C305.397 336.604 305.395 336.592 305.394 336.581C305.345 336.228 305.423 335.997 305.631 335.763C306.068 335.274 306.137 334.559 305.802 333.996C305.466 333.433 304.804 333.153 304.167 333.304L297.783 334.818C297.351 334.92 296.628 335.162 296.205 335.849L297.425 336.601L296.205 335.849C295.964 336.238 295.921 336.645 295.91 336.878C295.898 337.137 295.92 337.403 295.956 337.654C296.029 338.327 295.85 339.028 295.263 339.811C294.716 340.517 293.634 341.273 291.78 341.97C291.149 342.207 290.754 342.836 290.813 343.507L291.109 346.823C290.923 346.984 290.753 347.171 290.608 347.387C290.066 348.169 290 349.147 290.069 350.003L290.071 350.022L290.242 351.858C290.282 352.29 290.508 352.684 290.861 352.937C291.214 353.19 291.659 353.278 292.082 353.178L296.518 352.126L296.526 352.2C295.647 352.509 294.848 352.969 294.334 353.685C293.644 354.624 293.534 355.849 293.638 357.026L293.638 357.031L294.274 363.916ZM310.322 348.877L305.231 350.084C305.231 350.076 305.231 350.068 305.23 350.06L309.484 349.051C309.759 348.986 310.04 348.901 310.314 348.788L310.322 348.877ZM301.775 343.868L301.687 343.889C301.699 343.871 301.712 343.853 301.725 343.834C301.742 343.846 301.759 343.857 301.775 343.868Z" fill="#F5C451" stroke="#765E27" stroke-width="3" stroke-linejoin="round"/>
<path d="M324.467 355.825C324.534 356.254 324.784 356.633 325.153 356.863C325.521 357.093 325.971 357.153 326.386 357.026L339.7 352.961C340.761 352.637 341.699 352.05 342.283 351.088C342.288 351.079 342.294 351.069 342.3 351.06L342.355 351.408C342.422 351.837 342.673 352.215 343.041 352.446C343.409 352.676 343.859 352.735 344.274 352.608L346.62 351.892C347.809 351.529 348.999 350.983 349.636 350.021C350.293 349.051 350.33 347.822 350.157 346.67L350.157 346.67L350.155 346.66L347.017 326.711L347.017 326.711L347.016 326.704C346.805 325.407 346.977 324.495 347.357 323.836C347.665 323.302 347.615 322.635 347.231 322.153C346.848 321.671 346.208 321.472 345.619 321.652L342.182 322.702C340.978 323.069 339.797 323.618 339.147 324.568L339.131 324.593C338.954 324.863 338.825 325.152 338.734 325.455C338.706 325.413 338.676 325.373 338.644 325.334C338.257 324.873 337.632 324.687 337.056 324.863L323.988 328.853C322.915 329.181 321.907 329.768 321.357 330.802C320.868 331.72 320.824 332.775 320.994 333.806L324.467 355.825ZM340.766 341.362L341.331 344.936C341.082 344.881 340.819 344.89 340.569 344.966L331.716 347.669L331.194 344.374L335.239 343.139C335.907 342.935 336.57 342.632 337.099 342.165C337.402 342.276 337.737 342.287 338.052 342.191L340.766 341.362ZM336.939 334.577C336.705 334.701 336.418 334.882 336.17 335.148C336.085 335.159 336.001 335.177 335.918 335.202L330.043 336.995L329.709 334.836L336.677 332.708C337.332 332.509 337.992 332.13 338.417 331.45C338.845 330.768 338.896 330.007 338.781 329.329L338.781 329.327L338.635 328.463C338.593 328.181 338.589 327.929 338.615 327.702C338.624 327.776 338.635 327.85 338.646 327.923L338.646 327.923L338.647 327.933L339.548 333.676L338.065 334.129C337.659 334.253 337.273 334.398 336.939 334.577Z" fill="#F5C451" stroke="#765E27" stroke-width="3" stroke-linejoin="round"/>
<path d="M355.426 343.381C355.511 343.808 355.777 344.177 356.156 344.392C356.535 344.607 356.989 344.646 357.399 344.501L357.562 344.443C357.425 345.212 357.232 345.789 357.014 346.208C356.775 346.665 356.788 347.212 357.047 347.657C357.307 348.103 357.777 348.383 358.292 348.401L360.621 348.481C361.115 348.499 361.586 348.271 361.88 347.873C362.616 346.875 363.17 345.301 363.632 343.378L363.637 343.356C363.998 341.742 363.948 339.988 363.552 338.126L363.013 335.422C362.928 334.994 362.661 334.625 362.282 334.41C361.904 334.195 361.45 334.155 361.04 334.301L356.202 336.021C355.945 336.112 355.671 336.232 355.42 336.399C355.177 336.561 354.862 336.827 354.664 337.246C354.476 337.641 354.458 338.037 354.465 338.294C354.473 338.57 354.518 338.854 354.577 339.126L355.426 343.381Z" fill="#F5C451" stroke="#765E27" stroke-width="3" stroke-linejoin="round"/>
<defs>
<filter id="filter0_f_1350_3607" x="115.894" y="121.594" width="49.2783" height="49.4595" filterUnits="userSpaceOnUse" color-interpolation-filters="sRGB">
<feFlood flood-opacity="0" result="BackgroundImageFix"/>
<feBlend mode="normal" in="SourceGraphic" in2="BackgroundImageFix" result="shape"/>
<feGaussianBlur stdDeviation="5" result="effect1_foregroundBlur_1350_3607"/>
</filter>
<filter id="filter1_f_1350_3607" x="214.352" y="121.594" width="49.2783" height="49.4595" filterUnits="userSpaceOnUse" color-interpolation-filters="sRGB">
<feFlood flood-opacity="0" result="BackgroundImageFix"/>
<feBlend mode="normal" in="SourceGraphic" in2="BackgroundImageFix" result="shape"/>
<feGaussianBlur stdDeviation="5" result="effect1_foregroundBlur_1350_3607"/>
</filter>
</defs>
</svg>
