<svg width="41" height="40" viewBox="0 0 41 40" fill="none" xmlns="http://www.w3.org/2000/svg">
<path d="M20.8149 0C31.8633 0 40.8149 8.95161 40.8149 20C40.8149 31.0484 31.8633 40 20.8149 40C9.76655 40 0.814941 31.0484 0.814941 20C0.814941 8.95161 9.76655 0 20.8149 0ZM30.0004 18.629L19.073 7.70161C18.3149 6.94355 17.0891 6.94355 16.3391 7.70161L14.9682 9.07258C14.2101 9.83064 14.2101 11.0565 14.9682 11.8065L23.1617 20L14.9682 28.1935C14.2101 28.9516 14.2101 30.1774 14.9682 30.9274L16.3391 32.2984C17.0972 33.0564 18.323 33.0564 19.073 32.2984L30.0004 21.371C30.7585 20.6129 30.7585 19.3871 30.0004 18.629Z" fill="#72CAD1"/>
</svg>
