<svg width="90" height="84" viewBox="0 0 90 84" fill="none" xmlns="http://www.w3.org/2000/svg">
<mask id="path-1-outside-1_926_819" maskUnits="userSpaceOnUse" x="0" y="0.519043" width="90" height="83" fill="black">
<rect fill="white" y="0.519043" width="90" height="83"/>
<path d="M5.16046 22.7051C4.98917 23.5733 4.93405 24.4573 5.09942 25.3432C5.17424 25.7409 5.24118 26.1445 5.24905 26.5462C5.2648 27.3986 5.42034 28.2118 5.76881 28.9934C5.87709 29.2375 5.96372 29.5033 5.99719 29.7671C6.29054 32.0981 6.91858 34.3859 6.8162 36.7661C6.78864 37.3902 6.89102 38.0222 6.95205 38.6502C6.97174 38.857 7.02293 39.0696 7.11152 39.2547C7.22177 39.485 7.39699 39.7075 7.68837 39.6779C7.98172 39.6484 8.18648 39.4594 8.25538 39.17C8.31445 38.9239 8.35973 38.666 8.3617 38.414C8.36564 37.8352 8.47195 37.28 8.66095 36.7366C9.2634 35.0021 9.43665 33.1573 10.0352 31.4189C10.5825 29.8281 11.1613 28.2511 11.7933 26.6938C12.2146 25.6543 12.9293 24.7939 13.6636 23.9572C13.9885 23.5871 14.4452 23.4611 14.8922 23.341C15.5497 23.1658 16.1699 22.9138 16.7507 22.5554C17.3019 22.2148 17.8847 21.9353 18.5009 21.7345C19.8338 21.2974 20.9875 20.4449 22.3342 20.059C24.3679 19.4782 26.4253 19.0648 28.524 19.7755C28.6382 19.8149 28.7524 19.8503 28.8646 19.8917C28.9355 19.9173 29.0024 19.9488 29.1265 20.0019C28.6146 20.2913 28.146 20.5689 27.6656 20.8249C26.8053 21.2856 25.9843 21.8132 25.1003 22.2306C24.7026 22.4176 24.3718 22.707 24.0844 23.0378C22.4306 24.9396 20.6646 26.7588 19.2786 28.8674C17.6721 31.3126 15.8962 33.6417 14.3192 36.1066C14.2385 36.2326 14.1716 36.3704 14.0751 36.4846C13.012 37.7505 12.6202 39.2606 12.5276 40.8632C12.3839 43.3182 12.3741 45.7792 12.6359 48.2225C12.8131 49.8703 13.1892 51.4946 13.6853 53.0854C14.0613 54.2843 14.7327 55.314 15.5261 56.261C16.6601 57.6116 17.5579 59.1236 18.562 60.5648C19.1526 61.4113 19.8574 62.1398 20.5603 62.8781C20.7631 63.0907 21.0328 63.1832 21.3005 63.0474C21.5821 62.9037 21.6136 62.6025 21.5447 62.3347C21.1076 60.6612 21.3183 58.9602 21.3498 57.2749C21.3813 55.5522 21.651 53.8394 21.8774 52.1285C22.1196 50.2995 22.279 48.4587 22.5015 46.6278C22.6433 45.4544 23.1315 44.3774 23.5095 43.271C23.545 43.1647 23.6454 43.078 23.7281 42.9934C25.7638 40.8887 27.9353 38.9278 30.3609 37.2918C32.1072 36.1144 33.9401 35.0592 35.8203 34.0866C37.3934 33.2735 38.9487 32.4328 40.5986 31.791C40.9864 31.6394 41.3762 31.4937 41.766 31.3539C41.9137 31.3008 42.0594 31.2496 42.207 31.2004C43.2407 30.8519 44.294 30.5684 45.3906 30.4424C45.4595 30.4129 45.5304 30.3833 45.5835 30.4581C45.5875 30.464 45.5126 30.527 45.4752 30.5644C44.4396 31.2141 43.5399 32.0804 42.3547 32.4939C42.148 32.5667 41.959 32.7104 41.7798 32.8463C38.9723 35.0041 36.5173 37.4887 34.7493 40.5875C33.3003 43.1292 32.2371 45.8442 31.5382 48.6733C31.0322 50.7209 30.5873 52.792 30.288 54.8888C29.975 57.0682 30.1738 59.2398 30.4199 61.4054C30.5204 62.2993 30.5676 63.1951 30.6227 64.0928C30.668 64.839 30.735 65.5852 30.8295 66.3254C30.9299 67.1149 31.5677 67.3393 32.2056 67.5658C33.698 68.0934 35.2474 68.4517 36.7063 69.0679C37.6414 69.4637 38.5569 69.9165 39.3937 70.5071C39.5512 70.6174 39.7244 70.704 39.8898 70.576C40.0749 70.4323 40.0749 70.2216 40.004 70.0031C39.748 69.2038 39.5059 68.4005 39.2499 67.6012C39.1417 67.2645 39.1082 66.9141 39.1692 66.5774C39.5078 64.6854 39.8288 62.7777 40.5415 60.99C41.2975 59.098 42.0929 57.2198 43.0024 55.3908C43.3037 54.7864 43.5813 54.1702 43.8352 53.5461C44.8629 51.0319 46.6703 49.0021 48.0622 46.7144C48.6213 45.793 49.2829 44.9326 49.8715 44.029C50.5488 42.9914 51.4032 42.1055 52.2301 41.1959C52.807 40.56 53.5413 40.1662 54.3879 39.9831C54.5297 39.9516 54.6714 39.9201 54.8132 39.8847C55.2384 39.7823 55.6597 39.6701 56.085 39.5638C56.1224 39.5697 56.1578 39.5736 56.1953 39.5795C56.1775 39.611 56.1598 39.6425 56.1421 39.674C56.1244 39.6996 56.1106 39.7252 56.0929 39.7508C56.0771 39.7764 56.0594 39.8 56.0397 39.8217C54.2324 41.7353 53.1968 44.0939 52.2045 46.4801C51.1926 48.9155 50.5626 51.4651 50.0054 54.0284C49.5486 56.1271 49.4482 58.2652 49.3852 60.4132C49.34 61.9291 49.4837 63.4234 49.5742 64.9256C49.6294 65.8293 50.0861 66.5814 50.8165 67.1385C51.7734 67.8689 52.8739 68.304 54.0158 68.6506C54.8624 68.9085 55.7168 69.1467 56.4729 69.6369C56.7406 69.8102 57.0497 69.8968 57.2997 69.6369C57.5321 69.3928 57.4198 69.0994 57.2781 68.8435C57.1344 68.5816 57.0084 68.2903 56.8056 68.0796C56.3882 67.6484 56.3252 67.1405 56.3547 66.5853C56.4079 65.6127 56.2425 64.6126 56.5024 63.6695C57.2663 60.8975 58.2802 58.2121 59.7076 55.7137C60.7057 53.9654 62.0012 52.416 63.3026 50.8784C63.8164 50.272 64.3086 49.6479 64.8087 49.0277C65.0489 48.7304 65.2339 48.7678 65.4092 49.0927C65.6946 49.6301 65.7222 50.2405 65.9073 50.8055C66.1278 51.4729 66.0411 51.9828 65.5312 52.5833C64.5961 53.6839 64.033 55.0384 63.5939 56.4146C62.9816 58.3282 62.3516 60.2419 62.0662 62.2422C61.9106 63.3388 61.889 64.4511 61.6744 65.5438C61.6035 65.9041 61.7886 66.1699 62.1902 66.1738C62.9305 66.1797 63.5979 66.4495 64.2633 66.7231C66.0293 67.4457 67.5768 68.5049 69.0711 69.6901C70.463 70.7946 71.5892 72.0388 72.3531 73.665C72.9949 75.0314 73.8867 76.2776 74.3376 77.7424C74.3455 77.77 74.3612 77.7975 74.373 77.8251C74.4872 78.081 74.6211 78.3153 74.9538 78.3055C75.2984 78.2956 75.385 78.0318 75.4696 77.768C75.8614 76.5532 76.2591 75.3424 76.647 74.1257C77.2986 72.0762 78.2141 70.135 79.0863 68.1761C79.4761 67.3019 79.9939 66.5243 80.6318 65.8155C81.7067 64.6224 82.508 63.2325 83.1951 61.8051C83.7759 60.5963 83.8547 59.2496 83.7228 57.8852C83.4905 55.4715 82.134 53.7508 80.368 52.2978C77.9562 50.3113 75.4007 48.5099 72.7035 46.9329C70.6816 45.7516 68.4942 44.8854 66.4034 43.8321C66.175 43.7179 65.9624 43.5663 65.7242 43.4816C64.4799 43.0406 63.8912 42.0621 63.5329 40.8789C63.4246 40.5206 63.2947 40.1682 63.1628 39.8158C63.0742 39.5775 63.147 39.5126 63.3833 39.5677C63.8066 39.6661 64.2299 39.7744 64.659 39.8532C66.683 40.2213 68.7266 40.5186 70.6934 41.1171C72.9023 41.7885 75.0857 42.5622 77.1766 43.5446C78.2161 44.0329 79.1769 44.6944 80.1101 45.3776C81.0787 46.0863 81.6063 47.1239 82.1163 48.1575C82.5415 49.0198 82.9825 49.8644 83.5672 50.6303C83.8862 51.0457 84.1264 51.5103 84.3134 52.0025C84.3843 52.1876 84.4729 52.4317 84.7485 52.3628C85.0438 52.288 85.0143 52.0439 84.9769 51.8116C84.8942 51.3075 84.7859 50.8094 84.6284 50.3232C84.4414 49.7502 84.3922 49.1635 84.341 48.5631C84.2504 47.5137 83.9177 46.5293 83.1853 45.6985C80.9842 43.1981 78.409 41.1526 75.6449 39.3196C74.2195 38.3746 72.8295 37.3784 71.3588 36.5003C69.4412 35.3565 67.374 34.5493 65.3009 33.7499C62.8635 32.8089 60.3395 32.1099 57.9061 31.163C56.5575 30.6373 55.4904 29.6726 54.5592 28.5661C54.4174 28.3968 54.4923 28.3003 54.6045 28.1921C54.8683 27.9361 55.2168 27.8771 55.5554 27.8259C56.4158 27.6959 57.2741 27.5739 58.1227 27.373C58.4416 27.2982 58.7744 27.3081 59.1051 27.3829C60.7589 27.757 62.4284 28.0779 64.0684 28.5031C67.6398 29.4304 71.2466 30.2396 74.7274 31.4898C75.2491 31.6768 75.7787 31.854 76.2827 32.0824C76.9423 32.3816 77.3026 33.0038 77.6904 33.5629C78.3992 34.5867 78.9977 35.6912 79.7557 36.6756C80.6771 37.8686 81.4981 39.105 82.1064 40.4851C82.2127 40.7273 82.4116 40.9281 82.571 41.1447C82.6577 41.2608 82.764 41.3337 82.9195 41.2668C83.0947 41.1919 83.1203 41.0403 83.079 40.8927C82.7443 39.6937 82.7108 38.4337 82.3486 37.2386C82.3092 37.1107 82.258 36.9728 82.2738 36.8468C82.4332 35.4903 82.1517 34.1929 81.7678 32.9093C81.5552 32.1966 81.5138 31.4543 81.5059 30.7279C81.4981 29.9994 81.2283 29.4068 80.7558 28.956C79.2379 27.5069 77.8105 25.9536 76.0229 24.8117C75.637 24.5656 75.2354 24.3667 74.7845 24.3017C73.7135 24.1502 72.6622 23.8942 71.5951 23.721C69.0672 23.3095 66.5176 23.1658 63.97 23.1717C62.1587 23.1776 60.3415 23.2169 58.5283 23.3193C56.524 23.4315 54.5119 23.3961 52.5018 23.3981C51.7655 23.3981 51.039 23.5162 50.2987 23.4768C49.5112 23.4355 48.9068 23.1599 48.5367 22.4452C48.517 22.4058 48.4875 22.3704 48.4619 22.333C47.9697 21.5907 47.9559 21.5789 48.5721 20.8938C49.5112 19.8484 50.6393 19.0392 51.8167 18.2812C53.2421 17.3638 54.8329 16.8794 56.4335 16.4168C57.4887 16.1116 58.5814 16.2593 59.6603 16.2514C61.5248 16.2376 63.088 17.1039 64.6945 17.8914C66.7676 18.9073 68.7581 20.0669 70.7662 21.1989C71.3765 21.5435 72.0302 21.8171 72.6661 22.1184C72.8157 22.1892 72.9732 22.2424 73.1288 22.2956C73.3197 22.3625 73.5284 22.4157 73.6485 22.1971C73.7627 21.9904 73.5816 21.8624 73.4536 21.7463C72.8492 21.2049 72.2527 20.6575 71.6285 20.1417C70.9001 19.5393 70.1894 18.9191 69.5082 18.2635C68.6911 17.4779 67.6496 17.0015 66.746 16.3301C65.673 15.5328 64.5547 14.8004 63.401 14.1271C62.0524 13.3396 60.5541 13.0147 59.0067 12.9517C56.5122 12.8493 54.0749 13.1151 51.7005 13.9676C49.6392 14.7079 47.5326 15.3162 45.4162 15.8891C44.1817 16.2238 42.9158 16.3813 41.6538 16.5723C41.1478 16.6491 40.7108 16.4995 40.3269 16.1589C39.5275 15.454 38.7085 14.7709 37.8108 14.192C37.541 14.0188 37.5036 13.8633 37.7281 13.6329C38.8385 12.493 39.7599 11.1759 40.9766 10.1324C42.1165 9.1559 43.4159 8.76214 44.9043 9.03384C45.9536 9.22481 47.0207 9.28584 48.078 9.41578C49.9621 9.64613 51.797 10.0793 53.5906 10.6994C55.0908 11.2172 56.5752 11.7724 58.0262 12.4142C58.227 12.5028 58.4672 12.6328 58.6149 12.3434C58.735 12.1051 58.5381 11.9634 58.3688 11.8866C56.8075 11.1818 55.4963 10.0596 53.9312 9.33703C50.85 7.9136 47.7196 6.68705 44.353 6.13185C43.5242 5.99403 42.7052 5.79125 41.8861 5.60422C41.1833 5.44474 40.5139 5.4979 39.8819 5.86016C39.2677 6.21257 38.6219 6.49214 37.9545 6.72642C36.9957 7.06111 36.2475 7.71475 35.4994 8.36642C35.397 8.45501 35.2986 8.55148 35.1824 8.61842C33.9736 9.31734 32.9459 10.2624 31.8276 11.0853C31.6386 11.2251 31.4752 11.2015 31.2823 11.166C30.2349 10.9731 29.2347 10.5793 28.1618 10.475C25.1633 10.1836 22.2337 10.3313 19.4243 11.5854C18.4419 12.0244 17.3354 12.1484 16.3983 12.7253C14.2011 14.0739 12.0374 15.458 10.0785 17.157C9.11181 17.9957 8.19041 18.8581 7.39503 19.8562C7.19421 20.1082 6.93236 20.2894 6.66658 20.4508C5.80819 20.9706 5.3534 21.764 5.16833 22.707L5.16046 22.7051ZM83.7267 49.7719C83.7622 49.7542 83.7917 49.7306 83.8015 49.7365C83.8291 49.7561 83.8488 49.7876 83.8724 49.8132C83.8507 49.8231 83.8232 49.8467 83.8094 49.8408C83.7799 49.827 83.7582 49.7975 83.7287 49.7719H83.7267ZM7.28871 21.0769C7.58403 20.9076 7.83997 20.6634 8.05063 20.3878C9.3894 18.6435 11.1633 17.3854 12.884 16.0722C13.5258 15.582 14.2464 15.1922 14.9079 14.7256C16.0655 13.9085 17.2468 13.1466 18.6407 12.7883C19.2235 12.6387 19.7728 12.3945 20.3339 12.178C22.029 11.5243 23.7891 11.1719 25.6082 11.1897C26.2816 11.1975 26.9569 11.2408 27.6302 11.2861C29.1225 11.3885 30.5873 11.5933 31.7075 12.7607C32.0914 13.1624 32.5206 13.5207 32.9282 13.8987C32.6742 13.9676 32.4813 13.9617 32.2962 13.9164C29.091 13.1289 25.9469 13.7569 22.8008 14.32C22.5665 14.3614 22.3381 14.4519 22.1136 14.5346C21.4639 14.7728 20.8024 14.9658 20.1409 15.1627C19.2353 15.4324 18.3316 15.7139 17.5461 16.275C15.8135 17.5114 14.0121 18.6533 12.4686 20.1437C11.8701 20.7225 11.1436 21.1694 10.6278 21.8408C10.0706 22.5673 9.53116 23.3075 8.99368 24.0478C8.90902 24.1639 8.78892 24.2939 8.84996 24.538C8.98187 24.3766 9.07637 24.2663 9.1689 24.1502C10.2813 22.7543 11.4527 21.4155 12.8584 20.3012C14.3881 19.0864 16.0104 18.0075 17.6721 16.9838C18.1741 16.6747 18.686 16.405 19.2491 16.2258C20.1783 15.9305 21.1115 15.6509 22.027 15.3162C22.9327 14.9855 23.8501 14.7157 24.8148 14.6803C25.8366 14.6429 26.7875 14.2432 27.8192 14.2019C29.7427 14.1271 31.6426 14.1881 33.5267 14.5976C33.8318 14.6646 34.0799 14.7886 34.3103 14.9992C35.8302 16.3833 37.4505 17.6512 39.0452 18.9486C40.4647 20.1063 41.8212 21.3368 43.1363 22.6106C43.2151 22.6873 43.3706 22.7602 43.3115 22.8941C43.2603 23.0083 43.1028 22.9709 42.9887 22.9945C42.0771 23.1776 41.1144 23.1067 40.2343 23.3233C38.5313 23.7426 36.7693 23.9041 35.1076 24.4967C34.6705 24.6522 34.2158 24.7605 33.761 24.8648C30.7645 25.546 28.3212 27.1112 26.3879 29.4836C24.2262 32.1375 22.0506 34.7776 19.9303 37.465C18.3651 39.4476 17.2921 41.6585 17.0224 44.2258C16.918 45.222 16.8294 46.1907 17.1149 47.1633C17.2232 47.5314 17.2645 47.9193 17.3846 48.2815C17.5303 48.7206 17.4142 49.1891 17.5658 49.6813C17.737 49.1891 17.7725 48.7481 17.737 48.2933C17.6288 46.866 17.4614 45.4681 17.737 44.0093C18.1761 41.692 19.0601 39.613 20.4874 37.7761C22.4306 35.2797 24.4545 32.8443 26.5493 30.4699C27.9964 28.8299 29.6246 27.442 31.6229 26.5107C32.816 25.9536 34.1154 25.7311 35.334 25.2704C36.9563 24.6561 38.7046 24.5321 40.3229 23.9218C40.4726 23.8647 40.6478 23.8627 40.8112 23.8588C41.768 23.845 42.6796 23.6402 43.5478 23.2406C43.6403 23.1973 43.721 23.1815 43.7939 23.2544C44.4633 23.9119 45.1287 24.5695 45.8552 25.2861C45.3158 25.424 44.8807 25.5342 44.4475 25.6464C42.4315 26.1642 40.5316 26.9714 38.7321 28.0031C38.2459 28.2826 37.8068 28.6409 37.2752 28.8477C37.1414 28.8989 37.0292 29.013 36.915 29.1095C36.6767 29.3103 36.468 29.5604 36.2023 29.712C35.3557 30.1923 34.8261 31.0527 33.9795 31.5272C33.9165 31.5626 33.8633 31.6394 33.9342 31.7142C33.9953 31.7792 34.0681 31.7575 34.137 31.7142C34.3477 31.5705 34.576 31.4484 34.769 31.2831C35.8577 30.3538 36.9642 29.4974 38.2498 28.7984C39.7638 27.9735 41.3762 27.4341 42.9296 26.7371C43.5183 26.4733 44.1483 26.3316 44.7901 26.2312C45.174 26.1701 45.5599 26.0874 45.9221 25.9496C46.184 25.8512 46.3277 25.8984 46.501 26.0973C46.8928 26.5481 47.2629 27.0128 47.7078 27.4262C48.5229 28.1881 49.3321 28.9658 50.096 29.8872C49.1864 30.1018 48.5682 30.6314 48.0327 31.2988C47.4224 32.0588 46.8179 32.8207 46.2923 33.6436C46.2411 33.7243 46.1466 33.8346 46.2746 33.9153C46.3651 33.9704 46.434 33.87 46.4951 33.807C46.5561 33.7421 46.6211 33.6771 46.6742 33.6062C47.3318 32.7321 48.1095 31.9702 48.8714 31.1905C49.275 30.7751 49.7829 30.5723 50.2948 30.3558C50.4779 30.277 50.5744 30.3695 50.6768 30.4837C51.2201 31.0842 51.7576 31.6906 52.3089 32.2852C52.4979 32.4899 52.4841 32.5943 52.2419 32.7616C50.0723 34.2421 48.1981 36.0672 46.4045 37.9592C44.3077 40.1741 42.4787 42.6173 40.7324 45.1197C39.687 46.6159 38.679 48.1339 38.0057 49.8388C37.73 50.5378 37.2615 51.1441 37.0784 51.8805C36.7988 53.0007 36.2889 54.0402 35.966 55.1506C35.5033 56.7375 34.9993 58.3046 34.9383 59.9682C34.9068 60.8128 34.8635 61.6732 35.1923 62.5414C35.2828 60.7301 35.271 58.9799 35.7711 57.2513C36.0467 56.3004 36.3873 55.3751 36.6826 54.434C37.0449 53.2803 37.5312 52.1659 38.0746 51.0831C38.2695 50.6953 38.4723 50.3113 38.6514 49.9156C39.1298 48.8623 39.7028 47.8563 40.382 46.927C41.3624 45.5843 42.2897 44.2061 43.3096 42.891C44.3117 41.5975 45.3473 40.3336 46.3848 39.0716C47.4539 37.7722 48.7316 36.6677 49.8912 35.451C50.6886 34.6142 51.608 33.9114 52.5491 33.2381C52.807 33.053 52.9802 33.0392 53.2303 33.2971C54.0434 34.1378 54.8486 34.9844 55.6302 35.8565C56.7505 37.1047 57.9002 38.3254 58.9831 39.611C59.1898 39.8571 59.1799 39.9969 58.9771 40.2016C58.2841 40.9045 57.7841 41.7393 57.3352 42.6095C57.1974 42.8753 57.0536 43.1371 56.9198 43.4049C56.8883 43.4679 56.8745 43.5564 56.9532 43.6076C57.0536 43.6746 57.1226 43.6076 57.1757 43.5309C57.2269 43.456 57.2663 43.3753 57.3096 43.2966C57.8412 42.3378 58.4219 41.4144 59.1465 40.5816C59.4024 40.2863 59.5343 40.1918 59.8336 40.5422C60.3297 41.125 60.8199 41.7097 61.2964 42.3102C61.5228 42.5977 61.446 42.702 61.2196 42.9068C59.7017 44.2711 58.1896 45.6414 56.8272 47.1652C55.961 48.1339 55.2778 49.2305 54.7482 50.4098C54.4115 51.1579 54.2422 51.9828 53.8957 52.727C53.1751 54.2686 53.1259 55.9539 52.7558 57.5683C52.7499 57.5978 52.7499 57.6273 52.7499 57.6588C52.7991 58.9326 52.8424 60.2064 52.9054 61.4802C52.9271 61.9291 52.994 62.376 53.1377 62.8052C53.1653 62.8879 53.2027 63.0336 53.3267 63.008C53.4842 62.9765 53.3996 62.8505 53.3819 62.7541C53.0039 60.5293 52.8326 58.3223 53.4961 56.0976C53.8386 54.9498 54.13 53.7961 54.5868 52.6778C55.3369 50.8429 56.0614 49.0297 57.4809 47.5511C58.8511 46.1237 60.1761 44.6511 61.574 43.2454C61.7964 43.0229 61.9028 43.0446 62.074 43.2789C62.4107 43.7376 62.7611 44.1884 63.1293 44.6255C63.2888 44.8145 63.273 44.9287 63.0722 45.0488C62.7611 45.2358 62.4934 45.474 62.2256 45.7182C60.434 47.3523 59.2744 49.4037 58.3294 51.5871C58.6464 51.3331 58.989 50.9236 59.1898 50.5417C60.1466 48.7245 61.2609 47.0274 62.8163 45.6552C63.2442 45.2785 63.6313 45.3139 63.9779 45.7615C64.0231 45.8205 64.0822 45.8698 64.1275 45.9288C64.6945 46.6415 65.3363 47.2893 65.864 48.0433C67.1555 49.8861 68.3919 51.7623 69.5968 53.6602C69.711 53.8414 69.8921 54.0008 69.7484 54.2666C69.4924 54.7352 69.3526 55.2609 69.1144 55.7314C68.2875 57.3714 68.0296 59.1394 67.8406 60.9329C67.7402 61.8858 67.8741 62.8151 68.0434 63.7404C68.1005 64.0456 68.1379 64.4019 68.4608 64.6539C68.1556 62.9135 68.5474 61.2184 68.6537 59.5056C68.764 57.7376 69.3664 56.137 69.9984 54.495C71.0734 56.0366 71.664 57.7691 72.422 59.4091C72.9614 60.5766 73.2429 61.8701 73.5855 63.1202C74.0226 64.7248 74.2273 66.3687 74.3199 68.0304C74.3632 68.7982 74.503 69.5621 74.5128 70.328C74.5286 71.4423 74.6723 72.5369 74.8633 73.6296C74.8731 73.6808 74.8928 73.7517 74.9893 73.7359C75.0916 73.5804 75.0739 73.4071 75.0562 73.228C75.0148 72.8126 74.9676 72.3952 74.942 71.9778C74.8121 69.8771 74.753 67.7685 74.5443 65.6757C74.2825 63.0553 73.5304 60.5628 72.4476 58.1451C71.3962 55.7983 70.2583 53.5165 68.825 51.3824C68.4962 50.8921 68.2127 50.3743 67.8701 49.8054C68.0749 49.8802 68.2265 49.9117 68.3525 49.9845C69.8251 50.835 71.3844 51.5202 72.8216 52.4416C74.2037 53.3256 75.5346 54.245 76.6844 55.4282C77.9818 56.763 78.7516 58.3361 79.0174 60.1671C79.171 61.2243 79.1828 62.2874 79.165 63.3526C79.1631 63.4667 79.108 63.6361 79.2733 63.6459C79.4407 63.6558 79.4013 63.4746 79.4151 63.3663C79.5037 62.7009 79.4997 62.0335 79.4781 61.3602C79.3659 57.7553 77.6707 55.0797 74.7373 53.0972C73.6702 52.3766 72.5716 51.7151 71.4612 51.0614C70.4906 50.4905 69.5141 49.9156 68.4962 49.4667C67.2244 48.9056 66.3975 48.0039 65.7793 46.8148C66.9487 47.0333 68.1005 47.2637 69.1085 47.9508C69.7799 48.4095 70.5457 48.6969 71.2919 49.01C71.4277 49.0671 71.6049 49.2521 71.7191 49.0336C71.8431 48.7914 71.5833 48.7383 71.4376 48.6694C70.7859 48.3622 70.1579 48.0177 69.5436 47.6397C68.7226 47.1357 67.8583 46.7301 66.8857 46.5943C66.3187 46.5155 65.795 46.2714 65.2536 46.0942C65.0469 46.0273 64.8914 45.917 64.7417 45.7556C64.1629 45.1354 63.8774 44.2947 63.277 43.712C62.0229 42.4972 61.2373 40.9143 59.9655 39.6996C58.9319 38.7113 58.1148 37.4985 57.1363 36.4393C56.8174 36.0928 56.5398 35.7108 56.1834 35.2698C59.2528 35.8231 62.2178 36.3231 65.1453 37.0555C68.0769 37.7879 70.8095 39.0873 73.7076 39.924C73.558 39.7744 73.3886 39.6602 73.2075 39.5775C72.5401 39.2803 71.8648 38.9948 71.1954 38.7014C68.9963 37.7387 66.7775 36.8331 64.4189 36.3192C62.6765 35.9392 60.94 35.5238 59.1799 35.2265C58.2192 35.0651 57.2505 34.9391 56.2996 34.7166C56.213 34.6969 56.1165 34.6831 56.0318 34.7009C55.7562 34.7599 55.581 34.63 55.4176 34.4292C54.7384 33.5905 54.0414 32.7655 53.3031 31.9761C53.248 31.917 53.1555 31.8619 53.2421 31.7103C53.9902 31.8383 54.758 31.9544 55.518 32.1001C56.589 32.3049 57.5478 32.8226 58.5519 33.2144C58.6917 33.2696 58.8925 33.4152 58.989 33.2223C59.0953 33.0097 58.859 32.9605 58.7153 32.8994C58.2172 32.6907 57.723 32.4722 57.2171 32.2871C56.0023 31.8442 54.7699 31.4189 53.4842 31.3067C52.8267 31.2496 52.4231 30.9858 52.0116 30.5349C51.3265 29.7828 50.5862 29.078 49.8262 28.3968C49.21 27.8436 48.6272 27.253 47.9776 26.6269C48.1803 26.5816 48.2926 26.5501 48.4067 26.5324C49.4581 26.3768 50.5094 26.2253 51.5607 26.0717C52.1376 25.987 52.7164 25.8177 53.2933 25.8295C54.9392 25.8591 56.5811 25.6149 58.2251 25.7586C58.989 25.8256 59.7568 25.6661 60.5128 25.7547C62.0918 25.9398 63.6786 26.0047 65.2615 26.1367C67.4626 26.3217 69.6381 26.6328 71.8077 27.0088C73.2351 27.2549 74.5423 27.8377 75.8221 28.5189C76.7868 29.0327 77.6373 29.6509 78.3559 30.464C78.602 30.7436 78.8441 31.0271 79.0922 31.3027C79.167 31.3854 79.2477 31.5587 79.3678 31.4681C79.5155 31.3559 79.3383 31.2397 79.2832 31.1334C79.2477 31.0685 79.1906 31.0153 79.1473 30.9543C78.224 29.6509 76.9738 28.7039 75.702 27.7786C74.7806 27.1092 73.8001 26.6289 72.6543 26.4359C71.1304 26.1819 69.6145 25.8925 68.0808 25.6976C66.5491 25.5047 65.0233 25.2133 63.4876 25.1168C61.8909 25.0144 60.2884 24.9731 58.6818 25.0085C56.8075 25.0479 54.9411 25.2527 53.0649 25.1956C52.7991 25.1877 52.5294 25.2645 52.2636 25.3039C50.8835 25.5066 49.5211 25.8118 48.1351 25.9792C47.6389 26.0382 47.255 25.928 46.8967 25.548C45.5284 24.099 44.105 22.7051 42.6047 21.3899C42.3567 21.1734 42.4118 21.0355 42.6481 20.8702C43.2033 20.4843 43.7565 20.0984 44.2979 19.6948C46.2785 18.2123 48.4678 17.0999 50.7319 16.1392C52.1415 15.5426 53.6595 15.2572 55.1065 14.761C55.5022 14.6252 55.8901 14.4519 56.3193 14.4401C57.6856 14.4047 59.0421 14.4677 60.3769 14.8024C60.4793 14.828 60.5797 14.9638 60.7648 14.8457C60.1958 14.5996 59.6879 14.3771 59.1071 14.32C58.5007 14.261 57.8904 14.2373 57.284 14.1369C56.8154 14.0601 56.3173 14.0503 55.8547 14.1901C54.7088 14.5366 53.5551 14.8477 52.4034 15.1745C51.0941 15.5466 49.779 15.9246 48.6194 16.6806C48.015 17.0743 47.2944 17.2141 46.6585 17.5508C45.0736 18.3895 43.6265 19.4389 42.1854 20.4922C41.9294 20.6792 41.8113 20.6418 41.5967 20.4626C39.7382 18.925 37.8659 17.4031 36.0644 15.7986C35.3498 15.1627 34.6883 14.4657 33.8594 13.9656C33.6409 13.8337 33.5976 13.6841 33.8161 13.4734C35.4896 11.863 37.1394 10.2289 38.8306 8.63614C39.3563 8.14001 40.0256 7.85453 40.7698 7.76791C41.5731 7.67537 42.3705 7.54544 43.1698 7.43125C43.2426 7.4214 43.3194 7.39975 43.3273 7.28752C43.2978 7.26981 43.2663 7.23043 43.2308 7.23043C42.1224 7.17727 41.0258 7.32296 39.9646 7.59072C39.2204 7.77972 38.5353 8.18529 37.982 8.76411C37.7005 9.05943 37.3442 9.26025 37.0232 9.50831C35.6746 10.5439 34.4264 11.6858 33.3692 13.0206C33.19 13.247 33.0916 13.2234 32.9164 13.0679C32.5364 12.7332 32.1525 12.4044 31.7469 12.0539C31.932 11.9102 32.0855 11.7941 32.2352 11.674C33.9716 10.2643 35.8223 9.00824 37.667 7.74822C37.9033 7.58678 38.1573 7.45684 38.4329 7.37021C39.0078 7.18909 39.5551 6.94496 40.0768 6.6398C40.6241 6.31888 41.199 6.26179 41.8133 6.40551C42.6185 6.59254 43.4316 6.74217 44.2349 6.92921C46.3809 7.42731 48.5761 7.73838 50.6098 8.66174C51.7497 9.18149 52.9133 9.65203 54.065 10.1442C53.8012 10.1895 53.5768 10.1049 53.3504 10.03C52.5668 9.77213 51.7793 9.528 50.9799 9.32128C49.0525 8.81924 47.068 8.70505 45.1149 8.37626C43.6108 8.12229 42.2248 8.33098 40.9785 9.276C40.5926 9.56934 40.2855 9.93357 39.9272 10.2486C38.868 11.1857 38.0864 12.367 37.1394 13.4065C36.6866 13.9026 36.7594 14.2098 37.3146 14.5956C38.2872 15.2729 39.1909 16.0309 40.0906 16.7967C40.5395 17.1787 41.0494 17.3559 41.6282 17.287C42.9099 17.1334 44.1896 16.97 45.4398 16.6412C47.4735 16.1077 49.4935 15.5249 51.4584 14.7827C53.9292 13.8475 56.4729 13.4892 59.0933 13.6093C60.5305 13.6743 61.9224 13.9715 63.1844 14.7C64.3401 15.3654 65.4466 16.1096 66.5255 16.8893C67.4941 17.5882 68.6045 18.0942 69.4393 18.9742C69.8527 19.4093 70.3272 19.7716 70.7879 20.1516C71.0635 20.3799 71.3352 20.6142 71.5833 20.8721C71.5833 20.8721 71.5931 20.878 71.599 20.88C71.6167 20.8879 71.6364 20.8898 71.6541 20.8977C71.6758 20.9076 71.6915 20.9253 71.6837 20.9666C71.6305 20.9489 71.5774 20.9332 71.5242 20.9154C71.3726 20.8505 71.219 20.7934 71.0714 20.7205C69.5456 19.9822 68.1753 18.9703 66.6495 18.2182C64.9367 17.3756 63.2218 16.5625 61.4106 15.9561C61.1074 15.8557 60.8081 15.7828 60.4892 15.7671C59.2016 15.6962 57.914 15.8714 56.6244 15.7789C55.6066 15.706 54.6852 16.0447 53.7855 16.4995C52.7282 17.033 51.6926 17.602 50.7063 18.2556C49.4305 19.1002 48.139 19.9251 47.507 21.4293C47.4086 21.6636 47.4145 21.8034 47.572 21.9845C48.0327 22.518 48.4697 23.0732 48.8438 23.6737C49.019 23.9533 49.275 24.0773 49.5821 24.1305C50.1452 24.2289 50.7122 24.2762 51.2851 24.2289C52.8542 24.1009 54.4352 24.1167 56.0023 24.1127C58.1188 24.1088 60.2254 23.9296 62.3398 23.9119C64.9957 23.8903 67.6437 23.8981 70.2858 24.2407C71.4927 24.3963 72.6858 24.6266 73.8887 24.7979C74.7569 24.9219 75.5307 25.17 76.2532 25.6838C77.4581 26.5403 78.4445 27.6369 79.5627 28.5858C80.3955 29.2926 80.9566 30.0545 80.9862 31.2338C81.0354 33.1751 81.8564 34.9981 82.0001 36.9354C82.004 36.9906 82.0473 37.0437 82.071 37.0988C82.4549 38.036 82.3978 39.0322 82.5435 40.0815C82.3092 39.8866 82.2639 39.6917 82.1832 39.5204C81.9174 38.9495 81.6733 38.3589 81.2775 37.8647C80.1376 36.4432 79.1808 34.8977 78.222 33.3562C77.4975 32.1907 76.5052 31.4858 75.2117 31.0232C71.5144 29.7002 67.691 28.8359 63.905 27.8436C62.4245 27.4557 60.9046 27.2274 59.4221 26.8395C58.9811 26.7234 58.5302 26.682 58.0833 26.7844C57.1895 26.9891 56.2838 27.1112 55.3802 27.249C54.8998 27.3219 54.4509 27.4853 54.1024 27.8554C53.7244 28.259 53.6772 28.4303 54.0217 28.8713C54.9982 30.1156 56.1874 31.1354 57.6462 31.7477C58.9575 32.2989 60.3297 32.7065 61.6803 33.1593C64.3854 34.063 67.059 35.0493 69.6283 36.2877C71.3313 37.1087 72.8807 38.1994 74.4478 39.2547C77.4404 41.2668 80.3581 43.3576 82.7502 46.1021C83.3881 46.8345 83.6322 47.6889 83.7523 48.5926C83.7996 48.9489 83.7799 49.3348 83.7425 49.7168C83.2562 49.2088 83.0061 48.5828 82.7089 47.9882C82.1832 46.9388 81.6752 45.8737 80.7539 45.1039C79.6907 44.216 78.5114 43.4836 77.273 42.8812C75.4224 41.9814 73.4595 41.3435 71.5163 40.686C68.8663 39.7882 66.0648 39.4929 63.3518 38.8373C63.2789 38.8196 63.2022 38.8117 63.1293 38.8117C62.5603 38.8058 62.2493 39.2271 62.4245 39.7685C62.6627 40.5068 62.9226 41.2372 63.214 41.9578C63.5683 42.8378 64.096 43.5407 64.9918 43.9364C65.4426 44.1353 65.858 44.4148 66.305 44.6294C69.6932 46.2694 73.1347 47.7972 76.1823 50.0672C77.842 51.3036 79.6021 52.4179 81.0531 53.9063C82.0277 54.9065 82.8683 56.0307 82.9609 57.523C82.9668 57.6273 82.9943 57.7297 83.014 57.8321C83.2542 59.1098 83.1144 60.3836 82.5592 61.5196C81.8564 62.9549 81.0315 64.3409 79.9467 65.5458C79.5352 66.0025 79.1355 66.481 78.8717 67.0381C77.6333 69.6527 76.4324 72.283 75.6015 75.0649C75.4027 75.7283 75.1625 76.378 74.94 77.0336C74.5167 75.8209 73.808 74.8069 73.2193 73.73C71.4021 70.4028 72.2231 71.3754 69.2955 68.9183C69.203 68.8415 69.1124 68.7628 69.0199 68.688C67.1574 67.172 65.106 66.0222 62.7493 65.4651C62.584 65.4257 62.5111 65.3666 62.5446 65.1973C62.7611 64.0594 62.708 62.8919 62.9423 61.7559C63.3262 59.8855 63.8578 58.0506 64.4917 56.2551C64.98 54.873 65.5923 53.5205 66.6613 52.4534C66.998 52.1167 67.057 51.7801 66.8129 51.3686C66.7322 51.2327 66.7243 51.0536 66.6849 50.8941C66.5412 50.2976 66.4644 49.6754 66.2459 49.1064C65.7557 47.8307 65.0292 47.6299 64.1432 48.6497C63.3557 49.5553 62.5682 50.4629 61.824 51.4021C60.9302 52.5302 59.9871 53.6366 59.237 54.8592C58.0124 56.8536 57.0221 58.9779 56.3193 61.2223C56.0594 62.0532 55.6204 62.8485 55.5475 63.7089C55.4235 65.1757 55.3054 66.6581 55.5771 68.178C55.203 68.0619 54.8388 67.9418 54.4706 67.8315C53.4311 67.5205 52.4211 67.1425 51.5351 66.4947C50.9642 66.0774 50.5704 65.5359 50.5133 64.8193C50.3125 62.3386 50.2357 59.854 50.3421 57.3655C50.4917 53.8551 51.23 50.4728 52.5294 47.2125C53.6102 44.4975 54.8762 41.8889 56.9808 39.7823C57.1501 39.613 57.2899 39.4082 57.3549 39.1739C57.4415 38.8609 57.2604 38.664 56.9729 38.7014C56.0082 38.8314 55.073 39.0991 54.1241 39.296C53.3897 39.4476 52.7243 39.7409 52.1533 40.2194C51.1355 41.0718 50.281 42.0858 49.5073 43.1528C48.3536 44.7436 47.3101 46.4112 46.3198 48.1083C45.6229 49.2994 44.6759 50.335 44.0892 51.5871C42.7288 54.4891 41.3743 57.395 40.1064 60.3384C40.063 60.4388 40.0965 60.6199 39.9252 60.6002C39.6457 60.5707 39.6122 60.7813 39.5393 60.9526C38.8011 62.6714 38.3089 64.461 38.1356 66.3235C38.0884 66.8334 38.1632 67.4063 38.4309 67.8335C38.7184 68.2942 38.8601 68.7825 39.1121 69.3258C38.7085 69.2215 38.4486 69.0443 38.1809 68.8868C37.7399 68.6289 37.2989 68.369 36.8126 68.2056C35.2789 67.6937 33.7433 67.1858 32.2037 66.6916C31.8217 66.5696 31.6485 66.353 31.6209 65.9474C31.5205 64.4374 31.4083 62.9273 31.2783 61.4192C31.1169 59.5705 30.8708 57.7278 31.0637 55.8653C31.361 52.9909 31.9891 50.1853 32.7805 47.4133C33.4342 45.1236 34.3634 42.9422 35.4876 40.8513C36.7831 38.4435 38.614 36.461 40.634 34.6457C41.3349 34.0157 41.9944 33.3207 42.8863 32.9506C43.3588 32.7557 43.8136 32.5293 44.2152 32.2202C44.8708 31.7162 45.5638 31.2673 46.2529 30.8145C46.6841 30.531 46.6703 30.1786 46.2116 29.9266C45.6505 29.6194 45.0441 29.6116 44.4652 29.8163C41.8625 30.7397 39.246 31.6099 36.7712 32.8719C33.5523 34.5138 30.4514 36.329 27.6144 38.5676C26.0591 39.7941 24.5963 41.127 23.2063 42.5406C22.9858 42.765 22.6393 42.9382 22.5487 43.204C22.1373 44.407 21.6628 45.5863 21.5073 46.8739C21.2789 48.7639 21.1726 50.6677 20.8635 52.5518C20.6351 53.9398 20.4992 55.3495 20.4244 56.7552C20.3476 58.2003 20.3969 59.6532 20.391 61.1022C20.3851 61.1396 20.3792 61.1771 20.3713 61.2125C20.3417 61.1948 20.3122 61.1771 20.2827 61.1593C19.9401 60.8778 19.7275 60.4919 19.4715 60.1395C18.4045 58.6708 17.5284 57.0623 16.3235 55.696C15.0339 54.2351 14.4216 52.4691 14.0259 50.6283C13.6853 49.0494 13.4353 47.4507 13.3821 45.8225C13.3171 43.84 13.26 41.8633 13.5435 39.8945C13.6518 39.1483 13.8802 38.4356 14.3173 37.8017C15.0851 36.6913 15.8372 35.5691 16.5991 34.4528C17.7843 32.7203 18.9459 30.97 20.1035 29.2198C21.4384 27.2018 23.1 25.4358 24.6593 23.593C24.9467 23.2524 25.2952 22.9964 25.6909 22.8094C26.4666 22.4452 27.1892 21.9865 27.9216 21.5435C28.7799 21.0257 29.6344 20.5512 30.6916 20.6674C30.9358 20.6949 31.2055 20.6437 31.2646 20.3504C31.3236 20.0492 31.1149 19.8858 30.857 19.7873C30.4495 19.6318 30.0301 19.5097 29.6344 19.3266C27.1222 18.171 24.5864 18.4604 22.0802 19.2754C20.3831 19.8267 18.8533 20.7993 17.172 21.4135C16.92 21.5061 16.6837 21.6498 16.4593 21.7975C15.8982 22.1636 15.2898 22.4019 14.6441 22.5653C14.1046 22.7011 13.5632 22.8665 13.1596 23.28C12.2323 24.2309 11.372 25.2487 10.868 26.4851C9.75166 29.2217 8.59205 31.9485 8.06244 34.882C8.03488 35.0395 8.03291 35.2147 7.86557 35.3899C7.85375 35.1734 7.84588 35.0119 7.838 34.8485C7.8006 34.1142 7.82225 33.3719 7.61159 32.6592C7.12333 31.0074 7.20209 29.2237 6.42638 27.6408C6.4126 27.6152 6.4067 27.5837 6.40473 27.5542C6.36141 26.1465 5.95388 24.7664 6.08185 23.3469C6.16454 22.4196 6.42048 21.5809 7.30643 21.0729L7.28871 21.0769ZM32.9931 14.0247L32.9774 14.0424L32.9656 14.0227H32.9931V14.0247Z"/>
</mask>
<path d="M5.16046 22.7051C4.98917 23.5733 4.93405 24.4573 5.09942 25.3432C5.17424 25.7409 5.24118 26.1445 5.24905 26.5462C5.2648 27.3986 5.42034 28.2118 5.76881 28.9934C5.87709 29.2375 5.96372 29.5033 5.99719 29.7671C6.29054 32.0981 6.91858 34.3859 6.8162 36.7661C6.78864 37.3902 6.89102 38.0222 6.95205 38.6502C6.97174 38.857 7.02293 39.0696 7.11152 39.2547C7.22177 39.485 7.39699 39.7075 7.68837 39.6779C7.98172 39.6484 8.18648 39.4594 8.25538 39.17C8.31445 38.9239 8.35973 38.666 8.3617 38.414C8.36564 37.8352 8.47195 37.28 8.66095 36.7366C9.2634 35.0021 9.43665 33.1573 10.0352 31.4189C10.5825 29.8281 11.1613 28.2511 11.7933 26.6938C12.2146 25.6543 12.9293 24.7939 13.6636 23.9572C13.9885 23.5871 14.4452 23.4611 14.8922 23.341C15.5497 23.1658 16.1699 22.9138 16.7507 22.5554C17.3019 22.2148 17.8847 21.9353 18.5009 21.7345C19.8338 21.2974 20.9875 20.4449 22.3342 20.059C24.3679 19.4782 26.4253 19.0648 28.524 19.7755C28.6382 19.8149 28.7524 19.8503 28.8646 19.8917C28.9355 19.9173 29.0024 19.9488 29.1265 20.0019C28.6146 20.2913 28.146 20.5689 27.6656 20.8249C26.8053 21.2856 25.9843 21.8132 25.1003 22.2306C24.7026 22.4176 24.3718 22.707 24.0844 23.0378C22.4306 24.9396 20.6646 26.7588 19.2786 28.8674C17.6721 31.3126 15.8962 33.6417 14.3192 36.1066C14.2385 36.2326 14.1716 36.3704 14.0751 36.4846C13.012 37.7505 12.6202 39.2606 12.5276 40.8632C12.3839 43.3182 12.3741 45.7792 12.6359 48.2225C12.8131 49.8703 13.1892 51.4946 13.6853 53.0854C14.0613 54.2843 14.7327 55.314 15.5261 56.261C16.6601 57.6116 17.5579 59.1236 18.562 60.5648C19.1526 61.4113 19.8574 62.1398 20.5603 62.8781C20.7631 63.0907 21.0328 63.1832 21.3005 63.0474C21.5821 62.9037 21.6136 62.6025 21.5447 62.3347C21.1076 60.6612 21.3183 58.9602 21.3498 57.2749C21.3813 55.5522 21.651 53.8394 21.8774 52.1285C22.1196 50.2995 22.279 48.4587 22.5015 46.6278C22.6433 45.4544 23.1315 44.3774 23.5095 43.271C23.545 43.1647 23.6454 43.078 23.7281 42.9934C25.7638 40.8887 27.9353 38.9278 30.3609 37.2918C32.1072 36.1144 33.9401 35.0592 35.8203 34.0866C37.3934 33.2735 38.9487 32.4328 40.5986 31.791C40.9864 31.6394 41.3762 31.4937 41.766 31.3539C41.9137 31.3008 42.0594 31.2496 42.207 31.2004C43.2407 30.8519 44.294 30.5684 45.3906 30.4424C45.4595 30.4129 45.5304 30.3833 45.5835 30.4581C45.5875 30.464 45.5126 30.527 45.4752 30.5644C44.4396 31.2141 43.5399 32.0804 42.3547 32.4939C42.148 32.5667 41.959 32.7104 41.7798 32.8463C38.9723 35.0041 36.5173 37.4887 34.7493 40.5875C33.3003 43.1292 32.2371 45.8442 31.5382 48.6733C31.0322 50.7209 30.5873 52.792 30.288 54.8888C29.975 57.0682 30.1738 59.2398 30.4199 61.4054C30.5204 62.2993 30.5676 63.1951 30.6227 64.0928C30.668 64.839 30.735 65.5852 30.8295 66.3254C30.9299 67.1149 31.5677 67.3393 32.2056 67.5658C33.698 68.0934 35.2474 68.4517 36.7063 69.0679C37.6414 69.4637 38.5569 69.9165 39.3937 70.5071C39.5512 70.6174 39.7244 70.704 39.8898 70.576C40.0749 70.4323 40.0749 70.2216 40.004 70.0031C39.748 69.2038 39.5059 68.4005 39.2499 67.6012C39.1417 67.2645 39.1082 66.9141 39.1692 66.5774C39.5078 64.6854 39.8288 62.7777 40.5415 60.99C41.2975 59.098 42.0929 57.2198 43.0024 55.3908C43.3037 54.7864 43.5813 54.1702 43.8352 53.5461C44.8629 51.0319 46.6703 49.0021 48.0622 46.7144C48.6213 45.793 49.2829 44.9326 49.8715 44.029C50.5488 42.9914 51.4032 42.1055 52.2301 41.1959C52.807 40.56 53.5413 40.1662 54.3879 39.9831C54.5297 39.9516 54.6714 39.9201 54.8132 39.8847C55.2384 39.7823 55.6597 39.6701 56.085 39.5638C56.1224 39.5697 56.1578 39.5736 56.1953 39.5795C56.1775 39.611 56.1598 39.6425 56.1421 39.674C56.1244 39.6996 56.1106 39.7252 56.0929 39.7508C56.0771 39.7764 56.0594 39.8 56.0397 39.8217C54.2324 41.7353 53.1968 44.0939 52.2045 46.4801C51.1926 48.9155 50.5626 51.4651 50.0054 54.0284C49.5486 56.1271 49.4482 58.2652 49.3852 60.4132C49.34 61.9291 49.4837 63.4234 49.5742 64.9256C49.6294 65.8293 50.0861 66.5814 50.8165 67.1385C51.7734 67.8689 52.8739 68.304 54.0158 68.6506C54.8624 68.9085 55.7168 69.1467 56.4729 69.6369C56.7406 69.8102 57.0497 69.8968 57.2997 69.6369C57.5321 69.3928 57.4198 69.0994 57.2781 68.8435C57.1344 68.5816 57.0084 68.2903 56.8056 68.0796C56.3882 67.6484 56.3252 67.1405 56.3547 66.5853C56.4079 65.6127 56.2425 64.6126 56.5024 63.6695C57.2663 60.8975 58.2802 58.2121 59.7076 55.7137C60.7057 53.9654 62.0012 52.416 63.3026 50.8784C63.8164 50.272 64.3086 49.6479 64.8087 49.0277C65.0489 48.7304 65.2339 48.7678 65.4092 49.0927C65.6946 49.6301 65.7222 50.2405 65.9073 50.8055C66.1278 51.4729 66.0411 51.9828 65.5312 52.5833C64.5961 53.6839 64.033 55.0384 63.5939 56.4146C62.9816 58.3282 62.3516 60.2419 62.0662 62.2422C61.9106 63.3388 61.889 64.4511 61.6744 65.5438C61.6035 65.9041 61.7886 66.1699 62.1902 66.1738C62.9305 66.1797 63.5979 66.4495 64.2633 66.7231C66.0293 67.4457 67.5768 68.5049 69.0711 69.6901C70.463 70.7946 71.5892 72.0388 72.3531 73.665C72.9949 75.0314 73.8867 76.2776 74.3376 77.7424C74.3455 77.77 74.3612 77.7975 74.373 77.8251C74.4872 78.081 74.6211 78.3153 74.9538 78.3055C75.2984 78.2956 75.385 78.0318 75.4696 77.768C75.8614 76.5532 76.2591 75.3424 76.647 74.1257C77.2986 72.0762 78.2141 70.135 79.0863 68.1761C79.4761 67.3019 79.9939 66.5243 80.6318 65.8155C81.7067 64.6224 82.508 63.2325 83.1951 61.8051C83.7759 60.5963 83.8547 59.2496 83.7228 57.8852C83.4905 55.4715 82.134 53.7508 80.368 52.2978C77.9562 50.3113 75.4007 48.5099 72.7035 46.9329C70.6816 45.7516 68.4942 44.8854 66.4034 43.8321C66.175 43.7179 65.9624 43.5663 65.7242 43.4816C64.4799 43.0406 63.8912 42.0621 63.5329 40.8789C63.4246 40.5206 63.2947 40.1682 63.1628 39.8158C63.0742 39.5775 63.147 39.5126 63.3833 39.5677C63.8066 39.6661 64.2299 39.7744 64.659 39.8532C66.683 40.2213 68.7266 40.5186 70.6934 41.1171C72.9023 41.7885 75.0857 42.5622 77.1766 43.5446C78.2161 44.0329 79.1769 44.6944 80.1101 45.3776C81.0787 46.0863 81.6063 47.1239 82.1163 48.1575C82.5415 49.0198 82.9825 49.8644 83.5672 50.6303C83.8862 51.0457 84.1264 51.5103 84.3134 52.0025C84.3843 52.1876 84.4729 52.4317 84.7485 52.3628C85.0438 52.288 85.0143 52.0439 84.9769 51.8116C84.8942 51.3075 84.7859 50.8094 84.6284 50.3232C84.4414 49.7502 84.3922 49.1635 84.341 48.5631C84.2504 47.5137 83.9177 46.5293 83.1853 45.6985C80.9842 43.1981 78.409 41.1526 75.6449 39.3196C74.2195 38.3746 72.8295 37.3784 71.3588 36.5003C69.4412 35.3565 67.374 34.5493 65.3009 33.7499C62.8635 32.8089 60.3395 32.1099 57.9061 31.163C56.5575 30.6373 55.4904 29.6726 54.5592 28.5661C54.4174 28.3968 54.4923 28.3003 54.6045 28.1921C54.8683 27.9361 55.2168 27.8771 55.5554 27.8259C56.4158 27.6959 57.2741 27.5739 58.1227 27.373C58.4416 27.2982 58.7744 27.3081 59.1051 27.3829C60.7589 27.757 62.4284 28.0779 64.0684 28.5031C67.6398 29.4304 71.2466 30.2396 74.7274 31.4898C75.2491 31.6768 75.7787 31.854 76.2827 32.0824C76.9423 32.3816 77.3026 33.0038 77.6904 33.5629C78.3992 34.5867 78.9977 35.6912 79.7557 36.6756C80.6771 37.8686 81.4981 39.105 82.1064 40.4851C82.2127 40.7273 82.4116 40.9281 82.571 41.1447C82.6577 41.2608 82.764 41.3337 82.9195 41.2668C83.0947 41.1919 83.1203 41.0403 83.079 40.8927C82.7443 39.6937 82.7108 38.4337 82.3486 37.2386C82.3092 37.1107 82.258 36.9728 82.2738 36.8468C82.4332 35.4903 82.1517 34.1929 81.7678 32.9093C81.5552 32.1966 81.5138 31.4543 81.5059 30.7279C81.4981 29.9994 81.2283 29.4068 80.7558 28.956C79.2379 27.5069 77.8105 25.9536 76.0229 24.8117C75.637 24.5656 75.2354 24.3667 74.7845 24.3017C73.7135 24.1502 72.6622 23.8942 71.5951 23.721C69.0672 23.3095 66.5176 23.1658 63.97 23.1717C62.1587 23.1776 60.3415 23.2169 58.5283 23.3193C56.524 23.4315 54.5119 23.3961 52.5018 23.3981C51.7655 23.3981 51.039 23.5162 50.2987 23.4768C49.5112 23.4355 48.9068 23.1599 48.5367 22.4452C48.517 22.4058 48.4875 22.3704 48.4619 22.333C47.9697 21.5907 47.9559 21.5789 48.5721 20.8938C49.5112 19.8484 50.6393 19.0392 51.8167 18.2812C53.2421 17.3638 54.8329 16.8794 56.4335 16.4168C57.4887 16.1116 58.5814 16.2593 59.6603 16.2514C61.5248 16.2376 63.088 17.1039 64.6945 17.8914C66.7676 18.9073 68.7581 20.0669 70.7662 21.1989C71.3765 21.5435 72.0302 21.8171 72.6661 22.1184C72.8157 22.1892 72.9732 22.2424 73.1288 22.2956C73.3197 22.3625 73.5284 22.4157 73.6485 22.1971C73.7627 21.9904 73.5816 21.8624 73.4536 21.7463C72.8492 21.2049 72.2527 20.6575 71.6285 20.1417C70.9001 19.5393 70.1894 18.9191 69.5082 18.2635C68.6911 17.4779 67.6496 17.0015 66.746 16.3301C65.673 15.5328 64.5547 14.8004 63.401 14.1271C62.0524 13.3396 60.5541 13.0147 59.0067 12.9517C56.5122 12.8493 54.0749 13.1151 51.7005 13.9676C49.6392 14.7079 47.5326 15.3162 45.4162 15.8891C44.1817 16.2238 42.9158 16.3813 41.6538 16.5723C41.1478 16.6491 40.7108 16.4995 40.3269 16.1589C39.5275 15.454 38.7085 14.7709 37.8108 14.192C37.541 14.0188 37.5036 13.8633 37.7281 13.6329C38.8385 12.493 39.7599 11.1759 40.9766 10.1324C42.1165 9.1559 43.4159 8.76214 44.9043 9.03384C45.9536 9.22481 47.0207 9.28584 48.078 9.41578C49.9621 9.64613 51.797 10.0793 53.5906 10.6994C55.0908 11.2172 56.5752 11.7724 58.0262 12.4142C58.227 12.5028 58.4672 12.6328 58.6149 12.3434C58.735 12.1051 58.5381 11.9634 58.3688 11.8866C56.8075 11.1818 55.4963 10.0596 53.9312 9.33703C50.85 7.9136 47.7196 6.68705 44.353 6.13185C43.5242 5.99403 42.7052 5.79125 41.8861 5.60422C41.1833 5.44474 40.5139 5.4979 39.8819 5.86016C39.2677 6.21257 38.6219 6.49214 37.9545 6.72642C36.9957 7.06111 36.2475 7.71475 35.4994 8.36642C35.397 8.45501 35.2986 8.55148 35.1824 8.61842C33.9736 9.31734 32.9459 10.2624 31.8276 11.0853C31.6386 11.2251 31.4752 11.2015 31.2823 11.166C30.2349 10.9731 29.2347 10.5793 28.1618 10.475C25.1633 10.1836 22.2337 10.3313 19.4243 11.5854C18.4419 12.0244 17.3354 12.1484 16.3983 12.7253C14.2011 14.0739 12.0374 15.458 10.0785 17.157C9.11181 17.9957 8.19041 18.8581 7.39503 19.8562C7.19421 20.1082 6.93236 20.2894 6.66658 20.4508C5.80819 20.9706 5.3534 21.764 5.16833 22.707L5.16046 22.7051ZM83.7267 49.7719C83.7622 49.7542 83.7917 49.7306 83.8015 49.7365C83.8291 49.7561 83.8488 49.7876 83.8724 49.8132C83.8507 49.8231 83.8232 49.8467 83.8094 49.8408C83.7799 49.827 83.7582 49.7975 83.7287 49.7719H83.7267ZM7.28871 21.0769C7.58403 20.9076 7.83997 20.6634 8.05063 20.3878C9.3894 18.6435 11.1633 17.3854 12.884 16.0722C13.5258 15.582 14.2464 15.1922 14.9079 14.7256C16.0655 13.9085 17.2468 13.1466 18.6407 12.7883C19.2235 12.6387 19.7728 12.3945 20.3339 12.178C22.029 11.5243 23.7891 11.1719 25.6082 11.1897C26.2816 11.1975 26.9569 11.2408 27.6302 11.2861C29.1225 11.3885 30.5873 11.5933 31.7075 12.7607C32.0914 13.1624 32.5206 13.5207 32.9282 13.8987C32.6742 13.9676 32.4813 13.9617 32.2962 13.9164C29.091 13.1289 25.9469 13.7569 22.8008 14.32C22.5665 14.3614 22.3381 14.4519 22.1136 14.5346C21.4639 14.7728 20.8024 14.9658 20.1409 15.1627C19.2353 15.4324 18.3316 15.7139 17.5461 16.275C15.8135 17.5114 14.0121 18.6533 12.4686 20.1437C11.8701 20.7225 11.1436 21.1694 10.6278 21.8408C10.0706 22.5673 9.53116 23.3075 8.99368 24.0478C8.90902 24.1639 8.78892 24.2939 8.84996 24.538C8.98187 24.3766 9.07637 24.2663 9.1689 24.1502C10.2813 22.7543 11.4527 21.4155 12.8584 20.3012C14.3881 19.0864 16.0104 18.0075 17.6721 16.9838C18.1741 16.6747 18.686 16.405 19.2491 16.2258C20.1783 15.9305 21.1115 15.6509 22.027 15.3162C22.9327 14.9855 23.8501 14.7157 24.8148 14.6803C25.8366 14.6429 26.7875 14.2432 27.8192 14.2019C29.7427 14.1271 31.6426 14.1881 33.5267 14.5976C33.8318 14.6646 34.0799 14.7886 34.3103 14.9992C35.8302 16.3833 37.4505 17.6512 39.0452 18.9486C40.4647 20.1063 41.8212 21.3368 43.1363 22.6106C43.2151 22.6873 43.3706 22.7602 43.3115 22.8941C43.2603 23.0083 43.1028 22.9709 42.9887 22.9945C42.0771 23.1776 41.1144 23.1067 40.2343 23.3233C38.5313 23.7426 36.7693 23.9041 35.1076 24.4967C34.6705 24.6522 34.2158 24.7605 33.761 24.8648C30.7645 25.546 28.3212 27.1112 26.3879 29.4836C24.2262 32.1375 22.0506 34.7776 19.9303 37.465C18.3651 39.4476 17.2921 41.6585 17.0224 44.2258C16.918 45.222 16.8294 46.1907 17.1149 47.1633C17.2232 47.5314 17.2645 47.9193 17.3846 48.2815C17.5303 48.7206 17.4142 49.1891 17.5658 49.6813C17.737 49.1891 17.7725 48.7481 17.737 48.2933C17.6288 46.866 17.4614 45.4681 17.737 44.0093C18.1761 41.692 19.0601 39.613 20.4874 37.7761C22.4306 35.2797 24.4545 32.8443 26.5493 30.4699C27.9964 28.8299 29.6246 27.442 31.6229 26.5107C32.816 25.9536 34.1154 25.7311 35.334 25.2704C36.9563 24.6561 38.7046 24.5321 40.3229 23.9218C40.4726 23.8647 40.6478 23.8627 40.8112 23.8588C41.768 23.845 42.6796 23.6402 43.5478 23.2406C43.6403 23.1973 43.721 23.1815 43.7939 23.2544C44.4633 23.9119 45.1287 24.5695 45.8552 25.2861C45.3158 25.424 44.8807 25.5342 44.4475 25.6464C42.4315 26.1642 40.5316 26.9714 38.7321 28.0031C38.2459 28.2826 37.8068 28.6409 37.2752 28.8477C37.1414 28.8989 37.0292 29.013 36.915 29.1095C36.6767 29.3103 36.468 29.5604 36.2023 29.712C35.3557 30.1923 34.8261 31.0527 33.9795 31.5272C33.9165 31.5626 33.8633 31.6394 33.9342 31.7142C33.9953 31.7792 34.0681 31.7575 34.137 31.7142C34.3477 31.5705 34.576 31.4484 34.769 31.2831C35.8577 30.3538 36.9642 29.4974 38.2498 28.7984C39.7638 27.9735 41.3762 27.4341 42.9296 26.7371C43.5183 26.4733 44.1483 26.3316 44.7901 26.2312C45.174 26.1701 45.5599 26.0874 45.9221 25.9496C46.184 25.8512 46.3277 25.8984 46.501 26.0973C46.8928 26.5481 47.2629 27.0128 47.7078 27.4262C48.5229 28.1881 49.3321 28.9658 50.096 29.8872C49.1864 30.1018 48.5682 30.6314 48.0327 31.2988C47.4224 32.0588 46.8179 32.8207 46.2923 33.6436C46.2411 33.7243 46.1466 33.8346 46.2746 33.9153C46.3651 33.9704 46.434 33.87 46.4951 33.807C46.5561 33.7421 46.6211 33.6771 46.6742 33.6062C47.3318 32.7321 48.1095 31.9702 48.8714 31.1905C49.275 30.7751 49.7829 30.5723 50.2948 30.3558C50.4779 30.277 50.5744 30.3695 50.6768 30.4837C51.2201 31.0842 51.7576 31.6906 52.3089 32.2852C52.4979 32.4899 52.4841 32.5943 52.2419 32.7616C50.0723 34.2421 48.1981 36.0672 46.4045 37.9592C44.3077 40.1741 42.4787 42.6173 40.7324 45.1197C39.687 46.6159 38.679 48.1339 38.0057 49.8388C37.73 50.5378 37.2615 51.1441 37.0784 51.8805C36.7988 53.0007 36.2889 54.0402 35.966 55.1506C35.5033 56.7375 34.9993 58.3046 34.9383 59.9682C34.9068 60.8128 34.8635 61.6732 35.1923 62.5414C35.2828 60.7301 35.271 58.9799 35.7711 57.2513C36.0467 56.3004 36.3873 55.3751 36.6826 54.434C37.0449 53.2803 37.5312 52.1659 38.0746 51.0831C38.2695 50.6953 38.4723 50.3113 38.6514 49.9156C39.1298 48.8623 39.7028 47.8563 40.382 46.927C41.3624 45.5843 42.2897 44.2061 43.3096 42.891C44.3117 41.5975 45.3473 40.3336 46.3848 39.0716C47.4539 37.7722 48.7316 36.6677 49.8912 35.451C50.6886 34.6142 51.608 33.9114 52.5491 33.2381C52.807 33.053 52.9802 33.0392 53.2303 33.2971C54.0434 34.1378 54.8486 34.9844 55.6302 35.8565C56.7505 37.1047 57.9002 38.3254 58.9831 39.611C59.1898 39.8571 59.1799 39.9969 58.9771 40.2016C58.2841 40.9045 57.7841 41.7393 57.3352 42.6095C57.1974 42.8753 57.0536 43.1371 56.9198 43.4049C56.8883 43.4679 56.8745 43.5564 56.9532 43.6076C57.0536 43.6746 57.1226 43.6076 57.1757 43.5309C57.2269 43.456 57.2663 43.3753 57.3096 43.2966C57.8412 42.3378 58.4219 41.4144 59.1465 40.5816C59.4024 40.2863 59.5343 40.1918 59.8336 40.5422C60.3297 41.125 60.8199 41.7097 61.2964 42.3102C61.5228 42.5977 61.446 42.702 61.2196 42.9068C59.7017 44.2711 58.1896 45.6414 56.8272 47.1652C55.961 48.1339 55.2778 49.2305 54.7482 50.4098C54.4115 51.1579 54.2422 51.9828 53.8957 52.727C53.1751 54.2686 53.1259 55.9539 52.7558 57.5683C52.7499 57.5978 52.7499 57.6273 52.7499 57.6588C52.7991 58.9326 52.8424 60.2064 52.9054 61.4802C52.9271 61.9291 52.994 62.376 53.1377 62.8052C53.1653 62.8879 53.2027 63.0336 53.3267 63.008C53.4842 62.9765 53.3996 62.8505 53.3819 62.7541C53.0039 60.5293 52.8326 58.3223 53.4961 56.0976C53.8386 54.9498 54.13 53.7961 54.5868 52.6778C55.3369 50.8429 56.0614 49.0297 57.4809 47.5511C58.8511 46.1237 60.1761 44.6511 61.574 43.2454C61.7964 43.0229 61.9028 43.0446 62.074 43.2789C62.4107 43.7376 62.7611 44.1884 63.1293 44.6255C63.2888 44.8145 63.273 44.9287 63.0722 45.0488C62.7611 45.2358 62.4934 45.474 62.2256 45.7182C60.434 47.3523 59.2744 49.4037 58.3294 51.5871C58.6464 51.3331 58.989 50.9236 59.1898 50.5417C60.1466 48.7245 61.2609 47.0274 62.8163 45.6552C63.2442 45.2785 63.6313 45.3139 63.9779 45.7615C64.0231 45.8205 64.0822 45.8698 64.1275 45.9288C64.6945 46.6415 65.3363 47.2893 65.864 48.0433C67.1555 49.8861 68.3919 51.7623 69.5968 53.6602C69.711 53.8414 69.8921 54.0008 69.7484 54.2666C69.4924 54.7352 69.3526 55.2609 69.1144 55.7314C68.2875 57.3714 68.0296 59.1394 67.8406 60.9329C67.7402 61.8858 67.8741 62.8151 68.0434 63.7404C68.1005 64.0456 68.1379 64.4019 68.4608 64.6539C68.1556 62.9135 68.5474 61.2184 68.6537 59.5056C68.764 57.7376 69.3664 56.137 69.9984 54.495C71.0734 56.0366 71.664 57.7691 72.422 59.4091C72.9614 60.5766 73.2429 61.8701 73.5855 63.1202C74.0226 64.7248 74.2273 66.3687 74.3199 68.0304C74.3632 68.7982 74.503 69.5621 74.5128 70.328C74.5286 71.4423 74.6723 72.5369 74.8633 73.6296C74.8731 73.6808 74.8928 73.7517 74.9893 73.7359C75.0916 73.5804 75.0739 73.4071 75.0562 73.228C75.0148 72.8126 74.9676 72.3952 74.942 71.9778C74.8121 69.8771 74.753 67.7685 74.5443 65.6757C74.2825 63.0553 73.5304 60.5628 72.4476 58.1451C71.3962 55.7983 70.2583 53.5165 68.825 51.3824C68.4962 50.8921 68.2127 50.3743 67.8701 49.8054C68.0749 49.8802 68.2265 49.9117 68.3525 49.9845C69.8251 50.835 71.3844 51.5202 72.8216 52.4416C74.2037 53.3256 75.5346 54.245 76.6844 55.4282C77.9818 56.763 78.7516 58.3361 79.0174 60.1671C79.171 61.2243 79.1828 62.2874 79.165 63.3526C79.1631 63.4667 79.108 63.6361 79.2733 63.6459C79.4407 63.6558 79.4013 63.4746 79.4151 63.3663C79.5037 62.7009 79.4997 62.0335 79.4781 61.3602C79.3659 57.7553 77.6707 55.0797 74.7373 53.0972C73.6702 52.3766 72.5716 51.7151 71.4612 51.0614C70.4906 50.4905 69.5141 49.9156 68.4962 49.4667C67.2244 48.9056 66.3975 48.0039 65.7793 46.8148C66.9487 47.0333 68.1005 47.2637 69.1085 47.9508C69.7799 48.4095 70.5457 48.6969 71.2919 49.01C71.4277 49.0671 71.6049 49.2521 71.7191 49.0336C71.8431 48.7914 71.5833 48.7383 71.4376 48.6694C70.7859 48.3622 70.1579 48.0177 69.5436 47.6397C68.7226 47.1357 67.8583 46.7301 66.8857 46.5943C66.3187 46.5155 65.795 46.2714 65.2536 46.0942C65.0469 46.0273 64.8914 45.917 64.7417 45.7556C64.1629 45.1354 63.8774 44.2947 63.277 43.712C62.0229 42.4972 61.2373 40.9143 59.9655 39.6996C58.9319 38.7113 58.1148 37.4985 57.1363 36.4393C56.8174 36.0928 56.5398 35.7108 56.1834 35.2698C59.2528 35.8231 62.2178 36.3231 65.1453 37.0555C68.0769 37.7879 70.8095 39.0873 73.7076 39.924C73.558 39.7744 73.3886 39.6602 73.2075 39.5775C72.5401 39.2803 71.8648 38.9948 71.1954 38.7014C68.9963 37.7387 66.7775 36.8331 64.4189 36.3192C62.6765 35.9392 60.94 35.5238 59.1799 35.2265C58.2192 35.0651 57.2505 34.9391 56.2996 34.7166C56.213 34.6969 56.1165 34.6831 56.0318 34.7009C55.7562 34.7599 55.581 34.63 55.4176 34.4292C54.7384 33.5905 54.0414 32.7655 53.3031 31.9761C53.248 31.917 53.1555 31.8619 53.2421 31.7103C53.9902 31.8383 54.758 31.9544 55.518 32.1001C56.589 32.3049 57.5478 32.8226 58.5519 33.2144C58.6917 33.2696 58.8925 33.4152 58.989 33.2223C59.0953 33.0097 58.859 32.9605 58.7153 32.8994C58.2172 32.6907 57.723 32.4722 57.2171 32.2871C56.0023 31.8442 54.7699 31.4189 53.4842 31.3067C52.8267 31.2496 52.4231 30.9858 52.0116 30.5349C51.3265 29.7828 50.5862 29.078 49.8262 28.3968C49.21 27.8436 48.6272 27.253 47.9776 26.6269C48.1803 26.5816 48.2926 26.5501 48.4067 26.5324C49.4581 26.3768 50.5094 26.2253 51.5607 26.0717C52.1376 25.987 52.7164 25.8177 53.2933 25.8295C54.9392 25.8591 56.5811 25.6149 58.2251 25.7586C58.989 25.8256 59.7568 25.6661 60.5128 25.7547C62.0918 25.9398 63.6786 26.0047 65.2615 26.1367C67.4626 26.3217 69.6381 26.6328 71.8077 27.0088C73.2351 27.2549 74.5423 27.8377 75.8221 28.5189C76.7868 29.0327 77.6373 29.6509 78.3559 30.464C78.602 30.7436 78.8441 31.0271 79.0922 31.3027C79.167 31.3854 79.2477 31.5587 79.3678 31.4681C79.5155 31.3559 79.3383 31.2397 79.2832 31.1334C79.2477 31.0685 79.1906 31.0153 79.1473 30.9543C78.224 29.6509 76.9738 28.7039 75.702 27.7786C74.7806 27.1092 73.8001 26.6289 72.6543 26.4359C71.1304 26.1819 69.6145 25.8925 68.0808 25.6976C66.5491 25.5047 65.0233 25.2133 63.4876 25.1168C61.8909 25.0144 60.2884 24.9731 58.6818 25.0085C56.8075 25.0479 54.9411 25.2527 53.0649 25.1956C52.7991 25.1877 52.5294 25.2645 52.2636 25.3039C50.8835 25.5066 49.5211 25.8118 48.1351 25.9792C47.6389 26.0382 47.255 25.928 46.8967 25.548C45.5284 24.099 44.105 22.7051 42.6047 21.3899C42.3567 21.1734 42.4118 21.0355 42.6481 20.8702C43.2033 20.4843 43.7565 20.0984 44.2979 19.6948C46.2785 18.2123 48.4678 17.0999 50.7319 16.1392C52.1415 15.5426 53.6595 15.2572 55.1065 14.761C55.5022 14.6252 55.8901 14.4519 56.3193 14.4401C57.6856 14.4047 59.0421 14.4677 60.3769 14.8024C60.4793 14.828 60.5797 14.9638 60.7648 14.8457C60.1958 14.5996 59.6879 14.3771 59.1071 14.32C58.5007 14.261 57.8904 14.2373 57.284 14.1369C56.8154 14.0601 56.3173 14.0503 55.8547 14.1901C54.7088 14.5366 53.5551 14.8477 52.4034 15.1745C51.0941 15.5466 49.779 15.9246 48.6194 16.6806C48.015 17.0743 47.2944 17.2141 46.6585 17.5508C45.0736 18.3895 43.6265 19.4389 42.1854 20.4922C41.9294 20.6792 41.8113 20.6418 41.5967 20.4626C39.7382 18.925 37.8659 17.4031 36.0644 15.7986C35.3498 15.1627 34.6883 14.4657 33.8594 13.9656C33.6409 13.8337 33.5976 13.6841 33.8161 13.4734C35.4896 11.863 37.1394 10.2289 38.8306 8.63614C39.3563 8.14001 40.0256 7.85453 40.7698 7.76791C41.5731 7.67537 42.3705 7.54544 43.1698 7.43125C43.2426 7.4214 43.3194 7.39975 43.3273 7.28752C43.2978 7.26981 43.2663 7.23043 43.2308 7.23043C42.1224 7.17727 41.0258 7.32296 39.9646 7.59072C39.2204 7.77972 38.5353 8.18529 37.982 8.76411C37.7005 9.05943 37.3442 9.26025 37.0232 9.50831C35.6746 10.5439 34.4264 11.6858 33.3692 13.0206C33.19 13.247 33.0916 13.2234 32.9164 13.0679C32.5364 12.7332 32.1525 12.4044 31.7469 12.0539C31.932 11.9102 32.0855 11.7941 32.2352 11.674C33.9716 10.2643 35.8223 9.00824 37.667 7.74822C37.9033 7.58678 38.1573 7.45684 38.4329 7.37021C39.0078 7.18909 39.5551 6.94496 40.0768 6.6398C40.6241 6.31888 41.199 6.26179 41.8133 6.40551C42.6185 6.59254 43.4316 6.74217 44.2349 6.92921C46.3809 7.42731 48.5761 7.73838 50.6098 8.66174C51.7497 9.18149 52.9133 9.65203 54.065 10.1442C53.8012 10.1895 53.5768 10.1049 53.3504 10.03C52.5668 9.77213 51.7793 9.528 50.9799 9.32128C49.0525 8.81924 47.068 8.70505 45.1149 8.37626C43.6108 8.12229 42.2248 8.33098 40.9785 9.276C40.5926 9.56934 40.2855 9.93357 39.9272 10.2486C38.868 11.1857 38.0864 12.367 37.1394 13.4065C36.6866 13.9026 36.7594 14.2098 37.3146 14.5956C38.2872 15.2729 39.1909 16.0309 40.0906 16.7967C40.5395 17.1787 41.0494 17.3559 41.6282 17.287C42.9099 17.1334 44.1896 16.97 45.4398 16.6412C47.4735 16.1077 49.4935 15.5249 51.4584 14.7827C53.9292 13.8475 56.4729 13.4892 59.0933 13.6093C60.5305 13.6743 61.9224 13.9715 63.1844 14.7C64.3401 15.3654 65.4466 16.1096 66.5255 16.8893C67.4941 17.5882 68.6045 18.0942 69.4393 18.9742C69.8527 19.4093 70.3272 19.7716 70.7879 20.1516C71.0635 20.3799 71.3352 20.6142 71.5833 20.8721C71.5833 20.8721 71.5931 20.878 71.599 20.88C71.6167 20.8879 71.6364 20.8898 71.6541 20.8977C71.6758 20.9076 71.6915 20.9253 71.6837 20.9666C71.6305 20.9489 71.5774 20.9332 71.5242 20.9154C71.3726 20.8505 71.219 20.7934 71.0714 20.7205C69.5456 19.9822 68.1753 18.9703 66.6495 18.2182C64.9367 17.3756 63.2218 16.5625 61.4106 15.9561C61.1074 15.8557 60.8081 15.7828 60.4892 15.7671C59.2016 15.6962 57.914 15.8714 56.6244 15.7789C55.6066 15.706 54.6852 16.0447 53.7855 16.4995C52.7282 17.033 51.6926 17.602 50.7063 18.2556C49.4305 19.1002 48.139 19.9251 47.507 21.4293C47.4086 21.6636 47.4145 21.8034 47.572 21.9845C48.0327 22.518 48.4697 23.0732 48.8438 23.6737C49.019 23.9533 49.275 24.0773 49.5821 24.1305C50.1452 24.2289 50.7122 24.2762 51.2851 24.2289C52.8542 24.1009 54.4352 24.1167 56.0023 24.1127C58.1188 24.1088 60.2254 23.9296 62.3398 23.9119C64.9957 23.8903 67.6437 23.8981 70.2858 24.2407C71.4927 24.3963 72.6858 24.6266 73.8887 24.7979C74.7569 24.9219 75.5307 25.17 76.2532 25.6838C77.4581 26.5403 78.4445 27.6369 79.5627 28.5858C80.3955 29.2926 80.9566 30.0545 80.9862 31.2338C81.0354 33.1751 81.8564 34.9981 82.0001 36.9354C82.004 36.9906 82.0473 37.0437 82.071 37.0988C82.4549 38.036 82.3978 39.0322 82.5435 40.0815C82.3092 39.8866 82.2639 39.6917 82.1832 39.5204C81.9174 38.9495 81.6733 38.3589 81.2775 37.8647C80.1376 36.4432 79.1808 34.8977 78.222 33.3562C77.4975 32.1907 76.5052 31.4858 75.2117 31.0232C71.5144 29.7002 67.691 28.8359 63.905 27.8436C62.4245 27.4557 60.9046 27.2274 59.4221 26.8395C58.9811 26.7234 58.5302 26.682 58.0833 26.7844C57.1895 26.9891 56.2838 27.1112 55.3802 27.249C54.8998 27.3219 54.4509 27.4853 54.1024 27.8554C53.7244 28.259 53.6772 28.4303 54.0217 28.8713C54.9982 30.1156 56.1874 31.1354 57.6462 31.7477C58.9575 32.2989 60.3297 32.7065 61.6803 33.1593C64.3854 34.063 67.059 35.0493 69.6283 36.2877C71.3313 37.1087 72.8807 38.1994 74.4478 39.2547C77.4404 41.2668 80.3581 43.3576 82.7502 46.1021C83.3881 46.8345 83.6322 47.6889 83.7523 48.5926C83.7996 48.9489 83.7799 49.3348 83.7425 49.7168C83.2562 49.2088 83.0061 48.5828 82.7089 47.9882C82.1832 46.9388 81.6752 45.8737 80.7539 45.1039C79.6907 44.216 78.5114 43.4836 77.273 42.8812C75.4224 41.9814 73.4595 41.3435 71.5163 40.686C68.8663 39.7882 66.0648 39.4929 63.3518 38.8373C63.2789 38.8196 63.2022 38.8117 63.1293 38.8117C62.5603 38.8058 62.2493 39.2271 62.4245 39.7685C62.6627 40.5068 62.9226 41.2372 63.214 41.9578C63.5683 42.8378 64.096 43.5407 64.9918 43.9364C65.4426 44.1353 65.858 44.4148 66.305 44.6294C69.6932 46.2694 73.1347 47.7972 76.1823 50.0672C77.842 51.3036 79.6021 52.4179 81.0531 53.9063C82.0277 54.9065 82.8683 56.0307 82.9609 57.523C82.9668 57.6273 82.9943 57.7297 83.014 57.8321C83.2542 59.1098 83.1144 60.3836 82.5592 61.5196C81.8564 62.9549 81.0315 64.3409 79.9467 65.5458C79.5352 66.0025 79.1355 66.481 78.8717 67.0381C77.6333 69.6527 76.4324 72.283 75.6015 75.0649C75.4027 75.7283 75.1625 76.378 74.94 77.0336C74.5167 75.8209 73.808 74.8069 73.2193 73.73C71.4021 70.4028 72.2231 71.3754 69.2955 68.9183C69.203 68.8415 69.1124 68.7628 69.0199 68.688C67.1574 67.172 65.106 66.0222 62.7493 65.4651C62.584 65.4257 62.5111 65.3666 62.5446 65.1973C62.7611 64.0594 62.708 62.8919 62.9423 61.7559C63.3262 59.8855 63.8578 58.0506 64.4917 56.2551C64.98 54.873 65.5923 53.5205 66.6613 52.4534C66.998 52.1167 67.057 51.7801 66.8129 51.3686C66.7322 51.2327 66.7243 51.0536 66.6849 50.8941C66.5412 50.2976 66.4644 49.6754 66.2459 49.1064C65.7557 47.8307 65.0292 47.6299 64.1432 48.6497C63.3557 49.5553 62.5682 50.4629 61.824 51.4021C60.9302 52.5302 59.9871 53.6366 59.237 54.8592C58.0124 56.8536 57.0221 58.9779 56.3193 61.2223C56.0594 62.0532 55.6204 62.8485 55.5475 63.7089C55.4235 65.1757 55.3054 66.6581 55.5771 68.178C55.203 68.0619 54.8388 67.9418 54.4706 67.8315C53.4311 67.5205 52.4211 67.1425 51.5351 66.4947C50.9642 66.0774 50.5704 65.5359 50.5133 64.8193C50.3125 62.3386 50.2357 59.854 50.3421 57.3655C50.4917 53.8551 51.23 50.4728 52.5294 47.2125C53.6102 44.4975 54.8762 41.8889 56.9808 39.7823C57.1501 39.613 57.2899 39.4082 57.3549 39.1739C57.4415 38.8609 57.2604 38.664 56.9729 38.7014C56.0082 38.8314 55.073 39.0991 54.1241 39.296C53.3897 39.4476 52.7243 39.7409 52.1533 40.2194C51.1355 41.0718 50.281 42.0858 49.5073 43.1528C48.3536 44.7436 47.3101 46.4112 46.3198 48.1083C45.6229 49.2994 44.6759 50.335 44.0892 51.5871C42.7288 54.4891 41.3743 57.395 40.1064 60.3384C40.063 60.4388 40.0965 60.6199 39.9252 60.6002C39.6457 60.5707 39.6122 60.7813 39.5393 60.9526C38.8011 62.6714 38.3089 64.461 38.1356 66.3235C38.0884 66.8334 38.1632 67.4063 38.4309 67.8335C38.7184 68.2942 38.8601 68.7825 39.1121 69.3258C38.7085 69.2215 38.4486 69.0443 38.1809 68.8868C37.7399 68.6289 37.2989 68.369 36.8126 68.2056C35.2789 67.6937 33.7433 67.1858 32.2037 66.6916C31.8217 66.5696 31.6485 66.353 31.6209 65.9474C31.5205 64.4374 31.4083 62.9273 31.2783 61.4192C31.1169 59.5705 30.8708 57.7278 31.0637 55.8653C31.361 52.9909 31.9891 50.1853 32.7805 47.4133C33.4342 45.1236 34.3634 42.9422 35.4876 40.8513C36.7831 38.4435 38.614 36.461 40.634 34.6457C41.3349 34.0157 41.9944 33.3207 42.8863 32.9506C43.3588 32.7557 43.8136 32.5293 44.2152 32.2202C44.8708 31.7162 45.5638 31.2673 46.2529 30.8145C46.6841 30.531 46.6703 30.1786 46.2116 29.9266C45.6505 29.6194 45.0441 29.6116 44.4652 29.8163C41.8625 30.7397 39.246 31.6099 36.7712 32.8719C33.5523 34.5138 30.4514 36.329 27.6144 38.5676C26.0591 39.7941 24.5963 41.127 23.2063 42.5406C22.9858 42.765 22.6393 42.9382 22.5487 43.204C22.1373 44.407 21.6628 45.5863 21.5073 46.8739C21.2789 48.7639 21.1726 50.6677 20.8635 52.5518C20.6351 53.9398 20.4992 55.3495 20.4244 56.7552C20.3476 58.2003 20.3969 59.6532 20.391 61.1022C20.3851 61.1396 20.3792 61.1771 20.3713 61.2125C20.3417 61.1948 20.3122 61.1771 20.2827 61.1593C19.9401 60.8778 19.7275 60.4919 19.4715 60.1395C18.4045 58.6708 17.5284 57.0623 16.3235 55.696C15.0339 54.2351 14.4216 52.4691 14.0259 50.6283C13.6853 49.0494 13.4353 47.4507 13.3821 45.8225C13.3171 43.84 13.26 41.8633 13.5435 39.8945C13.6518 39.1483 13.8802 38.4356 14.3173 37.8017C15.0851 36.6913 15.8372 35.5691 16.5991 34.4528C17.7843 32.7203 18.9459 30.97 20.1035 29.2198C21.4384 27.2018 23.1 25.4358 24.6593 23.593C24.9467 23.2524 25.2952 22.9964 25.6909 22.8094C26.4666 22.4452 27.1892 21.9865 27.9216 21.5435C28.7799 21.0257 29.6344 20.5512 30.6916 20.6674C30.9358 20.6949 31.2055 20.6437 31.2646 20.3504C31.3236 20.0492 31.1149 19.8858 30.857 19.7873C30.4495 19.6318 30.0301 19.5097 29.6344 19.3266C27.1222 18.171 24.5864 18.4604 22.0802 19.2754C20.3831 19.8267 18.8533 20.7993 17.172 21.4135C16.92 21.5061 16.6837 21.6498 16.4593 21.7975C15.8982 22.1636 15.2898 22.4019 14.6441 22.5653C14.1046 22.7011 13.5632 22.8665 13.1596 23.28C12.2323 24.2309 11.372 25.2487 10.868 26.4851C9.75166 29.2217 8.59205 31.9485 8.06244 34.882C8.03488 35.0395 8.03291 35.2147 7.86557 35.3899C7.85375 35.1734 7.84588 35.0119 7.838 34.8485C7.8006 34.1142 7.82225 33.3719 7.61159 32.6592C7.12333 31.0074 7.20209 29.2237 6.42638 27.6408C6.4126 27.6152 6.4067 27.5837 6.40473 27.5542C6.36141 26.1465 5.95388 24.7664 6.08185 23.3469C6.16454 22.4196 6.42048 21.5809 7.30643 21.0729L7.28871 21.0769ZM32.9931 14.0247L32.9774 14.0424L32.9656 14.0227H32.9931V14.0247Z" fill="white"/>
<path d="M5.16046 22.7051C4.98917 23.5733 4.93405 24.4573 5.09942 25.3432C5.17424 25.7409 5.24118 26.1445 5.24905 26.5462C5.2648 27.3986 5.42034 28.2118 5.76881 28.9934C5.87709 29.2375 5.96372 29.5033 5.99719 29.7671C6.29054 32.0981 6.91858 34.3859 6.8162 36.7661C6.78864 37.3902 6.89102 38.0222 6.95205 38.6502C6.97174 38.857 7.02293 39.0696 7.11152 39.2547C7.22177 39.485 7.39699 39.7075 7.68837 39.6779C7.98172 39.6484 8.18648 39.4594 8.25538 39.17C8.31445 38.9239 8.35973 38.666 8.3617 38.414C8.36564 37.8352 8.47195 37.28 8.66095 36.7366C9.2634 35.0021 9.43665 33.1573 10.0352 31.4189C10.5825 29.8281 11.1613 28.2511 11.7933 26.6938C12.2146 25.6543 12.9293 24.7939 13.6636 23.9572C13.9885 23.5871 14.4452 23.4611 14.8922 23.341C15.5497 23.1658 16.1699 22.9138 16.7507 22.5554C17.3019 22.2148 17.8847 21.9353 18.5009 21.7345C19.8338 21.2974 20.9875 20.4449 22.3342 20.059C24.3679 19.4782 26.4253 19.0648 28.524 19.7755C28.6382 19.8149 28.7524 19.8503 28.8646 19.8917C28.9355 19.9173 29.0024 19.9488 29.1265 20.0019C28.6146 20.2913 28.146 20.5689 27.6656 20.8249C26.8053 21.2856 25.9843 21.8132 25.1003 22.2306C24.7026 22.4176 24.3718 22.707 24.0844 23.0378C22.4306 24.9396 20.6646 26.7588 19.2786 28.8674C17.6721 31.3126 15.8962 33.6417 14.3192 36.1066C14.2385 36.2326 14.1716 36.3704 14.0751 36.4846C13.012 37.7505 12.6202 39.2606 12.5276 40.8632C12.3839 43.3182 12.3741 45.7792 12.6359 48.2225C12.8131 49.8703 13.1892 51.4946 13.6853 53.0854C14.0613 54.2843 14.7327 55.314 15.5261 56.261C16.6601 57.6116 17.5579 59.1236 18.562 60.5648C19.1526 61.4113 19.8574 62.1398 20.5603 62.8781C20.7631 63.0907 21.0328 63.1832 21.3005 63.0474C21.5821 62.9037 21.6136 62.6025 21.5447 62.3347C21.1076 60.6612 21.3183 58.9602 21.3498 57.2749C21.3813 55.5522 21.651 53.8394 21.8774 52.1285C22.1196 50.2995 22.279 48.4587 22.5015 46.6278C22.6433 45.4544 23.1315 44.3774 23.5095 43.271C23.545 43.1647 23.6454 43.078 23.7281 42.9934C25.7638 40.8887 27.9353 38.9278 30.3609 37.2918C32.1072 36.1144 33.9401 35.0592 35.8203 34.0866C37.3934 33.2735 38.9487 32.4328 40.5986 31.791C40.9864 31.6394 41.3762 31.4937 41.766 31.3539C41.9137 31.3008 42.0594 31.2496 42.207 31.2004C43.2407 30.8519 44.294 30.5684 45.3906 30.4424C45.4595 30.4129 45.5304 30.3833 45.5835 30.4581C45.5875 30.464 45.5126 30.527 45.4752 30.5644C44.4396 31.2141 43.5399 32.0804 42.3547 32.4939C42.148 32.5667 41.959 32.7104 41.7798 32.8463C38.9723 35.0041 36.5173 37.4887 34.7493 40.5875C33.3003 43.1292 32.2371 45.8442 31.5382 48.6733C31.0322 50.7209 30.5873 52.792 30.288 54.8888C29.975 57.0682 30.1738 59.2398 30.4199 61.4054C30.5204 62.2993 30.5676 63.1951 30.6227 64.0928C30.668 64.839 30.735 65.5852 30.8295 66.3254C30.9299 67.1149 31.5677 67.3393 32.2056 67.5658C33.698 68.0934 35.2474 68.4517 36.7063 69.0679C37.6414 69.4637 38.5569 69.9165 39.3937 70.5071C39.5512 70.6174 39.7244 70.704 39.8898 70.576C40.0749 70.4323 40.0749 70.2216 40.004 70.0031C39.748 69.2038 39.5059 68.4005 39.2499 67.6012C39.1417 67.2645 39.1082 66.9141 39.1692 66.5774C39.5078 64.6854 39.8288 62.7777 40.5415 60.99C41.2975 59.098 42.0929 57.2198 43.0024 55.3908C43.3037 54.7864 43.5813 54.1702 43.8352 53.5461C44.8629 51.0319 46.6703 49.0021 48.0622 46.7144C48.6213 45.793 49.2829 44.9326 49.8715 44.029C50.5488 42.9914 51.4032 42.1055 52.2301 41.1959C52.807 40.56 53.5413 40.1662 54.3879 39.9831C54.5297 39.9516 54.6714 39.9201 54.8132 39.8847C55.2384 39.7823 55.6597 39.6701 56.085 39.5638C56.1224 39.5697 56.1578 39.5736 56.1953 39.5795C56.1775 39.611 56.1598 39.6425 56.1421 39.674C56.1244 39.6996 56.1106 39.7252 56.0929 39.7508C56.0771 39.7764 56.0594 39.8 56.0397 39.8217C54.2324 41.7353 53.1968 44.0939 52.2045 46.4801C51.1926 48.9155 50.5626 51.4651 50.0054 54.0284C49.5486 56.1271 49.4482 58.2652 49.3852 60.4132C49.34 61.9291 49.4837 63.4234 49.5742 64.9256C49.6294 65.8293 50.0861 66.5814 50.8165 67.1385C51.7734 67.8689 52.8739 68.304 54.0158 68.6506C54.8624 68.9085 55.7168 69.1467 56.4729 69.6369C56.7406 69.8102 57.0497 69.8968 57.2997 69.6369C57.5321 69.3928 57.4198 69.0994 57.2781 68.8435C57.1344 68.5816 57.0084 68.2903 56.8056 68.0796C56.3882 67.6484 56.3252 67.1405 56.3547 66.5853C56.4079 65.6127 56.2425 64.6126 56.5024 63.6695C57.2663 60.8975 58.2802 58.2121 59.7076 55.7137C60.7057 53.9654 62.0012 52.416 63.3026 50.8784C63.8164 50.272 64.3086 49.6479 64.8087 49.0277C65.0489 48.7304 65.2339 48.7678 65.4092 49.0927C65.6946 49.6301 65.7222 50.2405 65.9073 50.8055C66.1278 51.4729 66.0411 51.9828 65.5312 52.5833C64.5961 53.6839 64.033 55.0384 63.5939 56.4146C62.9816 58.3282 62.3516 60.2419 62.0662 62.2422C61.9106 63.3388 61.889 64.4511 61.6744 65.5438C61.6035 65.9041 61.7886 66.1699 62.1902 66.1738C62.9305 66.1797 63.5979 66.4495 64.2633 66.7231C66.0293 67.4457 67.5768 68.5049 69.0711 69.6901C70.463 70.7946 71.5892 72.0388 72.3531 73.665C72.9949 75.0314 73.8867 76.2776 74.3376 77.7424C74.3455 77.77 74.3612 77.7975 74.373 77.8251C74.4872 78.081 74.6211 78.3153 74.9538 78.3055C75.2984 78.2956 75.385 78.0318 75.4696 77.768C75.8614 76.5532 76.2591 75.3424 76.647 74.1257C77.2986 72.0762 78.2141 70.135 79.0863 68.1761C79.4761 67.3019 79.9939 66.5243 80.6318 65.8155C81.7067 64.6224 82.508 63.2325 83.1951 61.8051C83.7759 60.5963 83.8547 59.2496 83.7228 57.8852C83.4905 55.4715 82.134 53.7508 80.368 52.2978C77.9562 50.3113 75.4007 48.5099 72.7035 46.9329C70.6816 45.7516 68.4942 44.8854 66.4034 43.8321C66.175 43.7179 65.9624 43.5663 65.7242 43.4816C64.4799 43.0406 63.8912 42.0621 63.5329 40.8789C63.4246 40.5206 63.2947 40.1682 63.1628 39.8158C63.0742 39.5775 63.147 39.5126 63.3833 39.5677C63.8066 39.6661 64.2299 39.7744 64.659 39.8532C66.683 40.2213 68.7266 40.5186 70.6934 41.1171C72.9023 41.7885 75.0857 42.5622 77.1766 43.5446C78.2161 44.0329 79.1769 44.6944 80.1101 45.3776C81.0787 46.0863 81.6063 47.1239 82.1163 48.1575C82.5415 49.0198 82.9825 49.8644 83.5672 50.6303C83.8862 51.0457 84.1264 51.5103 84.3134 52.0025C84.3843 52.1876 84.4729 52.4317 84.7485 52.3628C85.0438 52.288 85.0143 52.0439 84.9769 51.8116C84.8942 51.3075 84.7859 50.8094 84.6284 50.3232C84.4414 49.7502 84.3922 49.1635 84.341 48.5631C84.2504 47.5137 83.9177 46.5293 83.1853 45.6985C80.9842 43.1981 78.409 41.1526 75.6449 39.3196C74.2195 38.3746 72.8295 37.3784 71.3588 36.5003C69.4412 35.3565 67.374 34.5493 65.3009 33.7499C62.8635 32.8089 60.3395 32.1099 57.9061 31.163C56.5575 30.6373 55.4904 29.6726 54.5592 28.5661C54.4174 28.3968 54.4923 28.3003 54.6045 28.1921C54.8683 27.9361 55.2168 27.8771 55.5554 27.8259C56.4158 27.6959 57.2741 27.5739 58.1227 27.373C58.4416 27.2982 58.7744 27.3081 59.1051 27.3829C60.7589 27.757 62.4284 28.0779 64.0684 28.5031C67.6398 29.4304 71.2466 30.2396 74.7274 31.4898C75.2491 31.6768 75.7787 31.854 76.2827 32.0824C76.9423 32.3816 77.3026 33.0038 77.6904 33.5629C78.3992 34.5867 78.9977 35.6912 79.7557 36.6756C80.6771 37.8686 81.4981 39.105 82.1064 40.4851C82.2127 40.7273 82.4116 40.9281 82.571 41.1447C82.6577 41.2608 82.764 41.3337 82.9195 41.2668C83.0947 41.1919 83.1203 41.0403 83.079 40.8927C82.7443 39.6937 82.7108 38.4337 82.3486 37.2386C82.3092 37.1107 82.258 36.9728 82.2738 36.8468C82.4332 35.4903 82.1517 34.1929 81.7678 32.9093C81.5552 32.1966 81.5138 31.4543 81.5059 30.7279C81.4981 29.9994 81.2283 29.4068 80.7558 28.956C79.2379 27.5069 77.8105 25.9536 76.0229 24.8117C75.637 24.5656 75.2354 24.3667 74.7845 24.3017C73.7135 24.1502 72.6622 23.8942 71.5951 23.721C69.0672 23.3095 66.5176 23.1658 63.97 23.1717C62.1587 23.1776 60.3415 23.2169 58.5283 23.3193C56.524 23.4315 54.5119 23.3961 52.5018 23.3981C51.7655 23.3981 51.039 23.5162 50.2987 23.4768C49.5112 23.4355 48.9068 23.1599 48.5367 22.4452C48.517 22.4058 48.4875 22.3704 48.4619 22.333C47.9697 21.5907 47.9559 21.5789 48.5721 20.8938C49.5112 19.8484 50.6393 19.0392 51.8167 18.2812C53.2421 17.3638 54.8329 16.8794 56.4335 16.4168C57.4887 16.1116 58.5814 16.2593 59.6603 16.2514C61.5248 16.2376 63.088 17.1039 64.6945 17.8914C66.7676 18.9073 68.7581 20.0669 70.7662 21.1989C71.3765 21.5435 72.0302 21.8171 72.6661 22.1184C72.8157 22.1892 72.9732 22.2424 73.1288 22.2956C73.3197 22.3625 73.5284 22.4157 73.6485 22.1971C73.7627 21.9904 73.5816 21.8624 73.4536 21.7463C72.8492 21.2049 72.2527 20.6575 71.6285 20.1417C70.9001 19.5393 70.1894 18.9191 69.5082 18.2635C68.6911 17.4779 67.6496 17.0015 66.746 16.3301C65.673 15.5328 64.5547 14.8004 63.401 14.1271C62.0524 13.3396 60.5541 13.0147 59.0067 12.9517C56.5122 12.8493 54.0749 13.1151 51.7005 13.9676C49.6392 14.7079 47.5326 15.3162 45.4162 15.8891C44.1817 16.2238 42.9158 16.3813 41.6538 16.5723C41.1478 16.6491 40.7108 16.4995 40.3269 16.1589C39.5275 15.454 38.7085 14.7709 37.8108 14.192C37.541 14.0188 37.5036 13.8633 37.7281 13.6329C38.8385 12.493 39.7599 11.1759 40.9766 10.1324C42.1165 9.1559 43.4159 8.76214 44.9043 9.03384C45.9536 9.22481 47.0207 9.28584 48.078 9.41578C49.9621 9.64613 51.797 10.0793 53.5906 10.6994C55.0908 11.2172 56.5752 11.7724 58.0262 12.4142C58.227 12.5028 58.4672 12.6328 58.6149 12.3434C58.735 12.1051 58.5381 11.9634 58.3688 11.8866C56.8075 11.1818 55.4963 10.0596 53.9312 9.33703C50.85 7.9136 47.7196 6.68705 44.353 6.13185C43.5242 5.99403 42.7052 5.79125 41.8861 5.60422C41.1833 5.44474 40.5139 5.4979 39.8819 5.86016C39.2677 6.21257 38.6219 6.49214 37.9545 6.72642C36.9957 7.06111 36.2475 7.71475 35.4994 8.36642C35.397 8.45501 35.2986 8.55148 35.1824 8.61842C33.9736 9.31734 32.9459 10.2624 31.8276 11.0853C31.6386 11.2251 31.4752 11.2015 31.2823 11.166C30.2349 10.9731 29.2347 10.5793 28.1618 10.475C25.1633 10.1836 22.2337 10.3313 19.4243 11.5854C18.4419 12.0244 17.3354 12.1484 16.3983 12.7253C14.2011 14.0739 12.0374 15.458 10.0785 17.157C9.11181 17.9957 8.19041 18.8581 7.39503 19.8562C7.19421 20.1082 6.93236 20.2894 6.66658 20.4508C5.80819 20.9706 5.3534 21.764 5.16833 22.707L5.16046 22.7051ZM83.7267 49.7719C83.7622 49.7542 83.7917 49.7306 83.8015 49.7365C83.8291 49.7561 83.8488 49.7876 83.8724 49.8132C83.8507 49.8231 83.8232 49.8467 83.8094 49.8408C83.7799 49.827 83.7582 49.7975 83.7287 49.7719H83.7267ZM7.28871 21.0769C7.58403 20.9076 7.83997 20.6634 8.05063 20.3878C9.3894 18.6435 11.1633 17.3854 12.884 16.0722C13.5258 15.582 14.2464 15.1922 14.9079 14.7256C16.0655 13.9085 17.2468 13.1466 18.6407 12.7883C19.2235 12.6387 19.7728 12.3945 20.3339 12.178C22.029 11.5243 23.7891 11.1719 25.6082 11.1897C26.2816 11.1975 26.9569 11.2408 27.6302 11.2861C29.1225 11.3885 30.5873 11.5933 31.7075 12.7607C32.0914 13.1624 32.5206 13.5207 32.9282 13.8987C32.6742 13.9676 32.4813 13.9617 32.2962 13.9164C29.091 13.1289 25.9469 13.7569 22.8008 14.32C22.5665 14.3614 22.3381 14.4519 22.1136 14.5346C21.4639 14.7728 20.8024 14.9658 20.1409 15.1627C19.2353 15.4324 18.3316 15.7139 17.5461 16.275C15.8135 17.5114 14.0121 18.6533 12.4686 20.1437C11.8701 20.7225 11.1436 21.1694 10.6278 21.8408C10.0706 22.5673 9.53116 23.3075 8.99368 24.0478C8.90902 24.1639 8.78892 24.2939 8.84996 24.538C8.98187 24.3766 9.07637 24.2663 9.1689 24.1502C10.2813 22.7543 11.4527 21.4155 12.8584 20.3012C14.3881 19.0864 16.0104 18.0075 17.6721 16.9838C18.1741 16.6747 18.686 16.405 19.2491 16.2258C20.1783 15.9305 21.1115 15.6509 22.027 15.3162C22.9327 14.9855 23.8501 14.7157 24.8148 14.6803C25.8366 14.6429 26.7875 14.2432 27.8192 14.2019C29.7427 14.1271 31.6426 14.1881 33.5267 14.5976C33.8318 14.6646 34.0799 14.7886 34.3103 14.9992C35.8302 16.3833 37.4505 17.6512 39.0452 18.9486C40.4647 20.1063 41.8212 21.3368 43.1363 22.6106C43.2151 22.6873 43.3706 22.7602 43.3115 22.8941C43.2603 23.0083 43.1028 22.9709 42.9887 22.9945C42.0771 23.1776 41.1144 23.1067 40.2343 23.3233C38.5313 23.7426 36.7693 23.9041 35.1076 24.4967C34.6705 24.6522 34.2158 24.7605 33.761 24.8648C30.7645 25.546 28.3212 27.1112 26.3879 29.4836C24.2262 32.1375 22.0506 34.7776 19.9303 37.465C18.3651 39.4476 17.2921 41.6585 17.0224 44.2258C16.918 45.222 16.8294 46.1907 17.1149 47.1633C17.2232 47.5314 17.2645 47.9193 17.3846 48.2815C17.5303 48.7206 17.4142 49.1891 17.5658 49.6813C17.737 49.1891 17.7725 48.7481 17.737 48.2933C17.6288 46.866 17.4614 45.4681 17.737 44.0093C18.1761 41.692 19.0601 39.613 20.4874 37.7761C22.4306 35.2797 24.4545 32.8443 26.5493 30.4699C27.9964 28.8299 29.6246 27.442 31.6229 26.5107C32.816 25.9536 34.1154 25.7311 35.334 25.2704C36.9563 24.6561 38.7046 24.5321 40.3229 23.9218C40.4726 23.8647 40.6478 23.8627 40.8112 23.8588C41.768 23.845 42.6796 23.6402 43.5478 23.2406C43.6403 23.1973 43.721 23.1815 43.7939 23.2544C44.4633 23.9119 45.1287 24.5695 45.8552 25.2861C45.3158 25.424 44.8807 25.5342 44.4475 25.6464C42.4315 26.1642 40.5316 26.9714 38.7321 28.0031C38.2459 28.2826 37.8068 28.6409 37.2752 28.8477C37.1414 28.8989 37.0292 29.013 36.915 29.1095C36.6767 29.3103 36.468 29.5604 36.2023 29.712C35.3557 30.1923 34.8261 31.0527 33.9795 31.5272C33.9165 31.5626 33.8633 31.6394 33.9342 31.7142C33.9953 31.7792 34.0681 31.7575 34.137 31.7142C34.3477 31.5705 34.576 31.4484 34.769 31.2831C35.8577 30.3538 36.9642 29.4974 38.2498 28.7984C39.7638 27.9735 41.3762 27.4341 42.9296 26.7371C43.5183 26.4733 44.1483 26.3316 44.7901 26.2312C45.174 26.1701 45.5599 26.0874 45.9221 25.9496C46.184 25.8512 46.3277 25.8984 46.501 26.0973C46.8928 26.5481 47.2629 27.0128 47.7078 27.4262C48.5229 28.1881 49.3321 28.9658 50.096 29.8872C49.1864 30.1018 48.5682 30.6314 48.0327 31.2988C47.4224 32.0588 46.8179 32.8207 46.2923 33.6436C46.2411 33.7243 46.1466 33.8346 46.2746 33.9153C46.3651 33.9704 46.434 33.87 46.4951 33.807C46.5561 33.7421 46.6211 33.6771 46.6742 33.6062C47.3318 32.7321 48.1095 31.9702 48.8714 31.1905C49.275 30.7751 49.7829 30.5723 50.2948 30.3558C50.4779 30.277 50.5744 30.3695 50.6768 30.4837C51.2201 31.0842 51.7576 31.6906 52.3089 32.2852C52.4979 32.4899 52.4841 32.5943 52.2419 32.7616C50.0723 34.2421 48.1981 36.0672 46.4045 37.9592C44.3077 40.1741 42.4787 42.6173 40.7324 45.1197C39.687 46.6159 38.679 48.1339 38.0057 49.8388C37.73 50.5378 37.2615 51.1441 37.0784 51.8805C36.7988 53.0007 36.2889 54.0402 35.966 55.1506C35.5033 56.7375 34.9993 58.3046 34.9383 59.9682C34.9068 60.8128 34.8635 61.6732 35.1923 62.5414C35.2828 60.7301 35.271 58.9799 35.7711 57.2513C36.0467 56.3004 36.3873 55.3751 36.6826 54.434C37.0449 53.2803 37.5312 52.1659 38.0746 51.0831C38.2695 50.6953 38.4723 50.3113 38.6514 49.9156C39.1298 48.8623 39.7028 47.8563 40.382 46.927C41.3624 45.5843 42.2897 44.2061 43.3096 42.891C44.3117 41.5975 45.3473 40.3336 46.3848 39.0716C47.4539 37.7722 48.7316 36.6677 49.8912 35.451C50.6886 34.6142 51.608 33.9114 52.5491 33.2381C52.807 33.053 52.9802 33.0392 53.2303 33.2971C54.0434 34.1378 54.8486 34.9844 55.6302 35.8565C56.7505 37.1047 57.9002 38.3254 58.9831 39.611C59.1898 39.8571 59.1799 39.9969 58.9771 40.2016C58.2841 40.9045 57.7841 41.7393 57.3352 42.6095C57.1974 42.8753 57.0536 43.1371 56.9198 43.4049C56.8883 43.4679 56.8745 43.5564 56.9532 43.6076C57.0536 43.6746 57.1226 43.6076 57.1757 43.5309C57.2269 43.456 57.2663 43.3753 57.3096 43.2966C57.8412 42.3378 58.4219 41.4144 59.1465 40.5816C59.4024 40.2863 59.5343 40.1918 59.8336 40.5422C60.3297 41.125 60.8199 41.7097 61.2964 42.3102C61.5228 42.5977 61.446 42.702 61.2196 42.9068C59.7017 44.2711 58.1896 45.6414 56.8272 47.1652C55.961 48.1339 55.2778 49.2305 54.7482 50.4098C54.4115 51.1579 54.2422 51.9828 53.8957 52.727C53.1751 54.2686 53.1259 55.9539 52.7558 57.5683C52.7499 57.5978 52.7499 57.6273 52.7499 57.6588C52.7991 58.9326 52.8424 60.2064 52.9054 61.4802C52.9271 61.9291 52.994 62.376 53.1377 62.8052C53.1653 62.8879 53.2027 63.0336 53.3267 63.008C53.4842 62.9765 53.3996 62.8505 53.3819 62.7541C53.0039 60.5293 52.8326 58.3223 53.4961 56.0976C53.8386 54.9498 54.13 53.7961 54.5868 52.6778C55.3369 50.8429 56.0614 49.0297 57.4809 47.5511C58.8511 46.1237 60.1761 44.6511 61.574 43.2454C61.7964 43.0229 61.9028 43.0446 62.074 43.2789C62.4107 43.7376 62.7611 44.1884 63.1293 44.6255C63.2888 44.8145 63.273 44.9287 63.0722 45.0488C62.7611 45.2358 62.4934 45.474 62.2256 45.7182C60.434 47.3523 59.2744 49.4037 58.3294 51.5871C58.6464 51.3331 58.989 50.9236 59.1898 50.5417C60.1466 48.7245 61.2609 47.0274 62.8163 45.6552C63.2442 45.2785 63.6313 45.3139 63.9779 45.7615C64.0231 45.8205 64.0822 45.8698 64.1275 45.9288C64.6945 46.6415 65.3363 47.2893 65.864 48.0433C67.1555 49.8861 68.3919 51.7623 69.5968 53.6602C69.711 53.8414 69.8921 54.0008 69.7484 54.2666C69.4924 54.7352 69.3526 55.2609 69.1144 55.7314C68.2875 57.3714 68.0296 59.1394 67.8406 60.9329C67.7402 61.8858 67.8741 62.8151 68.0434 63.7404C68.1005 64.0456 68.1379 64.4019 68.4608 64.6539C68.1556 62.9135 68.5474 61.2184 68.6537 59.5056C68.764 57.7376 69.3664 56.137 69.9984 54.495C71.0734 56.0366 71.664 57.7691 72.422 59.4091C72.9614 60.5766 73.2429 61.8701 73.5855 63.1202C74.0226 64.7248 74.2273 66.3687 74.3199 68.0304C74.3632 68.7982 74.503 69.5621 74.5128 70.328C74.5286 71.4423 74.6723 72.5369 74.8633 73.6296C74.8731 73.6808 74.8928 73.7517 74.9893 73.7359C75.0916 73.5804 75.0739 73.4071 75.0562 73.228C75.0148 72.8126 74.9676 72.3952 74.942 71.9778C74.8121 69.8771 74.753 67.7685 74.5443 65.6757C74.2825 63.0553 73.5304 60.5628 72.4476 58.1451C71.3962 55.7983 70.2583 53.5165 68.825 51.3824C68.4962 50.8921 68.2127 50.3743 67.8701 49.8054C68.0749 49.8802 68.2265 49.9117 68.3525 49.9845C69.8251 50.835 71.3844 51.5202 72.8216 52.4416C74.2037 53.3256 75.5346 54.245 76.6844 55.4282C77.9818 56.763 78.7516 58.3361 79.0174 60.1671C79.171 61.2243 79.1828 62.2874 79.165 63.3526C79.1631 63.4667 79.108 63.6361 79.2733 63.6459C79.4407 63.6558 79.4013 63.4746 79.4151 63.3663C79.5037 62.7009 79.4997 62.0335 79.4781 61.3602C79.3659 57.7553 77.6707 55.0797 74.7373 53.0972C73.6702 52.3766 72.5716 51.7151 71.4612 51.0614C70.4906 50.4905 69.5141 49.9156 68.4962 49.4667C67.2244 48.9056 66.3975 48.0039 65.7793 46.8148C66.9487 47.0333 68.1005 47.2637 69.1085 47.9508C69.7799 48.4095 70.5457 48.6969 71.2919 49.01C71.4277 49.0671 71.6049 49.2521 71.7191 49.0336C71.8431 48.7914 71.5833 48.7383 71.4376 48.6694C70.7859 48.3622 70.1579 48.0177 69.5436 47.6397C68.7226 47.1357 67.8583 46.7301 66.8857 46.5943C66.3187 46.5155 65.795 46.2714 65.2536 46.0942C65.0469 46.0273 64.8914 45.917 64.7417 45.7556C64.1629 45.1354 63.8774 44.2947 63.277 43.712C62.0229 42.4972 61.2373 40.9143 59.9655 39.6996C58.9319 38.7113 58.1148 37.4985 57.1363 36.4393C56.8174 36.0928 56.5398 35.7108 56.1834 35.2698C59.2528 35.8231 62.2178 36.3231 65.1453 37.0555C68.0769 37.7879 70.8095 39.0873 73.7076 39.924C73.558 39.7744 73.3886 39.6602 73.2075 39.5775C72.5401 39.2803 71.8648 38.9948 71.1954 38.7014C68.9963 37.7387 66.7775 36.8331 64.4189 36.3192C62.6765 35.9392 60.94 35.5238 59.1799 35.2265C58.2192 35.0651 57.2505 34.9391 56.2996 34.7166C56.213 34.6969 56.1165 34.6831 56.0318 34.7009C55.7562 34.7599 55.581 34.63 55.4176 34.4292C54.7384 33.5905 54.0414 32.7655 53.3031 31.9761C53.248 31.917 53.1555 31.8619 53.2421 31.7103C53.9902 31.8383 54.758 31.9544 55.518 32.1001C56.589 32.3049 57.5478 32.8226 58.5519 33.2144C58.6917 33.2696 58.8925 33.4152 58.989 33.2223C59.0953 33.0097 58.859 32.9605 58.7153 32.8994C58.2172 32.6907 57.723 32.4722 57.2171 32.2871C56.0023 31.8442 54.7699 31.4189 53.4842 31.3067C52.8267 31.2496 52.4231 30.9858 52.0116 30.5349C51.3265 29.7828 50.5862 29.078 49.8262 28.3968C49.21 27.8436 48.6272 27.253 47.9776 26.6269C48.1803 26.5816 48.2926 26.5501 48.4067 26.5324C49.4581 26.3768 50.5094 26.2253 51.5607 26.0717C52.1376 25.987 52.7164 25.8177 53.2933 25.8295C54.9392 25.8591 56.5811 25.6149 58.2251 25.7586C58.989 25.8256 59.7568 25.6661 60.5128 25.7547C62.0918 25.9398 63.6786 26.0047 65.2615 26.1367C67.4626 26.3217 69.6381 26.6328 71.8077 27.0088C73.2351 27.2549 74.5423 27.8377 75.8221 28.5189C76.7868 29.0327 77.6373 29.6509 78.3559 30.464C78.602 30.7436 78.8441 31.0271 79.0922 31.3027C79.167 31.3854 79.2477 31.5587 79.3678 31.4681C79.5155 31.3559 79.3383 31.2397 79.2832 31.1334C79.2477 31.0685 79.1906 31.0153 79.1473 30.9543C78.224 29.6509 76.9738 28.7039 75.702 27.7786C74.7806 27.1092 73.8001 26.6289 72.6543 26.4359C71.1304 26.1819 69.6145 25.8925 68.0808 25.6976C66.5491 25.5047 65.0233 25.2133 63.4876 25.1168C61.8909 25.0144 60.2884 24.9731 58.6818 25.0085C56.8075 25.0479 54.9411 25.2527 53.0649 25.1956C52.7991 25.1877 52.5294 25.2645 52.2636 25.3039C50.8835 25.5066 49.5211 25.8118 48.1351 25.9792C47.6389 26.0382 47.255 25.928 46.8967 25.548C45.5284 24.099 44.105 22.7051 42.6047 21.3899C42.3567 21.1734 42.4118 21.0355 42.6481 20.8702C43.2033 20.4843 43.7565 20.0984 44.2979 19.6948C46.2785 18.2123 48.4678 17.0999 50.7319 16.1392C52.1415 15.5426 53.6595 15.2572 55.1065 14.761C55.5022 14.6252 55.8901 14.4519 56.3193 14.4401C57.6856 14.4047 59.0421 14.4677 60.3769 14.8024C60.4793 14.828 60.5797 14.9638 60.7648 14.8457C60.1958 14.5996 59.6879 14.3771 59.1071 14.32C58.5007 14.261 57.8904 14.2373 57.284 14.1369C56.8154 14.0601 56.3173 14.0503 55.8547 14.1901C54.7088 14.5366 53.5551 14.8477 52.4034 15.1745C51.0941 15.5466 49.779 15.9246 48.6194 16.6806C48.015 17.0743 47.2944 17.2141 46.6585 17.5508C45.0736 18.3895 43.6265 19.4389 42.1854 20.4922C41.9294 20.6792 41.8113 20.6418 41.5967 20.4626C39.7382 18.925 37.8659 17.4031 36.0644 15.7986C35.3498 15.1627 34.6883 14.4657 33.8594 13.9656C33.6409 13.8337 33.5976 13.6841 33.8161 13.4734C35.4896 11.863 37.1394 10.2289 38.8306 8.63614C39.3563 8.14001 40.0256 7.85453 40.7698 7.76791C41.5731 7.67537 42.3705 7.54544 43.1698 7.43125C43.2426 7.4214 43.3194 7.39975 43.3273 7.28752C43.2978 7.26981 43.2663 7.23043 43.2308 7.23043C42.1224 7.17727 41.0258 7.32296 39.9646 7.59072C39.2204 7.77972 38.5353 8.18529 37.982 8.76411C37.7005 9.05943 37.3442 9.26025 37.0232 9.50831C35.6746 10.5439 34.4264 11.6858 33.3692 13.0206C33.19 13.247 33.0916 13.2234 32.9164 13.0679C32.5364 12.7332 32.1525 12.4044 31.7469 12.0539C31.932 11.9102 32.0855 11.7941 32.2352 11.674C33.9716 10.2643 35.8223 9.00824 37.667 7.74822C37.9033 7.58678 38.1573 7.45684 38.4329 7.37021C39.0078 7.18909 39.5551 6.94496 40.0768 6.6398C40.6241 6.31888 41.199 6.26179 41.8133 6.40551C42.6185 6.59254 43.4316 6.74217 44.2349 6.92921C46.3809 7.42731 48.5761 7.73838 50.6098 8.66174C51.7497 9.18149 52.9133 9.65203 54.065 10.1442C53.8012 10.1895 53.5768 10.1049 53.3504 10.03C52.5668 9.77213 51.7793 9.528 50.9799 9.32128C49.0525 8.81924 47.068 8.70505 45.1149 8.37626C43.6108 8.12229 42.2248 8.33098 40.9785 9.276C40.5926 9.56934 40.2855 9.93357 39.9272 10.2486C38.868 11.1857 38.0864 12.367 37.1394 13.4065C36.6866 13.9026 36.7594 14.2098 37.3146 14.5956C38.2872 15.2729 39.1909 16.0309 40.0906 16.7967C40.5395 17.1787 41.0494 17.3559 41.6282 17.287C42.9099 17.1334 44.1896 16.97 45.4398 16.6412C47.4735 16.1077 49.4935 15.5249 51.4584 14.7827C53.9292 13.8475 56.4729 13.4892 59.0933 13.6093C60.5305 13.6743 61.9224 13.9715 63.1844 14.7C64.3401 15.3654 65.4466 16.1096 66.5255 16.8893C67.4941 17.5882 68.6045 18.0942 69.4393 18.9742C69.8527 19.4093 70.3272 19.7716 70.7879 20.1516C71.0635 20.3799 71.3352 20.6142 71.5833 20.8721C71.5833 20.8721 71.5931 20.878 71.599 20.88C71.6167 20.8879 71.6364 20.8898 71.6541 20.8977C71.6758 20.9076 71.6915 20.9253 71.6837 20.9666C71.6305 20.9489 71.5774 20.9332 71.5242 20.9154C71.3726 20.8505 71.219 20.7934 71.0714 20.7205C69.5456 19.9822 68.1753 18.9703 66.6495 18.2182C64.9367 17.3756 63.2218 16.5625 61.4106 15.9561C61.1074 15.8557 60.8081 15.7828 60.4892 15.7671C59.2016 15.6962 57.914 15.8714 56.6244 15.7789C55.6066 15.706 54.6852 16.0447 53.7855 16.4995C52.7282 17.033 51.6926 17.602 50.7063 18.2556C49.4305 19.1002 48.139 19.9251 47.507 21.4293C47.4086 21.6636 47.4145 21.8034 47.572 21.9845C48.0327 22.518 48.4697 23.0732 48.8438 23.6737C49.019 23.9533 49.275 24.0773 49.5821 24.1305C50.1452 24.2289 50.7122 24.2762 51.2851 24.2289C52.8542 24.1009 54.4352 24.1167 56.0023 24.1127C58.1188 24.1088 60.2254 23.9296 62.3398 23.9119C64.9957 23.8903 67.6437 23.8981 70.2858 24.2407C71.4927 24.3963 72.6858 24.6266 73.8887 24.7979C74.7569 24.9219 75.5307 25.17 76.2532 25.6838C77.4581 26.5403 78.4445 27.6369 79.5627 28.5858C80.3955 29.2926 80.9566 30.0545 80.9862 31.2338C81.0354 33.1751 81.8564 34.9981 82.0001 36.9354C82.004 36.9906 82.0473 37.0437 82.071 37.0988C82.4549 38.036 82.3978 39.0322 82.5435 40.0815C82.3092 39.8866 82.2639 39.6917 82.1832 39.5204C81.9174 38.9495 81.6733 38.3589 81.2775 37.8647C80.1376 36.4432 79.1808 34.8977 78.222 33.3562C77.4975 32.1907 76.5052 31.4858 75.2117 31.0232C71.5144 29.7002 67.691 28.8359 63.905 27.8436C62.4245 27.4557 60.9046 27.2274 59.4221 26.8395C58.9811 26.7234 58.5302 26.682 58.0833 26.7844C57.1895 26.9891 56.2838 27.1112 55.3802 27.249C54.8998 27.3219 54.4509 27.4853 54.1024 27.8554C53.7244 28.259 53.6772 28.4303 54.0217 28.8713C54.9982 30.1156 56.1874 31.1354 57.6462 31.7477C58.9575 32.2989 60.3297 32.7065 61.6803 33.1593C64.3854 34.063 67.059 35.0493 69.6283 36.2877C71.3313 37.1087 72.8807 38.1994 74.4478 39.2547C77.4404 41.2668 80.3581 43.3576 82.7502 46.1021C83.3881 46.8345 83.6322 47.6889 83.7523 48.5926C83.7996 48.9489 83.7799 49.3348 83.7425 49.7168C83.2562 49.2088 83.0061 48.5828 82.7089 47.9882C82.1832 46.9388 81.6752 45.8737 80.7539 45.1039C79.6907 44.216 78.5114 43.4836 77.273 42.8812C75.4224 41.9814 73.4595 41.3435 71.5163 40.686C68.8663 39.7882 66.0648 39.4929 63.3518 38.8373C63.2789 38.8196 63.2022 38.8117 63.1293 38.8117C62.5603 38.8058 62.2493 39.2271 62.4245 39.7685C62.6627 40.5068 62.9226 41.2372 63.214 41.9578C63.5683 42.8378 64.096 43.5407 64.9918 43.9364C65.4426 44.1353 65.858 44.4148 66.305 44.6294C69.6932 46.2694 73.1347 47.7972 76.1823 50.0672C77.842 51.3036 79.6021 52.4179 81.0531 53.9063C82.0277 54.9065 82.8683 56.0307 82.9609 57.523C82.9668 57.6273 82.9943 57.7297 83.014 57.8321C83.2542 59.1098 83.1144 60.3836 82.5592 61.5196C81.8564 62.9549 81.0315 64.3409 79.9467 65.5458C79.5352 66.0025 79.1355 66.481 78.8717 67.0381C77.6333 69.6527 76.4324 72.283 75.6015 75.0649C75.4027 75.7283 75.1625 76.378 74.94 77.0336C74.5167 75.8209 73.808 74.8069 73.2193 73.73C71.4021 70.4028 72.2231 71.3754 69.2955 68.9183C69.203 68.8415 69.1124 68.7628 69.0199 68.688C67.1574 67.172 65.106 66.0222 62.7493 65.4651C62.584 65.4257 62.5111 65.3666 62.5446 65.1973C62.7611 64.0594 62.708 62.8919 62.9423 61.7559C63.3262 59.8855 63.8578 58.0506 64.4917 56.2551C64.98 54.873 65.5923 53.5205 66.6613 52.4534C66.998 52.1167 67.057 51.7801 66.8129 51.3686C66.7322 51.2327 66.7243 51.0536 66.6849 50.8941C66.5412 50.2976 66.4644 49.6754 66.2459 49.1064C65.7557 47.8307 65.0292 47.6299 64.1432 48.6497C63.3557 49.5553 62.5682 50.4629 61.824 51.4021C60.9302 52.5302 59.9871 53.6366 59.237 54.8592C58.0124 56.8536 57.0221 58.9779 56.3193 61.2223C56.0594 62.0532 55.6204 62.8485 55.5475 63.7089C55.4235 65.1757 55.3054 66.6581 55.5771 68.178C55.203 68.0619 54.8388 67.9418 54.4706 67.8315C53.4311 67.5205 52.4211 67.1425 51.5351 66.4947C50.9642 66.0774 50.5704 65.5359 50.5133 64.8193C50.3125 62.3386 50.2357 59.854 50.3421 57.3655C50.4917 53.8551 51.23 50.4728 52.5294 47.2125C53.6102 44.4975 54.8762 41.8889 56.9808 39.7823C57.1501 39.613 57.2899 39.4082 57.3549 39.1739C57.4415 38.8609 57.2604 38.664 56.9729 38.7014C56.0082 38.8314 55.073 39.0991 54.1241 39.296C53.3897 39.4476 52.7243 39.7409 52.1533 40.2194C51.1355 41.0718 50.281 42.0858 49.5073 43.1528C48.3536 44.7436 47.3101 46.4112 46.3198 48.1083C45.6229 49.2994 44.6759 50.335 44.0892 51.5871C42.7288 54.4891 41.3743 57.395 40.1064 60.3384C40.063 60.4388 40.0965 60.6199 39.9252 60.6002C39.6457 60.5707 39.6122 60.7813 39.5393 60.9526C38.8011 62.6714 38.3089 64.461 38.1356 66.3235C38.0884 66.8334 38.1632 67.4063 38.4309 67.8335C38.7184 68.2942 38.8601 68.7825 39.1121 69.3258C38.7085 69.2215 38.4486 69.0443 38.1809 68.8868C37.7399 68.6289 37.2989 68.369 36.8126 68.2056C35.2789 67.6937 33.7433 67.1858 32.2037 66.6916C31.8217 66.5696 31.6485 66.353 31.6209 65.9474C31.5205 64.4374 31.4083 62.9273 31.2783 61.4192C31.1169 59.5705 30.8708 57.7278 31.0637 55.8653C31.361 52.9909 31.9891 50.1853 32.7805 47.4133C33.4342 45.1236 34.3634 42.9422 35.4876 40.8513C36.7831 38.4435 38.614 36.461 40.634 34.6457C41.3349 34.0157 41.9944 33.3207 42.8863 32.9506C43.3588 32.7557 43.8136 32.5293 44.2152 32.2202C44.8708 31.7162 45.5638 31.2673 46.2529 30.8145C46.6841 30.531 46.6703 30.1786 46.2116 29.9266C45.6505 29.6194 45.0441 29.6116 44.4652 29.8163C41.8625 30.7397 39.246 31.6099 36.7712 32.8719C33.5523 34.5138 30.4514 36.329 27.6144 38.5676C26.0591 39.7941 24.5963 41.127 23.2063 42.5406C22.9858 42.765 22.6393 42.9382 22.5487 43.204C22.1373 44.407 21.6628 45.5863 21.5073 46.8739C21.2789 48.7639 21.1726 50.6677 20.8635 52.5518C20.6351 53.9398 20.4992 55.3495 20.4244 56.7552C20.3476 58.2003 20.3969 59.6532 20.391 61.1022C20.3851 61.1396 20.3792 61.1771 20.3713 61.2125C20.3417 61.1948 20.3122 61.1771 20.2827 61.1593C19.9401 60.8778 19.7275 60.4919 19.4715 60.1395C18.4045 58.6708 17.5284 57.0623 16.3235 55.696C15.0339 54.2351 14.4216 52.4691 14.0259 50.6283C13.6853 49.0494 13.4353 47.4507 13.3821 45.8225C13.3171 43.84 13.26 41.8633 13.5435 39.8945C13.6518 39.1483 13.8802 38.4356 14.3173 37.8017C15.0851 36.6913 15.8372 35.5691 16.5991 34.4528C17.7843 32.7203 18.9459 30.97 20.1035 29.2198C21.4384 27.2018 23.1 25.4358 24.6593 23.593C24.9467 23.2524 25.2952 22.9964 25.6909 22.8094C26.4666 22.4452 27.1892 21.9865 27.9216 21.5435C28.7799 21.0257 29.6344 20.5512 30.6916 20.6674C30.9358 20.6949 31.2055 20.6437 31.2646 20.3504C31.3236 20.0492 31.1149 19.8858 30.857 19.7873C30.4495 19.6318 30.0301 19.5097 29.6344 19.3266C27.1222 18.171 24.5864 18.4604 22.0802 19.2754C20.3831 19.8267 18.8533 20.7993 17.172 21.4135C16.92 21.5061 16.6837 21.6498 16.4593 21.7975C15.8982 22.1636 15.2898 22.4019 14.6441 22.5653C14.1046 22.7011 13.5632 22.8665 13.1596 23.28C12.2323 24.2309 11.372 25.2487 10.868 26.4851C9.75166 29.2217 8.59205 31.9485 8.06244 34.882C8.03488 35.0395 8.03291 35.2147 7.86557 35.3899C7.85375 35.1734 7.84588 35.0119 7.838 34.8485C7.8006 34.1142 7.82225 33.3719 7.61159 32.6592C7.12333 31.0074 7.20209 29.2237 6.42638 27.6408C6.4126 27.6152 6.4067 27.5837 6.40473 27.5542C6.36141 26.1465 5.95388 24.7664 6.08185 23.3469C6.16454 22.4196 6.42048 21.5809 7.30643 21.0729L7.28871 21.0769ZM32.9931 14.0247L32.9774 14.0424L32.9656 14.0227H32.9931V14.0247Z" stroke="#046F61" stroke-width="9" stroke-linejoin="round" mask="url(#path-1-outside-1_926_819)"/>
<path d="M45.3906 31.4424C44.2939 31.5704 43.2406 31.8519 42.207 32.2004C43.2406 31.8519 44.2939 31.5684 45.3906 31.4424Z" fill="#046F61"/>
<path d="M56.0887 40.5679C55.6654 40.6722 55.2422 40.7864 54.8169 40.8888C55.2422 40.7864 55.6635 40.6742 56.0887 40.5679Z" fill="#046F61"/>
</svg>
