<svg width="90" height="84" viewBox="0 0 90 84" fill="none" xmlns="http://www.w3.org/2000/svg">
<g clip-path="url(#clip0_935_772)">
<mask id="path-1-outside-1_935_772" maskUnits="userSpaceOnUse" x="0" y="0.300293" width="90" height="83" fill="black">
<rect fill="white" y="0.300293" width="90" height="83"/>
<path d="M5.16046 22.4863C4.98917 23.3545 4.93405 24.2385 5.09942 25.1245C5.17424 25.5222 5.24118 25.9258 5.24905 26.3274C5.2648 27.1799 5.42034 27.993 5.76881 28.7746C5.87709 29.0187 5.96372 29.2845 5.99719 29.5483C6.29054 31.8794 6.91858 34.1671 6.8162 36.5474C6.78864 37.1715 6.89102 37.8035 6.95205 38.4315C6.97174 38.6382 7.02293 38.8508 7.11152 39.0359C7.22177 39.2663 7.39699 39.4887 7.68837 39.4592C7.98172 39.4297 8.18648 39.2407 8.25538 38.9513C8.31445 38.7052 8.35973 38.4472 8.3617 38.1952C8.36564 37.6164 8.47195 37.0612 8.66095 36.5178C9.2634 34.7833 9.43665 32.9386 10.0352 31.2002C10.5825 29.6094 11.1613 28.0324 11.7933 26.4751C12.2146 25.4356 12.9293 24.5752 13.6636 23.7385C13.9885 23.3683 14.4452 23.2423 14.8922 23.1222C15.5497 22.947 16.1699 22.695 16.7507 22.3367C17.3019 21.9961 17.8847 21.7165 18.5009 21.5157C19.8338 21.0786 20.9875 20.2262 22.3342 19.8403C24.3679 19.2595 26.4253 18.846 28.524 19.5568C28.6382 19.5961 28.7524 19.6316 28.8646 19.6729C28.9355 19.6985 29.0024 19.73 29.1265 19.7832C28.6146 20.0726 28.146 20.3502 27.6656 20.6061C26.8053 21.0668 25.9843 21.5945 25.1003 22.0118C24.7026 22.1989 24.3718 22.4883 24.0844 22.819C22.4306 24.7209 20.6646 26.54 19.2786 28.6486C17.6721 31.0938 15.8962 33.4229 14.3192 35.8878C14.2385 36.0138 14.1716 36.1516 14.0751 36.2658C13.012 37.5318 12.6202 39.0418 12.5276 40.6444C12.3839 43.0995 12.3741 45.5605 12.6359 48.0037C12.8131 49.6516 13.1892 51.2758 13.6853 52.8666C14.0613 54.0656 14.7327 55.0953 15.5261 56.0423C16.6601 57.3928 17.5579 58.9049 18.562 60.346C19.1526 61.1926 19.8574 61.921 20.5603 62.6593C20.7631 62.872 21.0328 62.9645 21.3005 62.8286C21.5821 62.6849 21.6136 62.3837 21.5447 62.116C21.1076 60.4425 21.3183 58.7415 21.3498 57.0562C21.3813 55.3335 21.651 53.6207 21.8774 51.9098C22.1196 50.0808 22.279 48.24 22.5015 46.409C22.6433 45.2356 23.1315 44.1587 23.5095 43.0522C23.545 42.9459 23.6454 42.8593 23.7281 42.7746C25.7638 40.67 27.9353 38.7091 30.3609 37.073C32.1072 35.8957 33.9401 34.8404 35.8203 33.8679C37.3934 33.0547 38.9487 32.2141 40.5986 31.5723C40.9864 31.4207 41.3762 31.275 41.766 31.1352C41.9137 31.082 42.0594 31.0308 42.207 30.9816C43.2407 30.6331 44.294 30.3496 45.3906 30.2236C45.4595 30.1941 45.5304 30.1646 45.5835 30.2394C45.5875 30.2453 45.5126 30.3083 45.4752 30.3457C44.4396 30.9954 43.5399 31.8617 42.3547 32.2751C42.148 32.348 41.959 32.4917 41.7798 32.6275C38.9723 34.7853 36.5173 37.2699 34.7493 40.3688C33.3003 42.9105 32.2371 45.6254 31.5382 48.4546C31.0322 50.5021 30.5873 52.5733 30.288 54.67C29.975 56.8495 30.1738 59.021 30.4199 61.1867C30.5204 62.0805 30.5676 62.9763 30.6227 63.8741C30.668 64.6202 30.735 65.3664 30.8295 66.1067C30.9299 66.8962 31.5677 67.1206 32.2056 67.347C33.698 67.8746 35.2474 68.233 36.7063 68.8492C37.6414 69.2449 38.5569 69.6977 39.3937 70.2884C39.5512 70.3986 39.7244 70.4852 39.8898 70.3573C40.0749 70.2136 40.0749 70.0029 40.004 69.7844C39.748 68.985 39.5059 68.1818 39.2499 67.3824C39.1417 67.0458 39.1082 66.6953 39.1692 66.3587C39.5078 64.4667 39.8288 62.5589 40.5415 60.7713C41.2975 58.8793 42.0929 57.0011 43.0024 55.1721C43.3037 54.5676 43.5813 53.9514 43.8352 53.3273C44.8629 50.8132 46.6703 48.7834 48.0622 46.4956C48.6213 45.5742 49.2829 44.7139 49.8715 43.8102C50.5488 42.7727 51.4032 41.8867 52.2301 40.9771C52.807 40.3412 53.5413 39.9475 54.3879 39.7644C54.5297 39.7329 54.6714 39.7014 54.8132 39.6659C55.2384 39.5635 55.6597 39.4513 56.085 39.345C56.1224 39.3509 56.1578 39.3549 56.1953 39.3608C56.1775 39.3923 56.1598 39.4238 56.1421 39.4553C56.1244 39.4809 56.1106 39.5064 56.0929 39.532C56.0771 39.5576 56.0594 39.5813 56.0397 39.6029C54.2324 41.5166 53.1968 43.8752 52.2045 46.2613C51.1926 48.6967 50.5626 51.2463 50.0054 53.8097C49.5486 55.9084 49.4482 58.0465 49.3852 60.1944C49.34 61.7104 49.4837 63.2047 49.5742 64.7069C49.6294 65.6105 50.0861 66.3626 50.8165 66.9198C51.7734 67.6502 52.8739 68.0853 54.0158 68.4318C54.8624 68.6897 55.7168 68.9279 56.4729 69.4182C56.7406 69.5914 57.0497 69.678 57.2997 69.4182C57.5321 69.174 57.4198 68.8807 57.2781 68.6247C57.1344 68.3629 57.0084 68.0715 56.8056 67.8609C56.3882 67.4297 56.3252 66.9217 56.3547 66.3666C56.4079 65.394 56.2425 64.3938 56.5024 63.4508C57.2663 60.6787 58.2802 57.9933 59.7076 55.4949C60.7057 53.7467 62.0012 52.1972 63.3026 50.6596C63.8164 50.0532 64.3086 49.4291 64.8087 48.8089C65.0489 48.5117 65.2339 48.5491 65.4092 48.8739C65.6946 49.4114 65.7222 50.0217 65.9073 50.5868C66.1278 51.2542 66.0411 51.7641 65.5312 52.3646C64.5961 53.4651 64.033 54.8196 63.5939 56.1958C62.9816 58.1095 62.3516 60.0231 62.0662 62.0234C61.9106 63.12 61.889 64.2324 61.6744 65.3251C61.6035 65.6854 61.7886 65.9511 62.1902 65.9551C62.9305 65.961 63.5979 66.2307 64.2633 66.5044C66.0293 67.2269 67.5768 68.2861 69.0711 69.4713C70.463 70.5758 71.5892 71.8201 72.3531 73.4463C72.9949 74.8126 73.8867 76.0589 74.3376 77.5236C74.3455 77.5512 74.3612 77.5788 74.373 77.6063C74.4872 77.8623 74.6211 78.0966 74.9538 78.0867C75.2984 78.0769 75.385 77.8131 75.4696 77.5492C75.8614 76.3345 76.2591 75.1237 76.647 73.907C77.2986 71.8575 78.2141 69.9163 79.0863 67.9573C79.4761 67.0832 79.9939 66.3055 80.6318 65.5968C81.7067 64.4037 82.508 63.0137 83.1951 61.5863C83.7759 60.3775 83.8547 59.0309 83.7228 57.6665C83.4905 55.2528 82.134 53.5321 80.368 52.0791C77.9562 50.0926 75.4007 48.2912 72.7035 46.7142C70.6816 45.5329 68.4942 44.6666 66.4034 43.6133C66.175 43.4991 65.9624 43.3475 65.7242 43.2629C64.4799 42.8219 63.8912 41.8434 63.5329 40.6602C63.4246 40.3018 63.2947 39.9494 63.1628 39.597C63.0742 39.3588 63.147 39.2938 63.3833 39.3489C63.8066 39.4474 64.2299 39.5557 64.659 39.6344C66.683 40.0026 68.7266 40.2999 70.6934 40.8984C72.9024 41.5697 75.0857 42.3435 77.1766 43.3259C78.2161 43.8141 79.1769 44.4757 80.1101 45.1588C81.0787 45.8676 81.6063 46.9051 82.1162 47.9387C82.5415 48.8011 82.9825 49.6457 83.5672 50.4115C83.8862 50.827 84.1264 51.2916 84.3134 51.7838C84.3843 51.9688 84.4729 52.213 84.7485 52.1441C85.0438 52.0693 85.0143 51.8251 84.9769 51.5928C84.8942 51.0888 84.7859 50.5907 84.6284 50.1044C84.4414 49.5315 84.3922 48.9448 84.341 48.3443C84.2504 47.295 83.9177 46.3106 83.1853 45.4797C80.9842 42.9794 78.409 40.9338 75.6449 39.1009C74.2195 38.1559 72.8295 37.1597 71.3588 36.2816C69.4412 35.1377 67.374 34.3305 65.3009 33.5312C62.8635 32.5901 60.3395 31.8912 57.9061 30.9442C56.5575 30.4185 55.4904 29.4538 54.5592 28.3474C54.4174 28.1781 54.4923 28.0816 54.6045 27.9733C54.8683 27.7174 55.2168 27.6583 55.5554 27.6071C56.4158 27.4772 57.2741 27.3551 58.1227 27.1543C58.4416 27.0795 58.7744 27.0893 59.1051 27.1641C60.7589 27.5382 62.4284 27.8591 64.0684 28.2844C67.6398 29.2117 71.2466 30.0208 74.7274 31.271C75.2491 31.4581 75.7787 31.6353 76.2827 31.8636C76.9423 32.1629 77.3026 32.785 77.6904 33.3442C78.3992 34.3679 78.9977 35.4724 79.7557 36.4568C80.6771 37.6499 81.4981 38.8863 82.1064 40.2664C82.2127 40.5086 82.4116 40.7094 82.571 40.9259C82.6577 41.0421 82.764 41.1149 82.9195 41.048C83.0947 40.9732 83.1203 40.8216 83.079 40.6739C82.7443 39.4749 82.7108 38.2149 82.3486 37.0199C82.3092 36.8919 82.258 36.7541 82.2738 36.6281C82.4332 35.2716 82.1517 33.9742 81.7678 32.6905C81.5552 31.9778 81.5138 31.2356 81.5059 30.5091C81.4981 29.7807 81.2283 29.1881 80.7558 28.7372C79.2379 27.2882 77.8105 25.7348 76.0229 24.5929C75.637 24.3468 75.2354 24.148 74.7845 24.083C73.7135 23.9314 72.6622 23.6755 71.5951 23.5022C69.0672 23.0907 66.5176 22.947 63.97 22.9529C62.1587 22.9588 60.3415 22.9982 58.5283 23.1006C56.524 23.2128 54.5119 23.1774 52.5018 23.1793C51.7655 23.1793 51.039 23.2975 50.2987 23.2581C49.5112 23.2167 48.9068 22.9411 48.5367 22.2264C48.517 22.1871 48.4875 22.1516 48.4619 22.1142C47.9697 21.372 47.9559 21.3602 48.5721 20.675C49.5112 19.6296 50.6393 18.8204 51.8167 18.0625C53.2421 17.145 54.8329 16.6607 56.4335 16.198C57.4887 15.8929 58.5814 16.0405 59.6603 16.0326C61.5247 16.0189 63.088 16.8851 64.6945 17.6726C66.7676 18.6885 68.7581 19.8481 70.7662 20.9802C71.3765 21.3247 72.0302 21.5984 72.6661 21.8996C72.8157 21.9705 72.9732 22.0237 73.1288 22.0768C73.3197 22.1437 73.5284 22.1969 73.6485 21.9784C73.7627 21.7716 73.5816 21.6437 73.4536 21.5275C72.8492 20.9861 72.2527 20.4388 71.6285 19.923C70.9001 19.3205 70.1894 18.7003 69.5082 18.0447C68.6911 17.2592 67.6496 16.7828 66.746 16.1114C65.673 15.314 64.5547 14.5817 63.401 13.9083C62.0524 13.1208 60.5541 12.796 59.0067 12.733C56.5122 12.6306 54.0749 12.8964 51.7005 13.7489C49.6392 14.4891 47.5326 15.0975 45.4162 15.6704C44.1817 16.0051 42.9158 16.1626 41.6538 16.3536C41.1478 16.4303 40.7108 16.2807 40.3269 15.9401C39.5275 15.2353 38.7085 14.5521 37.8108 13.9733C37.541 13.8 37.5036 13.6445 37.7281 13.4142C38.8385 12.2742 39.7598 10.9571 40.9766 9.91367C42.1165 8.93715 43.4159 8.54339 44.9043 8.81509C45.9536 9.00606 47.0207 9.06709 48.078 9.19703C49.9621 9.42738 51.797 9.86051 53.5906 10.4807C55.0908 10.9985 56.5752 11.5537 58.0262 12.1955C58.227 12.2841 58.4672 12.414 58.6149 12.1246C58.735 11.8864 58.5381 11.7446 58.3688 11.6679C56.8075 10.963 55.4963 9.84082 53.9312 9.11828C50.85 7.69485 47.7196 6.4683 44.353 5.9131C43.5242 5.77528 42.7052 5.5725 41.8861 5.38547C41.1833 5.22599 40.5139 5.27915 39.8819 5.64141C39.2677 5.99382 38.6219 6.27339 37.9545 6.50767C36.9957 6.84236 36.2475 7.496 35.4994 8.14767C35.397 8.23626 35.2986 8.33273 35.1824 8.39967C33.9736 9.09859 32.9459 10.0436 31.8276 10.8666C31.6386 11.0063 31.4752 10.9827 31.2823 10.9473C30.2349 10.7543 29.2347 10.3606 28.1618 10.2562C25.1633 9.96485 22.2337 10.1125 19.4243 11.3666C18.4419 11.8057 17.3354 11.9297 16.3983 12.5066C14.2011 13.8552 12.0374 15.2392 10.0785 16.9383C9.1118 17.777 8.19041 18.6393 7.39503 19.6375C7.19421 19.8895 6.93236 20.0706 6.66658 20.2321C5.80819 20.7518 5.3534 21.5452 5.16833 22.4883L5.16046 22.4863ZM83.7267 49.5531C83.7622 49.5354 83.7917 49.5118 83.8015 49.5177C83.8291 49.5374 83.8488 49.5689 83.8724 49.5945C83.8507 49.6043 83.8232 49.628 83.8094 49.6221C83.7799 49.6083 83.7582 49.5787 83.7287 49.5531H83.7267ZM7.28871 20.8581C7.58403 20.6888 7.83997 20.4447 8.05063 20.1691C9.3894 18.4247 11.1633 17.1667 12.884 15.8535C13.5258 15.3633 14.2464 14.9734 14.9079 14.5068C16.0655 13.6898 17.2468 12.9279 18.6407 12.5696C19.2235 12.4199 19.7728 12.1758 20.3339 11.9592C22.029 11.3056 23.7891 10.9532 25.6082 10.9709C26.2816 10.9788 26.9569 11.0221 27.6302 11.0674C29.1225 11.1697 30.5873 11.3745 31.7075 12.542C32.0914 12.9436 32.5206 13.3019 32.9282 13.6799C32.6742 13.7489 32.4813 13.7429 32.2962 13.6977C29.091 12.9102 25.9469 13.5382 22.8008 14.1013C22.5665 14.1426 22.3381 14.2332 22.1136 14.3159C21.4639 14.5541 20.8024 14.747 20.1409 14.9439C19.2353 15.2136 18.3316 15.4952 17.5461 16.0563C15.8135 17.2927 14.0121 18.4346 12.4686 19.9249C11.8701 20.5038 11.1436 20.9507 10.6278 21.622C10.0706 22.3485 9.53116 23.0888 8.99368 23.829C8.90902 23.9452 8.78892 24.0751 8.84996 24.3193C8.98187 24.1578 9.07637 24.0476 9.1689 23.9314C10.2813 22.5355 11.4527 21.1968 12.8584 20.0824C14.3881 18.8677 16.0104 17.7888 17.6721 16.765C18.1741 16.4559 18.686 16.1862 19.2491 16.0071C20.1783 15.7117 21.1115 15.4322 22.027 15.0975C22.9327 14.7667 23.8501 14.497 24.8148 14.4616C25.8366 14.4241 26.7875 14.0245 27.8192 13.9831C29.7427 13.9083 31.6426 13.9694 33.5267 14.3789C33.8318 14.4458 34.0799 14.5698 34.3103 14.7805C35.8302 16.1646 37.4505 17.4324 39.0452 18.7299C40.4647 19.8875 41.8212 21.118 43.1363 22.3918C43.2151 22.4686 43.3706 22.5414 43.3115 22.6753C43.2603 22.7895 43.1028 22.7521 42.9887 22.7757C42.0771 22.9588 41.1144 22.8879 40.2343 23.1045C38.5313 23.5239 36.7693 23.6853 35.1076 24.2779C34.6705 24.4334 34.2158 24.5417 33.761 24.6461C30.7645 25.3273 28.3212 26.8925 26.3879 29.2648C24.2262 31.9188 22.0506 34.5589 19.9303 37.2463C18.3651 39.2288 17.2921 41.4398 17.0224 44.0071C16.918 45.0033 16.8294 45.9719 17.1149 46.9445C17.2232 47.3127 17.2645 47.7005 17.3846 48.0628C17.5303 48.5018 17.4142 48.9704 17.5658 49.4626C17.737 48.9704 17.7725 48.5294 17.737 48.0746C17.6288 46.6472 17.4614 45.2494 17.737 43.7905C18.1761 41.4733 19.0601 39.3942 20.4874 37.5574C22.4306 35.0609 24.4545 32.6255 26.5493 30.2512C27.9964 28.6112 29.6246 27.2232 31.6229 26.292C32.816 25.7348 34.1154 25.5123 35.334 25.0516C36.9563 24.4374 38.7046 24.3133 40.3229 23.703C40.4726 23.6459 40.6478 23.644 40.8112 23.64C41.768 23.6262 42.6796 23.4215 43.5478 23.0218C43.6403 22.9785 43.721 22.9628 43.7939 23.0356C44.4633 23.6932 45.1287 24.3508 45.8552 25.0674C45.3158 25.2052 44.8807 25.3155 44.4475 25.4277C42.4315 25.9455 40.5316 26.7527 38.7321 27.7843C38.2459 28.0639 37.8068 28.4222 37.2752 28.6289C37.1414 28.6801 37.0292 28.7943 36.915 28.8908C36.6767 29.0916 36.468 29.3416 36.2023 29.4932C35.3557 29.9736 34.8261 30.834 33.9795 31.3084C33.9165 31.3439 33.8633 31.4207 33.9342 31.4955C33.9953 31.5604 34.0681 31.5388 34.137 31.4955C34.3477 31.3517 34.576 31.2297 34.769 31.0643C35.8577 30.135 36.9642 29.2786 38.2498 28.5797C39.7638 27.7548 41.3762 27.2153 42.9296 26.5184C43.5183 26.2546 44.1483 26.1128 44.7901 26.0124C45.174 25.9514 45.5599 25.8687 45.9221 25.7309C46.184 25.6324 46.3277 25.6797 46.501 25.8785C46.8927 26.3294 47.2629 26.794 47.7078 27.2075C48.5229 27.9694 49.3321 28.747 50.096 29.6684C49.1864 29.883 48.5682 30.4126 48.0327 31.0801C47.4224 31.84 46.8179 32.6019 46.2923 33.4249C46.2411 33.5056 46.1466 33.6158 46.2746 33.6966C46.3651 33.7517 46.434 33.6513 46.4951 33.5883C46.5561 33.5233 46.6211 33.4583 46.6742 33.3875C47.3318 32.5133 48.1095 31.7514 48.8714 30.9718C49.275 30.5564 49.7829 30.3536 50.2948 30.137C50.4779 30.0583 50.5744 30.1508 50.6768 30.265C51.2201 30.8655 51.7576 31.4718 52.3089 32.0664C52.4979 32.2712 52.4841 32.3755 52.2419 32.5429C50.0723 34.0234 48.1981 35.8484 46.4045 37.7404C44.3077 39.9553 42.4787 42.3986 40.7324 44.9009C39.687 46.3972 38.679 47.9151 38.0057 49.6201C37.73 50.319 37.2615 50.9254 37.0784 51.6617C36.7988 52.782 36.2889 53.8215 35.966 54.9319C35.5033 56.5187 34.9993 58.0858 34.9383 59.7495C34.9068 60.5941 34.8635 61.4544 35.1923 62.3227C35.2828 60.5114 35.271 58.7611 35.7711 57.0326C36.0467 56.0816 36.3873 55.1563 36.6826 54.2152C37.0449 53.0615 37.5312 51.9472 38.0746 50.8644C38.2695 50.4765 38.4723 50.0926 38.6514 49.6969C39.1298 48.6436 39.7028 47.6375 40.382 46.7083C41.3624 45.3655 42.2897 43.9874 43.3096 42.6722C44.3117 41.3788 45.3473 40.1148 46.3848 38.8528C47.4539 37.5534 48.7316 36.4489 49.8912 35.2322C50.6886 34.3955 51.608 33.6926 52.5491 33.0193C52.807 32.8342 52.9802 32.8205 53.2303 33.0784C54.0434 33.919 54.8486 34.7656 55.6302 35.6378C56.7505 36.886 57.9002 38.1066 58.9831 39.3923C59.1898 39.6384 59.1799 39.7781 58.9771 39.9829C58.2841 40.6857 57.7841 41.5205 57.3352 42.3907C57.1974 42.6565 57.0536 42.9183 56.9198 43.1861C56.8883 43.2491 56.8745 43.3377 56.9532 43.3889C57.0536 43.4558 57.1226 43.3889 57.1757 43.3121C57.2269 43.2373 57.2663 43.1566 57.3096 43.0778C57.8412 42.119 58.4219 41.1957 59.1465 40.3629C59.4024 40.0676 59.5343 39.973 59.8336 40.3235C60.3297 40.9063 60.8199 41.491 61.2964 42.0915C61.5228 42.3789 61.446 42.4832 61.2196 42.688C59.7017 44.0524 58.1896 45.4226 56.8272 46.9465C55.961 47.9151 55.2778 49.0117 54.7482 50.191C54.4115 50.9392 54.2422 51.7641 53.8957 52.5083C53.1751 54.0499 53.1259 55.7351 52.7558 57.3495C52.7499 57.3791 52.7499 57.4086 52.7499 57.4401C52.7991 58.7139 52.8424 59.9877 52.9054 61.2615C52.9271 61.7104 52.994 62.1573 53.1377 62.5865C53.1653 62.6692 53.2027 62.8149 53.3267 62.7893C53.4842 62.7578 53.3996 62.6318 53.3819 62.5353C53.0039 60.3106 52.8326 58.1036 53.4961 55.8788C53.8386 54.731 54.13 53.5773 54.5868 52.4591C55.3369 50.6242 56.0614 48.8109 57.4809 47.3324C58.8511 45.905 60.1761 44.4323 61.574 43.0266C61.7964 42.8042 61.9028 42.8258 62.074 43.0601C62.4107 43.5188 62.7611 43.9697 63.1293 44.4067C63.2888 44.5957 63.273 44.7099 63.0722 44.83C62.7611 45.0171 62.4934 45.2553 62.2256 45.4994C60.434 47.1335 59.2744 49.185 58.3294 51.3684C58.6464 51.1144 58.989 50.7049 59.1898 50.3229C60.1466 48.5058 61.2609 46.8087 62.8163 45.4364C63.2442 45.0597 63.6313 45.0952 63.9779 45.5427C64.0231 45.6018 64.0822 45.651 64.1275 45.7101C64.6945 46.4228 65.3363 47.0705 65.8639 47.8246C67.1555 49.6673 68.3919 51.5436 69.5968 53.4415C69.711 53.6226 69.8921 53.7821 69.7484 54.0479C69.4924 54.5164 69.3526 55.0421 69.1144 55.5127C68.2875 57.1526 68.0296 58.9206 67.8406 60.7142C67.7402 61.6671 67.8741 62.5963 68.0434 63.5217C68.1005 63.8268 68.1379 64.1832 68.4608 64.4352C68.1556 62.6948 68.5474 60.9997 68.6537 59.2868C68.764 57.5188 69.3664 55.9182 69.9984 54.2763C71.0733 55.8178 71.664 57.5503 72.422 59.1903C72.9614 60.3578 73.2429 61.6513 73.5855 62.9015C74.0226 64.5061 74.2273 66.15 74.3199 67.8116C74.3632 68.5795 74.503 69.3434 74.5128 70.1092C74.5286 71.2235 74.6723 72.3182 74.8633 73.4109C74.8731 73.462 74.8928 73.5329 74.9893 73.5172C75.0916 73.3616 75.0739 73.1884 75.0562 73.0092C75.0148 72.5938 74.9676 72.1764 74.942 71.759C74.8121 69.6584 74.753 67.5498 74.5443 65.457C74.2825 62.8365 73.5304 60.344 72.4476 57.9264C71.3962 55.5796 70.2583 53.2978 68.825 51.1636C68.4962 50.6734 68.2127 50.1556 67.8701 49.5866C68.0749 49.6614 68.2265 49.6929 68.3525 49.7658C69.8251 50.6163 71.3844 51.3014 72.8216 52.2228C74.2037 53.1068 75.5346 54.0262 76.6844 55.2095C77.9818 56.5443 78.7516 58.1174 79.0174 59.9483C79.171 61.0056 79.1828 62.0687 79.165 63.1338C79.1631 63.248 79.1079 63.4173 79.2733 63.4272C79.4407 63.437 79.4013 63.2559 79.4151 63.1476C79.5037 62.4821 79.4997 61.8147 79.4781 61.1414C79.3659 57.5366 77.6707 54.861 74.7373 52.8784C73.6702 52.1578 72.5716 51.4963 71.4612 50.8427C70.4906 50.2718 69.5141 49.6969 68.4962 49.248C67.2244 48.6869 66.3975 47.7852 65.7793 46.596C66.9487 46.8146 68.1005 47.0449 69.1085 47.732C69.7799 48.1907 70.5457 48.4782 71.2919 48.7912C71.4277 48.8483 71.6049 49.0334 71.7191 48.8149C71.8431 48.5727 71.5833 48.5195 71.4376 48.4506C70.7859 48.1435 70.1579 47.799 69.5436 47.421C68.7226 46.9169 67.8583 46.5114 66.8857 46.3755C66.3187 46.2968 65.795 46.0527 65.2536 45.8755C65.0469 45.8085 64.8914 45.6983 64.7417 45.5368C64.1629 44.9167 63.8774 44.076 63.277 43.4932C62.0229 42.2785 61.2373 40.6956 59.9655 39.4809C58.9319 38.4925 58.1148 37.2798 57.1363 36.2205C56.8174 35.874 56.5398 35.4921 56.1834 35.0511C59.2528 35.6043 62.2178 36.1044 65.1453 36.8368C68.0769 37.5692 70.8095 38.8686 73.7076 39.7053C73.558 39.5557 73.3886 39.4415 73.2075 39.3588C72.5401 39.0615 71.8648 38.776 71.1954 38.4827C68.9963 37.5199 66.7775 36.6143 64.4189 36.1005C62.6765 35.7205 60.94 35.3051 59.1799 35.0078C58.2192 34.8463 57.2505 34.7203 56.2996 34.4979C56.213 34.4782 56.1165 34.4644 56.0318 34.4821C55.7562 34.5412 55.581 34.4112 55.4176 34.2104C54.7383 33.3717 54.0414 32.5468 53.3031 31.7573C53.248 31.6983 53.1555 31.6431 53.2421 31.4915C53.9902 31.6195 54.758 31.7357 55.518 31.8813C56.589 32.0861 57.5478 32.6039 58.5519 32.9957C58.6917 33.0508 58.8925 33.1965 58.989 33.0036C59.0953 32.7909 58.859 32.7417 58.7153 32.6807C58.2172 32.472 57.723 32.2534 57.2171 32.0684C56.0023 31.6254 54.7699 31.2002 53.4842 31.0879C52.8267 31.0308 52.4231 30.767 52.0116 30.3162C51.3265 29.5641 50.5862 28.8593 49.8262 28.1781C49.21 27.6248 48.6273 27.0342 47.9776 26.4081C48.1803 26.3629 48.2926 26.3313 48.4067 26.3136C49.4581 26.1581 50.5094 26.0065 51.5607 25.8529C52.1376 25.7683 52.7164 25.599 53.2933 25.6108C54.9392 25.6403 56.5811 25.3962 58.2251 25.5399C58.989 25.6068 59.7568 25.4474 60.5128 25.536C62.0918 25.721 63.6786 25.786 65.2615 25.9179C67.4626 26.103 69.6381 26.414 71.8077 26.7901C73.2351 27.0362 74.5423 27.6189 75.8221 28.3001C76.7868 28.814 77.6373 29.4322 78.3559 30.2453C78.602 30.5249 78.8441 30.8084 79.0922 31.084C79.167 31.1667 79.2477 31.3399 79.3678 31.2494C79.5155 31.1372 79.3383 31.021 79.2832 30.9147C79.2477 30.8497 79.1906 30.7966 79.1473 30.7355C78.224 29.4322 76.9738 28.4852 75.702 27.5599C74.7806 26.8905 73.8001 26.4101 72.6543 26.2172C71.1304 25.9632 69.6145 25.6738 68.0808 25.4789C66.5491 25.2859 65.0233 24.9945 63.4876 24.8981C61.8909 24.7957 60.2884 24.7544 58.6818 24.7898C56.8075 24.8292 54.9411 25.0339 53.0649 24.9768C52.7991 24.969 52.5294 25.0457 52.2636 25.0851C50.8835 25.2879 49.5211 25.5931 48.1351 25.7604C47.6389 25.8195 47.255 25.7092 46.8967 25.3292C45.5284 23.8802 44.105 22.4863 42.6047 21.1712C42.3567 20.9546 42.4118 20.8168 42.6481 20.6514C43.2033 20.2655 43.7565 19.8796 44.2979 19.476C46.2785 17.9936 48.4678 16.8812 50.7319 15.9204C52.1415 15.3239 53.6595 15.0384 55.1065 14.5423C55.5022 14.4064 55.8901 14.2332 56.3193 14.2214C57.6856 14.1859 59.0421 14.2489 60.3769 14.5836C60.4793 14.6092 60.5797 14.7451 60.7648 14.6269C60.1958 14.3808 59.6879 14.1584 59.1071 14.1013C58.5007 14.0422 57.8904 14.0186 57.284 13.9182C56.8154 13.8414 56.3173 13.8315 55.8547 13.9713C54.7088 14.3178 53.5551 14.6289 52.4034 14.9557C51.0941 15.3278 49.779 15.7058 48.6194 16.4618C48.015 16.8556 47.2944 16.9954 46.6585 17.332C45.0736 18.1707 43.6265 19.2201 42.1854 20.2734C41.9295 20.4604 41.8113 20.423 41.5967 20.2439C39.7382 18.7063 37.8659 17.1844 36.0644 15.5798C35.3498 14.9439 34.6883 14.247 33.8594 13.7469C33.6409 13.615 33.5976 13.4654 33.8161 13.2547C35.4896 11.6442 37.1394 10.0101 38.8306 8.41739C39.3563 7.92126 40.0256 7.63578 40.7698 7.54916C41.5731 7.45662 42.3705 7.32669 43.1698 7.2125C43.2426 7.20265 43.3194 7.181 43.3273 7.06877C43.2978 7.05106 43.2663 7.01168 43.2308 7.01168C42.1224 6.95852 41.0258 7.10421 39.9646 7.37197C39.2204 7.56097 38.5353 7.96654 37.982 8.54536C37.7005 8.84068 37.3442 9.0415 37.0232 9.28956C35.6746 10.3251 34.4264 11.467 33.3692 12.8019C33.19 13.0283 33.0916 13.0047 32.9164 12.8491C32.5364 12.5144 32.1525 12.1856 31.7469 11.8352C31.932 11.6915 32.0855 11.5753 32.2352 11.4552C33.9716 10.0456 35.8223 8.78949 37.667 7.52947C37.9033 7.36803 38.1573 7.23809 38.4329 7.15146C39.0078 6.97034 39.5551 6.72621 40.0768 6.42105C40.6241 6.10013 41.199 6.04304 41.8133 6.18676C42.6185 6.37379 43.4316 6.52342 44.2349 6.71046C46.3809 7.20856 48.5761 7.51963 50.6098 8.44299C51.7497 8.96274 52.9133 9.43328 54.065 9.92548C53.8012 9.97076 53.5768 9.8861 53.3504 9.81129C52.5668 9.55338 51.7793 9.30925 50.9799 9.10253C49.0525 8.60049 47.068 8.4863 45.1149 8.15751C43.6108 7.90354 42.2248 8.11223 40.9785 9.05725C40.5926 9.35059 40.2855 9.71482 39.9272 10.0298C38.868 10.967 38.0864 12.1482 37.1394 13.1878C36.6866 13.6839 36.7594 13.991 37.3146 14.3769C38.2872 15.0542 39.1909 15.8121 40.0906 16.578C40.5395 16.9599 41.0494 17.1371 41.6282 17.0682C42.9099 16.9147 44.1896 16.7512 45.4398 16.4225C47.4735 15.8889 49.4935 15.3062 51.4584 14.5639C53.9292 13.6288 56.4729 13.2704 59.0933 13.3905C60.5305 13.4555 61.9224 13.7528 63.1844 14.4812C64.3401 15.1467 65.4466 15.8909 66.5255 16.6705C67.4941 17.3694 68.6045 17.8754 69.4393 18.7555C69.8527 19.1906 70.3272 19.5528 70.7879 19.9328C71.0635 20.1612 71.3352 20.3955 71.5833 20.6534C71.5833 20.6534 71.5931 20.6593 71.599 20.6613C71.6167 20.6691 71.6364 20.6711 71.6541 20.679C71.6758 20.6888 71.6916 20.7065 71.6837 20.7479C71.6305 20.7302 71.5774 20.7144 71.5242 20.6967C71.3726 20.6317 71.219 20.5746 71.0714 20.5018C69.5456 19.7635 68.1753 18.7515 66.6495 17.9995C64.9367 17.1568 63.2218 16.3437 61.4106 15.7373C61.1074 15.6369 60.8081 15.5641 60.4892 15.5483C59.2016 15.4774 57.914 15.6527 56.6244 15.5601C55.6066 15.4873 54.6852 15.8259 53.7855 16.2807C52.7282 16.8143 51.6926 17.3832 50.7063 18.0369C49.4305 18.8815 48.139 19.7064 47.507 21.2105C47.4086 21.4448 47.4145 21.5846 47.572 21.7657C48.0327 22.2993 48.4697 22.8545 48.8438 23.455C49.019 23.7345 49.275 23.8586 49.5821 23.9117C50.1452 24.0102 50.7122 24.0574 51.2851 24.0102C52.8542 23.8822 54.4352 23.8979 56.0023 23.894C58.1188 23.8901 60.2253 23.7109 62.3398 23.6932C64.9957 23.6715 67.6437 23.6794 70.2858 24.022C71.4927 24.1775 72.6858 24.4078 73.8887 24.5791C74.7569 24.7032 75.5307 24.9512 76.2532 25.4651C77.4581 26.3215 78.4445 27.4181 79.5627 28.3671C80.3955 29.0739 80.9566 29.8358 80.9862 31.0151C81.0354 32.9563 81.8564 34.7794 82.0001 36.7167C82.004 36.7718 82.0473 36.825 82.071 36.8801C82.4549 37.8172 82.3978 38.8134 82.5435 39.8628C82.3092 39.6679 82.2639 39.473 82.1832 39.3017C81.9174 38.7307 81.6733 38.1401 81.2775 37.6459C80.1376 36.2245 79.1808 34.679 78.222 33.1374C77.4975 31.9719 76.5052 31.2671 75.2117 30.8044C71.5144 29.4814 67.691 28.6171 63.905 27.6248C62.4245 27.237 60.9046 27.0086 59.4221 26.6208C58.9811 26.5046 58.5302 26.4633 58.0833 26.5656C57.1895 26.7704 56.2838 26.8925 55.3802 27.0303C54.8998 27.1031 54.4509 27.2665 54.1024 27.6367C53.7244 28.0403 53.6772 28.2115 54.0217 28.6525C54.9982 29.8968 56.1874 30.9166 57.6462 31.5289C58.9575 32.0802 60.3297 32.4877 61.6803 32.9406C64.3854 33.8442 67.059 34.8306 69.6283 36.069C71.3313 36.8899 72.8807 37.9806 74.4478 39.0359C77.4404 41.048 80.3581 43.1389 82.7502 45.8833C83.3881 46.6157 83.6322 47.4702 83.7523 48.3738C83.7996 48.7302 83.7799 49.1161 83.7425 49.498C83.2562 48.9901 83.0061 48.364 82.7089 47.7694C82.1832 46.7201 81.6752 45.655 80.7539 44.8852C79.6907 43.9972 78.5114 43.2649 77.273 42.6624C75.4224 41.7627 73.4595 41.1248 71.5163 40.4672C68.8663 39.5694 66.0648 39.2741 63.3518 38.6185C63.2789 38.6008 63.2022 38.5929 63.1293 38.5929C62.5603 38.587 62.2493 39.0083 62.4245 39.5498C62.6627 40.2881 62.9226 41.0185 63.214 41.739C63.5683 42.6191 64.096 43.3219 64.9918 43.7177C65.4426 43.9165 65.858 44.1961 66.305 44.4107C69.6932 46.0507 73.1347 47.5785 76.1823 49.8485C77.842 51.0849 79.6021 52.1992 81.0531 53.6876C82.0277 54.6877 82.8683 55.8119 82.9609 57.3042C82.9668 57.4086 82.9943 57.511 83.014 57.6133C83.2542 58.8911 83.1144 60.1649 82.5592 61.3009C81.8564 62.7361 81.0315 64.1221 79.9467 65.327C79.5352 65.7838 79.1355 66.2622 78.8717 66.8194C77.6333 69.4339 76.4324 72.0642 75.6015 74.8461C75.4027 75.5096 75.1625 76.1593 74.94 76.8149C74.5167 75.6021 73.808 74.5882 73.2193 73.5113C71.4021 70.184 72.2231 71.1566 69.2955 68.6996C69.203 68.6228 69.1124 68.544 69.0199 68.4692C67.1574 66.9532 65.106 65.8035 62.7493 65.2463C62.584 65.2069 62.5111 65.1479 62.5446 64.9786C62.7611 63.8406 62.708 62.6731 62.9423 61.5371C63.3262 59.6668 63.8578 57.8319 64.4917 56.0363C64.98 54.6543 65.5923 53.3017 66.6613 52.2346C66.998 51.898 67.057 51.5613 66.8129 51.1498C66.7322 51.014 66.7243 50.8348 66.6849 50.6754C66.5412 50.0788 66.4644 49.4567 66.2459 48.8877C65.7557 47.6119 65.0292 47.4111 64.1432 48.4309C63.3557 49.3366 62.5682 50.2442 61.824 51.1833C60.9302 52.3114 59.9871 53.4179 59.237 54.6405C58.0124 56.6349 57.0221 58.7592 56.3193 61.0036C56.0594 61.8344 55.6204 62.6298 55.5475 63.4902C55.4235 64.9569 55.3054 66.4394 55.5771 67.9593C55.203 67.8431 54.8388 67.723 54.4706 67.6128C53.4311 67.3017 52.4211 66.9237 51.5351 66.276C50.9642 65.8586 50.5704 65.3172 50.5133 64.6006C50.3125 62.1199 50.2357 59.6353 50.3421 57.1467C50.4917 53.6364 51.23 50.254 52.5294 46.9937C53.6102 44.2788 54.8762 41.6701 56.9808 39.5635C57.1501 39.3942 57.2899 39.1895 57.3549 38.9552C57.4415 38.6422 57.2604 38.4453 56.9729 38.4827C56.0082 38.6126 55.073 38.8804 54.1241 39.0773C53.3897 39.2288 52.7243 39.5222 52.1533 40.0006C51.1355 40.8531 50.281 41.867 49.5073 42.9341C48.3536 44.5249 47.3101 46.1924 46.3198 47.8895C45.6229 49.0806 44.6759 50.1162 44.0892 51.3684C42.7288 54.2704 41.3743 57.1763 40.1064 60.1196C40.063 60.22 40.0965 60.4011 39.9252 60.3815C39.6457 60.3519 39.6122 60.5626 39.5393 60.7339C38.8011 62.4526 38.3089 64.2422 38.1356 66.1047C38.0884 66.6146 38.1632 67.1875 38.4309 67.6148C38.7184 68.0755 38.8601 68.5637 39.1121 69.1071C38.7085 69.0028 38.4486 68.8256 38.1809 68.6681C37.7399 68.4101 37.2989 68.1503 36.8126 67.9869C35.2789 67.475 33.7432 66.967 32.2037 66.4729C31.8217 66.3508 31.6485 66.1342 31.6209 65.7287C31.5205 64.2186 31.4083 62.7086 31.2783 61.2005C31.1169 59.3518 30.8708 57.509 31.0637 55.6465C31.361 52.7721 31.9891 49.9666 32.7805 47.1945C33.4342 44.9049 34.3634 42.7234 35.4876 40.6326C36.7831 38.2248 38.614 36.2422 40.634 34.427C41.3349 33.797 41.9944 33.102 42.8863 32.7319C43.3588 32.537 43.8136 32.3105 44.2152 32.0014C44.8708 31.4974 45.5638 31.0486 46.2529 30.5957C46.6841 30.3122 46.6703 29.9598 46.2116 29.7078C45.6505 29.4007 45.0441 29.3928 44.4652 29.5976C41.8625 30.5209 39.246 31.3911 36.7712 32.6531C33.5523 34.2951 30.4514 36.1103 27.6144 38.3488C26.0591 39.5754 24.5963 40.9082 23.2063 42.3218C22.9858 42.5462 22.6393 42.7195 22.5487 42.9853C22.1373 44.1882 21.6628 45.3675 21.5073 46.6551C21.2789 48.5451 21.1726 50.4489 20.8635 52.3331C20.6351 53.7211 20.4992 55.1307 20.4244 56.5364C20.3476 57.9815 20.3969 59.4345 20.391 60.8835C20.3851 60.9209 20.3792 60.9583 20.3713 60.9937C20.3417 60.976 20.3122 60.9583 20.2827 60.9406C19.9401 60.659 19.7275 60.2732 19.4715 59.9208C18.4045 58.452 17.5284 56.8436 16.3235 55.4772C15.0339 54.0164 14.4216 52.2504 14.0259 50.4096C13.6853 48.8306 13.4353 47.232 13.3821 45.6038C13.3171 43.6212 13.26 41.6445 13.5435 39.6758C13.6518 38.9296 13.8802 38.2169 14.3173 37.5829C15.0851 36.4726 15.8372 35.3503 16.5991 34.234C17.7843 32.5015 18.9459 30.7513 20.1035 29.001C21.4384 26.983 23.1 25.217 24.6593 23.3742C24.9467 23.0336 25.2952 22.7777 25.6909 22.5907C26.4666 22.2264 27.1892 21.7677 27.9216 21.3247C28.7799 20.8069 29.6344 20.3325 30.6916 20.4486C30.9358 20.4762 31.2055 20.425 31.2646 20.1316C31.3236 19.8304 31.1149 19.667 30.857 19.5686C30.4495 19.413 30.0301 19.291 29.6344 19.1079C27.1222 17.9522 24.5864 18.2416 22.0802 19.0567C20.3831 19.608 18.8533 20.5805 17.172 21.1948C16.92 21.2873 16.6837 21.431 16.4593 21.5787C15.8982 21.9449 15.2898 22.1831 14.6441 22.3465C14.1046 22.4824 13.5632 22.6478 13.1596 23.0612C12.2323 24.0121 11.372 25.03 10.868 26.2664C9.75166 29.003 8.59205 31.7298 8.06244 34.6632C8.03488 34.8207 8.03291 34.996 7.86557 35.1712C7.85375 34.9546 7.84588 34.7932 7.838 34.6298C7.8006 33.8954 7.82225 33.1532 7.61159 32.4405C7.12333 30.7887 7.20209 29.005 6.42638 27.4221C6.4126 27.3965 6.4067 27.365 6.40473 27.3354C6.36142 25.9277 5.95388 24.5476 6.08185 23.1281C6.16454 22.2008 6.42048 21.3621 7.30643 20.8542L7.28871 20.8581ZM32.9931 13.806L32.9774 13.8237L32.9656 13.804H32.9931V13.806Z"/>
</mask>
<path d="M5.16046 22.4863C4.98917 23.3545 4.93405 24.2385 5.09942 25.1245C5.17424 25.5222 5.24118 25.9258 5.24905 26.3274C5.2648 27.1799 5.42034 27.993 5.76881 28.7746C5.87709 29.0187 5.96372 29.2845 5.99719 29.5483C6.29054 31.8794 6.91858 34.1671 6.8162 36.5474C6.78864 37.1715 6.89102 37.8035 6.95205 38.4315C6.97174 38.6382 7.02293 38.8508 7.11152 39.0359C7.22177 39.2663 7.39699 39.4887 7.68837 39.4592C7.98172 39.4297 8.18648 39.2407 8.25538 38.9513C8.31445 38.7052 8.35973 38.4472 8.3617 38.1952C8.36564 37.6164 8.47195 37.0612 8.66095 36.5178C9.2634 34.7833 9.43665 32.9386 10.0352 31.2002C10.5825 29.6094 11.1613 28.0324 11.7933 26.4751C12.2146 25.4356 12.9293 24.5752 13.6636 23.7385C13.9885 23.3683 14.4452 23.2423 14.8922 23.1222C15.5497 22.947 16.1699 22.695 16.7507 22.3367C17.3019 21.9961 17.8847 21.7165 18.5009 21.5157C19.8338 21.0786 20.9875 20.2262 22.3342 19.8403C24.3679 19.2595 26.4253 18.846 28.524 19.5568C28.6382 19.5961 28.7524 19.6316 28.8646 19.6729C28.9355 19.6985 29.0024 19.73 29.1265 19.7832C28.6146 20.0726 28.146 20.3502 27.6656 20.6061C26.8053 21.0668 25.9843 21.5945 25.1003 22.0118C24.7026 22.1989 24.3718 22.4883 24.0844 22.819C22.4306 24.7209 20.6646 26.54 19.2786 28.6486C17.6721 31.0938 15.8962 33.4229 14.3192 35.8878C14.2385 36.0138 14.1716 36.1516 14.0751 36.2658C13.012 37.5318 12.6202 39.0418 12.5276 40.6444C12.3839 43.0995 12.3741 45.5605 12.6359 48.0037C12.8131 49.6516 13.1892 51.2758 13.6853 52.8666C14.0613 54.0656 14.7327 55.0953 15.5261 56.0423C16.6601 57.3928 17.5579 58.9049 18.562 60.346C19.1526 61.1926 19.8574 61.921 20.5603 62.6593C20.7631 62.872 21.0328 62.9645 21.3005 62.8286C21.5821 62.6849 21.6136 62.3837 21.5447 62.116C21.1076 60.4425 21.3183 58.7415 21.3498 57.0562C21.3813 55.3335 21.651 53.6207 21.8774 51.9098C22.1196 50.0808 22.279 48.24 22.5015 46.409C22.6433 45.2356 23.1315 44.1587 23.5095 43.0522C23.545 42.9459 23.6454 42.8593 23.7281 42.7746C25.7638 40.67 27.9353 38.7091 30.3609 37.073C32.1072 35.8957 33.9401 34.8404 35.8203 33.8679C37.3934 33.0547 38.9487 32.2141 40.5986 31.5723C40.9864 31.4207 41.3762 31.275 41.766 31.1352C41.9137 31.082 42.0594 31.0308 42.207 30.9816C43.2407 30.6331 44.294 30.3496 45.3906 30.2236C45.4595 30.1941 45.5304 30.1646 45.5835 30.2394C45.5875 30.2453 45.5126 30.3083 45.4752 30.3457C44.4396 30.9954 43.5399 31.8617 42.3547 32.2751C42.148 32.348 41.959 32.4917 41.7798 32.6275C38.9723 34.7853 36.5173 37.2699 34.7493 40.3688C33.3003 42.9105 32.2371 45.6254 31.5382 48.4546C31.0322 50.5021 30.5873 52.5733 30.288 54.67C29.975 56.8495 30.1738 59.021 30.4199 61.1867C30.5204 62.0805 30.5676 62.9763 30.6227 63.8741C30.668 64.6202 30.735 65.3664 30.8295 66.1067C30.9299 66.8962 31.5677 67.1206 32.2056 67.347C33.698 67.8746 35.2474 68.233 36.7063 68.8492C37.6414 69.2449 38.5569 69.6977 39.3937 70.2884C39.5512 70.3986 39.7244 70.4852 39.8898 70.3573C40.0749 70.2136 40.0749 70.0029 40.004 69.7844C39.748 68.985 39.5059 68.1818 39.2499 67.3824C39.1417 67.0458 39.1082 66.6953 39.1692 66.3587C39.5078 64.4667 39.8288 62.5589 40.5415 60.7713C41.2975 58.8793 42.0929 57.0011 43.0024 55.1721C43.3037 54.5676 43.5813 53.9514 43.8352 53.3273C44.8629 50.8132 46.6703 48.7834 48.0622 46.4956C48.6213 45.5742 49.2829 44.7139 49.8715 43.8102C50.5488 42.7727 51.4032 41.8867 52.2301 40.9771C52.807 40.3412 53.5413 39.9475 54.3879 39.7644C54.5297 39.7329 54.6714 39.7014 54.8132 39.6659C55.2384 39.5635 55.6597 39.4513 56.085 39.345C56.1224 39.3509 56.1578 39.3549 56.1953 39.3608C56.1775 39.3923 56.1598 39.4238 56.1421 39.4553C56.1244 39.4809 56.1106 39.5064 56.0929 39.532C56.0771 39.5576 56.0594 39.5813 56.0397 39.6029C54.2324 41.5166 53.1968 43.8752 52.2045 46.2613C51.1926 48.6967 50.5626 51.2463 50.0054 53.8097C49.5486 55.9084 49.4482 58.0465 49.3852 60.1944C49.34 61.7104 49.4837 63.2047 49.5742 64.7069C49.6294 65.6105 50.0861 66.3626 50.8165 66.9198C51.7734 67.6502 52.8739 68.0853 54.0158 68.4318C54.8624 68.6897 55.7168 68.9279 56.4729 69.4182C56.7406 69.5914 57.0497 69.678 57.2997 69.4182C57.5321 69.174 57.4198 68.8807 57.2781 68.6247C57.1344 68.3629 57.0084 68.0715 56.8056 67.8609C56.3882 67.4297 56.3252 66.9217 56.3547 66.3666C56.4079 65.394 56.2425 64.3938 56.5024 63.4508C57.2663 60.6787 58.2802 57.9933 59.7076 55.4949C60.7057 53.7467 62.0012 52.1972 63.3026 50.6596C63.8164 50.0532 64.3086 49.4291 64.8087 48.8089C65.0489 48.5117 65.2339 48.5491 65.4092 48.8739C65.6946 49.4114 65.7222 50.0217 65.9073 50.5868C66.1278 51.2542 66.0411 51.7641 65.5312 52.3646C64.5961 53.4651 64.033 54.8196 63.5939 56.1958C62.9816 58.1095 62.3516 60.0231 62.0662 62.0234C61.9106 63.12 61.889 64.2324 61.6744 65.3251C61.6035 65.6854 61.7886 65.9511 62.1902 65.9551C62.9305 65.961 63.5979 66.2307 64.2633 66.5044C66.0293 67.2269 67.5768 68.2861 69.0711 69.4713C70.463 70.5758 71.5892 71.8201 72.3531 73.4463C72.9949 74.8126 73.8867 76.0589 74.3376 77.5236C74.3455 77.5512 74.3612 77.5788 74.373 77.6063C74.4872 77.8623 74.6211 78.0966 74.9538 78.0867C75.2984 78.0769 75.385 77.8131 75.4696 77.5492C75.8614 76.3345 76.2591 75.1237 76.647 73.907C77.2986 71.8575 78.2141 69.9163 79.0863 67.9573C79.4761 67.0832 79.9939 66.3055 80.6318 65.5968C81.7067 64.4037 82.508 63.0137 83.1951 61.5863C83.7759 60.3775 83.8547 59.0309 83.7228 57.6665C83.4905 55.2528 82.134 53.5321 80.368 52.0791C77.9562 50.0926 75.4007 48.2912 72.7035 46.7142C70.6816 45.5329 68.4942 44.6666 66.4034 43.6133C66.175 43.4991 65.9624 43.3475 65.7242 43.2629C64.4799 42.8219 63.8912 41.8434 63.5329 40.6602C63.4246 40.3018 63.2947 39.9494 63.1628 39.597C63.0742 39.3588 63.147 39.2938 63.3833 39.3489C63.8066 39.4474 64.2299 39.5557 64.659 39.6344C66.683 40.0026 68.7266 40.2999 70.6934 40.8984C72.9024 41.5697 75.0857 42.3435 77.1766 43.3259C78.2161 43.8141 79.1769 44.4757 80.1101 45.1588C81.0787 45.8676 81.6063 46.9051 82.1162 47.9387C82.5415 48.8011 82.9825 49.6457 83.5672 50.4115C83.8862 50.827 84.1264 51.2916 84.3134 51.7838C84.3843 51.9688 84.4729 52.213 84.7485 52.1441C85.0438 52.0693 85.0143 51.8251 84.9769 51.5928C84.8942 51.0888 84.7859 50.5907 84.6284 50.1044C84.4414 49.5315 84.3922 48.9448 84.341 48.3443C84.2504 47.295 83.9177 46.3106 83.1853 45.4797C80.9842 42.9794 78.409 40.9338 75.6449 39.1009C74.2195 38.1559 72.8295 37.1597 71.3588 36.2816C69.4412 35.1377 67.374 34.3305 65.3009 33.5312C62.8635 32.5901 60.3395 31.8912 57.9061 30.9442C56.5575 30.4185 55.4904 29.4538 54.5592 28.3474C54.4174 28.1781 54.4923 28.0816 54.6045 27.9733C54.8683 27.7174 55.2168 27.6583 55.5554 27.6071C56.4158 27.4772 57.2741 27.3551 58.1227 27.1543C58.4416 27.0795 58.7744 27.0893 59.1051 27.1641C60.7589 27.5382 62.4284 27.8591 64.0684 28.2844C67.6398 29.2117 71.2466 30.0208 74.7274 31.271C75.2491 31.4581 75.7787 31.6353 76.2827 31.8636C76.9423 32.1629 77.3026 32.785 77.6904 33.3442C78.3992 34.3679 78.9977 35.4724 79.7557 36.4568C80.6771 37.6499 81.4981 38.8863 82.1064 40.2664C82.2127 40.5086 82.4116 40.7094 82.571 40.9259C82.6577 41.0421 82.764 41.1149 82.9195 41.048C83.0947 40.9732 83.1203 40.8216 83.079 40.6739C82.7443 39.4749 82.7108 38.2149 82.3486 37.0199C82.3092 36.8919 82.258 36.7541 82.2738 36.6281C82.4332 35.2716 82.1517 33.9742 81.7678 32.6905C81.5552 31.9778 81.5138 31.2356 81.5059 30.5091C81.4981 29.7807 81.2283 29.1881 80.7558 28.7372C79.2379 27.2882 77.8105 25.7348 76.0229 24.5929C75.637 24.3468 75.2354 24.148 74.7845 24.083C73.7135 23.9314 72.6622 23.6755 71.5951 23.5022C69.0672 23.0907 66.5176 22.947 63.97 22.9529C62.1587 22.9588 60.3415 22.9982 58.5283 23.1006C56.524 23.2128 54.5119 23.1774 52.5018 23.1793C51.7655 23.1793 51.039 23.2975 50.2987 23.2581C49.5112 23.2167 48.9068 22.9411 48.5367 22.2264C48.517 22.1871 48.4875 22.1516 48.4619 22.1142C47.9697 21.372 47.9559 21.3602 48.5721 20.675C49.5112 19.6296 50.6393 18.8204 51.8167 18.0625C53.2421 17.145 54.8329 16.6607 56.4335 16.198C57.4887 15.8929 58.5814 16.0405 59.6603 16.0326C61.5247 16.0189 63.088 16.8851 64.6945 17.6726C66.7676 18.6885 68.7581 19.8481 70.7662 20.9802C71.3765 21.3247 72.0302 21.5984 72.6661 21.8996C72.8157 21.9705 72.9732 22.0237 73.1288 22.0768C73.3197 22.1437 73.5284 22.1969 73.6485 21.9784C73.7627 21.7716 73.5816 21.6437 73.4536 21.5275C72.8492 20.9861 72.2527 20.4388 71.6285 19.923C70.9001 19.3205 70.1894 18.7003 69.5082 18.0447C68.6911 17.2592 67.6496 16.7828 66.746 16.1114C65.673 15.314 64.5547 14.5817 63.401 13.9083C62.0524 13.1208 60.5541 12.796 59.0067 12.733C56.5122 12.6306 54.0749 12.8964 51.7005 13.7489C49.6392 14.4891 47.5326 15.0975 45.4162 15.6704C44.1817 16.0051 42.9158 16.1626 41.6538 16.3536C41.1478 16.4303 40.7108 16.2807 40.3269 15.9401C39.5275 15.2353 38.7085 14.5521 37.8108 13.9733C37.541 13.8 37.5036 13.6445 37.7281 13.4142C38.8385 12.2742 39.7598 10.9571 40.9766 9.91367C42.1165 8.93715 43.4159 8.54339 44.9043 8.81509C45.9536 9.00606 47.0207 9.06709 48.078 9.19703C49.9621 9.42738 51.797 9.86051 53.5906 10.4807C55.0908 10.9985 56.5752 11.5537 58.0262 12.1955C58.227 12.2841 58.4672 12.414 58.6149 12.1246C58.735 11.8864 58.5381 11.7446 58.3688 11.6679C56.8075 10.963 55.4963 9.84082 53.9312 9.11828C50.85 7.69485 47.7196 6.4683 44.353 5.9131C43.5242 5.77528 42.7052 5.5725 41.8861 5.38547C41.1833 5.22599 40.5139 5.27915 39.8819 5.64141C39.2677 5.99382 38.6219 6.27339 37.9545 6.50767C36.9957 6.84236 36.2475 7.496 35.4994 8.14767C35.397 8.23626 35.2986 8.33273 35.1824 8.39967C33.9736 9.09859 32.9459 10.0436 31.8276 10.8666C31.6386 11.0063 31.4752 10.9827 31.2823 10.9473C30.2349 10.7543 29.2347 10.3606 28.1618 10.2562C25.1633 9.96485 22.2337 10.1125 19.4243 11.3666C18.4419 11.8057 17.3354 11.9297 16.3983 12.5066C14.2011 13.8552 12.0374 15.2392 10.0785 16.9383C9.1118 17.777 8.19041 18.6393 7.39503 19.6375C7.19421 19.8895 6.93236 20.0706 6.66658 20.2321C5.80819 20.7518 5.3534 21.5452 5.16833 22.4883L5.16046 22.4863ZM83.7267 49.5531C83.7622 49.5354 83.7917 49.5118 83.8015 49.5177C83.8291 49.5374 83.8488 49.5689 83.8724 49.5945C83.8507 49.6043 83.8232 49.628 83.8094 49.6221C83.7799 49.6083 83.7582 49.5787 83.7287 49.5531H83.7267ZM7.28871 20.8581C7.58403 20.6888 7.83997 20.4447 8.05063 20.1691C9.3894 18.4247 11.1633 17.1667 12.884 15.8535C13.5258 15.3633 14.2464 14.9734 14.9079 14.5068C16.0655 13.6898 17.2468 12.9279 18.6407 12.5696C19.2235 12.4199 19.7728 12.1758 20.3339 11.9592C22.029 11.3056 23.7891 10.9532 25.6082 10.9709C26.2816 10.9788 26.9569 11.0221 27.6302 11.0674C29.1225 11.1697 30.5873 11.3745 31.7075 12.542C32.0914 12.9436 32.5206 13.3019 32.9282 13.6799C32.6742 13.7489 32.4813 13.7429 32.2962 13.6977C29.091 12.9102 25.9469 13.5382 22.8008 14.1013C22.5665 14.1426 22.3381 14.2332 22.1136 14.3159C21.4639 14.5541 20.8024 14.747 20.1409 14.9439C19.2353 15.2136 18.3316 15.4952 17.5461 16.0563C15.8135 17.2927 14.0121 18.4346 12.4686 19.9249C11.8701 20.5038 11.1436 20.9507 10.6278 21.622C10.0706 22.3485 9.53116 23.0888 8.99368 23.829C8.90902 23.9452 8.78892 24.0751 8.84996 24.3193C8.98187 24.1578 9.07637 24.0476 9.1689 23.9314C10.2813 22.5355 11.4527 21.1968 12.8584 20.0824C14.3881 18.8677 16.0104 17.7888 17.6721 16.765C18.1741 16.4559 18.686 16.1862 19.2491 16.0071C20.1783 15.7117 21.1115 15.4322 22.027 15.0975C22.9327 14.7667 23.8501 14.497 24.8148 14.4616C25.8366 14.4241 26.7875 14.0245 27.8192 13.9831C29.7427 13.9083 31.6426 13.9694 33.5267 14.3789C33.8318 14.4458 34.0799 14.5698 34.3103 14.7805C35.8302 16.1646 37.4505 17.4324 39.0452 18.7299C40.4647 19.8875 41.8212 21.118 43.1363 22.3918C43.2151 22.4686 43.3706 22.5414 43.3115 22.6753C43.2603 22.7895 43.1028 22.7521 42.9887 22.7757C42.0771 22.9588 41.1144 22.8879 40.2343 23.1045C38.5313 23.5239 36.7693 23.6853 35.1076 24.2779C34.6705 24.4334 34.2158 24.5417 33.761 24.6461C30.7645 25.3273 28.3212 26.8925 26.3879 29.2648C24.2262 31.9188 22.0506 34.5589 19.9303 37.2463C18.3651 39.2288 17.2921 41.4398 17.0224 44.0071C16.918 45.0033 16.8294 45.9719 17.1149 46.9445C17.2232 47.3127 17.2645 47.7005 17.3846 48.0628C17.5303 48.5018 17.4142 48.9704 17.5658 49.4626C17.737 48.9704 17.7725 48.5294 17.737 48.0746C17.6288 46.6472 17.4614 45.2494 17.737 43.7905C18.1761 41.4733 19.0601 39.3942 20.4874 37.5574C22.4306 35.0609 24.4545 32.6255 26.5493 30.2512C27.9964 28.6112 29.6246 27.2232 31.6229 26.292C32.816 25.7348 34.1154 25.5123 35.334 25.0516C36.9563 24.4374 38.7046 24.3133 40.3229 23.703C40.4726 23.6459 40.6478 23.644 40.8112 23.64C41.768 23.6262 42.6796 23.4215 43.5478 23.0218C43.6403 22.9785 43.721 22.9628 43.7939 23.0356C44.4633 23.6932 45.1287 24.3508 45.8552 25.0674C45.3158 25.2052 44.8807 25.3155 44.4475 25.4277C42.4315 25.9455 40.5316 26.7527 38.7321 27.7843C38.2459 28.0639 37.8068 28.4222 37.2752 28.6289C37.1414 28.6801 37.0292 28.7943 36.915 28.8908C36.6767 29.0916 36.468 29.3416 36.2023 29.4932C35.3557 29.9736 34.8261 30.834 33.9795 31.3084C33.9165 31.3439 33.8633 31.4207 33.9342 31.4955C33.9953 31.5604 34.0681 31.5388 34.137 31.4955C34.3477 31.3517 34.576 31.2297 34.769 31.0643C35.8577 30.135 36.9642 29.2786 38.2498 28.5797C39.7638 27.7548 41.3762 27.2153 42.9296 26.5184C43.5183 26.2546 44.1483 26.1128 44.7901 26.0124C45.174 25.9514 45.5599 25.8687 45.9221 25.7309C46.184 25.6324 46.3277 25.6797 46.501 25.8785C46.8927 26.3294 47.2629 26.794 47.7078 27.2075C48.5229 27.9694 49.3321 28.747 50.096 29.6684C49.1864 29.883 48.5682 30.4126 48.0327 31.0801C47.4224 31.84 46.8179 32.6019 46.2923 33.4249C46.2411 33.5056 46.1466 33.6158 46.2746 33.6966C46.3651 33.7517 46.434 33.6513 46.4951 33.5883C46.5561 33.5233 46.6211 33.4583 46.6742 33.3875C47.3318 32.5133 48.1095 31.7514 48.8714 30.9718C49.275 30.5564 49.7829 30.3536 50.2948 30.137C50.4779 30.0583 50.5744 30.1508 50.6768 30.265C51.2201 30.8655 51.7576 31.4718 52.3089 32.0664C52.4979 32.2712 52.4841 32.3755 52.2419 32.5429C50.0723 34.0234 48.1981 35.8484 46.4045 37.7404C44.3077 39.9553 42.4787 42.3986 40.7324 44.9009C39.687 46.3972 38.679 47.9151 38.0057 49.6201C37.73 50.319 37.2615 50.9254 37.0784 51.6617C36.7988 52.782 36.2889 53.8215 35.966 54.9319C35.5033 56.5187 34.9993 58.0858 34.9383 59.7495C34.9068 60.5941 34.8635 61.4544 35.1923 62.3227C35.2828 60.5114 35.271 58.7611 35.7711 57.0326C36.0467 56.0816 36.3873 55.1563 36.6826 54.2152C37.0449 53.0615 37.5312 51.9472 38.0746 50.8644C38.2695 50.4765 38.4723 50.0926 38.6514 49.6969C39.1298 48.6436 39.7028 47.6375 40.382 46.7083C41.3624 45.3655 42.2897 43.9874 43.3096 42.6722C44.3117 41.3788 45.3473 40.1148 46.3848 38.8528C47.4539 37.5534 48.7316 36.4489 49.8912 35.2322C50.6886 34.3955 51.608 33.6926 52.5491 33.0193C52.807 32.8342 52.9802 32.8205 53.2303 33.0784C54.0434 33.919 54.8486 34.7656 55.6302 35.6378C56.7505 36.886 57.9002 38.1066 58.9831 39.3923C59.1898 39.6384 59.1799 39.7781 58.9771 39.9829C58.2841 40.6857 57.7841 41.5205 57.3352 42.3907C57.1974 42.6565 57.0536 42.9183 56.9198 43.1861C56.8883 43.2491 56.8745 43.3377 56.9532 43.3889C57.0536 43.4558 57.1226 43.3889 57.1757 43.3121C57.2269 43.2373 57.2663 43.1566 57.3096 43.0778C57.8412 42.119 58.4219 41.1957 59.1465 40.3629C59.4024 40.0676 59.5343 39.973 59.8336 40.3235C60.3297 40.9063 60.8199 41.491 61.2964 42.0915C61.5228 42.3789 61.446 42.4832 61.2196 42.688C59.7017 44.0524 58.1896 45.4226 56.8272 46.9465C55.961 47.9151 55.2778 49.0117 54.7482 50.191C54.4115 50.9392 54.2422 51.7641 53.8957 52.5083C53.1751 54.0499 53.1259 55.7351 52.7558 57.3495C52.7499 57.3791 52.7499 57.4086 52.7499 57.4401C52.7991 58.7139 52.8424 59.9877 52.9054 61.2615C52.9271 61.7104 52.994 62.1573 53.1377 62.5865C53.1653 62.6692 53.2027 62.8149 53.3267 62.7893C53.4842 62.7578 53.3996 62.6318 53.3819 62.5353C53.0039 60.3106 52.8326 58.1036 53.4961 55.8788C53.8386 54.731 54.13 53.5773 54.5868 52.4591C55.3369 50.6242 56.0614 48.8109 57.4809 47.3324C58.8511 45.905 60.1761 44.4323 61.574 43.0266C61.7964 42.8042 61.9028 42.8258 62.074 43.0601C62.4107 43.5188 62.7611 43.9697 63.1293 44.4067C63.2888 44.5957 63.273 44.7099 63.0722 44.83C62.7611 45.0171 62.4934 45.2553 62.2256 45.4994C60.434 47.1335 59.2744 49.185 58.3294 51.3684C58.6464 51.1144 58.989 50.7049 59.1898 50.3229C60.1466 48.5058 61.2609 46.8087 62.8163 45.4364C63.2442 45.0597 63.6313 45.0952 63.9779 45.5427C64.0231 45.6018 64.0822 45.651 64.1275 45.7101C64.6945 46.4228 65.3363 47.0705 65.8639 47.8246C67.1555 49.6673 68.3919 51.5436 69.5968 53.4415C69.711 53.6226 69.8921 53.7821 69.7484 54.0479C69.4924 54.5164 69.3526 55.0421 69.1144 55.5127C68.2875 57.1526 68.0296 58.9206 67.8406 60.7142C67.7402 61.6671 67.8741 62.5963 68.0434 63.5217C68.1005 63.8268 68.1379 64.1832 68.4608 64.4352C68.1556 62.6948 68.5474 60.9997 68.6537 59.2868C68.764 57.5188 69.3664 55.9182 69.9984 54.2763C71.0733 55.8178 71.664 57.5503 72.422 59.1903C72.9614 60.3578 73.2429 61.6513 73.5855 62.9015C74.0226 64.5061 74.2273 66.15 74.3199 67.8116C74.3632 68.5795 74.503 69.3434 74.5128 70.1092C74.5286 71.2235 74.6723 72.3182 74.8633 73.4109C74.8731 73.462 74.8928 73.5329 74.9893 73.5172C75.0916 73.3616 75.0739 73.1884 75.0562 73.0092C75.0148 72.5938 74.9676 72.1764 74.942 71.759C74.8121 69.6584 74.753 67.5498 74.5443 65.457C74.2825 62.8365 73.5304 60.344 72.4476 57.9264C71.3962 55.5796 70.2583 53.2978 68.825 51.1636C68.4962 50.6734 68.2127 50.1556 67.8701 49.5866C68.0749 49.6614 68.2265 49.6929 68.3525 49.7658C69.8251 50.6163 71.3844 51.3014 72.8216 52.2228C74.2037 53.1068 75.5346 54.0262 76.6844 55.2095C77.9818 56.5443 78.7516 58.1174 79.0174 59.9483C79.171 61.0056 79.1828 62.0687 79.165 63.1338C79.1631 63.248 79.1079 63.4173 79.2733 63.4272C79.4407 63.437 79.4013 63.2559 79.4151 63.1476C79.5037 62.4821 79.4997 61.8147 79.4781 61.1414C79.3659 57.5366 77.6707 54.861 74.7373 52.8784C73.6702 52.1578 72.5716 51.4963 71.4612 50.8427C70.4906 50.2718 69.5141 49.6969 68.4962 49.248C67.2244 48.6869 66.3975 47.7852 65.7793 46.596C66.9487 46.8146 68.1005 47.0449 69.1085 47.732C69.7799 48.1907 70.5457 48.4782 71.2919 48.7912C71.4277 48.8483 71.6049 49.0334 71.7191 48.8149C71.8431 48.5727 71.5833 48.5195 71.4376 48.4506C70.7859 48.1435 70.1579 47.799 69.5436 47.421C68.7226 46.9169 67.8583 46.5114 66.8857 46.3755C66.3187 46.2968 65.795 46.0527 65.2536 45.8755C65.0469 45.8085 64.8914 45.6983 64.7417 45.5368C64.1629 44.9167 63.8774 44.076 63.277 43.4932C62.0229 42.2785 61.2373 40.6956 59.9655 39.4809C58.9319 38.4925 58.1148 37.2798 57.1363 36.2205C56.8174 35.874 56.5398 35.4921 56.1834 35.0511C59.2528 35.6043 62.2178 36.1044 65.1453 36.8368C68.0769 37.5692 70.8095 38.8686 73.7076 39.7053C73.558 39.5557 73.3886 39.4415 73.2075 39.3588C72.5401 39.0615 71.8648 38.776 71.1954 38.4827C68.9963 37.5199 66.7775 36.6143 64.4189 36.1005C62.6765 35.7205 60.94 35.3051 59.1799 35.0078C58.2192 34.8463 57.2505 34.7203 56.2996 34.4979C56.213 34.4782 56.1165 34.4644 56.0318 34.4821C55.7562 34.5412 55.581 34.4112 55.4176 34.2104C54.7383 33.3717 54.0414 32.5468 53.3031 31.7573C53.248 31.6983 53.1555 31.6431 53.2421 31.4915C53.9902 31.6195 54.758 31.7357 55.518 31.8813C56.589 32.0861 57.5478 32.6039 58.5519 32.9957C58.6917 33.0508 58.8925 33.1965 58.989 33.0036C59.0953 32.7909 58.859 32.7417 58.7153 32.6807C58.2172 32.472 57.723 32.2534 57.2171 32.0684C56.0023 31.6254 54.7699 31.2002 53.4842 31.0879C52.8267 31.0308 52.4231 30.767 52.0116 30.3162C51.3265 29.5641 50.5862 28.8593 49.8262 28.1781C49.21 27.6248 48.6273 27.0342 47.9776 26.4081C48.1803 26.3629 48.2926 26.3313 48.4067 26.3136C49.4581 26.1581 50.5094 26.0065 51.5607 25.8529C52.1376 25.7683 52.7164 25.599 53.2933 25.6108C54.9392 25.6403 56.5811 25.3962 58.2251 25.5399C58.989 25.6068 59.7568 25.4474 60.5128 25.536C62.0918 25.721 63.6786 25.786 65.2615 25.9179C67.4626 26.103 69.6381 26.414 71.8077 26.7901C73.2351 27.0362 74.5423 27.6189 75.8221 28.3001C76.7868 28.814 77.6373 29.4322 78.3559 30.2453C78.602 30.5249 78.8441 30.8084 79.0922 31.084C79.167 31.1667 79.2477 31.3399 79.3678 31.2494C79.5155 31.1372 79.3383 31.021 79.2832 30.9147C79.2477 30.8497 79.1906 30.7966 79.1473 30.7355C78.224 29.4322 76.9738 28.4852 75.702 27.5599C74.7806 26.8905 73.8001 26.4101 72.6543 26.2172C71.1304 25.9632 69.6145 25.6738 68.0808 25.4789C66.5491 25.2859 65.0233 24.9945 63.4876 24.8981C61.8909 24.7957 60.2884 24.7544 58.6818 24.7898C56.8075 24.8292 54.9411 25.0339 53.0649 24.9768C52.7991 24.969 52.5294 25.0457 52.2636 25.0851C50.8835 25.2879 49.5211 25.5931 48.1351 25.7604C47.6389 25.8195 47.255 25.7092 46.8967 25.3292C45.5284 23.8802 44.105 22.4863 42.6047 21.1712C42.3567 20.9546 42.4118 20.8168 42.6481 20.6514C43.2033 20.2655 43.7565 19.8796 44.2979 19.476C46.2785 17.9936 48.4678 16.8812 50.7319 15.9204C52.1415 15.3239 53.6595 15.0384 55.1065 14.5423C55.5022 14.4064 55.8901 14.2332 56.3193 14.2214C57.6856 14.1859 59.0421 14.2489 60.3769 14.5836C60.4793 14.6092 60.5797 14.7451 60.7648 14.6269C60.1958 14.3808 59.6879 14.1584 59.1071 14.1013C58.5007 14.0422 57.8904 14.0186 57.284 13.9182C56.8154 13.8414 56.3173 13.8315 55.8547 13.9713C54.7088 14.3178 53.5551 14.6289 52.4034 14.9557C51.0941 15.3278 49.779 15.7058 48.6194 16.4618C48.015 16.8556 47.2944 16.9954 46.6585 17.332C45.0736 18.1707 43.6265 19.2201 42.1854 20.2734C41.9295 20.4604 41.8113 20.423 41.5967 20.2439C39.7382 18.7063 37.8659 17.1844 36.0644 15.5798C35.3498 14.9439 34.6883 14.247 33.8594 13.7469C33.6409 13.615 33.5976 13.4654 33.8161 13.2547C35.4896 11.6442 37.1394 10.0101 38.8306 8.41739C39.3563 7.92126 40.0256 7.63578 40.7698 7.54916C41.5731 7.45662 42.3705 7.32669 43.1698 7.2125C43.2426 7.20265 43.3194 7.181 43.3273 7.06877C43.2978 7.05106 43.2663 7.01168 43.2308 7.01168C42.1224 6.95852 41.0258 7.10421 39.9646 7.37197C39.2204 7.56097 38.5353 7.96654 37.982 8.54536C37.7005 8.84068 37.3442 9.0415 37.0232 9.28956C35.6746 10.3251 34.4264 11.467 33.3692 12.8019C33.19 13.0283 33.0916 13.0047 32.9164 12.8491C32.5364 12.5144 32.1525 12.1856 31.7469 11.8352C31.932 11.6915 32.0855 11.5753 32.2352 11.4552C33.9716 10.0456 35.8223 8.78949 37.667 7.52947C37.9033 7.36803 38.1573 7.23809 38.4329 7.15146C39.0078 6.97034 39.5551 6.72621 40.0768 6.42105C40.6241 6.10013 41.199 6.04304 41.8133 6.18676C42.6185 6.37379 43.4316 6.52342 44.2349 6.71046C46.3809 7.20856 48.5761 7.51963 50.6098 8.44299C51.7497 8.96274 52.9133 9.43328 54.065 9.92548C53.8012 9.97076 53.5768 9.8861 53.3504 9.81129C52.5668 9.55338 51.7793 9.30925 50.9799 9.10253C49.0525 8.60049 47.068 8.4863 45.1149 8.15751C43.6108 7.90354 42.2248 8.11223 40.9785 9.05725C40.5926 9.35059 40.2855 9.71482 39.9272 10.0298C38.868 10.967 38.0864 12.1482 37.1394 13.1878C36.6866 13.6839 36.7594 13.991 37.3146 14.3769C38.2872 15.0542 39.1909 15.8121 40.0906 16.578C40.5395 16.9599 41.0494 17.1371 41.6282 17.0682C42.9099 16.9147 44.1896 16.7512 45.4398 16.4225C47.4735 15.8889 49.4935 15.3062 51.4584 14.5639C53.9292 13.6288 56.4729 13.2704 59.0933 13.3905C60.5305 13.4555 61.9224 13.7528 63.1844 14.4812C64.3401 15.1467 65.4466 15.8909 66.5255 16.6705C67.4941 17.3694 68.6045 17.8754 69.4393 18.7555C69.8527 19.1906 70.3272 19.5528 70.7879 19.9328C71.0635 20.1612 71.3352 20.3955 71.5833 20.6534C71.5833 20.6534 71.5931 20.6593 71.599 20.6613C71.6167 20.6691 71.6364 20.6711 71.6541 20.679C71.6758 20.6888 71.6916 20.7065 71.6837 20.7479C71.6305 20.7302 71.5774 20.7144 71.5242 20.6967C71.3726 20.6317 71.219 20.5746 71.0714 20.5018C69.5456 19.7635 68.1753 18.7515 66.6495 17.9995C64.9367 17.1568 63.2218 16.3437 61.4106 15.7373C61.1074 15.6369 60.8081 15.5641 60.4892 15.5483C59.2016 15.4774 57.914 15.6527 56.6244 15.5601C55.6066 15.4873 54.6852 15.8259 53.7855 16.2807C52.7282 16.8143 51.6926 17.3832 50.7063 18.0369C49.4305 18.8815 48.139 19.7064 47.507 21.2105C47.4086 21.4448 47.4145 21.5846 47.572 21.7657C48.0327 22.2993 48.4697 22.8545 48.8438 23.455C49.019 23.7345 49.275 23.8586 49.5821 23.9117C50.1452 24.0102 50.7122 24.0574 51.2851 24.0102C52.8542 23.8822 54.4352 23.8979 56.0023 23.894C58.1188 23.8901 60.2253 23.7109 62.3398 23.6932C64.9957 23.6715 67.6437 23.6794 70.2858 24.022C71.4927 24.1775 72.6858 24.4078 73.8887 24.5791C74.7569 24.7032 75.5307 24.9512 76.2532 25.4651C77.4581 26.3215 78.4445 27.4181 79.5627 28.3671C80.3955 29.0739 80.9566 29.8358 80.9862 31.0151C81.0354 32.9563 81.8564 34.7794 82.0001 36.7167C82.004 36.7718 82.0473 36.825 82.071 36.8801C82.4549 37.8172 82.3978 38.8134 82.5435 39.8628C82.3092 39.6679 82.2639 39.473 82.1832 39.3017C81.9174 38.7307 81.6733 38.1401 81.2775 37.6459C80.1376 36.2245 79.1808 34.679 78.222 33.1374C77.4975 31.9719 76.5052 31.2671 75.2117 30.8044C71.5144 29.4814 67.691 28.6171 63.905 27.6248C62.4245 27.237 60.9046 27.0086 59.4221 26.6208C58.9811 26.5046 58.5302 26.4633 58.0833 26.5656C57.1895 26.7704 56.2838 26.8925 55.3802 27.0303C54.8998 27.1031 54.4509 27.2665 54.1024 27.6367C53.7244 28.0403 53.6772 28.2115 54.0217 28.6525C54.9982 29.8968 56.1874 30.9166 57.6462 31.5289C58.9575 32.0802 60.3297 32.4877 61.6803 32.9406C64.3854 33.8442 67.059 34.8306 69.6283 36.069C71.3313 36.8899 72.8807 37.9806 74.4478 39.0359C77.4404 41.048 80.3581 43.1389 82.7502 45.8833C83.3881 46.6157 83.6322 47.4702 83.7523 48.3738C83.7996 48.7302 83.7799 49.1161 83.7425 49.498C83.2562 48.9901 83.0061 48.364 82.7089 47.7694C82.1832 46.7201 81.6752 45.655 80.7539 44.8852C79.6907 43.9972 78.5114 43.2649 77.273 42.6624C75.4224 41.7627 73.4595 41.1248 71.5163 40.4672C68.8663 39.5694 66.0648 39.2741 63.3518 38.6185C63.2789 38.6008 63.2022 38.5929 63.1293 38.5929C62.5603 38.587 62.2493 39.0083 62.4245 39.5498C62.6627 40.2881 62.9226 41.0185 63.214 41.739C63.5683 42.6191 64.096 43.3219 64.9918 43.7177C65.4426 43.9165 65.858 44.1961 66.305 44.4107C69.6932 46.0507 73.1347 47.5785 76.1823 49.8485C77.842 51.0849 79.6021 52.1992 81.0531 53.6876C82.0277 54.6877 82.8683 55.8119 82.9609 57.3042C82.9668 57.4086 82.9943 57.511 83.014 57.6133C83.2542 58.8911 83.1144 60.1649 82.5592 61.3009C81.8564 62.7361 81.0315 64.1221 79.9467 65.327C79.5352 65.7838 79.1355 66.2622 78.8717 66.8194C77.6333 69.4339 76.4324 72.0642 75.6015 74.8461C75.4027 75.5096 75.1625 76.1593 74.94 76.8149C74.5167 75.6021 73.808 74.5882 73.2193 73.5113C71.4021 70.184 72.2231 71.1566 69.2955 68.6996C69.203 68.6228 69.1124 68.544 69.0199 68.4692C67.1574 66.9532 65.106 65.8035 62.7493 65.2463C62.584 65.2069 62.5111 65.1479 62.5446 64.9786C62.7611 63.8406 62.708 62.6731 62.9423 61.5371C63.3262 59.6668 63.8578 57.8319 64.4917 56.0363C64.98 54.6543 65.5923 53.3017 66.6613 52.2346C66.998 51.898 67.057 51.5613 66.8129 51.1498C66.7322 51.014 66.7243 50.8348 66.6849 50.6754C66.5412 50.0788 66.4644 49.4567 66.2459 48.8877C65.7557 47.6119 65.0292 47.4111 64.1432 48.4309C63.3557 49.3366 62.5682 50.2442 61.824 51.1833C60.9302 52.3114 59.9871 53.4179 59.237 54.6405C58.0124 56.6349 57.0221 58.7592 56.3193 61.0036C56.0594 61.8344 55.6204 62.6298 55.5475 63.4902C55.4235 64.9569 55.3054 66.4394 55.5771 67.9593C55.203 67.8431 54.8388 67.723 54.4706 67.6128C53.4311 67.3017 52.4211 66.9237 51.5351 66.276C50.9642 65.8586 50.5704 65.3172 50.5133 64.6006C50.3125 62.1199 50.2357 59.6353 50.3421 57.1467C50.4917 53.6364 51.23 50.254 52.5294 46.9937C53.6102 44.2788 54.8762 41.6701 56.9808 39.5635C57.1501 39.3942 57.2899 39.1895 57.3549 38.9552C57.4415 38.6422 57.2604 38.4453 56.9729 38.4827C56.0082 38.6126 55.073 38.8804 54.1241 39.0773C53.3897 39.2288 52.7243 39.5222 52.1533 40.0006C51.1355 40.8531 50.281 41.867 49.5073 42.9341C48.3536 44.5249 47.3101 46.1924 46.3198 47.8895C45.6229 49.0806 44.6759 50.1162 44.0892 51.3684C42.7288 54.2704 41.3743 57.1763 40.1064 60.1196C40.063 60.22 40.0965 60.4011 39.9252 60.3815C39.6457 60.3519 39.6122 60.5626 39.5393 60.7339C38.8011 62.4526 38.3089 64.2422 38.1356 66.1047C38.0884 66.6146 38.1632 67.1875 38.4309 67.6148C38.7184 68.0755 38.8601 68.5637 39.1121 69.1071C38.7085 69.0028 38.4486 68.8256 38.1809 68.6681C37.7399 68.4101 37.2989 68.1503 36.8126 67.9869C35.2789 67.475 33.7432 66.967 32.2037 66.4729C31.8217 66.3508 31.6485 66.1342 31.6209 65.7287C31.5205 64.2186 31.4083 62.7086 31.2783 61.2005C31.1169 59.3518 30.8708 57.509 31.0637 55.6465C31.361 52.7721 31.9891 49.9666 32.7805 47.1945C33.4342 44.9049 34.3634 42.7234 35.4876 40.6326C36.7831 38.2248 38.614 36.2422 40.634 34.427C41.3349 33.797 41.9944 33.102 42.8863 32.7319C43.3588 32.537 43.8136 32.3105 44.2152 32.0014C44.8708 31.4974 45.5638 31.0486 46.2529 30.5957C46.6841 30.3122 46.6703 29.9598 46.2116 29.7078C45.6505 29.4007 45.0441 29.3928 44.4652 29.5976C41.8625 30.5209 39.246 31.3911 36.7712 32.6531C33.5523 34.2951 30.4514 36.1103 27.6144 38.3488C26.0591 39.5754 24.5963 40.9082 23.2063 42.3218C22.9858 42.5462 22.6393 42.7195 22.5487 42.9853C22.1373 44.1882 21.6628 45.3675 21.5073 46.6551C21.2789 48.5451 21.1726 50.4489 20.8635 52.3331C20.6351 53.7211 20.4992 55.1307 20.4244 56.5364C20.3476 57.9815 20.3969 59.4345 20.391 60.8835C20.3851 60.9209 20.3792 60.9583 20.3713 60.9937C20.3417 60.976 20.3122 60.9583 20.2827 60.9406C19.9401 60.659 19.7275 60.2732 19.4715 59.9208C18.4045 58.452 17.5284 56.8436 16.3235 55.4772C15.0339 54.0164 14.4216 52.2504 14.0259 50.4096C13.6853 48.8306 13.4353 47.232 13.3821 45.6038C13.3171 43.6212 13.26 41.6445 13.5435 39.6758C13.6518 38.9296 13.8802 38.2169 14.3173 37.5829C15.0851 36.4726 15.8372 35.3503 16.5991 34.234C17.7843 32.5015 18.9459 30.7513 20.1035 29.001C21.4384 26.983 23.1 25.217 24.6593 23.3742C24.9467 23.0336 25.2952 22.7777 25.6909 22.5907C26.4666 22.2264 27.1892 21.7677 27.9216 21.3247C28.7799 20.8069 29.6344 20.3325 30.6916 20.4486C30.9358 20.4762 31.2055 20.425 31.2646 20.1316C31.3236 19.8304 31.1149 19.667 30.857 19.5686C30.4495 19.413 30.0301 19.291 29.6344 19.1079C27.1222 17.9522 24.5864 18.2416 22.0802 19.0567C20.3831 19.608 18.8533 20.5805 17.172 21.1948C16.92 21.2873 16.6837 21.431 16.4593 21.5787C15.8982 21.9449 15.2898 22.1831 14.6441 22.3465C14.1046 22.4824 13.5632 22.6478 13.1596 23.0612C12.2323 24.0121 11.372 25.03 10.868 26.2664C9.75166 29.003 8.59205 31.7298 8.06244 34.6632C8.03488 34.8207 8.03291 34.996 7.86557 35.1712C7.85375 34.9546 7.84588 34.7932 7.838 34.6298C7.8006 33.8954 7.82225 33.1532 7.61159 32.4405C7.12333 30.7887 7.20209 29.005 6.42638 27.4221C6.4126 27.3965 6.4067 27.365 6.40473 27.3354C6.36142 25.9277 5.95388 24.5476 6.08185 23.1281C6.16454 22.2008 6.42048 21.3621 7.30643 20.8542L7.28871 20.8581ZM32.9931 13.806L32.9774 13.8237L32.9656 13.804H32.9931V13.806Z" fill="#046F61"/>
<path d="M5.16046 22.4863C4.98917 23.3545 4.93405 24.2385 5.09942 25.1245C5.17424 25.5222 5.24118 25.9258 5.24905 26.3274C5.2648 27.1799 5.42034 27.993 5.76881 28.7746C5.87709 29.0187 5.96372 29.2845 5.99719 29.5483C6.29054 31.8794 6.91858 34.1671 6.8162 36.5474C6.78864 37.1715 6.89102 37.8035 6.95205 38.4315C6.97174 38.6382 7.02293 38.8508 7.11152 39.0359C7.22177 39.2663 7.39699 39.4887 7.68837 39.4592C7.98172 39.4297 8.18648 39.2407 8.25538 38.9513C8.31445 38.7052 8.35973 38.4472 8.3617 38.1952C8.36564 37.6164 8.47195 37.0612 8.66095 36.5178C9.2634 34.7833 9.43665 32.9386 10.0352 31.2002C10.5825 29.6094 11.1613 28.0324 11.7933 26.4751C12.2146 25.4356 12.9293 24.5752 13.6636 23.7385C13.9885 23.3683 14.4452 23.2423 14.8922 23.1222C15.5497 22.947 16.1699 22.695 16.7507 22.3367C17.3019 21.9961 17.8847 21.7165 18.5009 21.5157C19.8338 21.0786 20.9875 20.2262 22.3342 19.8403C24.3679 19.2595 26.4253 18.846 28.524 19.5568C28.6382 19.5961 28.7524 19.6316 28.8646 19.6729C28.9355 19.6985 29.0024 19.73 29.1265 19.7832C28.6146 20.0726 28.146 20.3502 27.6656 20.6061C26.8053 21.0668 25.9843 21.5945 25.1003 22.0118C24.7026 22.1989 24.3718 22.4883 24.0844 22.819C22.4306 24.7209 20.6646 26.54 19.2786 28.6486C17.6721 31.0938 15.8962 33.4229 14.3192 35.8878C14.2385 36.0138 14.1716 36.1516 14.0751 36.2658C13.012 37.5318 12.6202 39.0418 12.5276 40.6444C12.3839 43.0995 12.3741 45.5605 12.6359 48.0037C12.8131 49.6516 13.1892 51.2758 13.6853 52.8666C14.0613 54.0656 14.7327 55.0953 15.5261 56.0423C16.6601 57.3928 17.5579 58.9049 18.562 60.346C19.1526 61.1926 19.8574 61.921 20.5603 62.6593C20.7631 62.872 21.0328 62.9645 21.3005 62.8286C21.5821 62.6849 21.6136 62.3837 21.5447 62.116C21.1076 60.4425 21.3183 58.7415 21.3498 57.0562C21.3813 55.3335 21.651 53.6207 21.8774 51.9098C22.1196 50.0808 22.279 48.24 22.5015 46.409C22.6433 45.2356 23.1315 44.1587 23.5095 43.0522C23.545 42.9459 23.6454 42.8593 23.7281 42.7746C25.7638 40.67 27.9353 38.7091 30.3609 37.073C32.1072 35.8957 33.9401 34.8404 35.8203 33.8679C37.3934 33.0547 38.9487 32.2141 40.5986 31.5723C40.9864 31.4207 41.3762 31.275 41.766 31.1352C41.9137 31.082 42.0594 31.0308 42.207 30.9816C43.2407 30.6331 44.294 30.3496 45.3906 30.2236C45.4595 30.1941 45.5304 30.1646 45.5835 30.2394C45.5875 30.2453 45.5126 30.3083 45.4752 30.3457C44.4396 30.9954 43.5399 31.8617 42.3547 32.2751C42.148 32.348 41.959 32.4917 41.7798 32.6275C38.9723 34.7853 36.5173 37.2699 34.7493 40.3688C33.3003 42.9105 32.2371 45.6254 31.5382 48.4546C31.0322 50.5021 30.5873 52.5733 30.288 54.67C29.975 56.8495 30.1738 59.021 30.4199 61.1867C30.5204 62.0805 30.5676 62.9763 30.6227 63.8741C30.668 64.6202 30.735 65.3664 30.8295 66.1067C30.9299 66.8962 31.5677 67.1206 32.2056 67.347C33.698 67.8746 35.2474 68.233 36.7063 68.8492C37.6414 69.2449 38.5569 69.6977 39.3937 70.2884C39.5512 70.3986 39.7244 70.4852 39.8898 70.3573C40.0749 70.2136 40.0749 70.0029 40.004 69.7844C39.748 68.985 39.5059 68.1818 39.2499 67.3824C39.1417 67.0458 39.1082 66.6953 39.1692 66.3587C39.5078 64.4667 39.8288 62.5589 40.5415 60.7713C41.2975 58.8793 42.0929 57.0011 43.0024 55.1721C43.3037 54.5676 43.5813 53.9514 43.8352 53.3273C44.8629 50.8132 46.6703 48.7834 48.0622 46.4956C48.6213 45.5742 49.2829 44.7139 49.8715 43.8102C50.5488 42.7727 51.4032 41.8867 52.2301 40.9771C52.807 40.3412 53.5413 39.9475 54.3879 39.7644C54.5297 39.7329 54.6714 39.7014 54.8132 39.6659C55.2384 39.5635 55.6597 39.4513 56.085 39.345C56.1224 39.3509 56.1578 39.3549 56.1953 39.3608C56.1775 39.3923 56.1598 39.4238 56.1421 39.4553C56.1244 39.4809 56.1106 39.5064 56.0929 39.532C56.0771 39.5576 56.0594 39.5813 56.0397 39.6029C54.2324 41.5166 53.1968 43.8752 52.2045 46.2613C51.1926 48.6967 50.5626 51.2463 50.0054 53.8097C49.5486 55.9084 49.4482 58.0465 49.3852 60.1944C49.34 61.7104 49.4837 63.2047 49.5742 64.7069C49.6294 65.6105 50.0861 66.3626 50.8165 66.9198C51.7734 67.6502 52.8739 68.0853 54.0158 68.4318C54.8624 68.6897 55.7168 68.9279 56.4729 69.4182C56.7406 69.5914 57.0497 69.678 57.2997 69.4182C57.5321 69.174 57.4198 68.8807 57.2781 68.6247C57.1344 68.3629 57.0084 68.0715 56.8056 67.8609C56.3882 67.4297 56.3252 66.9217 56.3547 66.3666C56.4079 65.394 56.2425 64.3938 56.5024 63.4508C57.2663 60.6787 58.2802 57.9933 59.7076 55.4949C60.7057 53.7467 62.0012 52.1972 63.3026 50.6596C63.8164 50.0532 64.3086 49.4291 64.8087 48.8089C65.0489 48.5117 65.2339 48.5491 65.4092 48.8739C65.6946 49.4114 65.7222 50.0217 65.9073 50.5868C66.1278 51.2542 66.0411 51.7641 65.5312 52.3646C64.5961 53.4651 64.033 54.8196 63.5939 56.1958C62.9816 58.1095 62.3516 60.0231 62.0662 62.0234C61.9106 63.12 61.889 64.2324 61.6744 65.3251C61.6035 65.6854 61.7886 65.9511 62.1902 65.9551C62.9305 65.961 63.5979 66.2307 64.2633 66.5044C66.0293 67.2269 67.5768 68.2861 69.0711 69.4713C70.463 70.5758 71.5892 71.8201 72.3531 73.4463C72.9949 74.8126 73.8867 76.0589 74.3376 77.5236C74.3455 77.5512 74.3612 77.5788 74.373 77.6063C74.4872 77.8623 74.6211 78.0966 74.9538 78.0867C75.2984 78.0769 75.385 77.8131 75.4696 77.5492C75.8614 76.3345 76.2591 75.1237 76.647 73.907C77.2986 71.8575 78.2141 69.9163 79.0863 67.9573C79.4761 67.0832 79.9939 66.3055 80.6318 65.5968C81.7067 64.4037 82.508 63.0137 83.1951 61.5863C83.7759 60.3775 83.8547 59.0309 83.7228 57.6665C83.4905 55.2528 82.134 53.5321 80.368 52.0791C77.9562 50.0926 75.4007 48.2912 72.7035 46.7142C70.6816 45.5329 68.4942 44.6666 66.4034 43.6133C66.175 43.4991 65.9624 43.3475 65.7242 43.2629C64.4799 42.8219 63.8912 41.8434 63.5329 40.6602C63.4246 40.3018 63.2947 39.9494 63.1628 39.597C63.0742 39.3588 63.147 39.2938 63.3833 39.3489C63.8066 39.4474 64.2299 39.5557 64.659 39.6344C66.683 40.0026 68.7266 40.2999 70.6934 40.8984C72.9024 41.5697 75.0857 42.3435 77.1766 43.3259C78.2161 43.8141 79.1769 44.4757 80.1101 45.1588C81.0787 45.8676 81.6063 46.9051 82.1162 47.9387C82.5415 48.8011 82.9825 49.6457 83.5672 50.4115C83.8862 50.827 84.1264 51.2916 84.3134 51.7838C84.3843 51.9688 84.4729 52.213 84.7485 52.1441C85.0438 52.0693 85.0143 51.8251 84.9769 51.5928C84.8942 51.0888 84.7859 50.5907 84.6284 50.1044C84.4414 49.5315 84.3922 48.9448 84.341 48.3443C84.2504 47.295 83.9177 46.3106 83.1853 45.4797C80.9842 42.9794 78.409 40.9338 75.6449 39.1009C74.2195 38.1559 72.8295 37.1597 71.3588 36.2816C69.4412 35.1377 67.374 34.3305 65.3009 33.5312C62.8635 32.5901 60.3395 31.8912 57.9061 30.9442C56.5575 30.4185 55.4904 29.4538 54.5592 28.3474C54.4174 28.1781 54.4923 28.0816 54.6045 27.9733C54.8683 27.7174 55.2168 27.6583 55.5554 27.6071C56.4158 27.4772 57.2741 27.3551 58.1227 27.1543C58.4416 27.0795 58.7744 27.0893 59.1051 27.1641C60.7589 27.5382 62.4284 27.8591 64.0684 28.2844C67.6398 29.2117 71.2466 30.0208 74.7274 31.271C75.2491 31.4581 75.7787 31.6353 76.2827 31.8636C76.9423 32.1629 77.3026 32.785 77.6904 33.3442C78.3992 34.3679 78.9977 35.4724 79.7557 36.4568C80.6771 37.6499 81.4981 38.8863 82.1064 40.2664C82.2127 40.5086 82.4116 40.7094 82.571 40.9259C82.6577 41.0421 82.764 41.1149 82.9195 41.048C83.0947 40.9732 83.1203 40.8216 83.079 40.6739C82.7443 39.4749 82.7108 38.2149 82.3486 37.0199C82.3092 36.8919 82.258 36.7541 82.2738 36.6281C82.4332 35.2716 82.1517 33.9742 81.7678 32.6905C81.5552 31.9778 81.5138 31.2356 81.5059 30.5091C81.4981 29.7807 81.2283 29.1881 80.7558 28.7372C79.2379 27.2882 77.8105 25.7348 76.0229 24.5929C75.637 24.3468 75.2354 24.148 74.7845 24.083C73.7135 23.9314 72.6622 23.6755 71.5951 23.5022C69.0672 23.0907 66.5176 22.947 63.97 22.9529C62.1587 22.9588 60.3415 22.9982 58.5283 23.1006C56.524 23.2128 54.5119 23.1774 52.5018 23.1793C51.7655 23.1793 51.039 23.2975 50.2987 23.2581C49.5112 23.2167 48.9068 22.9411 48.5367 22.2264C48.517 22.1871 48.4875 22.1516 48.4619 22.1142C47.9697 21.372 47.9559 21.3602 48.5721 20.675C49.5112 19.6296 50.6393 18.8204 51.8167 18.0625C53.2421 17.145 54.8329 16.6607 56.4335 16.198C57.4887 15.8929 58.5814 16.0405 59.6603 16.0326C61.5247 16.0189 63.088 16.8851 64.6945 17.6726C66.7676 18.6885 68.7581 19.8481 70.7662 20.9802C71.3765 21.3247 72.0302 21.5984 72.6661 21.8996C72.8157 21.9705 72.9732 22.0237 73.1288 22.0768C73.3197 22.1437 73.5284 22.1969 73.6485 21.9784C73.7627 21.7716 73.5816 21.6437 73.4536 21.5275C72.8492 20.9861 72.2527 20.4388 71.6285 19.923C70.9001 19.3205 70.1894 18.7003 69.5082 18.0447C68.6911 17.2592 67.6496 16.7828 66.746 16.1114C65.673 15.314 64.5547 14.5817 63.401 13.9083C62.0524 13.1208 60.5541 12.796 59.0067 12.733C56.5122 12.6306 54.0749 12.8964 51.7005 13.7489C49.6392 14.4891 47.5326 15.0975 45.4162 15.6704C44.1817 16.0051 42.9158 16.1626 41.6538 16.3536C41.1478 16.4303 40.7108 16.2807 40.3269 15.9401C39.5275 15.2353 38.7085 14.5521 37.8108 13.9733C37.541 13.8 37.5036 13.6445 37.7281 13.4142C38.8385 12.2742 39.7598 10.9571 40.9766 9.91367C42.1165 8.93715 43.4159 8.54339 44.9043 8.81509C45.9536 9.00606 47.0207 9.06709 48.078 9.19703C49.9621 9.42738 51.797 9.86051 53.5906 10.4807C55.0908 10.9985 56.5752 11.5537 58.0262 12.1955C58.227 12.2841 58.4672 12.414 58.6149 12.1246C58.735 11.8864 58.5381 11.7446 58.3688 11.6679C56.8075 10.963 55.4963 9.84082 53.9312 9.11828C50.85 7.69485 47.7196 6.4683 44.353 5.9131C43.5242 5.77528 42.7052 5.5725 41.8861 5.38547C41.1833 5.22599 40.5139 5.27915 39.8819 5.64141C39.2677 5.99382 38.6219 6.27339 37.9545 6.50767C36.9957 6.84236 36.2475 7.496 35.4994 8.14767C35.397 8.23626 35.2986 8.33273 35.1824 8.39967C33.9736 9.09859 32.9459 10.0436 31.8276 10.8666C31.6386 11.0063 31.4752 10.9827 31.2823 10.9473C30.2349 10.7543 29.2347 10.3606 28.1618 10.2562C25.1633 9.96485 22.2337 10.1125 19.4243 11.3666C18.4419 11.8057 17.3354 11.9297 16.3983 12.5066C14.2011 13.8552 12.0374 15.2392 10.0785 16.9383C9.1118 17.777 8.19041 18.6393 7.39503 19.6375C7.19421 19.8895 6.93236 20.0706 6.66658 20.2321C5.80819 20.7518 5.3534 21.5452 5.16833 22.4883L5.16046 22.4863ZM83.7267 49.5531C83.7622 49.5354 83.7917 49.5118 83.8015 49.5177C83.8291 49.5374 83.8488 49.5689 83.8724 49.5945C83.8507 49.6043 83.8232 49.628 83.8094 49.6221C83.7799 49.6083 83.7582 49.5787 83.7287 49.5531H83.7267ZM7.28871 20.8581C7.58403 20.6888 7.83997 20.4447 8.05063 20.1691C9.3894 18.4247 11.1633 17.1667 12.884 15.8535C13.5258 15.3633 14.2464 14.9734 14.9079 14.5068C16.0655 13.6898 17.2468 12.9279 18.6407 12.5696C19.2235 12.4199 19.7728 12.1758 20.3339 11.9592C22.029 11.3056 23.7891 10.9532 25.6082 10.9709C26.2816 10.9788 26.9569 11.0221 27.6302 11.0674C29.1225 11.1697 30.5873 11.3745 31.7075 12.542C32.0914 12.9436 32.5206 13.3019 32.9282 13.6799C32.6742 13.7489 32.4813 13.7429 32.2962 13.6977C29.091 12.9102 25.9469 13.5382 22.8008 14.1013C22.5665 14.1426 22.3381 14.2332 22.1136 14.3159C21.4639 14.5541 20.8024 14.747 20.1409 14.9439C19.2353 15.2136 18.3316 15.4952 17.5461 16.0563C15.8135 17.2927 14.0121 18.4346 12.4686 19.9249C11.8701 20.5038 11.1436 20.9507 10.6278 21.622C10.0706 22.3485 9.53116 23.0888 8.99368 23.829C8.90902 23.9452 8.78892 24.0751 8.84996 24.3193C8.98187 24.1578 9.07637 24.0476 9.1689 23.9314C10.2813 22.5355 11.4527 21.1968 12.8584 20.0824C14.3881 18.8677 16.0104 17.7888 17.6721 16.765C18.1741 16.4559 18.686 16.1862 19.2491 16.0071C20.1783 15.7117 21.1115 15.4322 22.027 15.0975C22.9327 14.7667 23.8501 14.497 24.8148 14.4616C25.8366 14.4241 26.7875 14.0245 27.8192 13.9831C29.7427 13.9083 31.6426 13.9694 33.5267 14.3789C33.8318 14.4458 34.0799 14.5698 34.3103 14.7805C35.8302 16.1646 37.4505 17.4324 39.0452 18.7299C40.4647 19.8875 41.8212 21.118 43.1363 22.3918C43.2151 22.4686 43.3706 22.5414 43.3115 22.6753C43.2603 22.7895 43.1028 22.7521 42.9887 22.7757C42.0771 22.9588 41.1144 22.8879 40.2343 23.1045C38.5313 23.5239 36.7693 23.6853 35.1076 24.2779C34.6705 24.4334 34.2158 24.5417 33.761 24.6461C30.7645 25.3273 28.3212 26.8925 26.3879 29.2648C24.2262 31.9188 22.0506 34.5589 19.9303 37.2463C18.3651 39.2288 17.2921 41.4398 17.0224 44.0071C16.918 45.0033 16.8294 45.9719 17.1149 46.9445C17.2232 47.3127 17.2645 47.7005 17.3846 48.0628C17.5303 48.5018 17.4142 48.9704 17.5658 49.4626C17.737 48.9704 17.7725 48.5294 17.737 48.0746C17.6288 46.6472 17.4614 45.2494 17.737 43.7905C18.1761 41.4733 19.0601 39.3942 20.4874 37.5574C22.4306 35.0609 24.4545 32.6255 26.5493 30.2512C27.9964 28.6112 29.6246 27.2232 31.6229 26.292C32.816 25.7348 34.1154 25.5123 35.334 25.0516C36.9563 24.4374 38.7046 24.3133 40.3229 23.703C40.4726 23.6459 40.6478 23.644 40.8112 23.64C41.768 23.6262 42.6796 23.4215 43.5478 23.0218C43.6403 22.9785 43.721 22.9628 43.7939 23.0356C44.4633 23.6932 45.1287 24.3508 45.8552 25.0674C45.3158 25.2052 44.8807 25.3155 44.4475 25.4277C42.4315 25.9455 40.5316 26.7527 38.7321 27.7843C38.2459 28.0639 37.8068 28.4222 37.2752 28.6289C37.1414 28.6801 37.0292 28.7943 36.915 28.8908C36.6767 29.0916 36.468 29.3416 36.2023 29.4932C35.3557 29.9736 34.8261 30.834 33.9795 31.3084C33.9165 31.3439 33.8633 31.4207 33.9342 31.4955C33.9953 31.5604 34.0681 31.5388 34.137 31.4955C34.3477 31.3517 34.576 31.2297 34.769 31.0643C35.8577 30.135 36.9642 29.2786 38.2498 28.5797C39.7638 27.7548 41.3762 27.2153 42.9296 26.5184C43.5183 26.2546 44.1483 26.1128 44.7901 26.0124C45.174 25.9514 45.5599 25.8687 45.9221 25.7309C46.184 25.6324 46.3277 25.6797 46.501 25.8785C46.8927 26.3294 47.2629 26.794 47.7078 27.2075C48.5229 27.9694 49.3321 28.747 50.096 29.6684C49.1864 29.883 48.5682 30.4126 48.0327 31.0801C47.4224 31.84 46.8179 32.6019 46.2923 33.4249C46.2411 33.5056 46.1466 33.6158 46.2746 33.6966C46.3651 33.7517 46.434 33.6513 46.4951 33.5883C46.5561 33.5233 46.6211 33.4583 46.6742 33.3875C47.3318 32.5133 48.1095 31.7514 48.8714 30.9718C49.275 30.5564 49.7829 30.3536 50.2948 30.137C50.4779 30.0583 50.5744 30.1508 50.6768 30.265C51.2201 30.8655 51.7576 31.4718 52.3089 32.0664C52.4979 32.2712 52.4841 32.3755 52.2419 32.5429C50.0723 34.0234 48.1981 35.8484 46.4045 37.7404C44.3077 39.9553 42.4787 42.3986 40.7324 44.9009C39.687 46.3972 38.679 47.9151 38.0057 49.6201C37.73 50.319 37.2615 50.9254 37.0784 51.6617C36.7988 52.782 36.2889 53.8215 35.966 54.9319C35.5033 56.5187 34.9993 58.0858 34.9383 59.7495C34.9068 60.5941 34.8635 61.4544 35.1923 62.3227C35.2828 60.5114 35.271 58.7611 35.7711 57.0326C36.0467 56.0816 36.3873 55.1563 36.6826 54.2152C37.0449 53.0615 37.5312 51.9472 38.0746 50.8644C38.2695 50.4765 38.4723 50.0926 38.6514 49.6969C39.1298 48.6436 39.7028 47.6375 40.382 46.7083C41.3624 45.3655 42.2897 43.9874 43.3096 42.6722C44.3117 41.3788 45.3473 40.1148 46.3848 38.8528C47.4539 37.5534 48.7316 36.4489 49.8912 35.2322C50.6886 34.3955 51.608 33.6926 52.5491 33.0193C52.807 32.8342 52.9802 32.8205 53.2303 33.0784C54.0434 33.919 54.8486 34.7656 55.6302 35.6378C56.7505 36.886 57.9002 38.1066 58.9831 39.3923C59.1898 39.6384 59.1799 39.7781 58.9771 39.9829C58.2841 40.6857 57.7841 41.5205 57.3352 42.3907C57.1974 42.6565 57.0536 42.9183 56.9198 43.1861C56.8883 43.2491 56.8745 43.3377 56.9532 43.3889C57.0536 43.4558 57.1226 43.3889 57.1757 43.3121C57.2269 43.2373 57.2663 43.1566 57.3096 43.0778C57.8412 42.119 58.4219 41.1957 59.1465 40.3629C59.4024 40.0676 59.5343 39.973 59.8336 40.3235C60.3297 40.9063 60.8199 41.491 61.2964 42.0915C61.5228 42.3789 61.446 42.4832 61.2196 42.688C59.7017 44.0524 58.1896 45.4226 56.8272 46.9465C55.961 47.9151 55.2778 49.0117 54.7482 50.191C54.4115 50.9392 54.2422 51.7641 53.8957 52.5083C53.1751 54.0499 53.1259 55.7351 52.7558 57.3495C52.7499 57.3791 52.7499 57.4086 52.7499 57.4401C52.7991 58.7139 52.8424 59.9877 52.9054 61.2615C52.9271 61.7104 52.994 62.1573 53.1377 62.5865C53.1653 62.6692 53.2027 62.8149 53.3267 62.7893C53.4842 62.7578 53.3996 62.6318 53.3819 62.5353C53.0039 60.3106 52.8326 58.1036 53.4961 55.8788C53.8386 54.731 54.13 53.5773 54.5868 52.4591C55.3369 50.6242 56.0614 48.8109 57.4809 47.3324C58.8511 45.905 60.1761 44.4323 61.574 43.0266C61.7964 42.8042 61.9028 42.8258 62.074 43.0601C62.4107 43.5188 62.7611 43.9697 63.1293 44.4067C63.2888 44.5957 63.273 44.7099 63.0722 44.83C62.7611 45.0171 62.4934 45.2553 62.2256 45.4994C60.434 47.1335 59.2744 49.185 58.3294 51.3684C58.6464 51.1144 58.989 50.7049 59.1898 50.3229C60.1466 48.5058 61.2609 46.8087 62.8163 45.4364C63.2442 45.0597 63.6313 45.0952 63.9779 45.5427C64.0231 45.6018 64.0822 45.651 64.1275 45.7101C64.6945 46.4228 65.3363 47.0705 65.8639 47.8246C67.1555 49.6673 68.3919 51.5436 69.5968 53.4415C69.711 53.6226 69.8921 53.7821 69.7484 54.0479C69.4924 54.5164 69.3526 55.0421 69.1144 55.5127C68.2875 57.1526 68.0296 58.9206 67.8406 60.7142C67.7402 61.6671 67.8741 62.5963 68.0434 63.5217C68.1005 63.8268 68.1379 64.1832 68.4608 64.4352C68.1556 62.6948 68.5474 60.9997 68.6537 59.2868C68.764 57.5188 69.3664 55.9182 69.9984 54.2763C71.0733 55.8178 71.664 57.5503 72.422 59.1903C72.9614 60.3578 73.2429 61.6513 73.5855 62.9015C74.0226 64.5061 74.2273 66.15 74.3199 67.8116C74.3632 68.5795 74.503 69.3434 74.5128 70.1092C74.5286 71.2235 74.6723 72.3182 74.8633 73.4109C74.8731 73.462 74.8928 73.5329 74.9893 73.5172C75.0916 73.3616 75.0739 73.1884 75.0562 73.0092C75.0148 72.5938 74.9676 72.1764 74.942 71.759C74.8121 69.6584 74.753 67.5498 74.5443 65.457C74.2825 62.8365 73.5304 60.344 72.4476 57.9264C71.3962 55.5796 70.2583 53.2978 68.825 51.1636C68.4962 50.6734 68.2127 50.1556 67.8701 49.5866C68.0749 49.6614 68.2265 49.6929 68.3525 49.7658C69.8251 50.6163 71.3844 51.3014 72.8216 52.2228C74.2037 53.1068 75.5346 54.0262 76.6844 55.2095C77.9818 56.5443 78.7516 58.1174 79.0174 59.9483C79.171 61.0056 79.1828 62.0687 79.165 63.1338C79.1631 63.248 79.1079 63.4173 79.2733 63.4272C79.4407 63.437 79.4013 63.2559 79.4151 63.1476C79.5037 62.4821 79.4997 61.8147 79.4781 61.1414C79.3659 57.5366 77.6707 54.861 74.7373 52.8784C73.6702 52.1578 72.5716 51.4963 71.4612 50.8427C70.4906 50.2718 69.5141 49.6969 68.4962 49.248C67.2244 48.6869 66.3975 47.7852 65.7793 46.596C66.9487 46.8146 68.1005 47.0449 69.1085 47.732C69.7799 48.1907 70.5457 48.4782 71.2919 48.7912C71.4277 48.8483 71.6049 49.0334 71.7191 48.8149C71.8431 48.5727 71.5833 48.5195 71.4376 48.4506C70.7859 48.1435 70.1579 47.799 69.5436 47.421C68.7226 46.9169 67.8583 46.5114 66.8857 46.3755C66.3187 46.2968 65.795 46.0527 65.2536 45.8755C65.0469 45.8085 64.8914 45.6983 64.7417 45.5368C64.1629 44.9167 63.8774 44.076 63.277 43.4932C62.0229 42.2785 61.2373 40.6956 59.9655 39.4809C58.9319 38.4925 58.1148 37.2798 57.1363 36.2205C56.8174 35.874 56.5398 35.4921 56.1834 35.0511C59.2528 35.6043 62.2178 36.1044 65.1453 36.8368C68.0769 37.5692 70.8095 38.8686 73.7076 39.7053C73.558 39.5557 73.3886 39.4415 73.2075 39.3588C72.5401 39.0615 71.8648 38.776 71.1954 38.4827C68.9963 37.5199 66.7775 36.6143 64.4189 36.1005C62.6765 35.7205 60.94 35.3051 59.1799 35.0078C58.2192 34.8463 57.2505 34.7203 56.2996 34.4979C56.213 34.4782 56.1165 34.4644 56.0318 34.4821C55.7562 34.5412 55.581 34.4112 55.4176 34.2104C54.7383 33.3717 54.0414 32.5468 53.3031 31.7573C53.248 31.6983 53.1555 31.6431 53.2421 31.4915C53.9902 31.6195 54.758 31.7357 55.518 31.8813C56.589 32.0861 57.5478 32.6039 58.5519 32.9957C58.6917 33.0508 58.8925 33.1965 58.989 33.0036C59.0953 32.7909 58.859 32.7417 58.7153 32.6807C58.2172 32.472 57.723 32.2534 57.2171 32.0684C56.0023 31.6254 54.7699 31.2002 53.4842 31.0879C52.8267 31.0308 52.4231 30.767 52.0116 30.3162C51.3265 29.5641 50.5862 28.8593 49.8262 28.1781C49.21 27.6248 48.6273 27.0342 47.9776 26.4081C48.1803 26.3629 48.2926 26.3313 48.4067 26.3136C49.4581 26.1581 50.5094 26.0065 51.5607 25.8529C52.1376 25.7683 52.7164 25.599 53.2933 25.6108C54.9392 25.6403 56.5811 25.3962 58.2251 25.5399C58.989 25.6068 59.7568 25.4474 60.5128 25.536C62.0918 25.721 63.6786 25.786 65.2615 25.9179C67.4626 26.103 69.6381 26.414 71.8077 26.7901C73.2351 27.0362 74.5423 27.6189 75.8221 28.3001C76.7868 28.814 77.6373 29.4322 78.3559 30.2453C78.602 30.5249 78.8441 30.8084 79.0922 31.084C79.167 31.1667 79.2477 31.3399 79.3678 31.2494C79.5155 31.1372 79.3383 31.021 79.2832 30.9147C79.2477 30.8497 79.1906 30.7966 79.1473 30.7355C78.224 29.4322 76.9738 28.4852 75.702 27.5599C74.7806 26.8905 73.8001 26.4101 72.6543 26.2172C71.1304 25.9632 69.6145 25.6738 68.0808 25.4789C66.5491 25.2859 65.0233 24.9945 63.4876 24.8981C61.8909 24.7957 60.2884 24.7544 58.6818 24.7898C56.8075 24.8292 54.9411 25.0339 53.0649 24.9768C52.7991 24.969 52.5294 25.0457 52.2636 25.0851C50.8835 25.2879 49.5211 25.5931 48.1351 25.7604C47.6389 25.8195 47.255 25.7092 46.8967 25.3292C45.5284 23.8802 44.105 22.4863 42.6047 21.1712C42.3567 20.9546 42.4118 20.8168 42.6481 20.6514C43.2033 20.2655 43.7565 19.8796 44.2979 19.476C46.2785 17.9936 48.4678 16.8812 50.7319 15.9204C52.1415 15.3239 53.6595 15.0384 55.1065 14.5423C55.5022 14.4064 55.8901 14.2332 56.3193 14.2214C57.6856 14.1859 59.0421 14.2489 60.3769 14.5836C60.4793 14.6092 60.5797 14.7451 60.7648 14.6269C60.1958 14.3808 59.6879 14.1584 59.1071 14.1013C58.5007 14.0422 57.8904 14.0186 57.284 13.9182C56.8154 13.8414 56.3173 13.8315 55.8547 13.9713C54.7088 14.3178 53.5551 14.6289 52.4034 14.9557C51.0941 15.3278 49.779 15.7058 48.6194 16.4618C48.015 16.8556 47.2944 16.9954 46.6585 17.332C45.0736 18.1707 43.6265 19.2201 42.1854 20.2734C41.9295 20.4604 41.8113 20.423 41.5967 20.2439C39.7382 18.7063 37.8659 17.1844 36.0644 15.5798C35.3498 14.9439 34.6883 14.247 33.8594 13.7469C33.6409 13.615 33.5976 13.4654 33.8161 13.2547C35.4896 11.6442 37.1394 10.0101 38.8306 8.41739C39.3563 7.92126 40.0256 7.63578 40.7698 7.54916C41.5731 7.45662 42.3705 7.32669 43.1698 7.2125C43.2426 7.20265 43.3194 7.181 43.3273 7.06877C43.2978 7.05106 43.2663 7.01168 43.2308 7.01168C42.1224 6.95852 41.0258 7.10421 39.9646 7.37197C39.2204 7.56097 38.5353 7.96654 37.982 8.54536C37.7005 8.84068 37.3442 9.0415 37.0232 9.28956C35.6746 10.3251 34.4264 11.467 33.3692 12.8019C33.19 13.0283 33.0916 13.0047 32.9164 12.8491C32.5364 12.5144 32.1525 12.1856 31.7469 11.8352C31.932 11.6915 32.0855 11.5753 32.2352 11.4552C33.9716 10.0456 35.8223 8.78949 37.667 7.52947C37.9033 7.36803 38.1573 7.23809 38.4329 7.15146C39.0078 6.97034 39.5551 6.72621 40.0768 6.42105C40.6241 6.10013 41.199 6.04304 41.8133 6.18676C42.6185 6.37379 43.4316 6.52342 44.2349 6.71046C46.3809 7.20856 48.5761 7.51963 50.6098 8.44299C51.7497 8.96274 52.9133 9.43328 54.065 9.92548C53.8012 9.97076 53.5768 9.8861 53.3504 9.81129C52.5668 9.55338 51.7793 9.30925 50.9799 9.10253C49.0525 8.60049 47.068 8.4863 45.1149 8.15751C43.6108 7.90354 42.2248 8.11223 40.9785 9.05725C40.5926 9.35059 40.2855 9.71482 39.9272 10.0298C38.868 10.967 38.0864 12.1482 37.1394 13.1878C36.6866 13.6839 36.7594 13.991 37.3146 14.3769C38.2872 15.0542 39.1909 15.8121 40.0906 16.578C40.5395 16.9599 41.0494 17.1371 41.6282 17.0682C42.9099 16.9147 44.1896 16.7512 45.4398 16.4225C47.4735 15.8889 49.4935 15.3062 51.4584 14.5639C53.9292 13.6288 56.4729 13.2704 59.0933 13.3905C60.5305 13.4555 61.9224 13.7528 63.1844 14.4812C64.3401 15.1467 65.4466 15.8909 66.5255 16.6705C67.4941 17.3694 68.6045 17.8754 69.4393 18.7555C69.8527 19.1906 70.3272 19.5528 70.7879 19.9328C71.0635 20.1612 71.3352 20.3955 71.5833 20.6534C71.5833 20.6534 71.5931 20.6593 71.599 20.6613C71.6167 20.6691 71.6364 20.6711 71.6541 20.679C71.6758 20.6888 71.6916 20.7065 71.6837 20.7479C71.6305 20.7302 71.5774 20.7144 71.5242 20.6967C71.3726 20.6317 71.219 20.5746 71.0714 20.5018C69.5456 19.7635 68.1753 18.7515 66.6495 17.9995C64.9367 17.1568 63.2218 16.3437 61.4106 15.7373C61.1074 15.6369 60.8081 15.5641 60.4892 15.5483C59.2016 15.4774 57.914 15.6527 56.6244 15.5601C55.6066 15.4873 54.6852 15.8259 53.7855 16.2807C52.7282 16.8143 51.6926 17.3832 50.7063 18.0369C49.4305 18.8815 48.139 19.7064 47.507 21.2105C47.4086 21.4448 47.4145 21.5846 47.572 21.7657C48.0327 22.2993 48.4697 22.8545 48.8438 23.455C49.019 23.7345 49.275 23.8586 49.5821 23.9117C50.1452 24.0102 50.7122 24.0574 51.2851 24.0102C52.8542 23.8822 54.4352 23.8979 56.0023 23.894C58.1188 23.8901 60.2253 23.7109 62.3398 23.6932C64.9957 23.6715 67.6437 23.6794 70.2858 24.022C71.4927 24.1775 72.6858 24.4078 73.8887 24.5791C74.7569 24.7032 75.5307 24.9512 76.2532 25.4651C77.4581 26.3215 78.4445 27.4181 79.5627 28.3671C80.3955 29.0739 80.9566 29.8358 80.9862 31.0151C81.0354 32.9563 81.8564 34.7794 82.0001 36.7167C82.004 36.7718 82.0473 36.825 82.071 36.8801C82.4549 37.8172 82.3978 38.8134 82.5435 39.8628C82.3092 39.6679 82.2639 39.473 82.1832 39.3017C81.9174 38.7307 81.6733 38.1401 81.2775 37.6459C80.1376 36.2245 79.1808 34.679 78.222 33.1374C77.4975 31.9719 76.5052 31.2671 75.2117 30.8044C71.5144 29.4814 67.691 28.6171 63.905 27.6248C62.4245 27.237 60.9046 27.0086 59.4221 26.6208C58.9811 26.5046 58.5302 26.4633 58.0833 26.5656C57.1895 26.7704 56.2838 26.8925 55.3802 27.0303C54.8998 27.1031 54.4509 27.2665 54.1024 27.6367C53.7244 28.0403 53.6772 28.2115 54.0217 28.6525C54.9982 29.8968 56.1874 30.9166 57.6462 31.5289C58.9575 32.0802 60.3297 32.4877 61.6803 32.9406C64.3854 33.8442 67.059 34.8306 69.6283 36.069C71.3313 36.8899 72.8807 37.9806 74.4478 39.0359C77.4404 41.048 80.3581 43.1389 82.7502 45.8833C83.3881 46.6157 83.6322 47.4702 83.7523 48.3738C83.7996 48.7302 83.7799 49.1161 83.7425 49.498C83.2562 48.9901 83.0061 48.364 82.7089 47.7694C82.1832 46.7201 81.6752 45.655 80.7539 44.8852C79.6907 43.9972 78.5114 43.2649 77.273 42.6624C75.4224 41.7627 73.4595 41.1248 71.5163 40.4672C68.8663 39.5694 66.0648 39.2741 63.3518 38.6185C63.2789 38.6008 63.2022 38.5929 63.1293 38.5929C62.5603 38.587 62.2493 39.0083 62.4245 39.5498C62.6627 40.2881 62.9226 41.0185 63.214 41.739C63.5683 42.6191 64.096 43.3219 64.9918 43.7177C65.4426 43.9165 65.858 44.1961 66.305 44.4107C69.6932 46.0507 73.1347 47.5785 76.1823 49.8485C77.842 51.0849 79.6021 52.1992 81.0531 53.6876C82.0277 54.6877 82.8683 55.8119 82.9609 57.3042C82.9668 57.4086 82.9943 57.511 83.014 57.6133C83.2542 58.8911 83.1144 60.1649 82.5592 61.3009C81.8564 62.7361 81.0315 64.1221 79.9467 65.327C79.5352 65.7838 79.1355 66.2622 78.8717 66.8194C77.6333 69.4339 76.4324 72.0642 75.6015 74.8461C75.4027 75.5096 75.1625 76.1593 74.94 76.8149C74.5167 75.6021 73.808 74.5882 73.2193 73.5113C71.4021 70.184 72.2231 71.1566 69.2955 68.6996C69.203 68.6228 69.1124 68.544 69.0199 68.4692C67.1574 66.9532 65.106 65.8035 62.7493 65.2463C62.584 65.2069 62.5111 65.1479 62.5446 64.9786C62.7611 63.8406 62.708 62.6731 62.9423 61.5371C63.3262 59.6668 63.8578 57.8319 64.4917 56.0363C64.98 54.6543 65.5923 53.3017 66.6613 52.2346C66.998 51.898 67.057 51.5613 66.8129 51.1498C66.7322 51.014 66.7243 50.8348 66.6849 50.6754C66.5412 50.0788 66.4644 49.4567 66.2459 48.8877C65.7557 47.6119 65.0292 47.4111 64.1432 48.4309C63.3557 49.3366 62.5682 50.2442 61.824 51.1833C60.9302 52.3114 59.9871 53.4179 59.237 54.6405C58.0124 56.6349 57.0221 58.7592 56.3193 61.0036C56.0594 61.8344 55.6204 62.6298 55.5475 63.4902C55.4235 64.9569 55.3054 66.4394 55.5771 67.9593C55.203 67.8431 54.8388 67.723 54.4706 67.6128C53.4311 67.3017 52.4211 66.9237 51.5351 66.276C50.9642 65.8586 50.5704 65.3172 50.5133 64.6006C50.3125 62.1199 50.2357 59.6353 50.3421 57.1467C50.4917 53.6364 51.23 50.254 52.5294 46.9937C53.6102 44.2788 54.8762 41.6701 56.9808 39.5635C57.1501 39.3942 57.2899 39.1895 57.3549 38.9552C57.4415 38.6422 57.2604 38.4453 56.9729 38.4827C56.0082 38.6126 55.073 38.8804 54.1241 39.0773C53.3897 39.2288 52.7243 39.5222 52.1533 40.0006C51.1355 40.8531 50.281 41.867 49.5073 42.9341C48.3536 44.5249 47.3101 46.1924 46.3198 47.8895C45.6229 49.0806 44.6759 50.1162 44.0892 51.3684C42.7288 54.2704 41.3743 57.1763 40.1064 60.1196C40.063 60.22 40.0965 60.4011 39.9252 60.3815C39.6457 60.3519 39.6122 60.5626 39.5393 60.7339C38.8011 62.4526 38.3089 64.2422 38.1356 66.1047C38.0884 66.6146 38.1632 67.1875 38.4309 67.6148C38.7184 68.0755 38.8601 68.5637 39.1121 69.1071C38.7085 69.0028 38.4486 68.8256 38.1809 68.6681C37.7399 68.4101 37.2989 68.1503 36.8126 67.9869C35.2789 67.475 33.7432 66.967 32.2037 66.4729C31.8217 66.3508 31.6485 66.1342 31.6209 65.7287C31.5205 64.2186 31.4083 62.7086 31.2783 61.2005C31.1169 59.3518 30.8708 57.509 31.0637 55.6465C31.361 52.7721 31.9891 49.9666 32.7805 47.1945C33.4342 44.9049 34.3634 42.7234 35.4876 40.6326C36.7831 38.2248 38.614 36.2422 40.634 34.427C41.3349 33.797 41.9944 33.102 42.8863 32.7319C43.3588 32.537 43.8136 32.3105 44.2152 32.0014C44.8708 31.4974 45.5638 31.0486 46.2529 30.5957C46.6841 30.3122 46.6703 29.9598 46.2116 29.7078C45.6505 29.4007 45.0441 29.3928 44.4652 29.5976C41.8625 30.5209 39.246 31.3911 36.7712 32.6531C33.5523 34.2951 30.4514 36.1103 27.6144 38.3488C26.0591 39.5754 24.5963 40.9082 23.2063 42.3218C22.9858 42.5462 22.6393 42.7195 22.5487 42.9853C22.1373 44.1882 21.6628 45.3675 21.5073 46.6551C21.2789 48.5451 21.1726 50.4489 20.8635 52.3331C20.6351 53.7211 20.4992 55.1307 20.4244 56.5364C20.3476 57.9815 20.3969 59.4345 20.391 60.8835C20.3851 60.9209 20.3792 60.9583 20.3713 60.9937C20.3417 60.976 20.3122 60.9583 20.2827 60.9406C19.9401 60.659 19.7275 60.2732 19.4715 59.9208C18.4045 58.452 17.5284 56.8436 16.3235 55.4772C15.0339 54.0164 14.4216 52.2504 14.0259 50.4096C13.6853 48.8306 13.4353 47.232 13.3821 45.6038C13.3171 43.6212 13.26 41.6445 13.5435 39.6758C13.6518 38.9296 13.8802 38.2169 14.3173 37.5829C15.0851 36.4726 15.8372 35.3503 16.5991 34.234C17.7843 32.5015 18.9459 30.7513 20.1035 29.001C21.4384 26.983 23.1 25.217 24.6593 23.3742C24.9467 23.0336 25.2952 22.7777 25.6909 22.5907C26.4666 22.2264 27.1892 21.7677 27.9216 21.3247C28.7799 20.8069 29.6344 20.3325 30.6916 20.4486C30.9358 20.4762 31.2055 20.425 31.2646 20.1316C31.3236 19.8304 31.1149 19.667 30.857 19.5686C30.4495 19.413 30.0301 19.291 29.6344 19.1079C27.1222 17.9522 24.5864 18.2416 22.0802 19.0567C20.3831 19.608 18.8533 20.5805 17.172 21.1948C16.92 21.2873 16.6837 21.431 16.4593 21.5787C15.8982 21.9449 15.2898 22.1831 14.6441 22.3465C14.1046 22.4824 13.5632 22.6478 13.1596 23.0612C12.2323 24.0121 11.372 25.03 10.868 26.2664C9.75166 29.003 8.59205 31.7298 8.06244 34.6632C8.03488 34.8207 8.03291 34.996 7.86557 35.1712C7.85375 34.9546 7.84588 34.7932 7.838 34.6298C7.8006 33.8954 7.82225 33.1532 7.61159 32.4405C7.12333 30.7887 7.20209 29.005 6.42638 27.4221C6.4126 27.3965 6.4067 27.365 6.40473 27.3354C6.36142 25.9277 5.95388 24.5476 6.08185 23.1281C6.16454 22.2008 6.42048 21.3621 7.30643 20.8542L7.28871 20.8581ZM32.9931 13.806L32.9774 13.8237L32.9656 13.804H32.9931V13.806Z" stroke="white" stroke-width="9" stroke-linejoin="round" mask="url(#path-1-outside-1_935_772)"/>
<path d="M45.3906 31.2236C44.2939 31.3516 43.2406 31.6331 42.207 31.9816C43.2406 31.6331 44.2939 31.3496 45.3906 31.2236Z" fill="white"/>
<path d="M56.0887 40.3489C55.6654 40.4532 55.2422 40.5674 54.8169 40.6698C55.2422 40.5674 55.6635 40.4552 56.0887 40.3489Z" fill="white"/>
</g>
<defs>
<clipPath id="clip0_935_772">
<rect width="90" height="83" fill="white" transform="translate(0 0.300293)"/>
</clipPath>
</defs>
</svg>
