<svg width="90" height="91" viewBox="0 0 90 91" fill="none" xmlns="http://www.w3.org/2000/svg">
<path d="M47.5212 34.7986C47.5212 36.2339 46.3576 37.3974 44.9224 37.3974H36.8784V45.4414C36.8784 46.8767 35.7149 48.0402 34.2796 48.0402C32.8443 48.0402 31.6808 46.8767 31.6808 45.4414V37.3974H23.6368C22.2015 37.3974 21.038 36.2339 21.038 34.7986C21.038 33.3633 22.2015 32.1998 23.6368 32.1998H31.6808V24.1559C31.6808 22.7206 32.8443 21.5571 34.2796 21.5571C35.7149 21.5571 36.8784 22.7206 36.8784 24.1559V32.1998H44.9224C46.3576 32.1998 47.5212 33.3633 47.5212 34.7986ZM17.5729 51.7528C22.193 56.3729 27.8032 58.683 34.4033 58.683C41.0035 58.683 46.6136 56.3729 51.2338 51.7528C55.8539 47.1327 58.1639 41.5225 58.1639 34.9224C58.1639 28.3222 55.8539 22.7121 51.2338 18.092C46.6136 13.4719 41.0035 11.1618 34.4033 11.1618C27.8032 11.1618 22.193 13.4719 17.5729 18.092C12.9528 22.7121 10.6428 28.3222 10.6428 34.9224C10.6428 41.5225 12.9528 47.1327 17.5729 51.7528ZM61.8765 58.683C64.5706 58.683 67.1543 59.7532 69.0593 61.6582L88.3597 80.9585C90.5468 83.1456 90.5468 86.6916 88.3597 88.8787C86.1726 91.0658 82.6266 91.0658 80.4395 88.8787L61.1392 69.5784C59.2341 67.6734 58.1639 65.0896 58.1639 62.3956L56.6789 60.9105C50.4087 66.3557 42.9836 69.0782 34.4033 69.0782C24.8331 69.0782 16.6654 65.7781 9.90024 59.178C3.30008 52.5778 0 44.4926 0 34.9224C0 25.3522 3.30008 17.267 9.90024 10.6668C16.6654 3.90163 24.8331 0.519043 34.4033 0.519043C43.9736 0.519043 52.0588 3.90163 58.6589 10.6668C65.2591 17.267 68.5592 25.3522 68.5592 34.9224C68.5592 38.3875 67.7342 42.3476 66.0841 46.8027C64.4341 51.0928 62.5365 54.5579 60.3915 57.1979L61.8765 58.683Z" fill="#FFF5DF"/>
</svg>
